<?xml version="1.0" encoding="utf-8"?>
<!-- Generator: Adobe Illustrator 26.0.3, SVG Export Plug-In . SVG Version: 6.00 Build 0)  -->
<svg version="1.1" id="Layer_1" xmlns="http://www.w3.org/2000/svg" xmlns:xlink="http://www.w3.org/1999/xlink" x="0px" y="0px"
	 viewBox="0 0 552.76 339.65" style="enable-background:new 0 0 552.76 339.65;" xml:space="preserve">
<style type="text/css">
	.st0{fill-rule:evenodd;clip-rule:evenodd;fill:none;}
	
		.st1{clip-path:url(#SVGID_00000041268038590694926470000009705270003751481261_);fill:none;stroke:#231F20;stroke-width:0.5;stroke-linejoin:round;}
	.st2{font-family:'ArialMT';}
	.st3{font-size:12px;}
	.st4{fill:none;stroke:#000000;stroke-miterlimit:10;}
	.st5{fill:#FFFFFF;stroke:#000000;stroke-miterlimit:10;}
	.st6{fill:url(#SVGID_00000115476184402319607060000007330238982889488015_);}
	.st7{fill:url(#SVGID_00000022539923695999891360000002689803083063070615_);}
	.st8{fill:none;stroke:#000000;stroke-width:0.25;stroke-miterlimit:10;}
</style>
<pattern  y="-247.39" width="72" height="72" patternUnits="userSpaceOnUse" id="diagonal_cross_hatch" viewBox="6.18 -86.18 72 72" style="overflow:visible;">
	<g>
		<rect x="6.18" y="-86.18" class="st0" width="72" height="72"/>
		<g>
			<defs>
				<rect id="SVGID_1_" x="6.18" y="-86.18" width="72" height="72"/>
			</defs>
			<clipPath id="SVGID_00000086684018051543109430000013953995959643899559_">
				<use xlink:href="#SVGID_1_"  style="overflow:visible;"/>
			</clipPath>
			
				<line style="clip-path:url(#SVGID_00000086684018051543109430000013953995959643899559_);fill:none;stroke:#231F20;stroke-width:0.5;stroke-linejoin:round;" x1="0.18" y1="-74.18" x2="18.18" y2="-92.18"/>
			
				<line style="clip-path:url(#SVGID_00000086684018051543109430000013953995959643899559_);fill:none;stroke:#231F20;stroke-width:0.5;stroke-linejoin:round;" x1="0.18" y1="-68.18" x2="24.18" y2="-92.18"/>
			
				<line style="clip-path:url(#SVGID_00000086684018051543109430000013953995959643899559_);fill:none;stroke:#231F20;stroke-width:0.5;stroke-linejoin:round;" x1="0.18" y1="-62.18" x2="30.18" y2="-92.18"/>
			
				<line style="clip-path:url(#SVGID_00000086684018051543109430000013953995959643899559_);fill:none;stroke:#231F20;stroke-width:0.5;stroke-linejoin:round;" x1="0.18" y1="-56.18" x2="36.18" y2="-92.18"/>
			
				<line style="clip-path:url(#SVGID_00000086684018051543109430000013953995959643899559_);fill:none;stroke:#231F20;stroke-width:0.5;stroke-linejoin:round;" x1="0.18" y1="-50.18" x2="42.18" y2="-92.18"/>
			
				<line style="clip-path:url(#SVGID_00000086684018051543109430000013953995959643899559_);fill:none;stroke:#231F20;stroke-width:0.5;stroke-linejoin:round;" x1="0.18" y1="-44.18" x2="48.18" y2="-92.18"/>
			
				<line style="clip-path:url(#SVGID_00000086684018051543109430000013953995959643899559_);fill:none;stroke:#231F20;stroke-width:0.5;stroke-linejoin:round;" x1="0.18" y1="-38.18" x2="54.18" y2="-92.18"/>
			
				<line style="clip-path:url(#SVGID_00000086684018051543109430000013953995959643899559_);fill:none;stroke:#231F20;stroke-width:0.5;stroke-linejoin:round;" x1="0.18" y1="-32.18" x2="60.18" y2="-92.18"/>
			
				<line style="clip-path:url(#SVGID_00000086684018051543109430000013953995959643899559_);fill:none;stroke:#231F20;stroke-width:0.5;stroke-linejoin:round;" x1="0.18" y1="-26.18" x2="66.18" y2="-92.18"/>
			
				<line style="clip-path:url(#SVGID_00000086684018051543109430000013953995959643899559_);fill:none;stroke:#231F20;stroke-width:0.5;stroke-linejoin:round;" x1="0.18" y1="-20.18" x2="72.18" y2="-92.18"/>
			
				<line style="clip-path:url(#SVGID_00000086684018051543109430000013953995959643899559_);fill:none;stroke:#231F20;stroke-width:0.5;stroke-linejoin:round;" x1="0.18" y1="-14.18" x2="78.18" y2="-92.18"/>
			
				<line style="clip-path:url(#SVGID_00000086684018051543109430000013953995959643899559_);fill:none;stroke:#231F20;stroke-width:0.5;stroke-linejoin:round;" x1="0.18" y1="-8.18" x2="84.18" y2="-92.18"/>
			
				<line style="clip-path:url(#SVGID_00000086684018051543109430000013953995959643899559_);fill:none;stroke:#231F20;stroke-width:0.5;stroke-linejoin:round;" x1="6.18" y1="-8.18" x2="84.18" y2="-86.18"/>
			
				<line style="clip-path:url(#SVGID_00000086684018051543109430000013953995959643899559_);fill:none;stroke:#231F20;stroke-width:0.5;stroke-linejoin:round;" x1="12.18" y1="-8.18" x2="84.18" y2="-80.18"/>
			
				<line style="clip-path:url(#SVGID_00000086684018051543109430000013953995959643899559_);fill:none;stroke:#231F20;stroke-width:0.5;stroke-linejoin:round;" x1="18.18" y1="-8.18" x2="84.18" y2="-74.18"/>
			
				<line style="clip-path:url(#SVGID_00000086684018051543109430000013953995959643899559_);fill:none;stroke:#231F20;stroke-width:0.5;stroke-linejoin:round;" x1="24.18" y1="-8.18" x2="84.18" y2="-68.18"/>
			
				<line style="clip-path:url(#SVGID_00000086684018051543109430000013953995959643899559_);fill:none;stroke:#231F20;stroke-width:0.5;stroke-linejoin:round;" x1="30.18" y1="-8.18" x2="84.18" y2="-62.18"/>
			
				<line style="clip-path:url(#SVGID_00000086684018051543109430000013953995959643899559_);fill:none;stroke:#231F20;stroke-width:0.5;stroke-linejoin:round;" x1="36.18" y1="-8.18" x2="84.18" y2="-56.18"/>
			
				<line style="clip-path:url(#SVGID_00000086684018051543109430000013953995959643899559_);fill:none;stroke:#231F20;stroke-width:0.5;stroke-linejoin:round;" x1="42.18" y1="-8.18" x2="84.18" y2="-50.18"/>
			
				<line style="clip-path:url(#SVGID_00000086684018051543109430000013953995959643899559_);fill:none;stroke:#231F20;stroke-width:0.5;stroke-linejoin:round;" x1="48.18" y1="-8.18" x2="84.18" y2="-44.18"/>
			
				<line style="clip-path:url(#SVGID_00000086684018051543109430000013953995959643899559_);fill:none;stroke:#231F20;stroke-width:0.5;stroke-linejoin:round;" x1="54.18" y1="-8.18" x2="84.18" y2="-38.18"/>
			
				<line style="clip-path:url(#SVGID_00000086684018051543109430000013953995959643899559_);fill:none;stroke:#231F20;stroke-width:0.5;stroke-linejoin:round;" x1="52.18" y1="-0.18" x2="94.18" y2="-42.18"/>
			
				<line style="clip-path:url(#SVGID_00000086684018051543109430000013953995959643899559_);fill:none;stroke:#231F20;stroke-width:0.5;stroke-linejoin:round;" x1="58.18" y1="-0.18" x2="94.18" y2="-36.18"/>
			
				<line style="clip-path:url(#SVGID_00000086684018051543109430000013953995959643899559_);fill:none;stroke:#231F20;stroke-width:0.5;stroke-linejoin:round;" x1="64.18" y1="-0.18" x2="94.18" y2="-30.18"/>
		</g>
	</g>
</pattern>
<text transform="matrix(1 0 0 1 26.0001 245.4779)"><tspan x="0" y="0" class="st2 st3">125 mm </tspan><tspan x="0" y="14.4" class="st2 st3">sphere must </tspan><tspan x="0" y="28.8" class="st2 st3">not pass </tspan><tspan x="0" y="43.2" class="st2 st3">through </tspan><tspan x="0" y="57.6" class="st2 st3">balustrade</tspan></text>
<text transform="matrix(1 0 0 1 391.0018 228.9779)"><tspan x="0" y="0" class="st2 st3">125 mm sphere must </tspan><tspan x="0" y="14.4" class="st2 st3">not pass through threads</tspan></text>
<text transform="matrix(1 0 0 1 391.0018 114.9766)" class="st2 st3">Treads</text>
<text transform="matrix(1 0 0 1 410.0001 306.4778)" class="st2 st3">Floor level</text>
<text transform="matrix(1 0 0 1 391.0018 44.9779)" class="st2 st3">Central support pole</text>
<line class="st4" x1="111.5" y1="311.3" x2="475.5" y2="311.3"/>
<rect x="262.17" y="110.11" class="st5" width="66.5" height="6"/>
<g>
	<rect x="297.5" y="169.71" class="st4" width="157" height="6"/>
	<rect x="297.5" y="189.58" class="st4" width="115" height="6"/>
	<rect x="136.5" y="50.11" class="st4" width="156.5" height="6"/>
	<rect x="179.75" y="70.61" class="st4" width="112.5" height="6"/>
	<rect x="220.75" y="90.11" class="st4" width="72.5" height="6"/>
	<rect x="296.5" y="129.98" class="st4" width="73.5" height="6"/>
	<rect x="297.5" y="149.85" class="st4" width="115" height="6"/>
	<rect x="297.5" y="210.71" class="st4" width="72.5" height="6"/>
	<rect x="261.5" y="230.58" class="st4" width="66.5" height="6"/>
	<rect x="220.75" y="251.86" class="st4" width="71.5" height="6"/>
	<rect x="179.75" y="270.94" class="st4" width="112.5" height="6"/>
	<rect x="136.5" y="290.12" class="st4" width="155.75" height="6"/>
</g>
<g>
	<rect x="292" y="29.45" width="5.5" height="281.86"/>
	<polygon points="276.05,150.83 274.31,147.23 143.5,209.95 143.5,209.9 143.32,210.03 124.41,219.1 126.15,222.7 139.5,216.3 
		139.5,290.12 143.5,290.12 143.5,214.38 160.25,206.35 160.25,289.94 164.25,289.94 164.25,204.44 181.12,196.34 181.12,271.28 
		185.12,271.28 185.12,194.43 201.94,186.37 201.94,271.12 205.94,271.12 205.94,184.45 223,176.27 223,251.79 227,251.79 
		227,174.35 242.5,166.92 242.5,251.78 246.5,251.78 246.5,165 	"/>
</g>
<g>
	<circle class="st5" cx="152.38" cy="245.99" r="8.88"/>
	<circle class="st5" cx="397.8" cy="185.22" r="9.55"/>
</g>
<g>
	
		<pattern  id="SVGID_00000059277408435068732540000010617296690612347537_" xlink:href="#diagonal_cross_hatch" patternTransform="matrix(1 0 0 1 152.2782 37.6964)">
	</pattern>
	<circle style="fill:url(#SVGID_00000059277408435068732540000010617296690612347537_);" cx="152.38" cy="245.99" r="8.88"/>
	
		<pattern  id="SVGID_00000107571516372245474760000004220919463194707598_" xlink:href="#diagonal_cross_hatch" patternTransform="matrix(1 0 0 1 152.2782 37.6964)">
	</pattern>
	<circle style="fill:url(#SVGID_00000107571516372245474760000004220919463194707598_);" cx="397.8" cy="185.22" r="9.55"/>
</g>
<g>
	<g>
		<line class="st8" x1="385.5" y1="41.61" x2="304.14" y2="41.61"/>
		<g>
			<polygon points="305.63,39.43 297.5,41.61 305.63,43.79 			"/>
		</g>
	</g>
</g>
<g>
	<g>
		<line class="st8" x1="385.5" y1="112.98" x2="335.64" y2="112.98"/>
		<g>
			<polygon points="337.13,110.8 329,112.98 337.13,115.16 			"/>
		</g>
	</g>
</g>
<g>
	<g>
		<polyline class="st8" points="387.5,224.11 379,224.11 389.23,198.74 		"/>
		<g>
			<polygon points="390.7,200.94 391.72,192.58 386.65,199.31 			"/>
		</g>
	</g>
</g>
<g>
	<g>
		<polyline class="st8" points="85,299.61 99.5,299.61 147.47,259.26 		"/>
		<g>
			<polygon points="147.74,261.89 152.56,254.99 144.93,258.55 			"/>
		</g>
	</g>
</g>
</svg>
