<svg id="_0" data-name="0" xmlns="http://www.w3.org/2000/svg" xmlns:xlink="http://www.w3.org/1999/xlink" viewBox="0 0 497.06 86.79"><defs><style>.cls-1,.cls-4{fill:none;}.cls-2{fill:#231f20;stroke-width:0.5px;}.cls-2,.cls-4{stroke:#231f20;stroke-miterlimit:10;}.cls-3{fill:url(#Masonry_crosshatch);}</style><pattern id="Masonry_crosshatch" data-name="Masonry crosshatch" width="28.35" height="28.35" patternTransform="translate(50.89 -7.95)" patternUnits="userSpaceOnUse" viewBox="0 0 28.35 28.35"><rect class="cls-1" width="28.35" height="28.35"/><line class="cls-2" x1="28.35" y1="28.35" x2="56.69" y2="56.69"/><line class="cls-2" y1="28.35" x2="28.35" y2="56.69"/><line class="cls-2" x1="2.1" y1="25.84" x2="30.45" y2="54.19"/><line class="cls-2" x1="-28.35" y1="28.35" y2="56.69"/><line class="cls-2" x1="-26.24" y1="25.84" x2="2.1" y2="54.19"/><line class="cls-2" x1="28.35" x2="56.69" y2="28.35"/><line class="cls-2" x2="28.35" y2="28.35"/><line class="cls-2" x1="2.1" y1="-2.51" x2="30.45" y2="25.84"/><line class="cls-2" x1="-28.35" y2="28.35"/><line class="cls-2" x1="-26.24" y1="-2.51" x2="2.1" y2="25.84"/><line class="cls-2" x1="28.35" y1="-28.35" x2="56.69"/><line class="cls-2" y1="-28.35" x2="28.35"/><line class="cls-2" x1="-28.35" y1="-28.35"/></pattern></defs><g id="HATCH"><rect class="cls-3" x="0.5" y="0.5" width="156.54" height="85.79"/></g><g id="HATCH-2" data-name="HATCH"><rect class="cls-3" x="170.26" y="0.5" width="156.54" height="85.79"/></g><g id="HATCH-3" data-name="HATCH"><rect class="cls-3" x="340.03" y="0.5" width="156.54" height="85.79"/></g><g id="POLYLINE"><rect class="cls-4" x="0.5" y="0.5" width="156.54" height="85.79"/></g><g id="POLYLINE-2" data-name="POLYLINE"><rect class="cls-4" x="170.26" y="0.5" width="156.54" height="85.79"/></g><g id="POLYLINE-3" data-name="POLYLINE"><rect class="cls-4" x="340.03" y="0.5" width="156.54" height="85.79"/></g><g id="LINE"><line class="cls-4" x1="0.5" y1="86.29" x2="496.56" y2="86.29"/></g><g id="LINE-2" data-name="LINE"><line class="cls-4" x1="496.56" y1="0.5" x2="0.5" y2="0.5"/></g></svg>