<?xml version="1.0" encoding="utf-8"?>
<!-- Generator: Adobe Illustrator 25.2.1, SVG Export Plug-In . SVG Version: 6.00 Build 0)  -->
<svg version="1.1" id="_x30_" xmlns="http://www.w3.org/2000/svg" xmlns:xlink="http://www.w3.org/1999/xlink" x="0px" y="0px"
	 viewBox="0 0 552.8 322" style="enable-background:new 0 0 552.8 322;" xml:space="preserve">
<style type="text/css">
	.st0{fill:none;stroke:#231F20;stroke-width:0.75;stroke-miterlimit:10;}
	.st1{fill:none;stroke:#231F20;stroke-width:0.75;stroke-miterlimit:10;stroke-dasharray:11.9002,5.9501;}
	.st2{fill:#231F20;}
	.st3{font-family:'ArialMT';}
	.st4{font-size:12px;}
	.st5{font-family:'Arial-ItalicMT';}
	.st6{fill:none;stroke:#231F20;stroke-width:0.25;stroke-miterlimit:10;}
	.st7{fill:none;stroke:#231F20;stroke-linecap:round;stroke-linejoin:round;stroke-miterlimit:10;}
</style>
<g id="LINE">
	<g id="LINE_75_">
		<g>
			<g>
				<g>
					<line class="st0" x1="246.8" y1="163.7" x2="241.8" y2="167.1"/>
					<line class="st1" x1="236.9" y1="170.4" x2="92.2" y2="269.7"/>
					<line class="st0" x1="89.7" y1="271.4" x2="84.8" y2="274.8"/>
				</g>
			</g>
		</g>
	</g>
</g>
<g id="MTEXT">
	<g>
		<text transform="matrix(1 0 0 1 273.2327 37.5906)" class="st2 st3 st4">125 mm sphere must not pass through opening</text>
	</g>
</g>
<g id="MTEXT_2_">
	<g>
		<text transform="matrix(1 0 0 1 383.9375 183.3748)" class="st2 st5 st4">Landing</text>
	</g>
</g>
<g id="MTEXT_3_">
	<g>
		<text transform="matrix(1 0 0 1 270.7813 215.4549)" class="st2 st3 st4">Nosing line</text>
	</g>
</g>
<g id="MTEXT_5_">
	<g>
		<text transform="matrix(1 0 0 1 270.7815 252.629)"><tspan x="0" y="0" class="st2 st3 st4">125 mm sphere must not pass through opening </tspan><tspan x="0" y="14.4" class="st2 st3 st4">when tested above the nosing line</tspan></text>
	</g>
</g>
<g id="MTEXT_6_">
	<g>
		<text transform="matrix(0 -1 1 0 46.0007 250.5793)"><tspan x="0" y="0" class="st2 st3 st4">Not less than</tspan><tspan x="13.3" y="14.4" class="st2 st3 st4">865 mm</tspan></text>
	</g>
</g>
<g>
	<g id="LINE_1_">
		<g>
			<line class="st6" x1="384.1" y1="55.6" x2="420.5" y2="55.6"/>
		</g>
	</g>
	<g id="LINE_2_">
		<g>
			<line class="st6" x1="384.1" y1="163.7" x2="420.5" y2="163.7"/>
		</g>
	</g>
	<g id="LINE_4_">
		<g>
			<line class="st6" x1="74.7" y1="274.8" x2="40.6" y2="274.8"/>
		</g>
	</g>
	<g id="LINE_5_">
		<g>
			<line class="st6" x1="74.7" y1="163.7" x2="40.6" y2="163.7"/>
		</g>
	</g>
</g>
<g>
	<g id="LINE_3_">
		<g id="LINE_79_">
			<g>
				<g>
					<g>
						<g>
							<g>
								<line class="st6" x1="413" y1="64.4" x2="413" y2="154.8"/>
								<g>
									<polygon class="st2" points="410.1,66.4 413,55.6 415.9,66.4 									"/>
								</g>
								<g>
									<polygon class="st2" points="410.1,152.8 413,163.7 415.9,152.8 									"/>
								</g>
							</g>
						</g>
					</g>
				</g>
			</g>
		</g>
	</g>
	<g id="LINE_6_">
		<g id="LINE_76_">
			<g>
				<g>
					<g>
						<g>
							<g>
								<line class="st6" x1="48.2" y1="265.9" x2="48.2" y2="172.5"/>
								<g>
									<polygon class="st2" points="51.1,264 48.2,274.8 45.3,264 									"/>
								</g>
								<g>
									<polygon class="st2" points="51.1,174.5 48.2,163.7 45.3,174.5 									"/>
								</g>
							</g>
						</g>
					</g>
				</g>
			</g>
		</g>
	</g>
</g>
<g>
	<g id="POLYLINE_4_">
		<g id="POLYLINE_5_">
			<g>
				<g>
					<g>
						<g>
							<g>
								<polyline class="st6" points="257.5,65.5 257.5,34 269.1,34 								"/>
								<g>
									<polygon class="st2" points="260.4,63.5 257.5,74.4 254.6,63.5 									"/>
								</g>
							</g>
						</g>
					</g>
				</g>
			</g>
		</g>
	</g>
	<g id="POLYLINE_6_">
		<g id="POLYLINE_3_">
			<g>
				<g>
					<g>
						<g>
							<g>
								<polyline class="st6" points="241.2,178.2 259.7,211.2 267.8,211.2 								"/>
								<g>
									<polygon class="st2" points="239.7,181.3 236.9,170.4 244.8,178.5 									"/>
								</g>
							</g>
						</g>
					</g>
				</g>
			</g>
		</g>
	</g>
	<g id="POLYLINE_8_">
		<g id="POLYLINE_2_">
			<g>
				<g>
					<g>
						<g>
							<g>
								<polyline class="st6" points="185.8,216.7 201.6,249.1 267.8,249.1 								"/>
								<g>
									<polygon class="st2" points="184,219.8 181.8,208.8 189.2,217.2 									"/>
								</g>
							</g>
						</g>
					</g>
				</g>
			</g>
		</g>
	</g>
</g>
<g>
	<g id="MTEXT_4_">
	</g>
	<g id="LINE_7_">
		<g>
			<line class="st7" x1="246.8" y1="60.6" x2="246.8" y2="182.2"/>
		</g>
	</g>
	<g id="LINE_8_">
		<g>
			<line class="st7" x1="246.8" y1="182.2" x2="219.8" y2="182.2"/>
		</g>
	</g>
	<g id="LINE_9_">
		<g>
			<line class="st7" x1="219.8" y1="182.2" x2="219.8" y2="200.7"/>
		</g>
	</g>
	<g id="LINE_10_">
		<g>
			<line class="st7" x1="219.8" y1="200.7" x2="192.8" y2="200.7"/>
		</g>
	</g>
	<g id="LINE_11_">
		<g>
			<line class="st7" x1="192.8" y1="200.7" x2="192.8" y2="219.2"/>
		</g>
	</g>
	<g id="LINE_12_">
		<g>
			<line class="st7" x1="192.8" y1="219.2" x2="165.8" y2="219.2"/>
		</g>
	</g>
	<g id="LINE_13_">
		<g>
			<line class="st7" x1="165.8" y1="219.2" x2="165.8" y2="237.8"/>
		</g>
	</g>
	<g id="LINE_14_">
		<g>
			<line class="st7" x1="165.8" y1="237.8" x2="138.8" y2="237.8"/>
		</g>
	</g>
	<g id="LINE_15_">
		<g>
			<line class="st7" x1="138.8" y1="237.8" x2="138.8" y2="256.3"/>
		</g>
	</g>
	<g id="LINE_16_">
		<g>
			<line class="st7" x1="138.8" y1="256.3" x2="111.8" y2="256.3"/>
		</g>
	</g>
	<g id="LINE_17_">
		<g>
			<line class="st7" x1="111.8" y1="256.3" x2="111.8" y2="274.8"/>
		</g>
	</g>
	<g id="LINE_18_">
		<g>
			<line class="st7" x1="111.8" y1="274.8" x2="84.8" y2="274.8"/>
		</g>
	</g>
	<g id="LINE_19_">
		<g>
			<line class="st7" x1="84.8" y1="168.7" x2="84.8" y2="292.3"/>
		</g>
	</g>
	<g id="LINE_20_">
		<g>
			<line class="st7" x1="41.6" y1="292.3" x2="262.5" y2="292.3"/>
		</g>
	</g>
	<g id="LINE_21_">
		<g>
			<line class="st7" x1="98.8" y1="292.3" x2="274.4" y2="182.5"/>
		</g>
	</g>
	<g id="LINE_22_">
		<g>
			<line class="st7" x1="274.4" y1="182.5" x2="374" y2="182.5"/>
		</g>
	</g>
	<g id="LINE_23_">
		<g>
			<line class="st7" x1="241.4" y1="55.6" x2="83.6" y2="163.8"/>
		</g>
	</g>
	<g id="LINE_24_">
		<g>
			<line class="st7" x1="242.4" y1="60.6" x2="84.4" y2="168.9"/>
		</g>
	</g>
	<g id="SPLINE">
		<g>
			<path class="st7" d="M83.6,163.8c-1.3,1-1.6,2.8-0.6,4.1c0.4,0.5,0.8,0.8,1.4,1"/>
		</g>
	</g>
	<g id="LINE_25_">
		<g>
			<line class="st7" x1="91.8" y1="163.9" x2="91.8" y2="274.8"/>
		</g>
	</g>
	<g id="LINE_26_">
		<g>
			<line class="st7" x1="246.8" y1="152" x2="91.8" y2="258.4"/>
		</g>
	</g>
	<g id="LINE_27_">
		<g>
			<line class="st7" x1="246.8" y1="148.2" x2="91.8" y2="254.5"/>
		</g>
	</g>
	<g id="LINE_28_">
		<g>
			<line class="st7" x1="246.8" y1="136.3" x2="91.8" y2="242.6"/>
		</g>
	</g>
	<g id="LINE_29_">
		<g>
			<line class="st7" x1="246.8" y1="132.4" x2="91.8" y2="238.7"/>
		</g>
	</g>
	<g id="LINE_30_">
		<g>
			<line class="st7" x1="246.8" y1="120.5" x2="91.8" y2="226.8"/>
		</g>
	</g>
	<g id="LINE_31_">
		<g>
			<line class="st7" x1="246.8" y1="116.6" x2="91.8" y2="222.9"/>
		</g>
	</g>
	<g id="LINE_32_">
		<g>
			<line class="st7" x1="246.8" y1="104.7" x2="91.8" y2="211"/>
		</g>
	</g>
	<g id="LINE_33_">
		<g>
			<line class="st7" x1="246.8" y1="100.8" x2="91.8" y2="207.2"/>
		</g>
	</g>
	<g id="LINE_34_">
		<g>
			<line class="st7" x1="246.8" y1="88.9" x2="91.8" y2="195.3"/>
		</g>
	</g>
	<g id="LINE_35_">
		<g>
			<line class="st7" x1="246.8" y1="85" x2="91.8" y2="191.4"/>
		</g>
	</g>
	<g id="LINE_36_">
		<g>
			<line class="st7" x1="246.8" y1="73.2" x2="91.8" y2="179.5"/>
		</g>
	</g>
	<g id="LINE_37_">
		<g>
			<line class="st7" x1="246.8" y1="69.3" x2="91.8" y2="175.6"/>
		</g>
	</g>
	<g id="LINE_38_">
		<g>
			<line class="st7" x1="242.4" y1="60.6" x2="374" y2="60.6"/>
		</g>
	</g>
	<g id="LINE_39_">
		<g>
			<line class="st7" x1="241.4" y1="55.6" x2="374" y2="55.6"/>
		</g>
	</g>
	<g id="LINE_40_">
		<g>
			<line class="st7" x1="374" y1="60.6" x2="374" y2="182.5"/>
		</g>
	</g>
	<g id="LINE_41_">
		<g>
			<line class="st7" x1="246.8" y1="163.7" x2="374" y2="163.7"/>
		</g>
	</g>
	<g id="LINE_42_">
		<g>
			<line class="st7" x1="367.5" y1="60.6" x2="367.5" y2="163.7"/>
		</g>
	</g>
	<g id="LINE_43_">
		<g>
			<line class="st7" x1="359.3" y1="60.6" x2="359.3" y2="163.7"/>
		</g>
	</g>
	<g id="LINE_44_">
		<g>
			<line class="st7" x1="359.3" y1="155.4" x2="367.5" y2="155.4"/>
		</g>
	</g>
	<g id="LINE_45_">
		<g>
			<line class="st7" x1="359.3" y1="151.9" x2="367.5" y2="151.9"/>
		</g>
	</g>
	<g id="LINE_46_">
		<g>
			<line class="st7" x1="352.4" y1="60.6" x2="352.4" y2="163.7"/>
		</g>
	</g>
	<g id="LINE_47_">
		<g>
			<line class="st7" x1="344.1" y1="60.6" x2="344.1" y2="163.7"/>
		</g>
	</g>
	<g id="LINE_48_">
		<g>
			<line class="st7" x1="344.1" y1="155.4" x2="352.4" y2="155.4"/>
		</g>
	</g>
	<g id="LINE_49_">
		<g>
			<line class="st7" x1="344.1" y1="151.9" x2="352.4" y2="151.9"/>
		</g>
	</g>
	<g id="LINE_50_">
		<g>
			<line class="st7" x1="337.2" y1="60.6" x2="337.2" y2="163.7"/>
		</g>
	</g>
	<g id="LINE_51_">
		<g>
			<line class="st7" x1="329" y1="60.6" x2="329" y2="163.7"/>
		</g>
	</g>
	<g id="LINE_52_">
		<g>
			<line class="st7" x1="329" y1="155.4" x2="337.2" y2="155.4"/>
		</g>
	</g>
	<g id="LINE_53_">
		<g>
			<line class="st7" x1="329" y1="151.9" x2="337.2" y2="151.9"/>
		</g>
	</g>
	<g id="LINE_54_">
		<g>
			<line class="st7" x1="322.1" y1="60.6" x2="322.1" y2="163.7"/>
		</g>
	</g>
	<g id="LINE_55_">
		<g>
			<line class="st7" x1="313.9" y1="60.6" x2="313.9" y2="163.7"/>
		</g>
	</g>
	<g id="LINE_56_">
		<g>
			<line class="st7" x1="313.9" y1="155.4" x2="322.1" y2="155.4"/>
		</g>
	</g>
	<g id="LINE_57_">
		<g>
			<line class="st7" x1="313.9" y1="151.9" x2="322.1" y2="151.9"/>
		</g>
	</g>
	<g id="LINE_58_">
		<g>
			<line class="st7" x1="307" y1="60.6" x2="307" y2="163.7"/>
		</g>
	</g>
	<g id="LINE_59_">
		<g>
			<line class="st7" x1="298.8" y1="60.6" x2="298.8" y2="163.7"/>
		</g>
	</g>
	<g id="LINE_60_">
		<g>
			<line class="st7" x1="298.8" y1="155.4" x2="307" y2="155.4"/>
		</g>
	</g>
	<g id="LINE_61_">
		<g>
			<line class="st7" x1="298.8" y1="151.9" x2="307" y2="151.9"/>
		</g>
	</g>
	<g id="LINE_62_">
		<g>
			<line class="st7" x1="291.9" y1="60.6" x2="291.9" y2="163.7"/>
		</g>
	</g>
	<g id="LINE_63_">
		<g>
			<line class="st7" x1="283.7" y1="60.6" x2="283.7" y2="163.7"/>
		</g>
	</g>
	<g id="LINE_64_">
		<g>
			<line class="st7" x1="283.7" y1="155.4" x2="291.9" y2="155.4"/>
		</g>
	</g>
	<g id="LINE_65_">
		<g>
			<line class="st7" x1="283.7" y1="151.9" x2="291.9" y2="151.9"/>
		</g>
	</g>
	<g id="LINE_66_">
		<g>
			<line class="st7" x1="276.7" y1="60.6" x2="276.7" y2="163.7"/>
		</g>
	</g>
	<g id="LINE_67_">
		<g>
			<line class="st7" x1="268.5" y1="60.6" x2="268.5" y2="163.7"/>
		</g>
	</g>
	<g id="LINE_68_">
		<g>
			<line class="st7" x1="268.5" y1="155.4" x2="276.7" y2="155.4"/>
		</g>
	</g>
	<g id="LINE_69_">
		<g>
			<line class="st7" x1="268.5" y1="151.9" x2="276.7" y2="151.9"/>
		</g>
	</g>
	<g id="LINE_70_">
		<g>
			<line class="st7" x1="261.6" y1="60.6" x2="261.6" y2="163.7"/>
		</g>
	</g>
	<g id="LINE_71_">
		<g>
			<line class="st7" x1="253.4" y1="60.6" x2="253.4" y2="163.7"/>
		</g>
	</g>
	<g id="LINE_72_">
		<g>
			<line class="st7" x1="253.4" y1="155.4" x2="261.6" y2="155.4"/>
		</g>
	</g>
	<g id="LINE_73_">
		<g>
			<line class="st7" x1="253.4" y1="151.9" x2="261.6" y2="151.9"/>
		</g>
	</g>
	<g id="SPLINE_1_">
		<g>
			<path class="st7" d="M374,60.6c1.4,0,2.5-1.1,2.5-2.5c0-1.4-1.1-2.5-2.5-2.5"/>
		</g>
	</g>
	<g id="ELLIPSE">
		<g>
			<path class="st7" d="M257.5,74.4c-2.3,0-4.3,1.9-4.3,4.3c0,2.3,1.9,4.3,4.3,4.3s4.3-1.9,4.3-4.3
				C261.8,76.3,259.9,74.4,257.5,74.4L257.5,74.4z"/>
		</g>
	</g>
	<g id="ELLIPSE_1_">
		<g>
			<path class="st7" d="M178.7,200.3c-2.3,0-4.3,1.9-4.3,4.3s1.9,4.3,4.3,4.3s4.3-1.9,4.3-4.3S181,200.3,178.7,200.3L178.7,200.3z"
				/>
		</g>
	</g>
</g>
<g id="MTEXT_7_">
	<g>
		<text transform="matrix(0 -1 1 0 408.794 144.5474)"><tspan x="0" y="0" class="st2 st3 st4">Not less than </tspan><tspan x="26.7" y="14.4" class="st2 st3 st4">1 m</tspan></text>
	</g>
</g>
</svg>
