<svg xmlns="http://www.w3.org/2000/svg" xmlns:xlink="http://www.w3.org/1999/xlink" viewBox="0 0 552.76 425.2"><defs><style>.cls-1,.cls-10,.cls-5,.cls-6,.cls-7{fill:none;}.cls-2{fill:silver;}.cls-11,.cls-3,.cls-9{fill:#231f20;}.cls-3{opacity:0.14;}.cls-10,.cls-4,.cls-5,.cls-6,.cls-7,.cls-8{stroke:#231f20;stroke-miterlimit:10;}.cls-4{fill:url(#Grey);}.cls-6,.cls-7,.cls-8{stroke-width:0.5px;}.cls-7{stroke-dasharray:6 6;}.cls-8{fill:#8e898b;}.cls-9{font-size:12px;font-family:ArialMT, Arial;}.cls-10{stroke-width:0.25px;}</style><pattern id="Grey" data-name="Grey" width="156" height="124.33" patternUnits="userSpaceOnUse" viewBox="0 0 156 124.33"><rect class="cls-1" width="156" height="124.33"/><rect class="cls-2" width="156" height="124.33"/></pattern></defs><g id="Notes_Guides" data-name="Notes &amp; Guides"><rect class="cls-3" x="0.35" width="28.35" height="425.2"/><rect class="cls-3" x="524.06" y="0.8" width="28.35" height="424.39"/><rect class="cls-3" x="262.2" y="163.34" width="28.35" height="495.37" transform="translate(-134.65 687.4) rotate(-90)"/><rect class="cls-3" x="262.2" y="-233.51" width="28.35" height="495.37" transform="translate(262.2 290.55) rotate(-90)"/></g><g id="Trace_layer" data-name="Trace layer"><polyline class="cls-4" points="183.52 155.56 152.86 160.06 152.38 160.13 152.52 160.13 152.52 272.13 152.38 272.13 183.29 277.01 183.52 277.13 183.52 155.13"/><polyline class="cls-5" points="149.54 154.34 149.54 156.38 149.54 276.44"/><line class="cls-5" x1="187.12" y1="279.72" x2="187.12" y2="151.63"/><polyline class="cls-5" points="240.14 288.41 238.19 288.09 187.12 279.72 149.54 273.56 149.54 270.56 149.54 159.9 149.54 157.04 186.38 151.73 187.12 151.63 240.14 143.99"/><line class="cls-5" x1="149.88" y1="156.63" x2="237.46" y2="144.38"/><polyline class="cls-4" points="235.38 147.63 190.07 154.59 189.38 154.7 189.58 154.69 189.58 277.66 189.38 277.65 235.03 285.06 235.38 285.21 235.38 147.14"/><polyline class="cls-6" points="130.88 166.8 146.52 165.36 149.54 164.88"/><polyline class="cls-6" points="130.88 172.39 146.52 171.08 149.54 170.71"/><polyline class="cls-6" points="130.88 177.46 146.52 176.38 149.54 175.88"/><line class="cls-6" x1="146.52" y1="182.22" x2="130.88" y2="182.75"/><polyline class="cls-6" points="130.88 268 146.52 270.56 149.88 270.63"/><polyline class="cls-6" points="130.88 262.63 146.52 264.83 149.54 264.83"/><polyline class="cls-6" points="130.88 257.13 146.52 259.21 149.54 259.54"/><polyline class="cls-6" points="130.88 252.46 146.88 253.63 149.54 253.63"/><polyline class="cls-6" points="130.88 246.96 146.52 248.21 149.54 248.21"/><polyline class="cls-6" points="130.88 241.58 146.52 242.88 149.54 242.88"/><polyline class="cls-6" points="130.88 236.17 146.52 237.38 149.54 237.38"/><polyline class="cls-6" points="130.88 230.63 146.52 231.79 149.54 231.79"/><polyline class="cls-6" points="130.88 225.88 146.52 226.42 149.54 226.15"/><polyline class="cls-6" points="130.88 220.33 146.52 220.67 149.54 220.67"/><polyline class="cls-6" points="130.88 214.83 146.52 215 149.54 214.92"/><polyline class="cls-6" points="130.88 209.58 146.52 209.58 149.54 209.58"/><polyline class="cls-6" points="130.88 204.29 146.52 204.29 149.54 204.29"/><polyline class="cls-6" points="130.88 198.63 146.52 198.54 149.54 198.54"/><line class="cls-6" x1="146.52" y1="193.04" x2="130.88" y2="193.38"/><line class="cls-6" x1="146.52" y1="187.38" x2="130.88" y2="188.04"/><line class="cls-6" x1="141.88" y1="269.8" x2="141.88" y2="264.18"/><line class="cls-6" x1="141.88" y1="258.59" x2="141.88" y2="253.26"/><line class="cls-6" x1="141.88" y1="247.84" x2="141.88" y2="242.49"/><line class="cls-6" x1="141.88" y1="237.02" x2="141.88" y2="231.43"/><line class="cls-6" x1="141.88" y1="226.26" x2="141.88" y2="220.67"/><line class="cls-6" x1="141.88" y1="214.92" x2="141.88" y2="209.58"/><line class="cls-6" x1="141.88" y1="204.63" x2="141.88" y2="198.63"/><line class="cls-6" x1="141.88" y1="193.14" x2="141.88" y2="187.57"/><line class="cls-6" x1="141.88" y1="182.63" x2="141.88" y2="176.63"/><line class="cls-6" x1="141.88" y1="171.63" x2="141.88" y2="165.79"/><line class="cls-6" x1="141.88" y1="160.34" x2="141.88" y2="155.63"/><line class="cls-6" x1="146.88" y1="192.63" x2="149.88" y2="192.63"/><line class="cls-6" x1="146.88" y1="187.63" x2="149.54" y2="187.2"/><line class="cls-6" x1="146.13" y1="182.22" x2="149.54" y2="181.71"/><polyline class="cls-6" points="130.88 161.88 146.38 160.13 149.54 159.56"/><polyline class="cls-6" points="443.65 52.13 443.65 196.55 449.77 196.55 439.98 201.44 444.88 201.44 444.88 333.63"/><polyline class="cls-5" points="131.03 160.63 96.88 157.61 96.88 151.56 443.38 86.13"/><line class="cls-5" x1="443.88" y1="97.63" x2="96.88" y2="157.63"/><polyline class="cls-5" points="96.88 151.63 90.88 152.63 90.88 144.63 442.88 75.63"/><line class="cls-5" x1="105.23" y1="141.81" x2="294.88" y2="71.63"/><line class="cls-7" x1="90.88" y1="147.14" x2="442.88" y2="78.63"/><line class="cls-8" x1="238.14" y1="216.56" x2="235.38" y2="216.56"/><line class="cls-8" x1="238.14" y1="227.38" x2="235.38" y2="227.38"/><rect class="cls-8" x="236.04" y="217.63" width="1.17" height="9"/><text class="cls-9" transform="translate(108.27 310.38)">Opening more than <tspan x="13.35" y="14.4">900 x 900 mm </tspan></text><line class="cls-5" x1="146.52" y1="154.94" x2="146.52" y2="275.61"/><polyline class="cls-5" points="444.88 323.63 240.14 291.28 240.14 141.13 444.88 112.63"/><line class="cls-5" x1="238.14" y1="288.41" x2="238.14" y2="144.38"/><path class="cls-6" d="M444.88,314.63l-205-31Z"/><line class="cls-6" x1="444.88" y1="304.63" x2="239.88" y2="276.63"/><line class="cls-6" x1="444.88" y1="295.38" x2="240.14" y2="270.38"/><line class="cls-6" x1="444.88" y1="285.21" x2="240.14" y2="264.13"/><line class="cls-6" x1="444.88" y1="275.88" x2="240.14" y2="256.63"/><line class="cls-6" x1="444.88" y1="267.25" x2="240.38" y2="250.13"/><line class="cls-6" x1="444.88" y1="256.63" x2="240.14" y2="243.13"/><line class="cls-6" x1="444.88" y1="247.13" x2="240.14" y2="236.63"/><line class="cls-6" x1="444.88" y1="237.63" x2="240.14" y2="229.38"/><line class="cls-6" x1="444.88" y1="227.63" x2="240.14" y2="223.38"/><line class="cls-6" x1="444.88" y1="218.13" x2="240.14" y2="215.67"/><line class="cls-6" x1="444.88" y1="208.63" x2="240.14" y2="208.63"/><line class="cls-6" x1="444.88" y1="199.63" x2="240.14" y2="202.78"/><line class="cls-6" x1="444.88" y1="189.63" x2="240.14" y2="195.13"/><line class="cls-6" x1="444.88" y1="179.88" x2="240.14" y2="189.63"/><polyline class="cls-6" points="444.88 170.38 307.56 178.43 240.14 182.38"/><line class="cls-6" x1="444.88" y1="160.38" x2="240.14" y2="175.13"/><line class="cls-6" x1="444.88" y1="151.63" x2="240.14" y2="167.75"/><line class="cls-6" x1="444.88" y1="141.13" x2="240.14" y2="161.88"/><line class="cls-6" x1="443.88" y1="131.63" x2="240.14" y2="154.34"/><line class="cls-6" x1="444.88" y1="121.63" x2="240.38" y2="147.13"/><line class="cls-6" x1="432.88" y1="321.63" x2="432.88" y2="312.81"/><line class="cls-6" x1="403.48" y1="316.93" x2="403.48" y2="308.21"/><line class="cls-6" x1="377.88" y1="312.63" x2="377.88" y2="304.59"/><line class="cls-6" x1="354.22" y1="309.31" x2="354.22" y2="300.92"/><line class="cls-6" x1="331.45" y1="305.39" x2="331.45" y2="297.17"/><line class="cls-6" x1="289.15" y1="299.03" x2="289.15" y2="291.28"/><line class="cls-6" x1="269.22" y1="295.88" x2="269.22" y2="288.41"/><line class="cls-6" x1="251.5" y1="293.08" x2="251.5" y2="285.38"/><line class="cls-6" x1="422.1" y1="310.73" x2="422.1" y2="301.63"/><line class="cls-6" x1="392.38" y1="306.18" x2="392.38" y2="297.77"/><line class="cls-6" x1="365.87" y1="302.68" x2="365.87" y2="293.91"/><line class="cls-6" x1="342.38" y1="299.13" x2="342.38" y2="290.64"/><line class="cls-6" x1="298.56" y1="292.5" x2="298.56" y2="284.64"/><line class="cls-6" x1="278.88" y1="289.63" x2="278.88" y2="281.95"/><line class="cls-6" x1="260.25" y1="286.71" x2="260.25" y2="279.41"/><line class="cls-6" x1="410.59" y1="300.13" x2="410.59" y2="291.12"/><line class="cls-6" x1="383.48" y1="296.13" x2="383.48" y2="287.73"/><line class="cls-6" x1="357.51" y1="293.13" x2="357.51" y2="284.28"/><line class="cls-6" x1="330.31" y1="289.13" x2="330.31" y2="281.13"/><line class="cls-6" x1="306.62" y1="285.95" x2="306.62" y2="278.13"/><line class="cls-6" x1="286.05" y1="282.51" x2="286.05" y2="276.13"/><line class="cls-6" x1="264.17" y1="279.56" x2="264.17" y2="273.13"/><line class="cls-6" x1="244.71" y1="277.13" x2="244.71" y2="271.13"/><line class="cls-6" x1="426.75" y1="293.48" x2="426.75" y2="283.13"/><line class="cls-6" x1="397.21" y1="289.21" x2="397.21" y2="280.13"/><line class="cls-6" x1="370.3" y1="285.93" x2="370.3" y2="277.72"/><line class="cls-6" x1="344.5" y1="283.13" x2="344.5" y2="274.66"/><line class="cls-6" x1="296.39" y1="277.4" x2="296.39" y2="270.13"/><line class="cls-6" x1="274.77" y1="274.7" x2="274.77" y2="267.51"/><line class="cls-6" x1="254.32" y1="271.97" x2="254.32" y2="265.13"/><line class="cls-6" x1="437.88" y1="284.13" x2="437.88" y2="275.12"/><line class="cls-6" x1="412.48" y1="282.09" x2="412.48" y2="272.13"/><line class="cls-6" x1="383.88" y1="278.94" x2="383.88" y2="270.13"/><line class="cls-6" x1="357.22" y1="275.74" x2="357.22" y2="267.65"/><line class="cls-6" x1="332.45" y1="273.13" x2="332.45" y2="265.04"/><line class="cls-6" x1="308.88" y1="271.13" x2="308.88" y2="262.89"/><line class="cls-6" x1="288.15" y1="268.83" x2="288.15" y2="261.36"/><line class="cls-6" x1="266.22" y1="266.79" x2="266.22" y2="259.59"/><line class="cls-6" x1="247.5" y1="265.09" x2="247.5" y2="257.67"/><line class="cls-6" x1="423.1" y1="274.13" x2="423.1" y2="265.13"/><line class="cls-6" x1="396.38" y1="271.72" x2="396.38" y2="263.13"/><line class="cls-6" x1="368.87" y1="268.35" x2="368.87" y2="261.13"/><line class="cls-6" x1="345.38" y1="266.92" x2="345.38" y2="258.74"/><line class="cls-6" x1="300.56" y1="262.53" x2="300.56" y2="254.95"/><line class="cls-6" x1="278.88" y1="260.76" x2="278.88" y2="253.36"/><line class="cls-6" x1="412.59" y1="264.13" x2="412.59" y2="254.2"/><line class="cls-6" x1="384.48" y1="262.03" x2="384.48" y2="252.13"/><line class="cls-6" x1="358.51" y1="260.13" x2="358.51" y2="251.13"/><line class="cls-6" x1="334.31" y1="258.28" x2="334.31" y2="249.13"/><line class="cls-6" x1="311.62" y1="256.21" x2="311.62" y2="248.13"/><line class="cls-6" x1="291.05" y1="254.89" x2="291.05" y2="246.13"/><line class="cls-6" x1="270.17" y1="253.05" x2="270.17" y2="245.13"/><line class="cls-6" x1="429.75" y1="256.13" x2="429.75" y2="246.49"/><line class="cls-6" x1="398.21" y1="253.13" x2="398.21" y2="244.13"/><line class="cls-6" x1="371.3" y1="252.13" x2="371.3" y2="243.13"/><line class="cls-6" x1="346.5" y1="250.49" x2="346.5" y2="242.13"/><line class="cls-6" x1="301.39" y1="246.96" x2="301.39" y2="239.95"/><line class="cls-6" x1="281.77" y1="246.36" x2="281.77" y2="238.13"/><line class="cls-6" x1="437.88" y1="247.13" x2="437.88" y2="237.13"/><line class="cls-6" x1="412.59" y1="245.47" x2="412.59" y2="236.32"/><line class="cls-6" x1="384.48" y1="244.13" x2="384.48" y2="235.63"/><line class="cls-6" x1="357.88" y1="243.13" x2="357.88" y2="234.15"/><line class="cls-6" x1="333.88" y1="241.13" x2="333.88" y2="233.15"/><line class="cls-6" x1="311.88" y1="240.13" x2="311.88" y2="232.27"/><line class="cls-6" x1="291.05" y1="239.24" x2="291.05" y2="231.43"/><line class="cls-6" x1="269.88" y1="238.13" x2="269.88" y2="230.13"/><line class="cls-6" x1="248.88" y1="236.63" x2="248.88" y2="229.73"/><line class="cls-6" x1="425.88" y1="236.63" x2="425.88" y2="227.63"/><line class="cls-6" x1="399.05" y1="235.78" x2="399.05" y2="226.67"/><line class="cls-6" x1="372.04" y1="234.69" x2="372.04" y2="226.63"/><line class="cls-6" x1="344.88" y1="233.63" x2="344.88" y2="225.56"/><line class="cls-6" x1="301.88" y1="231.63" x2="301.88" y2="224.65"/><line class="cls-6" x1="280.38" y1="231" x2="280.38" y2="224.21"/><line class="cls-6" x1="259.54" y1="230.13" x2="259.54" y2="223.78"/><line class="cls-6" x1="268.88" y1="223.63" x2="268.88" y2="216.02"/><line class="cls-6" x1="291.05" y1="224.21" x2="291.05" y2="216.28"/><line class="cls-6" x1="307.88" y1="301.83" x2="307.88" y2="293.63"/><line class="cls-6" x1="311.62" y1="225.09" x2="311.62" y2="216.9"/><line class="cls-6" x1="333.88" y1="224.63" x2="333.88" y2="216.9"/><line class="cls-6" x1="360.38" y1="225.87" x2="360.38" y2="216.63"/><line class="cls-6" x1="386.71" y1="226.42" x2="386.71" y2="217.43"/><line class="cls-6" x1="412.59" y1="226.96" x2="412.59" y2="218.13"/><line class="cls-6" x1="437.88" y1="227.63" x2="437.88" y2="218.13"/><line class="cls-6" x1="248.88" y1="223.38" x2="248.88" y2="216.02"/><line class="cls-6" x1="258.88" y1="216.02" x2="258.88" y2="208.63"/><line class="cls-6" x1="280.38" y1="216.02" x2="280.38" y2="208.63"/><line class="cls-6" x1="301.88" y1="216.63" x2="301.88" y2="208.63"/><line class="cls-6" x1="346.88" y1="216.63" x2="346.88" y2="208.63"/><line class="cls-6" x1="248.88" y1="208.63" x2="248.88" y2="202.65"/><line class="cls-6" x1="268.88" y1="208.63" x2="268.88" y2="202.63"/><line class="cls-6" x1="290.38" y1="208.63" x2="290.38" y2="202.01"/><line class="cls-6" x1="311.62" y1="208.63" x2="311.62" y2="202.01"/><line class="cls-6" x1="334.31" y1="208.63" x2="334.31" y2="201.63"/><line class="cls-6" x1="360.38" y1="208.63" x2="360.38" y2="200.93"/><line class="cls-6" x1="346.88" y1="201.63" x2="346.88" y2="192.26"/><line class="cls-6" x1="300.56" y1="201.63" x2="300.56" y2="193.5"/><line class="cls-6" x1="280.38" y1="202.01" x2="280.38" y2="194.05"/><line class="cls-6" x1="258.88" y1="202.49" x2="258.88" y2="194.62"/><polyline class="cls-6" points="242.88 201.63 242.88 202.78 242.88 195.13"/><line class="cls-6" x1="249.88" y1="194.63" x2="249.88" y2="189.13"/><line class="cls-6" x1="268.88" y1="194.13" x2="268.88" y2="188.24"/><line class="cls-6" x1="291.05" y1="193.63" x2="291.05" y2="187.2"/><line class="cls-6" x1="311.62" y1="193.21" x2="311.62" y2="186.22"/><line class="cls-6" x1="335.88" y1="192.63" x2="335.88" y2="184.63"/><line class="cls-6" x1="361.88" y1="191.86" x2="361.88" y2="183.83"/><line class="cls-6" x1="373.88" y1="216.63" x2="373.88" y2="208.63"/><line class="cls-6" x1="398.88" y1="217.63" x2="398.88" y2="209.63"/><line class="cls-6" x1="425.88" y1="217.9" x2="425.88" y2="208.63"/><line class="cls-6" x1="413.88" y1="208.63" x2="413.88" y2="200.12"/><line class="cls-6" x1="386.71" y1="208.63" x2="386.71" y2="200.13"/><line class="cls-6" x1="373.05" y1="200.73" x2="373.05" y2="191.56"/><line class="cls-6" x1="398.88" y1="199.63" x2="398.88" y2="190.86"/><line class="cls-6" x1="384.88" y1="190.63" x2="384.88" y2="182.69"/><line class="cls-6" x1="413.88" y1="189.63" x2="413.88" y2="181.35"/><line class="cls-6" x1="428.71" y1="199.88" x2="428.71" y2="190.06"/><line class="cls-6" x1="439.13" y1="189.63" x2="439.13" y2="180.12"/><line class="cls-6" x1="258.88" y1="188.63" x2="258.88" y2="181.24"/><line class="cls-6" x1="242.88" y1="189.5" x2="242.88" y2="182.22"/><line class="cls-6" x1="280.38" y1="187.71" x2="280.38" y2="180.02"/><line class="cls-6" x1="300.56" y1="186.66" x2="300.56" y2="178.83"/><line class="cls-6" x1="348.38" y1="184.47" x2="348.38" y2="176.03"/><line class="cls-6" x1="372.04" y1="183.34" x2="372.04" y2="174.65"/><line class="cls-6" x1="398.88" y1="181.63" x2="398.88" y2="173.11"/><line class="cls-6" x1="384.88" y1="173.89" x2="384.88" y2="164.7"/><line class="cls-6" x1="360.38" y1="175.33" x2="360.38" y2="166.46"/><line class="cls-6" x1="336.88" y1="176.63" x2="336.88" y2="168.16"/><line class="cls-6" x1="311.62" y1="178.19" x2="311.62" y2="170.38"/><line class="cls-6" x1="289.88" y1="179.13" x2="289.88" y2="171.54"/><line class="cls-6" x1="269.88" y1="180.63" x2="269.88" y2="172.63"/><line class="cls-6" x1="249.88" y1="181.63" x2="249.88" y2="174.65"/><line class="cls-6" x1="258.88" y1="174.13" x2="258.88" y2="166.28"/><line class="cls-6" x1="242.88" y1="174.63" x2="242.88" y2="167.54"/><line class="cls-6" x1="242.88" y1="215.67" x2="242.88" y2="208.63"/><line class="cls-6" x1="242.88" y1="229.36" x2="242.88" y2="223.38"/><line class="cls-6" x1="242.72" y1="236.76" x2="242.72" y2="243.3"/><line class="cls-6" x1="248.46" y1="243.67" x2="248.46" y2="250.63"/><line class="cls-6" x1="259.54" y1="237.62" x2="259.54" y2="244.41"/><line class="cls-6" x1="259.54" y1="251.73" x2="259.54" y2="258.45"/><line class="cls-6" x1="438.39" y1="256.2" x2="438.39" y2="266.63"/><line class="cls-6" x1="438.39" y1="294.58" x2="438.39" y2="303.67"/><line class="cls-6" x1="437.38" y1="208.63" x2="437.38" y2="199.88"/><line class="cls-6" x1="426.88" y1="180.63" x2="426.88" y2="171.43"/><line class="cls-6" x1="412.59" y1="172.27" x2="412.59" y2="162.7"/><line class="cls-6" x1="438.88" y1="170.63" x2="438.88" y2="160.84"/><line class="cls-6" x1="278.1" y1="172.39" x2="278.1" y2="164.76"/><line class="cls-6" x1="301.88" y1="170.68" x2="301.88" y2="162.93"/><line class="cls-6" x1="347.63" y1="167.54" x2="347.63" y2="159.29"/><line class="cls-6" x1="372.88" y1="165.63" x2="372.88" y2="157.3"/><line class="cls-6" x1="359.91" y1="158.32" x2="359.91" y2="149.74"/><line class="cls-6" x1="336.88" y1="160.13" x2="336.88" y2="152.01"/><line class="cls-6" x1="314.12" y1="161.92" x2="314.12" y2="154.34"/><line class="cls-6" x1="290.88" y1="163.63" x2="290.88" y2="156.73"/><line class="cls-6" x1="269.38" y1="165.36" x2="269.38" y2="159.63"/><polyline class="cls-6" points="249.88 166.63 249.88 166.63 249.88 161.04"/><line class="cls-6" x1="258.38" y1="160.03" x2="258.38" y2="152.42"/><line class="cls-6" x1="242.88" y1="161.6" x2="242.88" y2="153.98"/><line class="cls-6" x1="242.88" y1="146.81" x2="242.88" y2="141.13"/><line class="cls-6" x1="257.78" y1="144.96" x2="257.78" y2="138.67"/><polyline class="cls-6" points="249.88 152.63 249.88 145.94 249.88 153.25"/><line class="cls-6" x1="268.88" y1="151.14" x2="268.88" y2="143.97"/><line class="cls-6" x1="280.38" y1="157.79" x2="280.38" y2="149.85"/><line class="cls-6" x1="301.88" y1="155.62" x2="301.88" y2="147.55"/><line class="cls-6" x1="346.88" y1="150.63" x2="346.88" y2="142.48"/><line class="cls-6" x1="336.88" y1="143.55" x2="336.88" y2="135.02"/><line class="cls-6" x1="313.88" y1="145.63" x2="313.88" y2="137.93"/><line class="cls-6" x1="290.38" y1="148.74" x2="290.38" y2="140.63"/><line class="cls-6" x1="280.38" y1="142.14" x2="280.38" y2="135.52"/><line class="cls-6" x1="301.39" y1="139.52" x2="301.39" y2="132.71"/><line class="cls-6" x1="346.88" y1="133.85" x2="346.88" y2="126.35"/><line class="cls-6" x1="359.91" y1="140.99" x2="359.91" y2="132.22"/><line class="cls-6" x1="398.88" y1="163.69" x2="398.88" y2="155.62"/><line class="cls-6" x1="398.88" y1="145.63" x2="398.88" y2="136.6"/><line class="cls-6" x1="398.88" y1="127.36" x2="398.88" y2="119.13"/><line class="cls-6" x1="372.88" y1="148.74" x2="372.88" y2="139.52"/><line class="cls-6" x1="384.88" y1="156.73" x2="384.88" y2="147.27"/><line class="cls-6" x1="384.88" y1="137.63" x2="384.88" y2="129.11"/><line class="cls-6" x1="372.04" y1="130.71" x2="372.04" y2="122.77"/><line class="cls-6" x1="412.88" y1="153.63" x2="412.88" y2="144.13"/><line class="cls-6" x1="426.88" y1="142.95" x2="426.88" y2="133.63"/><line class="cls-6" x1="426.88" y1="123.87" x2="426.88" y2="115.13"/><line class="cls-6" x1="412" y1="135.52" x2="412" y2="125.65"/><line class="cls-6" x1="438.88" y1="152.1" x2="438.88" y2="141.71"/><line class="cls-6" x1="438.54" y1="132.22" x2="438.54" y2="122.37"/><line class="cls-6" x1="242.88" y1="256.63" x2="242.88" y2="250.63"/><polyline class="cls-5" points="239.88 141.13 130.88 157.02 130.88 273.25 239.88 291.13"/><line class="cls-5" x1="320.38" y1="304.59" x2="322.38" y2="130.23"/><line class="cls-10" x1="342.38" y1="330.46" x2="325.93" y2="311.5"/><polygon class="cls-11" points="329.42 311.09 320.12 304.8 325.03 314.9 329.42 311.09"/><text class="cls-9" transform="translate(321.7 339.05)">Articulation joint</text><line class="cls-10" x1="239.88" y1="293.13" x2="239.88" y2="355.63"/><line class="cls-10" x1="320.12" y1="307.63" x2="320.12" y2="374.29"/><line class="cls-10" x1="311.49" y1="353.63" x2="249.01" y2="339.2"/><polygon class="cls-11" points="310.21 350.36 320.12 355.62 308.9 356.02 310.21 350.36"/><polygon class="cls-11" points="251.59 336.81 240.38 337.2 250.29 342.48 251.59 336.81"/><text class="cls-9" transform="translate(236.91 364.22)">max. 1.2 m from <tspan x="18.99" y="14.4">openings </tspan></text><line class="cls-10" x1="159.64" y1="300.13" x2="166.34" y2="290.42"/><polygon class="cls-11" points="167.61 293.7 171.38 283.13 162.83 290.39 167.61 293.7"/></g></svg>