<?xml version="1.0" encoding="utf-8"?>
<!-- Generator: Adobe Illustrator 26.5.0, SVG Export Plug-In . SVG Version: 6.00 Build 0)  -->
<svg version="1.1" id="_x30_" xmlns="http://www.w3.org/2000/svg" xmlns:xlink="http://www.w3.org/1999/xlink" x="0px" y="0px"
	 viewBox="0 0 552.76 335.7" style="enable-background:new 0 0 552.76 335.7;" xml:space="preserve">
<style type="text/css">
	.st0{fill:none;stroke:#231F20;stroke-linecap:round;stroke-miterlimit:10;}
	.st1{fill:none;stroke:#231F20;stroke-miterlimit:10;}
	.st2{fill:none;stroke:#231F20;stroke-width:0.75;stroke-miterlimit:10;}
	.st3{fill:none;stroke:#231F20;stroke-width:0.25;stroke-miterlimit:10;}
	.st4{fill:#231F20;}
	.st5{font-family:'ArialMT';}
	.st6{font-size:12px;}
	.st7{font-family:'Arial-ItalicMT';}
	.st8{fill:none;stroke:#231F20;stroke-width:0.75;stroke-linejoin:bevel;stroke-miterlimit:10;}
	.st9{fill:none;stroke:#231F20;stroke-width:0.291;stroke-miterlimit:10;}
	.st10{fill:none;stroke:#231F20;stroke-width:0.75;stroke-miterlimit:10;stroke-dasharray:6.3026,6.3026;}
	.st11{fill:none;stroke:#231F20;stroke-width:0.75;stroke-miterlimit:10;stroke-dasharray:5.5229,5.5229;}
	.st12{fill:none;stroke:#231F20;stroke-width:0.75;stroke-miterlimit:10;stroke-dasharray:5.8725,5.8725;}
</style>
<g>
	<g id="LINE_12_">
		<g>
			<line class="st0" x1="167.91" y1="140.81" x2="167.91" y2="120.59"/>
		</g>
	</g>
	<g id="LINE_13_">
		<g>
			<line class="st0" x1="161.1" y1="140.81" x2="161.1" y2="120.59"/>
		</g>
	</g>
	<g id="LINE_14_">
		<g>
			<line class="st0" x1="198.43" y1="140.81" x2="198.43" y2="111.68"/>
		</g>
	</g>
	<g id="LINE_15_">
		<g>
			<line class="st0" x1="191.62" y1="140.81" x2="191.62" y2="111.68"/>
		</g>
	</g>
	<g id="LINE_16_">
		<g>
			<line class="st0" x1="229.43" y1="140.81" x2="229.43" y2="101.51"/>
		</g>
	</g>
	<g id="LINE_17_">
		<g>
			<line class="st0" x1="222.62" y1="140.81" x2="222.62" y2="101.51"/>
		</g>
	</g>
	<g id="LINE_18_">
		<g>
			<line class="st0" x1="347.63" y1="140.81" x2="347.63" y2="120.59"/>
		</g>
	</g>
	<g id="LINE_19_">
		<g>
			<line class="st0" x1="354.44" y1="140.81" x2="354.44" y2="120.59"/>
		</g>
	</g>
	<g id="LINE_20_">
		<g>
			<line class="st0" x1="317.1" y1="140.81" x2="317.1" y2="111.68"/>
		</g>
	</g>
	<g id="LINE_21_">
		<g>
			<line class="st0" x1="323.91" y1="140.81" x2="323.91" y2="111.68"/>
		</g>
	</g>
	<g id="LINE_22_">
		<g>
			<line class="st0" x1="286.11" y1="140.81" x2="286.11" y2="73.58"/>
		</g>
	</g>
	<g id="LINE_23_">
		<g>
			<line class="st0" x1="292.92" y1="140.81" x2="292.92" y2="73.58"/>
		</g>
	</g>
	<g id="LINE_24_">
		<g>
			<line class="st0" x1="247.71" y1="65.48" x2="267.82" y2="65.48"/>
		</g>
	</g>
	<g id="LINE_25_">
		<g>
			<line class="st0" x1="247.71" y1="140.81" x2="247.71" y2="65.48"/>
		</g>
	</g>
	<g id="LINE_26_">
		<g>
			<line class="st0" x1="267.82" y1="140.81" x2="267.82" y2="65.48"/>
		</g>
	</g>
	<g id="LINE_27_">
		<g>
			<line class="st0" x1="252.79" y1="72.54" x2="262.75" y2="72.54"/>
		</g>
	</g>
	<g id="LINE_28_">
		<g>
			<line class="st0" x1="252.79" y1="72.54" x2="252.79" y2="65.48"/>
		</g>
	</g>
	<g id="LINE_29_">
		<g>
			<line class="st0" x1="262.75" y1="72.54" x2="262.75" y2="65.48"/>
		</g>
	</g>
	<g id="LINE_30_">
		<g>
			<line class="st0" x1="167.91" y1="150.71" x2="167.91" y2="170.93"/>
		</g>
	</g>
	<g id="LINE_31_">
		<g>
			<line class="st0" x1="161.1" y1="150.71" x2="161.1" y2="170.93"/>
		</g>
	</g>
	<g id="LINE_32_">
		<g>
			<line class="st0" x1="198.43" y1="150.71" x2="198.43" y2="179.84"/>
		</g>
	</g>
	<g id="LINE_33_">
		<g>
			<line class="st0" x1="191.62" y1="150.71" x2="191.62" y2="179.84"/>
		</g>
	</g>
	<g id="LINE_34_">
		<g>
			<line class="st0" x1="229.43" y1="150.71" x2="229.43" y2="190.01"/>
		</g>
	</g>
	<g id="LINE_35_">
		<g>
			<line class="st0" x1="222.62" y1="150.71" x2="222.62" y2="190.01"/>
		</g>
	</g>
	<g id="LINE_36_">
		<g>
			<line class="st0" x1="347.63" y1="150.71" x2="347.63" y2="170.93"/>
		</g>
	</g>
	<g id="LINE_37_">
		<g>
			<line class="st0" x1="354.44" y1="150.71" x2="354.44" y2="170.93"/>
		</g>
	</g>
	<g id="LINE_38_">
		<g>
			<line class="st0" x1="317.1" y1="150.71" x2="317.1" y2="179.84"/>
		</g>
	</g>
	<g id="LINE_39_">
		<g>
			<line class="st0" x1="323.91" y1="150.71" x2="323.91" y2="179.84"/>
		</g>
	</g>
	<g id="LINE_40_">
		<g>
			<line class="st0" x1="286.11" y1="150.71" x2="286.11" y2="217.94"/>
		</g>
	</g>
	<g id="LINE_41_">
		<g>
			<line class="st0" x1="292.92" y1="150.71" x2="292.92" y2="217.94"/>
		</g>
	</g>
	<g id="LINE_42_">
		<g>
			<line class="st0" x1="247.71" y1="226.04" x2="267.82" y2="226.04"/>
		</g>
	</g>
	<g id="LINE_43_">
		<g>
			<line class="st0" x1="247.71" y1="150.71" x2="247.71" y2="184.29"/>
		</g>
	</g>
	<g id="LINE_44_">
		<g>
			<line class="st0" x1="267.82" y1="150.71" x2="267.82" y2="184.29"/>
		</g>
	</g>
	<g id="LINE_45_">
		<g>
			<line class="st0" x1="252.79" y1="218.98" x2="262.75" y2="218.98"/>
		</g>
	</g>
	<g id="LINE_46_">
		<g>
			<line class="st0" x1="252.79" y1="218.98" x2="252.79" y2="226.04"/>
		</g>
	</g>
	<g id="LINE_47_">
		<g>
			<line class="st0" x1="262.75" y1="218.98" x2="262.75" y2="226.04"/>
		</g>
	</g>
	<g id="LINE_48_">
		<g>
			<line class="st0" x1="247.71" y1="190.73" x2="247.71" y2="226.04"/>
		</g>
	</g>
	<g id="LINE_49_">
		<g>
			<line class="st0" x1="267.82" y1="190.73" x2="267.82" y2="226.04"/>
		</g>
	</g>
</g>
<g>
	<g id="LINE_9_">
		<g>
			<line class="st1" x1="393.77" y1="150.71" x2="393.77" y2="140.81"/>
		</g>
	</g>
	<g id="LINE_10_">
		<g>
			<line class="st1" x1="146.34" y1="150.71" x2="146.34" y2="140.81"/>
		</g>
	</g>
	<g id="LINE_50_">
		<g>
			<line class="st2" x1="393.77" y1="150.71" x2="404.3" y2="140.81"/>
		</g>
	</g>
	<g id="LINE_51_">
		<g>
			<line class="st2" x1="404.3" y1="150.71" x2="393.77" y2="140.81"/>
		</g>
	</g>
	<g id="LINE_52_">
		<g>
			<line class="st2" x1="135.8" y1="150.71" x2="146.34" y2="140.81"/>
		</g>
	</g>
	<g id="LINE_53_">
		<g>
			<line class="st2" x1="146.34" y1="150.71" x2="135.8" y2="140.81"/>
		</g>
	</g>
</g>
<g id="LINE_126_">
	<g id="LINE_111_">
		<g>
			<g>
				<g>
					<line class="st3" x1="147.71" y1="57.81" x2="251.52" y2="57.81"/>
					<g>
						<polygon class="st4" points="149.2,59.99 141.07,57.81 149.2,55.63 						"/>
					</g>
					<g>
						<polygon class="st4" points="250.04,59.99 258.17,57.81 250.04,55.63 						"/>
					</g>
				</g>
			</g>
		</g>
	</g>
</g>
<g id="LINE_129_">
	<g>
		<g>
			<line class="st3" x1="392.39" y1="57.81" x2="264.81" y2="57.81"/>
			<g>
				<polygon class="st4" points="390.9,55.63 399.03,57.81 390.9,59.99 				"/>
			</g>
			<g>
				<polygon class="st4" points="266.3,55.63 258.17,57.81 266.3,59.99 				"/>
			</g>
		</g>
	</g>
</g>
<g id="LINE_132_">
	<g id="LINE_110_">
		<g>
			<g>
				<g>
					<line class="st3" x1="99.3" y1="75.24" x2="99.3" y2="215.87"/>
					<g>
						<polygon class="st4" points="97.12,76.73 99.3,68.6 101.48,76.73 						"/>
					</g>
					<g>
						<polygon class="st4" points="97.12,214.38 99.3,222.51 101.48,214.38 						"/>
					</g>
				</g>
			</g>
		</g>
	</g>
</g>
<g id="LINE_133_">
	<g id="LINE_109_">
		<g>
			<g>
				<g>
					<line class="st3" x1="250.04" y1="85.25" x2="207.15" y2="85.25"/>
					<g>
						<polygon class="st4" points="248.56,83.07 256.69,85.25 248.56,87.43 						"/>
					</g>
				</g>
			</g>
		</g>
	</g>
</g>
<g id="POLYLINE_7_">
	<g id="POLYLINE_5_">
		<g>
			<g>
				<g>
					<polyline class="st3" points="298.58,84.4 319.1,71.81 323.78,71.81 					"/>
					<g>
						<polygon class="st4" points="300.99,85.48 292.92,87.87 298.71,81.76 						"/>
					</g>
				</g>
			</g>
		</g>
	</g>
</g>
<g id="POLYLINE_9_">
	<g id="POLYLINE_4_">
		<g>
			<g>
				<g>
					<polyline class="st3" points="274.06,110.12 318.81,93.71 324.36,93.71 					"/>
					<g>
						<polygon class="st4" points="276.21,111.65 267.82,112.4 274.71,107.56 						"/>
					</g>
				</g>
			</g>
		</g>
	</g>
</g>
<g id="POLYLINE_11_">
	<g id="POLYLINE_3_">
		<g>
			<g>
				<g>
					<polyline class="st3" points="372.08,137.47 414.69,112.75 421.03,112.75 					"/>
					<g>
						<polygon class="st4" points="374.46,138.61 366.33,140.81 372.27,134.84 						"/>
					</g>
				</g>
			</g>
		</g>
	</g>
</g>
<g id="POLYLINE_13_">
	<g id="POLYLINE_2_">
		<g>
			<g>
				<g>
					<polyline class="st3" points="258.95,156.57 227.8,201.39 216.75,201.39 					"/>
					<g>
						<polygon class="st4" points="256.32,156.54 262.75,151.11 259.89,159.03 						"/>
					</g>
				</g>
			</g>
		</g>
	</g>
</g>
<g>
	<g>
		<g id="LINE_124_">
			<g>
				<line class="st3" x1="141.07" y1="133.41" x2="141.07" y2="52.26"/>
			</g>
		</g>
		<g id="LINE_127_">
			<g>
				<line class="st3" x1="399.03" y1="133.41" x2="399.03" y2="124.45"/>
			</g>
		</g>
		<g id="LINE_130_">
			<g>
				<line class="st3" x1="245.39" y1="69.01" x2="93.75" y2="69.01"/>
			</g>
		</g>
		<g id="LINE_131_">
			<g>
				<line class="st3" x1="245.39" y1="222.51" x2="93.75" y2="222.51"/>
			</g>
		</g>
		<g id="LINE_134_">
			<g>
				<line class="st3" x1="399.03" y1="68.6" x2="399.03" y2="52.26"/>
			</g>
		</g>
		<g id="LINE_135_">
			<g>
				<line class="st3" x1="399.03" y1="88.75" x2="399.03" y2="79.7"/>
			</g>
		</g>
		<g id="LINE_136_">
			<g>
				<line class="st3" x1="399.03" y1="115.52" x2="399.03" y2="101.89"/>
			</g>
		</g>
		<g id="LINE_137_">
			<g>
				<line class="st3" x1="257.77" y1="231.51" x2="257.77" y2="257.99"/>
			</g>
		</g>
	</g>
</g>
<g id="MTEXT_1_">
</g>
<g id="MTEXT_4_">
</g>
<g id="MTEXT_7_">
	<text transform="matrix(1 0 0 1 381.7451 269.2205)" class="st4 st5 st6"> </text>
</g>
<g id="MTEXT">
	<text transform="matrix(1 0 0 1 12.6318 144.5286)"><tspan x="0" y="0" class="st4 st5 st6">Strutting beam </tspan><tspan x="0" y="12" class="st4 st5 st6">span</tspan></text>
</g>
<g id="MTEXT_2_">
	<text transform="matrix(1 0 0 1 425.0264 117.8582)"><tspan x="0" y="0" class="st4 st5 st6">Underpurlin and / or </tspan><tspan x="0" y="14.4" class="st4 st5 st6">hanging beam </tspan></text>
</g>
<g id="MTEXT_9_">
	<text transform="matrix(1 0 0 1 326.6113 77.4754)" class="st4 st5 st6">Rafter and / or ceiling joists</text>
</g>
<g id="MTEXT_10_">
	<text transform="matrix(1 0 0 1 327.4883 98.6033)" class="st4 st5 st6">Strutting beam</text>
</g>
<g id="MTEXT_11_">
	<text transform="matrix(1 0 0 1 175.999 88.3328)" class="st4 st5 st6">Web</text>
</g>
<g id="MTEXT_12_">
	<text transform="matrix(1 0 0 1 145.5898 204.8953)" class="st4 st5 st6">Vertical strut</text>
</g>
<g id="MTEXT_13_">
</g>
<g id="MTEXT_14_">
	<text transform="matrix(1 0 0 1 198.0898 271.9383)" class="st4 st5 st6">Strutting beam spacing </text>
	<text transform="matrix(1 0 0 1 222.2129 286.3387)" class="st4 st5 st6">= 0.5(L</text>
	<text transform="matrix(0.583 0 0 0.583 259.9062 290.3348)" class="st4 st5 st6">1</text>
	<text transform="matrix(1 0 0 1 263.7969 286.3387)" class="st4 st5 st6"> + L</text>
	<text transform="matrix(0.583 0 0 0.583 284.1465 290.3348)" class="st4 st5 st6">2</text>
	<text transform="matrix(1 0 0 1 288.0376 286.3387)" class="st4 st5 st6">)*</text>
</g>
<g id="MTEXT_3_">
	<text transform="matrix(1 0 0 1 191.3431 49.9395)" class="st4 st5 st6">L</text>
	<text transform="matrix(0.583 0 0 0.583 198.017 53.9356)" class="st4 st5 st6">1</text>
</g>
<g id="MTEXT_5_">
	<text transform="matrix(1 0 0 1 370.1992 189.1199)"><tspan x="0" y="0" class="st4 st5 st6">Alternately joists can run at right </tspan><tspan x="0" y="14.4" class="st4 st5 st6">angles to strutting beam in place </tspan><tspan x="0" y="28.8" class="st4 st5 st6">of hanging beam  </tspan></text>
</g>
<text transform="matrix(1 0 0 1 370.7168 254.3582)"><tspan x="0" y="0" class="st4 st7 st6">*Replace 0.5 with 0.6 if hanging </tspan><tspan x="0" y="14.4" class="st4 st7 st6">beams are continuous over </tspan><tspan x="0" y="28.8" class="st4 st7 st6">strutting beams </tspan></text>
<g>
	<polyline class="st8" points="283.54,217.94 286.93,217.94 288.79,215.99 288.79,219.9 290.65,217.94 295.38,217.94 	"/>
	<polyline class="st8" points="314.8,180.54 318.2,180.54 320.05,178.58 320.05,182.5 321.91,180.54 326.64,180.54 	"/>
	<polyline class="st8" points="344.85,170.93 348.25,170.93 350.1,168.97 350.1,172.88 351.96,170.93 356.69,170.93 	"/>
	<polyline class="st8" points="189.07,179.84 192.47,179.84 194.32,177.89 194.32,181.8 196.18,179.84 200.91,179.84 	"/>
	<polyline class="st8" points="220.06,190.68 223.46,190.68 225.32,188.72 225.32,192.63 227.17,190.68 231.9,190.68 	"/>
	<polyline class="st8" points="158.55,170.93 161.95,170.93 163.8,168.97 163.8,172.88 165.66,170.93 170.39,170.93 	"/>
	<polyline class="st8" points="158.44,120.59 161.84,120.59 163.7,118.64 163.7,122.55 165.55,120.59 170.28,120.59 	"/>
	<polyline class="st8" points="189.07,111.68 192.47,111.68 194.32,109.72 194.32,113.63 196.18,111.68 200.91,111.68 	"/>
	<polyline class="st8" points="220.06,101.15 223.46,101.15 225.32,99.19 225.32,103.1 227.17,101.15 231.9,101.15 	"/>
	<polyline class="st8" points="283.56,73.58 286.95,73.58 288.81,71.62 288.81,75.53 290.67,73.58 295.4,73.58 	"/>
	<polyline class="st8" points="314.55,111.51 317.95,111.51 319.8,109.55 319.8,113.47 321.66,111.51 326.39,111.51 	"/>
	<polyline class="st8" points="345.55,119.93 348.95,119.93 350.8,117.97 350.8,121.88 352.66,119.93 357.39,119.93 	"/>
	<polyline class="st8" points="244.55,190.73 256.12,190.73 257.98,188.77 257.98,192.68 259.83,190.73 271.78,190.73 	"/>
	<polyline class="st8" points="244.55,184.33 256.12,184.33 257.98,182.37 257.98,186.28 259.83,184.33 271.78,184.33 	"/>
</g>
<rect x="135.8" y="140.81" class="st1" width="268.5" height="9.9"/>
<g id="LINE_128_">
	<line class="st3" x1="257.77" y1="62.76" x2="257.77" y2="52.26"/>
</g>
<g>
	<g id="LINE_6_">
		<g id="LINE_116_">
			<g>
				<g>
					<g>
						<line class="st9" x1="186.14" y1="253.84" x2="329.28" y2="253.84"/>
						<g>
							<polygon class="st4" points="187.87,256.38 178.4,253.84 187.87,251.3 							"/>
						</g>
						<g>
							<polygon class="st4" points="327.55,256.38 337.02,253.84 327.55,251.3 							"/>
						</g>
					</g>
				</g>
			</g>
		</g>
	</g>
	<g id="LINE_112_">
		<g id="LINE_115_">
			<g>
				<g>
					<g>
						<line class="st3" x1="264.81" y1="253.84" x2="319.99" y2="253.84"/>
						<g>
							<polygon class="st4" points="266.3,256.02 258.17,253.84 266.3,251.66 							"/>
						</g>
						<g>
							<polygon class="st4" points="318.51,256.02 326.64,253.84 318.51,251.66 							"/>
						</g>
					</g>
				</g>
			</g>
		</g>
	</g>
	<g id="LINE_114_">
		<g id="LINE_117_">
			<g>
				<g>
					<g>
						<line class="st3" x1="195.03" y1="253.84" x2="250.21" y2="253.84"/>
						<g>
							<polygon class="st4" points="196.51,256.02 188.38,253.84 196.51,251.66 							"/>
						</g>
						<g>
							<polygon class="st4" points="248.72,256.02 256.85,253.84 248.72,251.66 							"/>
						</g>
					</g>
				</g>
			</g>
		</g>
	</g>
</g>
<g>
	<g>
		<g>
			<line class="st2" x1="256.89" y1="140.81" x2="256.89" y2="137.81"/>
			<line class="st10" x1="256.89" y1="131.5" x2="256.89" y2="71.63"/>
			<line class="st2" x1="256.89" y1="68.48" x2="256.89" y2="65.48"/>
		</g>
	</g>
	<g>
		<g>
			<line class="st2" x1="258.64" y1="140.81" x2="258.64" y2="137.81"/>
			<line class="st10" x1="258.64" y1="131.5" x2="258.64" y2="71.63"/>
			<line class="st2" x1="258.64" y1="68.48" x2="258.64" y2="65.48"/>
		</g>
	</g>
	<g>
		<g>
			<line class="st2" x1="256.89" y1="150.71" x2="256.89" y2="153.71"/>
			<line class="st11" x1="256.89" y1="159.24" x2="256.89" y2="178.57"/>
			<line class="st2" x1="256.89" y1="181.33" x2="256.89" y2="184.33"/>
		</g>
	</g>
	<g>
		<g>
			<line class="st2" x1="258.64" y1="150.71" x2="258.64" y2="153.71"/>
			<line class="st11" x1="258.64" y1="159.24" x2="258.64" y2="178.57"/>
			<line class="st2" x1="258.64" y1="181.33" x2="258.64" y2="184.33"/>
		</g>
	</g>
	<g>
		<g>
			<line class="st2" x1="256.89" y1="190.68" x2="256.89" y2="193.68"/>
			<line class="st12" x1="256.89" y1="199.55" x2="256.89" y2="220.1"/>
			<line class="st2" x1="256.89" y1="223.04" x2="256.89" y2="226.04"/>
		</g>
	</g>
	<g>
		<g>
			<line class="st2" x1="258.64" y1="190.68" x2="258.64" y2="193.68"/>
			<line class="st12" x1="258.64" y1="199.55" x2="258.64" y2="220.1"/>
			<line class="st2" x1="258.64" y1="223.04" x2="258.64" y2="226.04"/>
		</g>
	</g>
</g>
<text transform="matrix(1 0 0 1 319.7874 49.9395)" class="st4 st5 st6">L</text>
<text transform="matrix(0.583 0 0 0.583 326.4612 53.9356)" class="st4 st5 st6">2</text>
</svg>
