<?xml version="1.0" encoding="utf-8"?>
<!-- Generator: Adobe Illustrator 25.2.1, SVG Export Plug-In . SVG Version: 6.00 Build 0)  -->
<svg version="1.1" xmlns="http://www.w3.org/2000/svg" xmlns:xlink="http://www.w3.org/1999/xlink" x="0px" y="0px"
	 viewBox="0 0 552.8 349.4" style="enable-background:new 0 0 552.8 349.4;" xml:space="preserve">
<style type="text/css">
	.st0{fill-rule:evenodd;clip-rule:evenodd;fill:none;}
	.st1{clip-path:url(#SVGID_2_);fill:none;stroke:#231F20;stroke-width:0.5;stroke-linejoin:round;}
	.st2{display:none;}
	.st3{fill:none;stroke:#000000;stroke-miterlimit:10;}
	.st4{fill:none;stroke:#000000;stroke-miterlimit:10;stroke-dasharray:12.6834,12.6834;}
	.st5{font-family:'ArialMT';}
	.st6{font-size:12px;}
	.st7{fill:none;stroke:#000000;stroke-width:0.25;stroke-miterlimit:10;}
	.st8{fill:none;stroke:#000000;stroke-width:0.75;stroke-miterlimit:10;}
	.st9{fill:none;stroke:#000000;stroke-width:0.75;stroke-linecap:round;stroke-miterlimit:10;}
	.st10{fill:url(#SVGID_3_);}
	.st11{fill:none;stroke:#000000;stroke-width:0.8465;stroke-miterlimit:10;}
	.st12{fill:url(#SVGID_4_);}
	.st13{fill:url(#SVGID_5_);}
	.st14{fill:none;stroke:#000000;stroke-width:0.75;stroke-miterlimit:10;stroke-dasharray:6.7807,6.7807;}
	.st15{fill:none;stroke:#000000;stroke-width:0.75;stroke-miterlimit:10;stroke-dasharray:6.5395,6.5395;}
	.st16{fill:none;stroke:#000000;stroke-linecap:round;stroke-miterlimit:10;}
</style>
<pattern  x="120.5" y="274" width="72" height="72" patternUnits="userSpaceOnUse" id="diagonal_cross_hatch" viewBox="6.2 -86.2 72 72" style="overflow:visible;">
	<g>
		<rect x="6.2" y="-86.2" class="st0" width="72" height="72"/>
		<g>
			<defs>
				<rect id="SVGID_1_" x="6.2" y="-86.2" width="72" height="72"/>
			</defs>
			<clipPath id="SVGID_2_">
				<use xlink:href="#SVGID_1_"  style="overflow:visible;"/>
			</clipPath>
			<line class="st1" x1="0.2" y1="-74.2" x2="18.2" y2="-92.2"/>
			<line class="st1" x1="0.2" y1="-68.2" x2="24.2" y2="-92.2"/>
			<line class="st1" x1="0.2" y1="-62.2" x2="30.2" y2="-92.2"/>
			<line class="st1" x1="0.2" y1="-56.2" x2="36.2" y2="-92.2"/>
			<line class="st1" x1="0.2" y1="-50.2" x2="42.2" y2="-92.2"/>
			<line class="st1" x1="0.2" y1="-44.2" x2="48.2" y2="-92.2"/>
			<line class="st1" x1="0.2" y1="-38.2" x2="54.2" y2="-92.2"/>
			<line class="st1" x1="0.2" y1="-32.2" x2="60.2" y2="-92.2"/>
			<line class="st1" x1="0.2" y1="-26.2" x2="66.2" y2="-92.2"/>
			<line class="st1" x1="0.2" y1="-20.2" x2="72.2" y2="-92.2"/>
			<line class="st1" x1="0.2" y1="-14.2" x2="78.2" y2="-92.2"/>
			<line class="st1" x1="0.2" y1="-8.2" x2="84.2" y2="-92.2"/>
			<line class="st1" x1="6.2" y1="-8.2" x2="84.2" y2="-86.2"/>
			<line class="st1" x1="12.2" y1="-8.2" x2="84.2" y2="-80.2"/>
			<line class="st1" x1="18.2" y1="-8.2" x2="84.2" y2="-74.2"/>
			<line class="st1" x1="24.2" y1="-8.2" x2="84.2" y2="-68.2"/>
			<line class="st1" x1="30.2" y1="-8.2" x2="84.2" y2="-62.2"/>
			<line class="st1" x1="36.2" y1="-8.2" x2="84.2" y2="-56.2"/>
			<line class="st1" x1="42.2" y1="-8.2" x2="84.2" y2="-50.2"/>
			<line class="st1" x1="48.2" y1="-8.2" x2="84.2" y2="-44.2"/>
			<line class="st1" x1="54.2" y1="-8.2" x2="84.2" y2="-38.2"/>
			<line class="st1" x1="52.2" y1="-0.2" x2="94.2" y2="-42.2"/>
			<line class="st1" x1="58.2" y1="-0.2" x2="94.2" y2="-36.2"/>
			<line class="st1" x1="64.2" y1="-0.2" x2="94.2" y2="-30.2"/>
		</g>
	</g>
</pattern>
<g id="tRACE" class="st2">
	
		<image style="display:inline;overflow:visible;opacity:0.49;" width="2168" height="765" id="v3_x5F_nsw_x5F_C2-2a_x5F_2011_x5F_ORIGINAL_xA0_Image" xlink:href="F68F5346.jpg"  transform="matrix(0.2288 0 0 0.2288 28.3465 30.5747)">
	</image>
</g>
<g id="v3_x5F_nsw_x5F_C2-2a_x5F_2011_x5F_ORIGINAL_xA0_Image_1_">
	<g>
		<g>
			<g>
				<g>
					<line class="st3" x1="163.2" y1="321" x2="169.2" y2="321"/>
					<line class="st4" x1="181.9" y1="321" x2="353.1" y2="321"/>
					<line class="st3" x1="359.5" y1="321" x2="365.5" y2="321"/>
				</g>
			</g>
		</g>
		<g>
			<text transform="matrix(1 0 0 1 128.6911 38.4487)" class="st5 st6">Reflux (Surcharge) Valve</text>
			<text transform="matrix(1 0 0 1 314.1165 38.4487)" class="st5 st6">Sealed Vertical</text>
			<text transform="matrix(1 0 0 1 481.7127 291.8197)"><tspan x="0" y="0" class="st5 st6">Sewer </tspan><tspan x="4" y="12" class="st5 st6">Main</tspan></text>
			<text transform="matrix(1 0 0 1 184.3826 248.4663)" class="st5 st6">80 mm</text>
			<text transform="matrix(1 0 0 1 28.305 136.2875)" class="st5 st6">Flow</text>
		</g>
		<g>
			<g>
				<g>
					<g>
						<line class="st7" x1="201.7" y1="233.6" x2="201.7" y2="174.2"/>
						<g>
							<polygon points="203.9,175.7 201.7,167.6 199.5,175.7 							"/>
						</g>
					</g>
				</g>
			</g>
			<g>
				<g>
					<g>
						<line class="st7" x1="201.7" y1="256.6" x2="201.7" y2="314.4"/>
						<g>
							<polygon points="199.5,312.9 201.7,321 203.9,312.9 							"/>
						</g>
					</g>
				</g>
			</g>
		</g>
		<g>
			<g>
				<g>
					<g>
						<line class="st7" x1="194" y1="43.1" x2="194" y2="57.5"/>
						<g>
							<polygon points="191.8,56 194,64.1 196.2,56 							"/>
						</g>
					</g>
				</g>
			</g>
			<g>
				<g>
					<g>
						<line class="st7" x1="354.5" y1="43.1" x2="354.5" y2="58.5"/>
						<g>
							<polygon points="352.3,57 354.5,65.1 356.7,57 							"/>
						</g>
					</g>
				</g>
			</g>
			<g>
				<g>
					<g>
						<line class="st7" x1="28.3" y1="141.1" x2="72.3" y2="141.1"/>
						<g>
							<polygon points="70.8,143.3 79,141.1 70.8,138.9 							"/>
						</g>
					</g>
				</g>
			</g>
		</g>
		<g>
			<path class="st8" d="M90.5,151.4c0,4.8-1.5,8.7-3.3,8.7c-1.8,0-3.3-3.9-3.3-8.7c0-4.8,1.5-9.3,3.3-9.3
				C89,142,90.5,146.5,90.5,151.4z"/>
			<path class="st9" d="M87.1,124.6c-1.8,0-3.3,3.9-3.3,8.7c0,4.8,1.5,8.7,3.3,8.7"/>
		</g>
		<pattern  id="SVGID_3_" xlink:href="#diagonal_cross_hatch" patternTransform="matrix(1.1334 0 0 1 1255.0754 166.2595)">
		</pattern>
		<rect x="328" y="75" class="st10" width="53.5" height="6.4"/>
		<g>
			<line class="st11" x1="175.6" y1="64.1" x2="175.6" y2="74"/>
			<line class="st11" x1="193.4" y1="64.1" x2="193.4" y2="74"/>
			<line class="st11" x1="213.1" y1="64.1" x2="213.1" y2="74"/>
		</g>
		<g>
			<line class="st11" x1="336.3" y1="65.1" x2="336.3" y2="75"/>
			<line class="st11" x1="354.1" y1="65.1" x2="354.1" y2="75"/>
			<line class="st11" x1="373.8" y1="65.1" x2="373.8" y2="75"/>
		</g>
		<pattern  id="SVGID_4_" xlink:href="#diagonal_cross_hatch" patternTransform="matrix(1.1334 0 0 1 1176.062 165.2595)">
		</pattern>
		<rect x="167.4" y="74" class="st12" width="53.5" height="6.4"/>
		<pattern  id="SVGID_5_" xlink:href="#diagonal_cross_hatch" patternTransform="matrix(1.1334 0 0 1 1176.062 165.2595)">
		</pattern>
		<path class="st13" d="M167.4,74"/>
		<polyline class="st3" points="164,116.1 169,116.1 169,114.1 		"/>
		<polyline class="st3" points="226.2,117.1 219.2,117.1 219.2,114.1 		"/>
		<g>
			<g>
				<g>
					<g>
						<line class="st8" x1="468.2" y1="267.3" x2="468.2" y2="270.3"/>
						<line class="st14" x1="468.2" y1="277.1" x2="468.2" y2="314.4"/>
						<line class="st8" x1="468.2" y1="317.8" x2="468.2" y2="320.8"/>
					</g>
				</g>
			</g>
			<g>
				<g>
					<g>
						<line class="st8" x1="409.5" y1="267.3" x2="409.5" y2="270.3"/>
						<line class="st14" x1="409.5" y1="277.1" x2="409.5" y2="314.4"/>
						<line class="st8" x1="409.5" y1="317.8" x2="409.5" y2="320.8"/>
					</g>
				</g>
			</g>
			<g>
				<g>
					<g>
						<line class="st8" x1="381.5" y1="239.7" x2="378.5" y2="239.7"/>
						<line class="st14" x1="371.7" y1="239.7" x2="334.4" y2="239.7"/>
						<line class="st8" x1="331" y1="239.7" x2="328" y2="239.7"/>
					</g>
				</g>
			</g>
			<g>
				<g>
					<g>
						<line class="st8" x1="381.2" y1="180" x2="378.2" y2="180"/>
						<line class="st14" x1="371.4" y1="180" x2="334.1" y2="180"/>
						<line class="st8" x1="330.7" y1="180" x2="327.7" y2="180"/>
					</g>
				</g>
			</g>
			<g>
				<g>
					<g>
						<line class="st8" x1="164" y1="168.8" x2="164" y2="165.8"/>
						<line class="st14" x1="164" y1="159.1" x2="164" y2="121.8"/>
						<line class="st8" x1="164" y1="118.4" x2="164" y2="115.4"/>
					</g>
				</g>
			</g>
			<g>
				<g>
					<g>
						<line class="st8" x1="226.5" y1="168.7" x2="226.5" y2="165.7"/>
						<line class="st14" x1="226.5" y1="158.9" x2="226.5" y2="121.6"/>
						<line class="st8" x1="226.5" y1="118.2" x2="226.5" y2="115.2"/>
					</g>
				</g>
			</g>
			<g>
				<g>
					<g>
						<line class="st8" x1="328" y1="118.1" x2="331" y2="118.1"/>
						<line class="st14" x1="337.8" y1="118.1" x2="375.1" y2="118.1"/>
						<line class="st8" x1="378.5" y1="118.1" x2="381.5" y2="118.1"/>
					</g>
				</g>
			</g>
			<g>
				<g>
					<g>
						<line class="st8" x1="167.2" y1="114.4" x2="170.2" y2="114.4"/>
						<line class="st14" x1="177" y1="114.4" x2="214.3" y2="114.4"/>
						<line class="st8" x1="217.7" y1="114.4" x2="220.7" y2="114.4"/>
					</g>
				</g>
			</g>
			<g>
				<g>
					<g>
						<line class="st8" x1="292.7" y1="168.6" x2="292.7" y2="165.6"/>
						<line class="st15" x1="292.7" y1="159.1" x2="292.7" y2="136.2"/>
						<line class="st8" x1="292.7" y1="132.9" x2="292.7" y2="129.9"/>
					</g>
				</g>
			</g>
			<g>
				<g>
					<g>
						<line class="st8" x1="300.9" y1="168.6" x2="300.9" y2="165.6"/>
						<line class="st15" x1="300.9" y1="159.1" x2="300.9" y2="136.2"/>
						<line class="st8" x1="300.9" y1="132.9" x2="300.9" y2="129.9"/>
					</g>
				</g>
			</g>
		</g>
		<g>
			<circle class="st3" cx="498.7" cy="293.8" r="25.5"/>
			<rect x="165.4" y="64.1" class="st3" width="57.4" height="9.9"/>
			<rect x="326.1" y="65.1" class="st3" width="57.4" height="9.9"/>
			<line class="st3" x1="494.1" y1="268.6" x2="468.2" y2="268.6"/>
			<line class="st3" x1="494.1" y1="319.3" x2="468.2" y2="319.3"/>
			<polyline class="st3" points="408.5,321 435.4,321 435.4,267.6 408.5,267.6 			"/>
			<polyline class="st3" points="469.2,267.3 442.2,267.3 442.2,320.8 469.2,320.8 			"/>
			<line class="st3" x1="435.4" y1="268.8" x2="442.8" y2="268.8"/>
			<line class="st3" x1="434.9" y1="319.3" x2="442.2" y2="319.3"/>
			<polyline class="st3" points="327.6,179.7 327.6,206.6 381.1,206.6 381.1,179.7 			"/>
			<polyline class="st3" points="381.3,240.4 381.3,213.4 327.9,213.4 327.9,240.4 			"/>
			<line class="st3" x1="379.9" y1="206.6" x2="379.9" y2="214"/>
			<line class="st3" x1="329.3" y1="206" x2="329.3" y2="213.4"/>
			<path class="st3" d="M379.9,239.4c0,0-0.7,14.2,8.1,21s13.2,7.3,21.5,8.4"/>
			<path class="st3" d="M329.3,240.4c0,0-1.6,34,22.7,56s57.5,23,57.5,23"/>
			<line class="st3" x1="379.9" y1="118.1" x2="379.9" y2="179.7"/>
			<polyline class="st3" points="221.7,74 221.7,91.1 166.4,91.1 166.4,74 			"/>
			<polyline class="st3" points="382.3,75 382.3,92.1 327.6,92.1 327.6,75 			"/>
			<polyline class="st3" points="164,168.6 138.7,168.6 138.7,115.4 164,115.4 			"/>
			<polyline class="st3" points="226.5,115.4 251.7,115.4 251.7,168.6 226.5,168.6 			"/>
			<line class="st3" x1="167.4" y1="91.1" x2="167.4" y2="114.4"/>
			<line class="st3" x1="220.7" y1="91.1" x2="220.7" y2="114.4"/>
			<line class="st3" x1="164" y1="167.1" x2="226.5" y2="167.1"/>
			<path class="st3" d="M251.7,117.1c0,0,6-0.8,12.5,5.2s9.5,8.5,9.5,8.5h2.7"/>
			<line class="st3" x1="251.7" y1="167.1" x2="276.4" y2="167.1"/>
			<polyline class="st3" points="292.7,168.6 276.4,168.6 276.4,129.9 292.7,129.9 			"/>
			<polyline class="st3" points="300.6,129.9 316.9,129.9 316.9,168.6 300.6,168.6 			"/>
			<line class="st3" x1="292.7" y1="130.9" x2="300.6" y2="130.9"/>
			<line class="st3" x1="292.7" y1="167.1" x2="300.6" y2="167.1"/>
			<line class="st3" x1="328.6" y1="92.1" x2="328.6" y2="118.1"/>
			<line class="st3" x1="381.3" y1="92.1" x2="381.3" y2="118.1"/>
			<path class="st3" d="M316.9,130.9c0,0,13.2,1.3,13.2-12.8"/>
			<path class="st3" d="M316.9,167.1c0,0,13.2-1.3,13.2,12.8"/>
			<g>
				<line class="st16" x1="87.1" y1="124.6" x2="138.7" y2="124.6"/>
				<line class="st16" x1="86.5" y1="160.1" x2="138.1" y2="160.1"/>
			</g>
		</g>
	</g>
</g>
</svg>
