<svg id="Drawing_Layer" data-name="Drawing Layer" xmlns="http://www.w3.org/2000/svg" xmlns:xlink="http://www.w3.org/1999/xlink" viewBox="0 0 552.76 212.6"><defs><style>.cls-1,.cls-10,.cls-11,.cls-12,.cls-2,.cls-3,.cls-4,.cls-5,.cls-6,.cls-7{fill:none;}.cls-11,.cls-12,.cls-2,.cls-3,.cls-4,.cls-5,.cls-6,.cls-7,.cls-8{stroke:#231f20;}.cls-2,.cls-3,.cls-5{stroke-linecap:round;}.cls-2,.cls-3{stroke-linejoin:round;}.cls-3,.cls-4,.cls-5{stroke-width:0.5px;}.cls-10,.cls-11,.cls-12,.cls-4,.cls-5,.cls-6,.cls-7,.cls-8{stroke-miterlimit:10;}.cls-6{stroke-width:3px;}.cls-8{fill:#c0bfbf;}.cls-9{clip-path:url(#clip-path);}.cls-10{stroke:#c0bfbf;}.cls-10,.cls-11{stroke-width:0.25px;}.cls-12{stroke-width:0.15px;}</style><clipPath id="clip-path"><rect class="cls-1" x="108.84" y="36.8" width="333.43" height="9.28"/></clipPath></defs><rect class="cls-2" x="184.07" y="57.66" width="32.17" height="77.61"/><line class="cls-3" x1="184.07" y1="57.66" x2="216.25" y2="135.27"/><line class="cls-3" x1="216.25" y1="57.66" x2="184.07" y2="135.27"/><rect class="cls-2" x="333.71" y="57.66" width="32.17" height="77.61"/><line class="cls-3" x1="333.71" y1="57.66" x2="365.89" y2="135.27"/><line class="cls-3" x1="365.89" y1="57.66" x2="333.71" y2="135.27"/><path class="cls-4" d="M223.47,83.39l2.07,46.35a4.58,4.58,0,0,1-4.39,4.74"/><path class="cls-4" d="M223.49,83.48a4.58,4.58,0,0,1,4.4-4.74"/><path class="cls-4" d="M230.21,129.83l2.07-46.35a4.58,4.58,0,0,0-4.39-4.74"/><path class="cls-4" d="M230.21,129.71a4.57,4.57,0,0,0,4.39,4.73"/><path class="cls-4" d="M257.1,129.8l2.07-46.36a4.57,4.57,0,0,0-4.39-4.73"/><path class="cls-4" d="M252.45,129.8l-2.07-46.36a4.58,4.58,0,0,1,4.4-4.73"/><path class="cls-4" d="M252.46,129.74a4.58,4.58,0,0,1-4.4,4.74"/><path class="cls-5" d="M245.71,83.48l-2,46.26a4.57,4.57,0,0,0,4.39,4.74"/><path class="cls-4" d="M245.71,83.48a4.58,4.58,0,0,0-4.39-4.74"/><path class="cls-4" d="M239,129.83l-2.07-46.35a4.58,4.58,0,0,1,4.4-4.74"/><path class="cls-4" d="M239,129.71a4.58,4.58,0,0,1-4.4,4.73"/><path class="cls-5" d="M257.1,129.78a4.58,4.58,0,0,0,4.4,4.74"/><path class="cls-4" d="M263.82,83.43l2.07,46.35a4.57,4.57,0,0,1-4.39,4.74"/><path class="cls-4" d="M263.85,83.52a4.58,4.58,0,0,1,4.39-4.74"/><path class="cls-4" d="M270.57,129.87l2.07-46.35a4.58,4.58,0,0,0-4.4-4.74"/><path class="cls-4" d="M270.56,129.74a4.58,4.58,0,0,0,4.4,4.74"/><path class="cls-4" d="M297.45,129.83l2.08-46.35a4.58,4.58,0,0,0-4.4-4.74"/><path class="cls-4" d="M292.81,129.83l-2.07-46.35a4.58,4.58,0,0,1,4.39-4.74"/><path class="cls-4" d="M292.81,129.78a4.58,4.58,0,0,1-4.39,4.74"/><path class="cls-5" d="M286.07,83.52,284,129.78a4.58,4.58,0,0,0,4.4,4.74"/><path class="cls-4" d="M286.07,83.52a4.58,4.58,0,0,0-4.4-4.74"/><path class="cls-4" d="M279.35,129.87l-2.07-46.35a4.57,4.57,0,0,1,4.39-4.74"/><path class="cls-4" d="M279.35,129.74a4.58,4.58,0,0,1-4.39,4.74"/><path class="cls-5" d="M297.45,129.82a4.58,4.58,0,0,0,4.39,4.74"/><path class="cls-4" d="M304.17,83.47l2.07,46.35a4.58,4.58,0,0,1-4.4,4.74"/><path class="cls-4" d="M304.19,83.56a4.58,4.58,0,0,1,4.4-4.74"/><path class="cls-4" d="M310.91,129.91,313,83.56a4.57,4.57,0,0,0-4.39-4.74"/><path class="cls-4" d="M310.91,129.78a4.57,4.57,0,0,0,4.39,4.74"/><path class="cls-5" d="M326.41,83.56l-2,46.26a4.58,4.58,0,0,0,4.39,4.74"/><path class="cls-4" d="M326.41,83.56A4.58,4.58,0,0,0,322,78.82"/><path class="cls-4" d="M319.69,129.91l-2.07-46.35a4.58,4.58,0,0,1,4.4-4.74"/><path class="cls-4" d="M319.7,129.78a4.58,4.58,0,0,1-4.4,4.74"/><path class="cls-4" d="M373.24,83.41l2.07,46.35a4.58,4.58,0,0,1-4.39,4.74"/><path class="cls-4" d="M373.26,83.5a4.58,4.58,0,0,1,4.4-4.74"/><path class="cls-4" d="M380,129.85l2.08-46.35a4.58,4.58,0,0,0-4.4-4.74"/><path class="cls-4" d="M380,129.72a4.58,4.58,0,0,0,4.39,4.74"/><path class="cls-4" d="M406.87,129.81l2.07-46.35a4.58,4.58,0,0,0-4.39-4.74"/><path class="cls-4" d="M402.22,129.81l-2.07-46.35a4.58,4.58,0,0,1,4.4-4.74"/><path class="cls-4" d="M402.23,129.76a4.58,4.58,0,0,1-4.4,4.74"/><path class="cls-5" d="M395.48,83.5l-2,46.26a4.58,4.58,0,0,0,4.39,4.74"/><path class="cls-4" d="M395.48,83.5a4.57,4.57,0,0,0-4.39-4.74"/><path class="cls-4" d="M388.76,129.85,386.69,83.5a4.58,4.58,0,0,1,4.4-4.74"/><path class="cls-4" d="M388.77,129.72a4.58,4.58,0,0,1-4.4,4.74"/><path class="cls-5" d="M406.87,129.8a4.58,4.58,0,0,0,4.4,4.74"/><path class="cls-4" d="M413.59,83.45l2.07,46.35a4.57,4.57,0,0,1-4.39,4.74"/><path class="cls-4" d="M413.62,83.54A4.58,4.58,0,0,1,418,78.8"/><path class="cls-4" d="M420.34,129.89l2.07-46.35A4.58,4.58,0,0,0,418,78.8"/><path class="cls-4" d="M420.33,129.76a4.58,4.58,0,0,0,4.4,4.74"/><path class="cls-5" d="M435.84,83.54l-2,46.26a4.58,4.58,0,0,0,4.4,4.74"/><path class="cls-4" d="M435.84,83.54a4.58,4.58,0,0,0-4.4-4.74"/><path class="cls-4" d="M429.12,129.89l-2.07-46.35a4.58,4.58,0,0,1,4.39-4.74"/><path class="cls-4" d="M429.12,129.76a4.57,4.57,0,0,1-4.39,4.74"/><path class="cls-4" d="M114.19,83.41l2.08,46.35a4.58,4.58,0,0,1-4.4,4.74"/><path class="cls-4" d="M114.22,83.5a4.58,4.58,0,0,1,4.39-4.74"/><path class="cls-4" d="M120.94,129.85,123,83.5a4.58,4.58,0,0,0-4.4-4.74"/><path class="cls-4" d="M120.93,129.72a4.58,4.58,0,0,0,4.4,4.74"/><path class="cls-4" d="M147.83,129.81l2.07-46.35a4.58,4.58,0,0,0-4.4-4.74"/><path class="cls-4" d="M143.18,129.81l-2.07-46.35a4.58,4.58,0,0,1,4.39-4.74"/><path class="cls-4" d="M143.18,129.76a4.58,4.58,0,0,1-4.39,4.74"/><path class="cls-5" d="M136.44,83.5l-2.05,46.26a4.58,4.58,0,0,0,4.4,4.74"/><path class="cls-4" d="M136.44,83.5a4.58,4.58,0,0,0-4.4-4.74"/><path class="cls-4" d="M129.72,129.85,127.65,83.5A4.58,4.58,0,0,1,132,78.76"/><path class="cls-4" d="M129.72,129.72a4.57,4.57,0,0,1-4.39,4.74"/><path class="cls-5" d="M147.83,129.8a4.58,4.58,0,0,0,4.39,4.74"/><path class="cls-4" d="M154.55,83.45l2.07,46.35a4.58,4.58,0,0,1-4.4,4.74"/><path class="cls-4" d="M154.57,83.54A4.58,4.58,0,0,1,159,78.8"/><path class="cls-4" d="M161.29,129.89l2.07-46.35A4.58,4.58,0,0,0,159,78.8"/><path class="cls-4" d="M161.29,129.76a4.57,4.57,0,0,0,4.39,4.74"/><path class="cls-5" d="M176.79,83.54l-2,46.26a4.57,4.57,0,0,0,4.39,4.74"/><path class="cls-4" d="M176.79,83.54a4.58,4.58,0,0,0-4.39-4.74"/><path class="cls-4" d="M170.07,129.89,168,83.54a4.58,4.58,0,0,1,4.4-4.74"/><path class="cls-4" d="M170.08,129.76a4.58,4.58,0,0,1-4.4,4.74"/><polyline class="cls-6" points="181.21 108.43 181.21 134.09 216.25 134.09"/><polyline class="cls-6" points="330.81 108.43 330.81 134.09 365.46 134.09"/><rect class="cls-7" x="108.98" y="163.02" width="333.15" height="9.28"/><line class="cls-7" x1="108.98" y1="172.3" x2="116.55" y2="163.13"/><line class="cls-7" x1="119.52" y1="172.3" x2="127.09" y2="163.13"/><line class="cls-7" x1="133.18" y1="172.3" x2="140.74" y2="163.13"/><line class="cls-7" x1="146.2" y1="172.3" x2="153.77" y2="163.13"/><line class="cls-7" x1="159.22" y1="172.3" x2="166.79" y2="163.13"/><line class="cls-7" x1="172.24" y1="172.3" x2="179.81" y2="163.13"/><line class="cls-7" x1="185.26" y1="172.3" x2="192.83" y2="163.13"/><line class="cls-7" x1="198.28" y1="172.3" x2="205.85" y2="163.13"/><line class="cls-7" x1="211.3" y1="172.3" x2="218.87" y2="163.13"/><line class="cls-7" x1="224.32" y1="172.3" x2="231.89" y2="163.13"/><line class="cls-7" x1="237.35" y1="172.3" x2="244.91" y2="163.13"/><line class="cls-7" x1="250.37" y1="172.3" x2="257.94" y2="163.13"/><line class="cls-7" x1="263.39" y1="172.3" x2="270.96" y2="163.13"/><line class="cls-7" x1="276.41" y1="172.3" x2="283.98" y2="163.13"/><line class="cls-7" x1="289.43" y1="172.3" x2="297" y2="163.13"/><line class="cls-7" x1="302.45" y1="172.3" x2="310.02" y2="163.13"/><line class="cls-7" x1="315.47" y1="172.3" x2="323.04" y2="163.13"/><line class="cls-7" x1="328.49" y1="172.3" x2="336.06" y2="163.13"/><line class="cls-7" x1="341.52" y1="172.3" x2="349.08" y2="163.13"/><line class="cls-7" x1="354.54" y1="172.3" x2="362.11" y2="163.13"/><line class="cls-7" x1="367.56" y1="172.3" x2="375.13" y2="163.13"/><line class="cls-7" x1="380.58" y1="172.3" x2="388.15" y2="163.13"/><line class="cls-7" x1="393.6" y1="172.3" x2="401.17" y2="163.13"/><line class="cls-7" x1="406.62" y1="172.3" x2="414.19" y2="163.13"/><line class="cls-7" x1="419.64" y1="172.3" x2="427.21" y2="163.13"/><line class="cls-7" x1="432.66" y1="172.3" x2="440.23" y2="163.13"/><rect class="cls-8" x="108.98" y="135.27" width="333.15" height="27.75"/><line class="cls-4" x1="108.98" y1="139.72" x2="442.13" y2="139.72"/><rect class="cls-4" x="109.21" y="46.72" width="332.51" height="10.33"/><line class="cls-4" x1="109.21" y1="48.62" x2="117.39" y2="57.05"/><line class="cls-4" x1="118.24" y1="49.88" x2="125.36" y2="57.05"/><line class="cls-4" x1="126.35" y1="49.88" x2="133.47" y2="57.05"/><line class="cls-4" x1="134.47" y1="49.88" x2="141.59" y2="57.05"/><line class="cls-4" x1="142.58" y1="49.88" x2="149.71" y2="57.05"/><line class="cls-4" x1="150.7" y1="49.88" x2="157.82" y2="57.05"/><line class="cls-4" x1="158.81" y1="49.88" x2="165.94" y2="57.05"/><line class="cls-4" x1="166.93" y1="49.88" x2="174.05" y2="57.05"/><line class="cls-4" x1="175.05" y1="49.88" x2="182.17" y2="57.05"/><line class="cls-4" x1="183.16" y1="49.88" x2="190.28" y2="57.05"/><line class="cls-4" x1="191.28" y1="49.88" x2="198.4" y2="57.05"/><line class="cls-4" x1="199.39" y1="49.88" x2="206.51" y2="57.05"/><line class="cls-4" x1="207.51" y1="49.88" x2="214.63" y2="57.05"/><line class="cls-4" x1="215.62" y1="49.88" x2="222.74" y2="57.05"/><line class="cls-4" x1="223.74" y1="49.88" x2="230.86" y2="57.05"/><line class="cls-4" x1="231.85" y1="49.88" x2="238.97" y2="57.05"/><line class="cls-4" x1="239.97" y1="49.88" x2="247.09" y2="57.05"/><line class="cls-4" x1="248.08" y1="49.88" x2="255.21" y2="57.05"/><line class="cls-4" x1="256.2" y1="49.88" x2="263.32" y2="57.05"/><line class="cls-4" x1="264.31" y1="49.88" x2="271.44" y2="57.05"/><line class="cls-4" x1="272.43" y1="49.88" x2="279.55" y2="57.05"/><line class="cls-4" x1="280.55" y1="49.88" x2="287.67" y2="57.05"/><line class="cls-4" x1="288.66" y1="49.88" x2="295.78" y2="57.05"/><line class="cls-4" x1="296.78" y1="49.88" x2="303.9" y2="57.05"/><line class="cls-4" x1="304.89" y1="49.88" x2="312.01" y2="57.05"/><line class="cls-4" x1="313.01" y1="49.88" x2="320.13" y2="57.05"/><line class="cls-4" x1="321.12" y1="49.88" x2="328.24" y2="57.05"/><line class="cls-4" x1="329.24" y1="49.88" x2="336.36" y2="57.05"/><line class="cls-4" x1="337.35" y1="49.88" x2="344.47" y2="57.05"/><line class="cls-4" x1="345.47" y1="49.88" x2="352.59" y2="57.05"/><line class="cls-4" x1="353.58" y1="49.88" x2="360.71" y2="57.05"/><line class="cls-4" x1="361.7" y1="49.88" x2="368.82" y2="57.05"/><line class="cls-4" x1="369.82" y1="49.88" x2="376.94" y2="57.05"/><line class="cls-4" x1="377.93" y1="49.88" x2="385.05" y2="57.05"/><line class="cls-4" x1="386.05" y1="49.88" x2="393.17" y2="57.05"/><line class="cls-4" x1="394.16" y1="49.88" x2="401.28" y2="57.05"/><line class="cls-4" x1="402.28" y1="49.88" x2="409.4" y2="57.05"/><line class="cls-4" x1="410.39" y1="49.88" x2="417.51" y2="57.05"/><line class="cls-4" x1="418.51" y1="49.88" x2="425.63" y2="57.05"/><line class="cls-4" x1="426.62" y1="49.88" x2="433.74" y2="57.05"/><line class="cls-4" x1="434.74" y1="49.88" x2="441.72" y2="56.91"/><line class="cls-4" x1="110.07" y1="49.51" x2="112.75" y2="46.72"/><line class="cls-4" x1="114.29" y1="53.86" x2="121.23" y2="46.72"/><line class="cls-4" x1="122.22" y1="54.06" x2="129.34" y2="46.72"/><line class="cls-4" x1="130.34" y1="54.06" x2="137.46" y2="46.72"/><line class="cls-4" x1="138.45" y1="54.06" x2="145.57" y2="46.72"/><line class="cls-4" x1="146.57" y1="54.06" x2="153.69" y2="46.72"/><line class="cls-4" x1="154.68" y1="54.06" x2="161.8" y2="46.72"/><line class="cls-4" x1="162.8" y1="54.06" x2="169.92" y2="46.72"/><line class="cls-4" x1="170.91" y1="54.06" x2="178.03" y2="46.72"/><line class="cls-4" x1="179.03" y1="54.06" x2="186.15" y2="46.72"/><line class="cls-4" x1="187.14" y1="54.06" x2="194.26" y2="46.72"/><line class="cls-4" x1="195.26" y1="54.06" x2="202.38" y2="46.72"/><line class="cls-4" x1="203.37" y1="54.06" x2="210.5" y2="46.72"/><line class="cls-4" x1="211.49" y1="54.06" x2="218.61" y2="46.72"/><line class="cls-4" x1="219.61" y1="54.06" x2="226.73" y2="46.72"/><line class="cls-4" x1="227.72" y1="54.06" x2="234.84" y2="46.72"/><line class="cls-4" x1="235.84" y1="54.06" x2="242.96" y2="46.72"/><line class="cls-4" x1="243.95" y1="54.06" x2="251.07" y2="46.72"/><line class="cls-4" x1="252.07" y1="54.06" x2="259.19" y2="46.72"/><line class="cls-4" x1="260.18" y1="54.06" x2="267.3" y2="46.72"/><line class="cls-4" x1="268.3" y1="54.06" x2="275.42" y2="46.72"/><line class="cls-4" x1="276.41" y1="54.06" x2="283.53" y2="46.72"/><line class="cls-4" x1="284.53" y1="54.06" x2="291.65" y2="46.72"/><line class="cls-4" x1="292.64" y1="54.06" x2="299.77" y2="46.72"/><line class="cls-4" x1="300.76" y1="54.06" x2="307.88" y2="46.72"/><line class="cls-4" x1="308.87" y1="54.06" x2="316" y2="46.72"/><line class="cls-4" x1="316.99" y1="54.06" x2="324.11" y2="46.72"/><line class="cls-4" x1="325.11" y1="54.06" x2="332.23" y2="46.72"/><line class="cls-4" x1="333.22" y1="54.06" x2="340.34" y2="46.72"/><line class="cls-4" x1="341.34" y1="54.06" x2="348.46" y2="46.72"/><line class="cls-4" x1="349.45" y1="54.06" x2="356.57" y2="46.72"/><line class="cls-4" x1="357.57" y1="54.06" x2="364.69" y2="46.72"/><line class="cls-4" x1="365.68" y1="54.06" x2="372.8" y2="46.72"/><line class="cls-4" x1="373.8" y1="54.06" x2="380.92" y2="46.72"/><line class="cls-4" x1="381.91" y1="54.06" x2="389.03" y2="46.72"/><line class="cls-4" x1="390.03" y1="54.06" x2="397.15" y2="46.72"/><line class="cls-4" x1="398.14" y1="54.06" x2="405.27" y2="46.72"/><line class="cls-4" x1="406.26" y1="54.06" x2="413.38" y2="46.72"/><line class="cls-4" x1="414.37" y1="54.06" x2="421.5" y2="46.72"/><line class="cls-4" x1="422.49" y1="54.06" x2="429.61" y2="46.72"/><line class="cls-4" x1="430.61" y1="54.06" x2="437.73" y2="46.72"/><g class="cls-9"><line class="cls-10" x1="101.43" y1="47.86" x2="109.23" y2="35.01"/><line class="cls-11" x1="114.87" y1="47.86" x2="122.68" y2="35.01"/><line class="cls-11" x1="128.08" y1="47.86" x2="135.89" y2="35.01"/><line class="cls-11" x1="141.29" y1="47.86" x2="149.1" y2="35.01"/><line class="cls-11" x1="154.5" y1="47.86" x2="162.31" y2="35.01"/><line class="cls-11" x1="167.71" y1="47.86" x2="175.52" y2="35.01"/><line class="cls-11" x1="180.92" y1="47.86" x2="188.73" y2="35.01"/><line class="cls-11" x1="194.13" y1="47.86" x2="201.94" y2="35.01"/><line class="cls-11" x1="207.35" y1="47.86" x2="215.15" y2="35.01"/><line class="cls-11" x1="220.56" y1="47.86" x2="228.36" y2="35.01"/><line class="cls-11" x1="233.77" y1="47.86" x2="241.57" y2="35.01"/><line class="cls-11" x1="246.98" y1="47.86" x2="254.78" y2="35.01"/><line class="cls-11" x1="260.19" y1="47.86" x2="267.99" y2="35.01"/><line class="cls-11" x1="273.4" y1="47.86" x2="281.2" y2="35.01"/><line class="cls-11" x1="286.61" y1="47.86" x2="294.41" y2="35.01"/><line class="cls-11" x1="299.82" y1="47.86" x2="307.63" y2="35.01"/><line class="cls-11" x1="313.03" y1="47.86" x2="320.84" y2="35.01"/><line class="cls-11" x1="326.24" y1="47.86" x2="334.05" y2="35.01"/><line class="cls-11" x1="339.45" y1="47.86" x2="347.26" y2="35.01"/><line class="cls-11" x1="352.66" y1="47.86" x2="360.47" y2="35.01"/><line class="cls-11" x1="365.87" y1="47.86" x2="373.68" y2="35.01"/><line class="cls-11" x1="379.08" y1="47.86" x2="386.89" y2="35.01"/><line class="cls-11" x1="392.3" y1="47.86" x2="400.1" y2="35.01"/><line class="cls-11" x1="405.51" y1="47.86" x2="413.31" y2="35.01"/><line class="cls-11" x1="418.72" y1="47.86" x2="426.52" y2="35.01"/><line class="cls-11" x1="431.93" y1="47.86" x2="439.73" y2="35.01"/><line class="cls-11" x1="104.07" y1="47.86" x2="111.88" y2="35.01"/><line class="cls-11" x1="117.51" y1="47.86" x2="125.32" y2="35.01"/><line class="cls-11" x1="130.72" y1="47.86" x2="138.53" y2="35.01"/><line class="cls-11" x1="143.93" y1="47.86" x2="151.74" y2="35.01"/><line class="cls-11" x1="157.14" y1="47.86" x2="164.95" y2="35.01"/><line class="cls-11" x1="170.36" y1="47.86" x2="178.16" y2="35.01"/><line class="cls-11" x1="183.57" y1="47.86" x2="191.37" y2="35.01"/><line class="cls-11" x1="196.78" y1="47.86" x2="204.58" y2="35.01"/><line class="cls-11" x1="209.99" y1="47.86" x2="217.79" y2="35.01"/><line class="cls-11" x1="223.2" y1="47.86" x2="231" y2="35.01"/><line class="cls-11" x1="236.41" y1="47.86" x2="244.21" y2="35.01"/><line class="cls-11" x1="249.62" y1="47.86" x2="257.43" y2="35.01"/><line class="cls-11" x1="262.83" y1="47.86" x2="270.64" y2="35.01"/><line class="cls-11" x1="276.04" y1="47.86" x2="283.85" y2="35.01"/><line class="cls-11" x1="289.25" y1="47.86" x2="297.06" y2="35.01"/><line class="cls-11" x1="302.46" y1="47.86" x2="310.27" y2="35.01"/><line class="cls-11" x1="315.67" y1="47.86" x2="323.48" y2="35.01"/><line class="cls-11" x1="328.88" y1="47.86" x2="336.69" y2="35.01"/><line class="cls-11" x1="342.09" y1="47.86" x2="349.9" y2="35.01"/><line class="cls-11" x1="355.31" y1="47.86" x2="363.11" y2="35.01"/><line class="cls-11" x1="368.52" y1="47.86" x2="376.32" y2="35.01"/><line class="cls-11" x1="381.73" y1="47.86" x2="389.53" y2="35.01"/><line class="cls-11" x1="394.94" y1="47.86" x2="402.74" y2="35.01"/><line class="cls-11" x1="408.15" y1="47.86" x2="415.95" y2="35.01"/><line class="cls-11" x1="421.36" y1="47.86" x2="429.16" y2="35.01"/><line class="cls-11" x1="434.57" y1="47.86" x2="442.37" y2="35.01"/><line class="cls-11" x1="106.71" y1="47.86" x2="114.52" y2="35.01"/><line class="cls-11" x1="120.16" y1="47.86" x2="127.96" y2="35.01"/><line class="cls-11" x1="133.37" y1="47.86" x2="141.17" y2="35.01"/><line class="cls-11" x1="146.58" y1="47.86" x2="154.38" y2="35.01"/><line class="cls-11" x1="159.79" y1="47.86" x2="167.59" y2="35.01"/><line class="cls-11" x1="173" y1="47.86" x2="180.8" y2="35.01"/><line class="cls-11" x1="186.21" y1="47.86" x2="194.01" y2="35.01"/><line class="cls-11" x1="199.42" y1="47.86" x2="207.22" y2="35.01"/><line class="cls-11" x1="212.63" y1="47.86" x2="220.44" y2="35.01"/><line class="cls-11" x1="225.84" y1="47.86" x2="233.65" y2="35.01"/><line class="cls-11" x1="239.05" y1="47.86" x2="246.86" y2="35.01"/><line class="cls-11" x1="252.26" y1="47.86" x2="260.07" y2="35.01"/><line class="cls-11" x1="265.47" y1="47.86" x2="273.28" y2="35.01"/><line class="cls-11" x1="278.68" y1="47.86" x2="286.49" y2="35.01"/><line class="cls-11" x1="291.89" y1="47.86" x2="299.7" y2="35.01"/><line class="cls-11" x1="305.1" y1="47.86" x2="312.91" y2="35.01"/><line class="cls-11" x1="318.32" y1="47.86" x2="326.12" y2="35.01"/><line class="cls-11" x1="331.53" y1="47.86" x2="339.33" y2="35.01"/><line class="cls-11" x1="344.74" y1="47.86" x2="352.54" y2="35.01"/><line class="cls-11" x1="357.95" y1="47.86" x2="365.75" y2="35.01"/><line class="cls-11" x1="371.16" y1="47.86" x2="378.96" y2="35.01"/><line class="cls-11" x1="384.37" y1="47.86" x2="392.17" y2="35.01"/><line class="cls-11" x1="397.58" y1="47.86" x2="405.38" y2="35.01"/><line class="cls-11" x1="410.79" y1="47.86" x2="418.6" y2="35.01"/><line class="cls-11" x1="424" y1="47.86" x2="431.81" y2="35.01"/><line class="cls-11" x1="437.21" y1="47.86" x2="445.02" y2="35.01"/><line class="cls-11" x1="109.36" y1="47.86" x2="117.16" y2="35.01"/><line class="cls-11" x1="122.8" y1="47.86" x2="130.6" y2="35.01"/><line class="cls-11" x1="136.01" y1="47.86" x2="143.81" y2="35.01"/><line class="cls-11" x1="149.22" y1="47.86" x2="157.02" y2="35.01"/><line class="cls-11" x1="162.43" y1="47.86" x2="170.23" y2="35.01"/><line class="cls-11" x1="175.64" y1="47.86" x2="183.45" y2="35.01"/><line class="cls-11" x1="188.85" y1="47.86" x2="196.66" y2="35.01"/><line class="cls-11" x1="202.06" y1="47.86" x2="209.87" y2="35.01"/><line class="cls-11" x1="215.27" y1="47.86" x2="223.08" y2="35.01"/><line class="cls-11" x1="228.48" y1="47.86" x2="236.29" y2="35.01"/><line class="cls-11" x1="241.69" y1="47.86" x2="249.5" y2="35.01"/><line class="cls-11" x1="254.9" y1="47.86" x2="262.71" y2="35.01"/><line class="cls-11" x1="268.11" y1="47.86" x2="275.92" y2="35.01"/><line class="cls-11" x1="281.33" y1="47.86" x2="289.13" y2="35.01"/><line class="cls-11" x1="294.54" y1="47.86" x2="302.34" y2="35.01"/><line class="cls-11" x1="307.75" y1="47.86" x2="315.55" y2="35.01"/><line class="cls-11" x1="320.96" y1="47.86" x2="328.76" y2="35.01"/><line class="cls-11" x1="334.17" y1="47.86" x2="341.97" y2="35.01"/><line class="cls-11" x1="347.38" y1="47.86" x2="355.18" y2="35.01"/><line class="cls-11" x1="360.59" y1="47.86" x2="368.39" y2="35.01"/><line class="cls-11" x1="373.8" y1="47.86" x2="381.61" y2="35.01"/><line class="cls-11" x1="387.01" y1="47.86" x2="394.82" y2="35.01"/><line class="cls-11" x1="400.22" y1="47.86" x2="408.03" y2="35.01"/><line class="cls-11" x1="413.43" y1="47.86" x2="421.24" y2="35.01"/><line class="cls-11" x1="426.64" y1="47.86" x2="434.45" y2="35.01"/><line class="cls-11" x1="439.85" y1="47.86" x2="447.66" y2="35.01"/><line class="cls-11" x1="112" y1="47.86" x2="119.8" y2="35.01"/><line class="cls-11" x1="125.44" y1="47.86" x2="133.24" y2="35.01"/><line class="cls-11" x1="138.65" y1="47.86" x2="146.46" y2="35.01"/><line class="cls-11" x1="151.86" y1="47.86" x2="159.67" y2="35.01"/><line class="cls-11" x1="165.07" y1="47.86" x2="172.88" y2="35.01"/><line class="cls-11" x1="178.28" y1="47.86" x2="186.09" y2="35.01"/><line class="cls-11" x1="191.49" y1="47.86" x2="199.3" y2="35.01"/><line class="cls-11" x1="204.7" y1="47.86" x2="212.51" y2="35.01"/><line class="cls-11" x1="217.91" y1="47.86" x2="225.72" y2="35.01"/><line class="cls-11" x1="231.12" y1="47.86" x2="238.93" y2="35.01"/><line class="cls-11" x1="244.34" y1="47.86" x2="252.14" y2="35.01"/><line class="cls-11" x1="257.55" y1="47.86" x2="265.35" y2="35.01"/><line class="cls-11" x1="270.76" y1="47.86" x2="278.56" y2="35.01"/><line class="cls-11" x1="283.97" y1="47.86" x2="291.77" y2="35.01"/><line class="cls-11" x1="297.18" y1="47.86" x2="304.98" y2="35.01"/><line class="cls-11" x1="310.39" y1="47.86" x2="318.19" y2="35.01"/><line class="cls-11" x1="323.6" y1="47.86" x2="331.4" y2="35.01"/><line class="cls-11" x1="336.81" y1="47.86" x2="344.62" y2="35.01"/><line class="cls-11" x1="350.02" y1="47.86" x2="357.83" y2="35.01"/><line class="cls-11" x1="363.23" y1="47.86" x2="371.04" y2="35.01"/><line class="cls-11" x1="376.44" y1="47.86" x2="384.25" y2="35.01"/><line class="cls-11" x1="389.65" y1="47.86" x2="397.46" y2="35.01"/><line class="cls-11" x1="402.86" y1="47.86" x2="410.67" y2="35.01"/><line class="cls-11" x1="416.07" y1="47.86" x2="423.88" y2="35.01"/><line class="cls-11" x1="429.29" y1="47.86" x2="437.09" y2="35.01"/><line class="cls-10" x1="442.5" y1="47.86" x2="450.3" y2="35.01"/><line class="cls-11" x1="102.85" y1="38.59" x2="447.23" y2="38.59"/><line class="cls-11" x1="102.42" y1="44.39" x2="446.8" y2="44.39"/></g><rect class="cls-12" x="108.84" y="36.8" width="333.43" height="9.28"/></svg>