<?xml version="1.0" encoding="utf-8"?>
<!-- Generator: Adobe Illustrator 25.2.1, SVG Export Plug-In . SVG Version: 6.00 Build 0)  -->
<svg version="1.1" id="_x30_" xmlns="http://www.w3.org/2000/svg" xmlns:xlink="http://www.w3.org/1999/xlink" x="0px" y="0px"
	 viewBox="0 0 552.8 421.6" style="enable-background:new 0 0 552.8 421.6;" xml:space="preserve">
<style type="text/css">
	.st0{fill:#231F20;}
	.st1{font-family:'ArialMT';}
	.st2{font-size:12px;}
	.st3{fill-rule:evenodd;clip-rule:evenodd;fill:#221F1F;}
	.st4{fill:none;stroke:#231F20;stroke-linecap:round;stroke-linejoin:round;stroke-miterlimit:10;}
	.st5{fill:#FFFFFF;}
</style>
<g id="MTEXT">
	<g>
		<text transform="matrix(1 0 0 1 70.7368 227.1006)" class="st0 st1 st2">Dining</text>
	</g>
</g>
<g id="MTEXT_2_">
	<g>
		<text transform="matrix(1 0 0 1 94.6069 330.3479)" class="st0 st1 st2">Family</text>
	</g>
</g>
<g id="MTEXT_3_">
	<g>
		<text transform="matrix(1 0 0 1 269.5835 222.5904)" class="st0 st1 st2">Laundry</text>
	</g>
</g>
<g id="MTEXT_4_">
	<g>
		<text transform="matrix(1 0 0 1 362.343 222.5907)" class="st0 st1 st2">Bath</text>
	</g>
</g>
<g id="MTEXT_5_">
	<g>
		<text transform="matrix(1 0 0 1 461.3886 222.5905)" class="st0 st1 st2">Bed</text>
	</g>
</g>
<g id="MTEXT_6_">
	<g>
		<text transform="matrix(1 0 0 1 436.7145 89.1454)" class="st0 st1 st2">Bed</text>
	</g>
</g>
<g id="MTEXT_7_">
	<g>
		<text transform="matrix(1 0 0 1 296.67 89.1456)" class="st0 st1 st2">Bed</text>
	</g>
</g>
<g id="MTEXT_8_">
	<g>
		<text transform="matrix(1 0 0 1 93.5102 109.7787)" class="st0 st1 st2">Kitchen</text>
	</g>
</g>
<g id="MTEXT_9_">
	<g>
		<text transform="matrix(1 0 0 1 235.9667 161.5372)" class="st0 st1 st2">Hallway</text>
	</g>
</g>
<g id="HATCH_1_">
	<circle class="st3" cx="308.3" cy="156.6" r="7.1"/>
</g>
<g>
	<g>
		<g id="LINE">
			<g>
				<line class="st4" x1="29.4" y1="390" x2="53.4" y2="390"/>
			</g>
		</g>
		<g id="LINE_1_">
			<g>
				<line class="st4" x1="29.4" y1="390" x2="29.4" y2="239.5"/>
			</g>
		</g>
		<g id="LINE_2_">
			<g>
				<line class="st4" x1="35.1" y1="384" x2="53.4" y2="384"/>
			</g>
		</g>
		<g id="LINE_3_">
			<g>
				<line class="st4" x1="35.1" y1="384" x2="35.1" y2="239.5"/>
			</g>
		</g>
		<g id="LINE_4_">
			<g>
				<line class="st4" x1="200" y1="390" x2="200" y2="369"/>
			</g>
		</g>
		<g id="LINE_5_">
			<g>
				<line class="st4" x1="200" y1="275.1" x2="207.1" y2="275.1"/>
			</g>
		</g>
		<g id="LINE_7_">
			<g>
				<line class="st4" x1="260" y1="268.5" x2="260" y2="173.1"/>
			</g>
		</g>
		<g id="LINE_8_">
			<g>
				<line class="st4" x1="194.2" y1="384" x2="194.2" y2="369"/>
			</g>
		</g>
		<g id="LINE_9_">
			<g>
				<line class="st4" x1="194.2" y1="269" x2="207.1" y2="269"/>
			</g>
		</g>
		<g id="LINE_10_">
			<g>
				<line class="st4" x1="29.4" y1="29.9" x2="77.1" y2="29.9"/>
			</g>
		</g>
		<g id="LINE_11_">
			<g>
				<line class="st4" x1="524.4" y1="275.1" x2="524.4" y2="29.9"/>
			</g>
		</g>
		<g id="LINE_12_">
			<g>
				<line class="st4" x1="518.6" y1="269" x2="518.6" y2="36"/>
			</g>
		</g>
		<g id="LINE_13_">
			<g>
				<line class="st4" x1="35.1" y1="36" x2="77.1" y2="36"/>
			</g>
		</g>
		<g id="LINE_18_">
			<g>
				<line class="st4" x1="29.4" y1="204.8" x2="29.4" y2="123.2"/>
			</g>
		</g>
		<g id="LINE_19_">
			<g>
				<line class="st4" x1="35.1" y1="204.8" x2="35.1" y2="123.2"/>
			</g>
		</g>
		<g id="LINE_20_">
			<g>
				<line class="st4" x1="94.5" y1="390" x2="200" y2="390"/>
			</g>
		</g>
		<g id="LINE_21_">
			<g>
				<line class="st4" x1="94.5" y1="384" x2="194.2" y2="384"/>
			</g>
		</g>
		<g id="LINE_22_">
			<g>
				<line class="st4" x1="249" y1="275.1" x2="270.9" y2="275.1"/>
			</g>
		</g>
		<g id="LINE_23_">
			<g>
				<line class="st4" x1="249" y1="269" x2="270.9" y2="269"/>
			</g>
		</g>
		<g id="LINE_24_">
			<g>
				<line class="st4" x1="194.2" y1="283.7" x2="194.2" y2="269"/>
			</g>
		</g>
		<g id="LINE_25_">
			<g>
				<line class="st4" x1="200" y1="283.7" x2="200" y2="275.1"/>
			</g>
		</g>
		<g id="LINE_30_">
			<g>
				<line class="st4" x1="320.9" y1="275.1" x2="342.5" y2="275.1"/>
			</g>
		</g>
		<g id="LINE_31_">
			<g>
				<line class="st4" x1="320.9" y1="269" x2="342.5" y2="269"/>
			</g>
		</g>
		<g id="LINE_32_">
			<g>
				<line class="st4" x1="406.9" y1="269" x2="442.8" y2="269"/>
			</g>
		</g>
		<g id="LINE_33_">
			<g>
				<line class="st4" x1="406.9" y1="275.1" x2="442.8" y2="275.1"/>
			</g>
		</g>
		<g id="LINE_34_">
			<g>
				<line class="st4" x1="501.3" y1="275.1" x2="524.4" y2="275.1"/>
			</g>
		</g>
		<g id="LINE_35_">
			<g>
				<line class="st4" x1="501.3" y1="269" x2="518.6" y2="269"/>
			</g>
		</g>
		<g id="LINE_36_">
			<g>
				<line class="st4" x1="416.8" y1="269" x2="416.8" y2="173.4"/>
			</g>
		</g>
		<g id="LINE_40_">
			<g>
				<path class="st4" d="M244.5,142.3"/>
			</g>
		</g>
		<g id="LINE_41_">
			<g>
				<line class="st4" x1="244.5" y1="142.3" x2="244.5" y2="29.9"/>
			</g>
		</g>
		<g id="LINE_42_">
			<g>
				<line class="st4" x1="370.1" y1="142.3" x2="370.1" y2="36"/>
			</g>
		</g>
		<g id="LINE_44_">
			<g>
				<line class="st4" x1="503.4" y1="36" x2="518.6" y2="36"/>
			</g>
		</g>
		<g id="LINE_45_">
			<g>
				<line class="st4" x1="503.4" y1="29.9" x2="524.4" y2="29.9"/>
			</g>
		</g>
		<g id="LINE_46_">
			<g>
				<line class="st4" x1="331.5" y1="36" x2="400.4" y2="36"/>
			</g>
		</g>
		<g id="LINE_47_">
			<g>
				<line class="st4" x1="331.5" y1="29.9" x2="400.4" y2="29.9"/>
			</g>
		</g>
		<g id="LINE_50_">
			<g>
				<line class="st4" x1="29.4" y1="88.5" x2="29.4" y2="29.9"/>
			</g>
		</g>
		<g id="LINE_51_">
			<g>
				<line class="st4" x1="35.1" y1="88.5" x2="35.1" y2="36"/>
			</g>
		</g>
		<g id="LINE_53_">
			<g>
				<line class="st4" x1="198.5" y1="36" x2="282.7" y2="36"/>
			</g>
		</g>
		<g id="LINE_54_">
			<g>
				<line class="st4" x1="198.5" y1="29.9" x2="282.7" y2="29.9"/>
			</g>
		</g>
	</g>
</g>
<g>
	<g id="LINE_63_">
		<g>
			<line class="st4" x1="197.1" y1="173.2" x2="197.1" y2="269"/>
		</g>
	</g>
	<g id="POLYLINE">
		<g>
			<rect x="28.3" y="204.8" class="st4" width="7.8" height="34.7"/>
		</g>
	</g>
	<g id="LINE_67_">
		<g>
			<line class="st4" x1="244.5" y1="142.3" x2="518.6" y2="142.3"/>
		</g>
	</g>
	<g id="POLYLINE_1_">
		<g>
			<rect x="28.3" y="88.5" class="st4" width="7.8" height="34.7"/>
		</g>
	</g>
	<g id="LINE_70_">
		<g>
			<line class="st4" x1="77.1" y1="37.1" x2="198.5" y2="37.1"/>
		</g>
	</g>
	<g id="LINE_71_">
		<g>
			<line class="st4" x1="198.5" y1="37.1" x2="198.5" y2="28.8"/>
		</g>
	</g>
	<g id="LINE_72_">
		<g>
			<line class="st4" x1="198.5" y1="28.8" x2="77.1" y2="28.8"/>
		</g>
	</g>
	<g id="LINE_73_">
		<g>
			<line class="st4" x1="77.1" y1="28.8" x2="77.1" y2="37.1"/>
		</g>
	</g>
	<g id="LINE_74_">
		<g>
			<line class="st4" x1="207.1" y1="276.2" x2="249" y2="276.2"/>
		</g>
	</g>
	<g id="LINE_75_">
		<g>
			<line class="st4" x1="249" y1="276.2" x2="249" y2="267.9"/>
		</g>
	</g>
	<g id="LINE_76_">
		<g>
			<line class="st4" x1="249" y1="267.9" x2="207.1" y2="267.9"/>
		</g>
	</g>
	<g id="LINE_77_">
		<g>
			<line class="st4" x1="207.1" y1="267.9" x2="207.1" y2="276.2"/>
		</g>
	</g>
	<g id="LINE_78_">
		<g>
			<line class="st4" x1="270.9" y1="276.2" x2="320" y2="276.2"/>
		</g>
	</g>
	<g id="LINE_79_">
		<g>
			<line class="st4" x1="320" y1="276.2" x2="320" y2="267.9"/>
		</g>
	</g>
	<g id="LINE_80_">
		<g>
			<line class="st4" x1="320" y1="267.9" x2="270.9" y2="267.9"/>
		</g>
	</g>
	<g id="LINE_81_">
		<g>
			<line class="st4" x1="270.9" y1="267.9" x2="270.9" y2="276.2"/>
		</g>
	</g>
	<g id="LINE_82_">
		<g>
			<line class="st4" x1="342.5" y1="276.2" x2="406.9" y2="276.2"/>
		</g>
	</g>
	<g id="LINE_83_">
		<g>
			<line class="st4" x1="406.9" y1="276.2" x2="406.9" y2="267.9"/>
		</g>
	</g>
	<g id="LINE_84_">
		<g>
			<line class="st4" x1="406.9" y1="267.9" x2="342.5" y2="267.9"/>
		</g>
	</g>
	<g id="LINE_85_">
		<g>
			<line class="st4" x1="342.5" y1="267.9" x2="342.5" y2="276.2"/>
		</g>
	</g>
	<g id="LINE_86_">
		<g>
			<line class="st4" x1="442.8" y1="276.2" x2="501.3" y2="276.2"/>
		</g>
	</g>
	<g id="LINE_87_">
		<g>
			<line class="st4" x1="501.3" y1="276.2" x2="501.3" y2="267.9"/>
		</g>
	</g>
	<g id="LINE_88_">
		<g>
			<line class="st4" x1="501.3" y1="267.9" x2="442.8" y2="267.9"/>
		</g>
	</g>
	<g id="LINE_89_">
		<g>
			<line class="st4" x1="442.8" y1="267.9" x2="442.8" y2="276.2"/>
		</g>
	</g>
	<g id="LINE_90_">
		<g>
			<line class="st4" x1="53.4" y1="391.1" x2="94.5" y2="391.1"/>
		</g>
	</g>
	<g id="LINE_91_">
		<g>
			<line class="st4" x1="94.5" y1="391.1" x2="94.5" y2="382.9"/>
		</g>
	</g>
	<g id="LINE_92_">
		<g>
			<line class="st4" x1="94.5" y1="382.9" x2="53.4" y2="382.9"/>
		</g>
	</g>
	<g id="LINE_93_">
		<g>
			<line class="st4" x1="53.4" y1="382.9" x2="53.4" y2="391.1"/>
		</g>
	</g>
	<g id="LINE_94_">
		<g>
			<line class="st4" x1="193.2" y1="369" x2="201" y2="369"/>
		</g>
	</g>
	<g id="LINE_95_">
		<g>
			<line class="st4" x1="201" y1="369" x2="201" y2="283.7"/>
		</g>
	</g>
	<g id="LINE_96_">
		<g>
			<line class="st4" x1="201" y1="283.7" x2="193.2" y2="283.7"/>
		</g>
	</g>
	<g id="LINE_98_">
		<g>
			<line class="st4" x1="282.7" y1="37.1" x2="331.5" y2="37.1"/>
		</g>
	</g>
	<g id="LINE_99_">
		<g>
			<line class="st4" x1="331.5" y1="37.1" x2="331.5" y2="28.8"/>
		</g>
	</g>
	<g id="LINE_100_">
		<g>
			<line class="st4" x1="331.5" y1="28.8" x2="282.7" y2="28.8"/>
		</g>
	</g>
	<g id="LINE_101_">
		<g>
			<line class="st4" x1="282.7" y1="28.8" x2="282.7" y2="37.1"/>
		</g>
	</g>
	<g id="LINE_102_">
		<g>
			<line class="st4" x1="400.4" y1="37.1" x2="503.4" y2="37.1"/>
		</g>
	</g>
	<g id="LINE_103_">
		<g>
			<line class="st4" x1="503.4" y1="37.1" x2="503.4" y2="28.8"/>
		</g>
	</g>
	<g id="LINE_104_">
		<g>
			<line class="st4" x1="503.4" y1="28.8" x2="400.4" y2="28.8"/>
		</g>
	</g>
	<g id="LINE_105_">
		<g>
			<line class="st4" x1="400.4" y1="28.8" x2="400.4" y2="37.1"/>
		</g>
	</g>
	<g id="LINE_106_">
		<g>
			<path class="st4" d="M393,173.3"/>
			<line class="st4" x1="334.8" y1="268.5" x2="334.8" y2="173.4"/>
		</g>
	</g>
</g>
<polygon class="st4" points="66.3,148.1 38,148.1 38,39.3 161.6,39.3 161.6,67.6 66.3,67.6 "/>
<g id="MTEXT_1_">
	<g>
		<text transform="matrix(1 0 0 1 219.7248 222.5904)" class="st0 st1 st2">WC</text>
	</g>
</g>
<line class="st4" x1="518.6" y1="172.8" x2="197.1" y2="173.2"/>
<rect x="236.5" y="169.7" class="st5" width="20.5" height="7"/>
<rect x="310.7" y="169.3" class="st5" width="20.5" height="7"/>
<rect x="338.2" y="169.3" class="st5" width="20.5" height="7"/>
<rect x="420.2" y="169.3" class="st5" width="20.5" height="7"/>
<rect x="345.7" y="138.8" class="st5" width="20.5" height="7"/>
<rect x="374.7" y="138.8" class="st5" width="20.5" height="7"/>
</svg>
