<?xml version="1.0" encoding="utf-8"?>
<!-- Generator: Adobe Illustrator 25.2.1, SVG Export Plug-In . SVG Version: 6.00 Build 0)  -->
<svg version="1.1" id="HATCH_x5F_18" xmlns="http://www.w3.org/2000/svg" xmlns:xlink="http://www.w3.org/1999/xlink" x="0px"
	 y="0px" viewBox="0 0 552.8 262.7" style="enable-background:new 0 0 552.8 262.7;" xml:space="preserve">
<style type="text/css">
	.st0{fill-rule:evenodd;clip-rule:evenodd;fill:none;}
	.st1{clip-path:url(#SVGID_2_);fill:none;stroke:#221F1F;stroke-width:0.5;stroke-linejoin:round;}
	.st2{fill-rule:evenodd;clip-rule:evenodd;fill:url(#diagonal_cross_hatch);}
	.st3{fill:none;stroke:#231F20;stroke-linecap:round;stroke-linejoin:round;stroke-miterlimit:10;}
	.st4{fill:none;stroke:#231F20;stroke-width:0.1834;stroke-linecap:round;stroke-linejoin:round;stroke-miterlimit:10;}
	.st5{fill:none;stroke:#000000;stroke-width:1.125;stroke-linecap:round;stroke-linejoin:round;stroke-miterlimit:10;}
</style>
<pattern  x="-683.6" y="671.3" width="72" height="72" patternUnits="userSpaceOnUse" id="diagonal_cross_hatch" viewBox="6.2 -86.2 72 72" style="overflow:visible;">
	<g>
		<rect x="6.2" y="-86.2" class="st0" width="72" height="72"/>
		<g>
			<defs>
				<rect id="SVGID_1_" x="6.2" y="-86.2" width="72" height="72"/>
			</defs>
			<clipPath id="SVGID_2_">
				<use xlink:href="#SVGID_1_"  style="overflow:visible;"/>
			</clipPath>
			<line class="st1" x1="0.2" y1="-74.2" x2="18.2" y2="-92.2"/>
			<line class="st1" x1="0.2" y1="-68.2" x2="24.2" y2="-92.2"/>
			<line class="st1" x1="0.2" y1="-62.2" x2="30.2" y2="-92.2"/>
			<line class="st1" x1="0.2" y1="-56.2" x2="36.2" y2="-92.2"/>
			<line class="st1" x1="0.2" y1="-50.2" x2="42.2" y2="-92.2"/>
			<line class="st1" x1="0.2" y1="-44.2" x2="48.2" y2="-92.2"/>
			<line class="st1" x1="0.2" y1="-38.2" x2="54.2" y2="-92.2"/>
			<line class="st1" x1="0.2" y1="-32.2" x2="60.2" y2="-92.2"/>
			<line class="st1" x1="0.2" y1="-26.2" x2="66.2" y2="-92.2"/>
			<line class="st1" x1="0.2" y1="-20.2" x2="72.2" y2="-92.2"/>
			<line class="st1" x1="0.2" y1="-14.2" x2="78.2" y2="-92.2"/>
			<line class="st1" x1="0.2" y1="-8.2" x2="84.2" y2="-92.2"/>
			<line class="st1" x1="6.2" y1="-8.2" x2="84.2" y2="-86.2"/>
			<line class="st1" x1="12.2" y1="-8.2" x2="84.2" y2="-80.2"/>
			<line class="st1" x1="18.2" y1="-8.2" x2="84.2" y2="-74.2"/>
			<line class="st1" x1="24.2" y1="-8.2" x2="84.2" y2="-68.2"/>
			<line class="st1" x1="30.2" y1="-8.2" x2="84.2" y2="-62.2"/>
			<line class="st1" x1="36.2" y1="-8.2" x2="84.2" y2="-56.2"/>
			<line class="st1" x1="42.2" y1="-8.2" x2="84.2" y2="-50.2"/>
			<line class="st1" x1="48.2" y1="-8.2" x2="84.2" y2="-44.2"/>
			<line class="st1" x1="54.2" y1="-8.2" x2="84.2" y2="-38.2"/>
			<line class="st1" x1="52.2" y1="-0.2" x2="94.2" y2="-42.2"/>
			<line class="st1" x1="58.2" y1="-0.2" x2="94.2" y2="-36.2"/>
			<line class="st1" x1="64.2" y1="-0.2" x2="94.2" y2="-30.2"/>
		</g>
	</g>
</pattern>
<g>
	<g id="HATCH">
		<rect x="28" y="28.3" class="st2" width="156.7" height="85.9"/>
	</g>
	<g id="HATCH_1_">
		<rect x="198" y="28.3" class="st2" width="156.7" height="85.9"/>
	</g>
	<g id="HATCH_2_">
		<rect x="368" y="28.3" class="st2" width="156.7" height="85.9"/>
	</g>
	<g id="HATCH_3_">
		<rect x="28" y="148.5" class="st2" width="156.7" height="85.9"/>
	</g>
	<g id="HATCH_4_">
		<rect x="198" y="148.5" class="st2" width="156.7" height="85.9"/>
	</g>
	<g id="HATCH_5_">
		<rect x="368" y="148.5" class="st2" width="156.7" height="85.9"/>
	</g>
</g>
<g>
	<g id="LINE">
		<line class="st3" x1="28" y1="114.2" x2="524.7" y2="114.2"/>
	</g>
	<g id="LINE_1_">
		<line class="st3" x1="524.7" y1="28.3" x2="28" y2="28.3"/>
	</g>
	<g id="POLYLINE">
		<rect x="28" y="28.3" class="st3" width="156.7" height="85.9"/>
	</g>
	<g id="POLYLINE_1_">
		<rect x="198" y="28.3" class="st3" width="156.7" height="85.9"/>
	</g>
	<g id="POLYLINE_2_">
		<rect x="368" y="28.3" class="st3" width="156.7" height="85.9"/>
	</g>
</g>
<g>
	<g id="LINE_7_">
		<line class="st3" x1="524.7" y1="148.5" x2="28" y2="148.5"/>
	</g>
	<g>
		<g id="LINE_6_">
			<line class="st3" x1="28" y1="234.3" x2="524.7" y2="234.3"/>
		</g>
		<g id="LINE_9_">
			<line class="st4" x1="524.7" y1="148.5" x2="524.7" y2="234.3"/>
		</g>
		<g id="POLYLINE_3_">
			<rect x="28" y="148.5" class="st3" width="156.7" height="85.9"/>
		</g>
		<g id="POLYLINE_4_">
			<rect x="198" y="148.5" class="st3" width="156.7" height="85.9"/>
		</g>
		<g id="POLYLINE_5_">
			<rect x="368" y="148.5" class="st3" width="156.7" height="85.9"/>
		</g>
	</g>
</g>
<g>
	<g>
		<g>
			<g>
				<path class="st5" d="M127.8,124.2c-0.3-3.2-3.5-5.6-7.2-5.3c-3.2,0.2-5.7,2.5-6,5.3"/>
			</g>
			<g>
				<path class="st5" d="M124.9,138.5c0.3,3,3.2,5.3,6.6,5.3"/>
			</g>
			<g>
				<path class="st5" d="M110.8,143.9c3.4,0,6.3-2.3,6.6-5.3"/>
			</g>
			<g>
				<line class="st5" x1="124.9" y1="138.5" x2="127.8" y2="124.2"/>
			</g>
			<g>
				<line class="st5" x1="117.4" y1="138.5" x2="114.6" y2="124.2"/>
			</g>
			<g>
				<path class="st5" d="M66.2,124.2c-0.3-3.2-3.5-5.6-7.2-5.3c-3.2,0.2-5.7,2.5-6,5.3"/>
			</g>
			<g>
				<path class="st5" d="M63.4,138.5c0.3,3,3.2,5.3,6.6,5.3"/>
			</g>
			<g>
				<path class="st5" d="M49.3,143.8c3.4,0,6.3-2.3,6.6-5.3"/>
			</g>
			<g>
				<line class="st5" x1="63.4" y1="138.5" x2="66.2" y2="124.2"/>
			</g>
			<g>
				<line class="st5" x1="55.9" y1="138.5" x2="53.1" y2="124.2"/>
			</g>
			<g>
				<path class="st5" d="M86.9,124.2c-0.3-3.2-3.5-5.6-7.2-5.3c-3.2,0.2-5.7,2.5-6,5.3"/>
			</g>
			<g>
				<path class="st5" d="M84.1,138.5c0.3,3,3.2,5.3,6.6,5.3"/>
			</g>
			<g>
				<path class="st5" d="M70,143.8c3.4,0,6.3-2.3,6.6-5.3"/>
			</g>
			<g>
				<line class="st5" x1="84.1" y1="138.5" x2="86.9" y2="124.2"/>
			</g>
			<g>
				<line class="st5" x1="76.6" y1="138.5" x2="73.7" y2="124.2"/>
			</g>
			<g>
				<path class="st5" d="M45.6,124.2c-0.3-3.2-3.5-5.6-7.2-5.3c-3.2,0.2-5.7,2.5-6,5.3"/>
			</g>
			<g>
				<path class="st5" d="M42.7,138.5c0.3,3,3.2,5.3,6.6,5.3"/>
			</g>
			<g>
				<path class="st5" d="M28.7,143.8c3.4,0,6.3-2.3,6.6-5.3"/>
			</g>
			<g>
				<line class="st5" x1="42.7" y1="138.5" x2="45.6" y2="124.2"/>
			</g>
			<g>
				<line class="st5" x1="35.2" y1="138.5" x2="32.4" y2="124.2"/>
			</g>
			<g>
				<path class="st5" d="M210.4,124.2c-0.3-3.2-3.5-5.6-7.2-5.3c-3.2,0.2-5.7,2.5-6,5.3"/>
			</g>
			<g>
				<path class="st5" d="M207.6,138.5c0.3,3,3.2,5.3,6.6,5.3"/>
			</g>
			<g>
				<path class="st5" d="M193.5,143.9c3.4,0,6.3-2.3,6.6-5.3"/>
			</g>
			<g>
				<line class="st5" x1="207.6" y1="138.5" x2="210.4" y2="124.2"/>
			</g>
			<g>
				<line class="st5" x1="200.1" y1="138.5" x2="197.2" y2="124.2"/>
			</g>
			<g>
				<path class="st5" d="M169.1,124.2c-0.3-3.2-3.5-5.6-7.2-5.3c-3.2,0.2-5.7,2.5-6,5.3"/>
			</g>
			<g>
				<path class="st5" d="M166.3,138.5c0.3,3,3.2,5.3,6.6,5.3"/>
			</g>
			<g>
				<path class="st5" d="M152.2,143.9c3.4,0,6.3-2.3,6.6-5.3"/>
			</g>
			<g>
				<line class="st5" x1="166.3" y1="138.5" x2="169.1" y2="124.2"/>
			</g>
			<g>
				<line class="st5" x1="158.8" y1="138.5" x2="155.9" y2="124.2"/>
			</g>
			<g>
				<path class="st5" d="M189.7,124.2c-0.3-3.2-3.5-5.6-7.2-5.3c-3.2,0.2-5.7,2.5-6,5.3"/>
			</g>
			<g>
				<path class="st5" d="M186.9,138.5c0.3,3,3.2,5.3,6.6,5.3"/>
			</g>
			<g>
				<path class="st5" d="M172.8,143.9c3.4,0,6.3-2.3,6.6-5.3"/>
			</g>
			<g>
				<line class="st5" x1="186.9" y1="138.5" x2="189.7" y2="124.2"/>
			</g>
			<g>
				<line class="st5" x1="179.4" y1="138.5" x2="176.6" y2="124.2"/>
			</g>
			<g>
				<path class="st5" d="M148.4,124.2c-0.3-3.2-3.5-5.6-7.2-5.3c-3.2,0.2-5.7,2.5-6,5.3"/>
			</g>
			<g>
				<path class="st5" d="M145.6,138.5c0.3,3,3.2,5.3,6.6,5.3"/>
			</g>
			<g>
				<path class="st5" d="M131.5,143.9c3.4,0,6.3-2.3,6.6-5.3"/>
			</g>
			<g>
				<line class="st5" x1="145.6" y1="138.5" x2="148.4" y2="124.2"/>
			</g>
			<g>
				<line class="st5" x1="138.1" y1="138.5" x2="135.3" y2="124.2"/>
			</g>
			<g>
				<path class="st5" d="M313.7,124.2c-0.3-3.2-3.5-5.6-7.2-5.3c-3.2,0.2-5.7,2.5-6,5.3"/>
			</g>
			<g>
				<path class="st5" d="M310.9,138.5c0.3,3,3.2,5.3,6.6,5.3"/>
			</g>
			<g>
				<path class="st5" d="M296.8,143.9c3.4,0,6.3-2.3,6.6-5.3"/>
			</g>
			<g>
				<line class="st5" x1="310.9" y1="138.5" x2="313.7" y2="124.2"/>
			</g>
			<g>
				<line class="st5" x1="303.4" y1="138.5" x2="300.6" y2="124.2"/>
			</g>
			<g>
				<path class="st5" d="M334.4,124.2c-0.3-3.2-3.5-5.6-7.2-5.3c-3.2,0.2-5.7,2.5-6,5.3"/>
			</g>
			<g>
				<path class="st5" d="M331.6,138.5c0.3,3,3.2,5.3,6.6,5.3"/>
			</g>
			<g>
				<path class="st5" d="M317.5,143.9c3.4,0,6.3-2.3,6.6-5.3"/>
			</g>
			<g>
				<line class="st5" x1="331.6" y1="138.5" x2="334.4" y2="124.2"/>
			</g>
			<g>
				<line class="st5" x1="324.1" y1="138.5" x2="321.2" y2="124.2"/>
			</g>
			<g>
				<path class="st5" d="M272.4,124.2c-0.3-3.2-3.5-5.6-7.2-5.3c-3.2,0.2-5.7,2.5-6,5.3"/>
			</g>
			<g>
				<path class="st5" d="M269.6,138.5c0.3,3,3.2,5.3,6.6,5.3"/>
			</g>
			<g>
				<path class="st5" d="M255.5,143.9c3.4,0,6.3-2.3,6.6-5.3"/>
			</g>
			<g>
				<line class="st5" x1="269.6" y1="138.5" x2="272.4" y2="124.2"/>
			</g>
			<g>
				<line class="st5" x1="262.1" y1="138.5" x2="259.2" y2="124.2"/>
			</g>
			<g>
				<path class="st5" d="M293.1,124.2c-0.3-3.2-3.5-5.6-7.2-5.3c-3.2,0.2-5.7,2.5-6,5.3"/>
			</g>
			<g>
				<path class="st5" d="M290.2,138.5c0.3,3,3.2,5.3,6.6,5.3"/>
			</g>
			<g>
				<path class="st5" d="M276.1,143.9c3.4,0,6.3-2.3,6.6-5.3"/>
			</g>
			<g>
				<line class="st5" x1="290.2" y1="138.5" x2="293.1" y2="124.2"/>
			</g>
			<g>
				<line class="st5" x1="282.7" y1="138.5" x2="279.9" y2="124.2"/>
			</g>
			<g>
				<path class="st5" d="M231.1,124.2c-0.3-3.2-3.5-5.6-7.2-5.3c-3.2,0.2-5.7,2.5-6,5.3"/>
			</g>
			<g>
				<path class="st5" d="M228.2,138.5c0.3,3,3.2,5.3,6.6,5.3"/>
			</g>
			<g>
				<path class="st5" d="M214.2,143.9c3.4,0,6.3-2.3,6.6-5.3"/>
			</g>
			<g>
				<line class="st5" x1="228.2" y1="138.5" x2="231.1" y2="124.2"/>
			</g>
			<g>
				<line class="st5" x1="220.7" y1="138.5" x2="217.9" y2="124.2"/>
			</g>
			<g>
				<path class="st5" d="M251.7,124.2c-0.3-3.2-3.5-5.6-7.2-5.3c-3.2,0.2-5.7,2.5-6,5.3"/>
			</g>
			<g>
				<path class="st5" d="M248.9,138.5c0.3,3,3.2,5.3,6.6,5.3"/>
			</g>
			<g>
				<path class="st5" d="M234.8,143.9c3.4,0,6.3-2.3,6.6-5.3"/>
			</g>
			<g>
				<line class="st5" x1="248.9" y1="138.5" x2="251.7" y2="124.2"/>
			</g>
			<g>
				<line class="st5" x1="241.4" y1="138.5" x2="238.6" y2="124.2"/>
			</g>
			<g>
				<path class="st5" d="M396.4,124.2c-0.3-3.2-3.5-5.6-7.2-5.3c-3.2,0.2-5.7,2.5-6,5.3"/>
			</g>
			<g>
				<path class="st5" d="M393.5,138.5c0.3,3,3.2,5.3,6.6,5.3"/>
			</g>
			<g>
				<path class="st5" d="M379.5,143.9c3.4,0,6.3-2.3,6.6-5.3"/>
			</g>
			<g>
				<line class="st5" x1="393.5" y1="138.5" x2="396.4" y2="124.2"/>
			</g>
			<g>
				<line class="st5" x1="386" y1="138.5" x2="383.2" y2="124.2"/>
			</g>
			<g>
				<path class="st5" d="M355,124.2c-0.3-3.2-3.5-5.6-7.2-5.3c-3.2,0.2-5.7,2.5-6,5.3"/>
			</g>
			<g>
				<path class="st5" d="M352.2,138.5c0.3,3,3.2,5.3,6.6,5.3"/>
			</g>
			<g>
				<path class="st5" d="M338.1,143.9c3.4,0,6.3-2.3,6.6-5.3"/>
			</g>
			<g>
				<line class="st5" x1="352.2" y1="138.5" x2="355" y2="124.2"/>
			</g>
			<g>
				<line class="st5" x1="344.7" y1="138.5" x2="341.9" y2="124.2"/>
			</g>
			<g>
				<path class="st5" d="M375.7,124.2c-0.3-3.2-3.5-5.6-7.2-5.3c-3.2,0.2-5.7,2.5-6,5.3"/>
			</g>
			<g>
				<path class="st5" d="M372.9,138.5c0.3,3,3.2,5.3,6.6,5.3"/>
			</g>
			<g>
				<path class="st5" d="M358.8,143.9c3.4,0,6.3-2.3,6.6-5.3"/>
			</g>
			<g>
				<line class="st5" x1="372.9" y1="138.5" x2="375.7" y2="124.2"/>
			</g>
			<g>
				<line class="st5" x1="365.4" y1="138.5" x2="362.6" y2="124.2"/>
			</g>
			<g>
				<path class="st5" d="M417,124.2c-0.3-3.2-3.5-5.6-7.2-5.3c-3.2,0.2-5.7,2.5-6,5.3"/>
			</g>
			<g>
				<path class="st5" d="M414.2,138.5c0.3,3,3.2,5.3,6.6,5.3"/>
			</g>
			<g>
				<path class="st5" d="M400.1,143.9c3.4,0,6.3-2.3,6.6-5.3"/>
			</g>
			<g>
				<line class="st5" x1="414.2" y1="138.5" x2="417" y2="124.2"/>
			</g>
			<g>
				<line class="st5" x1="406.7" y1="138.5" x2="403.9" y2="124.2"/>
			</g>
			<g>
				<path class="st5" d="M437.7,124.2c-0.3-3.2-3.5-5.6-7.2-5.3c-3.2,0.2-5.7,2.5-6,5.3"/>
			</g>
			<g>
				<path class="st5" d="M434.9,138.5c0.3,3,3.2,5.3,6.6,5.3"/>
			</g>
			<g>
				<path class="st5" d="M420.8,143.9c3.4,0,6.3-2.3,6.6-5.3"/>
			</g>
			<g>
				<line class="st5" x1="434.9" y1="138.5" x2="437.7" y2="124.2"/>
			</g>
			<g>
				<line class="st5" x1="427.4" y1="138.5" x2="424.5" y2="124.2"/>
			</g>
			<g>
				<path class="st5" d="M107.6,124.2c-0.3-3.2-3.5-5.6-7.2-5.3c-3.2,0.2-5.7,2.5-6,5.3"/>
			</g>
			<g>
				<path class="st5" d="M104.7,138.5c0.3,3,3.2,5.3,6.6,5.3"/>
			</g>
			<g>
				<path class="st5" d="M90.6,143.8c3.4,0,6.3-2.3,6.6-5.3"/>
			</g>
			<g>
				<line class="st5" x1="104.7" y1="138.5" x2="107.6" y2="124.2"/>
			</g>
			<g>
				<line class="st5" x1="97.2" y1="138.5" x2="94.4" y2="124.2"/>
			</g>
			<g>
				<path class="st5" d="M458.4,124.2c-0.3-3.2-3.5-5.6-7.2-5.3c-3.2,0.2-5.7,2.5-6,5.3"/>
			</g>
			<g>
				<path class="st5" d="M455.5,138.5c0.3,3,3.2,5.3,6.6,5.3"/>
			</g>
			<g>
				<path class="st5" d="M441.5,143.9c3.4,0,6.3-2.3,6.6-5.3"/>
			</g>
			<g>
				<line class="st5" x1="455.5" y1="138.5" x2="458.4" y2="124.2"/>
			</g>
			<g>
				<line class="st5" x1="448" y1="138.5" x2="445.2" y2="124.2"/>
			</g>
			<g>
				<path class="st5" d="M479,124.2c-0.3-3.2-3.5-5.6-7.2-5.3c-3.2,0.2-5.7,2.5-6,5.3"/>
			</g>
			<g>
				<path class="st5" d="M476.2,138.5c0.3,3,3.2,5.3,6.6,5.3"/>
			</g>
			<g>
				<path class="st5" d="M462.1,143.9c3.4,0,6.3-2.3,6.6-5.3"/>
			</g>
			<g>
				<line class="st5" x1="476.2" y1="138.5" x2="479" y2="124.2"/>
			</g>
			<g>
				<line class="st5" x1="468.7" y1="138.5" x2="465.9" y2="124.2"/>
			</g>
			<g>
				<path class="st5" d="M499.7,124.2c-0.3-3.2-3.5-5.6-7.2-5.3c-3.2,0.2-5.7,2.5-6,5.3"/>
			</g>
			<g>
				<path class="st5" d="M496.9,138.5c0.3,3,3.2,5.3,6.6,5.3"/>
			</g>
			<g>
				<path class="st5" d="M482.8,143.9c3.4,0,6.3-2.3,6.6-5.3"/>
			</g>
			<g>
				<line class="st5" x1="496.9" y1="138.5" x2="499.7" y2="124.2"/>
			</g>
			<g>
				<line class="st5" x1="489.4" y1="138.5" x2="486.5" y2="124.2"/>
			</g>
			<g>
				<path class="st5" d="M520.4,124.2c-0.3-3.2-3.5-5.6-7.2-5.3c-3.2,0.2-5.7,2.5-6,5.3"/>
			</g>
			<g>
				<path class="st5" d="M517.5,138.5c0.3,3,3.2,5.3,6.6,5.3"/>
			</g>
			<g>
				<path class="st5" d="M503.4,143.9c3.4,0,6.3-2.3,6.6-5.3"/>
			</g>
			<g>
				<line class="st5" x1="517.5" y1="138.5" x2="520.4" y2="124.2"/>
			</g>
			<g>
				<line class="st5" x1="510" y1="138.5" x2="507.2" y2="124.2"/>
			</g>
		</g>
	</g>
</g>
</svg>
