<?xml version="1.0" encoding="utf-8"?>
<!-- Generator: Adobe Illustrator 25.2.1, SVG Export Plug-In . SVG Version: 6.00 Build 0)  -->
<svg version="1.1" id="BORDER" xmlns="http://www.w3.org/2000/svg" xmlns:xlink="http://www.w3.org/1999/xlink" x="0px" y="0px"
	 viewBox="0 0 552.8 313.3" style="enable-background:new 0 0 552.8 313.3;" xml:space="preserve">
<style type="text/css">
	.st0{font-family:'Arial-BoldMT';}
	.st1{font-size:12px;}
	.st2{font-family:'ArialMT';}
	.st3{fill:none;stroke:#000000;stroke-linecap:round;stroke-linejoin:round;stroke-miterlimit:10;}
	.st4{fill:none;stroke:#000000;stroke-width:0.25;stroke-miterlimit:10;}
</style>
<g id="MTEXT_7_">
	<text transform="matrix(1 0 0 1 601.1641 69.8603)"><tspan x="0" y="0" class="st0" style="font-size:30px;">DO NOT USE LIFTS</tspan><tspan x="0" y="36" class="st0" style="font-size:30px;">IF THERE IS A FIRE</tspan></text>
</g>
<g id="MTEXT_2_">
	<text transform="matrix(1 0 0 1 600.9971 211.0469)"><tspan x="0" y="0" class="st0" style="font-size:30px;">Do not use lifts</tspan><tspan x="0" y="36" class="st0" style="font-size:30px;">if there is a fire</tspan></text>
</g>
<g id="MTEXT_4_">
	<text transform="matrix(1 0 0 1 28.3463 158.4071)" class="st0 st1">OR</text>
</g>
<g id="MTEXT_5_">
	<text transform="matrix(1 0 0 1 415.3882 212.0473)" class="st2 st1">8 mm</text>
</g>
<g id="MTEXT_6_">
	<text transform="matrix(1 0 0 1 487.4072 62.812)" class="st2 st1">10 mm</text>
</g>
<g>
	<g id="MTEXT_1_">
		<g>
			<path d="M65.4,43.8h10.5c2.4,0,4.2,0.2,5.4,0.5c1.7,0.5,3.1,1.4,4.3,2.6c1.2,1.3,2.1,2.8,2.7,4.6c0.6,1.8,0.9,4.1,0.9,6.7
				c0,2.3-0.3,4.4-0.9,6.1c-0.7,2.1-1.7,3.7-3,5c-1,1-2.3,1.7-4,2.3c-1.3,0.4-3,0.6-5.1,0.6H65.4V43.8z M71.2,48.6v18.8h4.3
				c1.6,0,2.8-0.1,3.5-0.3c0.9-0.2,1.7-0.6,2.3-1.2c0.6-0.6,1.1-1.5,1.5-2.7c0.4-1.3,0.6-3,0.6-5.2s-0.2-3.9-0.6-5.1
				c-0.4-1.2-0.9-2.1-1.6-2.8c-0.7-0.7-1.6-1.1-2.7-1.3c-0.8-0.2-2.4-0.3-4.7-0.3H71.2z"/>
			<path d="M93,58.2c0-2.9,0.4-5.3,1.3-7.3c0.6-1.4,1.5-2.7,2.6-3.9c1.1-1.2,2.3-2,3.7-2.6c1.8-0.8,3.8-1.1,6.1-1.1
				c4.2,0,7.5,1.3,10.1,3.9c2.5,2.6,3.8,6.2,3.8,10.8c0,4.6-1.2,8.2-3.7,10.8c-2.5,2.6-5.8,3.9-10,3.9c-4.2,0-7.6-1.3-10.1-3.9
				C94.2,66.3,93,62.8,93,58.2z M98.9,58c0,3.2,0.7,5.7,2.2,7.3c1.5,1.7,3.4,2.5,5.7,2.5c2.3,0,4.2-0.8,5.6-2.5
				c1.5-1.6,2.2-4.1,2.2-7.4c0-3.3-0.7-5.7-2.1-7.3c-1.4-1.6-3.3-2.4-5.7-2.4s-4.3,0.8-5.7,2.4C99.6,52.3,98.9,54.8,98.9,58z"/>
			<path d="M136.1,72.3V43.8h5.6l11.6,19v-19h5.3v28.4h-5.8l-11.5-18.5v18.5H136.1z"/>
			<path d="M163.6,58.2c0-2.9,0.4-5.3,1.3-7.3c0.6-1.4,1.5-2.7,2.6-3.9c1.1-1.2,2.3-2,3.7-2.6c1.8-0.8,3.8-1.1,6.1-1.1
				c4.2,0,7.5,1.3,10.1,3.9c2.5,2.6,3.8,6.2,3.8,10.8c0,4.6-1.2,8.2-3.7,10.8c-2.5,2.6-5.8,3.9-10,3.9c-4.2,0-7.6-1.3-10.1-3.9
				C164.9,66.3,163.6,62.8,163.6,58.2z M169.5,58c0,3.2,0.7,5.7,2.2,7.3c1.5,1.7,3.4,2.5,5.7,2.5c2.3,0,4.2-0.8,5.6-2.5
				c1.5-1.6,2.2-4.1,2.2-7.4c0-3.3-0.7-5.7-2.1-7.3c-1.4-1.6-3.3-2.4-5.7-2.4c-2.4,0-4.3,0.8-5.7,2.4
				C170.3,52.3,169.5,54.8,169.5,58z"/>
			<path d="M202.1,72.3V48.6h-8.4v-4.8h22.6v4.8h-8.4v23.6H202.1z"/>
			<path d="M230.9,43.8h5.7v15.4c0,2.4,0.1,4,0.2,4.8c0.2,1.2,0.8,2.1,1.8,2.8c0.9,0.7,2.2,1.1,3.8,1.1c1.6,0,2.9-0.3,3.7-1
				c0.8-0.7,1.3-1.5,1.5-2.5c0.2-1,0.3-2.6,0.3-4.8V43.8h5.7v14.9c0,3.4-0.2,5.8-0.5,7.2c-0.3,1.4-0.9,2.6-1.7,3.6
				c-0.8,1-1.9,1.7-3.3,2.3c-1.4,0.6-3.2,0.9-5.5,0.9c-2.7,0-4.8-0.3-6.2-0.9c-1.4-0.6-2.5-1.4-3.3-2.4c-0.8-1-1.4-2.1-1.6-3.2
				c-0.4-1.6-0.6-4-0.6-7.2V43.8z"/>
			<path d="M258.2,63l5.6-0.5c0.3,1.9,1,3.3,2,4.1c1,0.9,2.4,1.3,4.2,1.3c1.8,0,3.2-0.4,4.2-1.2c0.9-0.8,1.4-1.7,1.4-2.7
				c0-0.7-0.2-1.2-0.6-1.7c-0.4-0.5-1.1-0.9-2.1-1.2c-0.7-0.2-2.2-0.6-4.6-1.2c-3.1-0.8-5.2-1.7-6.5-2.8c-1.7-1.6-2.6-3.5-2.6-5.7
				c0-1.4,0.4-2.8,1.2-4.1c0.8-1.3,2-2.2,3.5-2.9c1.5-0.7,3.4-1,5.6-1c3.6,0,6.3,0.8,8.1,2.3c1.8,1.6,2.8,3.7,2.8,6.3l-5.7,0.3
				c-0.2-1.5-0.8-2.5-1.6-3.2c-0.8-0.6-2-1-3.6-1c-1.7,0-3,0.3-3.9,1c-0.6,0.4-0.9,1-0.9,1.8c0,0.7,0.3,1.2,0.9,1.7
				c0.7,0.6,2.5,1.2,5.3,1.9c2.8,0.7,4.9,1.3,6.2,2c1.3,0.7,2.4,1.7,3.1,2.9c0.8,1.2,1.1,2.7,1.1,4.5c0,1.6-0.5,3.2-1.4,4.6
				c-0.9,1.4-2.2,2.5-3.8,3.2c-1.7,0.7-3.7,1-6.2,1c-3.6,0-6.4-0.8-8.3-2.5S258.6,66.2,258.2,63z"/>
			<path d="M286.2,72.3V43.8h21.1v4.8h-15.3v6.3h14.3v4.8h-14.3v7.7h15.9v4.8H286.2z"/>
			<path d="M323.9,72.3V44.1h5.7v23.4h14.3v4.8H323.9z"/>
			<path d="M347.8,72.3V43.8h5.7v28.4H347.8z"/>
			<path d="M359,72.3V43.8h19.5v4.8h-13.8v6.7h11.9v4.8h-11.9v12.1H359z"/>
			<path d="M389.7,72.3V48.6h-8.4v-4.8h22.6v4.8h-8.4v23.6H389.7z"/>
			<path d="M406.1,63l5.6-0.5c0.3,1.9,1,3.3,2,4.1c1,0.9,2.4,1.3,4.2,1.3c1.8,0,3.2-0.4,4.2-1.2c0.9-0.8,1.4-1.7,1.4-2.7
				c0-0.7-0.2-1.2-0.6-1.7c-0.4-0.5-1.1-0.9-2.1-1.2c-0.7-0.2-2.2-0.6-4.6-1.2c-3.1-0.8-5.2-1.7-6.5-2.8c-1.7-1.6-2.6-3.5-2.6-5.7
				c0-1.4,0.4-2.8,1.2-4.1c0.8-1.3,2-2.2,3.5-2.9c1.5-0.7,3.4-1,5.6-1c3.6,0,6.3,0.8,8.1,2.3c1.8,1.6,2.8,3.7,2.8,6.3l-5.7,0.3
				c-0.2-1.5-0.8-2.5-1.6-3.2c-0.8-0.6-2-1-3.6-1c-1.7,0-3,0.3-3.9,1c-0.6,0.4-0.9,1-0.9,1.8c0,0.7,0.3,1.2,0.9,1.7
				c0.7,0.6,2.5,1.2,5.3,1.9c2.8,0.7,4.9,1.3,6.2,2c1.3,0.7,2.4,1.7,3.1,2.9c0.8,1.2,1.1,2.7,1.1,4.5c0,1.6-0.5,3.2-1.4,4.6
				c-0.9,1.4-2.2,2.5-3.8,3.2c-1.7,0.7-3.7,1-6.2,1c-3.6,0-6.4-0.8-8.3-2.5C407.6,68.6,406.5,66.2,406.1,63z"/>
			<path d="M65.3,119.9V91.5H71v28.4H65.3z"/>
			<path d="M76.5,119.9V91.5H96v4.8H82.3v6.7h11.9v4.8H82.3v12.1H76.5z"/>
			<path d="M118.2,119.9V96.3h-8.4v-4.8h22.6v4.8h-8.4v23.6H118.2z"/>
			<path d="M136.1,119.9V91.5h5.7v11.2h11.3V91.5h5.7v28.4h-5.7v-12.4h-11.3v12.4H136.1z"/>
			<path d="M164.8,119.9V91.5h21.1v4.8h-15.3v6.3h14.3v4.8h-14.3v7.7h15.9v4.8H164.8z"/>
			<path d="M191.3,119.9V91.5h12.1c3,0,5.2,0.3,6.6,0.8c1.4,0.5,2.5,1.4,3.3,2.7c0.8,1.3,1.2,2.8,1.2,4.5c0,2.1-0.6,3.9-1.9,5.3
				c-1.3,1.4-3.1,2.3-5.6,2.6c1.2,0.7,2.3,1.5,3.1,2.4c0.8,0.9,1.9,2.4,3.3,4.6l3.5,5.5H210l-4.2-6.2c-1.5-2.2-2.5-3.6-3-4.2
				c-0.5-0.6-1.1-1-1.7-1.2c-0.6-0.2-1.6-0.3-2.9-0.3H197v11.9H191.3z M197,103.5h4.2c2.8,0,4.5-0.1,5.2-0.3
				c0.7-0.2,1.2-0.6,1.6-1.2c0.4-0.6,0.6-1.3,0.6-2.1c0-1-0.3-1.7-0.8-2.3c-0.5-0.6-1.2-1-2.2-1.1c-0.5-0.1-1.9-0.1-4.2-0.1H197
				V103.5z"/>
			<path d="M219.9,119.9V91.5H241v4.8h-15.3v6.3H240v4.8h-14.3v7.7h15.9v4.8H219.9z"/>
			<path d="M257.3,119.9V91.5h5.7v28.4H257.3z"/>
			<path d="M267.1,110.7l5.6-0.5c0.3,1.9,1,3.3,2,4.1c1,0.9,2.4,1.3,4.2,1.3c1.8,0,3.2-0.4,4.2-1.2c0.9-0.8,1.4-1.7,1.4-2.7
				c0-0.7-0.2-1.2-0.6-1.7c-0.4-0.5-1.1-0.9-2.1-1.2c-0.7-0.2-2.2-0.6-4.6-1.2c-3.1-0.8-5.2-1.7-6.5-2.8c-1.7-1.6-2.6-3.5-2.6-5.7
				c0-1.4,0.4-2.8,1.2-4.1c0.8-1.3,2-2.2,3.5-2.9c1.5-0.7,3.4-1,5.6-1c3.6,0,6.3,0.8,8.1,2.3c1.8,1.6,2.8,3.7,2.8,6.3l-5.7,0.3
				c-0.2-1.5-0.8-2.5-1.6-3.2s-2-1-3.6-1c-1.7,0-3,0.3-3.9,1c-0.6,0.4-0.9,1-0.9,1.8c0,0.7,0.3,1.2,0.9,1.7c0.7,0.6,2.5,1.2,5.3,1.9
				c2.8,0.7,4.9,1.3,6.2,2c1.3,0.7,2.4,1.7,3.1,2.9c0.8,1.2,1.1,2.7,1.1,4.5c0,1.6-0.5,3.2-1.4,4.6c-0.9,1.4-2.2,2.5-3.8,3.2
				c-1.7,0.7-3.7,1-6.2,1c-3.6,0-6.4-0.8-8.3-2.5C268.6,116.3,267.4,113.9,267.1,110.7z"/>
			<path d="M330.2,119.9H324l-2.5-6.5h-11.4l-2.3,6.5h-6.1l11.1-28.4h6.1L330.2,119.9z M319.7,108.7l-3.9-10.6l-3.8,10.6H319.7z"/>
			<path d="M342.9,119.9V91.5h19.5v4.8h-13.8v6.7h11.9v4.8h-11.9v12.1H342.9z"/>
			<path d="M366.9,119.9V91.5h5.7v28.4H366.9z"/>
			<path d="M378.2,119.9V91.5h12.1c3,0,5.2,0.3,6.6,0.8c1.4,0.5,2.5,1.4,3.3,2.7c0.8,1.3,1.2,2.8,1.2,4.5c0,2.1-0.6,3.9-1.9,5.3
				c-1.3,1.4-3.1,2.3-5.6,2.6c1.2,0.7,2.3,1.5,3.1,2.4c0.8,0.9,1.9,2.4,3.3,4.6l3.5,5.5h-6.9l-4.2-6.2c-1.5-2.2-2.5-3.6-3-4.2
				c-0.5-0.6-1.1-1-1.7-1.2c-0.6-0.2-1.6-0.3-2.9-0.3h-1.2v11.9H378.2z M383.9,103.5h4.2c2.8,0,4.5-0.1,5.2-0.3
				c0.7-0.2,1.2-0.6,1.6-1.2c0.4-0.6,0.6-1.3,0.6-2.1c0-1-0.3-1.7-0.8-2.3c-0.5-0.6-1.2-1-2.2-1.1c-0.5-0.1-1.9-0.1-4.2-0.1h-4.5
				V103.5z"/>
			<path d="M406.8,119.9V91.5h21.1v4.8h-15.3v6.3h14.3v4.8h-14.3v7.7h15.9v4.8H406.8z"/>
		</g>
	</g>
	<rect x="50.3" y="28.3" class="st3" width="393.9" height="107.1"/>
</g>
<g>
	<g id="MTEXT_3_">
		<g>
			<path d="M65.3,189.1h11.1c2.5,0,4.4,0.2,5.7,0.6c1.8,0.5,3.3,1.4,4.5,2.8c1.3,1.3,2.2,2.9,2.9,4.9c0.7,1.9,1,4.3,1,7.1
				c0,2.5-0.3,4.6-0.9,6.4c-0.8,2.2-1.8,4-3.2,5.3c-1.1,1-2.5,1.8-4.3,2.4c-1.3,0.4-3.1,0.6-5.4,0.6H65.3V189.1z M71.4,194.2v19.9
				h4.5c1.7,0,2.9-0.1,3.7-0.3c1-0.2,1.8-0.7,2.4-1.2c0.6-0.6,1.2-1.6,1.6-2.9c0.4-1.3,0.6-3.2,0.6-5.5c0-2.3-0.2-4.1-0.6-5.3
				c-0.4-1.2-1-2.2-1.7-2.9c-0.7-0.7-1.7-1.2-2.8-1.4c-0.8-0.2-2.5-0.3-5-0.3H71.4z"/>
			<path d="M94.3,208c0-1.9,0.5-3.8,1.4-5.6c0.9-1.8,2.3-3.2,4-4.1c1.7-0.9,3.7-1.4,5.8-1.4c3.3,0,6,1.1,8.1,3.2
				c2.1,2.1,3.2,4.8,3.2,8.1c0,3.3-1.1,6-3.2,8.2c-2.1,2.2-4.8,3.2-8,3.2c-2,0-3.9-0.5-5.7-1.4c-1.8-0.9-3.2-2.2-4.1-4
				C94.7,212.6,94.3,210.5,94.3,208z M100.2,208.3c0,2.2,0.5,3.8,1.5,5c1,1.1,2.3,1.7,3.8,1.7c1.5,0,2.8-0.6,3.8-1.7
				c1-1.1,1.5-2.8,1.5-5c0-2.1-0.5-3.8-1.5-4.9c-1-1.1-2.3-1.7-3.8-1.7c-1.5,0-2.8,0.6-3.8,1.7C100.7,204.5,100.2,206.1,100.2,208.3
				z"/>
			<path d="M152.7,219.1h-5.8V208c0-2.3-0.1-3.9-0.4-4.6c-0.2-0.7-0.6-1.2-1.2-1.6c-0.6-0.4-1.2-0.6-2-0.6c-1,0-1.9,0.3-2.7,0.8
				c-0.8,0.5-1.3,1.3-1.6,2.2c-0.3,0.9-0.4,2.6-0.4,5v9.9h-5.8v-21.8h5.3v3.2c1.9-2.5,4.3-3.7,7.2-3.7c1.3,0,2.4,0.2,3.5,0.7
				c1.1,0.5,1.8,1,2.4,1.8c0.5,0.7,0.9,1.5,1.1,2.4c0.2,0.9,0.3,2.2,0.3,3.9V219.1z"/>
			<path d="M157.2,208c0-1.9,0.5-3.8,1.4-5.6c0.9-1.8,2.3-3.2,4-4.1c1.7-0.9,3.7-1.4,5.8-1.4c3.3,0,6,1.1,8.1,3.2
				c2.1,2.1,3.2,4.8,3.2,8.1c0,3.3-1.1,6-3.2,8.2c-2.1,2.2-4.8,3.2-8,3.2c-2,0-3.9-0.5-5.7-1.4c-1.8-0.9-3.2-2.2-4.1-4
				C157.7,212.6,157.2,210.5,157.2,208z M163.1,208.3c0,2.2,0.5,3.8,1.5,5c1,1.1,2.3,1.7,3.8,1.7c1.5,0,2.8-0.6,3.8-1.7
				c1-1.1,1.5-2.8,1.5-5c0-2.1-0.5-3.8-1.5-4.9c-1-1.1-2.3-1.7-3.8-1.7c-1.5,0-2.8,0.6-3.8,1.7C163.6,204.5,163.1,206.1,163.1,208.3
				z"/>
			<path d="M194.1,197.4v4.6h-3.9v8.8c0,1.8,0,2.8,0.1,3.1c0.1,0.3,0.2,0.5,0.5,0.7c0.3,0.2,0.6,0.3,1,0.3c0.5,0,1.3-0.2,2.3-0.6
				l0.5,4.5c-1.3,0.6-2.9,0.9-4.5,0.9c-1,0-2-0.2-2.8-0.5c-0.8-0.3-1.4-0.8-1.8-1.4c-0.4-0.6-0.7-1.3-0.8-2.2
				c-0.1-0.7-0.2-2-0.2-4.1V202h-2.6v-4.6h2.6v-4.3l5.8-3.4v7.7H194.1z"/>
			<path d="M224.1,219.1v-3.3c-0.8,1.2-1.8,2.1-3.1,2.7s-2.7,1-4.1,1c-1.5,0-2.8-0.3-3.9-1c-1.2-0.6-2-1.5-2.5-2.7
				c-0.5-1.2-0.8-2.8-0.8-4.8v-13.8h5.8v10c0,3.1,0.1,4.9,0.3,5.6c0.2,0.7,0.6,1.2,1.2,1.6c0.6,0.4,1.3,0.6,2.1,0.6
				c1,0,1.9-0.3,2.6-0.8c0.8-0.5,1.3-1.2,1.6-2c0.3-0.8,0.4-2.8,0.4-5.9v-9.2h5.8v21.8H224.1z"/>
			<path d="M233.4,212.9l5.8-0.9c0.2,1.1,0.7,2,1.5,2.6c0.8,0.6,1.8,0.9,3.2,0.9c1.5,0,2.6-0.3,3.4-0.8c0.5-0.4,0.8-0.9,0.8-1.5
				c0-0.4-0.1-0.8-0.4-1.1c-0.3-0.3-0.9-0.5-1.9-0.8c-4.6-1-7.6-2-8.8-2.8c-1.7-1.2-2.6-2.8-2.6-4.9c0-1.9,0.7-3.5,2.2-4.8
				c1.5-1.3,3.8-1.9,6.9-1.9c3,0,5.2,0.5,6.6,1.5c1.4,1,2.4,2.4,3,4.3l-5.4,1c-0.2-0.8-0.7-1.5-1.3-1.9c-0.6-0.5-1.6-0.7-2.8-0.7
				c-1.5,0-2.6,0.2-3.3,0.6c-0.4,0.3-0.7,0.7-0.7,1.2c0,0.4,0.2,0.8,0.6,1c0.5,0.4,2.3,0.9,5.4,1.6c3.1,0.7,5.2,1.6,6.4,2.6
				c1.2,1,1.8,2.5,1.8,4.3c0,2-0.8,3.7-2.5,5.1c-1.7,1.4-4.1,2.2-7.4,2.2c-3,0-5.3-0.6-7-1.8C235.1,216.6,233.9,215,233.4,212.9z"/>
			<path d="M271.4,212.2l5.7,1c-0.7,2.1-1.9,3.7-3.5,4.8c-1.6,1.1-3.6,1.7-6,1.7c-3.8,0-6.6-1.2-8.4-3.7c-1.4-2-2.2-4.5-2.2-7.5
				c0-3.6,0.9-6.4,2.8-8.5c1.9-2,4.3-3.1,7.2-3.1c3.2,0,5.8,1.1,7.7,3.2c1.9,2.1,2.8,5.4,2.7,9.8H263c0,1.7,0.5,3,1.4,4
				c0.9,0.9,2,1.4,3.3,1.4c0.9,0,1.7-0.2,2.3-0.7C270.6,214.1,271.1,213.3,271.4,212.2z M271.7,206.4c0-1.7-0.5-2.9-1.3-3.8
				c-0.8-0.9-1.8-1.3-3-1.3c-1.3,0-2.3,0.5-3.1,1.4c-0.8,0.9-1.2,2.2-1.2,3.7H271.7z"/>
			<path d="M293.8,219.1v-30h5.8v30H293.8z"/>
			<path d="M305.4,194.4v-5.3h5.8v5.3H305.4z M305.4,219.1v-21.8h5.8v21.8H305.4z"/>
			<path d="M314.6,197.4h3.2v-1.6c0-1.8,0.2-3.2,0.6-4.1c0.4-0.9,1.1-1.6,2.2-2.2c1-0.6,2.4-0.9,4-0.9c1.6,0,3.2,0.2,4.8,0.7l-0.8,4
				c-0.9-0.2-1.8-0.3-2.6-0.3c-0.8,0-1.4,0.2-1.8,0.6c-0.4,0.4-0.5,1.1-0.5,2.2v1.5h4.3v4.5h-4.3v17.2h-5.8v-17.2h-3.2V197.4z"/>
			<path d="M341.1,197.4v4.6h-3.9v8.8c0,1.8,0,2.8,0.1,3.1c0.1,0.3,0.2,0.5,0.5,0.7c0.3,0.2,0.6,0.3,1,0.3c0.5,0,1.3-0.2,2.3-0.6
				l0.5,4.5c-1.3,0.6-2.9,0.9-4.5,0.9c-1,0-2-0.2-2.8-0.5c-0.8-0.3-1.4-0.8-1.8-1.4c-0.4-0.6-0.7-1.3-0.8-2.2
				c-0.1-0.7-0.2-2-0.2-4.1V202h-2.6v-4.6h2.6v-4.3l5.8-3.4v7.7H341.1z"/>
			<path d="M343,212.9l5.8-0.9c0.2,1.1,0.7,2,1.5,2.6c0.8,0.6,1.8,0.9,3.2,0.9c1.5,0,2.6-0.3,3.4-0.8c0.5-0.4,0.8-0.9,0.8-1.5
				c0-0.4-0.1-0.8-0.4-1.1c-0.3-0.3-0.9-0.5-1.9-0.8c-4.6-1-7.6-2-8.8-2.8c-1.7-1.2-2.6-2.8-2.6-4.9c0-1.9,0.7-3.5,2.2-4.8
				c1.5-1.3,3.8-1.9,6.9-1.9c3,0,5.2,0.5,6.6,1.5c1.4,1,2.4,2.4,3,4.3l-5.4,1c-0.2-0.8-0.7-1.5-1.3-1.9c-0.7-0.5-1.6-0.7-2.8-0.7
				c-1.5,0-2.6,0.2-3.3,0.6c-0.4,0.3-0.7,0.7-0.7,1.2c0,0.4,0.2,0.8,0.6,1c0.5,0.4,2.3,0.9,5.4,1.6c3.1,0.7,5.2,1.6,6.4,2.6
				c1.2,1,1.8,2.5,1.8,4.3c0,2-0.8,3.7-2.5,5.1c-1.7,1.4-4.1,2.2-7.4,2.2c-3,0-5.3-0.6-7-1.8C344.7,216.6,343.6,215,343,212.9z"/>
			<path d="M65.3,244.8v-5.3H71v5.3H65.3z M65.3,269.5v-21.8H71v21.8H65.3z"/>
			<path d="M74.4,247.7h3.2v-1.6c0-1.8,0.2-3.2,0.6-4.1c0.4-0.9,1.1-1.6,2.2-2.2c1-0.6,2.4-0.9,4-0.9c1.6,0,3.2,0.2,4.8,0.7l-0.8,4
				c-0.9-0.2-1.8-0.3-2.6-0.3c-0.8,0-1.4,0.2-1.8,0.6c-0.4,0.4-0.5,1.1-0.5,2.2v1.5h4.3v4.5h-4.3v17.2h-5.8v-17.2h-3.2V247.7z"/>
			<path d="M112.6,247.7v4.6h-3.9v8.8c0,1.8,0,2.8,0.1,3.1c0.1,0.3,0.2,0.5,0.5,0.7c0.3,0.2,0.6,0.3,1,0.3c0.5,0,1.3-0.2,2.3-0.6
				l0.5,4.5c-1.3,0.6-2.9,0.9-4.5,0.9c-1,0-2-0.2-2.8-0.5c-0.8-0.3-1.4-0.8-1.8-1.4c-0.4-0.6-0.7-1.3-0.8-2.2
				c-0.1-0.7-0.2-2-0.2-4.1v-9.5h-2.6v-4.6h2.6v-4.3l5.8-3.4v7.7H112.6z"/>
			<path d="M122.3,239.5v11c1.9-2.2,4.1-3.3,6.7-3.3c1.3,0,2.5,0.2,3.6,0.7c1.1,0.5,1.9,1.1,2.4,1.9c0.5,0.8,0.9,1.6,1.1,2.5
				c0.2,0.9,0.3,2.4,0.3,4.3v12.8h-5.8V258c0-2.3-0.1-3.7-0.3-4.3c-0.2-0.6-0.6-1.1-1.2-1.5c-0.6-0.4-1.2-0.5-2.1-0.5
				c-1,0-1.8,0.2-2.6,0.7c-0.8,0.5-1.3,1.2-1.6,2.1c-0.3,0.9-0.5,2.3-0.5,4.2v10.9h-5.8v-30H122.3z"/>
			<path d="M154.8,262.6l5.7,1c-0.7,2.1-1.9,3.7-3.5,4.8c-1.6,1.1-3.6,1.7-6,1.7c-3.8,0-6.6-1.2-8.4-3.7c-1.4-2-2.2-4.5-2.2-7.5
				c0-3.6,0.9-6.4,2.8-8.5c1.9-2,4.3-3.1,7.2-3.1c3.2,0,5.8,1.1,7.7,3.2c1.9,2.1,2.8,5.4,2.7,9.8h-14.4c0,1.7,0.5,3,1.4,4
				c0.9,0.9,2,1.4,3.3,1.4c0.9,0,1.7-0.2,2.3-0.7C154,264.5,154.5,263.7,154.8,262.6z M155.1,256.8c0-1.7-0.5-2.9-1.3-3.8
				c-0.8-0.9-1.8-1.3-3-1.3c-1.3,0-2.3,0.5-3.1,1.4c-0.8,0.9-1.2,2.2-1.2,3.7H155.1z"/>
			<path d="M171,269.5h-5.8v-21.8h5.3v3.1c0.9-1.5,1.7-2.4,2.5-2.9c0.7-0.5,1.6-0.7,2.5-0.7c1.3,0,2.6,0.4,3.8,1.1l-1.8,5
				c-1-0.6-1.9-0.9-2.7-0.9c-0.8,0-1.5,0.2-2,0.7c-0.6,0.4-1,1.2-1.3,2.4c-0.3,1.2-0.5,3.6-0.5,7.3V269.5z"/>
			<path d="M194.5,262.6l5.7,1c-0.7,2.1-1.9,3.7-3.5,4.8c-1.6,1.1-3.6,1.7-6,1.7c-3.8,0-6.6-1.2-8.4-3.7c-1.4-2-2.2-4.5-2.2-7.5
				c0-3.6,0.9-6.4,2.8-8.5c1.9-2,4.3-3.1,7.2-3.1c3.2,0,5.8,1.1,7.7,3.2c1.9,2.1,2.8,5.4,2.7,9.8h-14.4c0,1.7,0.5,3,1.4,4
				c0.9,0.9,2,1.4,3.3,1.4c0.9,0,1.7-0.2,2.3-0.7C193.7,264.5,194.2,263.7,194.5,262.6z M194.8,256.8c0-1.7-0.5-2.9-1.3-3.8
				c-0.8-0.9-1.8-1.3-3-1.3c-1.3,0-2.3,0.5-3.1,1.4c-0.8,0.9-1.2,2.2-1.2,3.7H194.8z"/>
			<path d="M216.9,244.8v-5.3h5.8v5.3H216.9z M216.9,269.5v-21.8h5.8v21.8H216.9z"/>
			<path d="M226.5,263.3l5.8-0.9c0.2,1.1,0.7,2,1.5,2.6c0.8,0.6,1.8,0.9,3.2,0.9c1.5,0,2.6-0.3,3.4-0.8c0.5-0.4,0.8-0.9,0.8-1.5
				c0-0.4-0.1-0.8-0.4-1.1c-0.3-0.3-0.9-0.5-1.9-0.8c-4.6-1-7.6-2-8.8-2.8c-1.7-1.2-2.6-2.8-2.6-4.9c0-1.9,0.7-3.5,2.2-4.8
				c1.5-1.3,3.8-1.9,6.9-1.9c3,0,5.2,0.5,6.6,1.5s2.4,2.4,3,4.3l-5.4,1c-0.2-0.8-0.7-1.5-1.3-1.9c-0.6-0.5-1.6-0.7-2.8-0.7
				c-1.5,0-2.6,0.2-3.3,0.6c-0.4,0.3-0.7,0.7-0.7,1.2c0,0.4,0.2,0.8,0.6,1c0.5,0.4,2.3,0.9,5.4,1.6s5.2,1.6,6.4,2.6
				c1.2,1,1.8,2.5,1.8,4.3c0,2-0.8,3.7-2.5,5.1c-1.7,1.4-4.1,2.2-7.4,2.2c-3,0-5.3-0.6-7-1.8S227,265.4,226.5,263.3z"/>
			<path d="M267.8,254.4l-5.2-0.9c0.6-2.1,1.6-3.7,3-4.7c1.4-1,3.6-1.5,6.4-1.5c2.6,0,4.5,0.3,5.7,0.9c1.3,0.6,2.1,1.4,2.7,2.3
				c0.5,0.9,0.8,2.7,0.8,5.2l-0.1,6.7c0,1.9,0.1,3.3,0.3,4.2c0.2,0.9,0.5,1.9,1,2.9h-5.7c-0.2-0.4-0.3-0.9-0.6-1.7
				c-0.1-0.3-0.2-0.6-0.2-0.7c-1,1-2,1.7-3.2,2.2c-1.1,0.5-2.3,0.7-3.6,0.7c-2.2,0-4-0.6-5.3-1.8c-1.3-1.2-1.9-2.8-1.9-4.6
				c0-1.2,0.3-2.3,0.9-3.3c0.6-1,1.4-1.7,2.5-2.2c1.1-0.5,2.6-1,4.6-1.3c2.7-0.5,4.6-1,5.6-1.4v-0.6c0-1.1-0.3-1.9-0.8-2.4
				c-0.5-0.5-1.6-0.7-3.1-0.7c-1,0-1.8,0.2-2.4,0.6C268.7,252.7,268.2,253.4,267.8,254.4z M275.5,259.1c-0.7,0.2-1.9,0.5-3.5,0.9
				c-1.6,0.3-2.6,0.7-3.1,1c-0.8,0.5-1.1,1.2-1.1,2c0,0.8,0.3,1.5,0.9,2.1c0.6,0.6,1.4,0.9,2.3,0.9c1,0,2-0.3,3-1
				c0.7-0.5,1.2-1.2,1.4-1.9c0.2-0.5,0.2-1.4,0.2-2.8V259.1z"/>
			<path d="M296,247.7h3.2v-1.6c0-1.8,0.2-3.2,0.6-4.1c0.4-0.9,1.1-1.6,2.2-2.2c1-0.6,2.4-0.9,4-0.9c1.6,0,3.2,0.2,4.8,0.7l-0.8,4
				c-0.9-0.2-1.8-0.3-2.6-0.3c-0.8,0-1.4,0.2-1.8,0.6c-0.4,0.4-0.5,1.1-0.5,2.2v1.5h4.3v4.5H305v17.2h-5.8v-17.2H296V247.7z"/>
			<path d="M312.5,244.8v-5.3h5.8v5.3H312.5z M312.5,269.5v-21.8h5.8v21.8H312.5z"/>
			<path d="M329.7,269.5h-5.8v-21.8h5.3v3.1c0.9-1.5,1.7-2.4,2.5-2.9c0.7-0.5,1.6-0.7,2.5-0.7c1.3,0,2.6,0.4,3.8,1.1l-1.8,5
				c-1-0.6-1.9-0.9-2.7-0.9c-0.8,0-1.5,0.2-2,0.7c-0.6,0.4-1,1.2-1.3,2.4c-0.3,1.2-0.5,3.6-0.5,7.3V269.5z"/>
			<path d="M353.1,262.6l5.7,1c-0.7,2.1-1.9,3.7-3.5,4.8c-1.6,1.1-3.6,1.7-6,1.7c-3.8,0-6.6-1.2-8.4-3.7c-1.4-2-2.2-4.5-2.2-7.5
				c0-3.6,0.9-6.4,2.8-8.5c1.9-2,4.3-3.1,7.2-3.1c3.2,0,5.8,1.1,7.7,3.2c1.9,2.1,2.8,5.4,2.7,9.8h-14.4c0,1.7,0.5,3,1.4,4
				c0.9,0.9,2,1.4,3.3,1.4c0.9,0,1.7-0.2,2.3-0.7C352.3,264.5,352.8,263.7,353.1,262.6z M353.4,256.8c0-1.7-0.5-2.9-1.3-3.8
				c-0.8-0.9-1.8-1.3-3-1.3c-1.3,0-2.3,0.5-3.1,1.4c-0.8,0.9-1.2,2.2-1.2,3.7H353.4z"/>
		</g>
	</g>
	<rect x="50.3" y="173.6" class="st3" width="328.1" height="111.4"/>
</g>
<line class="st4" x1="387.7" y1="196.7" x2="410.4" y2="196.7"/>
<line class="st4" x1="410.4" y1="219.4" x2="387.7" y2="219.4"/>
<line class="st4" x1="454.4" y1="44.1" x2="482.7" y2="44.1"/>
<line class="st4" x1="482.7" y1="72.5" x2="454.4" y2="72.5"/>
<g>
	<g>
		<line class="st4" x1="468.6" y1="80.8" x2="468.6" y2="102.5"/>
		<g>
			<polygon points="466.4,82.3 468.6,74.1 470.7,82.3 			"/>
		</g>
	</g>
</g>
<g>
	<g>
		<line class="st4" x1="468.6" y1="35.8" x2="468.6" y2="14.1"/>
		<g>
			<polygon points="470.7,34.3 468.6,42.5 466.4,34.3 			"/>
		</g>
	</g>
</g>
<g>
	<g>
		<line class="st4" x1="399" y1="227.3" x2="399" y2="243.4"/>
		<g>
			<polygon points="396.9,228.8 399,220.7 401.2,228.8 			"/>
		</g>
	</g>
</g>
<g>
	<g>
		<line class="st4" x1="399" y1="188.7" x2="399" y2="172.7"/>
		<g>
			<polygon points="401.2,187.2 399,195.4 396.9,187.2 			"/>
		</g>
	</g>
</g>
</svg>
