<svg id="Drawing_Layer" data-name="Drawing Layer" xmlns="http://www.w3.org/2000/svg" viewBox="0 0 552.76 212.6"><defs><style>.cls-1,.cls-2,.cls-3,.cls-4,.cls-8{fill:none;}.cls-1{stroke:#000;stroke-linejoin:round;stroke-width:0.61px;}.cls-1,.cls-2,.cls-3{stroke-linecap:round;}.cls-2,.cls-3,.cls-4,.cls-8{stroke:#231f20;stroke-miterlimit:10;}.cls-3{stroke-width:0.75px;}.cls-4{stroke-width:0.25px;}.cls-5,.cls-6{fill:#231f20;}.cls-6{font-size:12px;font-family:Arial-BoldMT, Arial;font-weight:700;}.cls-7{letter-spacing:-0.04em;}.cls-8{stroke-width:0.5px;}</style></defs><g id="LINE"><line class="cls-1" x1="135.84" y1="95.43" x2="143.59" y2="95.43"/></g><g id="LINE-2" data-name="LINE"><line class="cls-2" x1="393.9" y1="150.9" x2="393.9" y2="152.46"/></g><g id="LINE-3" data-name="LINE"><line class="cls-2" x1="393.9" y1="37.37" x2="393.9" y2="111.65"/></g><g id="LINE-4" data-name="LINE"><line class="cls-2" x1="393.9" y1="111.65" x2="406.77" y2="111.65"/></g><g id="LINE-5" data-name="LINE"><line class="cls-2" x1="393.9" y1="150.9" x2="406.77" y2="150.9"/></g><g id="LINE-6" data-name="LINE"><line class="cls-2" x1="393.9" y1="152.46" x2="409.42" y2="152.46"/></g><g id="LINE-7" data-name="LINE"><line class="cls-2" x1="408.59" y1="149.16" x2="408.59" y2="113.4"/></g><g id="SPLINE"><path class="cls-2" d="M406.77,150.9a1.78,1.78,0,0,0,1.82-1.74"/></g><g id="SPLINE-2" data-name="SPLINE"><path class="cls-2" d="M408.59,113.4a1.78,1.78,0,0,0-1.82-1.75"/></g><g id="LINE-8" data-name="LINE"><line class="cls-2" x1="424.94" y1="111.65" x2="412.07" y2="111.65"/></g><g id="LINE-9" data-name="LINE"><line class="cls-2" x1="424.94" y1="150.9" x2="412.07" y2="150.9"/></g><g id="LINE-10" data-name="LINE"><line class="cls-2" x1="424.94" y1="150.9" x2="424.94" y2="152.46"/></g><g id="LINE-11" data-name="LINE"><line class="cls-2" x1="424.94" y1="152.46" x2="409.42" y2="152.46"/></g><g id="LINE-12" data-name="LINE"><line class="cls-2" x1="410.24" y1="149.16" x2="410.24" y2="113.4"/></g><g id="SPLINE-3" data-name="SPLINE"><path class="cls-2" d="M410.24,149.16a1.79,1.79,0,0,0,1.83,1.74"/></g><g id="SPLINE-4" data-name="SPLINE"><path class="cls-2" d="M412.07,111.65a1.79,1.79,0,0,0-1.83,1.75"/></g><g id="LINE-13" data-name="LINE"><line class="cls-2" x1="424.94" y1="111.65" x2="424.94" y2="37.37"/></g><g id="LINE-14" data-name="LINE"><line class="cls-2" x1="424.94" y1="97.25" x2="500.72" y2="97.25"/></g><g id="LINE-15" data-name="LINE"><line class="cls-2" x1="393.9" y1="66.65" x2="500.72" y2="66.65"/></g><g id="LINE-16" data-name="LINE"><line class="cls-2" x1="393.9" y1="53.82" x2="424.94" y2="53.82"/></g><g id="SPLINE-5" data-name="SPLINE"><path class="cls-2" d="M146,134.67a1.79,1.79,0,0,0,1.83-1.74"/></g><g id="SPLINE-6" data-name="SPLINE"><path class="cls-2" d="M149.44,132.93a1.79,1.79,0,0,0,1.83,1.74"/></g><g id="LINE-17" data-name="LINE"><line class="cls-2" x1="133.09" y1="66.49" x2="133.09" y2="95.43"/></g><g id="LINE-18" data-name="LINE"><line class="cls-2" x1="133.09" y1="95.43" x2="145.96" y2="95.43"/></g><g id="LINE-19" data-name="LINE"><line class="cls-2" x1="133.09" y1="134.67" x2="145.96" y2="134.67"/></g><g id="LINE-20" data-name="LINE"><line class="cls-2" x1="133.09" y1="134.67" x2="133.09" y2="136.24"/></g><g id="LINE-21" data-name="LINE"><line class="cls-2" x1="133.09" y1="136.24" x2="148.61" y2="136.24"/></g><g id="LINE-22" data-name="LINE"><line class="cls-2" x1="147.79" y1="132.93" x2="147.79" y2="97.17"/></g><g id="SPLINE-7" data-name="SPLINE"><path class="cls-2" d="M147.79,97.17A1.79,1.79,0,0,0,146,95.43"/></g><g id="LINE-23" data-name="LINE"><line class="cls-2" x1="164.14" y1="95.43" x2="151.27" y2="95.43"/></g><g id="LINE-24" data-name="LINE"><line class="cls-2" x1="164.14" y1="134.67" x2="151.27" y2="134.67"/></g><g id="LINE-25" data-name="LINE"><line class="cls-2" x1="164.14" y1="134.67" x2="164.14" y2="136.24"/></g><g id="LINE-26" data-name="LINE"><line class="cls-2" x1="164.14" y1="136.24" x2="148.61" y2="136.24"/></g><g id="LINE-27" data-name="LINE"><line class="cls-2" x1="149.44" y1="132.93" x2="149.44" y2="97.17"/></g><g id="SPLINE-8" data-name="SPLINE"><path class="cls-2" d="M151.27,95.43a1.79,1.79,0,0,0-1.83,1.74"/></g><g id="LINE-28" data-name="LINE"><line class="cls-2" x1="167.37" y1="92" x2="256" y2="92"/></g><g id="LINE-29" data-name="LINE"><line class="cls-2" x1="149.44" y1="97.99" x2="167.37" y2="97.99"/></g><g id="LINE-30" data-name="LINE"><line class="cls-2" x1="167.37" y1="92" x2="167.37" y2="97.99"/></g><g id="LINE-31" data-name="LINE"><line class="cls-2" x1="149.44" y1="124.05" x2="256" y2="124.05"/></g><g id="LINE-32" data-name="LINE"><line class="cls-2" x1="164.14" y1="134.67" x2="164.14" y2="124.05"/></g><g id="LINE-33" data-name="LINE"><line class="cls-2" x1="164.14" y1="95.43" x2="164.14" y2="66.49"/></g><g id="LINE-34" data-name="LINE"><line class="cls-3" x1="167.45" y1="127.99" x2="168.6" y2="127.99"/></g><g id="LINE-35" data-name="LINE"><line class="cls-3" x1="167.45" y1="130.66" x2="168.6" y2="130.66"/></g><g id="LINE-36" data-name="LINE"><line class="cls-3" x1="165.17" y1="133.01" x2="165.17" y2="125.63"/></g><g id="LINE-37" data-name="LINE"><line class="cls-3" x1="168.6" y1="130.66" x2="168.6" y2="127.99"/></g><g id="LINE-38" data-name="LINE"><line class="cls-3" x1="165.17" y1="131.82" x2="167.12" y2="131.82"/></g><g id="LINE-39" data-name="LINE"><line class="cls-3" x1="165.17" y1="130.48" x2="167.12" y2="130.48"/></g><g id="SPLINE-9" data-name="SPLINE"><path class="cls-3" d="M167.12,131.82a.86.86,0,0,0,.1-1.25l-.1-.09"/></g><g id="LINE-40" data-name="LINE"><line class="cls-3" x1="164.14" y1="133.01" x2="165.17" y2="133.01"/></g><g id="LINE-41" data-name="LINE"><line class="cls-3" x1="165.17" y1="126.83" x2="167.12" y2="126.83"/></g><g id="LINE-42" data-name="LINE"><line class="cls-3" x1="165.17" y1="128.17" x2="167.12" y2="128.17"/></g><g id="SPLINE-10" data-name="SPLINE"><path class="cls-3" d="M167.12,128.17a.86.86,0,0,0,.1-1.25l-.1-.09"/></g><g id="LINE-43" data-name="LINE"><line class="cls-3" x1="167.45" y1="131.15" x2="167.45" y2="127.5"/></g><g id="SPLINE-11" data-name="SPLINE"><path class="cls-3" d="M167.12,130.48a2.23,2.23,0,0,0,0-2.31"/></g><g id="LINE-44" data-name="LINE"><line class="cls-3" x1="164.14" y1="125.63" x2="165.17" y2="125.63"/></g><g id="LINE-45" data-name="LINE"><line class="cls-3" x1="147.79" y1="131.82" x2="145.84" y2="131.82"/></g><g id="LINE-46" data-name="LINE"><line class="cls-3" x1="147.79" y1="130.48" x2="145.84" y2="130.48"/></g><g id="SPLINE-12" data-name="SPLINE"><path class="cls-3" d="M145.84,130.48a.85.85,0,0,0-.1,1.24l.1.1"/></g><g id="LINE-47" data-name="LINE"><line class="cls-3" x1="147.79" y1="126.83" x2="145.84" y2="126.83"/></g><g id="LINE-48" data-name="LINE"><line class="cls-3" x1="147.79" y1="128.17" x2="145.84" y2="128.17"/></g><g id="SPLINE-13" data-name="SPLINE"><path class="cls-3" d="M145.84,126.83a.85.85,0,0,0-.1,1.24.94.94,0,0,0,.1.1"/></g><g id="LINE-49" data-name="LINE"><line class="cls-3" x1="145.52" y1="131.15" x2="145.52" y2="127.5"/></g><g id="SPLINE-14" data-name="SPLINE"><path class="cls-3" d="M145.84,128.17a2.23,2.23,0,0,0,0,2.31"/></g><g id="LINE-50" data-name="LINE"><line class="cls-3" x1="141.12" y1="97.6" x2="141.12" y2="98.69"/></g><g id="LINE-51" data-name="LINE"><line class="cls-3" x1="138.31" y1="97.6" x2="138.31" y2="98.69"/></g><g id="LINE-52" data-name="LINE"><line class="cls-3" x1="138.31" y1="98.69" x2="141.12" y2="98.69"/></g><g id="LINE-53" data-name="LINE"><line class="cls-3" x1="137.1" y1="95.43" x2="137.1" y2="97.29"/></g><g id="LINE-54" data-name="LINE"><line class="cls-3" x1="138.5" y1="95.43" x2="138.5" y2="97.29"/></g><g id="SPLINE-15" data-name="SPLINE"><path class="cls-3" d="M137.1,97.29a1,1,0,0,0,1.3.09l.1-.09"/></g><g id="LINE-55" data-name="LINE"><line class="cls-3" x1="142.33" y1="95.43" x2="142.33" y2="97.29"/></g><g id="LINE-56" data-name="LINE"><line class="cls-3" x1="140.93" y1="95.43" x2="140.93" y2="97.29"/></g><g id="SPLINE-16" data-name="SPLINE"><path class="cls-3" d="M140.93,97.29a1,1,0,0,0,1.31.09l.09-.09"/></g><g id="LINE-57" data-name="LINE"><line class="cls-3" x1="137.8" y1="97.6" x2="141.63" y2="97.6"/></g><g id="SPLINE-17" data-name="SPLINE"><path class="cls-3" d="M138.5,97.29a2.55,2.55,0,0,0,2.43,0"/></g><g id="LINE-58" data-name="LINE"><line class="cls-3" x1="133.09" y1="93.87" x2="148.61" y2="93.87"/></g><g id="LINE-59" data-name="LINE"><line class="cls-3" x1="164.14" y1="93.87" x2="148.61" y2="93.87"/></g><g id="LINE-60" data-name="LINE"><line class="cls-3" x1="133.09" y1="81.03" x2="164.14" y2="81.03"/></g><g id="LINE-61" data-name="LINE"><line class="cls-3" x1="133.09" y1="93.87" x2="164.14" y2="81.03"/></g><g id="LINE-62" data-name="LINE"><line class="cls-3" x1="133.09" y1="81.03" x2="164.14" y2="93.87"/></g><g id="LINE-63" data-name="LINE"><line class="cls-3" x1="137.1" y1="81.03" x2="137.1" y2="79.17"/></g><g id="LINE-64" data-name="LINE"><line class="cls-3" x1="138.5" y1="81.03" x2="138.5" y2="79.17"/></g><g id="SPLINE-18" data-name="SPLINE"><path class="cls-3" d="M138.5,79.17a1,1,0,0,0-1.31-.09l-.09.09"/></g><g id="LINE-65" data-name="LINE"><line class="cls-3" x1="142.33" y1="81.03" x2="142.33" y2="79.17"/></g><g id="LINE-66" data-name="LINE"><line class="cls-3" x1="140.93" y1="81.03" x2="140.93" y2="79.17"/></g><g id="SPLINE-19" data-name="SPLINE"><path class="cls-3" d="M142.33,79.17a1,1,0,0,0-1.3-.09l-.1.09"/></g><g id="LINE-67" data-name="LINE"><line class="cls-3" x1="137.8" y1="78.86" x2="141.63" y2="78.86"/></g><g id="SPLINE-20" data-name="SPLINE"><path class="cls-3" d="M140.93,79.17a2.55,2.55,0,0,0-2.43,0"/></g><g id="LINE-68" data-name="LINE"><line class="cls-3" x1="401.92" y1="113.82" x2="401.92" y2="114.92"/></g><g id="LINE-69" data-name="LINE"><line class="cls-3" x1="399.11" y1="113.82" x2="399.11" y2="114.92"/></g><g id="LINE-70" data-name="LINE"><line class="cls-3" x1="399.11" y1="114.92" x2="401.92" y2="114.92"/></g><g id="LINE-71" data-name="LINE"><line class="cls-3" x1="397.9" y1="111.65" x2="397.9" y2="113.51"/></g><g id="LINE-72" data-name="LINE"><line class="cls-3" x1="399.3" y1="111.65" x2="399.3" y2="113.51"/></g><g id="SPLINE-21" data-name="SPLINE"><path class="cls-3" d="M397.9,113.51a1,1,0,0,0,1.31.1.43.43,0,0,0,.09-.1"/></g><g id="LINE-73" data-name="LINE"><line class="cls-3" x1="403.14" y1="111.65" x2="403.14" y2="113.51"/></g><g id="LINE-74" data-name="LINE"><line class="cls-3" x1="401.73" y1="111.65" x2="401.73" y2="113.51"/></g><g id="SPLINE-22" data-name="SPLINE"><path class="cls-3" d="M401.73,113.51a1,1,0,0,0,1.31.1.94.94,0,0,0,.1-.1"/></g><g id="LINE-75" data-name="LINE"><line class="cls-3" x1="398.6" y1="113.82" x2="402.43" y2="113.82"/></g><g id="SPLINE-23" data-name="SPLINE"><path class="cls-3" d="M399.3,113.51a2.55,2.55,0,0,0,2.43,0"/></g><g id="LINE-76" data-name="LINE"><line class="cls-3" x1="393.9" y1="110.09" x2="409.42" y2="110.09"/></g><g id="LINE-77" data-name="LINE"><line class="cls-3" x1="424.94" y1="110.09" x2="409.42" y2="110.09"/></g><g id="LINE-78" data-name="LINE"><line class="cls-3" x1="393.9" y1="97.25" x2="424.94" y2="97.25"/></g><g id="LINE-79" data-name="LINE"><line class="cls-3" x1="393.9" y1="110.09" x2="424.94" y2="97.25"/></g><g id="LINE-80" data-name="LINE"><line class="cls-3" x1="393.9" y1="97.25" x2="424.94" y2="110.09"/></g><g id="LINE-81" data-name="LINE"><line class="cls-3" x1="397.9" y1="97.25" x2="397.9" y2="95.39"/></g><g id="LINE-82" data-name="LINE"><line class="cls-3" x1="399.3" y1="97.25" x2="399.3" y2="95.39"/></g><g id="SPLINE-24" data-name="SPLINE"><path class="cls-3" d="M399.3,95.39a1,1,0,0,0-1.3-.09l-.1.09"/></g><g id="LINE-83" data-name="LINE"><line class="cls-3" x1="403.14" y1="97.25" x2="403.14" y2="95.39"/></g><g id="LINE-84" data-name="LINE"><line class="cls-3" x1="401.73" y1="97.25" x2="401.73" y2="95.39"/></g><g id="SPLINE-25" data-name="SPLINE"><path class="cls-3" d="M403.14,95.39a1,1,0,0,0-1.31-.09l-.1.09"/></g><g id="LINE-85" data-name="LINE"><line class="cls-3" x1="398.6" y1="95.09" x2="402.43" y2="95.09"/></g><g id="SPLINE-26" data-name="SPLINE"><path class="cls-3" d="M401.73,95.39a2.61,2.61,0,0,0-2.43,0"/></g><g id="LINE-86" data-name="LINE"><line class="cls-3" x1="393.9" y1="66.65" x2="424.94" y2="53.82"/></g><g id="LINE-87" data-name="LINE"><line class="cls-3" x1="393.9" y1="53.82" x2="424.94" y2="66.65"/></g><g id="POLYLINE"><g id="POLYLINE-2" data-name="POLYLINE"><polyline class="cls-4" points="179.95 124.1 179.95 139.73 191.01 139.73"/><polygon class="cls-5" points="177.77 125.58 179.95 117.45 182.13 125.58 177.77 125.58"/></g></g><g id="POLYLINE-3" data-name="POLYLINE"><polyline class="cls-4" points="170.3 81.75 186.09 71.94 188.55 71.94"/><polygon class="cls-5" points="172.71 82.81 164.65 85.25 170.41 79.11 172.71 82.81"/></g><g id="POLYLINE-4" data-name="POLYLINE"><g id="POLYLINE-5" data-name="POLYLINE"><polyline class="cls-4" points="430.74 56.76 453.71 43.96 457.17 43.96"/><polygon class="cls-5" points="433.1 57.94 424.94 59.99 430.98 54.13 433.1 57.94"/></g></g><g id="POLYLINE-6" data-name="POLYLINE"><g id="POLYLINE-7" data-name="POLYLINE"><polyline class="cls-4" points="442.84 93.64 449.39 110.55 457.6 110.55"/><polygon class="cls-5" points="441.35 95.82 440.44 87.45 445.41 94.24 441.35 95.82"/></g></g><g id="LINE-88" data-name="LINE"><g id="LINE-89" data-name="LINE"><line class="cls-4" x1="401.04" y1="139.75" x2="344.17" y2="139.75"/><polygon class="cls-5" points="399.55 137.57 407.68 139.75 399.55 141.93 399.55 137.57"/></g></g><g id="POLYLINE-8" data-name="POLYLINE"><g id="POLYLINE-9" data-name="POLYLINE"><polyline class="cls-4" points="389.47 114.57 365.06 114.57 365.06 100.31 349.78 100.31"/><polygon class="cls-5" points="387.98 112.39 396.11 114.57 387.98 116.75 387.98 112.39"/></g></g><polyline class="cls-4" points="141.36 106.63 95.23 94.53 76.75 94.53"/><polygon class="cls-5" points="140.48 104.14 147.79 108.31 139.37 108.36 140.48 104.14"/><g id="LINE-90" data-name="LINE"><g id="LINE-91" data-name="LINE"><line class="cls-4" x1="139.2" y1="128.92" x2="76.75" y2="128.92"/><polygon class="cls-5" points="137.71 126.74 145.84 128.92 137.71 131.1 137.71 126.74"/></g></g><g id="MTEXT"><text class="cls-6" transform="translate(87.3 183.37)">(a) Floor – example<tspan class="cls-7" x="109.37" y="0" xml:space="preserve"> A</tspan></text></g><g id="MTEXT-2" data-name="MTEXT"><text class="cls-6" transform="translate(339.84 182.33)">(b) Floor – example B</text></g><g id="MTEXT-3" data-name="MTEXT"><path class="cls-5" d="M197.8,143.24h-1.06v-6.72a5.52,5.52,0,0,1-1,.73,6.94,6.94,0,0,1-1.11.54v-1a6.28,6.28,0,0,0,1.55-1,3.94,3.94,0,0,0,.94-1.15h.68Z"/><path class="cls-5" d="M200.37,141.38l1-.16a1.44,1.44,0,0,0,.49,1,1.72,1.72,0,0,0,1.12.33,1.68,1.68,0,0,0,1.08-.29.87.87,0,0,0,.35-.7.63.63,0,0,0-.31-.56,4.89,4.89,0,0,0-1.07-.36,9.59,9.59,0,0,1-1.61-.5,1.54,1.54,0,0,1-.68-.6,1.51,1.51,0,0,1-.23-.83,1.57,1.57,0,0,1,.19-.77,1.71,1.71,0,0,1,.51-.59,2.41,2.41,0,0,1,.68-.31,3.28,3.28,0,0,1,.91-.12,3.58,3.58,0,0,1,1.28.21,1.77,1.77,0,0,1,.82.57,2.1,2.1,0,0,1,.36,1l-1,.14a1.11,1.11,0,0,0-.4-.75,1.52,1.52,0,0,0-1-.27,1.7,1.7,0,0,0-1,.24.7.7,0,0,0-.31.57.63.63,0,0,0,.12.37,1.09,1.09,0,0,0,.41.28q.15.06.93.27a12,12,0,0,1,1.56.49,1.54,1.54,0,0,1,.7.55,1.59,1.59,0,0,1,.25.9,1.78,1.78,0,0,1-.31,1,2,2,0,0,1-.89.72,3.19,3.19,0,0,1-1.31.25,3,3,0,0,1-1.85-.5A2.4,2.4,0,0,1,200.37,141.38Z"/><path class="cls-5" d="M209.09,142.3l.16.93a4.16,4.16,0,0,1-.8.09,1.82,1.82,0,0,1-.89-.18,1,1,0,0,1-.45-.48,4,4,0,0,1-.12-1.24v-3.58h-.78V137H207v-1.54l1-.64V137h1.06v.82H208v3.64a1.73,1.73,0,0,0,.06.58.49.49,0,0,0,.18.2.74.74,0,0,0,.36.08C208.75,142.34,208.9,142.32,209.09,142.3Z"/><path class="cls-5" d="M213,141.38l1-.16a1.44,1.44,0,0,0,.49,1,1.72,1.72,0,0,0,1.12.33,1.68,1.68,0,0,0,1.08-.29.9.9,0,0,0,.35-.7.63.63,0,0,0-.31-.56,4.84,4.84,0,0,0-1.08-.36,9.39,9.39,0,0,1-1.6-.5,1.54,1.54,0,0,1-.68-.6,1.52,1.52,0,0,1-.24-.83,1.69,1.69,0,0,1,.19-.77,1.73,1.73,0,0,1,.52-.59,2.47,2.47,0,0,1,.67-.31,3.39,3.39,0,0,1,.91-.12,3.63,3.63,0,0,1,1.29.21,1.77,1.77,0,0,1,.82.57,2.22,2.22,0,0,1,.36,1l-1,.14a1.12,1.12,0,0,0-.41-.75,1.47,1.47,0,0,0-.95-.27,1.75,1.75,0,0,0-1,.24.72.72,0,0,0-.31.57.64.64,0,0,0,.13.37,1,1,0,0,0,.41.28q.15.06.93.27a13.15,13.15,0,0,1,1.56.49,1.5,1.5,0,0,1,1,1.45,1.86,1.86,0,0,1-.31,1,2,2,0,0,1-.89.72,3.22,3.22,0,0,1-1.31.25,3,3,0,0,1-1.85-.5A2.4,2.4,0,0,1,213,141.38Z"/><path class="cls-5" d="M221.76,142.3l.16.93a4.16,4.16,0,0,1-.8.09,1.82,1.82,0,0,1-.89-.18,1,1,0,0,1-.45-.48,3.88,3.88,0,0,1-.13-1.24v-3.58h-.77V137h.77v-1.54l1-.64V137h1.06v.82H220.7v3.64a1.73,1.73,0,0,0,.06.58.43.43,0,0,0,.18.2.69.69,0,0,0,.36.08C221.42,142.34,221.57,142.32,221.76,142.3Z"/><path class="cls-5" d="M222.4,140.13a3.2,3.2,0,0,1,1-2.56,2.91,2.91,0,0,1,2-.69,2.82,2.82,0,0,1,2.1.84,3.2,3.2,0,0,1,.81,2.32,4.13,4.13,0,0,1-.36,1.89,2.52,2.52,0,0,1-1.05,1.07,3.1,3.1,0,0,1-1.5.38,2.78,2.78,0,0,1-2.11-.84A3.33,3.33,0,0,1,222.4,140.13Zm1.09,0a2.64,2.64,0,0,0,.52,1.79,1.64,1.64,0,0,0,1.31.59,1.7,1.7,0,0,0,1.31-.59,2.77,2.77,0,0,0,.52-1.83,2.58,2.58,0,0,0-.53-1.75,1.74,1.74,0,0,0-2.61,0A2.64,2.64,0,0,0,223.49,140.13Z"/><path class="cls-5" d="M229.46,143.24V137h.95V138a2.48,2.48,0,0,1,.67-.87,1.16,1.16,0,0,1,.67-.21,2,2,0,0,1,1.09.34l-.37,1a1.41,1.41,0,0,0-.77-.23,1,1,0,0,0-.62.2,1.13,1.13,0,0,0-.39.58,4.06,4.06,0,0,0-.18,1.23v3.26Z"/><path class="cls-5" d="M237.72,141.24l1.09.13a2.64,2.64,0,0,1-.95,1.48,3.24,3.24,0,0,1-4-.31,3.31,3.31,0,0,1-.8-2.36,3.44,3.44,0,0,1,.81-2.44,2.77,2.77,0,0,1,2.1-.86,2.66,2.66,0,0,1,2,.85,3.39,3.39,0,0,1,.79,2.39c0,.06,0,.15,0,.28H234.2a2.38,2.38,0,0,0,.58,1.57,1.74,1.74,0,0,0,1.3.54,1.62,1.62,0,0,0,1-.3A2,2,0,0,0,237.72,141.24Zm-3.46-1.71h3.48a2.14,2.14,0,0,0-.4-1.18,1.64,1.64,0,0,0-1.31-.61,1.7,1.7,0,0,0-1.22.49A1.94,1.94,0,0,0,234.26,139.53Z"/><path class="cls-5" d="M240.09,145.64l-.12-1a2.5,2.5,0,0,0,.61.09,1.13,1.13,0,0,0,.56-.12.92.92,0,0,0,.35-.33,5.68,5.68,0,0,0,.32-.78l.09-.26L239.54,137h1.14l1.29,3.6q.25.69.45,1.44a14.53,14.53,0,0,1,.44-1.42l1.33-3.62h1.05l-2.37,6.33a12.28,12.28,0,0,1-.59,1.41,2.06,2.06,0,0,1-.64.76,1.54,1.54,0,0,1-.87.25A2.31,2.31,0,0,1,240.09,145.64Z"/><path class="cls-5" d="M194.37,156.24v-5.4h-.93V150h.93v-.66a3.12,3.12,0,0,1,.11-.94,1.33,1.33,0,0,1,.54-.66,1.9,1.9,0,0,1,1.07-.26,5.25,5.25,0,0,1,1,.11l-.16.92a3.5,3.5,0,0,0-.62-.06.91.91,0,0,0-.68.21,1.1,1.1,0,0,0-.2.76V150h1.21v.82h-1.21v5.4Z"/><path class="cls-5" d="M197.43,156.24v-8.59h1v8.59Z"/><path class="cls-5" d="M199.73,153.13a3.2,3.2,0,0,1,1-2.56,2.87,2.87,0,0,1,1.95-.69,2.79,2.79,0,0,1,2.1.84,3.2,3.2,0,0,1,.82,2.32,4.13,4.13,0,0,1-.36,1.89,2.52,2.52,0,0,1-1,1.07,3.11,3.11,0,0,1-1.51.38,2.79,2.79,0,0,1-2.11-.84A3.33,3.33,0,0,1,199.73,153.13Zm1.08,0a2.64,2.64,0,0,0,.52,1.79,1.66,1.66,0,0,0,1.31.59,1.68,1.68,0,0,0,1.31-.59,2.72,2.72,0,0,0,.52-1.83,2.58,2.58,0,0,0-.52-1.75,1.75,1.75,0,0,0-2.62,0A2.64,2.64,0,0,0,200.81,153.13Z"/><path class="cls-5" d="M206.4,153.13a3.2,3.2,0,0,1,1-2.56,2.91,2.91,0,0,1,2-.69,2.82,2.82,0,0,1,2.1.84,3.2,3.2,0,0,1,.81,2.32,4.13,4.13,0,0,1-.36,1.89,2.52,2.52,0,0,1-1.05,1.07,3.1,3.1,0,0,1-1.5.38,2.78,2.78,0,0,1-2.11-.84A3.33,3.33,0,0,1,206.4,153.13Zm1.08,0a2.69,2.69,0,0,0,.52,1.79,1.75,1.75,0,0,0,2.62,0,2.72,2.72,0,0,0,.53-1.83,2.58,2.58,0,0,0-.53-1.75,1.68,1.68,0,0,0-1.3-.59,1.7,1.7,0,0,0-1.32.59A2.69,2.69,0,0,0,207.48,153.13Z"/><path class="cls-5" d="M213.45,156.24V150h1V151a2.74,2.74,0,0,1,.67-.87,1.19,1.19,0,0,1,.68-.21,2,2,0,0,1,1.08.34l-.36,1a1.43,1.43,0,0,0-.77-.23,1,1,0,0,0-.62.2,1.15,1.15,0,0,0-.4.58,4.4,4.4,0,0,0-.17,1.23v3.26Z"/><path class="cls-5" d="M219.45,158.65l.2-.89a2.39,2.39,0,0,0,.5.08.55.55,0,0,0,.48-.21,2.15,2.15,0,0,0,.16-1.07V150h1.05v6.56a3.08,3.08,0,0,1-.29,1.6,1.41,1.41,0,0,1-1.27.59A2.92,2.92,0,0,1,219.45,158.65Zm1.34-9.78v-1.22h1.05v1.22Z"/><path class="cls-5" d="M223.07,153.13a3.2,3.2,0,0,1,1-2.56,2.91,2.91,0,0,1,2-.69,2.78,2.78,0,0,1,2.09.84,3.16,3.16,0,0,1,.82,2.32,4.13,4.13,0,0,1-.36,1.89,2.52,2.52,0,0,1-1,1.07,3.1,3.1,0,0,1-1.5.38,2.78,2.78,0,0,1-2.11-.84A3.33,3.33,0,0,1,223.07,153.13Zm1.08,0a2.69,2.69,0,0,0,.52,1.79,1.75,1.75,0,0,0,2.62,0,2.72,2.72,0,0,0,.53-1.83,2.58,2.58,0,0,0-.53-1.75,1.68,1.68,0,0,0-1.3-.59,1.7,1.7,0,0,0-1.32.59A2.69,2.69,0,0,0,224.15,153.13Z"/><path class="cls-5" d="M230.14,148.86v-1.21h1.06v1.21Zm0,7.38V150h1.06v6.22Z"/><path class="cls-5" d="M232.38,154.38l1-.16a1.44,1.44,0,0,0,.49,1,1.72,1.72,0,0,0,1.12.33,1.68,1.68,0,0,0,1.08-.29.87.87,0,0,0,.35-.7.63.63,0,0,0-.31-.56,4.89,4.89,0,0,0-1.07-.36,9.59,9.59,0,0,1-1.61-.5,1.54,1.54,0,0,1-.68-.6,1.51,1.51,0,0,1-.23-.83,1.57,1.57,0,0,1,.19-.77,1.71,1.71,0,0,1,.51-.59,2.41,2.41,0,0,1,.68-.31,3.28,3.28,0,0,1,.91-.12,3.62,3.62,0,0,1,1.28.21,1.77,1.77,0,0,1,.82.57,2.1,2.1,0,0,1,.36,1l-1,.14a1.11,1.11,0,0,0-.4-.75,1.52,1.52,0,0,0-1-.27,1.7,1.7,0,0,0-1,.24.7.7,0,0,0-.31.57.63.63,0,0,0,.12.37,1,1,0,0,0,.41.28q.15.06.93.27a12,12,0,0,1,1.56.49,1.54,1.54,0,0,1,.7.55,1.59,1.59,0,0,1,.25.9,1.78,1.78,0,0,1-.31,1,2,2,0,0,1-.89.72,3.19,3.19,0,0,1-1.31.25,3,3,0,0,1-1.85-.5A2.4,2.4,0,0,1,232.38,154.38Z"/><path class="cls-5" d="M241.1,155.3l.16.93a4.16,4.16,0,0,1-.8.09,1.82,1.82,0,0,1-.89-.18,1,1,0,0,1-.45-.48,4,4,0,0,1-.12-1.24v-3.58h-.78V150H239v-1.54l1-.64V150h1.06v.82H240v3.64a1.73,1.73,0,0,0,.06.58.49.49,0,0,0,.18.2.74.74,0,0,0,.36.08C240.76,155.34,240.91,155.32,241.1,155.3Z"/></g><g id="MTEXT-4" data-name="MTEXT"><path class="cls-5" d="M197.42,61.11h-1.06V54.39a5.9,5.9,0,0,1-1,.73,6.94,6.94,0,0,1-1.11.54v-1a6.28,6.28,0,0,0,1.55-1,4,4,0,0,0,.94-1.14h.68Z"/><path class="cls-5" d="M200,59.25l1-.16a1.44,1.44,0,0,0,.49,1,1.72,1.72,0,0,0,1.12.33,1.62,1.62,0,0,0,1.08-.29.87.87,0,0,0,.35-.7.64.64,0,0,0-.31-.56,4.84,4.84,0,0,0-1.08-.36,9.39,9.39,0,0,1-1.6-.5,1.58,1.58,0,0,1-.68-.59,1.55,1.55,0,0,1-.24-.84,1.69,1.69,0,0,1,.19-.77,1.73,1.73,0,0,1,.52-.59,2.47,2.47,0,0,1,.67-.31,3.41,3.41,0,0,1,.92-.12,3.62,3.62,0,0,1,1.28.21,1.77,1.77,0,0,1,.82.57,2.22,2.22,0,0,1,.36,1l-1,.14a1.12,1.12,0,0,0-.41-.75,1.47,1.47,0,0,0-.95-.27,1.74,1.74,0,0,0-1,.25.71.71,0,0,0-.31.56.64.64,0,0,0,.13.37,1,1,0,0,0,.41.28q.15.06.93.27a12.55,12.55,0,0,1,1.56.49,1.5,1.5,0,0,1,.95,1.45,1.84,1.84,0,0,1-.31,1A2,2,0,0,1,204,61a3.22,3.22,0,0,1-1.31.25,3,3,0,0,1-1.85-.5A2.4,2.4,0,0,1,200,59.25Z"/><path class="cls-5" d="M208.71,60.17l.16.93a4.16,4.16,0,0,1-.8.09,1.82,1.82,0,0,1-.89-.18,1,1,0,0,1-.45-.48,3.88,3.88,0,0,1-.13-1.24V55.71h-.77v-.82h.77V53.35l1.05-.64v2.18h1.06v.82h-1.06v3.64a1.73,1.73,0,0,0,.06.58.49.49,0,0,0,.18.2.69.69,0,0,0,.36.08A3,3,0,0,0,208.71,60.17Z"/><path class="cls-5" d="M212.66,59.25l1-.16a1.44,1.44,0,0,0,.49,1,1.72,1.72,0,0,0,1.12.33,1.66,1.66,0,0,0,1.08-.29.9.9,0,0,0,.35-.7.64.64,0,0,0-.31-.56,4.84,4.84,0,0,0-1.08-.36,9.92,9.92,0,0,1-1.61-.5,1.53,1.53,0,0,1-.91-1.43,1.69,1.69,0,0,1,.19-.77,1.73,1.73,0,0,1,.52-.59,2.47,2.47,0,0,1,.67-.31,3.39,3.39,0,0,1,.91-.12,3.63,3.63,0,0,1,1.29.21,1.77,1.77,0,0,1,.82.57,2.35,2.35,0,0,1,.36,1l-1,.14a1.12,1.12,0,0,0-.41-.75,1.47,1.47,0,0,0-1-.27,1.72,1.72,0,0,0-1,.25.71.71,0,0,0-.31.56.58.58,0,0,0,.13.37,1,1,0,0,0,.4.28l.94.27a13.15,13.15,0,0,1,1.56.49,1.57,1.57,0,0,1,.69.55,1.52,1.52,0,0,1,.25.9,1.83,1.83,0,0,1-.3,1,2,2,0,0,1-.89.72,3.26,3.26,0,0,1-1.31.25,3,3,0,0,1-1.85-.5A2.31,2.31,0,0,1,212.66,59.25Z"/><path class="cls-5" d="M221.38,60.17l.15.93a4,4,0,0,1-.79.09,1.79,1.79,0,0,1-.89-.18,1,1,0,0,1-.45-.48,3.6,3.6,0,0,1-.13-1.24V55.71h-.77v-.82h.77V53.35l1-.64v2.18h1.06v.82h-1.06v3.64a1.73,1.73,0,0,0,.06.58.38.38,0,0,0,.18.2.69.69,0,0,0,.36.08A3,3,0,0,0,221.38,60.17Z"/><path class="cls-5" d="M222,58a3.2,3.2,0,0,1,1-2.56,2.91,2.91,0,0,1,2-.69,2.82,2.82,0,0,1,2.1.84,3.2,3.2,0,0,1,.81,2.32,4.13,4.13,0,0,1-.36,1.89,2.52,2.52,0,0,1-1.05,1.07,3.1,3.1,0,0,1-1.5.38,2.78,2.78,0,0,1-2.11-.84A3.31,3.31,0,0,1,222,58Zm1.08,0a2.64,2.64,0,0,0,.53,1.79,1.74,1.74,0,0,0,2.61,0,2.72,2.72,0,0,0,.53-1.83,2.55,2.55,0,0,0-.53-1.74,1.73,1.73,0,0,0-2.61,0A2.64,2.64,0,0,0,223.1,58Z"/><path class="cls-5" d="M229.07,61.11V54.89h1v.94a2.74,2.74,0,0,1,.67-.87,1.21,1.21,0,0,1,.68-.21,2,2,0,0,1,1.09.34l-.37,1a1.43,1.43,0,0,0-.77-.23,1,1,0,0,0-.62.21,1.08,1.08,0,0,0-.4.57,4.4,4.4,0,0,0-.17,1.23v3.26Z"/><path class="cls-5" d="M237.34,59.11l1.09.13a2.64,2.64,0,0,1-1,1.48,3.24,3.24,0,0,1-3.95-.31,3.31,3.31,0,0,1-.8-2.36,3.46,3.46,0,0,1,.81-2.44,2.77,2.77,0,0,1,2.1-.86,2.66,2.66,0,0,1,2,.85,3.39,3.39,0,0,1,.79,2.39c0,.06,0,.15,0,.28h-4.64a2.38,2.38,0,0,0,.58,1.57,1.74,1.74,0,0,0,1.3.54,1.62,1.62,0,0,0,1-.3A2,2,0,0,0,237.34,59.11Zm-3.46-1.71h3.47a2.17,2.17,0,0,0-.39-1.18,1.65,1.65,0,0,0-1.31-.61,1.68,1.68,0,0,0-1.22.49A1.92,1.92,0,0,0,233.88,57.4Z"/><path class="cls-5" d="M239.71,63.51l-.12-1a2.43,2.43,0,0,0,.61.09,1.13,1.13,0,0,0,.56-.12.87.87,0,0,0,.34-.32,5,5,0,0,0,.33-.79l.09-.26-2.36-6.23h1.13l1.3,3.6q.25.69.45,1.44c.12-.48.27-1,.43-1.41l1.33-3.63h1.06l-2.37,6.33a12.28,12.28,0,0,1-.59,1.41,2.06,2.06,0,0,1-.64.76,1.51,1.51,0,0,1-.87.25A2.31,2.31,0,0,1,239.71,63.51Z"/><path class="cls-5" d="M194,74.11v-5.4h-.93v-.82H194v-.66a3.12,3.12,0,0,1,.11-.94,1.33,1.33,0,0,1,.54-.66,1.9,1.9,0,0,1,1.07-.26,5.25,5.25,0,0,1,1,.11l-.16.92a3.5,3.5,0,0,0-.62-.06.91.91,0,0,0-.68.21,1.05,1.05,0,0,0-.2.76v.58h1.21v.82H195v5.4Z"/><path class="cls-5" d="M197.05,74.11V65.52h1v8.59Z"/><path class="cls-5" d="M199.34,71a3.2,3.2,0,0,1,1-2.56,2.91,2.91,0,0,1,2-.69,2.79,2.79,0,0,1,2.1.84,3.2,3.2,0,0,1,.81,2.32,4.13,4.13,0,0,1-.36,1.89,2.52,2.52,0,0,1-1.05,1.07,3.07,3.07,0,0,1-1.5.38,2.79,2.79,0,0,1-2.11-.84A3.31,3.31,0,0,1,199.34,71Zm1.09,0a2.64,2.64,0,0,0,.52,1.79,1.75,1.75,0,0,0,2.62,0,2.72,2.72,0,0,0,.52-1.83,2.55,2.55,0,0,0-.52-1.74,1.74,1.74,0,0,0-2.62,0A2.64,2.64,0,0,0,200.43,71Z"/><path class="cls-5" d="M206,71a3.2,3.2,0,0,1,1-2.56,2.9,2.9,0,0,1,2-.69,2.78,2.78,0,0,1,2.09.84,3.16,3.16,0,0,1,.82,2.32,4.13,4.13,0,0,1-.36,1.89,2.52,2.52,0,0,1-1.05,1.07,3.1,3.1,0,0,1-1.5.38,2.8,2.8,0,0,1-2.12-.84A3.35,3.35,0,0,1,206,71Zm1.08,0a2.69,2.69,0,0,0,.52,1.79,1.67,1.67,0,0,0,1.32.59,1.64,1.64,0,0,0,1.3-.59,2.72,2.72,0,0,0,.52-1.83,2.55,2.55,0,0,0-.52-1.74,1.65,1.65,0,0,0-1.3-.6,1.7,1.7,0,0,0-1.32.59A2.69,2.69,0,0,0,207.1,71Z"/><path class="cls-5" d="M213.07,74.11V67.89h1v.94a2.6,2.6,0,0,1,.67-.87,1.19,1.19,0,0,1,.68-.21,2,2,0,0,1,1.08.34l-.36,1a1.46,1.46,0,0,0-.77-.23,1,1,0,0,0-.62.21,1.08,1.08,0,0,0-.4.57,4.4,4.4,0,0,0-.17,1.23v3.26Z"/><path class="cls-5" d="M220.41,76.5V67.89h1v.81a2.21,2.21,0,0,1,.76-.71,2.1,2.1,0,0,1,1-.24,2.43,2.43,0,0,1,1.41.41,2.56,2.56,0,0,1,.92,1.16,4.3,4.3,0,0,1,.31,1.63,4.13,4.13,0,0,1-.35,1.72,2.6,2.6,0,0,1-2.37,1.58,2,2,0,0,1-.94-.22,2.26,2.26,0,0,1-.69-.56v3Zm1-5.47a2.67,2.67,0,0,0,.49,1.78,1.48,1.48,0,0,0,1.17.57,1.53,1.53,0,0,0,1.21-.59,2.85,2.85,0,0,0,.5-1.84,2.7,2.7,0,0,0-.49-1.78,1.48,1.48,0,0,0-1.17-.6,1.51,1.51,0,0,0-1.19.63A2.79,2.79,0,0,0,221.37,71Z"/><path class="cls-5" d="M227.06,74.11V65.52h1.06v8.59Z"/><path class="cls-5" d="M233.81,73.34a3.84,3.84,0,0,1-1.12.71,3.42,3.42,0,0,1-1.17.2,2.26,2.26,0,0,1-1.57-.5,1.64,1.64,0,0,1-.55-1.28,1.78,1.78,0,0,1,.2-.83,1.63,1.63,0,0,1,.55-.61,2.65,2.65,0,0,1,.76-.35,8.89,8.89,0,0,1,.94-.15,10.42,10.42,0,0,0,1.88-.37v-.27a1.16,1.16,0,0,0-.3-.91,1.76,1.76,0,0,0-1.2-.36,1.92,1.92,0,0,0-1.1.26,1.62,1.62,0,0,0-.52.92l-1-.14a2.63,2.63,0,0,1,.46-1.07A2,2,0,0,1,231,68a4.09,4.09,0,0,1,1.41-.22,3.61,3.61,0,0,1,1.3.19,1.48,1.48,0,0,1,1.06,1.18,5.59,5.59,0,0,1,0,1v1.4a15.8,15.8,0,0,0,.07,1.86,2.33,2.33,0,0,0,.27.75H234A2.4,2.4,0,0,1,233.81,73.34ZM233.73,71a8.26,8.26,0,0,1-1.73.4,3.82,3.82,0,0,0-.92.21.92.92,0,0,0-.41.34.92.92,0,0,0,.17,1.2,1.37,1.37,0,0,0,.94.29,2.16,2.16,0,0,0,1.08-.27,1.64,1.64,0,0,0,.7-.73,2.62,2.62,0,0,0,.17-1.06Z"/><path class="cls-5" d="M238.73,73.17l.15.93a4,4,0,0,1-.79.09,1.79,1.79,0,0,1-.89-.18,1,1,0,0,1-.45-.48,3.6,3.6,0,0,1-.13-1.24V68.71h-.77v-.82h.77V66.35l1-.64v2.18h1.06v.82h-1.06v3.64a1.73,1.73,0,0,0,.06.58.38.38,0,0,0,.18.2.69.69,0,0,0,.36.08A3,3,0,0,0,238.73,73.17Z"/><path class="cls-5" d="M244,72.11l1.09.13a2.64,2.64,0,0,1-1,1.48,3.24,3.24,0,0,1-3.95-.31,3.31,3.31,0,0,1-.8-2.36,3.46,3.46,0,0,1,.81-2.44,2.77,2.77,0,0,1,2.1-.86,2.66,2.66,0,0,1,2,.85,3.39,3.39,0,0,1,.79,2.39c0,.06,0,.15,0,.28H240.5a2.38,2.38,0,0,0,.58,1.57,1.74,1.74,0,0,0,1.3.54,1.62,1.62,0,0,0,1-.3A2,2,0,0,0,244,72.11Zm-3.46-1.71H244a2.09,2.09,0,0,0-.4-1.18,1.62,1.62,0,0,0-1.3-.61,1.68,1.68,0,0,0-1.22.49A1.92,1.92,0,0,0,240.56,70.4Z"/></g><g id="MTEXT-5" data-name="MTEXT"><path class="cls-5" d="M40.48,80.54l1.08-.1a2.33,2.33,0,0,0,.35,1.06,1.92,1.92,0,0,0,.86.67,3.3,3.3,0,0,0,1.32.25,3.12,3.12,0,0,0,1.15-.19A1.63,1.63,0,0,0,46,81.7a1.27,1.27,0,0,0,.25-.74,1.08,1.08,0,0,0-.24-.7,1.78,1.78,0,0,0-.77-.51,15,15,0,0,0-1.53-.42A8.53,8.53,0,0,1,42,78.8a2.44,2.44,0,0,1-.92-.8,2,2,0,0,1-.3-1.07,2.16,2.16,0,0,1,.37-1.22,2.34,2.34,0,0,1,1.08-.86,4.18,4.18,0,0,1,1.57-.29,4.25,4.25,0,0,1,1.69.31,2.35,2.35,0,0,1,1.12.9,2.63,2.63,0,0,1,.42,1.36L46,77.21A1.69,1.69,0,0,0,45.38,76a2.31,2.31,0,0,0-1.5-.42,2.39,2.39,0,0,0-1.5.38,1.11,1.11,0,0,0-.47.91,1,1,0,0,0,.33.76,4.38,4.38,0,0,0,1.72.61,12.36,12.36,0,0,1,1.9.55,2.49,2.49,0,0,1,1.1.88,2.11,2.11,0,0,1,.36,1.22,2.32,2.32,0,0,1-.39,1.29,2.59,2.59,0,0,1-1.13,1,4,4,0,0,1-1.65.33,4.92,4.92,0,0,1-2-.34,2.69,2.69,0,0,1-1.23-1A3,3,0,0,1,40.48,80.54Z"/><path class="cls-5" d="M51,82.35l.15.93a3.41,3.41,0,0,1-.79.1,1.79,1.79,0,0,1-.89-.18,1.09,1.09,0,0,1-.45-.48,4,4,0,0,1-.13-1.25V77.89h-.77v-.82h.77V75.53l1-.63v2.17H51v.82H50v3.64a1.69,1.69,0,0,0,.06.58.37.37,0,0,0,.18.21.7.7,0,0,0,.36.07A3,3,0,0,0,51,82.35Z"/><path class="cls-5" d="M56.33,81.29l1.09.14a2.68,2.68,0,0,1-1,1.48,2.89,2.89,0,0,1-1.78.53,2.85,2.85,0,0,1-2.17-.84,3.32,3.32,0,0,1-.8-2.36,3.44,3.44,0,0,1,.81-2.44,2.74,2.74,0,0,1,2.1-.87,2.69,2.69,0,0,1,2,.85,3.43,3.43,0,0,1,.79,2.39c0,.07,0,.16,0,.28H52.81A2.36,2.36,0,0,0,53.39,82a1.71,1.71,0,0,0,1.3.55,1.56,1.56,0,0,0,1-.31A1.93,1.93,0,0,0,56.33,81.29Zm-3.46-1.7h3.47A2,2,0,0,0,56,78.41a1.63,1.63,0,0,0-1.31-.61,1.66,1.66,0,0,0-1.22.49A1.92,1.92,0,0,0,52.87,79.59Z"/><path class="cls-5" d="M63,81.29l1.09.14a2.69,2.69,0,0,1-1,1.48,2.87,2.87,0,0,1-1.78.53,2.83,2.83,0,0,1-2.16-.84,3.28,3.28,0,0,1-.8-2.36,3.48,3.48,0,0,1,.8-2.44,2.74,2.74,0,0,1,2.1-.87,2.69,2.69,0,0,1,2,.85,3.38,3.38,0,0,1,.79,2.39v.28H59.49A2.31,2.31,0,0,0,60.07,82a1.69,1.69,0,0,0,1.3.55,1.6,1.6,0,0,0,1-.31A2,2,0,0,0,63,81.29Zm-3.47-1.7H63a2.11,2.11,0,0,0-.4-1.18,1.61,1.61,0,0,0-1.31-.61,1.66,1.66,0,0,0-1.22.49A1.92,1.92,0,0,0,59.54,79.59Z"/><path class="cls-5" d="M65.4,83.3V74.71h1V83.3Z"/><path class="cls-5" d="M71.4,83.3V74.71h1V83.3Z"/><path class="cls-5" d="M74.09,75.92V74.71h1.06v1.21Zm0,7.38V77.07h1.06V83.3Z"/><path class="cls-5" d="M76.75,83.3V77.07h1V78a2.23,2.23,0,0,1,2-1,2.71,2.71,0,0,1,1,.2,1.71,1.71,0,0,1,.7.53,2,2,0,0,1,.33.78,6,6,0,0,1,.06,1V83.3H80.75V79.51a2.87,2.87,0,0,0-.12-1A1,1,0,0,0,80.2,78a1.38,1.38,0,0,0-.74-.19,1.71,1.71,0,0,0-1.16.42,2.12,2.12,0,0,0-.49,1.63v3.4Z"/><path class="cls-5" d="M85.73,82.35l.15.93a3.49,3.49,0,0,1-.8.1,1.85,1.85,0,0,1-.89-.18,1,1,0,0,1-.44-.48,3.67,3.67,0,0,1-.13-1.25V77.89h-.77v-.82h.77V75.53l1-.63v2.17h1.06v.82H84.67v3.64a2.15,2.15,0,0,0,0,.58.43.43,0,0,0,.19.21.7.7,0,0,0,.36.07A3,3,0,0,0,85.73,82.35Z"/><path class="cls-5" d="M91,81.29l1.09.14a2.68,2.68,0,0,1-1,1.48,2.9,2.9,0,0,1-1.79.53,2.83,2.83,0,0,1-2.16-.84,3.32,3.32,0,0,1-.8-2.36,3.44,3.44,0,0,1,.81-2.44,2.74,2.74,0,0,1,2.1-.87,2.66,2.66,0,0,1,2,.85,3.38,3.38,0,0,1,.8,2.39c0,.07,0,.16,0,.28H87.5A2.36,2.36,0,0,0,88.08,82a1.71,1.71,0,0,0,1.3.55,1.56,1.56,0,0,0,1-.31A2,2,0,0,0,91,81.29Zm-3.46-1.7H91a2,2,0,0,0-.4-1.18,1.59,1.59,0,0,0-1.3-.61,1.64,1.64,0,0,0-1.22.49A1.88,1.88,0,0,0,87.56,79.59Z"/><path class="cls-5" d="M93.41,83.3V74.71h1.06V83.3Z"/><path class="cls-5" d="M95.31,83.44l2.49-8.88h.84l-2.48,8.88Z"/><path class="cls-5" d="M41.71,96.3h-1V87.71h1.05v3.06a2.1,2.1,0,0,1,1.71-.84,2.73,2.73,0,0,1,1.09.23,2.26,2.26,0,0,1,.84.65,3.32,3.32,0,0,1,.52,1,4.38,4.38,0,0,1,.19,1.27,3.53,3.53,0,0,1-.8,2.47,2.44,2.44,0,0,1-1.89.88,2,2,0,0,1-1.73-.92Zm0-3.16a3.25,3.25,0,0,0,.3,1.61,1.5,1.5,0,0,0,2.54.22,2.71,2.71,0,0,0,.51-1.79,2.74,2.74,0,0,0-.49-1.8,1.45,1.45,0,0,0-1.16-.58,1.52,1.52,0,0,0-1.2.6A2.62,2.62,0,0,0,41.7,93.14Z"/><path class="cls-5" d="M51.67,94.29l1.09.14a2.64,2.64,0,0,1-1,1.48,3.22,3.22,0,0,1-3.94-.31,3.28,3.28,0,0,1-.8-2.36,3.44,3.44,0,0,1,.81-2.44A2.72,2.72,0,0,1,50,89.93a2.66,2.66,0,0,1,2,.85,3.38,3.38,0,0,1,.79,2.39v.28H48.15A2.36,2.36,0,0,0,48.73,95a1.71,1.71,0,0,0,1.3.55,1.56,1.56,0,0,0,1-.31A2,2,0,0,0,51.67,94.29Zm-3.46-1.7h3.47a2.11,2.11,0,0,0-.4-1.18A1.59,1.59,0,0,0,50,90.8a1.67,1.67,0,0,0-1.23.49A1.87,1.87,0,0,0,48.21,92.59Z"/><path class="cls-5" d="M58.14,95.53a4,4,0,0,1-1.12.7,3.24,3.24,0,0,1-1.17.21,2.26,2.26,0,0,1-1.57-.5,1.67,1.67,0,0,1-.55-1.28,1.68,1.68,0,0,1,.2-.84,1.79,1.79,0,0,1,.55-.61,2.63,2.63,0,0,1,.76-.34,6.36,6.36,0,0,1,.93-.16,9.73,9.73,0,0,0,1.89-.36v-.28a1.17,1.17,0,0,0-.3-.91,1.76,1.76,0,0,0-1.2-.35,1.84,1.84,0,0,0-1.1.26,1.59,1.59,0,0,0-.52.92l-1-.14a2.57,2.57,0,0,1,.46-1.07,2.07,2.07,0,0,1,.93-.63,4.35,4.35,0,0,1,1.41-.22,3.61,3.61,0,0,1,1.3.19,1.68,1.68,0,0,1,.73.47,1.6,1.6,0,0,1,.33.72,6.67,6.67,0,0,1,0,1v1.41a13.75,13.75,0,0,0,.07,1.86,2.12,2.12,0,0,0,.27.75H58.35A2.48,2.48,0,0,1,58.14,95.53Zm-.08-2.36a7.67,7.67,0,0,1-1.73.4,3.82,3.82,0,0,0-.92.21.87.87,0,0,0-.41.34.92.92,0,0,0-.15.51.91.91,0,0,0,.32.7,1.34,1.34,0,0,0,.93.28,2.18,2.18,0,0,0,1.09-.27,1.65,1.65,0,0,0,.7-.73,2.57,2.57,0,0,0,.17-1Z"/><path class="cls-5" d="M60.75,96.3V90.07h.94v1a2.56,2.56,0,0,1,.68-.88,1.16,1.16,0,0,1,.67-.21,2.13,2.13,0,0,1,1.09.34l-.37,1A1.52,1.52,0,0,0,63,91a1,1,0,0,0-.62.21,1,1,0,0,0-.39.58A4,4,0,0,0,61.8,93V96.3Z"/><path class="cls-5" d="M69,94.29l1.09.14a2.68,2.68,0,0,1-.95,1.48,2.89,2.89,0,0,1-1.78.53,2.85,2.85,0,0,1-2.17-.84,3.32,3.32,0,0,1-.8-2.36,3.44,3.44,0,0,1,.81-2.44,2.74,2.74,0,0,1,2.1-.87,2.69,2.69,0,0,1,2,.85,3.43,3.43,0,0,1,.79,2.39c0,.07,0,.16,0,.28H65.49A2.36,2.36,0,0,0,66.07,95a1.71,1.71,0,0,0,1.3.55,1.56,1.56,0,0,0,1-.31A1.93,1.93,0,0,0,69,94.29Zm-3.46-1.7H69a2.11,2.11,0,0,0-.39-1.18,1.63,1.63,0,0,0-1.31-.61,1.64,1.64,0,0,0-1.22.49A1.88,1.88,0,0,0,65.55,92.59Z"/><path class="cls-5" d="M71.42,96.3V90.07h.94v1a2.56,2.56,0,0,1,.68-.88,1.16,1.16,0,0,1,.67-.21,2.13,2.13,0,0,1,1.09.34l-.37,1a1.52,1.52,0,0,0-.77-.23,1,1,0,0,0-.62.21,1,1,0,0,0-.39.58A4,4,0,0,0,72.47,93V96.3Z"/></g><g id="MTEXT-6" data-name="MTEXT"><path class="cls-5" d="M34.53,117.45v-8.59h1.71l2,6.09.41,1.27c.09-.31.25-.77.45-1.38l2.06-6h1.53v8.59h-1.1v-7.19l-2.49,7.19h-1l-2.48-7.31v7.31Z"/><path class="cls-5" d="M48.11,117.45H47.05v-6.72a4.71,4.71,0,0,1-1,.73,6.94,6.94,0,0,1-1.11.54v-1a6.58,6.58,0,0,0,1.55-1,4,4,0,0,0,.94-1.15h.68Z"/><path class="cls-5" d="M50.81,113.22a7.77,7.77,0,0,1,.31-2.45,3.11,3.11,0,0,1,.93-1.44,2.71,2.71,0,0,1,2.77-.22,2.2,2.2,0,0,1,.86.8,4.29,4.29,0,0,1,.54,1.28,8.45,8.45,0,0,1,.19,2,7.79,7.79,0,0,1-.31,2.44,3,3,0,0,1-.93,1.43,2.61,2.61,0,0,1-3.51-.38A5.65,5.65,0,0,1,50.81,113.22Zm1.08,0a5.34,5.34,0,0,0,.5,2.81,1.41,1.41,0,0,0,2.44,0,8.17,8.17,0,0,0,0-5.63,1.46,1.46,0,0,0-1.23-.7,1.35,1.35,0,0,0-1.16.62A5.46,5.46,0,0,0,51.89,113.22Z"/><path class="cls-5" d="M65.17,116.69a4,4,0,0,1-1.13.7,3.18,3.18,0,0,1-1.16.2,2.25,2.25,0,0,1-1.58-.5A1.76,1.76,0,0,1,61,115a1.71,1.71,0,0,1,.55-.61,2.33,2.33,0,0,1,.75-.34,6.55,6.55,0,0,1,.94-.16,8.77,8.77,0,0,0,1.88-.37c0-.14,0-.23,0-.27a1.17,1.17,0,0,0-.3-.91,1.76,1.76,0,0,0-1.2-.36,1.9,1.9,0,0,0-1.1.26,1.6,1.6,0,0,0-.52.93l-1-.14a2.58,2.58,0,0,1,.47-1.07,2,2,0,0,1,.93-.63,4.09,4.09,0,0,1,1.41-.22,3.68,3.68,0,0,1,1.3.19,1.68,1.68,0,0,1,.73.47,1.84,1.84,0,0,1,.33.72,6.67,6.67,0,0,1,.05,1v1.41a13.75,13.75,0,0,0,.07,1.86,2.18,2.18,0,0,0,.26.74h-1.1A2.12,2.12,0,0,1,65.17,116.69Zm-.09-2.36a7.43,7.43,0,0,1-1.72.4,3.82,3.82,0,0,0-.92.21,1,1,0,0,0-.42.34,1,1,0,0,0-.14.5.88.88,0,0,0,.32.71,1.4,1.4,0,0,0,.93.28,2.18,2.18,0,0,0,1.09-.27,1.67,1.67,0,0,0,.69-.73,2.44,2.44,0,0,0,.17-1Z"/><path class="cls-5" d="M70.09,116.51l.15.93a4.15,4.15,0,0,1-.8.1,1.71,1.71,0,0,1-.89-.19,1,1,0,0,1-.44-.47,3.71,3.71,0,0,1-.13-1.25v-3.58H67.2v-.82H68v-1.54l1-.63v2.17h1.06v.82H69v3.64a1.83,1.83,0,0,0,0,.58.52.52,0,0,0,.18.21.74.74,0,0,0,.36.07A3.06,3.06,0,0,0,70.09,116.51Z"/><path class="cls-5" d="M74.32,115.47l1-.1a1.78,1.78,0,0,0,.49,1,1.35,1.35,0,0,0,.93.32,1.62,1.62,0,0,0,.86-.22,2,2,0,0,0,.6-.59,3.61,3.61,0,0,0,.39-1,5.07,5.07,0,0,0,.16-1.29,1.79,1.79,0,0,0,0-.21,2.42,2.42,0,0,1-.86.82,2.35,2.35,0,0,1-1.19.31,2.4,2.4,0,0,1-1.8-.77,2.86,2.86,0,0,1-.74-2,2.9,2.9,0,0,1,.77-2.1,2.54,2.54,0,0,1,1.93-.8,2.74,2.74,0,0,1,1.53.45,2.77,2.77,0,0,1,1.06,1.29,6.29,6.29,0,0,1,.36,2.41,7.85,7.85,0,0,1-.36,2.63,3.07,3.07,0,0,1-1.06,1.48,2.77,2.77,0,0,1-1.66.51,2.44,2.44,0,0,1-1.65-.56A2.4,2.4,0,0,1,74.32,115.47Zm4.32-3.79a2.06,2.06,0,0,0-.49-1.44A1.5,1.5,0,0,0,77,109.7a1.6,1.6,0,0,0-1.23.58,2.15,2.15,0,0,0-.52,1.48,1.85,1.85,0,0,0,.5,1.34,1.64,1.64,0,0,0,1.22.51,1.55,1.55,0,0,0,1.2-.51A2,2,0,0,0,78.64,111.68Z"/><path class="cls-5" d="M80.83,113.22a7.73,7.73,0,0,1,.32-2.45,3.11,3.11,0,0,1,.93-1.44,2.4,2.4,0,0,1,1.55-.5,2.53,2.53,0,0,1,1.22.28,2.34,2.34,0,0,1,.86.8,4.56,4.56,0,0,1,.53,1.28,8.45,8.45,0,0,1,.19,2,7.79,7.79,0,0,1-.31,2.44,2.94,2.94,0,0,1-.92,1.43,2.62,2.62,0,0,1-3.52-.38A5.71,5.71,0,0,1,80.83,113.22Zm1.09,0a5.36,5.36,0,0,0,.49,2.81,1.42,1.42,0,0,0,2.45,0,8.33,8.33,0,0,0,0-5.63,1.47,1.47,0,0,0-1.24-.7,1.36,1.36,0,0,0-1.16.62A5.48,5.48,0,0,0,81.92,113.22Z"/><path class="cls-5" d="M87.51,113.22a7.77,7.77,0,0,1,.31-2.45,3.11,3.11,0,0,1,.93-1.44,2.41,2.41,0,0,1,1.56-.5,2.49,2.49,0,0,1,1.21.28,2.2,2.2,0,0,1,.86.8,4.29,4.29,0,0,1,.54,1.28,9,9,0,0,1,.19,2,8.09,8.09,0,0,1-.31,2.44,3,3,0,0,1-.93,1.43,2.61,2.61,0,0,1-3.51-.38A5.65,5.65,0,0,1,87.51,113.22Zm1.08,0a5.34,5.34,0,0,0,.5,2.81,1.41,1.41,0,0,0,2.44,0,8.33,8.33,0,0,0,0-5.63,1.46,1.46,0,0,0-1.23-.7,1.34,1.34,0,0,0-1.16.62A5.36,5.36,0,0,0,88.59,113.22Z"/><path class="cls-5" d="M38.49,128.17l1,.14a2.69,2.69,0,0,1-.87,1.68,2.56,2.56,0,0,1-1.72.6,2.64,2.64,0,0,1-2-.83,3.37,3.37,0,0,1-.78-2.39,4.4,4.4,0,0,1,.33-1.77,2.4,2.4,0,0,1,1-1.13,3.06,3.06,0,0,1,1.49-.38,2.58,2.58,0,0,1,1.65.51,2.38,2.38,0,0,1,.83,1.46l-1,.16a1.82,1.82,0,0,0-.52-1A1.35,1.35,0,0,0,37,125a1.65,1.65,0,0,0-1.3.57,2.72,2.72,0,0,0-.5,1.81,2.81,2.81,0,0,0,.48,1.82,1.58,1.58,0,0,0,1.26.57,1.51,1.51,0,0,0,1-.38A1.94,1.94,0,0,0,38.49,128.17Z"/><path class="cls-5" d="M44.69,128.45l1.09.13a2.67,2.67,0,0,1-1,1.49,2.89,2.89,0,0,1-1.78.52,2.85,2.85,0,0,1-2.17-.84,3.28,3.28,0,0,1-.8-2.35,3.44,3.44,0,0,1,.81-2.44,2.74,2.74,0,0,1,2.1-.87,2.66,2.66,0,0,1,2,.85,3.41,3.41,0,0,1,.79,2.39c0,.06,0,.16,0,.28H41.17a2.36,2.36,0,0,0,.58,1.57,1.71,1.71,0,0,0,1.3.55,1.56,1.56,0,0,0,1-.31A1.93,1.93,0,0,0,44.69,128.45Zm-3.46-1.71H44.7a2.1,2.1,0,0,0-.39-1.17A1.63,1.63,0,0,0,43,125a1.67,1.67,0,0,0-1.22.48A1.92,1.92,0,0,0,41.23,126.74Z"/><path class="cls-5" d="M47.11,130.45v-6.22h1v.89a2.21,2.21,0,0,1,2-1,2.66,2.66,0,0,1,1,.2,1.72,1.72,0,0,1,.71.53,2.1,2.1,0,0,1,.32.78,6,6,0,0,1,.06,1v3.82h-1v-3.78a3,3,0,0,0-.12-1,1,1,0,0,0-.44-.5,1.39,1.39,0,0,0-.74-.2,1.73,1.73,0,0,0-1.16.43,2.12,2.12,0,0,0-.49,1.63v3.39Z"/><path class="cls-5" d="M56.08,129.51l.16.93a4.25,4.25,0,0,1-.8.1,1.71,1.71,0,0,1-.89-.19,1.07,1.07,0,0,1-.45-.47,4,4,0,0,1-.13-1.25v-3.58H53.2v-.82H54v-1.54l1.05-.63v2.17h1.06v.82H55v3.64a1.73,1.73,0,0,0,.06.58.52.52,0,0,0,.18.21.7.7,0,0,0,.36.07A3,3,0,0,0,56.08,129.51Z"/><path class="cls-5" d="M57.1,130.45v-6.22h.95v.94a2.6,2.6,0,0,1,.67-.87,1.19,1.19,0,0,1,.68-.21,2,2,0,0,1,1.08.34l-.36,1a1.55,1.55,0,0,0-.77-.23,1,1,0,0,0-.62.21,1.11,1.11,0,0,0-.4.58,4.3,4.3,0,0,0-.17,1.23v3.25Z"/><path class="cls-5" d="M65.37,128.45l1.09.13a2.63,2.63,0,0,1-1,1.49,3.24,3.24,0,0,1-3.94-.32,3.28,3.28,0,0,1-.8-2.35,3.44,3.44,0,0,1,.81-2.44,2.74,2.74,0,0,1,2.1-.87,2.62,2.62,0,0,1,2,.85,3.37,3.37,0,0,1,.8,2.39c0,.06,0,.16,0,.28H61.85a2.36,2.36,0,0,0,.58,1.57,1.71,1.71,0,0,0,1.3.55,1.56,1.56,0,0,0,1-.31A2,2,0,0,0,65.37,128.45Zm-3.46-1.71h3.47a2.1,2.1,0,0,0-.4-1.17,1.59,1.59,0,0,0-1.3-.61,1.67,1.67,0,0,0-1.22.48A1.92,1.92,0,0,0,61.91,126.74Z"/><path class="cls-5" d="M67.36,128.6l1-.17a1.43,1.43,0,0,0,.48,1,1.69,1.69,0,0,0,1.13.34,1.61,1.61,0,0,0,1.07-.3.88.88,0,0,0,.36-.69.67.67,0,0,0-.31-.57,4.87,4.87,0,0,0-1.08-.35,10.37,10.37,0,0,1-1.61-.51,1.52,1.52,0,0,1-.68-.59,1.65,1.65,0,0,1,0-1.61,1.83,1.83,0,0,1,.52-.59,2,2,0,0,1,.67-.3,2.94,2.94,0,0,1,.91-.13,3.63,3.63,0,0,1,1.29.21,1.74,1.74,0,0,1,.81.57,2.21,2.21,0,0,1,.37,1l-1,.14a1.11,1.11,0,0,0-.4-.75,1.49,1.49,0,0,0-1-.27,1.73,1.73,0,0,0-1,.24.69.69,0,0,0-.31.56.56.56,0,0,0,.13.37.89.89,0,0,0,.4.28l.93.27a12,12,0,0,1,1.56.49,1.61,1.61,0,0,1,.7.55,1.57,1.57,0,0,1,.25.91,1.73,1.73,0,0,1-.31,1,2,2,0,0,1-.89.72,3.19,3.19,0,0,1-1.31.25,2.91,2.91,0,0,1-1.85-.5A2.37,2.37,0,0,1,67.36,128.6Z"/><path class="cls-5" d="M36.45,146A10.55,10.55,0,0,1,35,143.4a8.12,8.12,0,0,1-.15-5.73,11,11,0,0,1,1.63-2.95h.75a19,19,0,0,0-.93,1.74,9.6,9.6,0,0,0-.57,1.69,10.24,10.24,0,0,0-.25,2.2A10.65,10.65,0,0,0,37.2,146Z"/><path class="cls-5" d="M40.73,142.51l.15.93a4.06,4.06,0,0,1-.79.1,1.68,1.68,0,0,1-.89-.19,1.07,1.07,0,0,1-.45-.47,4,4,0,0,1-.13-1.25v-3.58h-.77v-.82h.77v-1.54l1.05-.63v2.17h1.06v.82H39.67v3.64a1.73,1.73,0,0,0,.06.58.4.4,0,0,0,.18.21.7.7,0,0,0,.36.07A3,3,0,0,0,40.73,142.51Z"/><path class="cls-5" d="M41.72,145.85l-.12-1a2.43,2.43,0,0,0,.6.09,1.24,1.24,0,0,0,.56-.11.93.93,0,0,0,.35-.33,5.3,5.3,0,0,0,.32-.79,2.54,2.54,0,0,1,.1-.25l-2.36-6.24H42.3l1.3,3.6c.16.46.32.94.45,1.45a13,13,0,0,1,.43-1.42l1.33-3.63h1.06l-2.37,6.33a12.28,12.28,0,0,1-.59,1.41,2.21,2.21,0,0,1-.65.77,1.52,1.52,0,0,1-.86.24A2,2,0,0,1,41.72,145.85Z"/><path class="cls-5" d="M47.76,145.84v-8.61h1V138a2.44,2.44,0,0,1,.77-.71,2.1,2.1,0,0,1,1-.24,2.43,2.43,0,0,1,2.32,1.57,4.38,4.38,0,0,1,0,3.36,2.57,2.57,0,0,1-2.37,1.57,2,2,0,0,1-.94-.22,2.13,2.13,0,0,1-.69-.56v3Zm1-5.46a2.71,2.71,0,0,0,.48,1.77,1.49,1.49,0,0,0,1.18.58,1.54,1.54,0,0,0,1.21-.6,2.83,2.83,0,0,0,.5-1.84,2.78,2.78,0,0,0-.49-1.78,1.47,1.47,0,0,0-1.17-.59,1.51,1.51,0,0,0-1.19.63A2.79,2.79,0,0,0,48.72,140.38Z"/><path class="cls-5" d="M54.44,136.08v-1.22H55.5v1.22Zm0,7.37v-6.22H55.5v6.22Z"/><path class="cls-5" d="M61.16,141.17l1,.14a2.69,2.69,0,0,1-.87,1.68,2.56,2.56,0,0,1-1.72.6,2.64,2.64,0,0,1-2-.83,3.37,3.37,0,0,1-.78-2.39,4.4,4.4,0,0,1,.33-1.77,2.4,2.4,0,0,1,1-1.13,3.06,3.06,0,0,1,1.49-.38,2.58,2.58,0,0,1,1.65.51,2.38,2.38,0,0,1,.83,1.46l-1,.16a1.82,1.82,0,0,0-.52-.95,1.35,1.35,0,0,0-.9-.31,1.65,1.65,0,0,0-1.3.57,2.72,2.72,0,0,0-.5,1.81,2.81,2.81,0,0,0,.48,1.82,1.58,1.58,0,0,0,1.26.57,1.51,1.51,0,0,0,1-.38A1.94,1.94,0,0,0,61.16,141.17Z"/><path class="cls-5" d="M67.16,142.69a4,4,0,0,1-1.12.7,3.23,3.23,0,0,1-1.17.2,2.21,2.21,0,0,1-1.57-.5,1.64,1.64,0,0,1-.55-1.28A1.67,1.67,0,0,1,63,141a1.71,1.71,0,0,1,.55-.61,2.39,2.39,0,0,1,.76-.34,6.36,6.36,0,0,1,.93-.16,8.89,8.89,0,0,0,1.89-.37v-.27a1.17,1.17,0,0,0-.3-.91,1.76,1.76,0,0,0-1.2-.36,1.9,1.9,0,0,0-1.1.26,1.66,1.66,0,0,0-.52.93l-1-.14a2.45,2.45,0,0,1,.46-1.07,2.07,2.07,0,0,1,.93-.63,4.09,4.09,0,0,1,1.41-.22,3.64,3.64,0,0,1,1.3.19,1.68,1.68,0,0,1,.73.47,1.6,1.6,0,0,1,.33.72,6.67,6.67,0,0,1,0,1v1.41a13.75,13.75,0,0,0,.07,1.86,2,2,0,0,0,.27.74H67.37A2.12,2.12,0,0,1,67.16,142.69Zm-.08-2.36a7.67,7.67,0,0,1-1.73.4,3.82,3.82,0,0,0-.92.21.87.87,0,0,0-.41.34.89.89,0,0,0-.15.5.91.91,0,0,0,.32.71,1.4,1.4,0,0,0,.93.28,2.18,2.18,0,0,0,1.09-.27,1.7,1.7,0,0,0,.7-.73,2.6,2.6,0,0,0,.17-1.05Z"/><path class="cls-5" d="M69.75,143.45v-8.59h1.06v8.59Z"/><path class="cls-5" d="M73.13,146h-.75a10.56,10.56,0,0,0,1.75-5.63,9.56,9.56,0,0,0-.25-2.19,8.72,8.72,0,0,0-.56-1.68,19.37,19.37,0,0,0-.94-1.76h.75a11,11,0,0,1,1.63,2.95,8.12,8.12,0,0,1-.15,5.73A10.89,10.89,0,0,1,73.13,146Z"/></g><g id="MTEXT-7" data-name="MTEXT"><path class="cls-5" d="M467.77,115.34h-1v-6.73a5.29,5.29,0,0,1-1,.73,7.08,7.08,0,0,1-1.11.55v-1a6.8,6.8,0,0,0,1.55-1,4,4,0,0,0,.93-1.15h.68Z"/><path class="cls-5" d="M470.34,113.48l1.05-.17a1.49,1.49,0,0,0,.49,1,1.7,1.7,0,0,0,1.12.33,1.66,1.66,0,0,0,1.08-.3.89.89,0,0,0,.35-.69.62.62,0,0,0-.31-.56,4.24,4.24,0,0,0-1.08-.36,10.76,10.76,0,0,1-1.61-.51,1.58,1.58,0,0,1-.68-.59,1.65,1.65,0,0,1,0-1.61,1.7,1.7,0,0,1,.52-.58,1.9,1.9,0,0,1,.67-.31,3,3,0,0,1,.91-.13,3.63,3.63,0,0,1,1.29.21,1.77,1.77,0,0,1,.82.57,2.4,2.4,0,0,1,.36,1l-1,.14a1.16,1.16,0,0,0-.41-.75,1.47,1.47,0,0,0-.95-.27,1.73,1.73,0,0,0-1,.24.69.69,0,0,0-.31.56.56.56,0,0,0,.13.37.89.89,0,0,0,.4.28l.93.27a12.86,12.86,0,0,1,1.57.49,1.59,1.59,0,0,1,.69.56,1.52,1.52,0,0,1,.25.9,1.79,1.79,0,0,1-.3,1,2.06,2.06,0,0,1-.89.72,3.27,3.27,0,0,1-1.32.26,2.88,2.88,0,0,1-1.84-.51A2.31,2.31,0,0,1,470.34,113.48Z"/><path class="cls-5" d="M479.07,114.39l.15.93a3.49,3.49,0,0,1-.8.1,1.85,1.85,0,0,1-.89-.18,1,1,0,0,1-.44-.48,3.67,3.67,0,0,1-.13-1.25v-3.58h-.77v-.82H477v-1.54l1.05-.63v2.17h1.06v.82H478v3.64a2.15,2.15,0,0,0,.05.58.43.43,0,0,0,.19.21.7.7,0,0,0,.36.07A3,3,0,0,0,479.07,114.39Z"/><path class="cls-5" d="M483,113.48l1.05-.17a1.48,1.48,0,0,0,.48,1,1.75,1.75,0,0,0,1.13.33,1.66,1.66,0,0,0,1.08-.3.89.89,0,0,0,.35-.69.64.64,0,0,0-.31-.56,4.24,4.24,0,0,0-1.08-.36,10.37,10.37,0,0,1-1.61-.51,1.52,1.52,0,0,1-.68-.59,1.65,1.65,0,0,1,0-1.61,1.7,1.7,0,0,1,.52-.58,1.9,1.9,0,0,1,.67-.31,3,3,0,0,1,.91-.13,3.63,3.63,0,0,1,1.29.21,1.74,1.74,0,0,1,.81.57,2.26,2.26,0,0,1,.37,1l-1,.14a1.16,1.16,0,0,0-.41-.75,1.49,1.49,0,0,0-.95-.27,1.73,1.73,0,0,0-1,.24.69.69,0,0,0-.31.56.56.56,0,0,0,.13.37.89.89,0,0,0,.4.28l.93.27a12,12,0,0,1,1.56.49,1.56,1.56,0,0,1,.7.56,1.52,1.52,0,0,1,.25.9,1.73,1.73,0,0,1-.31,1,2,2,0,0,1-.88.72,3.27,3.27,0,0,1-1.32.26,2.91,2.91,0,0,1-1.85-.51A2.35,2.35,0,0,1,483,113.48Z"/><path class="cls-5" d="M491.74,114.39l.15.93a3.49,3.49,0,0,1-.8.1,1.82,1.82,0,0,1-.89-.18,1,1,0,0,1-.44-.48,3.67,3.67,0,0,1-.13-1.25v-3.58h-.78v-.82h.78v-1.54l1.05-.63v2.17h1.06v.82h-1.06v3.64a2.15,2.15,0,0,0,.05.58.46.46,0,0,0,.18.21.74.74,0,0,0,.36.07A3.06,3.06,0,0,0,491.74,114.39Z"/><path class="cls-5" d="M492.38,112.22a3.22,3.22,0,0,1,1-2.56,2.87,2.87,0,0,1,2-.69,2.79,2.79,0,0,1,2.1.84,3.23,3.23,0,0,1,.82,2.33,4.13,4.13,0,0,1-.36,1.89,2.58,2.58,0,0,1-1.05,1.07,3.11,3.11,0,0,1-1.51.38,2.79,2.79,0,0,1-2.11-.84A3.34,3.34,0,0,1,492.38,112.22Zm1.08,0A2.62,2.62,0,0,0,494,114a1.73,1.73,0,0,0,2.62,0,2.69,2.69,0,0,0,.52-1.82,2.58,2.58,0,0,0-.52-1.75,1.75,1.75,0,0,0-2.62,0A2.61,2.61,0,0,0,493.46,112.22Z"/><path class="cls-5" d="M499.43,115.34v-6.23h.95v1a2.56,2.56,0,0,1,.67-.88,1.19,1.19,0,0,1,.68-.21,2.13,2.13,0,0,1,1.08.34l-.36,1a1.56,1.56,0,0,0-.78-.23,1,1,0,0,0-.62.21,1.15,1.15,0,0,0-.39.58,4,4,0,0,0-.17,1.23v3.26Z"/><path class="cls-5" d="M507.7,113.33l1.09.14a2.64,2.64,0,0,1-1,1.48,2.87,2.87,0,0,1-1.78.53,2.83,2.83,0,0,1-2.16-.84,3.28,3.28,0,0,1-.8-2.36,3.44,3.44,0,0,1,.81-2.44,2.91,2.91,0,0,1,4.13,0,3.38,3.38,0,0,1,.79,2.39v.28h-4.64a2.36,2.36,0,0,0,.58,1.57,1.69,1.69,0,0,0,1.3.55,1.6,1.6,0,0,0,1-.31A2,2,0,0,0,507.7,113.33Zm-3.46-1.7h3.47a2.11,2.11,0,0,0-.4-1.18,1.6,1.6,0,0,0-1.31-.61,1.66,1.66,0,0,0-1.22.49A1.87,1.87,0,0,0,504.24,111.63Z"/><path class="cls-5" d="M510.07,117.73l-.12-1a2.49,2.49,0,0,0,.6.1,1.11,1.11,0,0,0,.56-.12,1,1,0,0,0,.35-.33,5.51,5.51,0,0,0,.32-.78,2.51,2.51,0,0,1,.1-.26l-2.37-6.24h1.14l1.3,3.61q.24.68.45,1.44a13,13,0,0,1,.43-1.42l1.33-3.63h1.06l-2.37,6.33a13.43,13.43,0,0,1-.59,1.41,2.12,2.12,0,0,1-.65.77,1.52,1.52,0,0,1-.86.24A2,2,0,0,1,510.07,117.73Z"/><path class="cls-5" d="M464.34,128.34v-5.41h-.93v-.82h.93v-.66a2.67,2.67,0,0,1,.12-.93,1.39,1.39,0,0,1,.53-.67,2,2,0,0,1,1.08-.25,5.17,5.17,0,0,1,1,.1l-.16.92a4.56,4.56,0,0,0-.62-.05.92.92,0,0,0-.68.2,1.13,1.13,0,0,0-.2.77v.57h1.22v.82h-1.22v5.41Z"/><path class="cls-5" d="M467.4,128.34v-8.59h1.06v8.59Z"/><path class="cls-5" d="M469.7,125.22a3.22,3.22,0,0,1,1-2.56,2.91,2.91,0,0,1,2-.69,2.82,2.82,0,0,1,2.1.84,3.22,3.22,0,0,1,.81,2.33,4.13,4.13,0,0,1-.36,1.89,2.58,2.58,0,0,1-1.05,1.07,3.1,3.1,0,0,1-1.5.38,2.78,2.78,0,0,1-2.11-.84A3.34,3.34,0,0,1,469.7,125.22Zm1.08,0a2.62,2.62,0,0,0,.53,1.79,1.72,1.72,0,0,0,2.61,0,2.69,2.69,0,0,0,.53-1.82,2.58,2.58,0,0,0-.53-1.75,1.74,1.74,0,0,0-2.61,0A2.61,2.61,0,0,0,470.78,125.22Z"/><path class="cls-5" d="M476.37,125.22a3.22,3.22,0,0,1,1-2.56,2.91,2.91,0,0,1,2-.69,2.79,2.79,0,0,1,2.1.84,3.22,3.22,0,0,1,.81,2.33,4.13,4.13,0,0,1-.36,1.89,2.58,2.58,0,0,1-1,1.07,3.07,3.07,0,0,1-1.5.38,2.79,2.79,0,0,1-2.11-.84A3.34,3.34,0,0,1,476.37,125.22Zm1.09,0A2.62,2.62,0,0,0,478,127a1.73,1.73,0,0,0,2.62,0,2.69,2.69,0,0,0,.52-1.82,2.58,2.58,0,0,0-.52-1.75,1.75,1.75,0,0,0-2.62,0A2.61,2.61,0,0,0,477.46,125.22Z"/><path class="cls-5" d="M483.43,128.34v-6.23h.95v1a2.44,2.44,0,0,1,.67-.88,1.16,1.16,0,0,1,.68-.21,2.13,2.13,0,0,1,1.08.34l-.36,1a1.56,1.56,0,0,0-.78-.23,1,1,0,0,0-.62.21,1.15,1.15,0,0,0-.39.58,4,4,0,0,0-.18,1.23v3.26Z"/><path class="cls-5" d="M489.43,130.75l.2-.9a1.89,1.89,0,0,0,.5.09.58.58,0,0,0,.48-.22,2.29,2.29,0,0,0,.15-1.07v-6.54h1.06v6.57a3.11,3.11,0,0,1-.3,1.6,1.4,1.4,0,0,1-1.27.58A3.18,3.18,0,0,1,489.43,130.75Zm1.33-9.78v-1.22h1.06V121Z"/><path class="cls-5" d="M493,125.22a3.22,3.22,0,0,1,1-2.56,2.91,2.91,0,0,1,2-.69,2.79,2.79,0,0,1,2.1.84,3.22,3.22,0,0,1,.81,2.33,4.13,4.13,0,0,1-.36,1.89,2.58,2.58,0,0,1-1.05,1.07,3.07,3.07,0,0,1-1.5.38,2.79,2.79,0,0,1-2.11-.84A3.34,3.34,0,0,1,493,125.22Zm1.09,0a2.62,2.62,0,0,0,.52,1.79,1.73,1.73,0,0,0,2.62,0,2.69,2.69,0,0,0,.52-1.82,2.58,2.58,0,0,0-.52-1.75,1.75,1.75,0,0,0-2.62,0A2.61,2.61,0,0,0,494.13,125.22Z"/><path class="cls-5" d="M500.12,121v-1.21h1.05V121Zm0,7.38v-6.23h1.05v6.23Z"/><path class="cls-5" d="M502.35,126.48l1-.17a1.49,1.49,0,0,0,.49,1,1.7,1.7,0,0,0,1.12.33,1.66,1.66,0,0,0,1.08-.3.89.89,0,0,0,.35-.69.64.64,0,0,0-.31-.56,4.24,4.24,0,0,0-1.08-.36,10.76,10.76,0,0,1-1.61-.51,1.58,1.58,0,0,1-.68-.59,1.65,1.65,0,0,1,0-1.61,1.7,1.7,0,0,1,.52-.58,1.9,1.9,0,0,1,.67-.31,3,3,0,0,1,.91-.13,3.63,3.63,0,0,1,1.29.21,1.69,1.69,0,0,1,.81.57,2.26,2.26,0,0,1,.37,1l-1,.14a1.16,1.16,0,0,0-.41-.75,1.47,1.47,0,0,0-1-.27,1.73,1.73,0,0,0-1,.24.69.69,0,0,0-.31.56.56.56,0,0,0,.13.37.89.89,0,0,0,.4.28l.93.27a12.86,12.86,0,0,1,1.57.49,1.59,1.59,0,0,1,.69.56,1.52,1.52,0,0,1,.25.9,1.73,1.73,0,0,1-.31,1,2,2,0,0,1-.88.72,3.27,3.27,0,0,1-1.32.26,2.88,2.88,0,0,1-1.84-.51A2.31,2.31,0,0,1,502.35,126.48Z"/><path class="cls-5" d="M511.08,127.39l.15.93a3.49,3.49,0,0,1-.8.1,1.82,1.82,0,0,1-.89-.18,1,1,0,0,1-.44-.48,3.67,3.67,0,0,1-.13-1.25v-3.58h-.77v-.82H509v-1.54l1-.63v2.17h1.06v.82H510v3.64a2.15,2.15,0,0,0,.05.58.43.43,0,0,0,.19.21.7.7,0,0,0,.36.07A3,3,0,0,0,511.08,127.39Z"/></g><g id="MTEXT-8" data-name="MTEXT"><path class="cls-5" d="M466.77,34.42h-1V27.7a5.76,5.76,0,0,1-1,.72,6.29,6.29,0,0,1-1.11.55V28a6.48,6.48,0,0,0,1.55-1,3.85,3.85,0,0,0,.93-1.15h.68Z"/><path class="cls-5" d="M469.34,32.56l1.05-.16a1.49,1.49,0,0,0,.49,1,1.7,1.7,0,0,0,1.12.33,1.72,1.72,0,0,0,1.08-.29.9.9,0,0,0,.35-.7.63.63,0,0,0-.31-.56,5.28,5.28,0,0,0-1.08-.36,8.8,8.8,0,0,1-1.61-.51,1.58,1.58,0,0,1-.68-.59,1.6,1.6,0,0,1-.23-.83,1.54,1.54,0,0,1,.19-.77,1.65,1.65,0,0,1,.52-.59,2.09,2.09,0,0,1,.67-.31,3.33,3.33,0,0,1,.91-.13,3.63,3.63,0,0,1,1.29.22,1.77,1.77,0,0,1,.82.57,2.35,2.35,0,0,1,.36,1l-1,.14a1.16,1.16,0,0,0-.41-.75,1.47,1.47,0,0,0-.95-.27,1.73,1.73,0,0,0-1,.24.69.69,0,0,0-.31.56.56.56,0,0,0,.13.37.9.9,0,0,0,.4.29l.93.26a15,15,0,0,1,1.57.49,1.66,1.66,0,0,1,.69.56,1.52,1.52,0,0,1,.25.9,1.79,1.79,0,0,1-.3,1,2.06,2.06,0,0,1-.89.72,3.27,3.27,0,0,1-1.32.26,2.88,2.88,0,0,1-1.84-.51A2.31,2.31,0,0,1,469.34,32.56Z"/><path class="cls-5" d="M478.07,33.47l.15.94a4.08,4.08,0,0,1-.8.09,1.85,1.85,0,0,1-.89-.18,1,1,0,0,1-.44-.48A3.64,3.64,0,0,1,476,32.6V29h-.77V28.2H476V26.65L477,26V28.2h1.06V29H477v3.63a2.09,2.09,0,0,0,.05.58.43.43,0,0,0,.19.21.69.69,0,0,0,.36.08A3.31,3.31,0,0,0,478.07,33.47Z"/><path class="cls-5" d="M482,32.56l1.05-.16a1.48,1.48,0,0,0,.48,1,1.75,1.75,0,0,0,1.13.33,1.72,1.72,0,0,0,1.08-.29.9.9,0,0,0,.35-.7.65.65,0,0,0-.31-.56,5.28,5.28,0,0,0-1.08-.36,8.54,8.54,0,0,1-1.61-.51,1.52,1.52,0,0,1-.68-.59,1.6,1.6,0,0,1-.23-.83,1.54,1.54,0,0,1,.19-.77,1.65,1.65,0,0,1,.52-.59,2.09,2.09,0,0,1,.67-.31,3.33,3.33,0,0,1,.91-.13,3.63,3.63,0,0,1,1.29.22,1.74,1.74,0,0,1,.81.57,2.22,2.22,0,0,1,.37,1l-1,.14a1.16,1.16,0,0,0-.41-.75,1.49,1.49,0,0,0-.95-.27,1.73,1.73,0,0,0-1,.24.69.69,0,0,0-.31.56.56.56,0,0,0,.13.37.9.9,0,0,0,.4.29l.93.26a13.85,13.85,0,0,1,1.56.49,1.63,1.63,0,0,1,.7.56,1.52,1.52,0,0,1,.25.9,1.73,1.73,0,0,1-.31,1,2,2,0,0,1-.88.72,3.27,3.27,0,0,1-1.32.26,2.91,2.91,0,0,1-1.85-.51A2.35,2.35,0,0,1,482,32.56Z"/><path class="cls-5" d="M490.74,33.47l.15.94a4.08,4.08,0,0,1-.8.09,1.82,1.82,0,0,1-.89-.18,1,1,0,0,1-.44-.48,3.64,3.64,0,0,1-.13-1.24V29h-.78V28.2h.78V26.65l1.05-.63V28.2h1.06V29h-1.06v3.63a2.09,2.09,0,0,0,.05.58.46.46,0,0,0,.18.21.74.74,0,0,0,.36.08A3.28,3.28,0,0,0,490.74,33.47Z"/><path class="cls-5" d="M491.38,31.31a3.19,3.19,0,0,1,1-2.56,2.88,2.88,0,0,1,2-.7,2.79,2.79,0,0,1,2.1.85,3.2,3.2,0,0,1,.82,2.32,4.13,4.13,0,0,1-.36,1.89,2.58,2.58,0,0,1-1.05,1.07,3.11,3.11,0,0,1-1.51.38,2.79,2.79,0,0,1-2.11-.84A3.33,3.33,0,0,1,491.38,31.31Zm1.08,0A2.66,2.66,0,0,0,493,33.1a1.7,1.7,0,0,0,1.31.59,1.66,1.66,0,0,0,1.31-.6,2.67,2.67,0,0,0,.52-1.82,2.58,2.58,0,0,0-.52-1.75,1.75,1.75,0,0,0-2.62,0A2.62,2.62,0,0,0,492.46,31.31Z"/><path class="cls-5" d="M498.43,34.42V28.2h.95v.94a2.6,2.6,0,0,1,.67-.87,1.2,1.2,0,0,1,.68-.22,2.13,2.13,0,0,1,1.08.34l-.36,1a1.56,1.56,0,0,0-.78-.23,1,1,0,0,0-.62.21,1.15,1.15,0,0,0-.39.58,4,4,0,0,0-.17,1.23v3.26Z"/><path class="cls-5" d="M506.7,32.41l1.09.14a2.61,2.61,0,0,1-1,1.48,2.87,2.87,0,0,1-1.78.53,2.83,2.83,0,0,1-2.16-.84,3.26,3.26,0,0,1-.8-2.36,3.44,3.44,0,0,1,.81-2.44,2.91,2.91,0,0,1,4.13,0,3.39,3.39,0,0,1,.79,2.4v.28h-4.64a2.4,2.4,0,0,0,.58,1.57,1.72,1.72,0,0,0,1.3.54,1.66,1.66,0,0,0,1-.3A2.08,2.08,0,0,0,506.7,32.41Zm-3.46-1.7h3.47a2.14,2.14,0,0,0-.4-1.18,1.63,1.63,0,0,0-1.31-.61,1.66,1.66,0,0,0-1.22.49A1.89,1.89,0,0,0,503.24,30.71Z"/><path class="cls-5" d="M509.07,36.81l-.12-1a2.08,2.08,0,0,0,.6.1,1.11,1.11,0,0,0,.56-.12,1,1,0,0,0,.35-.33,4.58,4.58,0,0,0,.32-.78,2.51,2.51,0,0,1,.1-.26l-2.37-6.23h1.14l1.3,3.6q.24.69.45,1.44a13.69,13.69,0,0,1,.43-1.42l1.33-3.62h1.06l-2.37,6.32a13.88,13.88,0,0,1-.59,1.42,2.17,2.17,0,0,1-.65.76,1.52,1.52,0,0,1-.86.24A2,2,0,0,1,509.07,36.81Z"/><path class="cls-5" d="M463.34,47.42V42h-.93V41.2h.93v-.67a2.71,2.71,0,0,1,.12-.93,1.36,1.36,0,0,1,.53-.66,2,2,0,0,1,1.08-.26,5.24,5.24,0,0,1,1,.11l-.16.92a3.42,3.42,0,0,0-.62-.06,1,1,0,0,0-.68.2,1.15,1.15,0,0,0-.2.77v.58h1.22V42h-1.22v5.4Z"/><path class="cls-5" d="M466.4,47.42V38.83h1.06v8.59Z"/><path class="cls-5" d="M468.7,44.31a3.19,3.19,0,0,1,1-2.56,2.92,2.92,0,0,1,2-.7,2.83,2.83,0,0,1,2.1.85,3.2,3.2,0,0,1,.81,2.32,4.13,4.13,0,0,1-.36,1.89,2.58,2.58,0,0,1-1.05,1.07,3.1,3.1,0,0,1-1.5.38,2.78,2.78,0,0,1-2.11-.84A3.33,3.33,0,0,1,468.7,44.31Zm1.08,0a2.66,2.66,0,0,0,.53,1.79,1.67,1.67,0,0,0,1.31.59,1.64,1.64,0,0,0,1.3-.6,2.67,2.67,0,0,0,.53-1.82,2.58,2.58,0,0,0-.53-1.75,1.74,1.74,0,0,0-2.61,0A2.62,2.62,0,0,0,469.78,44.31Z"/><path class="cls-5" d="M475.37,44.31a3.19,3.19,0,0,1,1-2.56,2.92,2.92,0,0,1,2-.7,2.79,2.79,0,0,1,2.1.85,3.2,3.2,0,0,1,.81,2.32,4.13,4.13,0,0,1-.36,1.89,2.58,2.58,0,0,1-1,1.07,3.07,3.07,0,0,1-1.5.38,2.79,2.79,0,0,1-2.11-.84A3.33,3.33,0,0,1,475.37,44.31Zm1.09,0A2.66,2.66,0,0,0,477,46.1a1.68,1.68,0,0,0,1.31.59,1.66,1.66,0,0,0,1.31-.6,2.67,2.67,0,0,0,.52-1.82,2.58,2.58,0,0,0-.52-1.75,1.75,1.75,0,0,0-2.62,0A2.62,2.62,0,0,0,476.46,44.31Z"/><path class="cls-5" d="M482.43,47.42V41.2h.95v.94a2.48,2.48,0,0,1,.67-.87,1.17,1.17,0,0,1,.68-.22,2.13,2.13,0,0,1,1.08.34l-.36,1a1.56,1.56,0,0,0-.78-.23,1,1,0,0,0-.62.21,1.15,1.15,0,0,0-.39.58,4,4,0,0,0-.18,1.23v3.26Z"/><path class="cls-5" d="M489.77,49.8V41.2h1V42a2.45,2.45,0,0,1,.77-.71,2.08,2.08,0,0,1,1-.24,2.46,2.46,0,0,1,2.32,1.57,4.2,4.2,0,0,1,.31,1.64,4.13,4.13,0,0,1-.34,1.72,2.63,2.63,0,0,1-2.37,1.58,2.11,2.11,0,0,1-.95-.22,2,2,0,0,1-.68-.57v3Zm1-5.46a2.76,2.76,0,0,0,.48,1.78,1.51,1.51,0,0,0,2.38,0,3.61,3.61,0,0,0,0-3.63,1.5,1.5,0,0,0-1.17-.59,1.54,1.54,0,0,0-1.2.63A2.85,2.85,0,0,0,490.73,44.34Z"/><path class="cls-5" d="M496.42,47.42V38.83h1.06v8.59Z"/><path class="cls-5" d="M503.17,46.65a3.83,3.83,0,0,1-1.13.7,3.19,3.19,0,0,1-1.16.21,2.3,2.3,0,0,1-1.58-.5,1.74,1.74,0,0,1,.21-2.72,2.35,2.35,0,0,1,.75-.35,8.38,8.38,0,0,1,.94-.16,9.59,9.59,0,0,0,1.88-.36c0-.15,0-.24,0-.28a1.13,1.13,0,0,0-.3-.9,1.76,1.76,0,0,0-1.2-.36,1.82,1.82,0,0,0-1.1.26,1.54,1.54,0,0,0-.52.92l-1-.14a2.58,2.58,0,0,1,.47-1.07,2,2,0,0,1,.93-.63,4.35,4.35,0,0,1,1.41-.22,3.93,3.93,0,0,1,1.3.19,1.77,1.77,0,0,1,.73.47,1.84,1.84,0,0,1,.33.72,6.77,6.77,0,0,1,0,1v1.41a13.75,13.75,0,0,0,.07,1.86,2.31,2.31,0,0,0,.26.75h-1.1A2.23,2.23,0,0,1,503.17,46.65Zm-.09-2.35a8.1,8.1,0,0,1-1.72.39,5.15,5.15,0,0,0-.92.21,1,1,0,0,0-.42.35.94.94,0,0,0-.14.5.88.88,0,0,0,.32.7,1.34,1.34,0,0,0,.93.28,2.28,2.28,0,0,0,1.09-.26,1.67,1.67,0,0,0,.69-.73,2.46,2.46,0,0,0,.17-1.06Z"/><path class="cls-5" d="M508.09,46.47l.15.94a4.08,4.08,0,0,1-.8.09,1.82,1.82,0,0,1-.89-.18,1,1,0,0,1-.44-.48A3.64,3.64,0,0,1,506,45.6V42h-.78V41.2H506V39.65l1-.63V41.2h1.06V42H507v3.63a1.75,1.75,0,0,0,.05.58.46.46,0,0,0,.18.21.74.74,0,0,0,.36.08A3.28,3.28,0,0,0,508.09,46.47Z"/><path class="cls-5" d="M513.38,45.41l1.09.14a2.61,2.61,0,0,1-1,1.48,2.87,2.87,0,0,1-1.78.53,2.83,2.83,0,0,1-2.16-.84,3.26,3.26,0,0,1-.8-2.36,3.44,3.44,0,0,1,.81-2.44,2.91,2.91,0,0,1,4.13,0,3.39,3.39,0,0,1,.79,2.4v.28h-4.64a2.4,2.4,0,0,0,.58,1.57,1.72,1.72,0,0,0,1.3.54,1.66,1.66,0,0,0,1-.3A2.08,2.08,0,0,0,513.38,45.41Zm-3.46-1.7h3.47a2.14,2.14,0,0,0-.4-1.18,1.63,1.63,0,0,0-1.31-.61,1.66,1.66,0,0,0-1.22.49A1.89,1.89,0,0,0,509.92,43.71Z"/></g><g id="MTEXT-9" data-name="MTEXT"><path class="cls-5" d="M306.88,127.38l1.07-.1a2.41,2.41,0,0,0,.35,1.06,2,2,0,0,0,.87.67,3.26,3.26,0,0,0,1.31.26,3.11,3.11,0,0,0,1.15-.2,1.56,1.56,0,0,0,.74-.53,1.17,1.17,0,0,0,.25-.73,1.11,1.11,0,0,0-.24-.71,1.72,1.72,0,0,0-.77-.51,15,15,0,0,0-1.53-.42,7.33,7.33,0,0,1-1.66-.53,2.43,2.43,0,0,1-.92-.8,2,2,0,0,1-.3-1.07,2.26,2.26,0,0,1,.37-1.22,2.32,2.32,0,0,1,1.08-.85,4,4,0,0,1,1.58-.3,4.23,4.23,0,0,1,1.68.31,2.41,2.41,0,0,1,1.12.9,2.64,2.64,0,0,1,.43,1.36l-1.09.08a1.77,1.77,0,0,0-.6-1.23,2.31,2.31,0,0,0-1.5-.42,2.41,2.41,0,0,0-1.5.38,1.15,1.15,0,0,0-.47.91,1,1,0,0,0,.33.76,4.5,4.5,0,0,0,1.72.62,12.67,12.67,0,0,1,1.9.54,2.73,2.73,0,0,1,1.11.88,2.18,2.18,0,0,1,.35,1.22,2.32,2.32,0,0,1-.39,1.29,2.59,2.59,0,0,1-1.13.95,4,4,0,0,1-1.65.33,5.11,5.11,0,0,1-2-.33,2.76,2.76,0,0,1-1.23-1A2.82,2.82,0,0,1,306.88,127.38Z"/><path class="cls-5" d="M317.43,129.2l.16.93a4.16,4.16,0,0,1-.8.09,1.82,1.82,0,0,1-.89-.18,1,1,0,0,1-.45-.48,3.93,3.93,0,0,1-.13-1.24v-3.58h-.77v-.82h.77v-1.55l1.05-.63v2.18h1.06v.82h-1.06v3.63a1.65,1.65,0,0,0,.06.58.46.46,0,0,0,.18.21.69.69,0,0,0,.36.08C317.09,129.24,317.24,129.22,317.43,129.2Z"/><path class="cls-5" d="M322.72,128.13l1.09.14a2.64,2.64,0,0,1-.95,1.48,3.24,3.24,0,0,1-3.95-.31,3.31,3.31,0,0,1-.8-2.36,3.44,3.44,0,0,1,.81-2.44,2.73,2.73,0,0,1,2.1-.86,2.68,2.68,0,0,1,2,.84,3.39,3.39,0,0,1,.79,2.4c0,.06,0,.15,0,.28H319.2a2.46,2.46,0,0,0,.58,1.57,1.74,1.74,0,0,0,1.3.54,1.62,1.62,0,0,0,1-.3A2,2,0,0,0,322.72,128.13Zm-3.46-1.7h3.48a2.14,2.14,0,0,0-.4-1.18,1.64,1.64,0,0,0-1.31-.61,1.66,1.66,0,0,0-1.22.49A1.94,1.94,0,0,0,319.26,126.43Z"/><path class="cls-5" d="M329.4,128.13l1.09.14a2.61,2.61,0,0,1-1,1.48,2.87,2.87,0,0,1-1.78.53,2.83,2.83,0,0,1-2.16-.84,3.26,3.26,0,0,1-.8-2.36,3.44,3.44,0,0,1,.81-2.44,2.69,2.69,0,0,1,2.09-.86,2.65,2.65,0,0,1,2,.84,3.39,3.39,0,0,1,.79,2.4v.28h-4.64a2.4,2.4,0,0,0,.58,1.57,1.72,1.72,0,0,0,1.3.54,1.66,1.66,0,0,0,1-.3A2.08,2.08,0,0,0,329.4,128.13Zm-3.46-1.7h3.47a2.14,2.14,0,0,0-.4-1.18,1.62,1.62,0,0,0-1.3-.61,1.67,1.67,0,0,0-1.23.49A1.89,1.89,0,0,0,325.94,126.43Z"/><path class="cls-5" d="M331.79,130.14v-8.59h1v8.59Z"/><path class="cls-5" d="M337.79,130.14v-8.59h1v8.59Z"/><path class="cls-5" d="M340.48,122.76v-1.21h1.06v1.21Zm0,7.38v-6.22h1.06v6.22Z"/><path class="cls-5" d="M343.14,130.14v-6.22h.95v.88a2.25,2.25,0,0,1,2-1,2.54,2.54,0,0,1,1,.2,1.55,1.55,0,0,1,.7.53,2,2,0,0,1,.33.78,5.77,5.77,0,0,1,.06,1v3.83h-1.05v-3.79a2.59,2.59,0,0,0-.13-1,1,1,0,0,0-.43-.51,1.38,1.38,0,0,0-.74-.19,1.67,1.67,0,0,0-1.16.43,2.08,2.08,0,0,0-.49,1.62v3.4Z"/><path class="cls-5" d="M352.12,129.2l.15.93a4,4,0,0,1-.79.09,1.79,1.79,0,0,1-.89-.18,1,1,0,0,1-.45-.48,3.64,3.64,0,0,1-.13-1.24v-3.58h-.77v-.82H350v-1.55l1.05-.63v2.18h1.06v.82h-1.06v3.63a1.65,1.65,0,0,0,.06.58.37.37,0,0,0,.18.21.69.69,0,0,0,.36.08C351.78,129.24,351.93,129.22,352.12,129.2Z"/><path class="cls-5" d="M357.41,128.13l1.09.14a2.64,2.64,0,0,1-.95,1.48,2.89,2.89,0,0,1-1.78.53,2.85,2.85,0,0,1-2.17-.84,3.31,3.31,0,0,1-.8-2.36,3.44,3.44,0,0,1,.81-2.44,2.73,2.73,0,0,1,2.1-.86,2.68,2.68,0,0,1,2,.84,3.44,3.44,0,0,1,.79,2.4c0,.06,0,.15,0,.28h-4.64a2.4,2.4,0,0,0,.58,1.57,1.74,1.74,0,0,0,1.3.54,1.62,1.62,0,0,0,1-.3A2,2,0,0,0,357.41,128.13Zm-3.46-1.7h3.47a2.14,2.14,0,0,0-.39-1.18,1.74,1.74,0,0,0-2.53-.12A1.9,1.9,0,0,0,354,126.43Z"/><path class="cls-5" d="M359.8,130.14v-8.59h1.06v8.59Z"/><path class="cls-5" d="M361.7,130.28l2.49-8.88H365l-2.49,8.88Z"/><path class="cls-5" d="M308.1,143.14h-1v-8.59h1.06v3.06a2.06,2.06,0,0,1,1.7-.83A2.54,2.54,0,0,1,311,137a2.17,2.17,0,0,1,.84.65,3,3,0,0,1,.52,1,4,4,0,0,1,.19,1.26,3.62,3.62,0,0,1-.79,2.48,2.48,2.48,0,0,1-1.9.87,2,2,0,0,1-1.73-.92Zm0-3.16a3.27,3.27,0,0,0,.3,1.62,1.52,1.52,0,0,0,1.35.81,1.53,1.53,0,0,0,1.2-.6,2.77,2.77,0,0,0,.5-1.79,2.81,2.81,0,0,0-.48-1.8,1.52,1.52,0,0,0-1.17-.58,1.53,1.53,0,0,0-1.2.6A2.67,2.67,0,0,0,308.09,140Z"/><path class="cls-5" d="M318.06,141.13l1.09.14a2.64,2.64,0,0,1-.95,1.48,2.9,2.9,0,0,1-1.79.53,2.83,2.83,0,0,1-2.16-.84,3.31,3.31,0,0,1-.8-2.36,3.44,3.44,0,0,1,.81-2.44,2.73,2.73,0,0,1,2.1-.86,2.65,2.65,0,0,1,2,.84,3.39,3.39,0,0,1,.8,2.4c0,.06,0,.15,0,.28h-4.64a2.4,2.4,0,0,0,.58,1.57,1.74,1.74,0,0,0,1.3.54,1.62,1.62,0,0,0,1-.3A2.08,2.08,0,0,0,318.06,141.13Zm-3.46-1.7h3.47a2.06,2.06,0,0,0-.4-1.18,1.62,1.62,0,0,0-1.3-.61,1.64,1.64,0,0,0-1.22.49A1.9,1.9,0,0,0,314.6,139.43Z"/><path class="cls-5" d="M324.54,142.37a4,4,0,0,1-1.13.7,3.2,3.2,0,0,1-1.17.21,2.28,2.28,0,0,1-1.57-.5,1.65,1.65,0,0,1-.55-1.28,1.69,1.69,0,0,1,.21-.84,1.65,1.65,0,0,1,.54-.6,2.4,2.4,0,0,1,.76-.35,8.38,8.38,0,0,1,.94-.16,9.75,9.75,0,0,0,1.88-.36v-.28a1.13,1.13,0,0,0-.3-.9,1.76,1.76,0,0,0-1.2-.36,1.92,1.92,0,0,0-1.1.26,1.59,1.59,0,0,0-.52.92l-1-.14a2.57,2.57,0,0,1,.46-1.07,2.13,2.13,0,0,1,.93-.63,4.38,4.38,0,0,1,1.42-.21,3.85,3.85,0,0,1,1.29.18,1.71,1.71,0,0,1,.73.47,1.6,1.6,0,0,1,.33.72,5.53,5.53,0,0,1,.05,1v1.41a15.8,15.8,0,0,0,.07,1.86,2.33,2.33,0,0,0,.27.75h-1.1A2.23,2.23,0,0,1,324.54,142.37Zm-.09-2.35a8.38,8.38,0,0,1-1.73.39,5.15,5.15,0,0,0-.92.21,1,1,0,0,0-.41.35.87.87,0,0,0-.15.5.91.91,0,0,0,.32.7,1.37,1.37,0,0,0,.94.28,2.27,2.27,0,0,0,1.08-.26,1.64,1.64,0,0,0,.7-.73,2.62,2.62,0,0,0,.17-1.06Z"/><path class="cls-5" d="M327.14,143.14v-6.22h.95v.94a2.48,2.48,0,0,1,.67-.87,1.16,1.16,0,0,1,.67-.21,2.12,2.12,0,0,1,1.09.33l-.37,1a1.49,1.49,0,0,0-.77-.23,1,1,0,0,0-.62.21,1.15,1.15,0,0,0-.39.58,4.06,4.06,0,0,0-.18,1.23v3.26Z"/><path class="cls-5" d="M335.4,141.13l1.09.14a2.64,2.64,0,0,1-.95,1.48,3.24,3.24,0,0,1-4-.31,3.31,3.31,0,0,1-.8-2.36,3.44,3.44,0,0,1,.81-2.44,2.73,2.73,0,0,1,2.1-.86,2.68,2.68,0,0,1,2,.84,3.39,3.39,0,0,1,.79,2.4c0,.06,0,.15,0,.28h-4.64a2.46,2.46,0,0,0,.58,1.57,1.74,1.74,0,0,0,1.3.54,1.62,1.62,0,0,0,1-.3A2,2,0,0,0,335.4,141.13Zm-3.46-1.7h3.48a2.14,2.14,0,0,0-.4-1.18,1.64,1.64,0,0,0-1.31-.61,1.66,1.66,0,0,0-1.22.49A1.94,1.94,0,0,0,331.94,139.43Z"/><path class="cls-5" d="M337.81,143.14v-6.22h.95v.94a2.48,2.48,0,0,1,.67-.87,1.16,1.16,0,0,1,.67-.21,2.12,2.12,0,0,1,1.09.33l-.37,1a1.49,1.49,0,0,0-.77-.23,1,1,0,0,0-.62.21,1.15,1.15,0,0,0-.39.58,4.06,4.06,0,0,0-.18,1.23v3.26Z"/></g><g id="MTEXT-10" data-name="MTEXT"><path class="cls-5" d="M304.93,75.9V67.31h1.71l2,6.08c.19.57.32,1,.41,1.27l.45-1.37,2.06-6h1.53V75.9H312V68.71l-2.5,7.19h-1L306,68.59V75.9Z"/><path class="cls-5" d="M318.51,75.9h-1.05V69.18a6.34,6.34,0,0,1-1,.73,7.87,7.87,0,0,1-1.11.54v-1a6,6,0,0,0,1.54-1,3.88,3.88,0,0,0,.94-1.14h.68Z"/><path class="cls-5" d="M321.21,71.66a8.17,8.17,0,0,1,.31-2.45,3,3,0,0,1,.94-1.43,2.35,2.35,0,0,1,1.55-.5,2.57,2.57,0,0,1,1.21.27,2.41,2.41,0,0,1,.87.81,4.49,4.49,0,0,1,.53,1.27,8.51,8.51,0,0,1,.19,2,7.86,7.86,0,0,1-.31,2.45,3.05,3.05,0,0,1-.93,1.43,2.61,2.61,0,0,1-3.51-.38A5.66,5.66,0,0,1,321.21,71.66Zm1.08,0a5.4,5.4,0,0,0,.5,2.82,1.41,1.41,0,0,0,2.44,0,5.4,5.4,0,0,0,.5-2.82,5.34,5.34,0,0,0-.5-2.81,1.46,1.46,0,0,0-1.23-.7,1.35,1.35,0,0,0-1.16.61A5.48,5.48,0,0,0,322.29,71.66Z"/><path class="cls-5" d="M335.57,75.13a3.75,3.75,0,0,1-1.13.71,3.36,3.36,0,0,1-1.16.2,2.26,2.26,0,0,1-1.57-.5,1.64,1.64,0,0,1-.56-1.28,1.68,1.68,0,0,1,.21-.83,1.63,1.63,0,0,1,.55-.61,2.53,2.53,0,0,1,.76-.35,8.61,8.61,0,0,1,.93-.15,10.06,10.06,0,0,0,1.88-.37c0-.14,0-.23,0-.27a1.16,1.16,0,0,0-.3-.91,1.76,1.76,0,0,0-1.2-.36,1.9,1.9,0,0,0-1.1.26,1.62,1.62,0,0,0-.52.92l-1-.14a2.5,2.5,0,0,1,.46-1.07,1.93,1.93,0,0,1,.93-.62,4.09,4.09,0,0,1,1.41-.22,3.64,3.64,0,0,1,1.3.19,1.68,1.68,0,0,1,.73.47,1.61,1.61,0,0,1,.33.71,6.84,6.84,0,0,1,.05,1v1.4a13.75,13.75,0,0,0,.07,1.86,2.31,2.31,0,0,0,.26.75h-1.1A2.17,2.17,0,0,1,335.57,75.13Zm-.09-2.35a8,8,0,0,1-1.72.4,3.82,3.82,0,0,0-.92.21.87.87,0,0,0-.41.34.92.92,0,0,0,.17,1.2,1.35,1.35,0,0,0,.93.29,2.18,2.18,0,0,0,1.09-.27,1.62,1.62,0,0,0,.69-.73,2.46,2.46,0,0,0,.17-1.06Z"/><path class="cls-5" d="M340.49,75l.15.93a4.08,4.08,0,0,1-.8.09,1.82,1.82,0,0,1-.89-.18,1,1,0,0,1-.44-.48,3.6,3.6,0,0,1-.13-1.24V70.5h-.77v-.82h.77V68.14l1.05-.64v2.18h1.06v.82h-1.06v3.64a2.2,2.2,0,0,0,.05.58.46.46,0,0,0,.19.2A.69.69,0,0,0,340,75,3,3,0,0,0,340.49,75Z"/><path class="cls-5" d="M344.72,73.91l1-.09a1.81,1.81,0,0,0,.49,1,1.41,1.41,0,0,0,.94.32A1.61,1.61,0,0,0,348,75a1.91,1.91,0,0,0,.6-.6,3.26,3.26,0,0,0,.39-1,5.07,5.07,0,0,0,.16-1.29,1.79,1.79,0,0,0,0-.21,2.42,2.42,0,0,1-.86.82,2.45,2.45,0,0,1-1.19.31,2.4,2.4,0,0,1-1.8-.77,2.86,2.86,0,0,1-.74-2,2.93,2.93,0,0,1,.77-2.11,2.57,2.57,0,0,1,1.93-.79,2.74,2.74,0,0,1,1.53.45A2.8,2.8,0,0,1,349.85,69a6.39,6.39,0,0,1,.36,2.42,7.75,7.75,0,0,1-.36,2.62,3.1,3.1,0,0,1-1.06,1.49,2.75,2.75,0,0,1-1.66.51,2.27,2.27,0,0,1-2.41-2.14ZM349,70.12a2,2,0,0,0-.49-1.44,1.53,1.53,0,0,0-1.16-.53,1.59,1.59,0,0,0-1.22.57,2.14,2.14,0,0,0-.53,1.49,1.83,1.83,0,0,0,.5,1.33,1.61,1.61,0,0,0,1.22.52,1.56,1.56,0,0,0,1.21-.52A2,2,0,0,0,349,70.12Z"/><path class="cls-5" d="M351.23,71.66a7.82,7.82,0,0,1,.32-2.45,3.08,3.08,0,0,1,.93-1.43,2.36,2.36,0,0,1,1.56-.5,2.6,2.6,0,0,1,1.21.27,2.38,2.38,0,0,1,.86.81,4.22,4.22,0,0,1,.53,1.27,8.43,8.43,0,0,1,.2,2,8.17,8.17,0,0,1-.31,2.45,3.13,3.13,0,0,1-.93,1.43,2.62,2.62,0,0,1-3.52-.38A5.73,5.73,0,0,1,351.23,71.66Zm1.09,0a5.43,5.43,0,0,0,.49,2.82,1.42,1.42,0,0,0,2.45,0,5.43,5.43,0,0,0,.49-2.82,5.36,5.36,0,0,0-.49-2.81,1.46,1.46,0,0,0-1.24-.7,1.35,1.35,0,0,0-1.16.61A5.5,5.5,0,0,0,352.32,71.66Z"/><path class="cls-5" d="M357.91,71.66a7.86,7.86,0,0,1,.31-2.45,3.08,3.08,0,0,1,.93-1.43,2.37,2.37,0,0,1,1.56-.5,2.6,2.6,0,0,1,1.21.27,2.3,2.3,0,0,1,.86.81,4.23,4.23,0,0,1,.54,1.27,8.51,8.51,0,0,1,.19,2,7.86,7.86,0,0,1-.31,2.45,3.13,3.13,0,0,1-.93,1.43,2.61,2.61,0,0,1-3.51-.38A5.66,5.66,0,0,1,357.91,71.66Zm1.08,0a5.4,5.4,0,0,0,.5,2.82,1.41,1.41,0,0,0,2.44,0,5.4,5.4,0,0,0,.5-2.82,5.34,5.34,0,0,0-.5-2.81,1.46,1.46,0,0,0-1.23-.7,1.34,1.34,0,0,0-1.16.61A5.39,5.39,0,0,0,359,71.66Z"/><path class="cls-5" d="M308.89,86.62l1,.14a2.69,2.69,0,0,1-.87,1.68,2.56,2.56,0,0,1-1.72.6,2.69,2.69,0,0,1-2-.83,3.4,3.4,0,0,1-.78-2.4,4.19,4.19,0,0,1,.34-1.76,2.33,2.33,0,0,1,1-1.13,3,3,0,0,1,1.49-.38,2.61,2.61,0,0,1,1.66.51,2.34,2.34,0,0,1,.82,1.46l-1,.15a1.72,1.72,0,0,0-.52-.94,1.35,1.35,0,0,0-.9-.31,1.66,1.66,0,0,0-1.3.57,2.71,2.71,0,0,0-.49,1.8,2.82,2.82,0,0,0,.48,1.83,1.54,1.54,0,0,0,1.25.56,1.47,1.47,0,0,0,1-.38A1.88,1.88,0,0,0,308.89,86.62Z"/><path class="cls-5" d="M315.09,86.9l1.09.13a2.64,2.64,0,0,1-.95,1.48,2.83,2.83,0,0,1-1.78.53,2.87,2.87,0,0,1-2.17-.84,3.31,3.31,0,0,1-.8-2.36,3.41,3.41,0,0,1,.81-2.43,2.74,2.74,0,0,1,2.1-.87,2.66,2.66,0,0,1,2,.85,3.35,3.35,0,0,1,.79,2.39c0,.06,0,.15,0,.28h-4.64a2.38,2.38,0,0,0,.58,1.57,1.74,1.74,0,0,0,1.3.54,1.62,1.62,0,0,0,1-.3A2,2,0,0,0,315.09,86.9Zm-3.46-1.71h3.48a2.17,2.17,0,0,0-.4-1.18,1.63,1.63,0,0,0-1.31-.6,1.69,1.69,0,0,0-1.22.48A2,2,0,0,0,311.63,85.19Z"/><path class="cls-5" d="M317.51,88.9V82.68h.95v.88a2.22,2.22,0,0,1,2-1,2.66,2.66,0,0,1,1,.2,1.58,1.58,0,0,1,.71.53,2.3,2.3,0,0,1,.33.78,7.53,7.53,0,0,1,.05,1V88.9h-1.05V85.12a2.94,2.94,0,0,0-.12-1,1.08,1.08,0,0,0-.44-.51,1.45,1.45,0,0,0-.74-.19,1.7,1.7,0,0,0-1.16.43,2.13,2.13,0,0,0-.49,1.62v3.4Z"/><path class="cls-5" d="M326.48,88l.16.93a4.16,4.16,0,0,1-.8.09,1.82,1.82,0,0,1-.89-.18,1,1,0,0,1-.45-.48,4,4,0,0,1-.12-1.24V83.5h-.78v-.82h.78V81.14l1-.64v2.18h1.06v.82h-1.06v3.64a1.73,1.73,0,0,0,.06.58.49.49,0,0,0,.18.2A.74.74,0,0,0,326,88,3,3,0,0,0,326.48,88Z"/><path class="cls-5" d="M327.5,88.9V82.68h.95v.94a2.74,2.74,0,0,1,.67-.87,1.19,1.19,0,0,1,.68-.21,2,2,0,0,1,1.08.34l-.36,1a1.43,1.43,0,0,0-.77-.23,1,1,0,0,0-.62.21,1.08,1.08,0,0,0-.4.57,4.4,4.4,0,0,0-.17,1.23V88.9Z"/><path class="cls-5" d="M335.77,86.9l1.09.13a2.64,2.64,0,0,1-.95,1.48,3.24,3.24,0,0,1-4-.31,3.31,3.31,0,0,1-.8-2.36,3.41,3.41,0,0,1,.81-2.43,2.74,2.74,0,0,1,2.1-.87,2.66,2.66,0,0,1,2,.85,3.39,3.39,0,0,1,.79,2.39c0,.06,0,.15,0,.28h-4.64a2.38,2.38,0,0,0,.58,1.57,1.74,1.74,0,0,0,1.3.54,1.62,1.62,0,0,0,1-.3A2,2,0,0,0,335.77,86.9Zm-3.46-1.71h3.47a2.09,2.09,0,0,0-.4-1.18,1.61,1.61,0,0,0-1.3-.6,1.67,1.67,0,0,0-1.22.48A1.92,1.92,0,0,0,332.31,85.19Z"/><path class="cls-5" d="M337.76,87l1.05-.16a1.44,1.44,0,0,0,.49,1,1.7,1.7,0,0,0,1.12.33,1.66,1.66,0,0,0,1.08-.29.9.9,0,0,0,.35-.7.67.67,0,0,0-.31-.56,5.28,5.28,0,0,0-1.08-.36,9.92,9.92,0,0,1-1.61-.5,1.53,1.53,0,0,1-.91-1.43,1.57,1.57,0,0,1,.19-.77,1.73,1.73,0,0,1,.52-.59,2.33,2.33,0,0,1,.67-.31,3.34,3.34,0,0,1,.91-.12,3.63,3.63,0,0,1,1.29.21,1.69,1.69,0,0,1,.81.57,2.22,2.22,0,0,1,.37,1l-1,.14a1.16,1.16,0,0,0-.41-.75,1.49,1.49,0,0,0-.95-.26,1.73,1.73,0,0,0-1,.24.68.68,0,0,0-.31.56.58.58,0,0,0,.13.37,1,1,0,0,0,.4.28l.93.27a12.86,12.86,0,0,1,1.57.49,1.57,1.57,0,0,1,.69.55,1.52,1.52,0,0,1,.25.9,1.76,1.76,0,0,1-.31,1,2,2,0,0,1-.88.72,3.27,3.27,0,0,1-1.32.25,2.94,2.94,0,0,1-1.84-.5A2.36,2.36,0,0,1,337.76,87Z"/><path class="cls-5" d="M306.85,104.43a11.09,11.09,0,0,1-1.48-2.58,8.1,8.1,0,0,1-.6-3.06,8,8,0,0,1,.45-2.67,11.48,11.48,0,0,1,1.63-3h.76a18.38,18.38,0,0,0-.94,1.75,8.72,8.72,0,0,0-.56,1.68,9.74,9.74,0,0,0-.26,2.21,10.6,10.6,0,0,0,1.76,5.63Z"/><path class="cls-5" d="M311.13,101l.16.93a4.16,4.16,0,0,1-.8.09,1.82,1.82,0,0,1-.89-.18,1,1,0,0,1-.45-.48,3.88,3.88,0,0,1-.13-1.24V96.5h-.77v-.82H309V94.14l1.05-.64v2.18h1.06v.82h-1.06v3.64a1.73,1.73,0,0,0,.06.58.49.49,0,0,0,.18.2.69.69,0,0,0,.36.08A3,3,0,0,0,311.13,101Z"/><path class="cls-5" d="M312.12,104.3l-.12-1a2.43,2.43,0,0,0,.6.09,1.15,1.15,0,0,0,.57-.12.87.87,0,0,0,.34-.32,4.36,4.36,0,0,0,.32-.79l.1-.26-2.36-6.23h1.13l1.3,3.6q.25.69.45,1.44a13.51,13.51,0,0,1,.43-1.41l1.33-3.63h1.06L314.9,102a12.28,12.28,0,0,1-.59,1.41,2,2,0,0,1-.65.76,1.45,1.45,0,0,1-.86.25A2.25,2.25,0,0,1,312.12,104.3Z"/><path class="cls-5" d="M318.16,104.29V95.68h1v.81a2.21,2.21,0,0,1,.76-.71,2.1,2.1,0,0,1,1-.24,2.43,2.43,0,0,1,1.41.41,2.56,2.56,0,0,1,.92,1.16,4.3,4.3,0,0,1,.31,1.63,4.13,4.13,0,0,1-.35,1.72,2.6,2.6,0,0,1-2.37,1.58,2,2,0,0,1-.94-.22,2.26,2.26,0,0,1-.69-.56v3Zm1-5.47a2.67,2.67,0,0,0,.49,1.78,1.48,1.48,0,0,0,1.17.57,1.53,1.53,0,0,0,1.21-.59,2.85,2.85,0,0,0,.5-1.84A2.7,2.7,0,0,0,322,97a1.48,1.48,0,0,0-1.17-.6,1.51,1.51,0,0,0-1.19.63A2.79,2.79,0,0,0,319.12,98.82Z"/><path class="cls-5" d="M324.84,94.52V93.31h1.06v1.21Zm0,7.38V95.68h1.06v6.22Z"/><path class="cls-5" d="M331.56,99.62l1,.14a2.69,2.69,0,0,1-.87,1.68,2.56,2.56,0,0,1-1.72.6,2.69,2.69,0,0,1-2.05-.83,3.4,3.4,0,0,1-.78-2.4,4.19,4.19,0,0,1,.34-1.76,2.33,2.33,0,0,1,1-1.13,3,3,0,0,1,1.49-.38,2.61,2.61,0,0,1,1.66.51,2.34,2.34,0,0,1,.82,1.46l-1,.15a1.72,1.72,0,0,0-.52-.94,1.35,1.35,0,0,0-.9-.31,1.66,1.66,0,0,0-1.3.57,2.71,2.71,0,0,0-.49,1.8,2.82,2.82,0,0,0,.48,1.83,1.54,1.54,0,0,0,1.25.56,1.47,1.47,0,0,0,1-.38A1.88,1.88,0,0,0,331.56,99.62Z"/><path class="cls-5" d="M337.56,101.13a3.84,3.84,0,0,1-1.12.71,3.42,3.42,0,0,1-1.17.2,2.26,2.26,0,0,1-1.57-.5,1.64,1.64,0,0,1-.55-1.28,1.78,1.78,0,0,1,.2-.83,1.63,1.63,0,0,1,.55-.61,2.65,2.65,0,0,1,.76-.35,8.89,8.89,0,0,1,.94-.15,10.42,10.42,0,0,0,1.88-.37v-.27a1.16,1.16,0,0,0-.3-.91,1.76,1.76,0,0,0-1.2-.36,1.92,1.92,0,0,0-1.1.26,1.62,1.62,0,0,0-.52.92l-1-.14a2.63,2.63,0,0,1,.46-1.07,2,2,0,0,1,.93-.62,4.09,4.09,0,0,1,1.41-.22,3.61,3.61,0,0,1,1.3.19,1.48,1.48,0,0,1,1.06,1.18,5.59,5.59,0,0,1,.05,1v1.4a15.8,15.8,0,0,0,.07,1.86,2.33,2.33,0,0,0,.27.75h-1.1A2.4,2.4,0,0,1,337.56,101.13Zm-.08-2.35a8.26,8.26,0,0,1-1.73.4,3.82,3.82,0,0,0-.92.21.92.92,0,0,0-.41.34.92.92,0,0,0,.17,1.2,1.37,1.37,0,0,0,.94.29,2.16,2.16,0,0,0,1.08-.27,1.64,1.64,0,0,0,.7-.73,2.62,2.62,0,0,0,.17-1.06Z"/><path class="cls-5" d="M340.15,101.9V93.31h1.06v8.59Z"/><path class="cls-5" d="M343.54,104.43h-.76a10.59,10.59,0,0,0,1.75-5.63,9.49,9.49,0,0,0-.25-2.19,8.82,8.82,0,0,0-.56-1.69,19.48,19.48,0,0,0-.94-1.76h.76a11.43,11.43,0,0,1,1.62,3,8,8,0,0,1,.46,2.67,8.11,8.11,0,0,1-.61,3.06A11.44,11.44,0,0,1,343.54,104.43Z"/></g><polyline class="cls-8" points="126.07 66.24 145.62 66.24 149.62 60.81 149.62 71.67 153.61 66.24 170.63 66.24"/><polyline class="cls-8" points="256.46 85.48 256.46 105.03 261.89 109.03 251.03 109.03 256.46 113.02 256.46 130.04"/><polyline class="cls-8" points="387.11 37.07 406.66 37.07 410.65 31.64 410.65 42.5 414.65 37.07 431.66 37.07"/><polyline class="cls-8" points="501.07 59.38 501.07 76.71 506.5 80.71 495.64 80.71 501.07 84.7 501.07 102.72"/><g id="LINE-92" data-name="LINE"><line class="cls-3" x1="164.14" y1="134.67" x2="149.44" y2="124.05"/></g><g id="LINE-93" data-name="LINE"><line class="cls-3" x1="164.14" y1="124.05" x2="149.96" y2="134.15"/></g></svg>