<svg id="Drawing_Layer" data-name="Drawing Layer" xmlns="http://www.w3.org/2000/svg" viewBox="0 0 497.57 235.14"><defs><style>.cls-1,.cls-2{font-size:12px;}.cls-1,.cls-2,.cls-9{fill:#231f20;}.cls-1{font-family:ArialMT, Arial;}.cls-2{font-family:Arial-ItalicMT, Arial;font-style:italic;}.cls-10,.cls-3,.cls-4,.cls-5,.cls-6,.cls-7,.cls-8{fill:none;stroke:#231f20;}.cls-3,.cls-4,.cls-5,.cls-6,.cls-7,.cls-8{stroke-miterlimit:10;}.cls-3,.cls-4,.cls-5,.cls-6,.cls-7{stroke-width:0.75px;}.cls-4{stroke-dasharray:11.73 11.73;}.cls-5{stroke-dasharray:12.48 12.48;}.cls-6{stroke-dasharray:10.75 10.75;}.cls-7{stroke-dasharray:9.92 9.92;}.cls-8{stroke-width:0.25px;}.cls-10{stroke-linecap:round;stroke-linejoin:round;}</style></defs><text class="cls-1" transform="translate(404.27 27.22)">C</text><text class="cls-1" transform="translate(398.94 170.58)"><tspan xml:space="preserve"> D </tspan></text><text class="cls-1" transform="translate(62.65 146.08)">C - D ≤ 10 mm</text><text class="cls-2" transform="translate(392.63 231.24)">Landing</text><text class="cls-2" transform="translate(1.15 19.75)">Landing</text><line class="cls-3" x1="163.87" y1="0.5" x2="169.87" y2="0.5"/><line class="cls-4" x1="181.6" y1="0.5" x2="386.93" y2="0.5"/><line class="cls-3" x1="392.8" y1="0.5" x2="398.8" y2="0.5"/><line class="cls-3" x1="199.58" y1="43.05" x2="205.58" y2="43.05"/><line class="cls-5" x1="218.07" y1="43.05" x2="386.55" y2="43.05"/><line class="cls-3" x1="392.8" y1="43.05" x2="398.8" y2="43.05"/><line class="cls-3" x1="306.73" y1="150.19" x2="312.73" y2="150.19"/><line class="cls-6" x1="323.48" y1="150.19" x2="382.61" y2="150.19"/><line class="cls-3" x1="387.98" y1="150.19" x2="393.98" y2="150.19"/><line class="cls-3" x1="332.37" y1="181.35" x2="338.37" y2="181.35"/><line class="cls-7" x1="348.29" y1="181.35" x2="383.02" y2="181.35"/><line class="cls-3" x1="387.98" y1="181.35" x2="393.98" y2="181.35"/><line class="cls-8" x1="398.8" y1="7.14" x2="398.8" y2="36.41"/><polygon class="cls-9" points="396.62 8.63 398.79 0.5 400.97 8.63 396.62 8.63"/><polygon class="cls-9" points="396.62 34.92 398.79 43.05 400.97 34.92 396.62 34.92"/><line class="cls-8" x1="393.98" y1="156.84" x2="393.98" y2="174.7"/><polygon class="cls-9" points="391.8 158.32 393.98 150.19 396.16 158.32 391.8 158.32"/><polygon class="cls-9" points="391.8 173.22 393.98 181.35 396.16 173.22 391.8 173.22"/><line class="cls-10" x1="0.5" y1="0.5" x2="163.87" y2="0.5"/><line class="cls-10" x1="333.7" y1="212.5" x2="497.07" y2="212.5"/><line class="cls-10" x1="163.87" y1="0.5" x2="163.87" y2="43.05"/><line class="cls-10" x1="199.58" y1="43.05" x2="163.87" y2="43.05"/><line class="cls-10" x1="199.58" y1="43.05" x2="199.58" y2="78.77"/><line class="cls-10" x1="235.3" y1="78.77" x2="199.58" y2="78.77"/><line class="cls-10" x1="235.3" y1="78.77" x2="235.3" y2="114.48"/><line class="cls-10" x1="271.01" y1="114.48" x2="235.3" y2="114.48"/><line class="cls-10" x1="271.01" y1="114.48" x2="271.01" y2="150.19"/><line class="cls-10" x1="306.73" y1="150.19" x2="271.01" y2="150.19"/><line class="cls-10" x1="332.37" y1="181.35" x2="306.73" y2="181.35"/><line class="cls-10" x1="332.37" y1="181.35" x2="332.37" y2="212.5"/><line class="cls-10" x1="306.73" y1="150.19" x2="306.73" y2="181.35"/></svg>