<?xml version="1.0" encoding="utf-8"?>
<!-- Generator: Adobe Illustrator 25.2.1, SVG Export Plug-In . SVG Version: 6.00 Build 0)  -->
<svg version="1.1" xmlns="http://www.w3.org/2000/svg" xmlns:xlink="http://www.w3.org/1999/xlink" x="0px" y="0px"
	 viewBox="0 0 552.8 234" style="enable-background:new 0 0 552.8 234;" xml:space="preserve">
<style type="text/css">
	.st0{fill-rule:evenodd;clip-rule:evenodd;fill:none;}
	.st1{clip-path:url(#SVGID_2_);fill:none;stroke:#231F20;stroke-width:0.5;stroke-linejoin:round;}
	.st2{display:none;}
	.st3{fill:none;stroke:#000000;stroke-width:0.75;stroke-miterlimit:10;}
	.st4{fill:none;stroke:#000000;stroke-width:0.75;stroke-miterlimit:10;stroke-dasharray:5.8182,5.8182;}
	.st5{fill:none;stroke:#000000;stroke-width:0.75;stroke-miterlimit:10;stroke-dasharray:11.7365,11.7365;}
	.st6{font-family:'ArialMT';}
	.st7{font-size:12px;}
	.st8{fill:none;stroke:#000000;stroke-width:0.25;stroke-miterlimit:10;}
	.st9{fill:none;stroke:#000000;stroke-miterlimit:10;}
	.st10{fill:none;}
	.st11{fill:none;stroke:#000000;stroke-width:0.75;stroke-miterlimit:10;stroke-dasharray:5.4728,5.4728;}
	.st12{fill:none;stroke:#000000;stroke-width:0.75;stroke-miterlimit:10;stroke-dasharray:5.35,5.35;}
	.st13{fill:none;stroke:#000000;stroke-width:0.75;stroke-miterlimit:10;stroke-dasharray:5.3551,5.3551;}
	.st14{fill:none;stroke:#000000;stroke-width:0.75;stroke-miterlimit:10;stroke-dasharray:5,5;}
	.st15{fill:none;stroke:#000000;stroke-width:0.75;stroke-linecap:round;stroke-miterlimit:10;}
	.st16{fill:url(#SVGID_3_);}
</style>
<pattern  width="72" height="72" patternUnits="userSpaceOnUse" id="diagonal_cross_hatch" viewBox="6.2 -86.2 72 72" style="overflow:visible;">
	<g>
		<rect x="6.2" y="-86.2" class="st0" width="72" height="72"/>
		<g>
			<defs>
				<rect id="SVGID_1_" x="6.2" y="-86.2" width="72" height="72"/>
			</defs>
			<clipPath id="SVGID_2_">
				<use xlink:href="#SVGID_1_"  style="overflow:visible;"/>
			</clipPath>
			<line class="st1" x1="0.2" y1="-74.2" x2="18.2" y2="-92.2"/>
			<line class="st1" x1="0.2" y1="-68.2" x2="24.2" y2="-92.2"/>
			<line class="st1" x1="0.2" y1="-62.2" x2="30.2" y2="-92.2"/>
			<line class="st1" x1="0.2" y1="-56.2" x2="36.2" y2="-92.2"/>
			<line class="st1" x1="0.2" y1="-50.2" x2="42.2" y2="-92.2"/>
			<line class="st1" x1="0.2" y1="-44.2" x2="48.2" y2="-92.2"/>
			<line class="st1" x1="0.2" y1="-38.2" x2="54.2" y2="-92.2"/>
			<line class="st1" x1="0.2" y1="-32.2" x2="60.2" y2="-92.2"/>
			<line class="st1" x1="0.2" y1="-26.2" x2="66.2" y2="-92.2"/>
			<line class="st1" x1="0.2" y1="-20.2" x2="72.2" y2="-92.2"/>
			<line class="st1" x1="0.2" y1="-14.2" x2="78.2" y2="-92.2"/>
			<line class="st1" x1="0.2" y1="-8.2" x2="84.2" y2="-92.2"/>
			<line class="st1" x1="6.2" y1="-8.2" x2="84.2" y2="-86.2"/>
			<line class="st1" x1="12.2" y1="-8.2" x2="84.2" y2="-80.2"/>
			<line class="st1" x1="18.2" y1="-8.2" x2="84.2" y2="-74.2"/>
			<line class="st1" x1="24.2" y1="-8.2" x2="84.2" y2="-68.2"/>
			<line class="st1" x1="30.2" y1="-8.2" x2="84.2" y2="-62.2"/>
			<line class="st1" x1="36.2" y1="-8.2" x2="84.2" y2="-56.2"/>
			<line class="st1" x1="42.2" y1="-8.2" x2="84.2" y2="-50.2"/>
			<line class="st1" x1="48.2" y1="-8.2" x2="84.2" y2="-44.2"/>
			<line class="st1" x1="54.2" y1="-8.2" x2="84.2" y2="-38.2"/>
			<line class="st1" x1="52.2" y1="-0.2" x2="94.2" y2="-42.2"/>
			<line class="st1" x1="58.2" y1="-0.2" x2="94.2" y2="-36.2"/>
			<line class="st1" x1="64.2" y1="-0.2" x2="94.2" y2="-30.2"/>
		</g>
	</g>
</pattern>
<g id="tRACE" class="st2">
	
		<image style="display:inline;overflow:visible;opacity:0.49;" width="2168" height="765" id="v3_x5F_nsw_x5F_C2-2a_x5F_2011_x5F_ORIGINAL_xA0_Image" xlink:href="3C80FEFF.jpg"  transform="matrix(0.2288 0 0 0.2288 28.3465 21.3105)">
	</image>
</g>
<g id="v3_x5F_nsw_x5F_C2-2a_x5F_2011_x5F_ORIGINAL_xA0_Image_1_">
	<g>
		<g>
			<g>
				<line class="st3" x1="150.1" y1="108.8" x2="150.1" y2="111.8"/>
				<line class="st4" x1="150.1" y1="117.7" x2="150.1" y2="149.7"/>
				<line class="st3" x1="150.1" y1="152.6" x2="150.1" y2="155.6"/>
			</g>
		</g>
	</g>
	<g>
		<g>
			<g>
				<line class="st3" x1="152" y1="205.2" x2="158" y2="205.2"/>
				<line class="st5" x1="169.8" y1="205.2" x2="422.1" y2="205.2"/>
				<line class="st3" x1="428" y1="205.2" x2="434" y2="205.2"/>
			</g>
		</g>
	</g>
	<g>
		<text transform="matrix(1 0 0 1 113.0012 38.0877)" class="st6 st7">Reflux (Surcharge) Valve</text>
		<text transform="matrix(1 0 0 1 332.3264 114.0874)" class="st6 st7">Inspection Opening</text>
		<text transform="matrix(1 0 0 1 485.0228 179.0874)"><tspan x="0" y="0" class="st6 st7">Sewer </tspan><tspan x="4" y="12" class="st6 st7">Main</tspan></text>
		<text transform="matrix(1 0 0 1 160.1927 184.0874)" class="st6 st7">80 mm</text>
		<text transform="matrix(1 0 0 1 28.8616 127.5874)" class="st6 st7">Flow</text>
	</g>
	<g>
		<g>
			<g>
				<g>
					<line class="st8" x1="28.3" y1="132.6" x2="66.8" y2="132.6"/>
					<g>
						<polygon points="65.3,134.7 73.5,132.6 65.3,130.4 						"/>
					</g>
				</g>
			</g>
		</g>
		<g>
			<g>
				<g>
					<line class="st8" x1="177.5" y1="43.1" x2="177.5" y2="58.4"/>
					<g>
						<polygon points="175.4,56.9 177.5,65.1 179.7,56.9 						"/>
					</g>
				</g>
			</g>
		</g>
		<g>
			<g>
				<g>
					<line class="st8" x1="177.5" y1="172.6" x2="177.5" y2="161.2"/>
					<g>
						<polygon points="179.7,162.7 177.5,154.6 175.4,162.7 						"/>
					</g>
				</g>
			</g>
		</g>
		<g>
			<g>
				<g>
					<line class="st8" x1="177.5" y1="187.6" x2="177.5" y2="198.5"/>
					<g>
						<polygon points="175.4,197.1 177.5,205.2 179.7,197.1 						"/>
					</g>
				</g>
			</g>
		</g>
		<g>
			<g>
				<g>
					<line class="st8" x1="384" y1="117.7" x2="384" y2="134.4"/>
					<g>
						<polygon points="381.9,132.9 384,141.1 386.2,132.9 						"/>
					</g>
				</g>
			</g>
		</g>
	</g>
	<g>
		<line class="st9" x1="160.7" y1="65.1" x2="160.7" y2="73.8"/>
		<line class="st9" x1="177.3" y1="65.1" x2="177.3" y2="73.8"/>
		<line class="st9" x1="194" y1="65.1" x2="194" y2="73.8"/>
	</g>
	<path class="st10" d="M200.9,73.8"/>
	<g>
		<g>
			<path class="st10" d="M439.5,192.9"/>
		</g>
	</g>
	<g>
		<g>
			<path class="st10" d="M439.5,159.5"/>
		</g>
	</g>
	<g>
		<g>
			<line class="st9" x1="392" y1="141.1" x2="392" y2="148.4"/>
			<line class="st9" x1="375.7" y1="141.4" x2="375.7" y2="148.7"/>
		</g>
	</g>
	<line class="st3" x1="368.7" y1="148.7" x2="368.7" y2="158.6"/>
	<line class="st3" x1="399.5" y1="148.7" x2="399.5" y2="158.6"/>
	<g>
		<line class="st9" x1="83.8" y1="117.7" x2="128.8" y2="117.7"/>
		<line class="st9" x1="83.8" y1="148.2" x2="128.8" y2="148.2"/>
		<polyline class="st9" points="206.1,111.1 199,111.1 199,108.8 		"/>
		<path class="st9" d="M228.2,111.1c0,0,3.5-2,9,3c5.5,5,9.5,9.5,9.5,9.5h2.8"/>
		<line class="st9" x1="228.2" y1="154.6" x2="249.5" y2="154.6"/>
		<polyline class="st9" points="249.5,155.8 262.7,155.8 262.7,122.8 249.5,122.8 		"/>
		<polyline class="st9" points="284.5,122.6 270.2,122.6 270.2,155.6 283.5,155.6 285.2,156.1 294.6,165.5 317.9,142.1 308.8,133 		
			"/>
		<line class="st9" x1="262.7" y1="123.6" x2="269.8" y2="123.6"/>
		<line class="st9" x1="262.7" y1="155.1" x2="270.2" y2="155.1"/>
		<path class="st9" d="M310,180.5l-9.9-9.9l23.3-23.3l9.4,9.4c0,0,1,1.7,1.9,1.7h13.2v33h-14.2"/>
		<line class="st9" x1="317.4" y1="142.6" x2="322.4" y2="147.7"/>
		<line class="st9" x1="295.1" y1="164.9" x2="300.4" y2="170.2"/>
		<polyline class="st9" points="150.1,108.6 128.8,108.6 128.8,155.6 150.1,155.6 		"/>
		<rect x="151.7" y="65.1" class="st9" width="50.8" height="8.8"/>
		<line class="st9" x1="153.7" y1="73.8" x2="153.7" y2="108.6"/>
		<line class="st9" x1="200.9" y1="73.8" x2="200.9" y2="108.6"/>
		<line class="st9" x1="206.1" y1="154.6" x2="150.1" y2="154.6"/>
		<polyline class="st9" points="206.1,109.1 228.2,109.1 228.2,155.6 206.2,155.6 		"/>
		<line class="st9" x1="153.7" y1="88.8" x2="200.9" y2="88.8"/>
		<circle class="st9" cx="501.6" cy="180.9" r="22.4"/>
		<line class="st9" x1="500.2" y1="158.6" x2="475.5" y2="158.6"/>
		<line class="st9" x1="498.2" y1="203.1" x2="475.5" y2="203.1"/>
		<path class="st9" d="M284.5,123.6c0,0,8.7-0.1,12.8,1.8c4.9,2.3,8.7,6.3,11,8.9"/>
		<polyline class="st9" points="368.7,158.1 355.4,158.1 355.4,191.1 368.7,191.1 		"/>
		<line class="st9" x1="347.9" y1="159.1" x2="355.1" y2="159.1"/>
		<line class="st9" x1="347.9" y1="190.6" x2="355.4" y2="190.6"/>
		<path class="st9" d="M310.6,179.8c0,0,7.7,7.5,12.2,8.7s11.1,1.4,11.1,1.4"/>
		<rect x="367.2" y="141.1" class="st9" width="33.3" height="7.3"/>
		<polyline class="st9" points="399.5,191.1 412.7,191.1 412.7,158.1 399.5,158.1 		"/>
		<line class="st9" x1="413.2" y1="159.1" x2="420.3" y2="159.1"/>
		<line class="st9" x1="413" y1="189.9" x2="420.5" y2="189.9"/>
		<line class="st9" x1="368.7" y1="190.1" x2="399.5" y2="190.1"/>
		<path class="st9" d="M452.2,203.1c0,0-8-0.6-11.8-6.7c-3.8-6.1-6.5-5.4-6.5-5.4h-13.2v-33H434"/>
		<line class="st9" x1="452.2" y1="159.6" x2="434" y2="159.6"/>
		<polyline class="st9" points="475.5,203.9 452.2,203.9 452.2,157.2 475.8,157.2 		"/>
	</g>
	<g>
		<g>
			<g>
				<g>
					<g>
						<line class="st3" x1="150.1" y1="108.8" x2="150.1" y2="111.8"/>
						<line class="st4" x1="150.1" y1="117.7" x2="150.1" y2="149.7"/>
						<line class="st3" x1="150.1" y1="152.6" x2="150.1" y2="155.6"/>
					</g>
				</g>
			</g>
			<g>
				<g>
					<g>
						<line class="st3" x1="206.1" y1="109.2" x2="206.1" y2="112.2"/>
						<line class="st4" x1="206.1" y1="118" x2="206.1" y2="150"/>
						<line class="st3" x1="206.1" y1="152.9" x2="206.1" y2="155.9"/>
					</g>
				</g>
			</g>
			<g>
				<g>
					<g>
						<line class="st3" x1="475.5" y1="157.6" x2="475.5" y2="160.6"/>
						<line class="st4" x1="475.5" y1="166.4" x2="475.5" y2="198.4"/>
						<line class="st3" x1="475.5" y1="201.3" x2="475.5" y2="204.3"/>
					</g>
				</g>
			</g>
			<g>
				<g>
					<g>
						<line class="st3" x1="434" y1="157.6" x2="434" y2="160.6"/>
						<line class="st11" x1="434" y1="166" x2="434" y2="185.2"/>
						<line class="st3" x1="434" y1="187.9" x2="434" y2="190.9"/>
					</g>
				</g>
			</g>
			<g>
				<g>
					<g>
						<line class="st3" x1="399.5" y1="158.6" x2="399.5" y2="161.6"/>
						<line class="st12" x1="399.5" y1="166.9" x2="399.5" y2="185.6"/>
						<line class="st3" x1="399.5" y1="188.3" x2="399.5" y2="191.3"/>
					</g>
				</g>
			</g>
			<g>
				<g>
					<g>
						<line class="st3" x1="368.5" y1="158.6" x2="368.5" y2="161.6"/>
						<line class="st12" x1="368.5" y1="166.9" x2="368.5" y2="185.6"/>
						<line class="st3" x1="368.5" y1="188.3" x2="368.5" y2="191.3"/>
					</g>
				</g>
			</g>
			<g>
				<g>
					<g>
						<line class="st3" x1="334" y1="157.8" x2="334" y2="160.8"/>
						<line class="st11" x1="334" y1="166.3" x2="334" y2="185.4"/>
						<line class="st3" x1="334" y1="188.2" x2="334" y2="191.2"/>
					</g>
				</g>
			</g>
			<g>
				<g>
					<g>
						<line class="st3" x1="249.5" y1="122.6" x2="249.5" y2="125.6"/>
						<line class="st11" x1="249.5" y1="131" x2="249.5" y2="150.2"/>
						<line class="st3" x1="249.5" y1="152.9" x2="249.5" y2="155.9"/>
					</g>
				</g>
			</g>
			<g>
				<g>
					<g>
						<line class="st3" x1="284.5" y1="122.4" x2="284.5" y2="125.4"/>
						<line class="st11" x1="284.5" y1="130.9" x2="284.5" y2="150"/>
						<line class="st3" x1="284.5" y1="152.7" x2="284.5" y2="155.7"/>
					</g>
				</g>
			</g>
			<g>
				<g>
					<g>
						<line class="st3" x1="309.3" y1="133.1" x2="307.2" y2="135.2"/>
						<line class="st11" x1="303.3" y1="139.1" x2="289.8" y2="152.6"/>
						<line class="st3" x1="287.8" y1="154.5" x2="285.7" y2="156.7"/>
					</g>
				</g>
			</g>
			<g>
				<g>
					<g>
						<line class="st3" x1="333" y1="157" x2="330.9" y2="159.1"/>
						<line class="st13" x1="327.1" y1="162.9" x2="313.9" y2="176.2"/>
						<line class="st3" x1="312" y1="178" x2="309.8" y2="180.2"/>
					</g>
				</g>
			</g>
			<g>
				<g>
					<g>
						<line class="st3" x1="399.5" y1="158.6" x2="396.5" y2="158.6"/>
						<line class="st14" x1="391.5" y1="158.6" x2="374" y2="158.6"/>
						<line class="st3" x1="371.5" y1="158.6" x2="368.5" y2="158.6"/>
					</g>
				</g>
			</g>
		</g>
		<g>
			<g>
				<line class="st3" x1="200.9" y1="108.6" x2="197.9" y2="108.6"/>
				<line class="st4" x1="192.1" y1="108.6" x2="160.1" y2="108.6"/>
				<polyline class="st3" points="157.2,108.6 154.2,108.6 154.2,111.1 150.1,111.1 				"/>
			</g>
		</g>
	</g>
	<g>
		<path class="st3" d="M87,140.7c0,4.1-1.3,7.5-2.9,7.5s-2.9-3.4-2.9-7.5c0-4.1,1.3-8,2.9-8S87,136.6,87,140.7z"/>
		<path class="st15" d="M84.1,132.7c-1.6,0-2.9-3.4-2.9-7.5c0-4.1,1.3-7.5,2.9-7.5"/>
	</g>
	<pattern  id="SVGID_3_" xlink:href="#diagonal_cross_hatch" patternTransform="matrix(1 0 0 1 152.0108 -116.469)">
	</pattern>
	<rect x="153.7" y="73.8" class="st16" width="47.2" height="6.4"/>
</g>
</svg>
