<svg id="Drawing_Layer" data-name="Drawing Layer" xmlns="http://www.w3.org/2000/svg" viewBox="0 0 552.76 425.2"><defs><style>.cls-1,.cls-2,.cls-3,.cls-5{fill:none;}.cls-1,.cls-2,.cls-3,.cls-5,.cls-7,.cls-8{stroke:#231f20;stroke-miterlimit:10;}.cls-2,.cls-8{stroke-width:0.75px;}.cls-3{stroke-width:0.5px;}.cls-4{font-size:12px;font-family:ArialMT, Arial;}.cls-4,.cls-6,.cls-7,.cls-8{fill:#231f20;}.cls-5{stroke-width:0.25px;}.cls-8{stroke-linecap:round;}</style></defs><polyline class="cls-1" points="94.61 118.67 225 118.67 308.17 157.96 308.17 256.22"/><line class="cls-1" x1="94.61" y1="122.85" x2="233.85" y2="122.85"/><line class="cls-1" x1="94.61" y1="202.68" x2="308.17" y2="202.68"/><polyline class="cls-1" points="94.61 206.6 258.86 206.6 308.17 206.6"/><line class="cls-1" x1="259.28" y1="256.22" x2="259.28" y2="206.6"/><line class="cls-1" x1="259.28" y1="256.22" x2="308.17" y2="256.22"/><line class="cls-1" x1="259.28" y1="256.22" x2="307.84" y2="207"/><line class="cls-1" x1="259.49" y1="207" x2="308.17" y2="256.22"/><polyline class="cls-1" points="292.32 202.68 292.32 150.88 275 150.88 275 202.68"/><line class="cls-2" x1="292.32" y1="150.88" x2="275" y2="202.68"/><line class="cls-2" x1="275" y1="150.88" x2="292.32" y2="202.27"/><polyline class="cls-3" points="94.8 115.88 94.8 159.07 105.41 165.2 84.08 165.2 94.74 171.21 94.74 210.36"/><text class="cls-4" transform="translate(94.61 231.61)">Strutting beam</text><text class="cls-4" transform="translate(96.91 262.89)">Block between joists</text><line class="cls-5" x1="131.88" y1="221.11" x2="131.88" y2="177.73"/><polygon class="cls-6" points="134.79 179.72 131.88 168.88 128.98 179.72 134.79 179.72"/><line class="cls-6" x1="193.4" y1="254.42" x2="275.23" y2="172.6"/><line class="cls-5" x1="193.4" y1="254.42" x2="268.96" y2="178.86"/><polygon class="cls-6" points="269.62 182.32 275.23 172.6 265.51 178.21 269.62 182.32"/><line class="cls-5" x1="233.9" y1="91.95" x2="299.31" y2="91.95"/><polygon class="cls-6" points="235.88 94.86 225.04 91.95 235.88 89.05 235.88 94.86"/><polygon class="cls-6" points="297.33 94.86 308.17 91.95 297.33 89.05 297.33 94.86"/><line class="cls-5" x1="225.04" y1="114.58" x2="225.04" y2="70.14"/><line class="cls-5" x1="308.17" y1="70.14" x2="308.17" y2="114.58"/><line class="cls-5" x1="311.17" y1="118.67" x2="392.23" y2="118.67"/><line class="cls-5" x1="311.86" y1="206.6" x2="392.23" y2="206.6"/><line class="cls-5" x1="311.17" y1="157.95" x2="355.69" y2="157.95"/><line class="cls-5" x1="343.26" y1="127.53" x2="343.26" y2="149.09"/><polygon class="cls-6" points="340.36 129.52 343.26 118.67 346.17 129.52 340.36 129.52"/><polygon class="cls-6" points="340.36 147.11 343.26 157.95 346.17 147.11 340.36 147.11"/><line class="cls-5" x1="375.83" y1="127.53" x2="375.83" y2="198.14"/><polygon class="cls-6" points="372.93 129.52 375.83 118.67 378.74 129.52 372.93 129.52"/><polygon class="cls-6" points="372.93 196.16 375.83 207 378.74 196.16 372.93 196.16"/><text class="cls-4" transform="translate(262.96 87.98)">D</text><text class="cls-4" transform="translate(255.96 102.78)">max</text><text class="cls-4" transform="translate(320.31 141.56)">D/2</text><text class="cls-4" transform="translate(384.36 162.84)">D</text><polygon class="cls-7" points="308.17 262.13 308.17 256.62 259.28 256.62 259.28 262.13 280.97 262.13 280.97 326.31 259.28 326.31 259.28 331.82 308.17 331.82 308.17 326.31 286.48 326.31 286.48 262.13 308.17 262.13"/><text class="cls-4" transform="translate(206.03 299.38)">Lintel</text><polyline class="cls-5" points="236.83 295.72 259.67 295.72 271.8 295.72"/><polygon class="cls-6" points="269.82 298.63 280.66 295.72 269.82 292.82 269.82 298.63"/><g id="LINE"><line class="cls-8" x1="271.94" y1="262.74" x2="271.94" y2="266.15"/></g><g id="LINE-2" data-name="LINE"><line class="cls-8" x1="269.61" y1="262.74" x2="269.61" y2="266.15"/></g><g id="SPLINE"><path class="cls-8" d="M269.61,266.15a1.48,1.48,0,0,0,2.16.17l.17-.17"/></g><g id="LINE-3" data-name="LINE"><line class="cls-8" x1="263.27" y1="262.74" x2="263.27" y2="266.15"/></g><g id="LINE-4" data-name="LINE"><line class="cls-8" x1="265.6" y1="262.74" x2="265.6" y2="266.15"/></g><g id="SPLINE-2" data-name="SPLINE"><path class="cls-8" d="M263.27,266.15a1.48,1.48,0,0,0,2.16.17l.17-.17"/></g><g id="LINE-5" data-name="LINE"><line class="cls-8" x1="270.77" y1="266.71" x2="264.43" y2="266.71"/></g><g id="SPLINE-3" data-name="SPLINE"><path class="cls-8" d="M265.6,266.15a3.85,3.85,0,0,0,4,0"/></g><g id="LINE-6" data-name="LINE"><line class="cls-8" x1="304.05" y1="262.91" x2="304.05" y2="266.31"/></g><g id="LINE-7" data-name="LINE"><line class="cls-8" x1="301.73" y1="262.91" x2="301.73" y2="266.31"/></g><g id="SPLINE-4" data-name="SPLINE"><path class="cls-8" d="M301.73,266.31a1.47,1.47,0,0,0,2.16.17,1.29,1.29,0,0,0,.16-.17"/></g><g id="LINE-8" data-name="LINE"><line class="cls-8" x1="295.39" y1="262.91" x2="295.39" y2="266.31"/></g><g id="LINE-9" data-name="LINE"><line class="cls-8" x1="297.71" y1="262.91" x2="297.71" y2="266.31"/></g><g id="SPLINE-5" data-name="SPLINE"><path class="cls-8" d="M295.39,266.31a1.47,1.47,0,0,0,2.16.17,1.29,1.29,0,0,0,.16-.17"/></g><g id="LINE-10" data-name="LINE"><line class="cls-8" x1="302.89" y1="266.87" x2="296.55" y2="266.87"/></g><g id="SPLINE-6" data-name="SPLINE"><path class="cls-8" d="M297.71,266.31a3.87,3.87,0,0,0,4,0"/></g><g id="LINE-11" data-name="LINE"><line class="cls-8" x1="263.27" y1="202.68" x2="263.27" y2="199.32"/></g><g id="LINE-12" data-name="LINE"><line class="cls-8" x1="265.6" y1="202.68" x2="265.6" y2="199.32"/></g><g id="SPLINE-7" data-name="SPLINE"><path class="cls-8" d="M265.6,199.32a1.5,1.5,0,0,0-2.17-.17l-.16.17"/></g><g id="LINE-13" data-name="LINE"><line class="cls-8" x1="271.94" y1="202.68" x2="271.94" y2="199.32"/></g><g id="LINE-14" data-name="LINE"><line class="cls-8" x1="269.61" y1="202.68" x2="269.61" y2="199.32"/></g><g id="SPLINE-8" data-name="SPLINE"><path class="cls-8" d="M271.94,199.32a1.48,1.48,0,0,0-2.16-.17.91.91,0,0,0-.17.17"/></g><g id="LINE-15" data-name="LINE"><line class="cls-8" x1="264.43" y1="198.76" x2="270.77" y2="198.76"/></g><g id="SPLINE-9" data-name="SPLINE"><path class="cls-8" d="M269.61,199.32a3.9,3.9,0,0,0-4,0"/></g><g id="LINE-16" data-name="LINE"><line class="cls-8" x1="295.39" y1="202.68" x2="295.39" y2="199.32"/></g><g id="LINE-17" data-name="LINE"><line class="cls-8" x1="297.71" y1="202.68" x2="297.71" y2="199.32"/></g><g id="SPLINE-10" data-name="SPLINE"><path class="cls-8" d="M297.71,199.32a1.48,1.48,0,0,0-2.16-.17,1.29,1.29,0,0,0-.16.17"/></g><g id="LINE-18" data-name="LINE"><line class="cls-8" x1="304.05" y1="202.68" x2="304.05" y2="199.32"/></g><g id="LINE-19" data-name="LINE"><line class="cls-8" x1="301.73" y1="202.68" x2="301.73" y2="199.32"/></g><g id="SPLINE-11" data-name="SPLINE"><path class="cls-8" d="M304.05,199.32a1.48,1.48,0,0,0-2.16-.17,1.29,1.29,0,0,0-.16.17"/></g><g id="LINE-20" data-name="LINE"><line class="cls-8" x1="296.55" y1="198.76" x2="302.89" y2="198.76"/></g><g id="SPLINE-12" data-name="SPLINE"><path class="cls-8" d="M301.73,199.32a3.92,3.92,0,0,0-4,0"/></g></svg>