<?xml version="1.0" encoding="utf-8"?>
<!-- Generator: Adobe Illustrator 25.2.1, SVG Export Plug-In . SVG Version: 6.00 Build 0)  -->
<svg version="1.1" id="_x30_" xmlns="http://www.w3.org/2000/svg" xmlns:xlink="http://www.w3.org/1999/xlink" x="0px" y="0px"
	 viewBox="0 0 552.8 349.2" style="enable-background:new 0 0 552.8 349.2;" xml:space="preserve">
<style type="text/css">
	.st0{fill-rule:evenodd;clip-rule:evenodd;fill:none;}
	.st1{clip-path:url(#SVGID_2_);fill:none;stroke:#221F1F;stroke-width:0.5;stroke-linejoin:round;}
	.st2{fill:none;stroke:#231F20;stroke-width:0.75;stroke-linecap:round;stroke-linejoin:round;stroke-miterlimit:10;}
	.st3{fill:none;stroke:#231F20;stroke-miterlimit:10;}
	.st4{fill-rule:evenodd;clip-rule:evenodd;fill:url(#SVGID_3_);}
	.st5{fill:none;stroke:#231F20;stroke-width:0.25;stroke-miterlimit:10;}
	.st6{fill:#231F20;}
	.st7{font-family:'Arial-BoldMT';}
	.st8{font-size:12px;}
	.st9{fill:none;}
	.st10{font-family:'ArialMT';}
	.st11{fill:none;stroke:#231F20;stroke-linecap:round;stroke-linejoin:round;stroke-miterlimit:10;}
</style>
<pattern  x="-1140.9" y="1589.5" width="72" height="72" patternUnits="userSpaceOnUse" id="diagonal_cross_hatch" viewBox="6.2 -86.2 72 72" style="overflow:visible;">
	<g>
		<rect x="6.2" y="-86.2" class="st0" width="72" height="72"/>
		<g>
			<defs>
				<rect id="SVGID_1_" x="6.2" y="-86.2" width="72" height="72"/>
			</defs>
			<clipPath id="SVGID_2_">
				<use xlink:href="#SVGID_1_"  style="overflow:visible;"/>
			</clipPath>
			<line class="st1" x1="0.2" y1="-74.2" x2="18.2" y2="-92.2"/>
			<line class="st1" x1="0.2" y1="-68.2" x2="24.2" y2="-92.2"/>
			<line class="st1" x1="0.2" y1="-62.2" x2="30.2" y2="-92.2"/>
			<line class="st1" x1="0.2" y1="-56.2" x2="36.2" y2="-92.2"/>
			<line class="st1" x1="0.2" y1="-50.2" x2="42.2" y2="-92.2"/>
			<line class="st1" x1="0.2" y1="-44.2" x2="48.2" y2="-92.2"/>
			<line class="st1" x1="0.2" y1="-38.2" x2="54.2" y2="-92.2"/>
			<line class="st1" x1="0.2" y1="-32.2" x2="60.2" y2="-92.2"/>
			<line class="st1" x1="0.2" y1="-26.2" x2="66.2" y2="-92.2"/>
			<line class="st1" x1="0.2" y1="-20.2" x2="72.2" y2="-92.2"/>
			<line class="st1" x1="0.2" y1="-14.2" x2="78.2" y2="-92.2"/>
			<line class="st1" x1="0.2" y1="-8.2" x2="84.2" y2="-92.2"/>
			<line class="st1" x1="6.2" y1="-8.2" x2="84.2" y2="-86.2"/>
			<line class="st1" x1="12.2" y1="-8.2" x2="84.2" y2="-80.2"/>
			<line class="st1" x1="18.2" y1="-8.2" x2="84.2" y2="-74.2"/>
			<line class="st1" x1="24.2" y1="-8.2" x2="84.2" y2="-68.2"/>
			<line class="st1" x1="30.2" y1="-8.2" x2="84.2" y2="-62.2"/>
			<line class="st1" x1="36.2" y1="-8.2" x2="84.2" y2="-56.2"/>
			<line class="st1" x1="42.2" y1="-8.2" x2="84.2" y2="-50.2"/>
			<line class="st1" x1="48.2" y1="-8.2" x2="84.2" y2="-44.2"/>
			<line class="st1" x1="54.2" y1="-8.2" x2="84.2" y2="-38.2"/>
			<line class="st1" x1="52.2" y1="-0.2" x2="94.2" y2="-42.2"/>
			<line class="st1" x1="58.2" y1="-0.2" x2="94.2" y2="-36.2"/>
			<line class="st1" x1="64.2" y1="-0.2" x2="94.2" y2="-30.2"/>
		</g>
	</g>
</pattern>
<g>
	<g>
		<g>
			<g id="LINE_51_">
				<line class="st2" x1="139" y1="193.8" x2="144.5" y2="180.9"/>
			</g>
			<g id="LINE_50_">
				<line class="st2" x1="144.5" y1="193.8" x2="139" y2="180.9"/>
			</g>
		</g>
		<rect x="139" y="181" class="st3" width="5.5" height="12.7"/>
	</g>
	<g>
		<g id="POLYLINE">
			<g>
				<rect x="133.2" y="211.9" class="st3" width="17" height="26"/>
			</g>
		</g>
		<g id="LINE">
			<g>
				<line class="st3" x1="139.4" y1="211.9" x2="139.4" y2="194.1"/>
			</g>
		</g>
		<g id="LINE_1_">
			<g>
				<line class="st3" x1="144.1" y1="211.9" x2="144.1" y2="194.1"/>
			</g>
		</g>
	</g>
</g>
<g id="SPLINE_2_">
	<g>
		<path class="st3" d="M98.3,216.4c-23.7,5.8-47,12.9-69.9,21.2"/>
	</g>
</g>
<g id="SPLINE_3_">
	<g>
		<path class="st3" d="M174.6,207.7c-25.6-0.9-51.6,2.1-76.4,8.6"/>
	</g>
</g>
<g>
	<g>
		<g id="LINE_58_">
			<line class="st3" x1="523.9" y1="247.5" x2="499.1" y2="237.6"/>
		</g>
		<g id="SPLINE_22_">
			<path class="st3" d="M499.1,237.6c-22.9-8.4-46.2-15.5-69.9-21.2"/>
		</g>
		<g id="SPLINE_21_">
			<path class="st3" d="M429.2,216.4c-24.7-6.6-50.3-9.7-75.9-8.8"/>
		</g>
	</g>
</g>
<g id="POLYLINE_5_">
	<g>
		<polygon class="st3" points="353.3,207.6 328.9,211.3 318.8,213.3 305.8,216.4 290.2,220.8 277.9,222.9 263.7,223.7 248.7,222.8 
			238.4,221.1 221.7,216.4 198,211.2 174.1,207.6 		"/>
	</g>
</g>
<g id="HATCH">
	<pattern  id="SVGID_3_" xlink:href="#diagonal_cross_hatch" patternTransform="matrix(1 0 0 1 10.5223 -108.9664)">
	</pattern>
	<polygon class="st4" points="353.3,207.6 328.9,211.3 318.8,213.3 305.8,216.4 290.2,220.8 277.9,222.9 263.7,223.7 248.7,222.8 
		238.4,221.1 221.7,216.4 198,211.2 174.1,207.6 	"/>
</g>
<g id="POLYLINE_7_">
	<g id="POLYLINE_8_">
		<g>
			<g>
				<g>
					<polyline class="st5" points="277,221.9 305.5,264 333.7,264 					"/>
					<g>
						<polygon class="st6" points="276,224.3 273.2,216.4 279.6,221.9 						"/>
					</g>
				</g>
			</g>
		</g>
	</g>
</g>
<g id="MTEXT">
	<g>
		<text transform="matrix(1 0 0 1 254.7071 320.854)" class="st6 st7 st8">Section</text>
	</g>
</g>
<g id="MTEXT_2_">
	<g>
		<rect x="338.7" y="257.6" class="st9" width="133.4" height="35.3"/>
		<text transform="matrix(1 0 0 1 338.6924 267.9059)"><tspan x="0" y="0" class="st6 st10 st8">Fill to ensure water </tspan><tspan x="0" y="14.4" class="st6 st10 st8">run-off under building</tspan></text>
	</g>
</g>
<g id="Timber_Section_3_">
</g>
<g>
	<g>
		<g id="POLYLINE_1_">
			<g>
				<rect x="214.6" y="216.6" class="st3" width="17" height="26"/>
			</g>
		</g>
		<g id="LINE_4_">
			<g>
				<line class="st3" x1="220.7" y1="216.6" x2="220.7" y2="194.1"/>
			</g>
		</g>
		<g id="LINE_5_">
			<g>
				<line class="st3" x1="225.4" y1="216.6" x2="225.4" y2="194.1"/>
			</g>
		</g>
	</g>
	<g>
		<g>
			<g id="LINE_3_">
				<line class="st2" x1="220.3" y1="193.8" x2="225.8" y2="180.9"/>
			</g>
			<g id="LINE_2_">
				<line class="st2" x1="225.8" y1="193.8" x2="220.3" y2="180.9"/>
			</g>
		</g>
		<rect x="220.3" y="181" class="st3" width="5.5" height="12.7"/>
	</g>
</g>
<g>
	<g>
		<g id="POLYLINE_3_">
			<g>
				<rect x="295.9" y="216.6" class="st3" width="17" height="26"/>
			</g>
		</g>
		<g id="LINE_12_">
			<g>
				<line class="st3" x1="306.7" y1="216.6" x2="306.7" y2="194.1"/>
			</g>
		</g>
		<g id="LINE_13_">
			<g>
				<line class="st3" x1="302.1" y1="216.6" x2="302.1" y2="194.1"/>
			</g>
		</g>
	</g>
	<g>
		<g>
			<g id="LINE_20_">
				<line class="st2" x1="301.7" y1="193.8" x2="307.1" y2="180.9"/>
			</g>
			<g id="LINE_19_">
				<line class="st2" x1="307.1" y1="193.8" x2="301.7" y2="180.9"/>
			</g>
		</g>
		<rect x="301.7" y="181" class="st3" width="5.5" height="12.7"/>
	</g>
</g>
<g>
	<g>
		<g id="POLYLINE_2_">
			<g>
				<rect x="377.2" y="211.9" class="st3" width="17" height="26"/>
			</g>
		</g>
		<g id="LINE_8_">
			<g>
				<line class="st3" x1="388.1" y1="211.9" x2="388.1" y2="194.1"/>
			</g>
		</g>
		<g id="LINE_9_">
			<g>
				<line class="st3" x1="383.4" y1="211.9" x2="383.4" y2="194.1"/>
			</g>
		</g>
	</g>
	<g>
		<g>
			<g id="LINE_22_">
				<line class="st2" x1="383" y1="193.8" x2="388.5" y2="180.9"/>
			</g>
			<g id="LINE_21_">
				<line class="st2" x1="388.5" y1="193.8" x2="383" y2="180.9"/>
			</g>
		</g>
		<rect x="383" y="181" class="st3" width="5.5" height="12.7"/>
	</g>
</g>
<g id="Timber_Section_2_">
</g>
<g id="Timber_Section_1_">
</g>
<g id="Timber_Section">
</g>
<g id="LINE_35_">
	<g>
		<polygon class="st11" points="411.4,89.7 263.7,28.3 116.1,89.7 133.2,89.7 133.2,180.7 394.2,180.7 394.2,89.7 		"/>
	</g>
</g>
</svg>
