<?xml version="1.0" encoding="utf-8"?>
<!-- Generator: Adobe Illustrator 26.0.3, SVG Export Plug-In . SVG Version: 6.00 Build 0)  -->
<svg version="1.1" id="_x30_" xmlns="http://www.w3.org/2000/svg" xmlns:xlink="http://www.w3.org/1999/xlink" x="0px" y="0px"
	 viewBox="0 0 552.76 427.1" style="enable-background:new 0 0 552.76 427.1;" xml:space="preserve">
<style type="text/css">
	.st0{fill:none;}
	.st1{fill:none;stroke:#000000;stroke-width:0.5;stroke-miterlimit:10;}
	.st2{fill-rule:evenodd;clip-rule:evenodd;fill:url(#SVGID_1_);}
	.st3{fill-rule:evenodd;clip-rule:evenodd;fill:url(#SVGID_00000121979707299814079780000014559960367526933659_);}
	.st4{fill-rule:evenodd;clip-rule:evenodd;fill:url(#SVGID_00000160182753633081829760000003773247708068869256_);}
	.st5{fill:none;stroke:#231F20;stroke-width:0.75;stroke-miterlimit:10;}
	.st6{fill:#231F20;}
	.st7{font-family:'ArialMT';}
	.st8{font-size:12px;}
	.st9{fill-rule:evenodd;clip-rule:evenodd;fill:#231F20;}
	.st10{fill:none;stroke:#231F20;stroke-width:0.25;stroke-miterlimit:10;}
	.st11{fill:none;stroke:#ADADAD;stroke-width:0.5857;stroke-linecap:round;stroke-linejoin:round;stroke-miterlimit:10;}
	.st12{fill-rule:evenodd;clip-rule:evenodd;fill:#ADADAD;}
	.st13{fill:none;stroke:#231F20;stroke-miterlimit:10;}
	.st14{fill:none;stroke:#231F20;stroke-linecap:round;stroke-linejoin:round;stroke-miterlimit:10;}
	.st15{font-family:'Arial-BoldMT';}
	.st16{fill:none;stroke:#231F20;stroke-linecap:round;stroke-miterlimit:10;}
	.st17{fill:none;stroke:#231F20;stroke-linejoin:round;stroke-miterlimit:10;}
	.st18{font-family:'Arial-ItalicMT';}
	.st19{fill:none;stroke:#231F20;stroke-width:2;stroke-miterlimit:10;}
	.st20{fill:none;stroke:#231F20;stroke-width:2;stroke-miterlimit:10;stroke-dasharray:15.7326,7.8663;}
	.st21{fill:none;stroke:#231F20;stroke-width:2;stroke-miterlimit:10;stroke-dasharray:10.3435,5.1718;}
	.st22{fill:none;stroke:#231F20;stroke-width:2;stroke-miterlimit:10;stroke-dasharray:11.9028,5.9514;}
	.st23{fill:none;stroke:#231F20;stroke-width:2;stroke-miterlimit:10;stroke-dasharray:13.2693,6.6346;}
	.st24{fill:none;stroke:#231F20;stroke-width:2;stroke-miterlimit:10;stroke-dasharray:11.3993,5.6997;}
	.st25{fill:none;stroke:#231F20;stroke-width:2;stroke-miterlimit:10;stroke-dasharray:10.1187,5.0594;}
	.st26{fill:none;stroke:#231F20;stroke-width:2;stroke-miterlimit:10;stroke-dasharray:10.2987,5.1494;}
	.st27{fill:none;stroke:#231F20;stroke-width:2;stroke-miterlimit:10;stroke-dasharray:13.5551,6.7776;}
	.st28{fill:none;stroke:#231F20;stroke-width:2;stroke-miterlimit:10;stroke-dasharray:11.1723,5.5861;}
	.st29{fill:none;stroke:#231F20;stroke-width:2;stroke-miterlimit:10;stroke-dasharray:14.3063,7.1532;}
</style>
<pattern  x="-23.62" y="716.17" width="90.71" height="90.71" patternUnits="userSpaceOnUse" id="Earth" viewBox="10.99 -102.76 90.71 90.71" style="overflow:visible;">
	<g>
		<rect x="10.99" y="-102.76" class="st0" width="90.71" height="90.71"/>
		<g>
			<line class="st1" x1="45.07" y1="-0.45" x2="56.82" y2="-12.2"/>
			<line class="st1" x1="33.66" y1="-12.05" x2="22.42" y2="-0.81"/>
			<line class="st1" x1="67.59" y1="-0.18" x2="79.35" y2="-11.93"/>
			<line class="st1" x1="88.45" y1="-0.18" x2="100.21" y2="-11.93"/>
		</g>
		<g>
			<line class="st1" x1="113.03" y1="-72.55" x2="101.7" y2="-83.88"/>
			<line class="st1" x1="101.84" y1="-61.21" x2="112.91" y2="-50.13"/>
			<line class="st1" x1="101.39" y1="-38.46" x2="112.46" y2="-27.39"/>
			<line class="st1" x1="100.42" y1="-15.44" x2="111.49" y2="-4.37"/>
		</g>
		<g>
			<line class="st1" x1="29.6" y1="-79.82" x2="18.52" y2="-90.9"/>
			<line class="st1" x1="27.18" y1="-77.41" x2="15.9" y2="-88.7"/>
			<line class="st1" x1="24.76" y1="-74.98" x2="13.42" y2="-86.32"/>
			<line class="st1" x1="22.33" y1="-72.55" x2="10.99" y2="-83.88"/>
			<line class="st1" x1="52.34" y1="-83.88" x2="64.13" y2="-95.67"/>
			<line class="st1" x1="49.93" y1="-86.3" x2="61.72" y2="-98.08"/>
			<line class="st1" x1="47.51" y1="-88.72" x2="59.22" y2="-100.44"/>
			<line class="st1" x1="45.07" y1="-91.15" x2="56.82" y2="-102.91"/>
			<line class="st1" x1="34" y1="-84.22" x2="45.07" y2="-73.15"/>
			<line class="st1" x1="36.41" y1="-86.64" x2="47.7" y2="-75.35"/>
			<line class="st1" x1="38.84" y1="-89.06" x2="50.17" y2="-77.73"/>
			<line class="st1" x1="41.27" y1="-91.5" x2="52.6" y2="-80.16"/>
			<line class="st1" x1="33.66" y1="-102.76" x2="22.42" y2="-91.52"/>
			<line class="st1" x1="36.07" y1="-100.34" x2="24.79" y2="-89.06"/>
			<line class="st1" x1="38.5" y1="-97.92" x2="27.16" y2="-86.59"/>
			<line class="st1" x1="40.93" y1="-95.49" x2="29.6" y2="-84.15"/>
			<line class="st1" x1="29.48" y1="-60.86" x2="41.27" y2="-72.65"/>
			<line class="st1" x1="27.07" y1="-63.28" x2="38.85" y2="-75.06"/>
			<line class="st1" x1="24.64" y1="-65.7" x2="36.36" y2="-77.42"/>
			<line class="st1" x1="22.2" y1="-68.14" x2="33.96" y2="-79.89"/>
			<line class="st1" x1="11.13" y1="-61.21" x2="22.2" y2="-50.13"/>
			<line class="st1" x1="13.55" y1="-63.62" x2="24.83" y2="-52.33"/>
			<line class="st1" x1="15.97" y1="-66.05" x2="27.31" y2="-54.71"/>
			<line class="st1" x1="18.4" y1="-68.48" x2="29.74" y2="-57.15"/>
			<line class="st1" x1="74.87" y1="-83.61" x2="86.66" y2="-95.4"/>
			<line class="st1" x1="72.46" y1="-86.03" x2="84.24" y2="-97.81"/>
			<line class="st1" x1="70.03" y1="-88.45" x2="81.75" y2="-100.17"/>
			<line class="st1" x1="67.59" y1="-90.89" x2="79.35" y2="-102.64"/>
			<line class="st1" x1="56.52" y1="-83.96" x2="67.59" y2="-72.88"/>
			<line class="st1" x1="58.94" y1="-86.37" x2="70.22" y2="-75.08"/>
			<line class="st1" x1="61.36" y1="-88.8" x2="72.7" y2="-77.46"/>
			<line class="st1" x1="63.79" y1="-91.23" x2="75.13" y2="-79.9"/>
			<line class="st1" x1="52.01" y1="-60.6" x2="63.79" y2="-72.38"/>
			<line class="st1" x1="49.59" y1="-63.01" x2="61.38" y2="-74.79"/>
			<line class="st1" x1="47.17" y1="-65.44" x2="58.88" y2="-77.15"/>
			<line class="st1" x1="44.73" y1="-67.87" x2="56.49" y2="-79.62"/>
			<line class="st1" x1="33.66" y1="-60.94" x2="44.73" y2="-49.86"/>
			<line class="st1" x1="36.07" y1="-63.35" x2="47.36" y2="-52.06"/>
			<line class="st1" x1="38.5" y1="-65.78" x2="49.83" y2="-54.44"/>
			<line class="st1" x1="40.93" y1="-68.21" x2="52.26" y2="-56.88"/>
			<line class="st1" x1="29.03" y1="-38.12" x2="40.81" y2="-49.91"/>
			<line class="st1" x1="26.61" y1="-40.53" x2="38.4" y2="-52.32"/>
			<line class="st1" x1="24.19" y1="-42.96" x2="35.9" y2="-54.68"/>
			<line class="st1" x1="21.75" y1="-45.39" x2="33.51" y2="-57.15"/>
			<line class="st1" x1="10.68" y1="-38.46" x2="21.75" y2="-27.39"/>
			<line class="st1" x1="13.09" y1="-40.87" x2="24.38" y2="-29.59"/>
			<line class="st1" x1="15.52" y1="-43.3" x2="26.85" y2="-31.97"/>
			<line class="st1" x1="17.95" y1="-45.74" x2="29.28" y2="-34.4"/>
			<line class="st1" x1="73.9" y1="-60.6" x2="85.69" y2="-72.38"/>
			<line class="st1" x1="71.49" y1="-63.01" x2="83.27" y2="-74.79"/>
			<line class="st1" x1="69.06" y1="-65.44" x2="80.78" y2="-77.15"/>
			<line class="st1" x1="66.62" y1="-67.87" x2="78.38" y2="-79.62"/>
			<line class="st1" x1="55.55" y1="-60.94" x2="66.62" y2="-49.86"/>
			<line class="st1" x1="57.97" y1="-63.35" x2="69.25" y2="-52.06"/>
			<line class="st1" x1="60.39" y1="-65.78" x2="71.72" y2="-54.44"/>
			<line class="st1" x1="62.82" y1="-68.21" x2="74.16" y2="-56.88"/>
			<line class="st1" x1="51.03" y1="-37.58" x2="62.82" y2="-49.36"/>
			<line class="st1" x1="48.62" y1="-39.99" x2="60.4" y2="-51.77"/>
			<line class="st1" x1="46.19" y1="-42.42" x2="57.91" y2="-54.13"/>
			<line class="st1" x1="43.76" y1="-44.85" x2="55.51" y2="-56.6"/>
			<line class="st1" x1="32.69" y1="-37.92" x2="43.76" y2="-26.85"/>
			<line class="st1" x1="35.1" y1="-40.33" x2="46.39" y2="-29.05"/>
			<line class="st1" x1="37.53" y1="-42.76" x2="48.86" y2="-31.42"/>
			<line class="st1" x1="39.96" y1="-45.19" x2="51.29" y2="-33.86"/>
			<line class="st1" x1="28.05" y1="-15.1" x2="39.84" y2="-26.89"/>
			<line class="st1" x1="25.64" y1="-17.52" x2="37.43" y2="-29.3"/>
			<line class="st1" x1="23.21" y1="-19.94" x2="34.93" y2="-31.66"/>
			<line class="st1" x1="20.78" y1="-22.37" x2="32.53" y2="-34.13"/>
			<line class="st1" x1="9.71" y1="-15.44" x2="20.78" y2="-4.37"/>
			<line class="st1" x1="12.12" y1="-17.85" x2="23.41" y2="-6.57"/>
			<line class="st1" x1="14.55" y1="-20.28" x2="25.88" y2="-8.95"/>
			<line class="st1" x1="16.98" y1="-22.72" x2="28.31" y2="-11.38"/>
			<line class="st1" x1="95.72" y1="-83.61" x2="107.51" y2="-95.4"/>
			<line class="st1" x1="93.31" y1="-86.03" x2="105.1" y2="-97.81"/>
			<line class="st1" x1="90.89" y1="-88.45" x2="102.6" y2="-100.17"/>
			<line class="st1" x1="88.45" y1="-90.89" x2="100.21" y2="-102.64"/>
			<line class="st1" x1="77.38" y1="-83.96" x2="88.45" y2="-72.88"/>
			<line class="st1" x1="79.79" y1="-86.37" x2="91.08" y2="-75.08"/>
			<line class="st1" x1="82.22" y1="-88.8" x2="93.55" y2="-77.46"/>
			<line class="st1" x1="84.65" y1="-91.23" x2="95.98" y2="-79.9"/>
			<line class="st1" x1="74.36" y1="-38.16" x2="86.14" y2="-49.95"/>
			<line class="st1" x1="71.94" y1="-40.57" x2="83.73" y2="-52.36"/>
			<line class="st1" x1="69.52" y1="-43" x2="81.23" y2="-54.72"/>
			<line class="st1" x1="67.08" y1="-45.43" x2="78.84" y2="-57.19"/>
			<line class="st1" x1="56.01" y1="-38.5" x2="67.08" y2="-27.43"/>
			<line class="st1" x1="58.42" y1="-40.91" x2="69.71" y2="-29.63"/>
			<line class="st1" x1="60.85" y1="-43.34" x2="72.18" y2="-32.01"/>
			<line class="st1" x1="63.28" y1="-45.78" x2="74.61" y2="-34.44"/>
			<line class="st1" x1="51.49" y1="-15.14" x2="63.28" y2="-26.93"/>
			<line class="st1" x1="49.08" y1="-17.56" x2="60.86" y2="-29.34"/>
			<line class="st1" x1="46.65" y1="-19.98" x2="58.37" y2="-31.7"/>
			<line class="st1" x1="44.22" y1="-22.41" x2="55.97" y2="-34.17"/>
			<line class="st1" x1="33.14" y1="-15.48" x2="44.22" y2="-4.41"/>
			<line class="st1" x1="35.56" y1="-17.89" x2="46.84" y2="-6.61"/>
			<line class="st1" x1="37.98" y1="-20.32" x2="49.32" y2="-8.99"/>
			<line class="st1" x1="40.41" y1="-22.76" x2="51.75" y2="-11.42"/>
			<line class="st1" x1="96.59" y1="-60.86" x2="108.38" y2="-72.65"/>
			<line class="st1" x1="94.18" y1="-63.28" x2="105.96" y2="-75.06"/>
			<line class="st1" x1="91.75" y1="-65.7" x2="103.47" y2="-77.42"/>
			<line class="st1" x1="89.32" y1="-68.14" x2="101.07" y2="-79.89"/>
			<line class="st1" x1="78.25" y1="-61.21" x2="89.32" y2="-50.13"/>
			<line class="st1" x1="80.66" y1="-63.62" x2="91.95" y2="-52.33"/>
			<line class="st1" x1="83.09" y1="-66.05" x2="94.42" y2="-54.71"/>
			<line class="st1" x1="85.52" y1="-68.48" x2="96.85" y2="-57.15"/>
			<line class="st1" x1="96.75" y1="-38.14" x2="108.53" y2="-49.93"/>
			<line class="st1" x1="94.33" y1="-40.55" x2="106.12" y2="-52.34"/>
			<line class="st1" x1="91.91" y1="-42.98" x2="103.62" y2="-54.7"/>
			<line class="st1" x1="89.47" y1="-45.41" x2="101.23" y2="-57.16"/>
			<line class="st1" x1="78.4" y1="-38.48" x2="89.47" y2="-27.41"/>
			<line class="st1" x1="80.81" y1="-40.89" x2="92.1" y2="-29.61"/>
			<line class="st1" x1="83.24" y1="-43.32" x2="94.57" y2="-31.99"/>
			<line class="st1" x1="85.67" y1="-45.75" x2="97" y2="-34.42"/>
			<line class="st1" x1="73.88" y1="-15.12" x2="85.67" y2="-26.91"/>
			<line class="st1" x1="71.47" y1="-17.53" x2="83.25" y2="-29.32"/>
			<line class="st1" x1="69.04" y1="-19.96" x2="80.76" y2="-31.68"/>
			<line class="st1" x1="66.61" y1="-22.39" x2="78.36" y2="-34.15"/>
			<line class="st1" x1="55.82" y1="-15.48" x2="66.9" y2="-4.41"/>
			<line class="st1" x1="58.24" y1="-17.89" x2="69.52" y2="-6.61"/>
			<line class="st1" x1="60.66" y1="-20.32" x2="72" y2="-8.99"/>
			<line class="st1" x1="63.09" y1="-22.76" x2="74.43" y2="-11.42"/>
			<line class="st1" x1="96.69" y1="-15.82" x2="108.47" y2="-27.61"/>
			<line class="st1" x1="94.27" y1="-18.24" x2="106.06" y2="-30.02"/>
			<line class="st1" x1="91.85" y1="-20.66" x2="103.56" y2="-32.38"/>
			<line class="st1" x1="89.41" y1="-23.09" x2="101.17" y2="-34.85"/>
			<line class="st1" x1="78.63" y1="-16.19" x2="89.7" y2="-5.11"/>
			<line class="st1" x1="81.04" y1="-18.6" x2="92.33" y2="-7.31"/>
			<line class="st1" x1="83.47" y1="-21.02" x2="94.8" y2="-9.69"/>
			<line class="st1" x1="85.67" y1="-23.22" x2="97" y2="-11.89"/>
		</g>
		<g>
			<line class="st1" x1="5.02" y1="-83.61" x2="16.8" y2="-95.4"/>
			<line class="st1" x1="2.6" y1="-86.03" x2="14.39" y2="-97.81"/>
			<line class="st1" x1="0.18" y1="-88.45" x2="11.89" y2="-100.17"/>
			<line class="st1" x1="5.88" y1="-60.86" x2="17.67" y2="-72.65"/>
			<line class="st1" x1="3.47" y1="-63.28" x2="15.26" y2="-75.06"/>
			<line class="st1" x1="1.05" y1="-65.7" x2="12.76" y2="-77.42"/>
			<line class="st1" x1="6.04" y1="-38.14" x2="17.82" y2="-49.93"/>
			<line class="st1" x1="3.63" y1="-40.55" x2="15.41" y2="-52.34"/>
			<line class="st1" x1="1.2" y1="-42.98" x2="12.92" y2="-54.7"/>
			<line class="st1" x1="5.98" y1="-15.82" x2="17.76" y2="-27.61"/>
			<line class="st1" x1="3.57" y1="-18.24" x2="15.35" y2="-30.02"/>
			<line class="st1" x1="1.14" y1="-20.66" x2="12.85" y2="-32.38"/>
		</g>
		<g>
			<line class="st1" x1="100.42" y1="-106.15" x2="111.49" y2="-95.08"/>
		</g>
		<g>
			<line class="st1" x1="9.71" y1="-106.15" x2="20.78" y2="-95.08"/>
			<line class="st1" x1="12.12" y1="-108.56" x2="23.41" y2="-97.28"/>
			<line class="st1" x1="14.55" y1="-110.99" x2="25.88" y2="-99.66"/>
			<line class="st1" x1="16.98" y1="-113.43" x2="28.31" y2="-102.09"/>
			<line class="st1" x1="33.14" y1="-106.19" x2="44.22" y2="-95.12"/>
			<line class="st1" x1="35.56" y1="-108.6" x2="46.84" y2="-97.32"/>
			<line class="st1" x1="37.98" y1="-111.03" x2="49.32" y2="-99.7"/>
			<line class="st1" x1="40.41" y1="-113.47" x2="51.75" y2="-102.13"/>
			<line class="st1" x1="55.82" y1="-106.19" x2="66.9" y2="-95.12"/>
			<line class="st1" x1="58.24" y1="-108.6" x2="69.52" y2="-97.32"/>
			<line class="st1" x1="60.66" y1="-111.03" x2="72" y2="-99.7"/>
			<line class="st1" x1="63.09" y1="-113.47" x2="74.43" y2="-102.13"/>
			<line class="st1" x1="78.63" y1="-106.89" x2="89.7" y2="-95.82"/>
			<line class="st1" x1="81.04" y1="-109.31" x2="92.33" y2="-98.02"/>
			<line class="st1" x1="83.47" y1="-111.73" x2="94.8" y2="-100.4"/>
			<line class="st1" x1="85.67" y1="-113.93" x2="97" y2="-102.6"/>
		</g>
	</g>
</pattern>
<g>
	<g id="HATCH">
		<pattern  id="SVGID_1_" xlink:href="#Earth" patternTransform="matrix(1 0 0 1 197.9198 -65.1538)">
		</pattern>
		<rect x="349.18" y="307.5" class="st2" width="27.5" height="7.9"/>
	</g>
	<g id="HATCH_2_">
		
			<pattern  id="SVGID_00000094611815477480224160000005244346078896558014_" xlink:href="#Earth" patternTransform="matrix(1 0 0 1 197.9198 -65.1538)">
		</pattern>
		
			<polygon style="fill-rule:evenodd;clip-rule:evenodd;fill:url(#SVGID_00000094611815477480224160000005244346078896558014_);" points="
			95.26,323.78 99.36,323.6 101.6,322.85 107,321.74 111.29,319.5 112.04,319.23 115.41,325.79 112.12,327.31 105.28,328.95 
			97.42,329.71 90.45,330.98 81.71,332.88 71.19,336.42 69.87,329.51 73.27,328.07 79.05,326.58 83.89,325.83 87.8,325.09 
			91.35,324.34 		"/>
	</g>
	<g id="HATCH_5_">
		
			<pattern  id="SVGID_00000117659612059784357140000012913841993234982288_" xlink:href="#Earth" patternTransform="matrix(1 0 0 1 197.9198 -65.1538)">
		</pattern>
		
			<polygon style="fill-rule:evenodd;clip-rule:evenodd;fill:url(#SVGID_00000117659612059784357140000012913841993234982288_);" points="
			210.07,133.75 213.47,132.51 217.26,131.39 221.29,130.62 223.4,129.56 225.08,128.96 227.28,135.41 222.38,137.37 211.75,140.15 
			202.43,143.75 195.56,146.85 194.9,145.71 192.73,140.83 196.11,138.79 201.62,136.48 206.3,135.05 		"/>
	</g>
</g>
<g>
	<g id="LINE_16_">
		<line class="st5" x1="392.75" y1="240.83" x2="410.8" y2="240.83"/>
	</g>
	<g id="LINE_17_">
		<line class="st5" x1="392.75" y1="242.74" x2="410.8" y2="242.74"/>
	</g>
	<g id="LINE_18_">
		<line class="st5" x1="392.75" y1="253.73" x2="410.8" y2="253.73"/>
	</g>
	<g id="LINE_19_">
		<line class="st5" x1="392.75" y1="255.63" x2="410.8" y2="255.63"/>
	</g>
	<g id="LINE_20_">
		<line class="st5" x1="392.75" y1="266.51" x2="410.8" y2="266.51"/>
	</g>
	<g id="LINE_21_">
		<line class="st5" x1="392.75" y1="268.41" x2="410.8" y2="268.41"/>
	</g>
	<g id="LINE_22_">
		<line class="st5" x1="392.75" y1="279.29" x2="410.8" y2="279.29"/>
	</g>
	<g id="LINE_23_">
		<line class="st5" x1="392.75" y1="281.19" x2="410.8" y2="281.19"/>
	</g>
	<g id="LINE_24_">
		<line class="st5" x1="392.75" y1="290.94" x2="410.8" y2="290.94"/>
	</g>
	<g id="LINE_25_">
		<line class="st5" x1="392.75" y1="292.84" x2="410.8" y2="292.84"/>
	</g>
	<g id="LINE_26_">
		<line class="st5" x1="392.75" y1="304.73" x2="410.8" y2="304.73"/>
	</g>
	<g id="LINE_27_">
		<line class="st5" x1="392.75" y1="306.63" x2="410.8" y2="306.63"/>
	</g>
	<g id="LINE_28_">
		<line class="st5" x1="392.75" y1="317.4" x2="410.8" y2="317.4"/>
	</g>
	<g id="LINE_29_">
		<line class="st5" x1="392.75" y1="319.3" x2="410.8" y2="319.3"/>
	</g>
	<g id="LINE_30_">
		<line class="st5" x1="392.75" y1="292.84" x2="410.8" y2="304.73"/>
	</g>
	<g id="LINE_31_">
		<line class="st5" x1="392.75" y1="304.73" x2="410.8" y2="292.84"/>
	</g>
	<g id="LINE_32_">
		<line class="st5" x1="419.97" y1="240.91" x2="438.02" y2="240.91"/>
	</g>
	<g id="LINE_33_">
		<line class="st5" x1="419.97" y1="242.81" x2="438.02" y2="242.81"/>
	</g>
	<g id="LINE_34_">
		<line class="st5" x1="419.97" y1="253.56" x2="438.02" y2="253.56"/>
	</g>
	<g id="LINE_35_">
		<line class="st5" x1="419.97" y1="255.46" x2="438.02" y2="255.46"/>
	</g>
	<g id="LINE_36_">
		<line class="st5" x1="419.97" y1="266.34" x2="438.02" y2="266.34"/>
	</g>
	<g id="LINE_37_">
		<line class="st5" x1="419.97" y1="268.24" x2="438.02" y2="268.24"/>
	</g>
	<g id="LINE_38_">
		<line class="st5" x1="419.97" y1="279.02" x2="438.02" y2="279.02"/>
	</g>
	<g id="LINE_39_">
		<line class="st5" x1="419.97" y1="280.92" x2="438.02" y2="280.92"/>
	</g>
</g>
<g id="LINE_51_">
	<g>
		<line class="st5" x1="237.58" y1="39.24" x2="255.63" y2="39.24"/>
	</g>
</g>
<g id="LINE_52_">
	<g>
		<line class="st5" x1="237.58" y1="41.14" x2="255.63" y2="41.14"/>
	</g>
</g>
<g id="LINE_53_">
	<g>
		<line class="st5" x1="237.58" y1="54.13" x2="255.63" y2="54.13"/>
	</g>
</g>
<g id="LINE_54_">
	<g>
		<line class="st5" x1="237.58" y1="56.03" x2="255.63" y2="56.03"/>
	</g>
</g>
<g id="LINE_58_">
	<line class="st5" x1="237.58" y1="69.91" x2="255.63" y2="83.25"/>
</g>
<g id="LINE_59_">
	<line class="st5" x1="255.63" y1="69.91" x2="237.58" y2="83.25"/>
</g>
<g id="MTEXT">
	<g>
		<text transform="matrix(0 -1 1 0 108.2008 362.435)" class="st6 st7 st8">≥150</text>
	</g>
</g>
<g id="HATCH_1_">
	<g>
		<polygon class="st9" points="416.82,278.15 418.04,278.15 418.04,283.47 410.8,305.53 410.8,296.51 		"/>
	</g>
</g>
<g id="HATCH_3_">
	<g>
		<polygon class="st9" points="128.65,309.99 126.74,312.21 125.01,310.71 127.61,307.71 128.65,307.71 147.44,307.71 
			147.44,274.48 149.72,274.48 149.72,309.99 		"/>
	</g>
</g>
<g id="HATCH_4_">
	<g>
		<path class="st9" d="M255.72,86.68h-14.44c-0.5,0-0.99,0.2-1.35,0.56c-0.36,0.36-0.56,0.84-0.56,1.34v14.58h-1.9V88.58
			c0-1.01,0.4-1.98,1.11-2.69c0.71-0.71,1.68-1.11,2.69-1.11h14.06c0.5,0,0.99-0.2,1.35-0.56c0.36-0.36,0.56-0.84,0.56-1.35V64.87
			h2.28v18.01C259.52,84.98,257.82,86.68,255.72,86.68z"/>
	</g>
</g>
<g id="POLYLINE_7_">
	<g id="POLYLINE_6_">
		<g>
			<g>
				<g>
					<polyline class="st10" points="466.69,305.45 466.69,256.36 478.82,256.36 					"/>
					<g>
						<polygon class="st6" points="468.87,303.97 466.69,312.1 464.51,303.97 						"/>
					</g>
				</g>
			</g>
		</g>
	</g>
</g>
<g>
	<g id="LINE_98_">
		<line class="st10" x1="123.04" y1="329.3" x2="107.16" y2="329.3"/>
	</g>
	<g id="LINE_99_">
		<line class="st10" x1="123.04" y1="368.96" x2="107.16" y2="368.96"/>
	</g>
</g>
<g id="LINE_100_">
	<g id="LINE_146_">
		<g>
			<g>
				<g>
					<line class="st10" x1="112.86" y1="362.32" x2="112.86" y2="335.95"/>
					<g>
						<polygon class="st6" points="115.04,360.83 112.86,368.96 110.69,360.83 						"/>
					</g>
					<g>
						<polygon class="st6" points="115.04,337.43 112.86,329.3 110.69,337.43 						"/>
					</g>
				</g>
			</g>
		</g>
	</g>
</g>
<g id="POLYLINE_11_">
	<g id="POLYLINE_8_">
		<g>
			<g>
				<g>
					<polyline class="st10" points="103.29,316.25 88.79,303.05 68.84,303.05 					"/>
					<g>
						<polygon class="st6" points="103.66,313.64 108.2,320.72 100.72,316.86 						"/>
					</g>
				</g>
			</g>
		</g>
	</g>
</g>
<g id="POLYLINE_12_">
	<path class="st11" d="M98.48,314.45"/>
	<path class="st11" d="M108.2,320.72"/>
</g>
<g id="HATCH_9_">
	<path class="st12" d="M108.2,320.72"/>
</g>
<g id="POLYLINE_13_">
	<g id="POLYLINE_14_">
		<g>
			<g>
				<g>
					<polyline class="st10" points="320,92.35 336.72,36.12 352.11,36.12 					"/>
					<g>
						<polygon class="st6" points="322.51,91.54 318.11,98.72 318.34,90.3 						"/>
					</g>
				</g>
			</g>
		</g>
	</g>
</g>
<g id="POLYLINE_15_">
	<g id="POLYLINE_10_">
		<g>
			<g>
				<g>
					<polyline class="st10" points="203.71,129.3 160.7,89 118.31,89 					"/>
					<g>
						<polygon class="st6" points="204.11,126.69 208.56,133.84 201.13,129.87 						"/>
					</g>
				</g>
			</g>
		</g>
	</g>
</g>
<g id="POLYLINE_17_">
	<g id="POLYLINE_9_">
		<g>
			<g>
				<g>
					<polyline class="st10" points="234.12,130.92 188.56,166.3 153.96,166.3 					"/>
					<g>
						<polygon class="st6" points="231.61,130.11 239.37,126.84 234.29,133.55 						"/>
					</g>
				</g>
			</g>
		</g>
	</g>
</g>
<g id="POLYLINE_19_">
	<g>
		<g>
			<polyline class="st10" points="372.08,301.32 382.63,269.37 371.9,269.37 			"/>
			<g>
				<polygon class="st6" points="374.62,300.59 370,307.63 370.48,299.22 				"/>
			</g>
		</g>
	</g>
</g>
<g id="LINE_114_">
	<line class="st13" x1="392.75" y1="307.63" x2="337.38" y2="307.63"/>
</g>
<g>
	<g id="LINE_111_">
		<line class="st14" x1="419.94" y1="293.29" x2="419.94" y2="327.42"/>
	</g>
	<g id="LINE_112_">
		<line class="st14" x1="410.8" y1="237.7" x2="410.8" y2="331.23"/>
	</g>
	<g id="LINE_113_">
		<line class="st14" x1="392.75" y1="237.7" x2="392.75" y2="331.23"/>
	</g>
	<g id="LINE_115_">
		<line class="st14" x1="419.94" y1="293.29" x2="519.2" y2="293.29"/>
	</g>
	<g id="LINE_116_">
		<line class="st14" x1="456.28" y1="310.2" x2="519.2" y2="310.2"/>
	</g>
	<g id="LINE_117_">
		<line class="st14" x1="440.84" y1="327.42" x2="456.28" y2="310.2"/>
	</g>
	<g id="LINE_118_">
		<line class="st14" x1="387.54" y1="373.08" x2="439.66" y2="373.08"/>
	</g>
	<g id="LINE_119_">
		<line class="st14" x1="439.66" y1="373.08" x2="439.66" y2="331.23"/>
	</g>
	<g id="LINE_120_">
		<line class="st14" x1="440.84" y1="327.42" x2="419.94" y2="327.42"/>
	</g>
	<g id="LINE_121_">
		<line class="st14" x1="387.54" y1="331.23" x2="387.54" y2="373.08"/>
	</g>
	<g id="LINE_122_">
		<line class="st14" x1="439.66" y1="331.23" x2="387.54" y2="331.23"/>
	</g>
	<g id="LINE_123_">
		<line class="st14" x1="419.97" y1="291.94" x2="438.02" y2="291.94"/>
	</g>
	<g id="LINE_124_">
		<line class="st14" x1="438.02" y1="237.7" x2="438.02" y2="291.94"/>
	</g>
	<g id="LINE_125_">
		<line class="st14" x1="419.97" y1="237.7" x2="419.97" y2="291.94"/>
	</g>
</g>
<g id="MTEXT_8_">
	<g>
		<text transform="matrix(1 0 0 1 27.9589 261.8275)"><tspan x="0" y="0" class="st6 st7 st8">Finished </tspan><tspan x="0" y="14.4" class="st6 st7 st8">ground </tspan><tspan x="0" y="28.8" class="st6 st7 st8">including </tspan><tspan x="0" y="43.2" class="st6 st7 st8">paving</tspan></text>
	</g>
</g>
<g>
	<g id="POLYLINE_23_">
		<polyline class="st13" points="67.12,330.81 73.27,328.2 79.05,326.71 83.89,325.96 87.8,325.22 91.35,324.47 95.26,323.91 
			99.36,323.73 101.6,322.98 107,321.87 111.29,319.63 114.45,318.51 117.06,317.77 119.67,317.4 		"/>
	</g>
</g>
<g>
	<g id="MTEXT_1_">
		<g>
			<text transform="matrix(1 0 0 1 361.6407 393.627)" class="st6 st15 st8">(c) Masonry alternative</text>
		</g>
	</g>
	<g id="MTEXT_4_">
		<g>
			<text transform="matrix(1 0 0 1 52.9949 393.627)" class="st6 st15 st8">(b) Deep edge rebate alternative</text>
		</g>
	</g>
	<g id="MTEXT_9_">
		<g>
			<text transform="matrix(1 0 0 1 124.6613 197.2935)" class="st6 st15 st8">(a) Minimum rebate for cavity masonry or veneer wall</text>
		</g>
	</g>
</g>
<g id="MTEXT_10_">
</g>
<g>
	<g id="LINE_55_">
		<g>
			<line class="st13" x1="255.63" y1="69.91" x2="255.63" y2="83.25"/>
		</g>
	</g>
	<g id="LINE_56_">
		<g>
			<line class="st13" x1="237.58" y1="69.91" x2="237.58" y2="83.25"/>
		</g>
	</g>
	<g id="LINE_57_">
		<g>
			<polyline class="st13" points="237.58,81.15 237.58,83.25 255.63,83.25 255.63,80.82 			"/>
		</g>
	</g>
	<g id="POLYLINE_24_">
		<g>
			<polyline class="st13" points="237.58,31.46 237.58,69.91 255.63,69.91 255.63,31.46 			"/>
		</g>
	</g>
	<g id="POLYLINE_25_">
		<g>
			<polyline class="st13" points="261.37,31.46 261.37,79.91 274.07,79.91 274.07,31.46 			"/>
		</g>
	</g>
	<g id="LINE_136_">
		<g>
			<polyline class="st13" points="241.27,88.12 260.23,88.12 260.23,86.17 			"/>
		</g>
	</g>
	<g id="LINE_137_">
		<g>
			<polyline class="st13" points="360.63,79.91 260.23,79.91 260.23,82.03 260.23,86.17 			"/>
		</g>
	</g>
	<g id="LINE_138_">
		<g>
			<line class="st13" x1="300.34" y1="96.81" x2="360.63" y2="96.81"/>
		</g>
	</g>
	<g id="LINE_139_">
		<g>
			<polyline class="st13" points="284.89,114.05 300.34,96.81 302.38,96.81 			"/>
		</g>
	</g>
	<g id="LINE_140_">
		<g>
			<line class="st16" x1="241.27" y1="154.8" x2="284.89" y2="154.8"/>
		</g>
	</g>
	<g id="LINE_141_">
		<g>
			<polyline class="st13" points="284.89,154.8 284.89,114.05 286.3,112.47 			"/>
		</g>
	</g>
	<g id="LINE_142_">
		<g>
			<polyline class="st16" points="241.27,154.8 241.27,88.12 243.88,88.12 			"/>
		</g>
	</g>
	<g id="POLYLINE_26_">
		<polyline class="st17" points="190.4,142.38 196.11,138.92 201.62,136.61 206.3,135.18 210.07,133.88 213.47,132.64 
			217.26,131.52 221.29,130.75 223.4,129.69 228.59,127.81 232.51,124.99 235.48,123.43 237.96,122.32 241.49,120.57 		"/>
	</g>
</g>
<g id="MTEXT_13_">
</g>
<g>
	<g id="MTEXT_11_">
		<g>
			<text transform="matrix(1 0 0 1 28.1998 77.9067)"><tspan x="0" y="0" class="st6 st7 st8">Finished ground </tspan><tspan x="0" y="14.4" class="st6 st7 st8">including paving </tspan></text>
		</g>
	</g>
	<g id="MTEXT_14_">
		<g>
			<text transform="matrix(1 0 0 1 28.1998 140.378)"><tspan x="0" y="0" class="st6 st7 st8">Vapour barrier and </tspan><tspan x="0" y="14.4" class="st6 st7 st8">damp-proofing </tspan><tspan x="0" y="28.8" class="st6 st18 st8">membrane</tspan><tspan x="57.36" y="28.8" class="st6 st7 st8"> termination</tspan></text>
		</g>
	</g>
	<g id="MTEXT_16_">
		<g>
			<text transform="matrix(1 0 0 1 358.1522 38.2381)"><tspan x="0" y="0" class="st6 st7 st8">Vapour barrier or </tspan><tspan x="0" y="14.4" class="st6 st7 st8">damp-proofing </tspan><tspan x="80.71" y="14.4" class="st6 st18 st8">membrane</tspan><tspan x="138.07" y="14.4" class="st6 st7 st8"> </tspan></text>
		</g>
	</g>
</g>
<g>
	<g id="MTEXT_3_">
		<g>
			<text transform="matrix(1 0 0 1 485.7826 259.1552)"><tspan x="0" y="0" class="st6 st7 st8">Vapour </tspan><tspan x="-0.32" y="14.4" class="st6 st7 st8">Barrier </tspan></text>
		</g>
	</g>
	<g id="MTEXT_18_">
		<g>
			<text transform="matrix(1 0 0 1 280.3317 258.5467)"><tspan x="0" y="0" class="st6 st7 st8">Finished ground </tspan><tspan x="0" y="14.4" class="st6 st7 st8">including paving</tspan></text>
		</g>
	</g>
</g>
<g>
	<g id="LINE_46_">
		<g>
			<line class="st14" x1="146.66" y1="294.69" x2="146.66" y2="308.03"/>
		</g>
	</g>
	<g id="LINE_47_">
		<g>
			<line class="st14" x1="128.61" y1="294.69" x2="128.61" y2="308.03"/>
		</g>
	</g>
	<g id="LINE_48_">
		<g>
			<line class="st14" x1="128.61" y1="310.03" x2="146.66" y2="310.03"/>
		</g>
	</g>
	<g id="LINE_66_">
		<g>
			<line class="st14" x1="146.66" y1="308.03" x2="128.61" y2="308.03"/>
		</g>
	</g>
	<g id="POLYLINE_21_">
		<g>
			<polyline class="st14" points="128.61,238.6 128.61,294.69 146.66,294.69 146.66,238.6 			"/>
		</g>
	</g>
	<g id="POLYLINE_22_">
		<g>
			<polyline class="st14" points="152.53,238.6 152.53,286.05 165.23,286.05 165.23,238.6 			"/>
		</g>
	</g>
	<g id="LINE_126_">
		<g>
			<line class="st14" x1="146.66" y1="310.31" x2="146.66" y2="325.5"/>
		</g>
	</g>
	<g id="LINE_127_">
		<g>
			<line class="st14" x1="128.61" y1="310.31" x2="128.61" y2="325.5"/>
		</g>
	</g>
	<g id="LINE_128_">
		<g>
			<line class="st14" x1="150.46" y1="286.05" x2="249.79" y2="286.05"/>
		</g>
	</g>
	<g id="LINE_129_">
		<g>
			<line class="st14" x1="190.5" y1="302.96" x2="249.79" y2="302.96"/>
		</g>
	</g>
	<g id="LINE_130_">
		<g>
			<line class="st14" x1="175.05" y1="320.19" x2="190.5" y2="302.96"/>
		</g>
	</g>
	<g id="LINE_131_">
		<g>
			<line class="st14" x1="130.65" y1="368.96" x2="175.05" y2="368.96"/>
		</g>
	</g>
	<g id="LINE_132_">
		<g>
			<line class="st14" x1="175.05" y1="368.96" x2="175.05" y2="320.19"/>
		</g>
	</g>
	<g id="LINE_133_">
		<g>
			<line class="st14" x1="130.65" y1="329.3" x2="130.65" y2="368.96"/>
		</g>
	</g>
	<g id="LINE_134_">
		<g>
			<line class="st14" x1="146.66" y1="325.5" x2="128.61" y2="325.5"/>
		</g>
	</g>
	<g id="LINE_143_">
		<g>
			<line class="st14" x1="150.46" y1="329.3" x2="130.65" y2="329.3"/>
		</g>
	</g>
	<g id="LINE_144_">
		<g>
			<line class="st14" x1="150.46" y1="286.05" x2="150.46" y2="329.3"/>
		</g>
	</g>
</g>
<polyline class="st5" points="234.11,31.46 255.78,31.46 257.91,28.65 257.91,34.27 260.04,31.46 277.71,31.46 "/>
<path class="st13" d="M316.63,69.05"/>
<polyline class="st5" points="360.63,109.92 360.63,90.35 357.82,88.72 363.44,88.72 360.63,87.09 360.63,76.58 "/>
<polyline class="st5" points="125.97,238.26 147.64,238.26 149.77,235.44 149.77,241.07 151.9,238.26 169.57,238.26 "/>
<polyline class="st5" points="250.13,314.75 250.13,295.18 247.32,293.55 252.94,293.55 250.13,291.92 250.13,281.41 "/>
<g>
	<g id="LINE_40_">
		<line class="st5" x1="128.61" y1="249.97" x2="146.66" y2="249.97"/>
	</g>
	<g id="LINE_41_">
		<line class="st5" x1="128.61" y1="251.87" x2="146.66" y2="251.87"/>
	</g>
	<g id="LINE_42_">
		<line class="st5" x1="128.61" y1="265.02" x2="146.66" y2="265.02"/>
	</g>
	<g id="LINE_43_">
		<line class="st5" x1="128.61" y1="266.92" x2="146.66" y2="266.92"/>
	</g>
	<g id="LINE_44_">
		<line class="st5" x1="128.61" y1="279.91" x2="146.66" y2="279.91"/>
	</g>
	<g id="LINE_45_">
		<line class="st5" x1="128.61" y1="281.81" x2="146.66" y2="281.81"/>
	</g>
	<g id="LINE_49_">
		<line class="st5" x1="131.25" y1="308.03" x2="146.66" y2="294.69"/>
	</g>
	<g id="LINE_50_">
		<line class="st5" x1="144.02" y1="308.03" x2="128.61" y2="294.69"/>
	</g>
</g>
<polyline class="st5" points="390.13,237.49 412.75,237.49 415.18,234.68 415.18,240.3 417.6,237.49 440.68,237.49 "/>
<polyline class="st5" points="519.64,321.94 519.64,302.37 516.83,300.74 522.45,300.74 519.64,299.11 519.64,288.6 "/>
<g>
	<g id="LINE_15_">
		<g id="LINE_5_">
			<g>
				<g>
					<g>
						<line class="st19" x1="148.56" y1="312.53" x2="148.56" y2="318.53"/>
						<polyline class="st19" points="148.56,321.4 148.56,327.4 142.56,327.4 						"/>
						<polyline class="st19" points="134.75,327.4 128.75,327.4 128.75,333.4 						"/>
						<line class="st20" x1="128.75" y1="341.27" x2="128.75" y2="360.93"/>
						<polyline class="st19" points="128.75,364.86 128.75,370.86 134.75,370.86 						"/>
						<line class="st21" x1="139.92" y1="370.86" x2="168.36" y2="370.86"/>
						<polyline class="st19" points="170.95,370.86 176.95,370.86 176.95,364.86 						"/>
						<polyline class="st22" points="176.95,358.91 176.95,320.92 185.36,311.54 						"/>
						<polyline class="st19" points="187.34,309.33 191.35,304.86 197.35,304.86 						"/>
						<line class="st23" x1="203.98" y1="304.86" x2="240.47" y2="304.86"/>
						<line class="st19" x1="243.79" y1="304.86" x2="249.79" y2="304.86"/>
					</g>
				</g>
			</g>
		</g>
	</g>
	<g id="LINE_10_">
		<g id="LINE_4_">
			<g>
				<g>
					<g>
						<line class="st19" x1="239.37" y1="121.9" x2="239.37" y2="127.9"/>
						<line class="st24" x1="239.37" y1="133.6" x2="239.37" y2="147.85"/>
						<polyline class="st19" points="239.37,150.7 239.37,156.7 245.37,156.7 						"/>
						<line class="st25" x1="250.43" y1="156.7" x2="278.26" y2="156.7"/>
						<polyline class="st19" points="280.79,156.7 286.79,156.7 286.79,150.7 						"/>
						<polyline class="st26" points="286.79,145.55 286.79,114.77 295.46,105.1 						"/>
						<polyline class="st19" points="297.18,103.18 301.18,98.72 307.18,98.72 						"/>
						<line class="st27" x1="313.96" y1="98.72" x2="351.24" y2="98.72"/>
						<line class="st19" x1="354.63" y1="98.72" x2="360.63" y2="98.72"/>
					</g>
				</g>
			</g>
		</g>
	</g>
	<g id="LINE_3_">
		<g id="LINE_2_">
			<g>
				<g>
					<g>
						<line class="st19" x1="418.04" y1="278.22" x2="418.04" y2="284.22"/>
						<line class="st28" x1="418.04" y1="289.81" x2="418.04" y2="320.53"/>
						<polyline class="st19" points="418.04,323.33 418.04,329.33 424.04,329.33 						"/>
						<polyline class="st19" points="435.69,329.33 441.69,329.33 445.69,324.86 						"/>
						<polyline class="st19" points="453.13,316.56 457.13,312.1 463.13,312.1 						"/>
						<line class="st29" x1="470.28" y1="312.1" x2="509.63" y2="312.1"/>
						<line class="st19" x1="513.2" y1="312.1" x2="519.2" y2="312.1"/>
					</g>
				</g>
			</g>
		</g>
	</g>
</g>
</svg>
