<svg id="Drawing_Layer" data-name="Drawing Layer" xmlns="http://www.w3.org/2000/svg" viewBox="0 0 259.35 825.29"><defs><style>.cls-1,.cls-2,.cls-9{fill:#231f20;}.cls-2{font-size:12px;font-family:ArialMT, Arial;}.cls-3,.cls-8{fill:#c0bfbf;}.cls-4,.cls-5,.cls-6{fill:none;}.cls-4,.cls-5{stroke:#ccc2c0;stroke-width:0.96px;}.cls-4,.cls-5,.cls-6,.cls-8,.cls-9{stroke-miterlimit:10;}.cls-5{stroke-dasharray:7.75 7.75;}.cls-6,.cls-8,.cls-9{stroke:#231f20;}.cls-6{stroke-width:3.09px;}.cls-7{letter-spacing:-0.11em;}</style></defs><path class="cls-1" d="M160.54,12.82a28.27,28.27,0,1,1-28.26,28.26,28.3,28.3,0,0,1,28.26-28.26m0-3a31.27,31.27,0,1,0,31.27,31.26A31.27,31.27,0,0,0,160.54,9.82Z" transform="translate(-129.28 -9.82)"/><text class="cls-2" transform="translate(79.27 34.95)">Circular hollow section (CHS) </text><path class="cls-3" d="M136.77,164.18a4.08,4.08,0,0,1-4.07-4.08v-55h-3.42V167.6h62.53v-3.42Z" transform="translate(-129.28 -9.82)"/><text class="cls-2" transform="translate(79.27 130.2)">Equal angle (EA)</text><path class="cls-3" d="M151.08,259.43a4.08,4.08,0,0,1-4.08-4.08V207.81a4.08,4.08,0,0,1,4.08-4.08H177.5v-3.41H143.59v62.52H177.5v-3.41Z" transform="translate(-129.28 -9.82)"/><text class="cls-2" transform="translate(79.27 225.45)">Parallel flange channel (PFC)</text><path class="cls-1" d="M179.81,394a8.79,8.79,0,0,1,8.78,8.78v38.53a8.79,8.79,0,0,1-8.78,8.79H141.28a8.8,8.8,0,0,1-8.79-8.79V402.81a8.79,8.79,0,0,1,8.79-8.78h38.53m0-3.22H141.28a12,12,0,0,0-12,12v38.53a12,12,0,0,0,12,12h38.53a12,12,0,0,0,12-12V402.81a12,12,0,0,0-12-12Z" transform="translate(-129.28 -9.82)"/><text class="cls-2" transform="translate(79.27 415.95)">Square hollow section (SHS)</text><text class="cls-2" transform="translate(79.27 313.02)">Rectangular hollow section (RHS)</text><line class="cls-4" x1="13.89" y1="351.3" x2="19.64" y2="351.3"/><line class="cls-5" x1="27.39" y1="351.3" x2="39.01" y2="351.3"/><line class="cls-4" x1="42.89" y1="351.3" x2="48.63" y2="351.3"/><rect class="cls-6" x="15.39" y="282.72" width="32.06" height="65.96" rx="6.77"/><path class="cls-3" d="M171.12,545.24a18.73,18.73,0,0,1-5.76-1.09c-.48-.17-3.32-1.25-3.36-4.3V494.8c0-3.05,2.88-4.13,3.36-4.3a18.56,18.56,0,0,1,5.76-1.08,3.13,3.13,0,0,0,3.06-3.36H146.9a3.13,3.13,0,0,0,3.06,3.36,18.77,18.77,0,0,1,5.77,1.08c.47.17,3.31,1.25,3.35,4.3v45.05c0,3-2.88,4.13-3.35,4.3a18.94,18.94,0,0,1-5.77,1.09,3.12,3.12,0,0,0-3.06,3.35h27.28A3.12,3.12,0,0,0,171.12,545.24Z" transform="translate(-129.28 -9.82)"/><text class="cls-2" transform="translate(79.27 511.2)"><tspan class="cls-7">T</tspan><tspan x="6" y="0">apered flange beam (TFB)</tspan></text><path class="cls-1" d="M182.25,637.2h0L142.19,632V593.18L182.25,588h0c3.73-.52,6.58-3.41,6.58-6.91H132.25v63.07h56.58C188.83,640.61,186,637.72,182.25,637.2Z" transform="translate(-129.28 -9.82)"/><text class="cls-2" transform="translate(79.27 606.45)"><tspan class="cls-7">T</tspan><tspan x="6" y="0">apered flange channel (TFC)</tspan></text><polygon class="cls-8" points="19.38 725.66 19.38 666.47 15.5 666.47 15.5 725.66 15.5 729.54 19.38 729.54 47.03 729.54 47.03 725.66 19.38 725.66"/><text class="cls-2" transform="translate(79.27 701.69)">Unequal angle (UA)</text><polygon class="cls-9" points="47.03 765.6 47.03 761.72 15.5 761.72 15.5 765.6 29.32 765.6 29.32 820.9 15.5 820.9 15.5 824.79 47.03 824.79 47.03 820.9 33.2 820.9 33.2 765.6 47.03 765.6"/><text class="cls-2" transform="translate(79.27 796.94)">Universal beam (UB)</text></svg>