<?xml version="1.0" encoding="utf-8"?>
<!-- Generator: Adobe Illustrator 25.2.1, SVG Export Plug-In . SVG Version: 6.00 Build 0)  -->
<svg version="1.1" id="_x30_" xmlns="http://www.w3.org/2000/svg" xmlns:xlink="http://www.w3.org/1999/xlink" x="0px" y="0px"
	 viewBox="0 0 641 287.7" style="enable-background:new 0 0 641 287.7;" xml:space="preserve">
<style type="text/css">
	.st0{fill-rule:evenodd;clip-rule:evenodd;fill:#C5C7C9;}
	.st1{fill:none;stroke:#231F20;stroke-width:0.25;stroke-miterlimit:10;}
	.st2{fill:#231F20;}
	.st3{fill-rule:evenodd;clip-rule:evenodd;fill:#231F20;}
	
		.st4{fill-rule:evenodd;clip-rule:evenodd;fill:none;stroke:#231F20;stroke-linecap:round;stroke-linejoin:round;stroke-miterlimit:10;}
	.st5{fill:none;stroke:#231F20;stroke-width:0.75;stroke-linecap:round;stroke-linejoin:round;stroke-miterlimit:10;}
	.st6{font-family:'ArialMT';}
	.st7{font-size:12px;}
	.st8{fill:none;stroke:#231F20;stroke-linecap:round;stroke-linejoin:round;stroke-miterlimit:10;}
	.st9{font-family:'Arial-ItalicMT';}
</style>
<path class="st0" d="M215.5,128.3v74.5c0,2.5-1,4.9-2.8,6.7c-1.8,1.8-4.2,2.8-6.7,2.8h-30.2c-2.5,0-4.9-1-6.7-2.8
	c-1.8-1.8-2.8-4.2-2.8-6.7v-90.8c0-2.5,1-4.9,2.8-6.7c1.8-1.8,4.2-2.8,6.7-2.8h258.5c1.3,0,2.5,0.5,3.4,1.4c0.9,0.9,1.4,2.1,1.4,3.4
	v16.4c0,1.3-0.5,2.5-1.4,3.4c-0.9,0.9-2.1,1.4-3.4,1.4H215.5z"/>
<g id="POLYLINE">
	<g id="POLYLINE_30_">
		<g>
			<g>
				<g>
					<g>
						<g>
							<polyline class="st1" points="191.5,221.1 191.5,253.5 183.1,253.5 							"/>
							<g>
								<polygon class="st2" points="188.5,223.1 191.4,212.2 194.4,223.1 								"/>
							</g>
						</g>
					</g>
				</g>
			</g>
		</g>
	</g>
</g>
<g>
	<path class="st3" d="M275.1,116.2c0,2.3,1.9,4.3,4.3,4.3c2.3,0,4.3-1.9,4.3-4.3c0-2.3-1.9-4.3-4.3-4.3
		C277,111.9,275.1,113.8,275.1,116.2z"/>
	<path class="st4" d="M286.4,125.5c0.6,0,1.2-0.2,1.7-0.7c0.4-0.4,0.7-1,0.7-1.7v-14.2c0-0.6-0.2-1.2-0.7-1.7
		c-0.4-0.4-1-0.7-1.7-0.7h-14.2c-0.6,0-1.2,0.2-1.7,0.7c-0.4,0.4-0.7,1-0.7,1.7v14.2c0,1.3,1.1,2.4,2.4,2.4H286.4z"/>
</g>
<g>
	<g id="LINE_73_">
		<g>
			<line class="st5" x1="343.8" y1="223.1" x2="384.8" y2="223.1"/>
		</g>
	</g>
	<g id="LINE_74_">
		<g>
			<line class="st5" x1="384.8" y1="218.1" x2="343.8" y2="218.1"/>
		</g>
	</g>
	<g id="LINE_75_">
		<g>
			<line class="st5" x1="219.4" y1="28.7" x2="196.3" y2="28.7"/>
		</g>
	</g>
	<g id="POLYLINE_2_">
		<g>
			<rect x="517.4" y="150" class="st5" width="5" height="58.2"/>
		</g>
	</g>
	<g id="POLYLINE_3_">
		<g>
			<rect x="517.4" y="53" class="st5" width="5" height="58.2"/>
		</g>
	</g>
	<g id="POLYLINE_4_">
		<g>
			<rect x="451.4" y="28.7" class="st5" width="48.7" height="5"/>
		</g>
	</g>
	<g id="POLYLINE_5_">
		<g>
			<rect x="30.8" y="150" class="st5" width="5" height="58.2"/>
		</g>
	</g>
	<g id="POLYLINE_6_">
		<g>
			<rect x="30.8" y="48.2" class="st5" width="5" height="58.2"/>
		</g>
	</g>
	<g id="POLYLINE_7_">
		<g>
			<rect x="289.3" y="28.7" class="st5" width="21" height="5"/>
		</g>
	</g>
	<g id="POLYLINE_8_">
		<g>
			<rect x="340.4" y="28.7" class="st5" width="80.2" height="5"/>
		</g>
	</g>
	<g id="POLYLINE_9_">
		<g>
			<rect x="230.2" y="28.7" class="st5" width="28.7" height="5"/>
		</g>
	</g>
	<g id="POLYLINE_10_">
		<g>
			<rect x="49.9" y="28.7" class="st5" width="49.1" height="5"/>
		</g>
	</g>
	<g id="POLYLINE_11_">
		<g>
			<rect x="131.7" y="28.7" class="st5" width="49" height="5"/>
		</g>
	</g>
	<g id="POLYLINE_12_">
		<g>
			<rect x="45.8" y="218.1" class="st5" width="108.5" height="5"/>
		</g>
	</g>
	<g id="POLYLINE_13_">
		<g>
			<rect x="241.6" y="218.1" class="st5" width="67.4" height="5"/>
		</g>
	</g>
	<g id="POLYLINE_14_">
		<g>
			<rect x="343.8" y="218.1" class="st5" width="41" height="5"/>
		</g>
	</g>
	<g id="POLYLINE_15_">
		<g>
			<rect x="426.2" y="218.1" class="st5" width="83.2" height="5"/>
		</g>
	</g>
	<g id="LINE_77_">
		<g>
			<line class="st5" x1="163.6" y1="222.4" x2="202.6" y2="222.4"/>
		</g>
	</g>
</g>
<g>
	<g id="MTEXT">
		<g>
			<text transform="matrix(1 0 0 1 451.8982 194.0378)" class="st2 st6 st7">Bed</text>
		</g>
	</g>
	<g id="MTEXT_1_">
		<g>
			<text transform="matrix(1 0 0 1 466.5781 73.875)" class="st2 st6 st7">Bed</text>
		</g>
	</g>
	<g id="MTEXT_2_">
		<g>
			<text transform="matrix(1 0 0 1 355.9148 194.0378)" class="st2 st6 st7">Bed</text>
		</g>
	</g>
	<g id="MTEXT_3_">
		<g>
			<text transform="matrix(1 0 0 1 260.5881 194.0378)" class="st2 st6 st7">Bed</text>
		</g>
	</g>
	<g id="MTEXT_4_">
		<g>
			<text transform="matrix(1 0 0 1 286.0215 73.875)" class="st2 st6 st7">Bath</text>
		</g>
	</g>
	<g id="MTEXT_5_">
		<g>
			<text transform="matrix(1 0 0 1 223.7592 73.875)" class="st2 st6 st7">Laundry</text>
		</g>
	</g>
	<g id="MTEXT_6_">
		<g>
			<text transform="matrix(1 0 0 1 148.6401 73.875)" class="st2 st6 st7">Kitchen</text>
		</g>
	</g>
	<g id="MTEXT_7_">
		<g>
			<text transform="matrix(1 0 0 1 58.4116 73.875)" class="st2 st6 st7">Dining</text>
		</g>
	</g>
	<g id="MTEXT_8_">
		<g>
			<text transform="matrix(1 0 0 1 83.0347 183.146)" class="st2 st6 st7">Living</text>
		</g>
	</g>
	<g id="MTEXT_9_">
		<g>
			<text transform="matrix(1 0 0 1 371.9824 54.9541)" class="st2 st6 st7">Bed</text>
		</g>
	</g>
</g>
<g id="MTEXT_10_">
	<g>
		<text transform="matrix(1 0 0 1 43.8517 242.1938)"><tspan x="0" y="0" class="st2 st6 st7">Lights in this area to be </tspan><tspan x="0" y="14.4" class="st2 st6 st7">activated by smoke alarm </tspan></text>
	</g>
</g>
<g>
	<g id="HATCH_2_">
		<path class="st3" d="M381,62.1c2.3,0,4.3,1.9,4.3,4.3c0,2.3-1.9,4.3-4.3,4.3s-4.3-1.9-4.3-4.3C376.7,64,378.6,62.1,381,62.1z"/>
	</g>
	<g id="HATCH_3_">
		<path class="st3" d="M478,79.7c2.3,0,4.3,1.9,4.3,4.3c0,2.3-1.9,4.3-4.3,4.3c-2.3,0-4.3-1.9-4.3-4.3
			C473.7,81.6,475.6,79.7,478,79.7z"/>
	</g>
	<g id="HATCH_4_">
		<path class="st3" d="M271,172.3c2.3,0,4.3,1.9,4.3,4.3c0,2.3-1.9,4.3-4.3,4.3c-2.3,0-4.3-1.9-4.3-4.3
			C266.7,174.2,268.6,172.3,271,172.3z"/>
	</g>
	<g id="HATCH_5_">
		<path class="st3" d="M462.1,172.3c2.3,0,4.3,1.9,4.3,4.3c0,2.3-1.9,4.3-4.3,4.3c-2.3,0-4.3-1.9-4.3-4.3
			C457.8,174.2,459.7,172.3,462.1,172.3z"/>
	</g>
	<g id="HATCH_6_">
		<path class="st3" d="M365.7,172.3c2.3,0,4.3,1.9,4.3,4.3c0,2.3-1.9,4.3-4.3,4.3c-2.3,0-4.3-1.9-4.3-4.3
			C361.5,174.2,363.4,172.3,365.7,172.3z"/>
	</g>
</g>
<g>
	<g>
		<g id="LINE_60_">
			<g>
				<line class="st8" x1="163.6" y1="222.4" x2="163.6" y2="218.8"/>
			</g>
		</g>
		<g id="LINE_71_">
			<g>
				<line class="st8" x1="202.6" y1="222.4" x2="202.6" y2="218.8"/>
			</g>
		</g>
		<g id="LINE_76_">
			<g>
				<line class="st8" x1="196.3" y1="33" x2="196.3" y2="28.7"/>
			</g>
		</g>
	</g>
	<g>
		<g id="LINE_10_">
			<g>
				<line class="st8" x1="521.7" y1="222.4" x2="521.7" y2="208.2"/>
			</g>
		</g>
		<g id="LINE_11_">
			<g>
				<line class="st8" x1="518.1" y1="218.8" x2="518.1" y2="208.2"/>
			</g>
		</g>
		<g id="LINE_12_">
			<g>
				<line class="st8" x1="407.1" y1="218.8" x2="407.1" y2="132.6"/>
			</g>
		</g>
		<g id="LINE_13_">
			<g>
				<line class="st8" x1="35.1" y1="218.8" x2="45.8" y2="218.8"/>
			</g>
		</g>
		<g id="LINE_14_">
			<g>
				<line class="st8" x1="31.5" y1="222.4" x2="45.8" y2="222.4"/>
			</g>
		</g>
		<g id="LINE_15_">
			<g>
				<line class="st8" x1="509.4" y1="222.4" x2="521.7" y2="222.4"/>
			</g>
		</g>
		<g id="LINE_16_">
			<g>
				<line class="st8" x1="509.4" y1="218.8" x2="518.1" y2="218.8"/>
			</g>
		</g>
		<g id="LINE_17_">
			<g>
				<line class="st8" x1="218.7" y1="132.6" x2="298.2" y2="132.6"/>
			</g>
		</g>
		<g id="LINE_18_">
			<g>
				<line class="st8" x1="436.7" y1="99.4" x2="436.7" y2="33"/>
			</g>
		</g>
		<g id="LINE_19_">
			<g>
				<line class="st8" x1="508.3" y1="33" x2="518.1" y2="33"/>
			</g>
		</g>
		<g id="LINE_20_">
			<g>
				<line class="st8" x1="508.3" y1="29.3" x2="521.7" y2="29.3"/>
			</g>
		</g>
		<g id="LINE_21_">
			<g>
				<line class="st8" x1="35.1" y1="33" x2="49.9" y2="33"/>
			</g>
		</g>
		<g id="LINE_22_">
			<g>
				<line class="st8" x1="31.5" y1="29.3" x2="49.9" y2="29.3"/>
			</g>
		</g>
		<g id="LINE_23_">
			<g>
				<line class="st8" x1="116.7" y1="99.4" x2="191.4" y2="99.4"/>
			</g>
		</g>
		<g id="LINE_24_">
			<g>
				<line class="st8" x1="318.6" y1="132.6" x2="325.5" y2="132.6"/>
			</g>
		</g>
		<g id="LINE_25_">
			<g>
				<line class="st8" x1="347.7" y1="132.6" x2="413" y2="132.6"/>
			</g>
		</g>
		<g id="LINE_26_">
			<g>
				<line class="st8" x1="433.4" y1="132.6" x2="518.1" y2="132.6"/>
			</g>
		</g>
		<g id="LINE_27_">
			<g>
				<line class="st8" x1="325.5" y1="218.8" x2="325.5" y2="132.6"/>
			</g>
		</g>
		<g id="LINE_28_">
			<g>
				<line class="st8" x1="518.1" y1="150" x2="518.1" y2="111.2"/>
			</g>
		</g>
		<g id="LINE_29_">
			<g>
				<line class="st8" x1="521.7" y1="150" x2="521.7" y2="111.2"/>
			</g>
		</g>
		<g id="LINE_30_">
			<g>
				<line class="st8" x1="518.1" y1="53" x2="518.1" y2="33"/>
			</g>
		</g>
		<g id="LINE_31_">
			<g>
				<line class="st8" x1="521.7" y1="53" x2="521.7" y2="29.3"/>
			</g>
		</g>
		<g id="LINE_32_">
			<g>
				<line class="st8" x1="500.2" y1="33" x2="518.1" y2="33"/>
			</g>
		</g>
		<g id="LINE_33_">
			<g>
				<line class="st8" x1="500.2" y1="29.3" x2="521.7" y2="29.3"/>
			</g>
		</g>
		<g id="LINE_34_">
			<g>
				<line class="st8" x1="326" y1="99.4" x2="326" y2="33"/>
			</g>
		</g>
		<g id="LINE_35_">
			<g>
				<line class="st8" x1="270.2" y1="99.4" x2="270.2" y2="33"/>
			</g>
		</g>
		<g id="LINE_36_">
			<g>
				<line class="st8" x1="219.4" y1="99.4" x2="219.4" y2="28.7"/>
			</g>
		</g>
		<g id="LINE_37_">
			<g>
				<line class="st8" x1="35.1" y1="218.8" x2="35.1" y2="208.2"/>
			</g>
		</g>
		<g id="LINE_38_">
			<g>
				<line class="st8" x1="31.5" y1="222.4" x2="31.5" y2="208.2"/>
			</g>
		</g>
		<g id="LINE_39_">
			<g>
				<line class="st8" x1="31.5" y1="150" x2="31.5" y2="106.4"/>
			</g>
		</g>
		<g id="LINE_40_">
			<g>
				<line class="st8" x1="35.1" y1="150" x2="35.1" y2="106.4"/>
			</g>
		</g>
		<g id="LINE_41_">
			<g>
				<line class="st8" x1="31.5" y1="48.2" x2="31.5" y2="29.3"/>
			</g>
		</g>
		<g id="LINE_42_">
			<g>
				<line class="st8" x1="35.1" y1="48.2" x2="35.1" y2="33"/>
			</g>
		</g>
		<g id="LINE_43_">
			<g>
				<line class="st8" x1="347.5" y1="99.4" x2="436.7" y2="99.4"/>
			</g>
		</g>
		<g id="LINE_44_">
			<g>
				<line class="st8" x1="310.3" y1="33" x2="340.4" y2="33"/>
			</g>
		</g>
		<g id="LINE_45_">
			<g>
				<line class="st8" x1="310.3" y1="29.3" x2="340.4" y2="29.3"/>
			</g>
		</g>
		<g id="LINE_46_">
			<g>
				<line class="st8" x1="420.7" y1="33" x2="451.4" y2="33"/>
			</g>
		</g>
		<g id="LINE_47_">
			<g>
				<line class="st8" x1="420.7" y1="29.3" x2="451.4" y2="29.3"/>
			</g>
		</g>
		<g id="LINE_48_">
			<g>
				<line class="st8" x1="180.8" y1="33" x2="196.3" y2="33"/>
			</g>
		</g>
		<g id="LINE_49_">
			<g>
				<line class="st8" x1="180.8" y1="29.3" x2="196.3" y2="29.3"/>
			</g>
		</g>
		<g id="LINE_50_">
			<g>
				<line class="st8" x1="258.9" y1="29.3" x2="289.3" y2="29.3"/>
			</g>
		</g>
		<g id="LINE_51_">
			<g>
				<line class="st8" x1="258.9" y1="33" x2="289.3" y2="33"/>
			</g>
		</g>
		<g id="LINE_52_">
			<g>
				<line class="st8" x1="219.4" y1="29.3" x2="230.2" y2="29.3"/>
			</g>
		</g>
		<g id="LINE_53_">
			<g>
				<line class="st8" x1="219.4" y1="33" x2="230.2" y2="33"/>
			</g>
		</g>
		<g id="LINE_54_">
			<g>
				<line class="st8" x1="99" y1="33" x2="131.7" y2="33"/>
			</g>
		</g>
		<g id="LINE_55_">
			<g>
				<line class="st8" x1="99" y1="29.3" x2="131.7" y2="29.3"/>
			</g>
		</g>
		<g id="LINE_56_">
			<g>
				<line class="st8" x1="154.3" y1="222.4" x2="163.6" y2="222.4"/>
			</g>
		</g>
		<g id="LINE_57_">
			<g>
				<line class="st8" x1="154.3" y1="218.8" x2="163.6" y2="218.8"/>
			</g>
		</g>
		<g id="LINE_58_">
			<g>
				<line class="st8" x1="202.6" y1="222.4" x2="241.6" y2="222.4"/>
			</g>
		</g>
		<g id="LINE_59_">
			<g>
				<line class="st8" x1="202.6" y1="218.8" x2="241.6" y2="218.8"/>
			</g>
		</g>
		<g id="LINE_61_">
			<g>
				<line class="st8" x1="309" y1="222.4" x2="343.8" y2="222.4"/>
			</g>
		</g>
		<g id="LINE_62_">
			<g>
				<line class="st8" x1="309" y1="218.8" x2="343.8" y2="218.8"/>
			</g>
		</g>
		<g id="LINE_63_">
			<g>
				<line class="st8" x1="384.8" y1="218.8" x2="426.2" y2="218.8"/>
			</g>
		</g>
		<g id="LINE_64_">
			<g>
				<line class="st8" x1="384.8" y1="222.4" x2="426.2" y2="222.4"/>
			</g>
		</g>
		<g id="LINE_65_">
			<g>
				<line class="st8" x1="509.4" y1="218.8" x2="518.1" y2="218.8"/>
			</g>
		</g>
		<g id="LINE_66_">
			<g>
				<line class="st8" x1="509.4" y1="222.4" x2="521.7" y2="222.4"/>
			</g>
		</g>
		<g id="LINE_67_">
			<g>
				<line class="st8" x1="116.7" y1="99.4" x2="116.7" y2="33"/>
			</g>
		</g>
		<g id="LINE_68_">
			<g>
				<line class="st8" x1="211.8" y1="99.4" x2="237.6" y2="99.4"/>
			</g>
		</g>
		<g id="LINE_69_">
			<g>
				<line class="st8" x1="258" y1="99.4" x2="304.7" y2="99.4"/>
			</g>
		</g>
		<g id="LINE_70_">
			<g>
				<line class="st8" x1="218.7" y1="218.8" x2="218.7" y2="132.6"/>
			</g>
		</g>
		<g id="LINE_72_">
			<g>
				<line class="st8" x1="163.6" y1="218.8" x2="163.6" y2="184.4"/>
			</g>
		</g>
	</g>
</g>
<g id="MTEXT_11_">
	<g>
		<text transform="matrix(1 0 0 1 542.8425 113.9208)"><tspan x="0" y="0" class="st2 st6 st7">Smoke alarms </tspan><tspan x="0" y="14.4" class="st2 st9 st7">required</tspan><tspan x="44" y="14.4" class="st2 st6 st7"> to be </tspan><tspan x="0" y="28.8" class="st2 st6 st7">interconnected </tspan></text>
	</g>
</g>
<path class="st1" d="M540.5,111.2"/>
<polyline class="st1" points="279.3,116 538.5,116 380.4,66.3 "/>
<polyline class="st1" points="271,176.5 538.5,116 478,84 "/>
<polyline class="st1" points="462.1,176.5 538.5,116 365.7,175.7 "/>
</svg>
