<?xml version="1.0" encoding="utf-8"?>
<!-- Generator: Adobe Illustrator 25.2.1, SVG Export Plug-In . SVG Version: 6.00 Build 0)  -->
<svg version="1.1" id="Drawing" xmlns="http://www.w3.org/2000/svg" xmlns:xlink="http://www.w3.org/1999/xlink" x="0px" y="0px"
	 viewBox="0 0 553 425.5" style="enable-background:new 0 0 553 425.5;" xml:space="preserve">
<style type="text/css">
	.st0{fill:#2C5098;}
</style>
<path class="st0" d="M93.7,321.2l300.8-0.4l-83.3-83.1c0,0-152.6,0-217.4,0V57.2v0c-0.1-15.8,12.7-28.7,28.5-28.7l194.1-0.7
	c1.4,0,1.4,1,1.4,1l0,60.9l-78.3,33.6c-5.3-13.5-12.2-5-12.8-1.4c-3.6,15.7,5.8,17.8,5.8,17.8l93.1-38.8l93.5,38.9
	c1.7-0.6,8.9-3.4,7-16.2c-1-6.8-8.6-13.3-12.9-0.2C411,122,332.5,90,332.5,90V27.8l96.6-0.1c18.4,0,33.4,14.9,33.3,33.3l-0.1,302.7
	c0,17.8-14.5,32.3-32.3,32.3l-304.1,0.1c-17.7,0-32.1-14.3-32.1-32L93.7,321.2"/>
</svg>
