<svg id="_0" data-name="0" xmlns="http://www.w3.org/2000/svg" viewBox="0 0 496.5 482.21"><defs><style>.cls-1,.cls-6{font-size:12px;}.cls-1,.cls-5,.cls-6{fill:#231f20;}.cls-1{font-family:Arial-BoldMT, Arial;font-weight:700;}.cls-2{fill:#c5c7c9;}.cls-3,.cls-4,.cls-7,.cls-8{fill:none;}.cls-3{stroke:#000;}.cls-3,.cls-7,.cls-8{stroke-linecap:round;stroke-linejoin:round;}.cls-3,.cls-7{stroke-width:0.75px;}.cls-4,.cls-7,.cls-8{stroke:#231f20;}.cls-4{stroke-miterlimit:10;stroke-width:0.25px;}.cls-6{font-family:ArialMT, Arial;}</style></defs><g id="MTEXT"><text class="cls-1" transform="translate(190.26 176.93)">Rw 50</text></g><g id="MTEXT-2" data-name="MTEXT"><text class="cls-1" transform="translate(190.26 469.94)">Rw 45</text></g><g id="HATCH"><rect class="cls-2" x="78.23" y="97.71" width="82.85" height="34.65"/></g><g id="LINE"><line class="cls-3" x1="161.09" y1="132.42" x2="161.09" y2="97.77"/></g><g id="LINE-2" data-name="LINE"><line class="cls-3" x1="168.45" y1="101.73" x2="168.45" y2="128.46"/></g><g id="SPLINE"><path class="cls-3" d="M196.3,156.3c0,2.19,2,4,4.58,4" transform="translate(-27.85 -27.85)"/></g><g id="SPLINE-2" data-name="SPLINE"><path class="cls-3" d="M200.88,125.62c-2.53,0-4.58,1.77-4.58,4" transform="translate(-27.85 -27.85)"/></g><rect class="cls-3" x="106.08" y="125.5" width="113.02" height="34.76" transform="translate(297.33 257.92) rotate(180)"/><g id="HATCH-2" data-name="HATCH"><rect class="cls-2" x="78.23" y="11.59" width="82.85" height="34.65"/></g><g id="LINE-3" data-name="LINE"><line class="cls-3" x1="161.09" y1="46.3" x2="161.09" y2="11.65"/></g><g id="LINE-4" data-name="LINE"><line class="cls-3" x1="168.45" y1="15.61" x2="168.45" y2="42.34"/></g><g id="SPLINE-3" data-name="SPLINE"><path class="cls-3" d="M196.3,70.18c0,2.19,2,4,4.58,4" transform="translate(-27.85 -27.85)"/></g><g id="SPLINE-4" data-name="SPLINE"><path class="cls-3" d="M200.88,39.49c-2.53,0-4.58,1.78-4.58,4" transform="translate(-27.85 -27.85)"/></g><rect class="cls-3" x="106.08" y="39.38" width="113.02" height="34.76" transform="translate(297.33 85.68) rotate(180)"/><g id="HATCH-3" data-name="HATCH"><rect class="cls-2" x="78.23" y="393.44" width="82.85" height="34.65"/></g><g id="LINE-5" data-name="LINE"><line class="cls-3" x1="161.09" y1="428.14" x2="161.09" y2="393.49"/></g><g id="LINE-6" data-name="LINE"><line class="cls-3" x1="168.45" y1="397.45" x2="168.45" y2="424.18"/></g><g id="SPLINE-5" data-name="SPLINE"><path class="cls-3" d="M196.3,452c0,2.18,2,4,4.58,4" transform="translate(-27.85 -27.85)"/></g><g id="SPLINE-6" data-name="SPLINE"><path class="cls-3" d="M200.88,421.34c-2.53,0-4.58,1.77-4.58,4" transform="translate(-27.85 -27.85)"/></g><rect class="cls-3" x="106.08" y="421.22" width="113.02" height="34.76" transform="translate(297.33 849.37) rotate(180)"/><g id="HATCH-4" data-name="HATCH"><rect class="cls-2" x="78.23" y="290.55" width="82.85" height="34.65"/></g><g id="LINE-7" data-name="LINE"><line class="cls-3" x1="161.09" y1="325.26" x2="161.09" y2="290.61"/></g><g id="LINE-8" data-name="LINE"><line class="cls-3" x1="168.45" y1="294.57" x2="168.45" y2="321.3"/></g><g id="SPLINE-7" data-name="SPLINE"><path class="cls-3" d="M196.3,349.15c0,2.18,2,4,4.58,4" transform="translate(-27.85 -27.85)"/></g><g id="SPLINE-8" data-name="SPLINE"><path class="cls-3" d="M200.88,318.46c-2.53,0-4.58,1.77-4.58,4" transform="translate(-27.85 -27.85)"/></g><rect class="cls-3" x="106.08" y="318.34" width="113.02" height="34.76" transform="translate(297.33 643.61) rotate(180)"/><g id="HATCH-5" data-name="HATCH"><rect class="cls-2" x="253.62" y="322.1" width="90.19" height="73.26"/></g><g id="LINE-9" data-name="LINE"><line class="cls-3" x1="244.54" y1="391.39" x2="244.54" y2="362.69"/></g><g id="SPLINE-9" data-name="SPLINE"><path class="cls-3" d="M272.39,390.53c0-2.18-2.06-4-4.59-4" transform="translate(-27.85 -27.85)"/></g><g id="SPLINE-10" data-name="SPLINE"><path class="cls-3" d="M267.8,423.2c2.53,0,4.59-1.77,4.59-4" transform="translate(-27.85 -27.85)"/></g><g id="LINE-10" data-name="LINE"><line class="cls-3" x1="244.54" y1="354.77" x2="244.54" y2="326.06"/></g><g id="SPLINE-11" data-name="SPLINE"><path class="cls-3" d="M272.39,353.91c0-2.19-2.06-4-4.59-4" transform="translate(-27.85 -27.85)"/></g><g id="SPLINE-12" data-name="SPLINE"><path class="cls-3" d="M267.8,386.57c2.53,0,4.59-1.77,4.59-4" transform="translate(-27.85 -27.85)"/></g><g id="LINE-11" data-name="LINE"><line class="cls-3" x1="239.95" y1="358.73" x2="221.74" y2="358.73"/></g><rect class="cls-3" x="221.74" y="322.1" width="122.07" height="73.26"/><line class="cls-3" x1="253.62" y1="322.1" x2="253.62" y2="395.35"/><polyline class="cls-4" points="215.65 282.01 203.78 270.14 203.78 215.12 222.72 215.12"/><polygon class="cls-5" points="216.14 279.42 220.35 286.71 213.06 282.5 216.14 279.42"/><g id="MTEXT-3" data-name="MTEXT"><text class="cls-6" transform="translate(40.42 73.65)">Bedroom – dwelling 1</text></g><g id="MTEXT-4" data-name="MTEXT"><text class="cls-6" transform="translate(40.42 362.25)">Bedroom – dwelling 1</text></g><g id="MTEXT-5" data-name="MTEXT"><text class="cls-6" transform="translate(258.51 421.85)">Bedroom – dwelling 2</text></g><g id="MTEXT-6" data-name="MTEXT"><path class="cls-5" d="M256.54,246.15l-2.28-8.59h1.16l1.31,5.63c.14.59.26,1.18.36,1.76q.33-1.38.39-1.59l1.64-5.8h1.37l1.23,4.35a21.74,21.74,0,0,1,.66,3c.11-.54.26-1.17.43-1.87l1.35-5.52h1.14L263,246.15h-1.1L260,239.61c-.15-.55-.24-.89-.27-1-.09.39-.17.73-.25,1l-1.82,6.54Z" transform="translate(-27.85 -27.85)"/><path class="cls-5" d="M269.84,245.38a4.07,4.07,0,0,1-1.12.71,3.46,3.46,0,0,1-1.17.2,2.26,2.26,0,0,1-1.57-.5,1.64,1.64,0,0,1-.55-1.28,1.83,1.83,0,0,1,.2-.84,1.67,1.67,0,0,1,.55-.6,2.65,2.65,0,0,1,.76-.35c.2-.05.52-.1.93-.16a9.73,9.73,0,0,0,1.89-.36v-.27a1.16,1.16,0,0,0-.3-.91,1.76,1.76,0,0,0-1.2-.36,1.92,1.92,0,0,0-1.1.26,1.59,1.59,0,0,0-.52.92l-1-.14a2.63,2.63,0,0,1,.46-1.07A2,2,0,0,1,267,240a4.09,4.09,0,0,1,1.41-.22,3.87,3.87,0,0,1,1.3.18,1.72,1.72,0,0,1,.73.48,1.56,1.56,0,0,1,.33.71,6.84,6.84,0,0,1,.05,1v1.4a13.75,13.75,0,0,0,.07,1.86,2.12,2.12,0,0,0,.27.75h-1.11A2.41,2.41,0,0,1,269.84,245.38Zm-.08-2.35a8.26,8.26,0,0,1-1.73.4,3.82,3.82,0,0,0-.92.21.82.82,0,0,0-.41.34.92.92,0,0,0,.17,1.2,1.34,1.34,0,0,0,.93.28,2.17,2.17,0,0,0,1.09-.26,1.64,1.64,0,0,0,.7-.73,2.62,2.62,0,0,0,.17-1.06Z" transform="translate(-27.85 -27.85)"/><path class="cls-5" d="M272,244.29l1-.16a1.44,1.44,0,0,0,.49,1,1.7,1.7,0,0,0,1.12.33,1.66,1.66,0,0,0,1.08-.29.9.9,0,0,0,.35-.7.64.64,0,0,0-.31-.56,5.28,5.28,0,0,0-1.08-.36,9.92,9.92,0,0,1-1.61-.5,1.55,1.55,0,0,1-.91-1.43,1.57,1.57,0,0,1,.19-.77,1.73,1.73,0,0,1,.52-.59,2.33,2.33,0,0,1,.67-.31,3.34,3.34,0,0,1,.91-.12,3.63,3.63,0,0,1,1.29.21,1.77,1.77,0,0,1,.82.57,2.35,2.35,0,0,1,.36,1l-1,.14a1.16,1.16,0,0,0-.41-.75,1.47,1.47,0,0,0-.95-.27,1.73,1.73,0,0,0-1,.24.7.7,0,0,0-.31.57.58.58,0,0,0,.13.37,1,1,0,0,0,.4.28l.94.27a13.15,13.15,0,0,1,1.56.49,1.57,1.57,0,0,1,.69.55,1.52,1.52,0,0,1,.25.9,1.85,1.85,0,0,1-.3,1,2.06,2.06,0,0,1-.89.72,3.26,3.26,0,0,1-1.31.25,3,3,0,0,1-1.85-.5A2.31,2.31,0,0,1,272,244.29Z" transform="translate(-27.85 -27.85)"/><path class="cls-5" d="M280.76,245.21l.15.93a4.08,4.08,0,0,1-.8.09,1.85,1.85,0,0,1-.89-.18,1,1,0,0,1-.44-.48,3.6,3.6,0,0,1-.13-1.24v-3.58h-.77v-.82h.77v-1.54l1.05-.64v2.18h1.06v.82H279.7v3.64a2.2,2.2,0,0,0,.05.58.46.46,0,0,0,.19.2.69.69,0,0,0,.36.08Z" transform="translate(-27.85 -27.85)"/><path class="cls-5" d="M286.05,244.15l1.09.13a2.64,2.64,0,0,1-.95,1.48,3.24,3.24,0,0,1-3.95-.31,3.31,3.31,0,0,1-.8-2.36,3.44,3.44,0,0,1,.81-2.44,2.77,2.77,0,0,1,2.1-.86,2.62,2.62,0,0,1,2,.85,3.35,3.35,0,0,1,.8,2.39c0,.06,0,.15,0,.28h-4.64a2.38,2.38,0,0,0,.58,1.57,1.74,1.74,0,0,0,1.3.54,1.62,1.62,0,0,0,1-.3A2,2,0,0,0,286.05,244.15Zm-3.46-1.71h3.47a2.09,2.09,0,0,0-.4-1.18,1.62,1.62,0,0,0-1.3-.61,1.68,1.68,0,0,0-1.22.49A1.9,1.9,0,0,0,282.59,242.44Z" transform="translate(-27.85 -27.85)"/><path class="cls-5" d="M291.8,248.54v-8.61h1v.81a2.37,2.37,0,0,1,.77-.72,2.18,2.18,0,0,1,1-.23,2.41,2.41,0,0,1,1.41.41,2.52,2.52,0,0,1,.92,1.15,4.2,4.2,0,0,1,.31,1.64,4.13,4.13,0,0,1-.34,1.72,2.56,2.56,0,0,1-1,1.17,2.46,2.46,0,0,1-1.37.41,2,2,0,0,1-.95-.22,2.26,2.26,0,0,1-.69-.56v3Zm.95-5.47a2.74,2.74,0,0,0,.49,1.78,1.51,1.51,0,0,0,2.38,0,2.79,2.79,0,0,0,.5-1.84,2.75,2.75,0,0,0-.49-1.79,1.47,1.47,0,0,0-1.17-.59,1.53,1.53,0,0,0-1.19.63A2.85,2.85,0,0,0,292.75,243.07Z" transform="translate(-27.85 -27.85)"/><path class="cls-5" d="M298.48,238.77v-1.21h1v1.21Zm0,7.38v-6.22h1v6.22Z" transform="translate(-27.85 -27.85)"/><path class="cls-5" d="M301.14,248.54v-8.61h1v.81a2.37,2.37,0,0,1,.77-.72,2.18,2.18,0,0,1,1-.23,2.41,2.41,0,0,1,1.41.41,2.52,2.52,0,0,1,.92,1.15,4.2,4.2,0,0,1,.31,1.64,4.13,4.13,0,0,1-.34,1.72,2.56,2.56,0,0,1-1,1.17,2.46,2.46,0,0,1-1.37.41,2,2,0,0,1-.95-.22,2.26,2.26,0,0,1-.69-.56v3Zm.95-5.47a2.74,2.74,0,0,0,.49,1.78,1.51,1.51,0,0,0,2.38,0,2.79,2.79,0,0,0,.5-1.84,2.75,2.75,0,0,0-.49-1.79,1.47,1.47,0,0,0-1.17-.59,1.52,1.52,0,0,0-1.19.63A2.85,2.85,0,0,0,302.09,243.07Z" transform="translate(-27.85 -27.85)"/><path class="cls-5" d="M312.07,244.15l1.09.13a2.64,2.64,0,0,1-1,1.48,3.24,3.24,0,0,1-3.95-.31,3.31,3.31,0,0,1-.8-2.36,3.44,3.44,0,0,1,.81-2.44,2.77,2.77,0,0,1,2.1-.86,2.66,2.66,0,0,1,2,.85,3.39,3.39,0,0,1,.79,2.39c0,.06,0,.15,0,.28h-4.64a2.38,2.38,0,0,0,.58,1.57,1.74,1.74,0,0,0,1.3.54,1.62,1.62,0,0,0,1-.3A2,2,0,0,0,312.07,244.15Zm-3.46-1.71h3.47a2.17,2.17,0,0,0-.39-1.18,1.65,1.65,0,0,0-1.31-.61,1.68,1.68,0,0,0-1.22.49A1.9,1.9,0,0,0,308.61,242.44Z" transform="translate(-27.85 -27.85)"/><path class="cls-5" d="M317,243.47v-.85h6.67v.85Z" transform="translate(-27.85 -27.85)"/><path class="cls-5" d="M327.83,246.15v-6.22h.94v.87a2.27,2.27,0,0,1,.78-.73,2.13,2.13,0,0,1,1.11-.28,2,2,0,0,1,1.13.28,1.59,1.59,0,0,1,.63.81,2.22,2.22,0,0,1,1.92-1.09,1.9,1.9,0,0,1,1.42.51,2.2,2.2,0,0,1,.5,1.58v4.27h-1.05v-3.92a2.83,2.83,0,0,0-.1-.91.86.86,0,0,0-.37-.45,1.2,1.2,0,0,0-.64-.17,1.49,1.49,0,0,0-1.09.44,1.91,1.91,0,0,0-.43,1.4v3.61h-1.06v-4a1.82,1.82,0,0,0-.25-1.06,1,1,0,0,0-.85-.35,1.51,1.51,0,0,0-.82.24,1.34,1.34,0,0,0-.55.68,4,4,0,0,0-.17,1.3v3.23Z" transform="translate(-27.85 -27.85)"/><path class="cls-5" d="M341.9,246.15v-.91a2.27,2.27,0,0,1-2,1,2.53,2.53,0,0,1-1-.21,1.68,1.68,0,0,1-.71-.53,2.14,2.14,0,0,1-.33-.78,5.84,5.84,0,0,1-.06-1v-3.85h1.05v3.45a6.22,6.22,0,0,0,.07,1.11,1.15,1.15,0,0,0,.42.66,1.37,1.37,0,0,0,.8.23,1.78,1.78,0,0,0,.89-.24,1.35,1.35,0,0,0,.59-.66,3.48,3.48,0,0,0,.17-1.22v-3.33h1.06v6.22Z" transform="translate(-27.85 -27.85)"/><path class="cls-5" d="M344.08,244.29l1-.16a1.44,1.44,0,0,0,.49,1,1.72,1.72,0,0,0,1.12.33,1.66,1.66,0,0,0,1.08-.29.9.9,0,0,0,.35-.7.64.64,0,0,0-.31-.56,5,5,0,0,0-1.08-.36,9.92,9.92,0,0,1-1.61-.5,1.55,1.55,0,0,1-.91-1.43,1.57,1.57,0,0,1,.19-.77,1.73,1.73,0,0,1,.52-.59,2.33,2.33,0,0,1,.67-.31,3.34,3.34,0,0,1,.91-.12,3.63,3.63,0,0,1,1.29.21,1.77,1.77,0,0,1,.82.57,2.35,2.35,0,0,1,.36,1l-1,.14a1.12,1.12,0,0,0-.41-.75,1.47,1.47,0,0,0-.95-.27,1.73,1.73,0,0,0-1,.24.7.7,0,0,0-.31.57.58.58,0,0,0,.13.37,1,1,0,0,0,.4.28l.94.27a13.15,13.15,0,0,1,1.56.49,1.57,1.57,0,0,1,.69.55,1.52,1.52,0,0,1,.25.9,1.85,1.85,0,0,1-.3,1,2,2,0,0,1-.89.72,3.26,3.26,0,0,1-1.31.25,3,3,0,0,1-1.85-.5A2.31,2.31,0,0,1,344.08,244.29Z" transform="translate(-27.85 -27.85)"/><path class="cls-5" d="M352.8,245.21l.15.93a4,4,0,0,1-.79.09,1.79,1.79,0,0,1-.89-.18,1,1,0,0,1-.45-.48,3.6,3.6,0,0,1-.13-1.24v-3.58h-.77v-.82h.77v-1.54l1.05-.64v2.18h1.06v.82h-1.06v3.64a1.73,1.73,0,0,0,.06.58.38.38,0,0,0,.18.2.69.69,0,0,0,.36.08Z" transform="translate(-27.85 -27.85)"/><path class="cls-5" d="M358.14,246.15h-1v-8.59h1v3.06a2.12,2.12,0,0,1,1.71-.83A2.57,2.57,0,0,1,361,240a2.17,2.17,0,0,1,.84.65,3.32,3.32,0,0,1,.52,1,4.33,4.33,0,0,1,.19,1.27,3.59,3.59,0,0,1-.79,2.47,2.5,2.5,0,0,1-1.9.87,2,2,0,0,1-1.73-.92Zm0-3.16a3.27,3.27,0,0,0,.3,1.62,1.52,1.52,0,0,0,1.35.81,1.5,1.5,0,0,0,1.19-.6,2.69,2.69,0,0,0,.51-1.79,2.74,2.74,0,0,0-.49-1.8,1.48,1.48,0,0,0-1.16-.58,1.52,1.52,0,0,0-1.2.6A2.64,2.64,0,0,0,358.13,243Z" transform="translate(-27.85 -27.85)"/><path class="cls-5" d="M368.1,244.15l1.09.13a2.61,2.61,0,0,1-1,1.48,2.79,2.79,0,0,1-1.78.53,2.83,2.83,0,0,1-2.16-.84,3.26,3.26,0,0,1-.8-2.36,3.44,3.44,0,0,1,.81-2.44,2.74,2.74,0,0,1,2.09-.86,2.63,2.63,0,0,1,2,.85,3.35,3.35,0,0,1,.79,2.39v.28h-4.64a2.38,2.38,0,0,0,.58,1.57,1.74,1.74,0,0,0,1.3.54,1.62,1.62,0,0,0,1-.3A2,2,0,0,0,368.1,244.15Zm-3.46-1.71h3.47a2.17,2.17,0,0,0-.4-1.18,1.62,1.62,0,0,0-1.3-.61,1.71,1.71,0,0,0-1.23.49A1.89,1.89,0,0,0,364.64,242.44Z" transform="translate(-27.85 -27.85)"/><path class="cls-5" d="M373.43,244.29l1-.16a1.44,1.44,0,0,0,.49,1,1.72,1.72,0,0,0,1.12.33,1.66,1.66,0,0,0,1.08-.29.9.9,0,0,0,.35-.7.64.64,0,0,0-.31-.56,5.28,5.28,0,0,0-1.08-.36,9.92,9.92,0,0,1-1.61-.5,1.55,1.55,0,0,1-.91-1.43,1.57,1.57,0,0,1,.19-.77,1.73,1.73,0,0,1,.52-.59,2.33,2.33,0,0,1,.67-.31,3.34,3.34,0,0,1,.91-.12,3.63,3.63,0,0,1,1.29.21,1.77,1.77,0,0,1,.82.57,2.35,2.35,0,0,1,.36,1l-1,.14a1.16,1.16,0,0,0-.41-.75,1.47,1.47,0,0,0-.95-.27,1.73,1.73,0,0,0-1,.24.7.7,0,0,0-.31.57.58.58,0,0,0,.13.37,1,1,0,0,0,.4.28l.94.27a13.15,13.15,0,0,1,1.56.49,1.57,1.57,0,0,1,.69.55,1.52,1.52,0,0,1,.25.9,1.85,1.85,0,0,1-.3,1,2.06,2.06,0,0,1-.89.72,3.26,3.26,0,0,1-1.31.25,3,3,0,0,1-1.85-.5A2.31,2.31,0,0,1,373.43,244.29Z" transform="translate(-27.85 -27.85)"/><path class="cls-5" d="M384.11,244.15l1.09.13a2.66,2.66,0,0,1-1,1.48,3.22,3.22,0,0,1-3.94-.31,3.26,3.26,0,0,1-.8-2.36,3.48,3.48,0,0,1,.8-2.44,2.77,2.77,0,0,1,2.1-.86,2.66,2.66,0,0,1,2,.85,3.35,3.35,0,0,1,.79,2.39v.28h-4.64a2.33,2.33,0,0,0,.58,1.57,1.72,1.72,0,0,0,1.3.54,1.66,1.66,0,0,0,1-.3A2,2,0,0,0,384.11,244.15Zm-3.47-1.71h3.48a2.17,2.17,0,0,0-.4-1.18,1.64,1.64,0,0,0-1.31-.61,1.7,1.7,0,0,0-1.22.49A1.94,1.94,0,0,0,380.64,242.44Z" transform="translate(-27.85 -27.85)"/><path class="cls-5" d="M386.52,248.54v-8.61h1v.81a2.37,2.37,0,0,1,.77-.72,2.19,2.19,0,0,1,1-.23,2.38,2.38,0,0,1,1.4.41,2.45,2.45,0,0,1,.92,1.15,4.2,4.2,0,0,1,.31,1.64,4.13,4.13,0,0,1-.34,1.72,2.56,2.56,0,0,1-1,1.17,2.46,2.46,0,0,1-1.37.41,2,2,0,0,1-.95-.22,2.22,2.22,0,0,1-.68-.56v3Zm1-5.47a2.74,2.74,0,0,0,.48,1.78,1.51,1.51,0,0,0,2.38,0,3.54,3.54,0,0,0,0-3.63,1.5,1.5,0,0,0-1.17-.59,1.54,1.54,0,0,0-1.2.63A2.85,2.85,0,0,0,387.48,243.07Z" transform="translate(-27.85 -27.85)"/><path class="cls-5" d="M397.26,245.38a4.25,4.25,0,0,1-1.13.71,3.42,3.42,0,0,1-1.17.2,2.28,2.28,0,0,1-1.57-.5,1.64,1.64,0,0,1-.55-1.28,1.72,1.72,0,0,1,.21-.84,1.65,1.65,0,0,1,.54-.6,2.65,2.65,0,0,1,.76-.35c.21-.05.52-.1.94-.16a9.59,9.59,0,0,0,1.88-.36v-.27a1.16,1.16,0,0,0-.3-.91,1.76,1.76,0,0,0-1.2-.36,1.92,1.92,0,0,0-1.1.26,1.59,1.59,0,0,0-.52.92l-1-.14a2.63,2.63,0,0,1,.46-1.07,2,2,0,0,1,.93-.62,4.11,4.11,0,0,1,1.42-.22,3.85,3.85,0,0,1,1.29.18,1.72,1.72,0,0,1,.73.48,1.56,1.56,0,0,1,.33.71,5.59,5.59,0,0,1,.05,1v1.4a15.8,15.8,0,0,0,.07,1.86,2.6,2.6,0,0,0,.27.75h-1.1A2.17,2.17,0,0,1,397.26,245.38Zm-.09-2.35a8.26,8.26,0,0,1-1.73.4,3.82,3.82,0,0,0-.92.21.91.91,0,0,0-.41.34.92.92,0,0,0,.17,1.2,1.37,1.37,0,0,0,.94.28,2.16,2.16,0,0,0,1.08-.26,1.64,1.64,0,0,0,.7-.73,2.62,2.62,0,0,0,.17-1.06Z" transform="translate(-27.85 -27.85)"/><path class="cls-5" d="M399.86,246.15v-6.22h.95v.94a2.48,2.48,0,0,1,.67-.87,1.16,1.16,0,0,1,.67-.21,2,2,0,0,1,1.09.34l-.37,1a1.41,1.41,0,0,0-.77-.23,1,1,0,0,0-.62.2,1.2,1.2,0,0,0-.39.58,4.06,4.06,0,0,0-.18,1.23v3.26Z" transform="translate(-27.85 -27.85)"/><path class="cls-5" d="M407.93,245.38a4.25,4.25,0,0,1-1.13.71,3.42,3.42,0,0,1-1.17.2,2.28,2.28,0,0,1-1.57-.5,1.64,1.64,0,0,1-.55-1.28,1.72,1.72,0,0,1,.21-.84,1.65,1.65,0,0,1,.54-.6,2.65,2.65,0,0,1,.76-.35c.21-.05.52-.1.94-.16a9.59,9.59,0,0,0,1.88-.36v-.27a1.16,1.16,0,0,0-.3-.91,1.76,1.76,0,0,0-1.2-.36,1.92,1.92,0,0,0-1.1.26,1.59,1.59,0,0,0-.52.92l-1-.14a2.63,2.63,0,0,1,.46-1.07,2,2,0,0,1,.93-.62,4.11,4.11,0,0,1,1.42-.22,3.85,3.85,0,0,1,1.29.18,1.72,1.72,0,0,1,.73.48,1.56,1.56,0,0,1,.33.71,5.59,5.59,0,0,1,0,1v1.4a15.8,15.8,0,0,0,.07,1.86,2.33,2.33,0,0,0,.27.75h-1.1A2.17,2.17,0,0,1,407.93,245.38Zm-.09-2.35a8.26,8.26,0,0,1-1.73.4,3.82,3.82,0,0,0-.92.21.91.91,0,0,0-.41.34.92.92,0,0,0,.17,1.2,1.37,1.37,0,0,0,.94.28,2.16,2.16,0,0,0,1.08-.26,1.64,1.64,0,0,0,.7-.73,2.62,2.62,0,0,0,.17-1.06Z" transform="translate(-27.85 -27.85)"/><path class="cls-5" d="M412.84,245.21l.15.93a4,4,0,0,1-.79.09,1.79,1.79,0,0,1-.89-.18,1,1,0,0,1-.45-.48,3.6,3.6,0,0,1-.13-1.24v-3.58H410v-.82h.77v-1.54l1-.64v2.18h1.06v.82h-1.06v3.64a1.73,1.73,0,0,0,.06.58.38.38,0,0,0,.18.2.69.69,0,0,0,.36.08C412.5,245.25,412.65,245.23,412.84,245.21Z" transform="translate(-27.85 -27.85)"/><path class="cls-5" d="M418.13,244.15l1.09.13a2.64,2.64,0,0,1-1,1.48,3.24,3.24,0,0,1-3.95-.31,3.31,3.31,0,0,1-.8-2.36,3.44,3.44,0,0,1,.81-2.44,2.77,2.77,0,0,1,2.1-.86,2.66,2.66,0,0,1,2,.85,3.39,3.39,0,0,1,.79,2.39c0,.06,0,.15,0,.28h-4.64a2.38,2.38,0,0,0,.58,1.57,1.74,1.74,0,0,0,1.3.54,1.62,1.62,0,0,0,1-.3A2,2,0,0,0,418.13,244.15Zm-3.46-1.71h3.47a2.17,2.17,0,0,0-.39-1.18,1.65,1.65,0,0,0-1.31-.61,1.68,1.68,0,0,0-1.22.49A1.9,1.9,0,0,0,414.67,242.44Z" transform="translate(-27.85 -27.85)"/><path class="cls-5" d="M424.58,246.15v-.78a1.94,1.94,0,0,1-1.74.92,2.44,2.44,0,0,1-1.36-.41,2.65,2.65,0,0,1-1-1.14,4,4,0,0,1-.34-1.7,4.39,4.39,0,0,1,.31-1.69,2.39,2.39,0,0,1,.93-1.16,2.46,2.46,0,0,1,1.39-.4,2.17,2.17,0,0,1,1,.23,2.14,2.14,0,0,1,.71.62v-3.08h1.05v8.59ZM421.25,243a2.73,2.73,0,0,0,.5,1.79,1.52,1.52,0,0,0,1.19.59,1.49,1.49,0,0,0,1.18-.56,2.63,2.63,0,0,0,.48-1.73,2.91,2.91,0,0,0-.49-1.87,1.51,1.51,0,0,0-1.21-.6,1.48,1.48,0,0,0-1.18.57A2.88,2.88,0,0,0,421.25,243Z" transform="translate(-27.85 -27.85)"/><path class="cls-5" d="M430.81,246.15v-5.4h-.94v-.82h.94v-.66a2.82,2.82,0,0,1,.11-.94,1.36,1.36,0,0,1,.53-.66,2,2,0,0,1,1.08-.26,5.15,5.15,0,0,1,1,.11l-.16.92a3.34,3.34,0,0,0-.62-.06.92.92,0,0,0-.68.21,1.1,1.1,0,0,0-.2.76v.58h1.22v.82h-1.22v5.4Z" transform="translate(-27.85 -27.85)"/><path class="cls-5" d="M433.88,246.15v-6.22h.95v.94a2.48,2.48,0,0,1,.67-.87,1.16,1.16,0,0,1,.67-.21,2,2,0,0,1,1.09.34l-.37,1a1.41,1.41,0,0,0-.77-.23,1,1,0,0,0-.62.2,1.2,1.2,0,0,0-.39.58,4.06,4.06,0,0,0-.18,1.23v3.26Z" transform="translate(-27.85 -27.85)"/><path class="cls-5" d="M437.49,243a3.2,3.2,0,0,1,1-2.56,2.91,2.91,0,0,1,2-.69,2.8,2.8,0,0,1,2.1.84,3.2,3.2,0,0,1,.81,2.32,4.13,4.13,0,0,1-.36,1.89,2.52,2.52,0,0,1-1,1.07,3.1,3.1,0,0,1-1.5.38,2.78,2.78,0,0,1-2.11-.84A3.33,3.33,0,0,1,437.49,243Zm1.09,0a2.64,2.64,0,0,0,.52,1.79,1.64,1.64,0,0,0,1.31.59,1.7,1.7,0,0,0,1.31-.59,2.77,2.77,0,0,0,.52-1.83,2.58,2.58,0,0,0-.53-1.75,1.74,1.74,0,0,0-2.61,0A2.64,2.64,0,0,0,438.58,243Z" transform="translate(-27.85 -27.85)"/><path class="cls-5" d="M444.56,246.15v-6.22h.94v.87a2.27,2.27,0,0,1,.78-.73,2.13,2.13,0,0,1,1.11-.28,2,2,0,0,1,1.13.28,1.59,1.59,0,0,1,.63.81,2.22,2.22,0,0,1,1.92-1.09,1.88,1.88,0,0,1,1.42.51,2.2,2.2,0,0,1,.5,1.58v4.27h-1.05v-3.92a2.83,2.83,0,0,0-.1-.91.86.86,0,0,0-.37-.45,1.2,1.2,0,0,0-.64-.17,1.49,1.49,0,0,0-1.09.44,1.91,1.91,0,0,0-.43,1.4v3.61h-1.05v-4a1.82,1.82,0,0,0-.26-1.06,1,1,0,0,0-.85-.35,1.51,1.51,0,0,0-.82.24,1.34,1.34,0,0,0-.55.68,4,4,0,0,0-.17,1.3v3.23Z" transform="translate(-27.85 -27.85)"/><path class="cls-5" d="M460.19,245.21l.15.93a4,4,0,0,1-.79.09,1.79,1.79,0,0,1-.89-.18,1,1,0,0,1-.45-.48,3.6,3.6,0,0,1-.13-1.24v-3.58h-.77v-.82h.77v-1.54l1.05-.64v2.18h1.06v.82h-1.06v3.64a1.73,1.73,0,0,0,.06.58.38.38,0,0,0,.18.2.69.69,0,0,0,.36.08C459.85,245.25,460,245.23,460.19,245.21Z" transform="translate(-27.85 -27.85)"/><path class="cls-5" d="M461.22,246.15v-8.59h1.06v3.08a2.34,2.34,0,0,1,1.86-.85,2.53,2.53,0,0,1,1.2.27,1.6,1.6,0,0,1,.73.75,3.44,3.44,0,0,1,.22,1.4v3.94h-1.05v-3.94a1.61,1.61,0,0,0-.35-1.15,1.28,1.28,0,0,0-1-.36,1.74,1.74,0,0,0-.88.24,1.4,1.4,0,0,0-.59.66,3.17,3.17,0,0,0-.17,1.15v3.4Z" transform="translate(-27.85 -27.85)"/><path class="cls-5" d="M472.16,244.15l1.09.13a2.66,2.66,0,0,1-1,1.48,2.81,2.81,0,0,1-1.78.53,2.87,2.87,0,0,1-2.17-.84,3.31,3.31,0,0,1-.8-2.36,3.44,3.44,0,0,1,.81-2.44,2.77,2.77,0,0,1,2.1-.86,2.66,2.66,0,0,1,2,.85,3.35,3.35,0,0,1,.79,2.39c0,.06,0,.15,0,.28h-4.64a2.44,2.44,0,0,0,.58,1.57,1.76,1.76,0,0,0,1.31.54,1.66,1.66,0,0,0,1-.3A2,2,0,0,0,472.16,244.15Zm-3.47-1.71h3.48a2.17,2.17,0,0,0-.4-1.18,1.64,1.64,0,0,0-1.31-.61,1.7,1.7,0,0,0-1.22.49A1.94,1.94,0,0,0,468.69,242.44Z" transform="translate(-27.85 -27.85)"/><path class="cls-5" d="M482,245.38a4.07,4.07,0,0,1-1.12.71,3.42,3.42,0,0,1-1.17.2,2.26,2.26,0,0,1-1.57-.5,1.64,1.64,0,0,1-.55-1.28,1.83,1.83,0,0,1,.2-.84,1.67,1.67,0,0,1,.55-.6,2.65,2.65,0,0,1,.76-.35c.21-.05.52-.1.94-.16a9.75,9.75,0,0,0,1.88-.36v-.27a1.16,1.16,0,0,0-.3-.91,1.76,1.76,0,0,0-1.2-.36,1.92,1.92,0,0,0-1.1.26,1.59,1.59,0,0,0-.52.92l-1-.14a2.63,2.63,0,0,1,.46-1.07,2,2,0,0,1,.93-.62,4.09,4.09,0,0,1,1.41-.22,3.87,3.87,0,0,1,1.3.18,1.72,1.72,0,0,1,.73.48,1.56,1.56,0,0,1,.33.71,5.59,5.59,0,0,1,.05,1v1.4a15.8,15.8,0,0,0,.07,1.86,2.33,2.33,0,0,0,.27.75h-1.1A2.4,2.4,0,0,1,482,245.38Zm-.08-2.35a8.26,8.26,0,0,1-1.73.4,3.82,3.82,0,0,0-.92.21.86.86,0,0,0-.41.34.92.92,0,0,0,.17,1.2,1.37,1.37,0,0,0,.94.28,2.16,2.16,0,0,0,1.08-.26,1.64,1.64,0,0,0,.7-.73,2.62,2.62,0,0,0,.17-1.06Z" transform="translate(-27.85 -27.85)"/><path class="cls-5" d="M488.61,246.15v-.78a1.94,1.94,0,0,1-1.74.92,2.44,2.44,0,0,1-1.36-.41,2.65,2.65,0,0,1-1-1.14,4,4,0,0,1-.34-1.7,4.39,4.39,0,0,1,.31-1.69,2.39,2.39,0,0,1,.93-1.16,2.48,2.48,0,0,1,1.39-.4,2.17,2.17,0,0,1,1,.23,2.14,2.14,0,0,1,.71.62v-3.08h1v8.59ZM485.28,243a2.73,2.73,0,0,0,.5,1.79,1.52,1.52,0,0,0,1.19.59,1.47,1.47,0,0,0,1.18-.56,2.63,2.63,0,0,0,.48-1.73,2.91,2.91,0,0,0-.49-1.87,1.51,1.51,0,0,0-1.21-.6,1.48,1.48,0,0,0-1.18.57A2.88,2.88,0,0,0,485.28,243Z" transform="translate(-27.85 -27.85)"/><path class="cls-5" d="M489.91,248.56l.2-.89a2.39,2.39,0,0,0,.5.08.57.57,0,0,0,.48-.21,2.27,2.27,0,0,0,.16-1.07v-6.54h1.05v6.56a3.06,3.06,0,0,1-.3,1.6,1.38,1.38,0,0,1-1.26.59A2.87,2.87,0,0,1,489.91,248.56Zm1.34-9.77v-1.23h1.05v1.23Z" transform="translate(-27.85 -27.85)"/><path class="cls-5" d="M493.52,243a3.21,3.21,0,0,1,1-2.56,2.87,2.87,0,0,1,1.95-.69,2.79,2.79,0,0,1,2.1.84,3.2,3.2,0,0,1,.81,2.32,4.13,4.13,0,0,1-.36,1.89,2.55,2.55,0,0,1-1,1.07,3.11,3.11,0,0,1-1.51.38,2.79,2.79,0,0,1-2.11-.84A3.33,3.33,0,0,1,493.52,243Zm1.09,0a2.64,2.64,0,0,0,.52,1.79,1.66,1.66,0,0,0,1.31.59,1.68,1.68,0,0,0,1.31-.59,2.72,2.72,0,0,0,.52-1.83,2.58,2.58,0,0,0-.52-1.75,1.75,1.75,0,0,0-2.62,0A2.64,2.64,0,0,0,494.61,243Z" transform="translate(-27.85 -27.85)"/><path class="cls-5" d="M500.6,238.77v-1.21h1v1.21Zm0,7.38v-6.22h1v6.22Z" transform="translate(-27.85 -27.85)"/><path class="cls-5" d="M503.26,246.15v-6.22h.95v.88a2.22,2.22,0,0,1,2-1,2.49,2.49,0,0,1,1,.2,1.58,1.58,0,0,1,.71.53,2.3,2.3,0,0,1,.33.78,7.53,7.53,0,0,1,.05,1v3.83h-1.05v-3.78a2.94,2.94,0,0,0-.12-1,1.08,1.08,0,0,0-.44-.51,1.36,1.36,0,0,0-.74-.19,1.7,1.7,0,0,0-1.16.43,2.11,2.11,0,0,0-.49,1.62v3.4Z" transform="translate(-27.85 -27.85)"/><path class="cls-5" d="M509.94,238.77v-1.21H511v1.21Zm0,7.38v-6.22H511v6.22Z" transform="translate(-27.85 -27.85)"/><path class="cls-5" d="M512.6,246.15v-6.22h.95v.88a2.22,2.22,0,0,1,2-1,2.49,2.49,0,0,1,1,.2,1.58,1.58,0,0,1,.71.53,2.3,2.3,0,0,1,.33.78,7.53,7.53,0,0,1,0,1v3.83h-1v-3.78a2.94,2.94,0,0,0-.12-1,1.08,1.08,0,0,0-.44-.51,1.36,1.36,0,0,0-.74-.19,1.69,1.69,0,0,0-1.16.43,2.08,2.08,0,0,0-.49,1.62v3.4Z" transform="translate(-27.85 -27.85)"/><path class="cls-5" d="M519.08,246.67l1,.15a1,1,0,0,0,.36.69,1.79,1.79,0,0,0,1.07.29,1.9,1.9,0,0,0,1.13-.29,1.42,1.42,0,0,0,.54-.82,6.57,6.57,0,0,0,.08-1.35,2.18,2.18,0,0,1-1.72.81,2.35,2.35,0,0,1-2-.93,3.53,3.53,0,0,1-.7-2.22,4,4,0,0,1,.32-1.64,2.57,2.57,0,0,1,.93-1.16,2.48,2.48,0,0,1,1.44-.41,2.22,2.22,0,0,1,1.82.89v-.75h1v5.38a5.28,5.28,0,0,1-.29,2.06,2.16,2.16,0,0,1-.94.95,3.21,3.21,0,0,1-1.58.36,3,3,0,0,1-1.8-.51A1.66,1.66,0,0,1,519.08,246.67Zm.87-3.74a2.65,2.65,0,0,0,.49,1.78,1.53,1.53,0,0,0,1.22.57,1.55,1.55,0,0,0,1.21-.56,2.62,2.62,0,0,0,.5-1.76,2.54,2.54,0,0,0-.51-1.72,1.57,1.57,0,0,0-1.22-.58,1.53,1.53,0,0,0-1.2.57A2.54,2.54,0,0,0,520,242.93Z" transform="translate(-27.85 -27.85)"/><path class="cls-5" d="M258.94,260.55v-.78a2,2,0,0,1-1.74.92,2.47,2.47,0,0,1-1.37-.41,2.72,2.72,0,0,1-1-1.14,4.11,4.11,0,0,1-.34-1.69,4.4,4.4,0,0,1,.31-1.7,2.42,2.42,0,0,1,2.32-1.56,2.14,2.14,0,0,1,1,.23,2.08,2.08,0,0,1,.72.62V252h1.05v8.59Zm-3.33-3.1a2.66,2.66,0,0,0,.5,1.78,1.5,1.5,0,0,0,1.19.59,1.47,1.47,0,0,0,1.17-.56,2.57,2.57,0,0,0,.49-1.73,2.9,2.9,0,0,0-.5-1.87,1.5,1.5,0,0,0-1.21-.6,1.45,1.45,0,0,0-1.17.57A2.83,2.83,0,0,0,255.61,257.45Z" transform="translate(-27.85 -27.85)"/><path class="cls-5" d="M262.72,260.55l-1.9-6.22h1.09l1,3.59.37,1.34c0-.07.12-.5.32-1.29l1-3.64h1.09l.93,3.61.31,1.19.36-1.2,1.06-3.6h1l-1.95,6.22h-1.09l-1-3.73-.24-1.06-1.26,4.79Z" transform="translate(-27.85 -27.85)"/><path class="cls-5" d="M274.5,258.55l1.09.13a2.64,2.64,0,0,1-.95,1.48,3.24,3.24,0,0,1-3.95-.31,3.31,3.31,0,0,1-.8-2.36,3.46,3.46,0,0,1,.81-2.44,2.77,2.77,0,0,1,2.1-.86,2.66,2.66,0,0,1,2,.85,3.39,3.39,0,0,1,.79,2.39c0,.06,0,.15,0,.28H271a2.38,2.38,0,0,0,.58,1.57,1.74,1.74,0,0,0,1.3.54,1.62,1.62,0,0,0,1-.3A2,2,0,0,0,274.5,258.55ZM271,256.84h3.47a2.17,2.17,0,0,0-.39-1.18,1.65,1.65,0,0,0-1.31-.61,1.68,1.68,0,0,0-1.22.49A1.92,1.92,0,0,0,271,256.84Z" transform="translate(-27.85 -27.85)"/><path class="cls-5" d="M276.89,260.55V252H278v8.59Z" transform="translate(-27.85 -27.85)"/><path class="cls-5" d="M279.56,260.55V252h1.05v8.59Z" transform="translate(-27.85 -27.85)"/><path class="cls-5" d="M282.25,253.17V252h1.06v1.21Zm0,7.38v-6.22h1.06v6.22Z" transform="translate(-27.85 -27.85)"/><path class="cls-5" d="M284.91,260.55v-6.22h.95v.88a2.25,2.25,0,0,1,2-1,2.54,2.54,0,0,1,1,.2,1.55,1.55,0,0,1,.7.53,2,2,0,0,1,.33.78,5.85,5.85,0,0,1,.06,1v3.83h-1.05v-3.78a2.89,2.89,0,0,0-.13-1,1.06,1.06,0,0,0-.43-.51,1.38,1.38,0,0,0-.74-.19,1.67,1.67,0,0,0-1.16.43,2.09,2.09,0,0,0-.49,1.62v3.4Z" transform="translate(-27.85 -27.85)"/><path class="cls-5" d="M291.39,261.07l1,.15a.93.93,0,0,0,.36.69,1.72,1.72,0,0,0,1.07.29,1.85,1.85,0,0,0,1.13-.29,1.42,1.42,0,0,0,.54-.82,7.41,7.41,0,0,0,.08-1.35,2.2,2.2,0,0,1-1.73.81,2.33,2.33,0,0,1-2-.93,3.53,3.53,0,0,1-.71-2.22,4,4,0,0,1,.33-1.64,2.51,2.51,0,0,1,.93-1.16,2.48,2.48,0,0,1,1.44-.41,2.2,2.2,0,0,1,1.81.89v-.75h1v5.38a5.06,5.06,0,0,1-.3,2.06,2.16,2.16,0,0,1-.94,1,3.16,3.16,0,0,1-1.58.36,3,3,0,0,1-1.79-.5A1.72,1.72,0,0,1,291.39,261.07Zm.88-3.74a2.76,2.76,0,0,0,.48,1.79,1.61,1.61,0,0,0,2.44,0,3.31,3.31,0,0,0,0-3.48,1.57,1.57,0,0,0-1.23-.58,1.53,1.53,0,0,0-1.19.57A2.54,2.54,0,0,0,292.27,257.33Z" transform="translate(-27.85 -27.85)"/><path class="cls-5" d="M302.57,260.55h-1V252h1.05V255a2.1,2.1,0,0,1,1.71-.84,2.57,2.57,0,0,1,1.09.23,2.17,2.17,0,0,1,.84.65,3.32,3.32,0,0,1,.52,1,4.33,4.33,0,0,1,.19,1.27,3.54,3.54,0,0,1-.8,2.47,2.46,2.46,0,0,1-1.89.87,2,2,0,0,1-1.73-.92Zm0-3.16a3.27,3.27,0,0,0,.3,1.62,1.52,1.52,0,0,0,1.35.81,1.5,1.5,0,0,0,1.19-.6,2.69,2.69,0,0,0,.51-1.79,2.74,2.74,0,0,0-.49-1.8,1.48,1.48,0,0,0-1.16-.58,1.5,1.5,0,0,0-1.2.61A2.59,2.59,0,0,0,302.56,257.39Z" transform="translate(-27.85 -27.85)"/><path class="cls-5" d="M308.22,263l-.12-1a2.57,2.57,0,0,0,.61.09,1.13,1.13,0,0,0,.56-.12.89.89,0,0,0,.35-.32,6.77,6.77,0,0,0,.32-.79l.09-.26-2.36-6.23h1.14l1.29,3.6q.25.69.45,1.44c.13-.48.27-.95.44-1.42l1.33-3.62h1.05L311,260.66a13.84,13.84,0,0,1-.6,1.41,2,2,0,0,1-.64.76,1.46,1.46,0,0,1-.87.25A2.31,2.31,0,0,1,308.22,263Z" transform="translate(-27.85 -27.85)"/><path class="cls-5" d="M321.66,259.78a3.84,3.84,0,0,1-1.12.71,3.46,3.46,0,0,1-1.17.2,2.26,2.26,0,0,1-1.57-.5,1.64,1.64,0,0,1-.55-1.28,1.67,1.67,0,0,1,.2-.83,1.63,1.63,0,0,1,.55-.61,2.65,2.65,0,0,1,.76-.35c.2-.05.52-.1.93-.16a9.73,9.73,0,0,0,1.89-.36v-.27a1.16,1.16,0,0,0-.3-.91,1.76,1.76,0,0,0-1.2-.36,1.92,1.92,0,0,0-1.1.26,1.62,1.62,0,0,0-.52.92l-1-.14a2.63,2.63,0,0,1,.46-1.07,2,2,0,0,1,.93-.62,4.09,4.09,0,0,1,1.41-.22,3.87,3.87,0,0,1,1.3.18,1.78,1.78,0,0,1,.73.48,1.61,1.61,0,0,1,.33.71,6.84,6.84,0,0,1,.05,1v1.4a13.75,13.75,0,0,0,.07,1.86,2.12,2.12,0,0,0,.27.75h-1.11A2.41,2.41,0,0,1,321.66,259.78Zm-.08-2.35a8.26,8.26,0,0,1-1.73.4,3.82,3.82,0,0,0-.92.21.87.87,0,0,0-.41.34.92.92,0,0,0,.17,1.2,1.35,1.35,0,0,0,.93.29,2.18,2.18,0,0,0,1.09-.27,1.7,1.7,0,0,0,.7-.73,2.62,2.62,0,0,0,.17-1.06Z" transform="translate(-27.85 -27.85)"/><path class="cls-5" d="M328.76,260.55l-1.91-6.22h1.09l1,3.59.36,1.34.33-1.29,1-3.64h1.08l.93,3.61.31,1.19.36-1.2,1.07-3.6h1l-1.94,6.22h-1.1l-1-3.73-.24-1.06-1.26,4.79Z" transform="translate(-27.85 -27.85)"/><path class="cls-5" d="M340.34,259.78a3.88,3.88,0,0,1-1.13.71,3.41,3.41,0,0,1-1.16.2,2.29,2.29,0,0,1-1.58-.5,1.64,1.64,0,0,1-.55-1.28,1.77,1.77,0,0,1,.75-1.44,2.78,2.78,0,0,1,.76-.35c.21-.05.52-.1.94-.16a9.59,9.59,0,0,0,1.88-.36c0-.14,0-.23,0-.27a1.16,1.16,0,0,0-.3-.91,1.76,1.76,0,0,0-1.2-.36,1.87,1.87,0,0,0-1.1.26,1.63,1.63,0,0,0-.53.92l-1-.14a2.63,2.63,0,0,1,.46-1.07,2,2,0,0,1,.94-.62,4,4,0,0,1,1.41-.22,3.85,3.85,0,0,1,1.29.18,1.83,1.83,0,0,1,.74.48,1.72,1.72,0,0,1,.32.71,5.32,5.32,0,0,1,.06,1v1.4a16.75,16.75,0,0,0,.06,1.86,2.6,2.6,0,0,0,.27.75h-1.1A2.17,2.17,0,0,1,340.34,259.78Zm-.09-2.35a8.14,8.14,0,0,1-1.72.4,3.7,3.7,0,0,0-.92.21,1,1,0,0,0-.42.34.92.92,0,0,0,.17,1.2,1.39,1.39,0,0,0,.94.29,2.14,2.14,0,0,0,1.08-.27,1.64,1.64,0,0,0,.7-.73,2.62,2.62,0,0,0,.17-1.06Z" transform="translate(-27.85 -27.85)"/><path class="cls-5" d="M342.93,260.55V252H344v8.59Z" transform="translate(-27.85 -27.85)"/><path class="cls-5" d="M345.59,260.55V252h1.06v8.59Z" transform="translate(-27.85 -27.85)"/><path class="cls-5" d="M352.77,260.55l-1.91-6.22H352l1,3.59.37,1.34c0-.07.12-.5.32-1.29l1-3.64h1.09l.93,3.61.31,1.19.36-1.2,1.06-3.6h1l-1.95,6.22h-1.09l-1-3.73-.24-1.06-1.26,4.79Z" transform="translate(-27.85 -27.85)"/><path class="cls-5" d="M360.29,253.17V252h1v1.21Zm0,7.38v-6.22h1v6.22Z" transform="translate(-27.85 -27.85)"/><path class="cls-5" d="M365.25,259.61l.15.93a4,4,0,0,1-.79.09,1.79,1.79,0,0,1-.89-.18,1,1,0,0,1-.45-.48,3.88,3.88,0,0,1-.13-1.24v-3.58h-.77v-.82h.77v-1.54l1.05-.64v2.18h1.06v.82h-1.06v3.64a1.73,1.73,0,0,0,.06.58.38.38,0,0,0,.18.2.69.69,0,0,0,.36.08C364.91,259.65,365.06,259.63,365.25,259.61Z" transform="translate(-27.85 -27.85)"/><path class="cls-5" d="M366.28,260.55V252h1.06V255a2.34,2.34,0,0,1,1.86-.85,2.53,2.53,0,0,1,1.2.27,1.6,1.6,0,0,1,.73.75,3.44,3.44,0,0,1,.22,1.4v3.94H370.3v-3.94a1.61,1.61,0,0,0-.35-1.15,1.26,1.26,0,0,0-1-.36,1.74,1.74,0,0,0-.88.24,1.4,1.4,0,0,0-.59.66,3.21,3.21,0,0,0-.17,1.15v3.4Z" transform="translate(-27.85 -27.85)"/><path class="cls-5" d="M376.44,260.55V252h3.81a5.2,5.2,0,0,1,1.75.23,1.94,1.94,0,0,1,.95.82,2.41,2.41,0,0,1,.36,1.29,2.2,2.2,0,0,1-.59,1.55,3.05,3.05,0,0,1-1.83.79,3.33,3.33,0,0,1,.69.43,6.14,6.14,0,0,1,.94,1.14l1.49,2.34h-1.43l-1.13-1.79c-.34-.51-.61-.91-.82-1.18a2.75,2.75,0,0,0-.58-.57,1.6,1.6,0,0,0-.52-.23,3.21,3.21,0,0,0-.63,0h-1.32v3.81Zm1.14-4.8H380a3.6,3.6,0,0,0,1.22-.16,1.34,1.34,0,0,0,.67-.51,1.45,1.45,0,0,0,.23-.78,1.3,1.3,0,0,0-.44-1,2.09,2.09,0,0,0-1.4-.39h-2.72Z" transform="translate(-27.85 -27.85)"/><path class="cls-5" d="M386.1,260.55l-1.9-6.22h1.09l1,3.59.37,1.34c0-.07.12-.5.32-1.29l1-3.64h1.09l.93,3.61.31,1.19.36-1.2,1.06-3.6h1l-1.95,6.22H389.7l-1-3.73-.24-1.06-1.26,4.79Z" transform="translate(-27.85 -27.85)"/><path class="cls-5" d="M400,260.55v-2.06h-3.72v-1l3.92-5.57h.86v5.57h1.16v1H401.1v2.06Zm0-3v-3.88l-2.69,3.88Z" transform="translate(-27.85 -27.85)"/><path class="cls-5" d="M403.34,258.3l1.1-.09a2,2,0,0,0,.58,1.21,1.55,1.55,0,0,0,1.08.41,1.72,1.72,0,0,0,1.29-.57,2.18,2.18,0,0,0,.52-1.53,2,2,0,0,0-.5-1.42,2,2,0,0,0-2.25-.29,1.68,1.68,0,0,0-.64.6l-1-.13.84-4.41h4.27v1H405.2l-.46,2.3a2.82,2.82,0,0,1,1.62-.53,2.61,2.61,0,0,1,1.9.77,2.75,2.75,0,0,1,.77,2,3.06,3.06,0,0,1-.68,2,2.71,2.71,0,0,1-2.25,1.05,2.8,2.8,0,0,1-1.92-.66A2.58,2.58,0,0,1,403.34,258.3Z" transform="translate(-27.85 -27.85)"/><path class="cls-5" d="M410.58,260.55v-1.2h1.2v1.2a2.21,2.21,0,0,1-.23,1.07,1.58,1.58,0,0,1-.75.63l-.29-.45a1,1,0,0,0,.49-.43,1.75,1.75,0,0,0,.18-.82Z" transform="translate(-27.85 -27.85)"/><path class="cls-5" d="M419.27,259.61l.16.93a4.16,4.16,0,0,1-.8.09,1.82,1.82,0,0,1-.89-.18,1,1,0,0,1-.45-.48,4,4,0,0,1-.12-1.24v-3.58h-.78v-.82h.78v-1.54l1-.64v2.18h1.06v.82h-1.06v3.64a1.73,1.73,0,0,0,.06.58.49.49,0,0,0,.18.2.74.74,0,0,0,.36.08C418.93,259.65,419.08,259.63,419.27,259.61Z" transform="translate(-27.85 -27.85)"/><path class="cls-5" d="M420.31,260.55V252h1.05V255a2.34,2.34,0,0,1,1.86-.85,2.54,2.54,0,0,1,1.21.27,1.54,1.54,0,0,1,.72.75,3.44,3.44,0,0,1,.22,1.4v3.94h-1.05v-3.94a1.61,1.61,0,0,0-.34-1.15,1.28,1.28,0,0,0-1-.36,1.69,1.69,0,0,0-.88.24,1.3,1.3,0,0,0-.59.66,3,3,0,0,0-.18,1.15v3.4Z" transform="translate(-27.85 -27.85)"/><path class="cls-5" d="M427,253.17V252H428v1.21Zm0,7.38v-6.22H428v6.22Z" transform="translate(-27.85 -27.85)"/><path class="cls-5" d="M429.22,258.69l1-.16a1.44,1.44,0,0,0,.49,1,1.7,1.7,0,0,0,1.12.33,1.66,1.66,0,0,0,1.08-.29.9.9,0,0,0,.35-.7.67.67,0,0,0-.31-.56,5.28,5.28,0,0,0-1.08-.36,9.92,9.92,0,0,1-1.61-.5,1.53,1.53,0,0,1-.91-1.43,1.57,1.57,0,0,1,.19-.77,1.73,1.73,0,0,1,.52-.59,2.33,2.33,0,0,1,.67-.31,3.34,3.34,0,0,1,.91-.12,3.63,3.63,0,0,1,1.29.21,1.69,1.69,0,0,1,.81.57,2.22,2.22,0,0,1,.37,1l-1,.14a1.16,1.16,0,0,0-.41-.75,1.49,1.49,0,0,0-1-.27,1.73,1.73,0,0,0-1,.24.7.7,0,0,0-.31.57.58.58,0,0,0,.13.37,1,1,0,0,0,.4.28l.93.27a12.86,12.86,0,0,1,1.57.49,1.57,1.57,0,0,1,.69.55,1.52,1.52,0,0,1,.25.9,1.76,1.76,0,0,1-.31,1,2,2,0,0,1-.88.72,3.27,3.27,0,0,1-1.32.25,2.94,2.94,0,0,1-1.84-.5A2.36,2.36,0,0,1,429.22,258.69Z" transform="translate(-27.85 -27.85)"/><path class="cls-5" d="M439,260.55v-6.22h.94v.87a2.27,2.27,0,0,1,.78-.73,2.18,2.18,0,0,1,1.11-.28,2,2,0,0,1,1.13.28,1.54,1.54,0,0,1,.63.81,2.22,2.22,0,0,1,1.92-1.09,1.88,1.88,0,0,1,1.42.51,2.16,2.16,0,0,1,.5,1.58v4.27h-1.05v-3.92a2.87,2.87,0,0,0-.1-.91.86.86,0,0,0-.37-.45,1.19,1.19,0,0,0-.63-.17,1.46,1.46,0,0,0-1.09.44,1.91,1.91,0,0,0-.44,1.4v3.61h-1.05v-4a1.82,1.82,0,0,0-.26-1.06,1,1,0,0,0-.84-.35,1.52,1.52,0,0,0-.83.24,1.34,1.34,0,0,0-.55.68,4,4,0,0,0-.17,1.3v3.23Z" transform="translate(-27.85 -27.85)"/><path class="cls-5" d="M453,259.78a3.88,3.88,0,0,1-1.13.71,3.41,3.41,0,0,1-1.16.2,2.29,2.29,0,0,1-1.58-.5,1.64,1.64,0,0,1-.55-1.28,1.77,1.77,0,0,1,.75-1.44,2.78,2.78,0,0,1,.76-.35c.21-.05.52-.1.94-.16a9.59,9.59,0,0,0,1.88-.36v-.27a1.19,1.19,0,0,0-.29-.91,1.77,1.77,0,0,0-1.21-.36,1.86,1.86,0,0,0-1.09.26,1.58,1.58,0,0,0-.53.92l-1-.14a2.63,2.63,0,0,1,.46-1.07,2,2,0,0,1,.93-.62,4.11,4.11,0,0,1,1.42-.22,3.85,3.85,0,0,1,1.29.18,1.72,1.72,0,0,1,.73.48,1.61,1.61,0,0,1,.33.71,5.32,5.32,0,0,1,.06,1v1.4a16.75,16.75,0,0,0,.06,1.86,2.6,2.6,0,0,0,.27.75h-1.1A2.17,2.17,0,0,1,453,259.78Zm-.09-2.35a8.14,8.14,0,0,1-1.72.4,3.7,3.7,0,0,0-.92.21,1,1,0,0,0-.42.34.92.92,0,0,0,.17,1.2,1.39,1.39,0,0,0,.94.29,2.14,2.14,0,0,0,1.08-.27,1.64,1.64,0,0,0,.7-.73,2.62,2.62,0,0,0,.17-1.06Z" transform="translate(-27.85 -27.85)"/><path class="cls-5" d="M455.6,263l-.11-1a2.43,2.43,0,0,0,.6.09,1.13,1.13,0,0,0,.56-.12.89.89,0,0,0,.35-.32,6.77,6.77,0,0,0,.32-.79l.09-.26-2.36-6.23h1.14l1.29,3.6c.17.46.32.94.46,1.44a14.47,14.47,0,0,1,.43-1.42l1.33-3.62h1.05l-2.36,6.33a11.84,11.84,0,0,1-.6,1.41,2,2,0,0,1-.64.76,1.46,1.46,0,0,1-.87.25A2.31,2.31,0,0,1,455.6,263Z" transform="translate(-27.85 -27.85)"/><path class="cls-5" d="M466,260.55h-1V252h1V255a2.1,2.1,0,0,1,1.71-.84,2.5,2.5,0,0,1,1.08.23,2.13,2.13,0,0,1,.85.65,3.32,3.32,0,0,1,.52,1,4.33,4.33,0,0,1,.18,1.27,3.54,3.54,0,0,1-.79,2.47,2.46,2.46,0,0,1-1.89.87,2,2,0,0,1-1.73-.92Zm0-3.16a3.25,3.25,0,0,0,.31,1.62,1.52,1.52,0,0,0,1.35.81,1.5,1.5,0,0,0,1.19-.6,2.69,2.69,0,0,0,.51-1.79,2.74,2.74,0,0,0-.49-1.8,1.47,1.47,0,0,0-2.36,0A2.59,2.59,0,0,0,465.94,257.39Z" transform="translate(-27.85 -27.85)"/><path class="cls-5" d="M475.92,258.55l1.09.13a2.61,2.61,0,0,1-1,1.48,3.22,3.22,0,0,1-3.94-.31,3.26,3.26,0,0,1-.8-2.36,3.5,3.5,0,0,1,.8-2.44,2.77,2.77,0,0,1,2.1-.86,2.66,2.66,0,0,1,2,.85,3.35,3.35,0,0,1,.79,2.39v.28H472.4a2.38,2.38,0,0,0,.58,1.57,1.72,1.72,0,0,0,1.3.54,1.66,1.66,0,0,0,1-.3A2,2,0,0,0,475.92,258.55Zm-3.47-1.71h3.48a2.17,2.17,0,0,0-.4-1.18,1.64,1.64,0,0,0-1.31-.61,1.7,1.7,0,0,0-1.22.49A2,2,0,0,0,472.45,256.84Z" transform="translate(-27.85 -27.85)"/><path class="cls-5" d="M481.65,260.55v-6.22h1v.94a2.74,2.74,0,0,1,.67-.87,1.19,1.19,0,0,1,.68-.21,2,2,0,0,1,1.08.34l-.36,1a1.43,1.43,0,0,0-.77-.23,1,1,0,0,0-.62.21,1.08,1.08,0,0,0-.4.57,4.4,4.4,0,0,0-.17,1.23v3.26Z" transform="translate(-27.85 -27.85)"/><path class="cls-5" d="M489.92,258.55l1.09.13a2.64,2.64,0,0,1-.95,1.48,3.24,3.24,0,0,1-3.95-.31,3.31,3.31,0,0,1-.8-2.36,3.46,3.46,0,0,1,.81-2.44,2.77,2.77,0,0,1,2.1-.86,2.66,2.66,0,0,1,2,.85,3.39,3.39,0,0,1,.79,2.39c0,.06,0,.15,0,.28H486.4a2.38,2.38,0,0,0,.58,1.57,1.74,1.74,0,0,0,1.3.54,1.62,1.62,0,0,0,1-.3A2,2,0,0,0,489.92,258.55Zm-3.46-1.71h3.47a2.09,2.09,0,0,0-.4-1.18,1.62,1.62,0,0,0-1.3-.61,1.68,1.68,0,0,0-1.22.49A1.92,1.92,0,0,0,486.46,256.84Z" transform="translate(-27.85 -27.85)"/><path class="cls-5" d="M496.37,260.55v-.78a1.94,1.94,0,0,1-1.74.92,2.5,2.5,0,0,1-1.37-.41,2.7,2.7,0,0,1-1-1.14,4,4,0,0,1-.35-1.69,4.4,4.4,0,0,1,.32-1.7,2.39,2.39,0,0,1,.93-1.16,2.46,2.46,0,0,1,1.39-.4,2.2,2.2,0,0,1,1,.23,2.14,2.14,0,0,1,.71.62V252h1.05v8.59Zm-3.33-3.1a2.72,2.72,0,0,0,.5,1.78,1.51,1.51,0,0,0,2.37,0,2.63,2.63,0,0,0,.48-1.73,2.91,2.91,0,0,0-.49-1.87,1.51,1.51,0,0,0-1.21-.6,1.47,1.47,0,0,0-1.18.57A2.9,2.9,0,0,0,493,257.45Z" transform="translate(-27.85 -27.85)"/><path class="cls-5" d="M503.09,260.55v-.91a2.3,2.3,0,0,1-2,1.05,2.56,2.56,0,0,1-1-.21,1.71,1.71,0,0,1-.7-.53,1.84,1.84,0,0,1-.33-.78,5.84,5.84,0,0,1-.06-1v-3.85H500v3.45a6.55,6.55,0,0,0,.06,1.11,1.12,1.12,0,0,0,.43.66,1.34,1.34,0,0,0,.79.23,1.72,1.72,0,0,0,.89-.24,1.3,1.3,0,0,0,.59-.66,3.23,3.23,0,0,0,.18-1.22v-3.33h1v6.22Z" transform="translate(-27.85 -27.85)"/><path class="cls-5" d="M509.74,258.27l1,.14a2.64,2.64,0,0,1-.87,1.67,2.52,2.52,0,0,1-1.72.61,2.67,2.67,0,0,1-2.05-.83,3.4,3.4,0,0,1-.78-2.4,4.35,4.35,0,0,1,.33-1.76,2.4,2.4,0,0,1,1-1.13,3,3,0,0,1,1.49-.38,2.56,2.56,0,0,1,1.65.51,2.35,2.35,0,0,1,.83,1.46l-1,.15a1.72,1.72,0,0,0-.52-.94,1.36,1.36,0,0,0-.9-.32,1.66,1.66,0,0,0-1.3.58,2.71,2.71,0,0,0-.5,1.8,2.76,2.76,0,0,0,.49,1.83,1.57,1.57,0,0,0,1.25.56,1.47,1.47,0,0,0,1-.38A1.88,1.88,0,0,0,509.74,258.27Z" transform="translate(-27.85 -27.85)"/><path class="cls-5" d="M515.94,258.55l1.09.13a2.64,2.64,0,0,1-.95,1.48,3.24,3.24,0,0,1-4-.31,3.31,3.31,0,0,1-.8-2.36,3.46,3.46,0,0,1,.81-2.44,2.77,2.77,0,0,1,2.1-.86,2.66,2.66,0,0,1,2,.85,3.39,3.39,0,0,1,.79,2.39c0,.06,0,.15,0,.28h-4.64a2.38,2.38,0,0,0,.58,1.57,1.74,1.74,0,0,0,1.3.54,1.62,1.62,0,0,0,1-.3A2,2,0,0,0,515.94,258.55Zm-3.46-1.71H516a2.17,2.17,0,0,0-.39-1.18,1.65,1.65,0,0,0-1.31-.61,1.7,1.7,0,0,0-1.22.49A2,2,0,0,0,512.48,256.84Z" transform="translate(-27.85 -27.85)"/><path class="cls-5" d="M522.39,260.55v-.78a1.94,1.94,0,0,1-1.74.92,2.44,2.44,0,0,1-1.36-.41,2.65,2.65,0,0,1-1-1.14,4,4,0,0,1-.34-1.69,4.4,4.4,0,0,1,.31-1.7,2.39,2.39,0,0,1,.93-1.16,2.48,2.48,0,0,1,1.39-.4,2.17,2.17,0,0,1,1,.23,2.14,2.14,0,0,1,.71.62V252h1v8.59Zm-3.33-3.1a2.72,2.72,0,0,0,.5,1.78,1.52,1.52,0,0,0,1.19.59,1.49,1.49,0,0,0,1.18-.56,2.63,2.63,0,0,0,.48-1.73,2.91,2.91,0,0,0-.49-1.87,1.51,1.51,0,0,0-1.21-.6,1.48,1.48,0,0,0-1.18.57A2.9,2.9,0,0,0,519.06,257.45Z" transform="translate(-27.85 -27.85)"/><path class="cls-5" d="M257.21,274l.15.93a4.16,4.16,0,0,1-.8.09,1.82,1.82,0,0,1-.89-.18,1,1,0,0,1-.45-.48,4,4,0,0,1-.12-1.24v-3.58h-.78v-.82h.78v-1.54l1-.64v2.18h1.07v.82h-1.07v3.64a1.73,1.73,0,0,0,.06.58.49.49,0,0,0,.18.2.74.74,0,0,0,.36.08C256.86,274.05,257,274,257.21,274Z" transform="translate(-27.85 -27.85)"/><path class="cls-5" d="M257.84,271.84a3.2,3.2,0,0,1,1-2.56,2.91,2.91,0,0,1,2-.69,2.79,2.79,0,0,1,2.1.84,3.2,3.2,0,0,1,.81,2.32,4.13,4.13,0,0,1-.36,1.89,2.52,2.52,0,0,1-1.05,1.07,3.07,3.07,0,0,1-1.5.38,2.79,2.79,0,0,1-2.11-.84A3.33,3.33,0,0,1,257.84,271.84Zm1.09,0a2.64,2.64,0,0,0,.52,1.79,1.65,1.65,0,0,0,1.31.59,1.68,1.68,0,0,0,1.31-.59,2.72,2.72,0,0,0,.52-1.83,2.58,2.58,0,0,0-.52-1.75,1.75,1.75,0,0,0-2.62,0A2.64,2.64,0,0,0,258.93,271.84Z" transform="translate(-27.85 -27.85)"/><path class="cls-5" d="M272.3,274.18a4.07,4.07,0,0,1-1.12.71,3.42,3.42,0,0,1-1.17.2,2.26,2.26,0,0,1-1.57-.5,1.64,1.64,0,0,1-.55-1.28,1.83,1.83,0,0,1,.2-.84,1.77,1.77,0,0,1,.55-.6,2.65,2.65,0,0,1,.76-.35,8.38,8.38,0,0,1,.94-.16,9.75,9.75,0,0,0,1.88-.36v-.27a1.16,1.16,0,0,0-.3-.91,1.76,1.76,0,0,0-1.2-.36,1.92,1.92,0,0,0-1.1.26,1.59,1.59,0,0,0-.52.92l-1-.14a2.57,2.57,0,0,1,.46-1.07,2,2,0,0,1,.93-.62,4.09,4.09,0,0,1,1.41-.22,3.87,3.87,0,0,1,1.3.18,1.72,1.72,0,0,1,.73.48,1.56,1.56,0,0,1,.33.71,5.59,5.59,0,0,1,0,1v1.4a15.8,15.8,0,0,0,.07,1.86,2.33,2.33,0,0,0,.27.75h-1.1A2.4,2.4,0,0,1,272.3,274.18Zm-.08-2.35a8.26,8.26,0,0,1-1.73.4,3.82,3.82,0,0,0-.92.21.86.86,0,0,0-.41.34.92.92,0,0,0,.17,1.2,1.37,1.37,0,0,0,.94.28,2.16,2.16,0,0,0,1.08-.26,1.64,1.64,0,0,0,.7-.73,2.62,2.62,0,0,0,.17-1.06Z" transform="translate(-27.85 -27.85)"/><path class="cls-5" d="M278.4,275v-8.59h3.81a5.2,5.2,0,0,1,1.75.23,1.89,1.89,0,0,1,1,.82,2.41,2.41,0,0,1,.36,1.29,2.2,2.2,0,0,1-.59,1.55,3,3,0,0,1-1.83.79,3.33,3.33,0,0,1,.69.43,6.14,6.14,0,0,1,.94,1.14L286,275h-1.43l-1.13-1.79c-.33-.51-.61-.91-.82-1.18a2.52,2.52,0,0,0-.58-.57,1.6,1.6,0,0,0-.52-.23,3.21,3.21,0,0,0-.63,0h-1.32V275Zm1.14-4.8H282a3.6,3.6,0,0,0,1.22-.16,1.27,1.27,0,0,0,.67-.52,1.39,1.39,0,0,0,.23-.77,1.3,1.3,0,0,0-.44-1,2.09,2.09,0,0,0-1.4-.39h-2.72Z" transform="translate(-27.85 -27.85)"/><path class="cls-5" d="M288.07,275l-1.91-6.22h1.09l1,3.59.37,1.34c0-.07.12-.5.32-1.29l1-3.64H291l.93,3.61.31,1.19.36-1.2,1.06-3.6h1L292.75,275h-1.09l-1-3.73-.24-1.06L289.17,275Z" transform="translate(-27.85 -27.85)"/><path class="cls-5" d="M298.63,272.68l1.06-.14a2.29,2.29,0,0,0,.61,1.29,1.51,1.51,0,0,0,1.07.4,1.68,1.68,0,0,0,1.25-.52,1.7,1.7,0,0,0,.52-1.27,1.63,1.63,0,0,0-1.69-1.67,3.48,3.48,0,0,0-.74.11l.12-.92H301a2.2,2.2,0,0,0,1.21-.35,1.22,1.22,0,0,0,.54-1.09,1.3,1.3,0,0,0-.39-1,1.54,1.54,0,0,0-2,0,1.91,1.91,0,0,0-.53,1.16l-1.05-.19a2.68,2.68,0,0,1,.87-1.64,2.55,2.55,0,0,1,1.71-.58,2.79,2.79,0,0,1,1.29.3,2.14,2.14,0,0,1,.91.82,2.12,2.12,0,0,1,.31,1.11,1.79,1.79,0,0,1-.3,1,2,2,0,0,1-.88.73,1.94,1.94,0,0,1,1.18.73,2.23,2.23,0,0,1,.43,1.38,2.56,2.56,0,0,1-.82,1.91,2.9,2.9,0,0,1-2.08.78,2.71,2.71,0,0,1-1.88-.67A2.59,2.59,0,0,1,298.63,272.68Z" transform="translate(-27.85 -27.85)"/><path class="cls-5" d="M305.3,270.71a7.86,7.86,0,0,1,.31-2.45,3,3,0,0,1,.93-1.43,2.37,2.37,0,0,1,1.56-.5,2.6,2.6,0,0,1,1.21.27,2.3,2.3,0,0,1,.86.81,4.23,4.23,0,0,1,.54,1.27,8.51,8.51,0,0,1,.19,2,7.74,7.74,0,0,1-.31,2.44,3.11,3.11,0,0,1-.93,1.44,2.61,2.61,0,0,1-3.51-.38A5.66,5.66,0,0,1,305.3,270.71Zm1.08,0a5.4,5.4,0,0,0,.5,2.82,1.41,1.41,0,0,0,2.44,0,5.4,5.4,0,0,0,.5-2.82,5.34,5.34,0,0,0-.5-2.81,1.46,1.46,0,0,0-1.23-.7,1.34,1.34,0,0,0-1.16.61A5.39,5.39,0,0,0,306.38,270.71Z" transform="translate(-27.85 -27.85)"/><path class="cls-5" d="M315.6,267.57v-1.21h1.06v1.21Zm0,7.38v-6.22h1.06V275Z" transform="translate(-27.85 -27.85)"/><path class="cls-5" d="M318.52,275v-5.4h-.93v-.82h.93v-.66a2.82,2.82,0,0,1,.11-.94,1.36,1.36,0,0,1,.53-.66,2,2,0,0,1,1.08-.26,5.15,5.15,0,0,1,1,.11l-.15.92a3.52,3.52,0,0,0-.63-.06.88.88,0,0,0-.67.21,1.05,1.05,0,0,0-.2.76v.58h1.21v.82h-1.21V275Z" transform="translate(-27.85 -27.85)"/><path class="cls-5" d="M327.24,274l.15.93a4.08,4.08,0,0,1-.8.09,1.82,1.82,0,0,1-.89-.18,1,1,0,0,1-.44-.48,3.6,3.6,0,0,1-.13-1.24v-3.58h-.78v-.82h.78v-1.54l1.05-.64v2.18h1.06v.82h-1.06v3.64a1.83,1.83,0,0,0,.05.58.49.49,0,0,0,.18.2.74.74,0,0,0,.36.08C326.89,274.05,327,274,327.24,274Z" transform="translate(-27.85 -27.85)"/><path class="cls-5" d="M328.27,275v-8.59h1.05v3.08a2.36,2.36,0,0,1,1.87-.85,2.53,2.53,0,0,1,1.2.27,1.6,1.6,0,0,1,.73.75,3.62,3.62,0,0,1,.22,1.4V275h-1.06V271a1.61,1.61,0,0,0-.34-1.15,1.28,1.28,0,0,0-1-.36,1.71,1.71,0,0,0-.88.24,1.3,1.3,0,0,0-.59.66,2.94,2.94,0,0,0-.18,1.15V275Z" transform="translate(-27.85 -27.85)"/><path class="cls-5" d="M339.2,273l1.09.13a2.64,2.64,0,0,1-1,1.48,2.9,2.9,0,0,1-1.79.53,2.83,2.83,0,0,1-2.16-.84,3.31,3.31,0,0,1-.8-2.36,3.44,3.44,0,0,1,.81-2.44,2.77,2.77,0,0,1,2.1-.86,2.62,2.62,0,0,1,2,.85,3.35,3.35,0,0,1,.8,2.39c0,.06,0,.15,0,.28h-4.64a2.38,2.38,0,0,0,.58,1.57,1.74,1.74,0,0,0,1.3.54,1.62,1.62,0,0,0,1-.3A2,2,0,0,0,339.2,273Zm-3.46-1.71h3.47a2.09,2.09,0,0,0-.4-1.18,1.62,1.62,0,0,0-1.3-.61,1.68,1.68,0,0,0-1.22.49A1.9,1.9,0,0,0,335.74,271.24Z" transform="translate(-27.85 -27.85)"/><path class="cls-5" d="M349,274.18a4.1,4.1,0,0,1-1.13.71,3.41,3.41,0,0,1-1.16.2,2.29,2.29,0,0,1-1.58-.5,1.64,1.64,0,0,1-.55-1.28,1.72,1.72,0,0,1,.21-.84,1.74,1.74,0,0,1,.54-.6,2.78,2.78,0,0,1,.76-.35,8.38,8.38,0,0,1,.94-.16,9.59,9.59,0,0,0,1.88-.36c0-.14,0-.24,0-.27a1.16,1.16,0,0,0-.3-.91,1.76,1.76,0,0,0-1.2-.36,1.87,1.87,0,0,0-1.1.26,1.6,1.6,0,0,0-.53.92l-1-.14a2.58,2.58,0,0,1,.47-1.07,1.93,1.93,0,0,1,.93-.62,4,4,0,0,1,1.41-.22,3.85,3.85,0,0,1,1.29.18,1.76,1.76,0,0,1,.74.48,1.8,1.8,0,0,1,.33.71,6.84,6.84,0,0,1,.05,1v1.4a13.75,13.75,0,0,0,.07,1.86,2.31,2.31,0,0,0,.26.75h-1.1A2.17,2.17,0,0,1,349,274.18Zm-.09-2.35a8.14,8.14,0,0,1-1.72.4,3.82,3.82,0,0,0-.92.21.89.89,0,0,0-.42.34,1,1,0,0,0-.14.5.86.86,0,0,0,.32.7,1.34,1.34,0,0,0,.93.28,2.11,2.11,0,0,0,1.08-.26,1.64,1.64,0,0,0,.7-.73,2.62,2.62,0,0,0,.17-1.06Z" transform="translate(-27.85 -27.85)"/><path class="cls-5" d="M355.66,275v-.79a1.92,1.92,0,0,1-1.74.93,2.47,2.47,0,0,1-1.37-.41,2.72,2.72,0,0,1-1-1.14,4.16,4.16,0,0,1-.34-1.7,4.58,4.58,0,0,1,.31-1.69,2.42,2.42,0,0,1,2.32-1.56,2.14,2.14,0,0,1,1,.23,2.08,2.08,0,0,1,.72.62v-3.08h1.05V275Zm-3.33-3.11a2.68,2.68,0,0,0,.5,1.79,1.5,1.5,0,0,0,1.19.59,1.47,1.47,0,0,0,1.17-.56,2.57,2.57,0,0,0,.49-1.73,3,3,0,0,0-.49-1.87,1.53,1.53,0,0,0-1.22-.6,1.45,1.45,0,0,0-1.17.57A2.82,2.82,0,0,0,352.33,271.84Z" transform="translate(-27.85 -27.85)"/><path class="cls-5" d="M357,277.36l.2-.89a2.39,2.39,0,0,0,.5.08.55.55,0,0,0,.48-.21,2.15,2.15,0,0,0,.16-1.07v-6.54h1.06v6.56a3.06,3.06,0,0,1-.3,1.6,1.41,1.41,0,0,1-1.27.59A2.92,2.92,0,0,1,357,277.36Zm1.34-9.78v-1.22h1.06v1.22Z" transform="translate(-27.85 -27.85)"/><path class="cls-5" d="M360.57,271.84a3.2,3.2,0,0,1,1-2.56,2.91,2.91,0,0,1,2-.69,2.82,2.82,0,0,1,2.1.84,3.2,3.2,0,0,1,.81,2.32,4.13,4.13,0,0,1-.36,1.89,2.52,2.52,0,0,1-1.05,1.07,3.1,3.1,0,0,1-1.5.38,2.78,2.78,0,0,1-2.11-.84A3.33,3.33,0,0,1,360.57,271.84Zm1.08,0a2.64,2.64,0,0,0,.53,1.79,1.64,1.64,0,0,0,1.31.59,1.66,1.66,0,0,0,1.3-.59,2.72,2.72,0,0,0,.53-1.83,2.58,2.58,0,0,0-.53-1.75,1.74,1.74,0,0,0-2.61,0A2.64,2.64,0,0,0,361.65,271.84Z" transform="translate(-27.85 -27.85)"/><path class="cls-5" d="M367.64,267.57v-1.21h1.06v1.21Zm0,7.38v-6.22h1.06V275Z" transform="translate(-27.85 -27.85)"/><path class="cls-5" d="M370.3,275v-6.22h.95v.88a2.25,2.25,0,0,1,2-1,2.54,2.54,0,0,1,1,.2,1.55,1.55,0,0,1,.7.53,2,2,0,0,1,.33.78,5.85,5.85,0,0,1,.06,1V275H374.3v-3.79a2.91,2.91,0,0,0-.12-1,1,1,0,0,0-.44-.51,1.32,1.32,0,0,0-.73-.19,1.67,1.67,0,0,0-1.16.43,2.08,2.08,0,0,0-.49,1.62V275Z" transform="translate(-27.85 -27.85)"/><path class="cls-5" d="M377,267.57v-1.21H378v1.21Zm0,7.38v-6.22H378V275Z" transform="translate(-27.85 -27.85)"/><path class="cls-5" d="M379.64,275v-6.22h.95v.88a2.25,2.25,0,0,1,2-1,2.54,2.54,0,0,1,1,.2,1.55,1.55,0,0,1,.7.53,2,2,0,0,1,.33.78,5.85,5.85,0,0,1,.06,1V275h-1.06v-3.79a2.91,2.91,0,0,0-.12-1,1,1,0,0,0-.44-.51,1.32,1.32,0,0,0-.73-.19,1.67,1.67,0,0,0-1.16.43,2.08,2.08,0,0,0-.49,1.62V275Z" transform="translate(-27.85 -27.85)"/><path class="cls-5" d="M386.12,275.47l1,.15a1,1,0,0,0,.36.69,1.77,1.77,0,0,0,1.07.29,1.92,1.92,0,0,0,1.13-.29,1.53,1.53,0,0,0,.54-.82,6.83,6.83,0,0,0,.07-1.35,2.16,2.16,0,0,1-1.72.81,2.36,2.36,0,0,1-2-.93,3.59,3.59,0,0,1-.7-2.22,4.21,4.21,0,0,1,.32-1.64,2.59,2.59,0,0,1,.94-1.16,2.48,2.48,0,0,1,1.44-.41,2.2,2.2,0,0,1,1.81.89v-.75h1v5.38a5.06,5.06,0,0,1-.3,2.06,2.16,2.16,0,0,1-.94.95,3.18,3.18,0,0,1-1.58.36,3,3,0,0,1-1.8-.51A1.7,1.7,0,0,1,386.12,275.47Zm.88-3.74a2.71,2.71,0,0,0,.48,1.78,1.54,1.54,0,0,0,1.22.57,1.57,1.57,0,0,0,1.22-.56,2.62,2.62,0,0,0,.49-1.76,2.54,2.54,0,0,0-.51-1.72,1.54,1.54,0,0,0-1.22-.58,1.51,1.51,0,0,0-1.19.57A2.54,2.54,0,0,0,387,271.73Z" transform="translate(-27.85 -27.85)"/><path class="cls-5" d="M396.31,275v-6.22h.95v.94a2.6,2.6,0,0,1,.67-.87,1.19,1.19,0,0,1,.68-.21,2,2,0,0,1,1.08.34l-.36,1a1.46,1.46,0,0,0-.77-.23,1,1,0,0,0-.62.2,1.15,1.15,0,0,0-.4.58,4.4,4.4,0,0,0-.17,1.23V275Z" transform="translate(-27.85 -27.85)"/><path class="cls-5" d="M399.93,271.84a3.2,3.2,0,0,1,1-2.56,2.9,2.9,0,0,1,2-.69,2.78,2.78,0,0,1,2.09.84,3.16,3.16,0,0,1,.82,2.32,4.13,4.13,0,0,1-.36,1.89,2.52,2.52,0,0,1-1,1.07,3.1,3.1,0,0,1-1.5.38,2.8,2.8,0,0,1-2.12-.84A3.37,3.37,0,0,1,399.93,271.84Zm1.08,0a2.69,2.69,0,0,0,.52,1.79,1.75,1.75,0,0,0,2.62,0,2.72,2.72,0,0,0,.52-1.83,2.58,2.58,0,0,0-.52-1.75,1.75,1.75,0,0,0-2.62,0A2.69,2.69,0,0,0,401,271.84Z" transform="translate(-27.85 -27.85)"/><path class="cls-5" d="M406.6,271.84a3.2,3.2,0,0,1,1-2.56,2.91,2.91,0,0,1,2-.69,2.82,2.82,0,0,1,2.1.84,3.2,3.2,0,0,1,.81,2.32,4.13,4.13,0,0,1-.36,1.89,2.52,2.52,0,0,1-1.05,1.07,3.1,3.1,0,0,1-1.5.38,2.78,2.78,0,0,1-2.11-.84A3.33,3.33,0,0,1,406.6,271.84Zm1.09,0a2.64,2.64,0,0,0,.52,1.79,1.64,1.64,0,0,0,1.31.59,1.7,1.7,0,0,0,1.31-.59,2.77,2.77,0,0,0,.52-1.83,2.58,2.58,0,0,0-.53-1.75,1.74,1.74,0,0,0-2.61,0A2.64,2.64,0,0,0,407.69,271.84Z" transform="translate(-27.85 -27.85)"/><path class="cls-5" d="M413.67,275v-6.22h.94v.87a2.27,2.27,0,0,1,.78-.73,2.13,2.13,0,0,1,1.11-.28,2,2,0,0,1,1.13.28,1.59,1.59,0,0,1,.63.81,2.22,2.22,0,0,1,1.92-1.09,1.9,1.9,0,0,1,1.42.51,2.2,2.2,0,0,1,.5,1.58V275h-1.05V271a2.83,2.83,0,0,0-.1-.91.86.86,0,0,0-.37-.45,1.2,1.2,0,0,0-.64-.17,1.49,1.49,0,0,0-1.09.44,1.9,1.9,0,0,0-.43,1.39V275h-1.06v-4a1.82,1.82,0,0,0-.25-1.06,1,1,0,0,0-.85-.35,1.51,1.51,0,0,0-.82.24,1.34,1.34,0,0,0-.55.68,4,4,0,0,0-.17,1.3V275Z" transform="translate(-27.85 -27.85)"/><path class="cls-5" d="M427,267.57v-1.21h1.06v1.21Zm0,7.38v-6.22h1.06V275Z" transform="translate(-27.85 -27.85)"/><path class="cls-5" d="M429.24,273.09l1-.16a1.48,1.48,0,0,0,.49,1,1.75,1.75,0,0,0,1.13.33,1.67,1.67,0,0,0,1.07-.29.89.89,0,0,0,.36-.7.67.67,0,0,0-.31-.56,5.28,5.28,0,0,0-1.08-.36,9.59,9.59,0,0,1-1.61-.5,1.54,1.54,0,0,1-.68-.6,1.51,1.51,0,0,1-.23-.83,1.57,1.57,0,0,1,.19-.77,1.64,1.64,0,0,1,.52-.59,2.21,2.21,0,0,1,.67-.31,3.28,3.28,0,0,1,.91-.12,3.54,3.54,0,0,1,1.28.21,1.72,1.72,0,0,1,.82.57,2.22,2.22,0,0,1,.37,1l-1,.14a1.11,1.11,0,0,0-.4-.75,1.52,1.52,0,0,0-1-.27,1.7,1.7,0,0,0-1,.24.7.7,0,0,0-.31.57.58.58,0,0,0,.13.37,1,1,0,0,0,.4.28l.93.27a12,12,0,0,1,1.56.49,1.54,1.54,0,0,1,.7.55,1.52,1.52,0,0,1,.25.9,1.78,1.78,0,0,1-.31,1,2,2,0,0,1-.89.72,3.19,3.19,0,0,1-1.31.25,3,3,0,0,1-1.85-.5A2.4,2.4,0,0,1,429.24,273.09Z" transform="translate(-27.85 -27.85)"/><path class="cls-5" d="M443.06,274.18a4.1,4.1,0,0,1-1.13.71,3.41,3.41,0,0,1-1.16.2,2.29,2.29,0,0,1-1.58-.5,1.64,1.64,0,0,1-.55-1.28,1.72,1.72,0,0,1,.21-.84,1.74,1.74,0,0,1,.54-.6,2.78,2.78,0,0,1,.76-.35,8.38,8.38,0,0,1,.94-.16A9.59,9.59,0,0,0,443,271c0-.14,0-.24,0-.27a1.16,1.16,0,0,0-.3-.91,1.76,1.76,0,0,0-1.2-.36,1.87,1.87,0,0,0-1.1.26,1.6,1.6,0,0,0-.53.92l-1-.14a2.71,2.71,0,0,1,.46-1.07,2,2,0,0,1,.94-.62,4,4,0,0,1,1.41-.22,3.85,3.85,0,0,1,1.29.18,1.76,1.76,0,0,1,.74.48,1.66,1.66,0,0,1,.32.71,5.32,5.32,0,0,1,.06,1v1.4a16.75,16.75,0,0,0,.06,1.86,2.6,2.6,0,0,0,.27.75h-1.1A2.17,2.17,0,0,1,443.06,274.18Zm-.09-2.35a8.14,8.14,0,0,1-1.72.4,3.7,3.7,0,0,0-.92.21.92.92,0,0,0-.25,1.54,1.39,1.39,0,0,0,.94.28,2.11,2.11,0,0,0,1.08-.26,1.64,1.64,0,0,0,.7-.73,2.62,2.62,0,0,0,.17-1.06Z" transform="translate(-27.85 -27.85)"/><path class="cls-5" d="M449,275v-8.59h1.06v4.9l2.49-2.53h1.37L451.55,271l2.62,3.91h-1.3l-2.06-3.18-.74.71V275Z" transform="translate(-27.85 -27.85)"/><path class="cls-5" d="M455,267.57v-1.21h1.06v1.21Zm0,7.38v-6.22h1.06V275Z" transform="translate(-27.85 -27.85)"/><path class="cls-5" d="M460,274l.16.93a4.16,4.16,0,0,1-.8.09,1.82,1.82,0,0,1-.89-.18,1,1,0,0,1-.45-.48,3.88,3.88,0,0,1-.13-1.24v-3.58h-.77v-.82h.77v-1.54l1.05-.64v2.18H460v.82h-1.06v3.64a1.73,1.73,0,0,0,.06.58.49.49,0,0,0,.18.2.69.69,0,0,0,.36.08C459.63,274.05,459.78,274,460,274Z" transform="translate(-27.85 -27.85)"/><path class="cls-5" d="M465.07,272.67l1,.14a2.64,2.64,0,0,1-.87,1.67,2.5,2.5,0,0,1-1.72.61,2.69,2.69,0,0,1-2.05-.83,3.4,3.4,0,0,1-.78-2.4,4.19,4.19,0,0,1,.34-1.76,2.35,2.35,0,0,1,1-1.14,3,3,0,0,1,1.49-.37,2.61,2.61,0,0,1,1.66.51,2.34,2.34,0,0,1,.82,1.46l-1,.15a1.72,1.72,0,0,0-.52-.94,1.36,1.36,0,0,0-.9-.32,1.61,1.61,0,0,0-1.29.58,2.65,2.65,0,0,0-.5,1.8,2.82,2.82,0,0,0,.48,1.83,1.58,1.58,0,0,0,1.25.56,1.45,1.45,0,0,0,1-.38A1.89,1.89,0,0,0,465.07,272.67Z" transform="translate(-27.85 -27.85)"/><path class="cls-5" d="M467,275v-8.59h1.05v3.08a2.34,2.34,0,0,1,1.86-.85,2.53,2.53,0,0,1,1.2.27,1.56,1.56,0,0,1,.73.75,3.44,3.44,0,0,1,.22,1.4V275H471V271a1.66,1.66,0,0,0-.34-1.15,1.29,1.29,0,0,0-1-.36,1.75,1.75,0,0,0-.89.24,1.33,1.33,0,0,0-.58.66,2.94,2.94,0,0,0-.18,1.15V275Z" transform="translate(-27.85 -27.85)"/><path class="cls-5" d="M477.94,273l1.09.13a2.61,2.61,0,0,1-1,1.48,3.22,3.22,0,0,1-3.94-.31,3.26,3.26,0,0,1-.8-2.36,3.44,3.44,0,0,1,.81-2.44,2.74,2.74,0,0,1,2.09-.86,2.63,2.63,0,0,1,2,.85,3.35,3.35,0,0,1,.79,2.39v.28h-4.64a2.38,2.38,0,0,0,.58,1.57,1.74,1.74,0,0,0,1.3.54,1.62,1.62,0,0,0,1-.3A2,2,0,0,0,477.94,273Zm-3.46-1.71H478a2.17,2.17,0,0,0-.4-1.18,1.62,1.62,0,0,0-1.3-.61,1.71,1.71,0,0,0-1.23.49A1.89,1.89,0,0,0,474.48,271.24Z" transform="translate(-27.85 -27.85)"/><path class="cls-5" d="M480.35,275v-6.22h.95v.88a2.25,2.25,0,0,1,2-1,2.54,2.54,0,0,1,1,.2,1.55,1.55,0,0,1,.7.53,2,2,0,0,1,.33.78,5.85,5.85,0,0,1,.06,1V275h-1.06v-3.79a2.91,2.91,0,0,0-.12-1,1.06,1.06,0,0,0-.43-.51,1.38,1.38,0,0,0-.74-.19,1.67,1.67,0,0,0-1.16.43,2.08,2.08,0,0,0-.49,1.62V275Z" transform="translate(-27.85 -27.85)"/></g><g id="MTEXT-7" data-name="MTEXT"><path class="cls-5" d="M321.77,101.5V92.91H325a4.1,4.1,0,0,1,1.58.26,2.13,2.13,0,0,1,.93.8,2.19,2.19,0,0,1,.34,1.14,2,2,0,0,1-.3,1,2.17,2.17,0,0,1-.9.78,2.23,2.23,0,0,1,1.19.78,2.09,2.09,0,0,1,.42,1.3,2.49,2.49,0,0,1-.25,1.12,2.08,2.08,0,0,1-.63.8,2.72,2.72,0,0,1-.94.43,6.08,6.08,0,0,1-1.39.14Zm1.13-5h1.86a3.93,3.93,0,0,0,1.08-.1,1.26,1.26,0,0,0,.66-.43,1.28,1.28,0,0,0,.22-.75,1.37,1.37,0,0,0-.21-.75,1,1,0,0,0-.58-.45,4.94,4.94,0,0,0-1.31-.12H322.9Zm0,4H325a5.91,5.91,0,0,0,.77,0,1.82,1.82,0,0,0,.66-.24,1.19,1.19,0,0,0,.43-.48,1.4,1.4,0,0,0,.17-.72,1.42,1.42,0,0,0-.24-.83,1.27,1.27,0,0,0-.68-.5,4.11,4.11,0,0,0-1.26-.15h-2Z" transform="translate(-27.85 -27.85)"/><path class="cls-5" d="M333.74,100.73a3.75,3.75,0,0,1-1.13.71,3.36,3.36,0,0,1-1.16.2,2.26,2.26,0,0,1-1.57-.5,1.64,1.64,0,0,1-.56-1.28,1.68,1.68,0,0,1,.21-.83,1.63,1.63,0,0,1,.55-.61,2.65,2.65,0,0,1,.76-.35c.2,0,.52-.1.93-.16a9.44,9.44,0,0,0,1.88-.36c0-.14,0-.23,0-.27a1.16,1.16,0,0,0-.3-.91,1.76,1.76,0,0,0-1.2-.36,1.9,1.9,0,0,0-1.1.26,1.62,1.62,0,0,0-.52.92l-1-.14A2.5,2.5,0,0,1,330,96a1.93,1.93,0,0,1,.93-.62,4.09,4.09,0,0,1,1.41-.22,3.64,3.64,0,0,1,1.3.19,1.68,1.68,0,0,1,.73.47,1.61,1.61,0,0,1,.33.71,6.84,6.84,0,0,1,.05,1v1.4a13.75,13.75,0,0,0,.07,1.86,2.12,2.12,0,0,0,.27.75H334A2.17,2.17,0,0,1,333.74,100.73Zm-.09-2.35a8,8,0,0,1-1.72.4A3.82,3.82,0,0,0,331,99a.87.87,0,0,0-.41.34.92.92,0,0,0,.17,1.2,1.35,1.35,0,0,0,.93.29,2.18,2.18,0,0,0,1.09-.27,1.62,1.62,0,0,0,.69-.73,2.46,2.46,0,0,0,.17-1.06Z" transform="translate(-27.85 -27.85)"/><path class="cls-5" d="M338.66,100.56l.15.93a4.08,4.08,0,0,1-.8.09,1.82,1.82,0,0,1-.89-.18,1,1,0,0,1-.44-.48,3.6,3.6,0,0,1-.13-1.24V96.1h-.77v-.82h.77V93.74l1.05-.64v2.18h1.06v.82H337.6v3.64a2.2,2.2,0,0,0,0,.58.46.46,0,0,0,.19.2.69.69,0,0,0,.36.08Z" transform="translate(-27.85 -27.85)"/><path class="cls-5" d="M339.69,101.5V92.91h1.05V96a2.38,2.38,0,0,1,1.87-.85,2.53,2.53,0,0,1,1.2.27,1.6,1.6,0,0,1,.73.75,3.44,3.44,0,0,1,.22,1.4v3.94H343.7V97.56a1.61,1.61,0,0,0-.34-1.15,1.28,1.28,0,0,0-1-.36,1.71,1.71,0,0,0-.88.24,1.35,1.35,0,0,0-.59.66,3,3,0,0,0-.18,1.15v3.4Z" transform="translate(-27.85 -27.85)"/><path class="cls-5" d="M346.35,101.5V95.28h.95v.94a2.6,2.6,0,0,1,.67-.87,1.19,1.19,0,0,1,.68-.21,2,2,0,0,1,1.08.34l-.36,1a1.46,1.46,0,0,0-.77-.23,1,1,0,0,0-.62.21,1.08,1.08,0,0,0-.4.57,4.4,4.4,0,0,0-.17,1.23v3.26Z" transform="translate(-27.85 -27.85)"/><path class="cls-5" d="M350,98.39a3.2,3.2,0,0,1,1-2.56,2.9,2.9,0,0,1,2-.69A2.78,2.78,0,0,1,355,96a3.16,3.16,0,0,1,.82,2.32,4.13,4.13,0,0,1-.36,1.89,2.52,2.52,0,0,1-1.05,1.07,3.1,3.1,0,0,1-1.5.38,2.8,2.8,0,0,1-2.12-.84A3.35,3.35,0,0,1,350,98.39Zm1.08,0a2.69,2.69,0,0,0,.52,1.79,1.67,1.67,0,0,0,1.32.59,1.64,1.64,0,0,0,1.3-.59,2.72,2.72,0,0,0,.52-1.83,2.53,2.53,0,0,0-.52-1.74,1.67,1.67,0,0,0-1.3-.6,1.7,1.7,0,0,0-1.32.59A2.69,2.69,0,0,0,351.05,98.39Z" transform="translate(-27.85 -27.85)"/><path class="cls-5" d="M356.64,98.39a3.2,3.2,0,0,1,1-2.56,2.91,2.91,0,0,1,2-.69,2.82,2.82,0,0,1,2.1.84,3.2,3.2,0,0,1,.81,2.32,4.13,4.13,0,0,1-.36,1.89,2.52,2.52,0,0,1-1.05,1.07,3.1,3.1,0,0,1-1.5.38,2.78,2.78,0,0,1-2.11-.84A3.31,3.31,0,0,1,356.64,98.39Zm1.09,0a2.64,2.64,0,0,0,.52,1.79,1.64,1.64,0,0,0,1.31.59,1.66,1.66,0,0,0,1.31-.59,2.77,2.77,0,0,0,.52-1.83,2.53,2.53,0,0,0-.53-1.74,1.73,1.73,0,0,0-2.61,0A2.64,2.64,0,0,0,357.73,98.39Z" transform="translate(-27.85 -27.85)"/><path class="cls-5" d="M363.71,101.5V95.28h.94v.87a2.27,2.27,0,0,1,.78-.73,2.13,2.13,0,0,1,1.11-.28,2,2,0,0,1,1.13.28,1.59,1.59,0,0,1,.63.81,2.22,2.22,0,0,1,1.92-1.09,1.9,1.9,0,0,1,1.42.51,2.2,2.2,0,0,1,.5,1.58v4.27h-1.05V97.58a2.87,2.87,0,0,0-.1-.91.86.86,0,0,0-.37-.45,1.2,1.2,0,0,0-.64-.17,1.49,1.49,0,0,0-1.09.44,1.92,1.92,0,0,0-.43,1.4v3.61H367.4v-4a1.82,1.82,0,0,0-.25-1.06,1,1,0,0,0-.85-.35,1.51,1.51,0,0,0-.82.24,1.34,1.34,0,0,0-.55.68,4,4,0,0,0-.17,1.3v3.23Z" transform="translate(-27.85 -27.85)"/><path class="cls-5" d="M376.22,98.82V98h6.68v.85Z" transform="translate(-27.85 -27.85)"/><path class="cls-5" d="M325.72,115.9v-.78A2,2,0,0,1,324,116a2.37,2.37,0,0,1-1.37-.41,2.65,2.65,0,0,1-1-1.14,4,4,0,0,1-.34-1.69,4.32,4.32,0,0,1,.31-1.69,2.43,2.43,0,0,1,.93-1.17,2.48,2.48,0,0,1,1.39-.4,2.05,2.05,0,0,1,1,.24,2,2,0,0,1,.71.61v-3.08h1.05v8.59Zm-3.34-3.1a2.66,2.66,0,0,0,.51,1.78,1.5,1.5,0,0,0,2.36,0,2.63,2.63,0,0,0,.48-1.73,2.91,2.91,0,0,0-.49-1.87,1.51,1.51,0,0,0-1.21-.6,1.46,1.46,0,0,0-1.18.58A2.84,2.84,0,0,0,322.38,112.8Z" transform="translate(-27.85 -27.85)"/><path class="cls-5" d="M329.5,115.9l-1.9-6.22h1.09l1,3.59.37,1.34c0-.07.12-.5.32-1.29l1-3.64h1.08l.93,3.61.31,1.19.36-1.2,1.07-3.6h1l-1.94,6.22h-1.1l-1-3.73-.24-1.06-1.26,4.79Z" transform="translate(-27.85 -27.85)"/><path class="cls-5" d="M341.28,113.9l1.09.13a2.61,2.61,0,0,1-1,1.48,3.22,3.22,0,0,1-3.94-.31,3.26,3.26,0,0,1-.8-2.36,3.41,3.41,0,0,1,.81-2.43,2.7,2.7,0,0,1,2.09-.87,2.66,2.66,0,0,1,2,.85,3.35,3.35,0,0,1,.79,2.39v.28h-4.64a2.38,2.38,0,0,0,.58,1.57,1.72,1.72,0,0,0,1.3.54,1.66,1.66,0,0,0,1-.3A2,2,0,0,0,341.28,113.9Zm-3.47-1.71h3.48a2.17,2.17,0,0,0-.4-1.18,1.62,1.62,0,0,0-1.31-.6,1.69,1.69,0,0,0-1.22.48A2,2,0,0,0,337.81,112.19Z" transform="translate(-27.85 -27.85)"/><path class="cls-5" d="M343.67,115.9v-8.59h1.05v8.59Z" transform="translate(-27.85 -27.85)"/><path class="cls-5" d="M346.33,115.9v-8.59h1.06v8.59Z" transform="translate(-27.85 -27.85)"/><path class="cls-5" d="M349,108.52v-1.21h1.05v1.21Zm0,7.38v-6.22h1.05v6.22Z" transform="translate(-27.85 -27.85)"/><path class="cls-5" d="M351.69,115.9v-6.22h.95v.88a2.25,2.25,0,0,1,2-1,2.66,2.66,0,0,1,1,.2,1.58,1.58,0,0,1,.71.53,2,2,0,0,1,.33.78,6,6,0,0,1,.06,1v3.82h-1.06v-3.78a3,3,0,0,0-.12-1,1,1,0,0,0-.44-.51,1.44,1.44,0,0,0-.73-.19,1.71,1.71,0,0,0-1.17.43,2.13,2.13,0,0,0-.49,1.62v3.4Z" transform="translate(-27.85 -27.85)"/><path class="cls-5" d="M358.17,116.42l1,.15a1,1,0,0,0,.35.69,1.73,1.73,0,0,0,1.08.29,1.87,1.87,0,0,0,1.13-.29,1.49,1.49,0,0,0,.54-.82,6.76,6.76,0,0,0,.07-1.35,2.16,2.16,0,0,1-1.72.81,2.37,2.37,0,0,1-2-.92,3.57,3.57,0,0,1-.7-2.23,4.21,4.21,0,0,1,.32-1.64,2.59,2.59,0,0,1,.94-1.16,2.43,2.43,0,0,1,1.43-.41,2.22,2.22,0,0,1,1.82.89v-.75h1v5.38a5.09,5.09,0,0,1-.29,2.06,2.23,2.23,0,0,1-.94,1,3.3,3.3,0,0,1-1.58.35,3,3,0,0,1-1.8-.5A1.71,1.71,0,0,1,358.17,116.42Zm.87-3.74a2.73,2.73,0,0,0,.49,1.79,1.55,1.55,0,0,0,1.22.56,1.58,1.58,0,0,0,1.22-.56,2.61,2.61,0,0,0,.49-1.76A2.54,2.54,0,0,0,362,111a1.55,1.55,0,0,0-1.22-.58,1.5,1.5,0,0,0-1.19.57A2.54,2.54,0,0,0,359,112.68Z" transform="translate(-27.85 -27.85)"/><path class="cls-5" d="M373.62,114.89v1h-5.68a2,2,0,0,1,.13-.73,3.63,3.63,0,0,1,.69-1.14,10.6,10.6,0,0,1,1.38-1.3,12,12,0,0,0,1.89-1.82,2.19,2.19,0,0,0,.5-1.27,1.41,1.41,0,0,0-.45-1.06,1.83,1.83,0,0,0-2.39,0,1.71,1.71,0,0,0-.46,1.26l-1.09-.11a2.73,2.73,0,0,1,.84-1.85,2.89,2.89,0,0,1,1.95-.63,2.7,2.7,0,0,1,2,.68,2.27,2.27,0,0,1,.72,1.7,2.58,2.58,0,0,1-.21,1,3.84,3.84,0,0,1-.7,1,18.19,18.19,0,0,1-1.63,1.52c-.63.53-1,.89-1.22,1.08a3.64,3.64,0,0,0-.44.57Z" transform="translate(-27.85 -27.85)"/></g><g id="SPLINE-13" data-name="SPLINE"><path class="cls-7" d="M431.42,72.25a18.34,18.34,0,0,1-2.1-.32,10.81,10.81,0,0,1-2.08-.77c-.39-.18-.76-.4-1.14-.6s-1-.5-1.51-.72a22.82,22.82,0,0,0-4.09-1.36c-.5-.11-1-.21-1.51-.29" transform="translate(-27.85 -27.85)"/></g><g id="SPLINE-14" data-name="SPLINE"><path class="cls-7" d="M399.42,80.66c.06.24.1.5.17.76s.16.49.24.73" transform="translate(-27.85 -27.85)"/></g><g id="SPLINE-15" data-name="SPLINE"><path class="cls-7" d="M418.49,90.59l.5-.07c.5-.08,1-.18,1.51-.29a24.53,24.53,0,0,0,4.09-1.36c.51-.22,1-.47,1.51-.73s.75-.41,1.14-.6a10.53,10.53,0,0,1,1.72-.66,15.63,15.63,0,0,1,2.46-.43" transform="translate(-27.85 -27.85)"/></g><g id="SPLINE-16" data-name="SPLINE"><path class="cls-7" d="M410.48,68.79c-4.34,1.28-8.36,3.89-9.91,6.34" transform="translate(-27.85 -27.85)"/></g><g id="SPLINE-17" data-name="SPLINE"><path class="cls-7" d="M400.57,75.13a7.29,7.29,0,0,0-.84,1.71" transform="translate(-27.85 -27.85)"/></g><g id="SPLINE-18" data-name="SPLINE"><path class="cls-7" d="M399.73,76.84a7.9,7.9,0,0,0-.31,3.82" transform="translate(-27.85 -27.85)"/></g><g id="SPLINE-19" data-name="SPLINE"><path class="cls-7" d="M399.83,82.15a7.82,7.82,0,0,0,1.28,2.17" transform="translate(-27.85 -27.85)"/></g><g id="SPLINE-20" data-name="SPLINE"><path class="cls-7" d="M401.11,84.32c2.05,2.59,6.92,5.21,11.09,6" transform="translate(-27.85 -27.85)"/></g><g id="SPLINE-21" data-name="SPLINE"><path class="cls-7" d="M412.19,90.34a18.11,18.11,0,0,0,6.29.25" transform="translate(-27.85 -27.85)"/></g><g id="SPLINE-22" data-name="SPLINE"><path class="cls-7" d="M419,68.19a19.85,19.85,0,0,0-8.51.6" transform="translate(-27.85 -27.85)"/></g><rect class="cls-7" x="431.45" y="66.57" width="12.06" height="25.57" transform="translate(847.12 130.86) rotate(180)"/><path class="cls-7" d="M401.09,79.36c0-6.7,10.41-9.66,15.75-9.66s10.52,4.32,10.52,9.66S422.17,89,416.84,89,401.09,86.05,401.09,79.36Z" transform="translate(-27.85 -27.85)"/><g id="ELLIPSE"><path class="cls-3" d="M279.36,132.29a1.68,1.68,0,1,0-1.68-1.68,1.68,1.68,0,0,0,1.68,1.68Z" transform="translate(-27.85 -27.85)"/></g><rect class="cls-3" x="237.37" y="118.85" width="53.74" height="53.74" transform="translate(382.12 -146.36) rotate(90)"/><rect class="cls-3" x="240.66" y="122.14" width="47.16" height="47.16" rx="4.74" transform="translate(382.12 -146.36) rotate(90)"/><path class="cls-3" d="M249.76,51.15a1.61,1.61,0,1,0-1.61,1.61,1.61,1.61,0,0,0,1.61-1.61Z" transform="translate(-27.85 -27.85)"/><rect class="cls-3" x="209.52" y="0.76" width="101.34" height="45.08"/><path class="cls-3" d="M317.37,70.08H249.28a8.49,8.49,0,0,1-8.5-8.5V40.72a8.49,8.49,0,0,1,8.5-8.5h68.09A18.92,18.92,0,0,1,336.3,51.15h0A18.92,18.92,0,0,1,317.37,70.08Z" transform="translate(-27.85 -27.85)"/><path class="cls-8" d="M253.07,315.24a4.87,4.87,0,1,1-4.87-4.87A4.87,4.87,0,0,1,253.07,315.24Z" transform="translate(-27.85 -27.85)"/><line class="cls-8" x1="202.07" y1="414.93" x2="211.55" y2="414.93"/><line class="cls-8" x1="202.07" y1="412.16" x2="211.55" y2="412.16"/><line class="cls-8" x1="202.07" y1="409.38" x2="211.55" y2="409.38"/><line class="cls-8" x1="202.07" y1="406.61" x2="211.55" y2="406.61"/><line class="cls-8" x1="202.07" y1="403.84" x2="211.55" y2="403.84"/><line class="cls-8" x1="202.07" y1="401.07" x2="211.55" y2="401.07"/><line class="cls-8" x1="202.07" y1="398.29" x2="211.55" y2="398.29"/><line class="cls-8" x1="202.07" y1="395.52" x2="211.55" y2="395.52"/><line class="cls-8" x1="202.07" y1="392.75" x2="211.55" y2="392.75"/><line class="cls-8" x1="202.07" y1="389.98" x2="211.55" y2="389.98"/><line class="cls-8" x1="202.07" y1="387.2" x2="211.55" y2="387.2"/><line class="cls-8" x1="202.07" y1="439.88" x2="211.55" y2="439.88"/><line class="cls-8" x1="202.07" y1="437.11" x2="211.55" y2="437.11"/><line class="cls-8" x1="202.07" y1="434.33" x2="211.55" y2="434.33"/><line class="cls-8" x1="202.07" y1="431.56" x2="211.55" y2="431.56"/><line class="cls-8" x1="202.07" y1="428.79" x2="211.55" y2="428.79"/><line class="cls-8" x1="202.07" y1="426.02" x2="211.55" y2="426.02"/><line class="cls-8" x1="202.07" y1="423.24" x2="211.55" y2="423.24"/><line class="cls-8" x1="202.07" y1="420.47" x2="211.55" y2="420.47"/><line class="cls-8" x1="202.07" y1="417.7" x2="211.55" y2="417.7"/><line class="cls-8" x1="202.07" y1="384.43" x2="211.55" y2="384.43"/><line class="cls-8" x1="202.07" y1="381.66" x2="211.55" y2="381.66"/><line class="cls-8" x1="202.07" y1="378.89" x2="211.55" y2="378.89"/><line class="cls-8" x1="202.07" y1="376.11" x2="211.55" y2="376.11"/><line class="cls-8" x1="202.07" y1="373.34" x2="211.55" y2="373.34"/><line class="cls-8" x1="202.07" y1="370.57" x2="211.55" y2="370.57"/><line class="cls-8" x1="202.07" y1="367.8" x2="211.55" y2="367.8"/><line class="cls-8" x1="202.07" y1="365.02" x2="211.55" y2="365.02"/><line class="cls-8" x1="202.07" y1="362.25" x2="211.55" y2="362.25"/><line class="cls-8" x1="202.07" y1="359.48" x2="211.55" y2="359.48"/><line class="cls-8" x1="202.07" y1="356.71" x2="211.55" y2="356.71"/><line class="cls-8" x1="202.07" y1="353.94" x2="211.55" y2="353.94"/><line class="cls-8" x1="202.07" y1="351.16" x2="211.55" y2="351.16"/><line class="cls-8" x1="202.07" y1="348.39" x2="211.55" y2="348.39"/><line class="cls-8" x1="202.07" y1="345.62" x2="211.55" y2="345.62"/><line class="cls-8" x1="202.07" y1="342.85" x2="211.55" y2="342.85"/><line class="cls-8" x1="202.07" y1="340.07" x2="211.55" y2="340.07"/><line class="cls-8" x1="202.07" y1="337.3" x2="211.55" y2="337.3"/><line class="cls-8" x1="202.07" y1="334.53" x2="211.55" y2="334.53"/><line class="cls-8" x1="202.07" y1="331.76" x2="211.55" y2="331.76"/><line class="cls-8" x1="202.07" y1="328.98" x2="211.55" y2="328.98"/><line class="cls-8" x1="202.07" y1="326.21" x2="211.55" y2="326.21"/><line class="cls-8" x1="202.07" y1="323.44" x2="211.55" y2="323.44"/><line class="cls-8" x1="202.07" y1="320.67" x2="211.55" y2="320.67"/><line class="cls-8" x1="202.07" y1="317.89" x2="211.55" y2="317.89"/><line class="cls-8" x1="202.07" y1="315.12" x2="211.55" y2="315.12"/><line class="cls-8" x1="202.07" y1="312.35" x2="211.55" y2="312.35"/><line class="cls-8" x1="202.07" y1="309.58" x2="211.55" y2="309.58"/><line class="cls-8" x1="202.07" y1="306.8" x2="211.55" y2="306.8"/><line class="cls-8" x1="202.07" y1="304.03" x2="211.55" y2="304.03"/><line class="cls-8" x1="202.07" y1="301.26" x2="211.55" y2="301.26"/><line class="cls-8" x1="202.07" y1="298.49" x2="211.55" y2="298.49"/><line class="cls-8" x1="202.07" y1="295.71" x2="211.55" y2="295.71"/><line class="cls-8" x1="202.07" y1="292.94" x2="211.55" y2="292.94"/><line class="cls-8" x1="202.07" y1="290.17" x2="211.55" y2="290.17"/><line class="cls-8" x1="202.07" y1="287.4" x2="211.55" y2="287.4"/><line class="cls-8" x1="202.07" y1="284.63" x2="211.55" y2="284.63"/><line class="cls-8" x1="202.07" y1="281.85" x2="211.55" y2="281.85"/><line class="cls-8" x1="202.07" y1="441.42" x2="202.07" y2="279.08"/><line class="cls-8" x1="211.55" y1="441.42" x2="211.55" y2="279.08"/><line class="cls-8" x1="211.55" y1="304.25" x2="244.69" y2="279.08"/><g id="LINE-12" data-name="LINE"><line class="cls-8" x1="200.04" y1="144.66" x2="209.52" y2="144.66"/></g><g id="LINE-13" data-name="LINE"><line class="cls-8" x1="200.04" y1="91.99" x2="209.52" y2="91.99"/></g><g id="LINE-14" data-name="LINE"><line class="cls-8" x1="200.04" y1="89.22" x2="209.52" y2="89.22"/></g><g id="LINE-15" data-name="LINE"><line class="cls-8" x1="200.04" y1="86.44" x2="209.52" y2="86.44"/></g><g id="LINE-16" data-name="LINE"><line class="cls-8" x1="200.04" y1="83.67" x2="209.52" y2="83.67"/></g><g id="LINE-17" data-name="LINE"><line class="cls-8" x1="200.04" y1="80.9" x2="209.52" y2="80.9"/></g><g id="LINE-18" data-name="LINE"><line class="cls-8" x1="200.04" y1="78.13" x2="209.52" y2="78.13"/></g><g id="LINE-19" data-name="LINE"><line class="cls-8" x1="200.04" y1="75.36" x2="209.52" y2="75.36"/></g><g id="LINE-20" data-name="LINE"><line class="cls-8" x1="200.04" y1="72.58" x2="209.52" y2="72.58"/></g><g id="LINE-21" data-name="LINE"><line class="cls-8" x1="200.04" y1="69.81" x2="209.52" y2="69.81"/></g><g id="LINE-22" data-name="LINE"><line class="cls-8" x1="200.04" y1="67.04" x2="209.52" y2="67.04"/></g><g id="LINE-23" data-name="LINE"><line class="cls-8" x1="200.04" y1="64.27" x2="209.52" y2="64.27"/></g><g id="LINE-24" data-name="LINE"><line class="cls-8" x1="200.04" y1="61.49" x2="209.52" y2="61.49"/></g><g id="LINE-25" data-name="LINE"><line class="cls-8" x1="200.04" y1="58.72" x2="209.52" y2="58.72"/></g><g id="LINE-26" data-name="LINE"><line class="cls-8" x1="200.04" y1="55.95" x2="209.52" y2="55.95"/></g><g id="LINE-27" data-name="LINE"><line class="cls-8" x1="200.04" y1="53.18" x2="209.52" y2="53.18"/></g><g id="LINE-28" data-name="LINE"><line class="cls-8" x1="200.04" y1="50.4" x2="209.52" y2="50.4"/></g><g id="LINE-29" data-name="LINE"><line class="cls-8" x1="200.04" y1="47.63" x2="209.52" y2="47.63"/></g><g id="LINE-30" data-name="LINE"><line class="cls-8" x1="200.04" y1="44.86" x2="209.52" y2="44.86"/></g><g id="LINE-31" data-name="LINE"><line class="cls-8" x1="200.04" y1="42.09" x2="209.52" y2="42.09"/></g><g id="LINE-32" data-name="LINE"><line class="cls-8" x1="200.04" y1="39.31" x2="209.52" y2="39.31"/></g><g id="LINE-33" data-name="LINE"><line class="cls-8" x1="200.04" y1="36.54" x2="209.52" y2="36.54"/></g><g id="LINE-34" data-name="LINE"><line class="cls-8" x1="200.04" y1="33.77" x2="209.52" y2="33.77"/></g><g id="LINE-35" data-name="LINE"><line class="cls-8" x1="200.04" y1="31" x2="209.52" y2="31"/></g><g id="LINE-36" data-name="LINE"><line class="cls-8" x1="200.04" y1="28.23" x2="209.52" y2="28.23"/></g><g id="LINE-37" data-name="LINE"><line class="cls-8" x1="200.04" y1="25.45" x2="209.52" y2="25.45"/></g><g id="LINE-38" data-name="LINE"><line class="cls-8" x1="200.04" y1="22.68" x2="209.52" y2="22.68"/></g><g id="LINE-39" data-name="LINE"><line class="cls-8" x1="200.04" y1="19.91" x2="209.52" y2="19.91"/></g><g id="LINE-40" data-name="LINE"><line class="cls-8" x1="200.04" y1="17.14" x2="209.52" y2="17.14"/></g><g id="LINE-41" data-name="LINE"><line class="cls-8" x1="200.04" y1="14.36" x2="209.52" y2="14.36"/></g><g id="LINE-42" data-name="LINE"><line class="cls-8" x1="200.04" y1="11.59" x2="209.52" y2="11.59"/></g><g id="LINE-43" data-name="LINE"><line class="cls-8" x1="200.04" y1="8.82" x2="209.52" y2="8.82"/></g><g id="LINE-44" data-name="LINE"><line class="cls-8" x1="200.04" y1="6.05" x2="209.52" y2="6.05"/></g><g id="LINE-45" data-name="LINE"><line class="cls-8" x1="200.04" y1="3.27" x2="209.52" y2="3.27"/></g><g id="LINE-46" data-name="LINE"><line class="cls-8" x1="200.04" y1="144.75" x2="200.04" y2="0.5"/></g><g id="LINE-47" data-name="LINE"><line class="cls-8" x1="209.52" y1="144.75" x2="209.52" y2="0.5"/></g><rect class="cls-8" x="0.5" y="0.5" width="415.17" height="144.25"/><g id="LINE-48" data-name="LINE"><line class="cls-8" x1="200.04" y1="94.76" x2="209.52" y2="94.76"/><line class="cls-8" x1="200.04" y1="122.49" x2="209.52" y2="122.49"/><line class="cls-8" x1="200.04" y1="119.71" x2="209.52" y2="119.71"/><line class="cls-8" x1="200.04" y1="116.94" x2="209.52" y2="116.94"/><line class="cls-8" x1="200.04" y1="114.17" x2="209.52" y2="114.17"/><line class="cls-8" x1="200.04" y1="111.4" x2="209.52" y2="111.4"/><line class="cls-8" x1="200.04" y1="108.62" x2="209.52" y2="108.62"/><line class="cls-8" x1="200.04" y1="105.85" x2="209.52" y2="105.85"/><line class="cls-8" x1="200.04" y1="103.08" x2="209.52" y2="103.08"/><line class="cls-8" x1="200.04" y1="100.31" x2="209.52" y2="100.31"/><line class="cls-8" x1="200.04" y1="97.53" x2="209.52" y2="97.53"/><line class="cls-8" x1="200.04" y1="94.76" x2="209.52" y2="94.76"/><line class="cls-8" x1="200.04" y1="144.66" x2="209.52" y2="144.66"/><line class="cls-8" x1="200.04" y1="141.89" x2="209.52" y2="141.89"/><line class="cls-8" x1="200.04" y1="139.12" x2="209.52" y2="139.12"/><line class="cls-8" x1="200.04" y1="136.35" x2="209.52" y2="136.35"/><line class="cls-8" x1="200.04" y1="133.58" x2="209.52" y2="133.58"/><line class="cls-8" x1="200.04" y1="130.8" x2="209.52" y2="130.8"/><line class="cls-8" x1="200.04" y1="128.03" x2="209.52" y2="128.03"/><line class="cls-8" x1="200.04" y1="125.26" x2="209.52" y2="125.26"/><line class="cls-8" x1="200.04" y1="144.66" x2="209.52" y2="144.66"/><line class="cls-8" x1="200.04" y1="141.89" x2="209.52" y2="141.89"/><line class="cls-8" x1="200.04" y1="139.12" x2="209.52" y2="139.12"/><line class="cls-8" x1="200.04" y1="136.35" x2="209.52" y2="136.35"/><line class="cls-8" x1="200.04" y1="133.58" x2="209.52" y2="133.58"/><line class="cls-8" x1="200.04" y1="130.8" x2="209.52" y2="130.8"/><line class="cls-8" x1="200.04" y1="128.03" x2="209.52" y2="128.03"/><line class="cls-8" x1="200.04" y1="125.26" x2="209.52" y2="125.26"/><line class="cls-8" x1="200.04" y1="122.49" x2="209.52" y2="122.49"/></g><rect class="cls-8" x="0.5" y="279.08" width="425.99" height="162.34"/><rect class="cls-8" x="168.15" y="155.59" width="79.59" height="33.25"/><rect class="cls-8" x="168.15" y="448.46" width="79.59" height="33.25"/></svg>