<?xml version="1.0" encoding="utf-8"?>
<!-- Generator: Adobe Illustrator 25.2.1, SVG Export Plug-In . SVG Version: 6.00 Build 0)  -->
<svg version="1.1" id="_x30_" xmlns="http://www.w3.org/2000/svg" xmlns:xlink="http://www.w3.org/1999/xlink" x="0px" y="0px"
	 viewBox="0 0 552.8 303.3" style="enable-background:new 0 0 552.8 303.3;" xml:space="preserve">
<style type="text/css">
	.st0{fill:none;}
	.st1{fill:none;stroke:#000000;stroke-width:0.5;stroke-miterlimit:10;}
	.st2{fill-rule:evenodd;clip-rule:evenodd;fill:url(#SVGID_1_);}
	.st3{fill:#231F20;}
	.st4{font-family:'ArialMT';}
	.st5{font-size:12px;}
	.st6{fill:none;stroke:#231F20;stroke-miterlimit:10;}
</style>
<pattern  x="-23.6" y="304.5" width="90.7" height="90.7" patternUnits="userSpaceOnUse" id="Earth" viewBox="11 -102.8 90.7 90.7" style="overflow:visible;">
	<g>
		<rect x="11" y="-102.8" class="st0" width="90.7" height="90.7"/>
		<g>
			<line class="st1" x1="45.1" y1="-0.4" x2="56.8" y2="-12.2"/>
			<line class="st1" x1="33.7" y1="-12.1" x2="22.4" y2="-0.8"/>
			<line class="st1" x1="67.6" y1="-0.2" x2="79.3" y2="-11.9"/>
			<line class="st1" x1="88.5" y1="-0.2" x2="100.2" y2="-11.9"/>
		</g>
		<g>
			<line class="st1" x1="113" y1="-72.5" x2="101.7" y2="-83.9"/>
			<line class="st1" x1="101.8" y1="-61.2" x2="112.9" y2="-50.1"/>
			<line class="st1" x1="101.4" y1="-38.5" x2="112.5" y2="-27.4"/>
			<line class="st1" x1="100.4" y1="-15.4" x2="111.5" y2="-4.4"/>
		</g>
		<g>
			<line class="st1" x1="29.6" y1="-79.8" x2="18.5" y2="-90.9"/>
			<line class="st1" x1="27.2" y1="-77.4" x2="15.9" y2="-88.7"/>
			<line class="st1" x1="24.8" y1="-75" x2="13.4" y2="-86.3"/>
			<line class="st1" x1="22.3" y1="-72.5" x2="11" y2="-83.9"/>
			<line class="st1" x1="52.3" y1="-83.9" x2="64.1" y2="-95.7"/>
			<line class="st1" x1="49.9" y1="-86.3" x2="61.7" y2="-98.1"/>
			<line class="st1" x1="47.5" y1="-88.7" x2="59.2" y2="-100.4"/>
			<line class="st1" x1="45.1" y1="-91.2" x2="56.8" y2="-102.9"/>
			<line class="st1" x1="34" y1="-84.2" x2="45.1" y2="-73.2"/>
			<line class="st1" x1="36.4" y1="-86.6" x2="47.7" y2="-75.4"/>
			<line class="st1" x1="38.8" y1="-89.1" x2="50.2" y2="-77.7"/>
			<line class="st1" x1="41.3" y1="-91.5" x2="52.6" y2="-80.2"/>
			<line class="st1" x1="33.7" y1="-102.8" x2="22.4" y2="-91.5"/>
			<line class="st1" x1="36.1" y1="-100.3" x2="24.8" y2="-89.1"/>
			<line class="st1" x1="38.5" y1="-97.9" x2="27.2" y2="-86.6"/>
			<line class="st1" x1="40.9" y1="-95.5" x2="29.6" y2="-84.2"/>
			<line class="st1" x1="29.5" y1="-60.9" x2="41.3" y2="-72.7"/>
			<line class="st1" x1="27.1" y1="-63.3" x2="38.9" y2="-75.1"/>
			<line class="st1" x1="24.6" y1="-65.7" x2="36.4" y2="-77.4"/>
			<line class="st1" x1="22.2" y1="-68.1" x2="34" y2="-79.9"/>
			<line class="st1" x1="11.1" y1="-61.2" x2="22.2" y2="-50.1"/>
			<line class="st1" x1="13.5" y1="-63.6" x2="24.8" y2="-52.3"/>
			<line class="st1" x1="16" y1="-66" x2="27.3" y2="-54.7"/>
			<line class="st1" x1="18.4" y1="-68.5" x2="29.7" y2="-57.1"/>
			<line class="st1" x1="74.9" y1="-83.6" x2="86.7" y2="-95.4"/>
			<line class="st1" x1="72.5" y1="-86" x2="84.2" y2="-97.8"/>
			<line class="st1" x1="70" y1="-88.5" x2="81.7" y2="-100.2"/>
			<line class="st1" x1="67.6" y1="-90.9" x2="79.3" y2="-102.6"/>
			<line class="st1" x1="56.5" y1="-84" x2="67.6" y2="-72.9"/>
			<line class="st1" x1="58.9" y1="-86.4" x2="70.2" y2="-75.1"/>
			<line class="st1" x1="61.4" y1="-88.8" x2="72.7" y2="-77.5"/>
			<line class="st1" x1="63.8" y1="-91.2" x2="75.1" y2="-79.9"/>
			<line class="st1" x1="52" y1="-60.6" x2="63.8" y2="-72.4"/>
			<line class="st1" x1="49.6" y1="-63" x2="61.4" y2="-74.8"/>
			<line class="st1" x1="47.2" y1="-65.4" x2="58.9" y2="-77.2"/>
			<line class="st1" x1="44.7" y1="-67.9" x2="56.5" y2="-79.6"/>
			<line class="st1" x1="33.7" y1="-60.9" x2="44.7" y2="-49.9"/>
			<line class="st1" x1="36.1" y1="-63.3" x2="47.4" y2="-52.1"/>
			<line class="st1" x1="38.5" y1="-65.8" x2="49.8" y2="-54.4"/>
			<line class="st1" x1="40.9" y1="-68.2" x2="52.3" y2="-56.9"/>
			<line class="st1" x1="29" y1="-38.1" x2="40.8" y2="-49.9"/>
			<line class="st1" x1="26.6" y1="-40.5" x2="38.4" y2="-52.3"/>
			<line class="st1" x1="24.2" y1="-43" x2="35.9" y2="-54.7"/>
			<line class="st1" x1="21.8" y1="-45.4" x2="33.5" y2="-57.1"/>
			<line class="st1" x1="10.7" y1="-38.5" x2="21.8" y2="-27.4"/>
			<line class="st1" x1="13.1" y1="-40.9" x2="24.4" y2="-29.6"/>
			<line class="st1" x1="15.5" y1="-43.3" x2="26.9" y2="-32"/>
			<line class="st1" x1="17.9" y1="-45.7" x2="29.3" y2="-34.4"/>
			<line class="st1" x1="73.9" y1="-60.6" x2="85.7" y2="-72.4"/>
			<line class="st1" x1="71.5" y1="-63" x2="83.3" y2="-74.8"/>
			<line class="st1" x1="69.1" y1="-65.4" x2="80.8" y2="-77.2"/>
			<line class="st1" x1="66.6" y1="-67.9" x2="78.4" y2="-79.6"/>
			<line class="st1" x1="55.6" y1="-60.9" x2="66.6" y2="-49.9"/>
			<line class="st1" x1="58" y1="-63.3" x2="69.2" y2="-52.1"/>
			<line class="st1" x1="60.4" y1="-65.8" x2="71.7" y2="-54.4"/>
			<line class="st1" x1="62.8" y1="-68.2" x2="74.2" y2="-56.9"/>
			<line class="st1" x1="51" y1="-37.6" x2="62.8" y2="-49.4"/>
			<line class="st1" x1="48.6" y1="-40" x2="60.4" y2="-51.8"/>
			<line class="st1" x1="46.2" y1="-42.4" x2="57.9" y2="-54.1"/>
			<line class="st1" x1="43.8" y1="-44.8" x2="55.5" y2="-56.6"/>
			<line class="st1" x1="32.7" y1="-37.9" x2="43.8" y2="-26.8"/>
			<line class="st1" x1="35.1" y1="-40.3" x2="46.4" y2="-29"/>
			<line class="st1" x1="37.5" y1="-42.8" x2="48.9" y2="-31.4"/>
			<line class="st1" x1="40" y1="-45.2" x2="51.3" y2="-33.9"/>
			<line class="st1" x1="28.1" y1="-15.1" x2="39.8" y2="-26.9"/>
			<line class="st1" x1="25.6" y1="-17.5" x2="37.4" y2="-29.3"/>
			<line class="st1" x1="23.2" y1="-19.9" x2="34.9" y2="-31.7"/>
			<line class="st1" x1="20.8" y1="-22.4" x2="32.5" y2="-34.1"/>
			<line class="st1" x1="9.7" y1="-15.4" x2="20.8" y2="-4.4"/>
			<line class="st1" x1="12.1" y1="-17.9" x2="23.4" y2="-6.6"/>
			<line class="st1" x1="14.5" y1="-20.3" x2="25.9" y2="-8.9"/>
			<line class="st1" x1="17" y1="-22.7" x2="28.3" y2="-11.4"/>
			<line class="st1" x1="95.7" y1="-83.6" x2="107.5" y2="-95.4"/>
			<line class="st1" x1="93.3" y1="-86" x2="105.1" y2="-97.8"/>
			<line class="st1" x1="90.9" y1="-88.5" x2="102.6" y2="-100.2"/>
			<line class="st1" x1="88.5" y1="-90.9" x2="100.2" y2="-102.6"/>
			<line class="st1" x1="77.4" y1="-84" x2="88.5" y2="-72.9"/>
			<line class="st1" x1="79.8" y1="-86.4" x2="91.1" y2="-75.1"/>
			<line class="st1" x1="82.2" y1="-88.8" x2="93.6" y2="-77.5"/>
			<line class="st1" x1="84.6" y1="-91.2" x2="96" y2="-79.9"/>
			<line class="st1" x1="74.4" y1="-38.2" x2="86.1" y2="-49.9"/>
			<line class="st1" x1="71.9" y1="-40.6" x2="83.7" y2="-52.4"/>
			<line class="st1" x1="69.5" y1="-43" x2="81.2" y2="-54.7"/>
			<line class="st1" x1="67.1" y1="-45.4" x2="78.8" y2="-57.2"/>
			<line class="st1" x1="56" y1="-38.5" x2="67.1" y2="-27.4"/>
			<line class="st1" x1="58.4" y1="-40.9" x2="69.7" y2="-29.6"/>
			<line class="st1" x1="60.8" y1="-43.3" x2="72.2" y2="-32"/>
			<line class="st1" x1="63.3" y1="-45.8" x2="74.6" y2="-34.4"/>
			<line class="st1" x1="51.5" y1="-15.1" x2="63.3" y2="-26.9"/>
			<line class="st1" x1="49.1" y1="-17.6" x2="60.9" y2="-29.3"/>
			<line class="st1" x1="46.7" y1="-20" x2="58.4" y2="-31.7"/>
			<line class="st1" x1="44.2" y1="-22.4" x2="56" y2="-34.2"/>
			<line class="st1" x1="33.1" y1="-15.5" x2="44.2" y2="-4.4"/>
			<line class="st1" x1="35.6" y1="-17.9" x2="46.8" y2="-6.6"/>
			<line class="st1" x1="38" y1="-20.3" x2="49.3" y2="-9"/>
			<line class="st1" x1="40.4" y1="-22.8" x2="51.7" y2="-11.4"/>
			<line class="st1" x1="96.6" y1="-60.9" x2="108.4" y2="-72.7"/>
			<line class="st1" x1="94.2" y1="-63.3" x2="106" y2="-75.1"/>
			<line class="st1" x1="91.8" y1="-65.7" x2="103.5" y2="-77.4"/>
			<line class="st1" x1="89.3" y1="-68.1" x2="101.1" y2="-79.9"/>
			<line class="st1" x1="78.2" y1="-61.2" x2="89.3" y2="-50.1"/>
			<line class="st1" x1="80.7" y1="-63.6" x2="91.9" y2="-52.3"/>
			<line class="st1" x1="83.1" y1="-66" x2="94.4" y2="-54.7"/>
			<line class="st1" x1="85.5" y1="-68.5" x2="96.9" y2="-57.1"/>
			<line class="st1" x1="96.7" y1="-38.1" x2="108.5" y2="-49.9"/>
			<line class="st1" x1="94.3" y1="-40.6" x2="106.1" y2="-52.3"/>
			<line class="st1" x1="91.9" y1="-43" x2="103.6" y2="-54.7"/>
			<line class="st1" x1="89.5" y1="-45.4" x2="101.2" y2="-57.2"/>
			<line class="st1" x1="78.4" y1="-38.5" x2="89.5" y2="-27.4"/>
			<line class="st1" x1="80.8" y1="-40.9" x2="92.1" y2="-29.6"/>
			<line class="st1" x1="83.2" y1="-43.3" x2="94.6" y2="-32"/>
			<line class="st1" x1="85.7" y1="-45.8" x2="97" y2="-34.4"/>
			<line class="st1" x1="73.9" y1="-15.1" x2="85.7" y2="-26.9"/>
			<line class="st1" x1="71.5" y1="-17.5" x2="83.3" y2="-29.3"/>
			<line class="st1" x1="69" y1="-20" x2="80.8" y2="-31.7"/>
			<line class="st1" x1="66.6" y1="-22.4" x2="78.4" y2="-34.1"/>
			<line class="st1" x1="55.8" y1="-15.5" x2="66.9" y2="-4.4"/>
			<line class="st1" x1="58.2" y1="-17.9" x2="69.5" y2="-6.6"/>
			<line class="st1" x1="60.7" y1="-20.3" x2="72" y2="-9"/>
			<line class="st1" x1="63.1" y1="-22.8" x2="74.4" y2="-11.4"/>
			<line class="st1" x1="96.7" y1="-15.8" x2="108.5" y2="-27.6"/>
			<line class="st1" x1="94.3" y1="-18.2" x2="106.1" y2="-30"/>
			<line class="st1" x1="91.8" y1="-20.7" x2="103.6" y2="-32.4"/>
			<line class="st1" x1="89.4" y1="-23.1" x2="101.2" y2="-34.8"/>
			<line class="st1" x1="78.6" y1="-16.2" x2="89.7" y2="-5.1"/>
			<line class="st1" x1="81" y1="-18.6" x2="92.3" y2="-7.3"/>
			<line class="st1" x1="83.5" y1="-21" x2="94.8" y2="-9.7"/>
			<line class="st1" x1="85.7" y1="-23.2" x2="97" y2="-11.9"/>
		</g>
		<g>
			<line class="st1" x1="5" y1="-83.6" x2="16.8" y2="-95.4"/>
			<line class="st1" x1="2.6" y1="-86" x2="14.4" y2="-97.8"/>
			<line class="st1" x1="0.2" y1="-88.5" x2="11.9" y2="-100.2"/>
			<line class="st1" x1="5.9" y1="-60.9" x2="17.7" y2="-72.7"/>
			<line class="st1" x1="3.5" y1="-63.3" x2="15.3" y2="-75.1"/>
			<line class="st1" x1="1" y1="-65.7" x2="12.8" y2="-77.4"/>
			<line class="st1" x1="6" y1="-38.1" x2="17.8" y2="-49.9"/>
			<line class="st1" x1="3.6" y1="-40.6" x2="15.4" y2="-52.3"/>
			<line class="st1" x1="1.2" y1="-43" x2="12.9" y2="-54.7"/>
			<line class="st1" x1="6" y1="-15.8" x2="17.8" y2="-27.6"/>
			<line class="st1" x1="3.6" y1="-18.2" x2="15.3" y2="-30"/>
			<line class="st1" x1="1.1" y1="-20.7" x2="12.9" y2="-32.4"/>
		</g>
		<g>
			<line class="st1" x1="100.4" y1="-106.2" x2="111.5" y2="-95.1"/>
		</g>
		<g>
			<line class="st1" x1="9.7" y1="-106.2" x2="20.8" y2="-95.1"/>
			<line class="st1" x1="12.1" y1="-108.6" x2="23.4" y2="-97.3"/>
			<line class="st1" x1="14.5" y1="-111" x2="25.9" y2="-99.7"/>
			<line class="st1" x1="17" y1="-113.4" x2="28.3" y2="-102.1"/>
			<line class="st1" x1="33.1" y1="-106.2" x2="44.2" y2="-95.1"/>
			<line class="st1" x1="35.6" y1="-108.6" x2="46.8" y2="-97.3"/>
			<line class="st1" x1="38" y1="-111" x2="49.3" y2="-99.7"/>
			<line class="st1" x1="40.4" y1="-113.5" x2="51.7" y2="-102.1"/>
			<line class="st1" x1="55.8" y1="-106.2" x2="66.9" y2="-95.1"/>
			<line class="st1" x1="58.2" y1="-108.6" x2="69.5" y2="-97.3"/>
			<line class="st1" x1="60.7" y1="-111" x2="72" y2="-99.7"/>
			<line class="st1" x1="63.1" y1="-113.5" x2="74.4" y2="-102.1"/>
			<line class="st1" x1="78.6" y1="-106.9" x2="89.7" y2="-95.8"/>
			<line class="st1" x1="81" y1="-109.3" x2="92.3" y2="-98"/>
			<line class="st1" x1="83.5" y1="-111.7" x2="94.8" y2="-100.4"/>
			<line class="st1" x1="85.7" y1="-113.9" x2="97" y2="-102.6"/>
		</g>
	</g>
</pattern>
<g id="HATCH">
	<pattern  id="SVGID_1_" xlink:href="#Earth" patternTransform="matrix(1 0 0 1 94.5262 -106.2326)">
	</pattern>
	<polygon class="st2" points="58.4,261.8 118.6,256 119.9,269.3 59.7,275.1 	"/>
</g>
<g>
	<g id="MTEXT">
		<g>
			<text transform="matrix(1 0 0 1 266.2374 213.7471)" class="st3 st4 st5">Common area</text>
		</g>
	</g>
	<g id="MTEXT_1_">
		<g>
			<text transform="matrix(1 0 0 1 175.6392 143.0718)" class="st3 st4 st5">Dwelling</text>
		</g>
	</g>
	<g id="MTEXT_2_">
		<g>
			<text transform="matrix(0.9954 -9.585001e-02 9.585001e-02 0.9954 30.5805 260.0728)" class="st3 st4 st5">Finished ground</text>
		</g>
	</g>
	<g id="MTEXT_3_">
		<g>
			<text transform="matrix(1 0 0 1 283.1495 143.0718)" class="st3 st4 st5">Dwelling</text>
		</g>
	</g>
	<g id="MTEXT_4_">
		<g>
			<text transform="matrix(1 0 0 1 396.9239 143.0718)" class="st3 st4 st5">Dwelling</text>
		</g>
	</g>
</g>
<g>
	<g id="LINE">
		<g>
			<line class="st6" x1="29.2" y1="264.5" x2="525.6" y2="216.7"/>
		</g>
	</g>
	<g id="LINE_1_">
		<g>
			<line class="st6" x1="139.6" y1="172" x2="308.6" y2="172"/>
		</g>
	</g>
	<g id="LINE_2_">
		<g>
			<line class="st6" x1="308.6" y1="172" x2="146.1" y2="172"/>
		</g>
	</g>
	<g id="LINE_3_">
		<g>
			<line class="st6" x1="138.2" y1="172" x2="308.6" y2="172"/>
		</g>
	</g>
	<g id="LINE_5_">
		<g>
			<line class="st6" x1="138.2" y1="184.3" x2="145.7" y2="184.3"/>
		</g>
	</g>
	<g id="LINE_7_">
		<g>
			<line class="st6" x1="138.2" y1="254" x2="138.2" y2="100.9"/>
		</g>
	</g>
	<g id="LINE_12_">
		<g>
			<line class="st6" x1="118" y1="100.9" x2="308.6" y2="100.9"/>
		</g>
	</g>
	<g id="LINE_14_">
		<g>
			<line class="st6" x1="143.5" y1="172" x2="143.5" y2="100.9"/>
		</g>
	</g>
	<g id="LINE_15_">
		<g>
			<line class="st6" x1="251.7" y1="172" x2="251.7" y2="100.9"/>
		</g>
	</g>
	<g id="LINE_16_">
		<g>
			<line class="st6" x1="256.9" y1="172" x2="256.9" y2="100.9"/>
		</g>
	</g>
	<g id="LINE_17_">
		<g>
			<line class="st6" x1="477.6" y1="172" x2="308.6" y2="172"/>
		</g>
	</g>
	<g id="LINE_18_">
		<g>
			<line class="st6" x1="308.6" y1="172" x2="471.1" y2="172"/>
		</g>
	</g>
	<g id="LINE_19_">
		<g>
			<line class="st6" x1="478.9" y1="172" x2="308.6" y2="172"/>
		</g>
	</g>
	<g id="LINE_21_">
		<g>
			<line class="st6" x1="478.9" y1="184.3" x2="471.5" y2="184.3"/>
		</g>
	</g>
	<g id="LINE_23_">
		<g>
			<line class="st6" x1="478.9" y1="221.2" x2="478.9" y2="100.9"/>
		</g>
	</g>
	<polyline class="st6" points="145.7,253.3 145.7,179.3 250.6,179.3 250.6,184.3 258,184.3 258,179.3 308.6,179.3 359.1,179.3 
		359.1,184.3 366.6,184.3 366.6,179.3 471.5,179.3 471.5,221.9 	"/>
	<polyline class="st6" points="118,100.9 308.6,27.5 499.2,100.9 308.6,100.9 	"/>
	<g id="LINE_30_">
		<g>
			<line class="st6" x1="473.7" y1="172" x2="473.7" y2="100.9"/>
		</g>
	</g>
	<g id="LINE_31_">
		<g>
			<line class="st6" x1="365.5" y1="172" x2="365.5" y2="100.9"/>
		</g>
	</g>
	<g id="LINE_32_">
		<g>
			<line class="st6" x1="360.2" y1="172" x2="360.2" y2="100.9"/>
		</g>
	</g>
</g>
</svg>
