<?xml version="1.0" encoding="utf-8"?>
<!-- Generator: Adobe Illustrator 25.2.1, SVG Export Plug-In . SVG Version: 6.00 Build 0)  -->
<svg version="1.1" id="Layer_1" xmlns="http://www.w3.org/2000/svg" xmlns:xlink="http://www.w3.org/1999/xlink" x="0px" y="0px"
	 viewBox="0 0 552.8 446.2" style="enable-background:new 0 0 552.8 446.2;" xml:space="preserve">
<style type="text/css">
	.st0{fill:none;stroke:#000000;stroke-linecap:round;stroke-linejoin:round;stroke-miterlimit:10;}
	.st1{font-family:'ArialMT';}
	.st2{font-size:12px;}
	.st3{font-family:'Arial-BoldMT';}
</style>
<g>
	<g id="CIRCLE">
		<path class="st0" d="M90.5,257.8c0-1.1,0.9-2.1,2.1-2.1c1.1,0,2.1,0.9,2.1,2.1c0,1.1-0.9,2.1-2.1,2.1
			C91.5,259.9,90.5,259,90.5,257.8L90.5,257.8z"/>
	</g>
	<g id="CIRCLE_1_">
		<path class="st0" d="M67.6,155.3c0-1.1,0.9-2.1,2.1-2.1c1.1,0,2.1,0.9,2.1,2.1c0,1.1-0.9,2.1-2.1,2.1
			C68.6,157.4,67.6,156.4,67.6,155.3L67.6,155.3z"/>
	</g>
	<g id="CIRCLE_2_">
		<path class="st0" d="M262.1,164.7c0-1.1,0.9-2.1,2.1-2.1s2.1,0.9,2.1,2.1c0,1.1-0.9,2.1-2.1,2.1S262.1,165.8,262.1,164.7
			L262.1,164.7z"/>
	</g>
	<g id="CIRCLE_3_">
		<path class="st0" d="M240.7,46.3c0-1.1,0.9-2.1,2.1-2.1c1.1,0,2.1,0.9,2.1,2.1c0,1.1-0.9,2.1-2.1,2.1
			C241.6,48.3,240.7,47.4,240.7,46.3L240.7,46.3z"/>
	</g>
	<g id="CIRCLE_4_">
		<path class="st0" d="M398.5,102.6c0-1.1,0.9-2.1,2.1-2.1c1.1,0,2.1,0.9,2.1,2.1c0,1.1-0.9,2.1-2.1,2.1
			C399.5,104.6,398.5,103.7,398.5,102.6L398.5,102.6z"/>
	</g>
	<g id="CIRCLE_5_">
		<path class="st0" d="M407.7,129.9c0-1.1,0.9-2.1,2.1-2.1s2.1,0.9,2.1,2.1s-0.9,2.1-2.1,2.1S407.7,131,407.7,129.9L407.7,129.9z"/>
	</g>
	<g id="CIRCLE_6_">
		<path class="st0" d="M416,205.1c0-1.1,0.9-2.1,2.1-2.1c1.1,0,2.1,0.9,2.1,2.1c0,1.1-0.9,2.1-2.1,2.1
			C416.9,207.2,416,206.3,416,205.1L416,205.1z"/>
	</g>
	<g id="CIRCLE_7_">
		<path class="st0" d="M455.4,192.1c0-1.1,0.9-2.1,2.1-2.1c1.1,0,2.1,0.9,2.1,2.1c0,1.1-0.9,2.1-2.1,2.1
			C456.3,194.1,455.4,193.2,455.4,192.1L455.4,192.1z"/>
	</g>
	<g id="CIRCLE_8_">
		<path class="st0" d="M460.5,222.6c0-1.1,0.9-2.1,2.1-2.1c1.1,0,2.1,0.9,2.1,2.1s-0.9,2.1-2.1,2.1
			C461.4,224.6,460.5,223.7,460.5,222.6L460.5,222.6z"/>
	</g>
	<g id="CIRCLE_9_">
		<path class="st0" d="M456.3,244c0-1.1,0.9-2.1,2.1-2.1c1.1,0,2.1,0.9,2.1,2.1c0,1.1-0.9,2.1-2.1,2.1
			C457.3,246.1,456.3,245.2,456.3,244L456.3,244z"/>
	</g>
	<g id="CIRCLE_10_">
		<path class="st0" d="M409.2,263.6c0-1.1,0.9-2.1,2.1-2.1c1.1,0,2.1,0.9,2.1,2.1c0,1.1-0.9,2.1-2.1,2.1
			C410.1,265.7,409.2,264.7,409.2,263.6L409.2,263.6z"/>
	</g>
	<g id="CIRCLE_11_">
		<path class="st0" d="M424.3,290.3c0-1.1,0.9-2.1,2.1-2.1c1.1,0,2.1,0.9,2.1,2.1c0,1.1-0.9,2.1-2.1,2.1
			C425.3,292.4,424.3,291.4,424.3,290.3L424.3,290.3z"/>
	</g>
	<g id="CIRCLE_12_">
		<path class="st0" d="M401.7,302.5c0-1.1,0.9-2.1,2.1-2.1s2.1,0.9,2.1,2.1s-0.9,2.1-2.1,2.1S401.7,303.6,401.7,302.5L401.7,302.5z"
			/>
	</g>
	<g id="CIRCLE_13_">
		<path class="st0" d="M412.6,319.3c0-1.1,0.9-2.1,2.1-2.1c1.1,0,2.1,0.9,2.1,2.1s-0.9,2.1-2.1,2.1
			C413.6,321.4,412.6,320.5,412.6,319.3L412.6,319.3z"/>
	</g>
	<g id="CIRCLE_14_">
		<path class="st0" d="M365.1,317.7c0-1.1,0.9-2.1,2.1-2.1c1.1,0,2.1,0.9,2.1,2.1c0,1.1-0.9,2.1-2.1,2.1
			C366,319.7,365.1,318.8,365.1,317.7L365.1,317.7z"/>
	</g>
	<g id="CIRCLE_15_">
		<path class="st0" d="M313.1,286c0-1.1,0.9-2.1,2.1-2.1s2.1,0.9,2.1,2.1s-0.9,2.1-2.1,2.1S313.1,287.2,313.1,286L313.1,286z"/>
	</g>
	<g id="CIRCLE_16_">
		<path class="st0" d="M386.1,371.3c0-1.1,0.9-2.1,2.1-2.1s2.1,0.9,2.1,2.1c0,1.1-0.9,2.1-2.1,2.1S386.1,372.5,386.1,371.3
			L386.1,371.3z"/>
	</g>
</g>
<g id="TEXT_4_">
	<g>
		<text transform="matrix(1 0 0 1 28.9002 367.1488)" class="st1 st2">ZONE A - 9am RH &lt; 60%</text>
	</g>
</g>
<g id="TEXT_3_">
	<g>
		<text transform="matrix(1 0 0 1 28.9002 383.0824)" class="st1 st2">ZONE B - 9am RH &gt; 60% and 3pm RH &gt; 40%</text>
	</g>
</g>
<g id="TEXT_2_">
	<g>
		<text transform="matrix(1 0 0 1 28.9002 414.9496)" class="st1 st2">RH = Relative Humidity</text>
	</g>
</g>
<g id="TEXT_1_">
	<g>
		<text transform="matrix(1 0 0 1 28.9002 399.016)" class="st1 st2">ZONE C - 9am RH &gt; 70% and 3pm RH &gt; 60%</text>
	</g>
</g>
<g id="TEXT_40_">
	<text transform="matrix(1 0 0 1 56.1843 261.873)" class="st1 st2">Perth</text>
</g>
<g id="TEXT_19_">
	<text transform="matrix(1 0 0 1 28.0978 152.1146)" class="st1 st2">Onslow</text>
</g>
<g id="TEXT_18_">
	<text transform="matrix(1 0 0 1 269.6392 168.9097)" class="st1 st2">Alice Springs</text>
</g>
<g id="TEXT_17_">
	<text transform="matrix(1 0 0 1 199.2876 46.2507)" class="st1 st2">Darwin</text>
</g>
<g id="TEXT_16_">
	<text transform="matrix(1 0 0 1 406.2839 106.6294)" class="st1 st2">Cairns</text>
</g>
<g id="TEXT_15_">
	<text transform="matrix(1 0 0 1 414.9949 129.1118)" class="st1 st2">Townsville</text>
</g>
<g id="TEXT_14_">
	<text transform="matrix(1 0 0 1 380.1033 208.4155)" class="st1 st2">Roma</text>
</g>
<g id="TEXT_13_">
	<text transform="matrix(1 0 0 1 466.1254 195.0724)" class="st1 st2">Bundaberg</text>
</g>
<g id="TEXT_12_">
	<text transform="matrix(1 0 0 1 468.9109 226.6289)" class="st1 st2">Brisbane</text>
</g>
<g id="TEXT_11_">
	<text transform="matrix(1 0 0 1 370.2039 266.6348)" class="st1 st2">Dubbo</text>
</g>
<g id="TEXT_10_">
	<text transform="matrix(1 0 0 1 319.5841 289.4355)" class="st1 st2">Adelaide</text>
</g>
<g id="TEXT_9_">
	<text transform="matrix(1 0 0 1 308.0879 315.6672)" class="st1 st2">Melbourne</text>
</g>
<g id="TEXT_8_">
	<text transform="matrix(1 0 0 1 420.2166 323.4928)" class="st1 st2">Bega</text>
</g>
<g id="TEXT_7_">
	<text transform="matrix(1 0 0 1 408.7839 306.8672)" class="st1 st2">Canberra</text>
</g>
<g id="TEXT_6_">
	<text transform="matrix(1 0 0 1 434.908 295.0879)" class="st1 st2">Sydney</text>
</g>
<g id="TEXT_5_">
	<text transform="matrix(1 0 0 1 398.7458 374.7383)" class="st1 st2">Hobart</text>
</g>
<g id="MTEXT_10_">
	<text transform="matrix(1 0 0 1 465.655 249.8867)"><tspan x="0" y="0" class="st1 st2">Coffs </tspan><tspan x="0" y="13" class="st1 st2">Harbour </tspan></text>
</g>
<g>
	<g id="LWPOLYLINE">
		<polyline class="st0" points="205.3,256.9 207.3,256.4 209.3,256.1 210.4,255.8 211.9,255.4 212.8,255.4 213.7,254.9 214.6,254.4 
			215.7,253.6 217.3,252.7 218.4,252.1 219.5,251.5 220.6,251 222,250.5 223.4,250.4 224.8,249.9 226.3,249.8 227.9,249.6 
			229.9,249.3 231.4,249 233,249 234,248.6 235.5,248.6 237.2,248.5 239.2,248.4 240.8,248.4 242,248.3 243.5,248.3 245.2,248.2 
			246.2,249.4 247.4,250.2 248.8,251.1 249.6,252.1 250.6,252.7 251.7,253.1 253.2,253.1 254.4,253.4 255.7,253.5 256.7,253.6 
			257.7,253.6 258.2,253.6 259.2,253.6 260.3,253.9 261.1,254.4 261.6,255 263,255.1 264.1,255.2 265.1,255.4 266.1,255.5 
			266.9,256.1 267.5,256.6 267.9,257.3 268.2,258.3 268.9,259.1 269.6,259.6 		"/>
	</g>
	<g id="LWPOLYLINE_1_">
		<polyline class="st0" points="269.6,259.6 270.7,260.3 270.9,261.1 270.7,262 270.6,263.1 270.2,263.9 270.4,264.8 271.1,265.5 
			272.2,266.3 273.5,266.9 274.5,267.4 275.7,267.9 277,268.8 277.1,270.4 277.6,271.3 278.4,272.4 279.4,273.5 280.7,274.1 
			281,275.4 280.7,277 280.5,278.8 280.2,280.2 280.2,281.2 280.7,282.4 282.4,283.6 284.3,284.8 285.3,285.1 288,286.7 288,283.8 
			287.5,281.7 288,280.5 289.1,278.8 290.4,277.3 292,275.9 293.3,275.4 295,274.9 296.4,273.5 298.8,273.5 300.3,271.8 
			301.1,269.6 302.5,267.6 304.2,266.7 306.4,265.9 307.1,265.7 307.4,266.9 306.9,268.8 306.7,270.3 306.2,272.2 304.8,273.2 
			303.5,274.1 303.2,276.1 302.5,277.8 301.8,279.8 301.1,281.2 300.1,282 298.4,282.2 296.7,282.4 296,283.4 296.2,285.1 
			297.9,286.1 300.1,286.6 301.7,286.8 302.7,286.1 303.7,284.6 305.1,282.4 306.4,281 307.6,280.1 308.3,280.1 308.8,281.2 
			309.5,282.7 309.8,284.1 311.3,285.6 311.9,287.5 311.3,289.5 309.1,290.7 308,292.9 308,293.8 308.8,294.3 310.3,293.6 
			312.7,293 314.8,293 316.8,294 318,295.3 319,296.9 		"/>
	</g>
	<g id="LWPOLYLINE_2_">
		<polyline class="st0" points="319,296.9 319.5,297.9 319.8,298.6 320.2,299.1 321,300.2 321.7,301.1 322.2,302 323.1,303.2 
			323.4,304.4 323.3,305.4 322.3,306.2 321.7,306.7 		"/>
	</g>
	<g id="LWPOLYLINE_3_">
		<polyline class="st0" points="327.1,317.7 327.4,318.9 328.5,319.8 329.6,320.1 331,320.4 332.1,320.6 333.3,321 334.2,321.6 
			335.2,322.6 336.1,323.3 336.6,323.9 337.3,324.1 338.6,323.5 339.4,323 340.6,323 341.8,323.5 343.1,323.7 344.2,324.1 
			345.3,324.5 346.4,324.5 347.4,325.1 348.1,325.9 349,326.7 349.8,327.1 350.4,327.6 351.2,328.2 351.9,328.7 352.8,329.2 
			353.7,329.5 354.7,329.6 355.8,329.5 356.9,328.9 358.1,328.5 359.3,328 360.5,327.4 361.7,326.8 363.2,326 364.2,325 
			364.4,323.9 364.8,322.5 365.6,321.7 366.6,321.2 367.7,321.3 368.8,321.8 369.1,323.2 369.2,324.3 369,325.4 367.6,326 
			370,326.2 371.4,326.2 371.9,327.2 372.8,328.2 373.9,328.6 375.2,329.4 376.1,330.2 377.3,331.3 378.7,331.6 379.9,332.4 
			380.4,333.9 380.1,335.3 380.8,335.5 381.8,334.4 381.9,332.8 382.6,331.6 384.1,331.3 385.8,331.4 387.2,330.2 388.3,328.9 
			389.7,327.6 391,326.4 392,325.7 393.4,325.1 395.1,324.5 396.8,323.9 398.2,323.1 400.1,323 401.8,322.9 402.9,323 404.2,323.1 
			405.5,323.4 406.8,323.6 407.6,324 408.6,324.1 410,324.1 411.4,324.4 412.4,324.8 413.6,324.4 414.4,323.7 415.6,322.9 
			416.7,321.7 417.1,320.9 417.4,319.4 417.4,318.1 417.4,317 417.3,315.7 416.7,314.7 417,313.8 417.8,312.9 418.7,312.1 
			420.1,310.7 420.7,309.3 		"/>
	</g>
	<g id="LWPOLYLINE_4_">
		<polyline class="st0" points="427.7,297.4 428.7,294.3 429.7,292.1 431.4,290.6 432.8,289.3 433.9,286.8 434.3,284.7 435.8,283.1 
			436.8,281.2 438.1,279.7 439.4,278.4 440.8,277.4 442.4,276.1 443.8,275.3 444.9,274.3 446.8,273.9 448,273.1 448.7,271.8 
			449.4,270.8 450.4,269.5 451.1,268.2 451.9,267 452.5,265.6 453,264.3 454.2,262.5 454.9,260.7 456.2,259.3 457.3,257.5 
			458.1,255.7 458.8,253.6 459.4,251.7 459.9,249.8 460.6,247.7 461.2,245.8 462.1,243.9 463.5,241.7 464.2,239.4 465.7,237.1 
			465.9,234.8 466,232.1 466,229.6 465.7,227.2 465.5,225.2 465.4,223 465.4,220.5 465.1,218.4 465.3,216.4 465.8,213.8 
			466.2,211.5 466.1,208.9 466.3,206.8 466.3,204.7 466.7,202.9 466.7,201.2 466.7,199.5 466.7,197.5 465.4,196 464.2,195.2 
			463.2,194.4 461.9,192.9 461.1,191.2 460,189.6 459.1,188.1 458.5,186.7 458.4,185.1 457.5,184.1 456.4,183.1 454.9,182.7 
			453.8,182.2 452.6,181.7 451.5,180.9 450.5,180 449.6,178.6 448.9,177.4 448,175.8 447.5,174.3 447.5,173 447.3,171.3 
			447.3,169.7 447.3,168.3 447.3,167.1 447.3,165.5 447.1,164.1 446.9,163.2 446.8,163.1 445.5,164.2 444.2,163.8 443.4,162.5 
			442.1,161.9 441.2,160.6 440.4,159.7 440,158.5 439.4,158.3 439.3,160 439.1,161.3 439.2,162.4 438.2,162.5 437.2,161.3 
			436,159.7 435.7,158.4 435.5,157.1 435.5,155.8 434.6,154.5 433.7,152.9 433.1,151.6 432.4,150.1 431.7,148.9 431,147.4 
			430.2,146 429.7,144.3 429.2,142.9 429.4,141.6 429.7,140.4 429.5,139.3 428.3,138.4 427.4,138.4 426.3,138.3 424.9,137.3 
			424.2,136.5 423.2,135.7 421.8,134.6 420.4,133.6 419.7,132.9 418.2,131.8 417.2,131 415.6,129.8 413.9,128.8 412.7,128.1 
			411.3,127.8 410,127.1 408.4,126.2 407,125.4 405.9,124.7 405.4,123.2 405.4,121.9 405.4,120.3 405.4,118.8 405,117.6 404.2,117 
			403.4,116.1 403.4,115.4 403.6,114.1 403.9,113 404.3,112 404.4,110.5 404.5,109.4 404.5,108.1 404.5,106.4 404.5,105.1 
			404.2,103.7 403.7,102.6 402.8,101.3 402.2,99.8 401.7,98.5 401.2,96.8 400.9,95.5 400.4,94.2 400,92.8 399.7,91.3 399.5,89.5 
			399.3,87.4 398.8,85.8 398.7,84.2 398.6,82.9 398.5,81.3 398.4,80 397.9,78.8 397.1,77.7 396.2,76.9 395.1,76.1 394.4,74.9 
			393.2,73.9 392.3,72.8 391.6,71.9 391.1,71.5 390.4,70.9 389.8,70.8 389,70.7 388.3,70.8 387.6,71 386.9,71.2 386.2,71.7 
			385.6,71.9 384.8,72 384.3,72 383.4,71.8 383.1,71.4 383.1,70.8 383.1,70.1 383,69.4 382.8,68.7 382.3,68.1 382,67.7 381.7,67.2 
			381.3,66.7 381,66.2 380.7,66 380.6,65.5 380.6,65 380.6,64.4 380.6,63.8 380.6,63.1 380.5,62.6 380.6,62 381,61.5 381.4,60.8 
			381.6,60.3 381.6,59.8 381.6,59.3 381.6,58.6 381.6,57.7 381.7,57 381.7,56.2 381.7,55.4 381.6,54.6 381,54 380.9,53.5 
			380.4,53.1 380.1,52.9 379.9,52.7 379.5,52.2 379.3,51.7 378.8,51.3 378.6,50.8 378.5,50.2 378.1,49.4 378,48.8 377.9,48.2 
			377.9,47.6 377.9,46.9 377.7,46.2 377.5,45.6 377,44.9 376.9,44.4 376.6,44 376.2,43.5 376,43.1 375.8,42.6 375.8,42.2 
			375.6,41.7 375.6,41.3 375.5,40.7 375.3,40 375,39.2 374.8,38.6 374.6,37.9 374.5,37.1 374.3,36.4 374,35.8 373.8,35.2 
			373.7,34.6 373.6,34.1 373.4,33.5 373,33.1 372.8,32.6 372.4,32.2 371.7,32 371.2,31.9 370.5,31.8 370,31.8 369.2,32 368.7,32.2 
			368.3,32.7 368.3,33.3 368.2,33.9 368.1,34.5 368.1,34.9 368,35.2 367.9,35.7 367.7,36.1 367.5,36.6 367.3,36.9 366.9,37.5 
			366.9,38 366.5,38.5 366.3,39 366,39.3 365.7,40.1 365.7,40.6 365.5,40.9 365.3,41.1 365,41.7 364.7,42.3 364.4,42.9 364,43.6 
			363.7,44.1 363.4,44.5 363.1,45 362.8,45.4 362.6,45.8 362.3,46.3 362.1,46.9 362,47.2 362,47.7 362,48.2 362,48.7 362.1,49 
			362.4,49.3 362.6,49.7 363.3,50.5 363.3,50.9 363.3,51.6 363.3,52 363.2,52.5 363,52.8 362.5,53.1 362,53.3 361.3,53.6 360.9,54 
			360.7,54.2 360.4,54.5 360.2,54.8 360,55.3 360,55.5 359.9,55.9 359.9,56.3 360,56.7 360.1,57 360.1,57.4 360.2,57.8 360.2,58.2 
			360.4,58.7 360.4,59.1 360.5,59.7 360.2,60.2 360.1,60.7 359.9,61 359.7,61.3 359.4,61.8 359.4,62 359.1,62.4 359.1,62.9 
			359.1,63.3 359.1,63.6 359.2,63.9 359.2,64.2 359.1,64.7 359,65 358.9,65.3 358.9,65.9 358.8,66.4 358.8,66.9 358.6,67.4 
			358.4,67.8 358.4,68.2 358.3,68.6 358.1,69.1 358,69.5 358,70.1 358,70.6 358,71 357.9,71.3 357.9,71.7 357.9,72.2 358.1,72.8 
			358.2,73.2 358.3,73.6 358.3,73.9 358.3,74.2 358.3,74.6 358.3,75 358.3,75.5 358.4,75.9 358.4,76.3 358.3,76.6 358.2,76.9 
			358.2,77.3 358.2,77.8 358,78.3 358,78.9 357.8,79.2 357.8,79.5 357.7,79.9 357.7,80.3 357.5,80.6 357.3,81 357.1,81.3 
			356.9,81.6 356.7,81.8 356.7,82 356.6,82.1 356.4,82.2 356.3,82.4 356.3,82.6 356.1,83 356.1,83.2 356.1,83.7 356,84.1 
			355.9,84.6 355.8,85.1 355.7,85.6 355.6,86.1 355.5,86.7 355.3,87.2 355.1,87.7 354.9,88.2 354.7,88.5 354.4,89.1 354.2,89.6 
			353.9,90.1 353.7,90.9 353.4,91.6 353,92 352.7,92.6 352.3,93.2 351.9,93.7 351.6,94 351.2,94.3 350.7,94.6 350.4,95.1 
			350.1,95.7 350,96.4 349.9,97 349.9,97.5 349.7,98 349.7,98.6 349.6,99.1 349.4,99.7 349.4,100.3 349.2,100.7 348.9,101.2 
			348.7,101.9 348.5,102.2 348.2,102.6 348.1,102.9 347.9,103.4 347.8,103.8 347.6,104.2 347.3,104.5 346.7,104.6 346.2,104.6 
			345.7,104.7 345.2,104.7 344.8,104.7 344.3,104.8 343.8,104.8 343.4,104.9 343.1,105 342.6,105.1 342.2,105.1 341.8,105.3 
			341.4,105.3 341,105.3 340.6,105.3 340.2,105.3 339.8,105.2 339.5,105.1 339.2,104.9 338.9,104.7 338.6,104.4 338.4,104.1 
			338.2,103.8 337.8,103.4 337.5,103.2 337.3,103 337,102.8 336.7,102.5 336.4,102.3 336,102.1 335.6,101.8 335.3,101.6 
			335.1,101.4 334.9,101.2 334.6,100.8 334.2,100.5 333.9,100.2 333.6,100 333.3,99.8 333,99.7 332.7,99.6 332.3,99.5 331.9,99.5 
			331.6,99.5 331.3,99.5 331,99.4 330.6,99.2 330.3,99 330,98.6 329.8,98.4 329.6,98.1 329.4,97.7 329.1,97.4 328.9,97.1 
			328.7,96.9 328.6,96.6 328.4,96.4 328.1,96 327.8,95.7 327.6,95.5 327.4,95.1 327.2,94.9 327,94.7 326.7,94.5 326.4,94.4 
			326.1,94.2 325.8,94 325.6,93.9 325.3,93.8 325,93.7 324.6,93.6 324.3,93.5 324,93.5 323.7,93.4 323.4,93.3 323.1,93.2 322.8,93 
			322.5,92.9 322.2,92.8 321.9,92.8 321.7,92.7 321.4,92.6 321.1,92.5 320.8,92.5 320.5,92.3 320.2,92.3 319.9,92.2 319.5,92.2 
			319.1,92.1 318.9,92 318.4,91.9 318.1,91.6 317.8,91.5 317.6,91.2 317.4,91 317.2,90.7 316.9,90.4 316.7,90.2 316.4,89.8 
			316.2,89.6 315.9,89.3 315.8,89.1 315.6,88.9 315.3,88.7 315.1,88.5 314.8,88.2 314.6,88 314.5,87.8 314.2,87.6 313.9,87.3 
			313.7,87.1 313.3,86.9 313.2,86.7 312.9,86.5 312.6,86.2 312.5,86 312.2,85.8 312,85.6 311.8,85.5 311.4,85.4 311.1,85.3 
			310.7,85.3 310.3,85.3 310,85.3 309.8,85.3 309.5,85.3 309.2,85.1 308.7,85 308.4,84.8 308.1,84.7 307.8,84.5 307.6,84.3 
			307.2,84.2 306.8,83.9 306.5,83.8 306.4,83.7 306.1,83.6 305.8,83.4 305.6,83.4 305.3,83.3 304.9,83.2 304.6,83.2 304.3,83.2 
			304.1,83.1 303.8,83.1 303.5,83 303.1,83 302.8,82.8 302.7,82.7 302.3,82.3 302.2,82 302.1,81.7 302,81.4 301.9,81.1 301.8,80.8 
			301.6,80.4 301.3,80 300.7,79.4 300.3,79.2 299.9,79 299.7,79 299.6,78.9 299.3,78.7 299,78.6 298.8,78.3 298.6,78.1 298.4,77.8 
			298.2,77.7 298,77.5 297.8,77.4 297.5,77.1 297.2,76.8 297,76.7 296.8,76.4 296.7,76.3 296.5,76 296.1,75.8 295.9,75.6 
			295.6,75.5 295.2,75.3 294.8,75.2 294.4,75.1 294,74.9 293.7,74.9 293.4,74.9 293.1,74.8 292.7,74.7 292.4,74.6 292,74.5 
			291.8,74.4 291.3,74.1 291.1,73.9 290.8,73.6 290.4,73.2 290,72.9 289.8,72.6 289.7,72.3 289.5,71.9 289.4,71.4 289.3,71.2 
			289.3,70.9 289.3,70.5 289.3,70.3 289.3,69.9 289.3,69.6 289.4,68.6 289.7,68.3 290.2,68 290.5,67.7 290.8,67.4 290.9,67.2 
			291.1,67 291.3,66.8 291.5,66.6 291.7,66.2 291.9,66 292.1,65.7 292.3,65.4 292.5,65.2 292.7,64.9 293.1,64.6 293.4,64.3 
			293.6,64 293.8,63.8 294,63.5 294.4,63.2 294.5,63 294.7,62.7 294.9,62.5 295,62.1 295.2,61.6 295.3,60.1 294.9,59.1 294.9,58.1 
			294.8,57.3 294.8,56.7 294.9,56 295.2,55.4 296.1,54.9 296.7,54.2 297.4,53.8 298.1,53.4 298.9,53.2 299.4,53.2 300.2,53.3 
			300.8,52.9 301.2,52.6 301.6,51.8 302,51.2 302.3,50.4 302.5,49.8 303,48.9 303,48 303.6,47.5 304.1,46.9 304.6,46 305.5,45.4 
			305.5,44.5 305.4,43.3 304.7,43 303.8,43 303.2,42.7 302.5,42.2 302,41.5 301.2,41 300.4,41 299.4,41.3 299.4,42.3 299.4,42.9 
			299.6,43.6 299.6,44.2 299.3,44.6 298.9,45.2 298.7,45.8 297.8,45.8 297.2,45.5 296.5,45.2 296.2,44.2 296.1,43.6 295.4,43.3 
			295,42.7 294.7,42.4 294.4,42 294,41 294,40.1 293.7,39.7 292.7,40.1 291.8,40.4 291.3,41 290.6,41.2 290.3,41.6 289.8,42 
			289.4,42.3 288.8,42.7 288.2,42.9 287.2,43.3 286.3,43.3 285.9,43.3 284.9,43 284.2,42.4 283.6,41.7 282.9,41.2 282.4,40.8 
			282,40.6 281.5,40.4 280.8,40.3 280.2,40.3 279.4,40.5 278.7,40.9 277.8,40.9 277.1,41 276.6,41 276.2,40.9 275.5,40.8 
			274.5,40.3 273.9,39.8 273.5,39.6 272.9,39.2 272.2,38.9 271.4,38.9 270.4,38.7 270,38.7 269.3,38.7 268.5,38.7 268,38.7 
			266.7,38.7 265.8,38.7 265.1,38.3 264.5,37.5 263.8,36.5 262.9,35.8 262.1,35.1 261.9,34.6 260.7,33.9 259.9,33.8 258.9,33.5 
			257.8,33.5 256.9,33.4 256.4,32.6 256,32.5 255.2,32 254.9,31.7 253.9,31.7 253.4,31.7 252.3,31.8 251.4,32 250.6,31.2 
			249.6,31.1 249.1,32 248.9,32.9 249.3,33.6 250.7,33.9 251.8,34.2 253.5,35 254.8,35.4 255.6,35.4 256.5,36.1 256.8,36.9 
			257.4,37.9 258.1,39.2 258,40 257.8,40.9 256.9,41.5 256.4,41.7 255.6,41.8 255.2,42.3 254.2,42.6 253.1,42.6 252.1,43 
			251.1,43.1 250.1,43 249.3,43 248.6,43.1 248,43.3 246.8,43.3 246.3,43.3 245.1,43.3 244,43.3 242.6,43.5 241.7,43.7 240.9,44.4 
			240.4,44.9 239.4,45.5 238.9,46.6 238.3,47.2 237.8,47.8 237.2,48.3 236.5,48.6 236.2,49.1 235.2,48.9 234.2,48.8 233.3,48.3 
			232.6,48.9 231.9,49.9 230.8,50.6 230,51.1 229.6,52 230.2,52.9 230.6,54.1 230.6,55.1 230.5,55.9 229.5,56.2 228.3,56.2 
			227.3,56.2 227,56.8 226.8,58 226.8,59.1 226.9,60.1 226.7,60.8 225.8,61 224.5,61.4 223.6,61.8 223.2,62.5 222.8,63.1 222.8,64 
			222.3,64.7 222.4,65.7 222.7,66.6 223.3,67.1 223.9,67.6 224.5,69 224.9,70.2 224.9,70.3 		"/>
	</g>
	<g id="LWPOLYLINE_5_">
		<polyline class="st0" points="205.3,256.9 202.7,257.9 199.9,257.9 197.5,258.3 196.4,258.3 195.6,258.4 194.4,258.8 192.9,259.1 
			192.4,259.5 191.5,260 190.7,260.3 189.9,260.6 188.5,261.2 187.3,261.3 186.6,262.1 185.5,262.3 184.5,262.9 183.6,263.3 
			182.8,263.4 182.5,263.6 181.2,264.2 179.9,264.7 178.7,265.2 177.8,265.6 176.9,265.8 176.2,266.4 175.2,267 174.4,267.5 
			173.9,268 173.7,268.4 172.9,269.1 172.9,269.7 172.5,271.1 172.3,271.9 171.4,272.5 171.1,273.2 170.5,273.9 169.9,274.5 
			169.3,275.5 169.1,275.9 168.4,276.2 167.9,276.6 167.2,276.8 166.5,277.2 165,277.3 163.7,277.4 162.8,277.4 161.8,277.6 
			159.7,277.5 158.6,277.8 157,277.5 155.5,277.3 154.3,277 153.2,277.3 152.2,277.5 151.5,277.5 150.3,277.5 149.4,277.2 
			148,276.8 147.3,277.1 146.1,277.3 145.3,277.6 		"/>
	</g>
	<g id="LWPOLYLINE_6_">
		<polyline class="st0" points="232.8,32.9 234.4,33 235.8,33 236.9,33.4 237.9,34.1 239.1,34.1 241.2,33.6 242.4,32.9 243.4,32.6 
			245.2,33 245.4,34.6 245.1,36.1 243.7,36.5 242.5,37.5 241.5,38.5 240.1,38.6 238.8,39.2 236.8,38.4 235,37.6 233.3,36.9 
			231.5,36.2 230.8,34.8 232.8,32.9 		"/>
	</g>
	<g id="LWPOLYLINE_7_">
		<polyline class="st0" points="300.3,65 300.5,63 300.5,62.1 300.9,60.8 302.2,59.7 303.4,59.7 304.8,61.7 304.8,63 304.9,64.8 
			303.5,65.4 301.8,65.4 300.3,65 		"/>
	</g>
	<g id="LWPOLYLINE_8_">
		<polyline class="st0" points="330.8,92.6 332.2,93.2 334.1,93 334.7,92.1 335.6,90.7 335.3,89.5 333.6,89.7 332,90.4 330.8,90.6 
			330.8,92.6 		"/>
	</g>
	<g id="LWPOLYLINE_9_">
		<polyline class="st0" points="357.9,338.7 357,339.7 357.1,341.4 357.7,342.4 359.4,342.7 360.1,341.4 359.9,339.8 359.7,338.7 
			359,337.9 358.1,337.9 357.3,339.4 		"/>
	</g>
	<g id="LWPOLYLINE_10_">
		<polyline class="st0" points="394.3,344.4 394.3,346 395.9,346.4 397.6,346.4 398,345.3 398.2,344.4 397,343.9 396.5,343.2 
			395,343.3 394.3,344.4 		"/>
	</g>
	<g id="LWPOLYLINE_11_">
		<polyline class="st0" points="363.3,353.1 363.8,352.1 364.1,351 364.6,350.2 364.9,349.4 365,349 365.6,348.4 366.3,348.2 
			367.7,348.5 368.1,349.8 369.3,350.8 370.3,351.5 371.5,352.3 372.3,352.9 374,353.8 375.3,354.2 376.9,354.7 378.1,355.3 
			380,356 381.3,356 384,355.9 385.9,355.2 387.6,354.8 390.1,354.4 392,353.7 393.3,352.9 394.2,351.9 395.7,350.9 398.1,351.9 
			398.1,352.9 397.7,354.8 397,356.4 396.6,358.1 396.5,359.5 396.4,361.1 396.1,362.4 395.9,363.9 395.6,364.9 395.6,366 
			395.7,367.2 395.7,368.3 395.7,369.1 395.2,370.1 394.1,370.2 393.3,370.5 393,371.6 393,372.7 392.8,373.2 392.2,373.6 
			391.4,375.3 390.8,376.4 389.8,376.9 388.6,376.8 389.1,375.4 389.5,374.2 388.7,373.8 387.8,374.1 387.1,374.6 386.2,375.2 
			385.3,375.8 385,377.3 384.6,378.7 383.6,379.6 382.5,379.7 381.4,380.4 380.5,380.5 379.6,380.8 378.7,381 377.6,381.2 
			376.5,381.2 375.4,380.9 374.8,379.7 374.2,378.9 373.3,378.2 373,377.5 371.8,376 371.8,375.4 371,374.2 370.8,373.3 
			369.6,372.3 369,371.1 368,370.2 367.2,368.9 366.8,367.5 366.4,366.7 		"/>
	</g>
	<g id="LWPOLYLINE_12_">
		<polyline class="st0" points="294.7,294.1 298,293.5 299.1,293.4 300.1,293.3 301.2,293.3 301.9,293.6 302.8,294.1 303.8,294.3 
			304.7,294.7 305.4,295.6 305.3,296.2 304.7,296.6 303.6,296.8 302.6,297.1 301.9,297.3 300.7,297.6 299.5,297.7 298.3,297.7 
			297.1,297.7 295.2,297.8 293.1,297.4 292.2,296.7 292.2,296.2 292.5,295.3 293.4,294.7 294.7,294.1 		"/>
	</g>
	<g id="LWPOLYLINE_19_">
		<polyline class="st0" points="206.1,69.2 205.2,67.8 204.3,66.8 202.9,65.5 202,64.6 201.5,63.9 200.7,63.4 200.2,63 199,62.6 
			198.2,62.2 197.4,61.8 196.8,61.8 195.9,61.5 195.3,61 195,60.5 194.1,60.2 193.3,60.2 192.6,60.6 191.9,61.5 191.7,62.3 191,63 
			190.6,64.7 190.1,64.7 189.9,63.5 189.5,62.2 188.5,63 188.3,64.5 187.7,64.5 186.8,63.7 186.1,63.1 185.5,62.7 185.2,63.8 
			185.1,65.1 184.6,65.9 184.2,66.7 184.2,67.6 183.8,68.5 183.2,69.1 182.3,68.8 181.7,68.2 180.9,67.6 179.9,67.4 178.8,68 
			178.2,68.5 177.1,69 176.2,69.6 175.7,70.3 176,71.5 176.3,71.9 176.5,72.7 176.9,73.2 176.9,74.3 176,74.4 174.9,74.4 
			174.1,74.4 173.5,74.8 173.3,75.5 173.3,76.3 173,77.4 173,78.5 172.1,78.1 171.3,77.8 170.7,77.5 169.6,77.2 169.1,77.3 
			168.2,77 167.4,77.6 167.6,79.1 167.6,80.2 167.6,81 167.7,82 167.8,82.7 167.8,83.7 167.8,84.4 167.9,85.3 167.9,86 167.8,86.7 
			167.7,87.1 167.7,87.6 167.3,88.5 166.2,88.9 165.1,88.8 163.7,88.8 162.3,88.8 161.5,88.6 160.9,88.4 160.2,88.1 159.7,87.6 
			159,86.9 158.4,86.2 157.8,86.2 157.4,87.2 157.4,88.5 157.3,89.2 157.4,90.1 157.5,91.1 157.8,91.9 158.5,92.8 159.5,93.2 
			160.4,93.8 160.6,94.7 160.7,95.5 160.5,96.3 160.6,97.2 160.3,98 160.3,98.8 160.1,99.5 158.7,99.7 157.3,100 156.5,100 
			155.5,99.5 154.7,98.6 153.9,97.8 153.9,96.3 153.3,95.4 152.9,94.7 152.4,93.8 152,92.7 151.9,92 151.8,91.4 151.3,90.7 
			151.2,90 150.4,90.7 149.9,91.7 149.1,92.2 148.4,92.6 147.8,92.9 147.1,93 146.3,93.7 146.3,94.4 145.8,94.9 145.7,95.4 
			145.3,95.9 145.2,96.6 145,96.9 144.8,97.3 144.7,97.6 144.5,97.8 144.4,98 143.8,98.6 144,99 143.3,99.5 143.2,100.1 
			142.7,100.7 142.6,101.1 142.5,101.9 142.5,102.6 142.5,103.6 142.3,104.1 142.3,105 142,105.5 142,106.1 142,106.5 141.9,107.2 
			141.9,107.6 142,108.5 141.8,109.5 141.7,110.3 141.2,111.2 141.1,111.6 140.9,112.4 140.3,113.6 139.9,114.7 139.1,115.9 
			138.7,116.3 138.4,117.2 137.7,117.6 137,118.9 136.9,119.5 136.5,119.8 136.3,120.4 136.1,121 135.6,121.5 135.4,122.1 
			135,122.6 134.6,122.9 133.9,123.3 133.4,123.8 132.3,124.2 131.4,124.9 130.8,125.3 130.3,125.5 129.7,125.7 129.2,126 
			128.6,126.1 127.8,126.4 127.1,126.6 126.4,126.9 125.4,127.2 124.7,127.4 124,127.5 123.3,127.5 122.8,127.5 122.4,128.1 
			122,128.6 121.6,128.9 121.3,129.4 120.6,129.7 120.2,129.9 119.3,130 118.7,129.9 118.3,130 117.9,130 117.4,130 117,130.3 
			116.5,130.5 116.1,130.8 115.6,130.9 115.2,131 114.6,131 114,131 113.6,131 113,131.1 112.3,131 112,131 111.6,131.3 
			111.5,131.5 111.3,131.8 111.1,132 110.9,132.2 110.4,132.6 110.2,132.9 109.8,133.1 109.4,133.5 109,133.8 108.5,134 108.1,134 
			107.4,134 106.7,134 106,134 105.5,134 105.1,134 104.7,134 104.4,134 104.1,134 103.9,134 103.4,134.2 103,134.3 102.7,134.3 
			102.3,134.6 102.1,134.8 101.6,135.2 101.2,135.5 100.9,135.8 100.4,136 100.4,136.5 99.7,136.5 99.7,136.9 99.3,137 99,137.3 
			98.9,137.4 98.7,137.5 98.4,137.8 97.9,138.2 97.6,138.4 97.2,138.7 96.9,138.9 96.5,139.2 96.3,139.4 96.1,139.6 95.7,139.8 
			95.3,139.9 94.9,140.1 94.4,140.2 93.9,140.2 93.6,140.2 93.1,140.2 92.6,140.2 92.4,140.1 91.8,139.9 91.6,139.8 91,139.5 
			90.8,139.4 90.3,139.2 90.2,139 89.7,138.9 89.4,138.7 89.1,138.6 88.7,138.5 88.3,138.3 87.8,138.1 87.2,138.4 87.1,139 
			87,139.5 86.8,139.8 86.5,140.2 86.2,140.5 86.1,140.8 85.7,141.1 85.4,141.3 85,141.3 84.5,141.3 84.2,141.3 83.6,141.6 
			83.3,141.8 83,142 82.6,142.2 82.1,142.3 81.7,142.4 81.1,142.7 81,142.8 80.7,143.1 80.5,143.4 80.2,143.8 80.1,144 79.8,144.3 
			79.7,144.4 79.2,144.7 79.1,145 78.7,145.2 78.3,145.4 77.7,145.5 77.4,145.6 77,146 76.8,146.2 76.6,146.3 76.4,146.6 
			76.3,146.8 75.8,147.1 75.8,147.2 75.5,147.6 75.4,147.7 75.2,148.1 75.1,148.3 74.8,148.5 74.6,148.6 74.4,148.9 74.2,149 
			74.1,149.1 73.8,149.7 73.1,150 72.6,150.3 72.4,150.7 71.7,151.3 71,151.6 70.5,151.8 69.8,152.1 69.1,152.5 68.3,153.3 
			67.6,153.8 67,154.1 66.4,154.4 65.9,155 65.7,155.2 65.4,155.4 65,155.6 64.8,156.2 64.4,156.8 64.1,157.1 63.9,157.6 
			63.7,158.2 63.7,158.7 63.5,159.3 63.4,160.1 63.3,160.8 63.1,161.3 62.6,161.6 61.9,161.8 61.3,161.9 61.1,161.4 60.9,160.8 
			60.8,160.1 60.8,159.4 60.8,158.9 60.5,158.2 60.2,157.5 60.2,156.9 60,156.2 59.8,155.7 59.6,155.2 59.1,154.7 58.2,154.7 
			57.9,155.1 57.7,156 57.7,156.5 57.7,157.4 57.4,158 57.3,158.5 57.3,159.2 57,159.9 56.8,160.4 56.5,160.9 56.3,161.5 
			56.1,162.2 56,163 56,163.9 56,164.7 56.4,165.6 56.5,166.3 56.8,167.1 56.9,167.8 56.9,168.4 56.9,169.2 57,169.8 57.1,170.4 
			57.1,170.9 57.1,171.2 56.9,171.5 56.9,172 56.9,172.4 56.7,172.7 56.7,173.2 56.5,173.7 56.4,174.5 56.2,175 56.4,175.3 
			56.1,176 56.1,176.3 56,176.8 56,177.3 55.8,177.7 55.8,178 55.6,178.8 55.6,179.5 55.5,180.2 55.5,180.8 55.5,181.4 55.5,182 
			55.7,182.5 55.7,183.1 56.1,183.8 56.3,184.4 56.7,184.8 57,185.2 57.2,185.6 57.5,186.1 57.8,186.6 58,187.1 58.2,187.5 
			58.3,188.1 58.7,188.6 58.8,189.1 59.1,189.6 59.4,190 59.7,190.4 60.4,190.9 60.9,191.2 61.2,191.7 61.5,192 62.3,192.5 
			63,193.4 63.4,193.9 63.7,194.6 64.1,195.1 64.5,195.7 65.1,196.5 65.3,197 65.8,197.7 66,198.5 66.3,199.1 66.8,199.8 67,200.6 
			67.3,201.4 66.9,202.2 67.1,202.8 67.1,203.6 66.5,204.1 65.8,203.4 65.5,202.7 64.7,201.7 64.2,201.2 63.6,200.5 63.1,199.9 
			62.5,199.1 62,198.6 61.6,197.9 61.3,197.4 61.1,197 60.8,196.6 60.2,196.1 60,195.6 59.4,194.9 59,195 59.3,196.4 59.4,197.2 
			59.9,197.9 60,199.2 60.2,199.8 60.7,200.5 61,201 61,201.7 61.6,202.4 62.2,203 62.6,203.9 62.8,204.7 62.8,205.6 62,205.7 
			61.8,204.6 60.9,203.8 60.6,203.5 60.3,203 59.5,202.4 58.6,202 58.2,201.6 57.3,200.9 56.8,200.3 56.2,199.8 55.5,199 
			55.2,198.4 55,197.9 54.6,197.2 54.2,196.8 53.8,197.2 53.7,198.1 54,198.9 54.4,199.5 54.6,200.1 54.9,201 55.5,201.6 55.9,202 
			56.5,202.5 57.1,203.3 57.3,204.1 57.8,204.7 58.1,205.4 58.5,205.8 59.1,206.4 59.8,207 60.5,207.2 61,207.6 61.5,208.2 
			62.2,208.5 62.8,209.1 63.2,209.7 63.7,210.1 64.1,210.5 64.5,210.9 64.8,211.3 65.3,211.8 65.9,212.2 66.3,212.5 66.5,213.6 
			66.5,214.3 66.7,214.8 66.9,215.2 67.2,215.6 67.5,215.8 67.8,216 68,216.5 68.1,217 68.2,217.6 68.5,218.1 68.5,218.4 68.5,219 
			68.5,219.3 68.5,219.7 68.6,220.2 68.6,220.6 68.6,221 68.9,221.6 68.9,222.3 69.3,223 69.8,223.4 70,223.8 71,224.3 71.4,224.6 
			72,225.2 72.1,225.8 72.3,226.3 72.4,226.9 72.8,227.5 72.9,227.9 73,228.5 73.1,228.9 73.3,229.4 73.5,229.5 73.7,229.9 
			74.2,230.1 74.6,230.6 74.9,230.9 75.2,231.2 75.7,231.6 76,232.4 76.5,232.8 77,233.3 77.4,233.7 77.9,234.1 78.1,234.8 
			78.4,235.5 78.3,236 78.3,236.7 78.5,237.3 78.5,237.7 78.5,238.1 78.5,238.5 78.3,239.2 78.4,239.7 78.5,240.2 78.5,240.9 
			78.8,241.6 79.1,242.4 79.2,242.9 79.9,244.1 80.1,244.8 80.6,245.8 81,246.5 81.3,247.2 82,248 82.1,248.5 82.2,249.1 
			82.6,249.8 82.8,250.2 83.3,250.9 83.7,251.6 84.2,252.4 84.7,253.3 85,254.2 85.4,254.7 85.8,255.2 86.2,255.9 87.1,256.6 
			87.4,257 87.7,257.5 88.4,258.1 88.6,258.8 88.9,259.2 89.3,259.7 89.5,260.1 90.2,260.8 90.3,261.6 90.7,262.5 90.6,263.7 
			90.9,264.4 90.9,265.2 91,265.9 91,266.8 91.1,267.5 91.1,268 90.9,268.4 90.6,269 90.4,269.6 90.4,270.4 90.3,271 90.4,271.8 
			90.4,272.3 90.9,273 91,274 91,274.8 91,275.5 91,276.4 90.9,277.4 90.8,278.2 90.6,279.1 90.2,279.6 89.8,280.1 89.4,280.7 
			88.1,280.7 86.9,280.7 86.1,280.3 85,280 84.9,281.4 85,282.7 85.2,283.8 85.2,285 85.2,285.8 85.1,287.1 85,288.5 86.5,288.9 
			87.8,288.8 89.1,288.5 90.5,288.3 91.4,289 92.5,289.6 93.3,290 94.5,290.8 95,291.2 95.5,291.8 96.6,292.5 97.3,293.1 
			97.9,293.4 99.5,293.8 100.5,293.8 101.8,293.7 102.7,293.7 103.7,293.7 104.9,293.9 105.8,293.4 106.7,293.2 107.6,293.2 
			109.3,293.2 110.1,293.2 111,293.2 111.6,293.4 112.6,293.4 113.9,293.5 114.7,293.5 115.4,293.2 116.3,293.1 117.1,292.5 
			117.8,292 118.6,291.4 119.2,290.9 119.8,290 120.4,289.3 		"/>
	</g>
	<g id="LWPOLYLINE_20_">
		<polyline class="st0" points="206.7,69.2 207.1,71.7 206.2,74.4 205.5,76.9 203.8,78.1 206.6,78.8 209.5,78 209.7,75.8 
			210.1,72.7 211.8,70.6 214.2,70.6 216.6,70.6 220.1,71.5 223.2,71.7 224.6,73.6 226.7,75.8 227.7,75.1 227,73.2 224.9,70.3 		"/>
	</g>
	<g id="LWPOLYLINE_13_">
		<polyline class="st0" points="66.3,212.5 69,213.1 70.3,213.5 71.2,214.3 72,215.1 73.1,216.1 73.7,216.7 74.2,217.1 74.5,217.5 
			74.9,218 75.3,218.4 75.6,219 76,219.4 76.3,219.9 76.7,220.3 77,220.9 77.4,221.5 77.9,222.2 78.3,222.7 78.6,223.2 78.9,223.6 
			79.2,224.1 79.6,224.7 79.9,225.3 80.3,225.9 80.7,226.3 81.1,226.9 81.6,227.3 82.2,228.1 82.6,228.6 83.2,229.2 83.8,229.8 
			84.1,230.3 84.8,231.1 85.4,231.7 86.2,232.7 86.8,233.3 87.4,233.8 87.9,234.5 88.6,235 89.2,235.5 89.8,235.9 90.3,236.3 
			90.7,236.8 91.2,237.2 91.6,237.6 92.2,238.1 93.2,238.7 93.9,239.2 94.6,239.8 95.2,240.2 95.8,240.6 96.4,240.9 97.1,241.4 
			97.6,241.6 98.2,242.1 98.8,242.3 99.5,242.7 100.4,243 101.2,243.5 101.9,243.9 102.6,244.2 103.2,244.6 104.1,244.9 
			104.9,245.2 105.5,245.5 106.4,245.8 107.3,246 108.1,246.1 108.9,246.4 109.7,246.6 110.4,247.1 111.2,247.3 112.1,247.6 
			112.6,248 113.1,248.4 113.8,248.7 114.4,249.2 115.1,249.8 115.9,250.2 116.2,250.8 116.8,251.4 117.4,252 117.9,252.4 
			118.4,252.9 118.7,253.3 119.2,253.7 119.7,254.1 119.9,254.5 120.2,255 120.5,255.4 121,255.6 121.3,256.2 121.6,256.5 
			121.8,257 122.2,257.3 122.5,257.7 122.7,258.1 122.9,258.5 123.1,259 123.3,259.3 123.6,259.8 123.9,260.2 124.2,261 
			124.4,261.4 124.6,261.9 124.8,262.4 124.8,263.2 124.9,263.5 124.9,263.9 124.9,264.3 124.9,264.6 124.9,264.9 124.9,265.3 
			124.9,265.6 125,265.8 125.1,266.3 125.2,266.6 125.2,267 125.2,267.4 125.3,267.8 125.6,268.3 125.9,268.8 126.4,269.4 
			127.2,269.8 127.9,270.1 128.7,270.6 129.7,271.1 130.7,271.4 132,271.5 133.4,271.6 134.4,271.8 135.5,271.9 136.8,271.9 
			138.2,271.8 139.5,271.7 140.7,271.7 141.5,271.5 142.7,271.4 143.6,271.3 144.5,271.2 145.5,271 146.1,271 147.1,270.8 
			147.9,270.6 148.7,270.3 149.5,270.1 150.3,269.9 151,269.7 152,269.5 153.1,269.3 153.9,269 154.7,268.7 155.5,268.4 156.5,268 
			157.5,267.8 158.3,267.5 159.3,267.2 160.5,266.7 161.6,266.3 162.7,265.8 163.9,265.4 164.8,265 166,264.5 167,264.1 
			167.9,263.7 168.9,263.2 169.7,262.9 170.9,262.4 171.8,261.9 172.9,261.5 174,261.1 175,260.6 176.3,260.1 177.7,259.5 
			179.1,259.2 180.7,258.6 182.1,258.1 183.5,257.6 184.6,257.4 185.9,257 187,256.8 188.5,256.6 189.5,256.5 190.4,256.4 
			191.8,256.2 193.4,256.4 194.7,256.6 196.2,256.6 197.9,256.6 199.2,256.8 200.4,257 201.6,257.9 		"/>
	</g>
	<g id="LWPOLYLINE_14_">
		<polyline class="st0" points="270.8,261.5 272.5,263.1 274.3,263.9 275.4,265.4 277.5,266.3 279.8,267.2 280.9,268.6 283.1,269.3 
			284.5,270.3 286.2,271 288.7,271.6 292.3,271.9 294.1,271.4 296.4,270.9 299.2,270.3 		"/>
	</g>
	<g id="LWPOLYLINE_15_">
		<polyline class="st0" points="306.8,269.5 309.5,270.1 311.4,270.3 312.9,270.6 314.9,270.6 316,271.7 318.7,273.2 319.6,274.2 
			320.2,274.8 321.2,276.9 		"/>
	</g>
	<g id="LWPOLYLINE_16_">
		<polyline class="st0" points="324.2,293.5 326.2,295 327.2,296.5 328.7,297.2 330.5,298.5 333.1,299.2 334.6,299.5 335.7,299.8 
			336.8,299.9 337.7,300.3 338.5,300.4 339.4,300.6 340.4,300.6 341.2,300.6 342,300.7 342.6,300.8 343.7,300.9 344.4,300.9 
			345.1,300.9 346,301.1 347.1,301.1 348.3,300.8 349,300.8 350.4,300.9 351.6,300.9 352.9,301 354,301 355.3,300.8 356.6,300.8 
			357.7,300.8 359,300.6 359.8,300.6 361.3,300.5 362.1,300.5 363.1,300.5 364.1,300.5 365.1,300.5 365.8,300.2 367,300 
			367.8,299.8 369.3,299.7 370.7,299.5 371.8,299.3 372.8,299 373.7,298.7 374.8,298.4 375.8,298 377.1,297.6 378.1,297.1 
			379.1,296.6 380.4,295.9 381.2,295.1 382.5,294.4 383.9,293.7 385.2,293 386.5,292.1 387.8,291.7 388.7,291 389.3,290.7 
			389.9,290.4 390.6,290 391.3,289.7 392,289.3 392.5,289 393,288.8 393.7,288.4 394.3,288.2 394.8,287.9 395.4,287.6 396,287.3 
			396.5,287 397.3,286.6 397.9,286.3 398.6,286 399.2,285.8 399.7,285.6 400.5,285.2 401.2,284.9 402.1,284.5 403,284.2 
			403.8,283.9 404.5,283.6 405.4,283.4 406.2,283 406.9,282.8 407.6,282.5 408.2,282.4 408.8,282.2 409.6,281.9 410.2,281.7 
			411.6,281.5 412.6,281.6 413.1,282 413.5,282.5 413.6,283.5 413.6,284.3 413.5,285.3 413,286.2 412.3,287.2 411.5,288.2 
			410.9,289.1 410,289.9 409.4,290.8 408.9,291.7 408.1,292.3 407.5,293.2 407.1,294.1 406.1,294.7 405.2,295.3 404.5,296.2 
			403.9,296.7 402.9,297.6 402.7,298.1 402.2,299.1 401.9,299.3 401.1,301.2 400.3,303 399.3,304.9 398.6,306.6 398.3,308.2 
			398,310.2 396,314 392,319.6 391.4,321.2 393.2,321.6 396,321.4 398,321.3 399.9,320.9 402.5,320.6 404.6,319.9 406.4,318.7 
			407.8,317.3 412.7,312 414.3,309.4 		"/>
	</g>
	<g id="LWPOLYLINE_17_">
		<polyline class="st0" points="417.9,298.1 421.8,290.6 427.7,281.6 437.5,272.3 444.1,264.3 451.5,250.9 460.1,230.2 458.3,212 
			455.5,195.2 452.1,187 438.7,164.6 426.8,148.7 415.8,137.1 408.6,132.7 403.4,123.3 391.3,99.8 389.2,94.4 388.3,87.3 
			382.5,81.2 375,71.9 371.8,69.5 368.7,69.3 365.9,72.1 357.5,92.8 351.8,100.9 348.6,102.1 		"/>
	</g>
	<g id="LWPOLYLINE_18_">
		<polyline class="st0" points="295.1,59.4 288.4,57.2 277.3,53.6 271.8,52 265.9,52 258.3,53.5 253.1,57.2 249.6,59.8 244.4,64.6 
			240.3,68 235.5,69.8 230,70.9 224.9,70.3 		"/>
	</g>
	<g id="LWPOLYLINE_22_">
		<polyline class="st0" points="206.1,69.2 202,69.4 191.9,71.8 185.4,74.4 174.9,81.6 167.3,88.5 160.6,95.7 		"/>
	</g>
	<g id="LWPOLYLINE_21_">
		<polyline class="st0" points="70.3,151.9 78.5,157.6 85.1,164.4 93.1,177.7 98.5,189.2 104,195.2 113.2,202.2 121.5,206.7 
			130.4,210.6 139,213.1 148.5,214.6 156.8,215.6 165.4,219.7 172.5,224.7 179.9,227.8 190.5,229.1 211.5,228.3 228.4,227.8 
			249.3,228.5 264.2,228.3 279.3,228.2 286.3,229.4 291.9,231.3 300,236.6 308.2,241.3 315.8,243.5 324.6,244.8 338.1,245 
			349.1,243.9 359,241.1 367.7,237.7 373.8,235.9 383.9,237.8 396.5,241.2 409.1,242.2 419.6,241.2 425.9,237.4 429.1,231 
			427.1,217.1 425,205.5 422,197.3 417.9,186.4 415.1,167.6 412.8,157.6 411.2,148.7 402.9,136.2 398.5,132.2 393.9,130.3 
			388.8,125.9 382,117.5 375.4,114.3 367.8,112.8 338.3,112.2 326.1,112 320.1,110.1 305.2,99.8 284.1,87.8 274.4,83.2 269.1,82.7 
			260,81.9 256.9,81.5 250.4,78.5 245.1,77.9 236.9,79 221.9,82.1 211.9,81.9 194.7,80.4 190.3,81.5 181.6,91.2 171.9,98.6 
			164.9,100.7 156.8,100.7 150.8,108 147.5,112.9 139.4,115.4 		"/>
	</g>
</g>
<g>
	<g id="MTEXT_1_">
		<g>
			<text transform="matrix(1 0 0 1 126.8919 198.6235)" class="st3 st2">ZONE A</text>
		</g>
	</g>
	<g id="MTEXT_2_">
		<g>
			<text transform="matrix(1 0 0 1 111.2768 241.3496)" class="st3 st2">ZONE B</text>
		</g>
	</g>
	<g id="MTEXT_3_">
		<g>
			<text transform="matrix(1 0 0 1 103.3934 287.0039)" class="st3 st2">ZONE C</text>
		</g>
	</g>
	<g id="MTEXT_4_">
		<g>
			<text transform="matrix(1 0 0 1 329.0013 364.3139)" class="st3 st2">ZONE C</text>
		</g>
	</g>
</g>
</svg>
