<?xml version="1.0" encoding="utf-8"?>
<!-- Generator: Adobe Illustrator 25.2.1, SVG Export Plug-In . SVG Version: 6.00 Build 0)  -->
<svg version="1.1" xmlns="http://www.w3.org/2000/svg" xmlns:xlink="http://www.w3.org/1999/xlink" x="0px" y="0px"
	 viewBox="0 0 552.8 411" style="enable-background:new 0 0 552.8 411;" xml:space="preserve">
<style type="text/css">
	.st0{fill:none;stroke:#231F20;stroke-miterlimit:10;}
	.st1{fill:#231F20;}
	.st2{font-family:'ArialMT';}
	.st3{font-size:12px;}
	.st4{fill:none;stroke:#231F20;stroke-width:0.75;stroke-miterlimit:10;}
</style>
<g id="LINE_35">
</g>
<g id="LINE_18">
</g>
<g id="LINE_50">
	<g>
		<polyline class="st0" points="171.2,372.3 171.2,29.3 316.4,29.3 		"/>
		<polyline class="st0" points="404.9,38.6 515.1,38.6 515.1,372.3 180.5,372.3 180.5,38.6 316.4,38.6 		"/>
		<polyline class="st0" points="28.3,125.5 28.3,381.6 524.4,381.6 524.4,29.3 404.9,29.3 		"/>
		<g id="LINE_32_">
			<g>
				<line class="st0" x1="171.2" y1="134.8" x2="148.7" y2="134.8"/>
			</g>
		</g>
		<polyline class="st0" points="171.2,372.3 37.6,372.3 37.6,134.8 60.1,134.8 		"/>
		<path class="st0" d="M404.9,29.3v9.3v88.6c-48.9,0-88.6-39.7-88.6-88.6v-9.3"/>
		<path class="st0" d="M171.2,125.5h-22.5v9.3v88.6c-48.9,0-88.6-39.7-88.6-88.6v-9.3H28.3"/>
	</g>
</g>
<g id="TXT25">
	<g>
		<g id="MTEXT">
			<g>
				<text transform="matrix(1 0 0 1 366.2316 183.7452)"><tspan x="0" y="0" class="st1 st2 st3">NOT a</tspan><tspan x="-3.3" y="14.4" class="st1 st2 st3">sanitary</tspan><tspan x="-17.3" y="28.8" class="st1 st2 st3">compartment</tspan></text>
			</g>
		</g>
		<g id="MTEXT_1_">
			<g>
				<text transform="matrix(1 0 0 1 82.7125 240.7985)"><tspan x="0" y="0" class="st1 st2 st3">Sanitary</tspan><tspan x="-13" y="14.4" class="st1 st2 st3">compartment</tspan></text>
			</g>
		</g>
	</g>
	<g>
		<g>
			<g>
				<g>
					<g id="SPLINE_90_">
						<path class="st4" d="M117.2,346.5c0.1-1.2,0.4-3.2,0.7-4.4c0.4-1.5,0.9-3,1.6-4.4c0.4-0.8,0.8-1.6,1.3-2.4
							c0.5-1,1.1-2.1,1.5-3.2c1.2-2.8,2.2-5.6,2.8-8.6c0.2-1.1,0.4-2.1,0.6-3.2"/>
					</g>
					<g id="SPLINE_89_">
						<path class="st4" d="M99.6,279.4c-0.5,0.1-1.1,0.2-1.6,0.4c-0.5,0.1-1,0.3-1.5,0.5"/>
					</g>
					<g id="SPLINE_88_">
						<path class="st4" d="M78.7,319.4c0.1,0.3,0.1,0.7,0.2,1c0.2,1.1,0.4,2.1,0.6,3.2c0.7,2.9,1.6,5.8,2.8,8.6
							c0.5,1.1,1,2.1,1.5,3.2c0.4,0.8,0.9,1.6,1.3,2.4c0.6,1.2,1,2.4,1.4,3.6c0.4,1.4,0.7,3.7,0.9,5.2"/>
					</g>
					<g id="SPLINE_87_">
						<path class="st4" d="M124.5,302.6c-2.7-9.1-8.2-17.5-13.3-20.8"/>
					</g>
					<g id="SPLINE_86_">
						<path class="st4" d="M111.2,281.8c-1.2-0.8-2.5-1.4-3.6-1.8"/>
					</g>
					<g id="SPLINE_85_">
						<path class="st4" d="M107.6,280c-2.6-0.9-5.4-1.1-8-0.6"/>
					</g>
					<g id="SPLINE_84_">
						<path class="st4" d="M96.4,280.2c-1.7,0.6-3.3,1.6-4.5,2.7"/>
					</g>
					<g id="SPLINE_83_">
						<path class="st4" d="M91.9,282.9c-5.4,4.3-10.9,14.5-12.6,23.3"/>
					</g>
					<g id="SPLINE_82_">
						<path class="st4" d="M79.3,306.2c-1,4.8-1.1,9.3-0.5,13.2"/>
					</g>
					<g id="SPLINE_81_">
						<path class="st4" d="M125.7,320.4c0.5-2.8,1-11.4-1.3-17.8"/>
					</g>
				</g>
				<rect x="75.5" y="346.5" class="st4" width="53.6" height="25.3"/>
				<path class="st4" d="M102.3,282.9c14,0,20.2,21.8,20.2,33s-9.1,22.1-20.2,22.1S82,327.1,82,315.9S88.2,282.9,102.3,282.9z"/>
			</g>
		</g>
		<g>
			<g>
				<g id="ELLIPSE_9_">
					<path class="st4" d="M265.1,291.5c1.9,0,3.4-1.5,3.4-3.4c0-1.9-1.5-3.4-3.4-3.4c-1.9,0-3.4,1.5-3.4,3.4
						C261.7,290,263.2,291.5,265.1,291.5L265.1,291.5z"/>
				</g>
				<rect x="180.5" y="264.4" class="st4" width="108.3" height="108.3"/>
				<path class="st4" d="M187.1,356.5v-75.9c0-5.3,4.3-9.5,9.5-9.5h75.9c5.3,0,9.5,4.3,9.5,9.5v75.9c0,5.3-4.3,9.5-9.5,9.5h-75.9
					C191.4,366.1,187.1,361.8,187.1,356.5z"/>
			</g>
		</g>
		<g>
			<g>
				<g id="CIRCLE_27_">
					<path class="st4" d="M496.9,189.8c1.3,0,2.4,1.1,2.4,2.4c0,1.3-1.1,2.4-2.4,2.4c-1.3,0-2.4-1.1-2.4-2.4
						C494.4,190.9,495.5,189.8,496.9,189.8L496.9,189.8z"/>
				</g>
				<g>
					<g id="CIRCLE_26_">
						<path class="st4" d="M507.5,180.1c0.9,0,1.6,0.7,1.6,1.6c0,0.9-0.7,1.6-1.6,1.6s-1.6-0.7-1.6-1.6
							C505.9,180.8,506.6,180.1,507.5,180.1L507.5,180.1z"/>
					</g>
					<g id="CIRCLE_25_">
						<path class="st4" d="M507.5,201.2c0.9,0,1.6,0.7,1.6,1.6c0,0.9-0.7,1.6-1.6,1.6s-1.6-0.7-1.6-1.6
							C505.9,201.9,506.6,201.2,507.5,201.2L507.5,201.2z"/>
					</g>
				</g>
				<ellipse class="st4" cx="484" cy="192.2" rx="17.7" ry="28.3"/>
				<path class="st4" d="M482,160c-18.2,0-19.6,21.4-19.6,32.2c0,10.8,1.9,32.2,19.6,32.2h32.8V160H482z"/>
			</g>
		</g>
		<g>
			<g>
				<path class="st4" d="M221,60.8c1.6,0,2.9-1.3,2.9-2.9c0-1.6-1.3-2.9-2.9-2.9s-2.9,1.3-2.9,2.9C218.1,59.5,219.4,60.8,221,60.8
					L221,60.8z"/>
				<rect x="180.5" y="38.5" class="st4" width="80.9" height="182"/>
				<path class="st4" d="M187,182.2V59.9c0-8.4,6.8-15.3,15.3-15.3h37.5c8.4,0,15.3,6.8,15.3,15.3v122.3c0,18.8-15.2,34-34,34l0,0
					C202.2,216.2,187,200.9,187,182.2z"/>
			</g>
		</g>
	</g>
</g>
</svg>
