<?xml version="1.0" encoding="utf-8"?>
<!-- Generator: Adobe Illustrator 25.2.1, SVG Export Plug-In . SVG Version: 6.00 Build 0)  -->
<svg version="1.1" id="Layer_1" xmlns="http://www.w3.org/2000/svg" xmlns:xlink="http://www.w3.org/1999/xlink" x="0px" y="0px"
	 viewBox="0 0 552.8 201.7" style="enable-background:new 0 0 552.8 201.7;" xml:space="preserve">
<style type="text/css">
	.st0{fill:none;stroke:#000000;stroke-miterlimit:10;}
	.st1{fill:none;stroke:#000000;stroke-width:0.25;stroke-miterlimit:10;}
	.st2{font-family:'ArialMT';}
	.st3{font-size:12px;}
	.st4{font-family:'Arial-BoldMT';}
</style>
<g>
	<line class="st0" x1="38.3" y1="137.7" x2="99.1" y2="137.7"/>
	<line class="st0" x1="38.3" y1="119.8" x2="99.1" y2="119.8"/>
	<line class="st0" x1="38.3" y1="101.9" x2="99.1" y2="101.9"/>
	<line class="st0" x1="38.3" y1="155.6" x2="99.1" y2="155.6"/>
	<line class="st0" x1="116.5" y1="28.6" x2="116.5" y2="84"/>
	<line class="st0" x1="133.9" y1="28.6" x2="133.9" y2="84"/>
	<line class="st0" x1="193.2" y1="28.6" x2="193.2" y2="84"/>
	<line class="st0" x1="210.9" y1="28.6" x2="210.9" y2="84"/>
	<line class="st0" x1="228.5" y1="28.6" x2="228.5" y2="84"/>
	<rect x="38.3" y="28.3" class="st0" width="60.7" height="55.7"/>
	<rect x="38.3" y="84" class="st0" width="60.7" height="89.6"/>
	
		<rect x="99.1" y="28.3" transform="matrix(-1 -1.224647e-16 1.224647e-16 -1 345.0795 112.3464)" class="st0" width="146.9" height="55.7"/>
</g>
<g>
	<g>
		<line class="st1" x1="140.5" y1="44.3" x2="186.5" y2="44.3"/>
		<g>
			<polygon points="142,46.5 133.8,44.3 142,42.2 			"/>
		</g>
		<g>
			<polygon points="185,46.5 193.1,44.3 185,42.2 			"/>
		</g>
	</g>
</g>
<g>
	<g>
		<path class="st1" d="M60.8,76.4c2.7-15.3,14.8-27.3,30-30"/>
		<g>
			<polygon points="63.2,75.2 60.2,83 58.8,74.7 			"/>
		</g>
		<g>
			<polygon points="89.6,48.8 97.4,45.8 89.1,44.4 			"/>
		</g>
	</g>
</g>
<g>
	<g>
		<path class="st1" d="M379.9,108.1c0.7-11.8,3.2-21.6,6.7-26.8"/>
		<g>
			<polygon points="382.1,106.7 379.7,114.7 377.8,106.5 			"/>
		</g>
		<g>
			<polygon points="386.9,84.1 392,77.5 384.2,80.7 			"/>
		</g>
	</g>
</g>
<g>
	<g>
		<polyline class="st1" points="133.8,100.8 113.8,100.8 78,60.2 		"/>
		<g>
			<polygon points="80.7,59.8 73.7,55.2 77.4,62.7 			"/>
		</g>
	</g>
</g>
<text transform="matrix(1 0 0 1 137.1405 103.7118)" class="st2 st3">500 mm</text>
<text transform="matrix(1 0 0 1 455.6055 109.9166)" class="st2 st3">500 mm</text>
<text transform="matrix(1 0 0 1 137.1409 137.7341)" class="st2 st3">L = not less than 750 mm</text>
<text transform="matrix(1 0 0 1 137.1406 173.5562)" class="st4 st3">Example A</text>
<text transform="matrix(1 0 0 1 356.3668 173.5556)" class="st4 st3">Example B</text>
<text transform="matrix(1 0 0 1 160.3709 41.7115)" class="st2 st3">L</text>
<text transform="matrix(1 0 0 1 62.0005 54.5063)" class="st2 st3">L</text>
<text transform="matrix(1 0 0 1 371.3382 93.4613)" class="st2 st3">L</text>
<g>
	<g>
		<line class="st0" x1="356.4" y1="132.6" x2="417.1" y2="132.6"/>
		<rect x="356.4" y="114.7" class="st0" width="60.7" height="35.8"/>
	</g>
	<g>
		<line class="st0" x1="389.3" y1="43.6" x2="432.2" y2="86.5"/>
		
			<rect x="380.4" y="43.8" transform="matrix(0.7071 0.7071 -0.7071 0.7071 166.3199 -271.3917)" class="st0" width="60.7" height="42.5"/>
	</g>
	<line class="st0" x1="417.1" y1="101.6" x2="417.1" y2="114.7"/>
	<polyline class="st0" points="356.4,114.7 356.4,76.2 374.3,58.6 	"/>
</g>
<g>
	<g>
		<polyline class="st1" points="388.3,95.2 428.3,105.8 452.3,105.8 		"/>
		<g>
			<polygon points="389.2,97.7 381.9,93.5 390.3,93.4 			"/>
		</g>
	</g>
</g>
</svg>
