<?xml version="1.0" encoding="utf-8"?>
<!-- Generator: Adobe Illustrator 26.5.0, SVG Export Plug-In . SVG Version: 6.00 Build 0)  -->
<svg version="1.1" id="Layer_1" xmlns="http://www.w3.org/2000/svg" xmlns:xlink="http://www.w3.org/1999/xlink" x="0px" y="0px"
	 viewBox="0 0 552.82 426.41" style="enable-background:new 0 0 552.82 426.41;" xml:space="preserve">
<style type="text/css">
	.st0{font-family:'ArialMT';}
	.st1{font-size:12px;}
	.st2{font-size:18px;}
	.st3{fill:none;stroke:#000000;stroke-width:0.25;stroke-miterlimit:10;}
	.st4{fill:none;stroke:#000000;stroke-miterlimit:10;}
	.st5{fill:none;stroke:#000000;stroke-width:0.5;stroke-miterlimit:10;}
</style>
<text transform="matrix(1 0 0 1 316.4617 140.759)"><tspan x="0" y="0" class="st0 st1">Re-entrant or internal </tspan><tspan x="0" y="14" class="st0 st1">corner reinforcing </tspan><tspan x="0" y="33.5" class="st0 st1"> </tspan><tspan x="3.33" y="33.5" class="st0 st2"> </tspan></text>
<g>
	<g>
		<line class="st3" x1="266.82" y1="208.97" x2="311.76" y2="155.37"/>
		<g>
			<polygon points="270.32,209.32 261.13,215.76 265.87,205.59 			"/>
		</g>
	</g>
</g>
<line class="st4" x1="292.69" y1="253.87" x2="223.72" y2="184.9"/>
<text transform="matrix(0.7071 0.7071 -0.7071 0.7071 225.2398 238.2677)" class="st0 st1">2m</text>
<g>
	<text transform="matrix(1 0 0 1 313.3446 239.7404)" class="st0 st1">45°</text>
	<g>
		<polyline class="st5" points="322.95,222.49 285.62,222.49 311.97,247.97 		"/>
		<path class="st5" d="M308.08,222.49c0,0,5.83,11.87-6.14,15.78"/>
	</g>
</g>
<polygon class="st4" points="406.01,215.76 406.01,360.65 116.24,360.65 116.24,70.88 261.13,70.88 261.13,215.76 "/>
<g>
	<g>
		<g>
			<line class="st3" x1="270.24" y1="263.52" x2="213.8" y2="207.07"/>
			<g>
				<polygon points="270.9,260.06 276.51,269.78 266.79,264.17 				"/>
			</g>
			<g>
				<polygon points="217.25,206.42 207.53,200.8 213.14,210.52 				"/>
			</g>
		</g>
	</g>
	<line class="st3" x1="210.61" y1="197.71" x2="204.45" y2="203.9"/>
	<line class="st3" x1="279.59" y1="266.69" x2="273.43" y2="272.87"/>
</g>
</svg>
