<?xml version="1.0" encoding="utf-8"?>
<!-- Generator: Adobe Illustrator 25.2.1, SVG Export Plug-In . SVG Version: 6.00 Build 0)  -->
<svg version="1.1" id="_x30_" xmlns="http://www.w3.org/2000/svg" xmlns:xlink="http://www.w3.org/1999/xlink" x="0px" y="0px"
	 viewBox="0 0 552.8 625.9" style="enable-background:new 0 0 552.8 625.9;" xml:space="preserve">
<style type="text/css">
	.st0{fill:none;stroke:#000000;stroke-width:0.5;stroke-linecap:round;stroke-linejoin:round;stroke-miterlimit:10;}
	.st1{fill:none;stroke:#231F20;stroke-width:0.75;stroke-miterlimit:10;stroke-dasharray:12,12;}
	.st2{fill:none;stroke:#231F20;stroke-width:0.75;stroke-miterlimit:10;stroke-dasharray:11.8205,11.8205;}
	.st3{fill:#231F20;}
	.st4{font-family:'ArialMT';}
	.st5{font-size:12px;}
	.st6{fill:none;stroke:#231F20;stroke-miterlimit:10;}
	.st7{font-family:'Arial-BoldMT';}
</style>
<g>
	<g id="LINE">
		<line class="st0" x1="125.2" y1="35.9" x2="125.2" y2="549.2"/>
	</g>
	<g id="LINE_1_">
		<line class="st0" x1="196.8" y1="35.9" x2="196.8" y2="553.9"/>
	</g>
	<g id="LINE_2_">
		<line class="st0" x1="268.4" y1="35.9" x2="268.4" y2="553.9"/>
	</g>
	<g id="LINE_3_">
		<line class="st0" x1="340.1" y1="35.9" x2="340.1" y2="553.9"/>
	</g>
	<g id="LINE_4_">
		<line class="st0" x1="411.7" y1="35.9" x2="411.7" y2="553.9"/>
	</g>
	<g id="LINE_5_">
		<line class="st0" x1="483.3" y1="35.9" x2="483.3" y2="553.9"/>
	</g>
	<g id="LINE_6_">
		<line class="st0" x1="125.2" y1="549.2" x2="489.3" y2="549.2"/>
	</g>
	<g id="LINE_7_">
		<line class="st0" x1="96.8" y1="476.7" x2="489.3" y2="476.7"/>
	</g>
	<g id="LINE_8_">
		<line class="st0" x1="96.8" y1="404.3" x2="489.3" y2="404.3"/>
	</g>
	<g id="LINE_9_">
		<line class="st0" x1="96.8" y1="331.8" x2="489.3" y2="331.8"/>
	</g>
	<g id="LINE_10_">
		<line class="st0" x1="96.8" y1="259.3" x2="489.3" y2="259.3"/>
	</g>
	<g id="LINE_11_">
		<line class="st0" x1="96.8" y1="186.9" x2="489.3" y2="186.9"/>
	</g>
	<g id="LINE_12_">
		<line class="st0" x1="96.8" y1="114.4" x2="489.3" y2="114.4"/>
	</g>
	<g id="LINE_13_">
		<line class="st0" x1="96.8" y1="41.9" x2="489.3" y2="41.9"/>
	</g>
</g>
<g>
	<g id="LINE_16_">
		<g>
			<line class="st1" x1="125.2" y1="465.4" x2="268.4" y2="465.4"/>
		</g>
	</g>
	<g id="LINE_17_">
		<g>
			<line class="st1" x1="125.2" y1="416.6" x2="268.4" y2="416.6"/>
		</g>
	</g>
	<g id="LINE_18_">
		<g>
			<line class="st1" x1="125.2" y1="399.9" x2="340.1" y2="399.9"/>
		</g>
	</g>
	<g id="LINE_19_">
		<g>
			<line class="st1" x1="125.2" y1="322.4" x2="411.7" y2="322.4"/>
		</g>
	</g>
	<g id="LINE_20_">
		<g>
			<line class="st1" x1="125.2" y1="313.7" x2="340.1" y2="313.7"/>
		</g>
	</g>
	<g id="LINE_21_">
		<g>
			<line class="st1" x1="125.2" y1="233.2" x2="483.3" y2="233.2"/>
		</g>
	</g>
	<g id="LINE_22_">
		<g>
			<line class="st2" x1="125.2" y1="55" x2="483.3" y2="55"/>
		</g>
	</g>
	<g id="LINE_23_">
		<g>
			<line class="st1" x1="125.2" y1="191.9" x2="411.7" y2="191.9"/>
		</g>
	</g>
</g>
<g>
	<g id="MTEXT_2_">
		<g>
			<text transform="matrix(1 0 0 1 189.1878 569.1351)" class="st3 st4 st5">10</text>
		</g>
	</g>
	<g id="MTEXT_3_">
		<g>
			<text transform="matrix(1 0 0 1 262.4857 569.1351)" class="st3 st4 st5">20</text>
		</g>
	</g>
	<g id="MTEXT_4_">
		<g>
			<text transform="matrix(1 0 0 1 334.2864 569.1351)" class="st3 st4 st5">30</text>
		</g>
	</g>
	<g id="MTEXT_5_">
		<g>
			<text transform="matrix(1 0 0 1 406.2357 569.1351)" class="st3 st4 st5">40</text>
		</g>
	</g>
	<g id="MTEXT_6_">
		<g>
			<text transform="matrix(1 0 0 1 476.7093 569.1351)" class="st3 st4 st5">50</text>
		</g>
	</g>
	<g id="MTEXT_7_">
		<g>
			<text transform="matrix(1 0 0 1 72.222 480.7796)" class="st3 st4 st5">100</text>
		</g>
	</g>
	<g id="MTEXT_8_">
		<g>
			<text transform="matrix(1 0 0 1 105.4212 521.0921)" class="st3 st4 st5">43</text>
		</g>
	</g>
	<g id="MTEXT_9_">
		<g>
			<text transform="matrix(1 0 0 1 105.5052 498.9984)" class="st3 st4 st5">74</text>
		</g>
	</g>
	<g id="MTEXT_10_">
		<g>
			<text transform="matrix(1 0 0 1 100.3577 469.5237)" class="st3 st4 st5">114</text>
		</g>
	</g>
	<g id="MTEXT_11_">
		<g>
			<text transform="matrix(1 0 0 1 98.8275 421.4583)" class="st3 st4 st5">183</text>
		</g>
	</g>
	<g id="MTEXT_12_">
		<g>
			<text transform="matrix(1 0 0 1 99.3284 401.845)" class="st3 st4 st5">206</text>
		</g>
	</g>
	<g id="MTEXT_13_">
		<g>
			<text transform="matrix(1 0 0 1 98.556 327.2239)" class="st3 st4 st5">313</text>
		</g>
	</g>
	<g id="MTEXT_14_">
		<g>
			<text transform="matrix(1 0 0 1 98.4222 314.3397)" class="st3 st4 st5">325</text>
		</g>
	</g>
	<g id="MTEXT_15_">
		<g>
			<text transform="matrix(1 0 0 1 99.1058 237.8553)" class="st3 st4 st5">436</text>
		</g>
	</g>
	<g id="MTEXT_16_">
		<g>
			<text transform="matrix(1 0 0 1 99.1058 197.6053)" class="st3 st4 st5">493</text>
		</g>
	</g>
	<g id="MTEXT_17_">
		<g>
			<text transform="matrix(1 0 0 1 98.7904 58.4344)" class="st3 st4 st5">682</text>
		</g>
	</g>
	<g id="MTEXT_18_">
		<g>
			<text transform="matrix(1 0 0 1 73.5081 408.306)" class="st3 st4 st5">200</text>
		</g>
	</g>
	<g id="MTEXT_19_">
		<g>
			<text transform="matrix(1 0 0 1 73.2991 335.8362)" class="st3 st4 st5">300</text>
		</g>
	</g>
	<g id="MTEXT_20_">
		<g>
			<text transform="matrix(1 0 0 1 73.7738 263.3651)" class="st3 st4 st5">400</text>
		</g>
	</g>
	<g id="MTEXT_21_">
		<g>
			<text transform="matrix(1 0 0 1 73.3109 190.8944)" class="st3 st4 st5">500</text>
		</g>
	</g>
	<g id="MTEXT_22_">
		<g>
			<text transform="matrix(1 0 0 1 73.3802 118.4237)" class="st3 st4 st5">600</text>
		</g>
	</g>
	<g id="MTEXT_23_">
		<g>
			<text transform="matrix(1 0 0 1 73.2181 45.952)" class="st3 st4 st5">700</text>
		</g>
	</g>
</g>
<g>
	<g id="POLYLINE">
		<g>
			<polyline class="st6" points="483.3,55 411.7,191.9 340.1,313.7 268.4,416.6 196.8,495.6 125.2,495.6 			"/>
		</g>
	</g>
	<g id="POLYLINE_1_">
		<g>
			<polyline class="st6" points="483.3,233.2 411.7,322.4 340.1,399.9 268.4,465.4 196.8,518.1 125.2,518.1 			"/>
		</g>
	</g>
</g>
<g id="MTEXT">
	<text transform="matrix(0 -1 1 0 54.2235 360.3608)" class="st3 st7 st5">Smoke exhaust  (m³/s)</text>
</g>
<g id="MTEXT_1_">
	<text transform="matrix(1 0 0 1 168.4802 589.8024)" class="st3 st7 st5">Height of smoke plume from atrium floor (metres)</text>
</g>
<g id="MTEXT_24_">
	<g>
		<text transform="matrix(1 0 0 1 434.3646 309.9266)" class="st3 st7 st5">1.5 MW</text>
	</g>
</g>
<g id="MTEXT_25_">
	<g>
		<text transform="matrix(1 0 0 1 438.9515 160.4139)" class="st3 st7 st5">5 MW</text>
	</g>
</g>
</svg>
