<?xml version="1.0" encoding="utf-8"?>
<!-- Generator: Adobe Illustrator 25.2.1, SVG Export Plug-In . SVG Version: 6.00 Build 0)  -->
<svg version="1.1" xmlns="http://www.w3.org/2000/svg" xmlns:xlink="http://www.w3.org/1999/xlink" x="0px" y="0px"
	 viewBox="0 0 552.8 289.8" style="enable-background:new 0 0 552.8 289.8;" xml:space="preserve">
<style type="text/css">
	.st0{fill-rule:evenodd;clip-rule:evenodd;fill:none;}
	.st1{clip-path:url(#SVGID_2_);fill:none;stroke:#221F1F;stroke-width:0.5;stroke-linejoin:round;}
	.st2{fill-rule:evenodd;clip-rule:evenodd;fill:#BCBEC0;}
	.st3{fill:none;stroke:#231F20;stroke-miterlimit:10;}
	.st4{fill:none;stroke:#231F20;stroke-linecap:round;stroke-linejoin:round;stroke-miterlimit:10;}
	.st5{fill:none;stroke:#231F20;stroke-linejoin:round;stroke-miterlimit:10;}
	.st6{fill:#231F20;}
	.st7{font-family:'Arial-BoldMT';}
	.st8{font-size:12px;}
	.st9{font-family:'ArialMT';}
	.st10{fill:none;}
	.st11{fill-rule:evenodd;clip-rule:evenodd;fill:url(#SVGID_3_);}
	.st12{fill-rule:evenodd;clip-rule:evenodd;fill:url(#SVGID_4_);}
	.st13{fill:none;stroke:#231F20;stroke-width:0.25;stroke-miterlimit:10;}
</style>
<pattern  x="-1140.9" y="1842.4" width="72" height="72" patternUnits="userSpaceOnUse" id="diagonal_cross_hatch" viewBox="6.2 -86.2 72 72" style="overflow:visible;">
	<g>
		<rect x="6.2" y="-86.2" class="st0" width="72" height="72"/>
		<g>
			<defs>
				<rect id="SVGID_1_" x="6.2" y="-86.2" width="72" height="72"/>
			</defs>
			<clipPath id="SVGID_2_">
				<use xlink:href="#SVGID_1_"  style="overflow:visible;"/>
			</clipPath>
			<line class="st1" x1="0.2" y1="-74.2" x2="18.2" y2="-92.2"/>
			<line class="st1" x1="0.2" y1="-68.2" x2="24.2" y2="-92.2"/>
			<line class="st1" x1="0.2" y1="-62.2" x2="30.2" y2="-92.2"/>
			<line class="st1" x1="0.2" y1="-56.2" x2="36.2" y2="-92.2"/>
			<line class="st1" x1="0.2" y1="-50.2" x2="42.2" y2="-92.2"/>
			<line class="st1" x1="0.2" y1="-44.2" x2="48.2" y2="-92.2"/>
			<line class="st1" x1="0.2" y1="-38.2" x2="54.2" y2="-92.2"/>
			<line class="st1" x1="0.2" y1="-32.2" x2="60.2" y2="-92.2"/>
			<line class="st1" x1="0.2" y1="-26.2" x2="66.2" y2="-92.2"/>
			<line class="st1" x1="0.2" y1="-20.2" x2="72.2" y2="-92.2"/>
			<line class="st1" x1="0.2" y1="-14.2" x2="78.2" y2="-92.2"/>
			<line class="st1" x1="0.2" y1="-8.2" x2="84.2" y2="-92.2"/>
			<line class="st1" x1="6.2" y1="-8.2" x2="84.2" y2="-86.2"/>
			<line class="st1" x1="12.2" y1="-8.2" x2="84.2" y2="-80.2"/>
			<line class="st1" x1="18.2" y1="-8.2" x2="84.2" y2="-74.2"/>
			<line class="st1" x1="24.2" y1="-8.2" x2="84.2" y2="-68.2"/>
			<line class="st1" x1="30.2" y1="-8.2" x2="84.2" y2="-62.2"/>
			<line class="st1" x1="36.2" y1="-8.2" x2="84.2" y2="-56.2"/>
			<line class="st1" x1="42.2" y1="-8.2" x2="84.2" y2="-50.2"/>
			<line class="st1" x1="48.2" y1="-8.2" x2="84.2" y2="-44.2"/>
			<line class="st1" x1="54.2" y1="-8.2" x2="84.2" y2="-38.2"/>
			<line class="st1" x1="52.2" y1="-0.2" x2="94.2" y2="-42.2"/>
			<line class="st1" x1="58.2" y1="-0.2" x2="94.2" y2="-36.2"/>
			<line class="st1" x1="64.2" y1="-0.2" x2="94.2" y2="-30.2"/>
		</g>
	</g>
</pattern>
<g id="HATCH_x5F_SHADED_x5F_253">
	<g id="HATCH">
		<polygon class="st2" points="148.4,112.9 141.7,112.9 141.7,172.4 141.7,175.8 148.4,175.8 		"/>
	</g>
	<g>
		<g id="POLYLINE_2_">
			<g>
				<rect x="254.2" y="112.6" class="st3" width="6.8" height="129.6"/>
			</g>
		</g>
		<g id="LINE_40_">
			<g>
				<line class="st4" x1="341.5" y1="83.9" x2="422" y2="112.6"/>
			</g>
		</g>
		<g id="LINE_39_">
			<g>
				<polyline class="st4" points="260.9,112.6 340.6,84.2 341.5,83.9 342.8,84.4 				"/>
			</g>
		</g>
		<g id="LINE_38_">
			<g>
				<line class="st4" x1="201.3" y1="83.9" x2="254.2" y2="112.6"/>
			</g>
		</g>
		<g id="LINE_37_">
			<g>
				<polyline class="st4" points="202.2,84.4 201.3,83.9 148.4,112.6 				"/>
			</g>
		</g>
		<g id="LINE_36_">
			<g>
				<line class="st3" x1="260.9" y1="171" x2="422" y2="171"/>
			</g>
		</g>
		<g id="LINE_35_">
			<g>
				<line class="st3" x1="141.7" y1="175.5" x2="94.9" y2="154.5"/>
			</g>
		</g>
		<g id="LINE_34_">
			<g>
				<polyline class="st4" points="95.8,154.9 94.9,154.5 48.1,175.5 				"/>
			</g>
		</g>
		<g id="LINE_33_">
			<g>
				<line class="st4" x1="48.1" y1="175.5" x2="141.7" y2="175.5"/>
			</g>
		</g>
		<g id="LINE_32_">
			<g>
				<line class="st4" x1="48.1" y1="175.5" x2="48.1" y2="242.2"/>
			</g>
		</g>
		<g id="LINE_28_">
			<g>
				<line class="st3" x1="254.2" y1="112.6" x2="148.4" y2="112.6"/>
			</g>
		</g>
		<g id="LINE_27_">
			<g>
				<line class="st3" x1="148.4" y1="112.6" x2="148.4" y2="242.2"/>
			</g>
		</g>
		<g id="LINE_26_">
			<g>
				<line class="st5" x1="422" y1="112.6" x2="260.9" y2="112.6"/>
			</g>
		</g>
		<g id="LINE_25_">
			<g>
				<polyline class="st5" points="422,114 422,112.6 422,242.2 				"/>
			</g>
		</g>
		<g id="LINE_24_">
			<g>
				<polyline class="st3" points="141.7,112.6 141.7,172.1 141.7,242.2 				"/>
			</g>
		</g>
		<g id="LINE_23_">
			<g>
				<line class="st3" x1="148.4" y1="112.6" x2="141.1" y2="112.6"/>
			</g>
		</g>
		<g id="LINE_22_">
			<g>
				<line class="st3" x1="141.7" y1="175.5" x2="148.4" y2="175.5"/>
			</g>
		</g>
		<g id="LINE_2_">
			<g>
				<line class="st3" x1="29" y1="242.2" x2="441.9" y2="242.2"/>
			</g>
		</g>
	</g>
</g>
<g id="TEXT_25">
	<g id="MTEXT_8_">
		<g>
			<text transform="matrix(1 0 0 1 201.0467 260.6646)" class="st6 st7 st8">Elevation</text>
		</g>
	</g>
	<g id="MTEXT_13_">
		<g>
			<text transform="matrix(1 0 0 1 74.8631 209.6231)" class="st6 st9 st8">Class 1</text>
		</g>
	</g>
	<g id="TEXT_3_">
		<g>
			<text transform="matrix(1 0 0 1 294.5268 209.5401)" class="st6 st9 st8">Class 2 dwelling</text>
		</g>
	</g>
	<g id="TEXT_2_">
		<g>
			<text transform="matrix(1 0 0 1 294.9516 145.3272)" class="st6 st9 st8">Class 2 dwelling</text>
		</g>
	</g>
	<g id="MTEXT_12_">
		<g>
			<rect x="27.1" y="96.6" class="st10" width="90.4" height="44.8"/>
			<text transform="matrix(1 0 0 1 35.4156 106.8522)"><tspan x="0" y="0" class="st6 st9 st8">Separating wall </tspan><tspan x="-6.7" y="14.4" class="st6 st9 st8">between Class 1 </tspan><tspan x="34.7" y="28.8" class="st6 st9 st8">buildings </tspan></text>
		</g>
	</g>
	<g id="MTEXT_11_">
		<g>
			<text transform="matrix(1 0 0 1 37.7685 65.7325)" class="st6 st9 st8">External wall</text>
		</g>
	</g>
	<g id="MTEXT_10_">
		<g>
			<text transform="matrix(1 0 0 1 181.7883 163.0217)"><tspan x="0" y="0" class="st6 st9 st8">Class 1</tspan><tspan x="-20.7" y="14.4" class="st6 st9 st8">single dwelling  </tspan><tspan x="-15" y="28.8" class="st6 st9 st8">(may be one  </tspan><tspan x="-2.3" y="43.2" class="st6 st9 st8">or more  </tspan><tspan x="-1.3" y="57.6" class="st6 st9 st8">storeys)</tspan></text>
		</g>
	</g>
	<rect x="276.3" y="34.5" class="st10" width="179.4" height="27.2"/>
	<text transform="matrix(1 0 0 1 276.3287 44.8376)"><tspan x="0" y="0" class="st6 st9 st8">Common wall between Class 1 </tspan><tspan x="0" y="14.4" class="st6 st9 st8">and Class 2 buildings </tspan></text>
	<g id="MTEXT_7_">
		<g>
			<rect x="436.1" y="121.1" class="st10" width="88.4" height="97.7"/>
			<text transform="matrix(1 0 0 1 436.0533 131.4364)"><tspan x="0" y="0" class="st6 st9 st8">Class 2 building </tspan><tspan x="0" y="14.4" class="st6 st9 st8">containing two </tspan><tspan x="0" y="28.8" class="st6 st9 st8">or more </tspan><tspan x="0" y="43.2" class="st6 st9 st8">separate </tspan><tspan x="0" y="57.6" class="st6 st9 st8">dwellings </tspan><tspan x="0" y="72" class="st6 st9 st8">located one </tspan><tspan x="0" y="86.4" class="st6 st9 st8">above the other </tspan></text>
		</g>
	</g>
</g>
<g id="HATCH_2_">
	<g>
		<g id="HATCH_3_">
			<pattern  id="SVGID_3_" xlink:href="#diagonal_cross_hatch" patternTransform="matrix(1 0 0 1 277.8919 -94.8504)">
			</pattern>
			<rect x="254.2" y="112.4" class="st11" width="6.8" height="129.6"/>
		</g>
		<g id="HATCH_1_">
			<pattern  id="SVGID_4_" xlink:href="#diagonal_cross_hatch" patternTransform="matrix(1 0 0 1 277.8919 -94.8504)">
			</pattern>
			<rect x="141.7" y="175.5" class="st12" width="6.8" height="66.5"/>
		</g>
	</g>
</g>
<g id="LINE_x5F_35">
</g>
<g id="LINE_x5F_50">
</g>
<g id="LINE_18">
	<g>
		<g id="LEADER_6_">
			<g id="LEADER_7_">
				<g>
					<g>
						<g>
							<polyline class="st13" points="123.6,132.3 130.5,132.3 130.5,187.2 137.6,196.6 							"/>
							<g>
								<polygon class="st6" points="135,196.7 141.7,201.9 138.5,194.1 								"/>
							</g>
						</g>
					</g>
				</g>
			</g>
		</g>
		<g id="LEADER_5_">
			<g id="LEADER_3_">
				<g>
					<g>
						<g>
							<line class="st13" x1="416.2" y1="127.6" x2="431.6" y2="127.6"/>
							<g>
								<polygon class="st6" points="417.7,129.8 409.6,127.6 417.7,125.5 								"/>
							</g>
						</g>
					</g>
				</g>
			</g>
		</g>
		<g id="LEADER_4_">
			<g id="LEADER_2_">
				<g>
					<g>
						<g>
							<polyline class="st13" points="257.8,108.8 263,40.5 271.6,40.5 							"/>
							<g>
								<polygon class="st6" points="260.1,107.5 257.3,115.4 255.8,107.2 								"/>
							</g>
						</g>
					</g>
				</g>
			</g>
		</g>
		<g>
			<g>
				<polyline class="st13" points="154.8,130.4 180.7,122.6 147.5,61.8 109.1,61.8 				"/>
				<g>
					<polygon class="st6" points="156.8,132 148.4,132.3 155.6,127.9 					"/>
				</g>
			</g>
		</g>
	</g>
</g>
</svg>
