<?xml version="1.0" encoding="utf-8"?>
<!-- Generator: Adobe Illustrator 25.2.1, SVG Export Plug-In . SVG Version: 6.00 Build 0)  -->
<svg version="1.1" id="Layer_2" xmlns="http://www.w3.org/2000/svg" xmlns:xlink="http://www.w3.org/1999/xlink" x="0px" y="0px"
	 viewBox="0 0 552.8 204.5" style="enable-background:new 0 0 552.8 204.5;" xml:space="preserve">
<style type="text/css">
	.st0{fill:none;}
	.st1{fill:none;stroke:#000000;stroke-width:0.5;stroke-miterlimit:10;}
	.st2{fill:#231F20;stroke:#231F20;stroke-width:0.5;stroke-miterlimit:10;}
	.st3{fill-rule:evenodd;clip-rule:evenodd;fill:url(#SVGID_1_);}
	.st4{fill-rule:evenodd;clip-rule:evenodd;fill:url(#SVGID_2_);}
	.st5{fill-rule:evenodd;clip-rule:evenodd;fill:url(#SVGID_3_);}
	.st6{fill-rule:evenodd;clip-rule:evenodd;fill:url(#SVGID_4_);}
	.st7{fill-rule:evenodd;clip-rule:evenodd;fill:url(#SVGID_5_);}
	.st8{fill:#231F20;}
	.st9{font-family:'ArialMT';}
	.st10{font-size:12.7755px;}
	.st11{font-family:'Arial-BoldMT';}
	.st12{fill:none;stroke:#231F20;stroke-miterlimit:10;}
	.st13{fill:none;stroke:#231F20;stroke-width:0.25;stroke-miterlimit:10;}
</style>
<pattern  x="-2501.6" y="804.8" width="90.7" height="90.7" patternUnits="userSpaceOnUse" id="Earth" viewBox="11 -102.8 90.7 90.7" style="overflow:visible;">
	<g>
		<rect x="11" y="-102.8" class="st0" width="90.7" height="90.7"/>
		<g>
			<line class="st1" x1="45.1" y1="-0.4" x2="56.8" y2="-12.2"/>
			<line class="st1" x1="33.7" y1="-12.1" x2="22.4" y2="-0.8"/>
			<line class="st1" x1="67.6" y1="-0.2" x2="79.3" y2="-11.9"/>
			<line class="st1" x1="88.5" y1="-0.2" x2="100.2" y2="-11.9"/>
		</g>
		<g>
			<line class="st1" x1="113" y1="-72.5" x2="101.7" y2="-83.9"/>
			<line class="st1" x1="101.8" y1="-61.2" x2="112.9" y2="-50.1"/>
			<line class="st1" x1="101.4" y1="-38.5" x2="112.5" y2="-27.4"/>
			<line class="st1" x1="100.4" y1="-15.4" x2="111.5" y2="-4.4"/>
		</g>
		<g>
			<line class="st1" x1="29.6" y1="-79.8" x2="18.5" y2="-90.9"/>
			<line class="st1" x1="27.2" y1="-77.4" x2="15.9" y2="-88.7"/>
			<line class="st1" x1="24.8" y1="-75" x2="13.4" y2="-86.3"/>
			<line class="st1" x1="22.3" y1="-72.5" x2="11" y2="-83.9"/>
			<line class="st1" x1="52.3" y1="-83.9" x2="64.1" y2="-95.7"/>
			<line class="st1" x1="49.9" y1="-86.3" x2="61.7" y2="-98.1"/>
			<line class="st1" x1="47.5" y1="-88.7" x2="59.2" y2="-100.4"/>
			<line class="st1" x1="45.1" y1="-91.2" x2="56.8" y2="-102.9"/>
			<line class="st1" x1="34" y1="-84.2" x2="45.1" y2="-73.2"/>
			<line class="st1" x1="36.4" y1="-86.6" x2="47.7" y2="-75.4"/>
			<line class="st1" x1="38.8" y1="-89.1" x2="50.2" y2="-77.7"/>
			<line class="st1" x1="41.3" y1="-91.5" x2="52.6" y2="-80.2"/>
			<line class="st1" x1="33.7" y1="-102.8" x2="22.4" y2="-91.5"/>
			<line class="st1" x1="36.1" y1="-100.3" x2="24.8" y2="-89.1"/>
			<line class="st1" x1="38.5" y1="-97.9" x2="27.2" y2="-86.6"/>
			<line class="st1" x1="40.9" y1="-95.5" x2="29.6" y2="-84.2"/>
			<line class="st1" x1="29.5" y1="-60.9" x2="41.3" y2="-72.7"/>
			<line class="st1" x1="27.1" y1="-63.3" x2="38.9" y2="-75.1"/>
			<line class="st1" x1="24.6" y1="-65.7" x2="36.4" y2="-77.4"/>
			<line class="st1" x1="22.2" y1="-68.1" x2="34" y2="-79.9"/>
			<line class="st1" x1="11.1" y1="-61.2" x2="22.2" y2="-50.1"/>
			<line class="st1" x1="13.5" y1="-63.6" x2="24.8" y2="-52.3"/>
			<line class="st1" x1="16" y1="-66" x2="27.3" y2="-54.7"/>
			<line class="st1" x1="18.4" y1="-68.5" x2="29.7" y2="-57.1"/>
			<line class="st1" x1="74.9" y1="-83.6" x2="86.7" y2="-95.4"/>
			<line class="st1" x1="72.5" y1="-86" x2="84.2" y2="-97.8"/>
			<line class="st1" x1="70" y1="-88.5" x2="81.7" y2="-100.2"/>
			<line class="st1" x1="67.6" y1="-90.9" x2="79.3" y2="-102.6"/>
			<line class="st1" x1="56.5" y1="-84" x2="67.6" y2="-72.9"/>
			<line class="st1" x1="58.9" y1="-86.4" x2="70.2" y2="-75.1"/>
			<line class="st1" x1="61.4" y1="-88.8" x2="72.7" y2="-77.5"/>
			<line class="st1" x1="63.8" y1="-91.2" x2="75.1" y2="-79.9"/>
			<line class="st1" x1="52" y1="-60.6" x2="63.8" y2="-72.4"/>
			<line class="st1" x1="49.6" y1="-63" x2="61.4" y2="-74.8"/>
			<line class="st1" x1="47.2" y1="-65.4" x2="58.9" y2="-77.2"/>
			<line class="st1" x1="44.7" y1="-67.9" x2="56.5" y2="-79.6"/>
			<line class="st1" x1="33.7" y1="-60.9" x2="44.7" y2="-49.9"/>
			<line class="st1" x1="36.1" y1="-63.3" x2="47.4" y2="-52.1"/>
			<line class="st1" x1="38.5" y1="-65.8" x2="49.8" y2="-54.4"/>
			<line class="st1" x1="40.9" y1="-68.2" x2="52.3" y2="-56.9"/>
			<line class="st1" x1="29" y1="-38.1" x2="40.8" y2="-49.9"/>
			<line class="st1" x1="26.6" y1="-40.5" x2="38.4" y2="-52.3"/>
			<line class="st1" x1="24.2" y1="-43" x2="35.9" y2="-54.7"/>
			<line class="st1" x1="21.8" y1="-45.4" x2="33.5" y2="-57.1"/>
			<line class="st1" x1="10.7" y1="-38.5" x2="21.8" y2="-27.4"/>
			<line class="st1" x1="13.1" y1="-40.9" x2="24.4" y2="-29.6"/>
			<line class="st1" x1="15.5" y1="-43.3" x2="26.9" y2="-32"/>
			<line class="st1" x1="17.9" y1="-45.7" x2="29.3" y2="-34.4"/>
			<line class="st1" x1="73.9" y1="-60.6" x2="85.7" y2="-72.4"/>
			<line class="st1" x1="71.5" y1="-63" x2="83.3" y2="-74.8"/>
			<line class="st1" x1="69.1" y1="-65.4" x2="80.8" y2="-77.2"/>
			<line class="st1" x1="66.6" y1="-67.9" x2="78.4" y2="-79.6"/>
			<line class="st1" x1="55.6" y1="-60.9" x2="66.6" y2="-49.9"/>
			<line class="st1" x1="58" y1="-63.3" x2="69.2" y2="-52.1"/>
			<line class="st1" x1="60.4" y1="-65.8" x2="71.7" y2="-54.4"/>
			<line class="st1" x1="62.8" y1="-68.2" x2="74.2" y2="-56.9"/>
			<line class="st1" x1="51" y1="-37.6" x2="62.8" y2="-49.4"/>
			<line class="st1" x1="48.6" y1="-40" x2="60.4" y2="-51.8"/>
			<line class="st1" x1="46.2" y1="-42.4" x2="57.9" y2="-54.1"/>
			<line class="st1" x1="43.8" y1="-44.8" x2="55.5" y2="-56.6"/>
			<line class="st1" x1="32.7" y1="-37.9" x2="43.8" y2="-26.8"/>
			<line class="st1" x1="35.1" y1="-40.3" x2="46.4" y2="-29"/>
			<line class="st1" x1="37.5" y1="-42.8" x2="48.9" y2="-31.4"/>
			<line class="st1" x1="40" y1="-45.2" x2="51.3" y2="-33.9"/>
			<line class="st1" x1="28.1" y1="-15.1" x2="39.8" y2="-26.9"/>
			<line class="st1" x1="25.6" y1="-17.5" x2="37.4" y2="-29.3"/>
			<line class="st1" x1="23.2" y1="-19.9" x2="34.9" y2="-31.7"/>
			<line class="st1" x1="20.8" y1="-22.4" x2="32.5" y2="-34.1"/>
			<line class="st1" x1="9.7" y1="-15.4" x2="20.8" y2="-4.4"/>
			<line class="st1" x1="12.1" y1="-17.9" x2="23.4" y2="-6.6"/>
			<line class="st1" x1="14.5" y1="-20.3" x2="25.9" y2="-8.9"/>
			<line class="st1" x1="17" y1="-22.7" x2="28.3" y2="-11.4"/>
			<line class="st1" x1="95.7" y1="-83.6" x2="107.5" y2="-95.4"/>
			<line class="st1" x1="93.3" y1="-86" x2="105.1" y2="-97.8"/>
			<line class="st1" x1="90.9" y1="-88.5" x2="102.6" y2="-100.2"/>
			<line class="st1" x1="88.5" y1="-90.9" x2="100.2" y2="-102.6"/>
			<line class="st1" x1="77.4" y1="-84" x2="88.5" y2="-72.9"/>
			<line class="st1" x1="79.8" y1="-86.4" x2="91.1" y2="-75.1"/>
			<line class="st1" x1="82.2" y1="-88.8" x2="93.6" y2="-77.5"/>
			<line class="st1" x1="84.6" y1="-91.2" x2="96" y2="-79.9"/>
			<line class="st1" x1="74.4" y1="-38.2" x2="86.1" y2="-49.9"/>
			<line class="st1" x1="71.9" y1="-40.6" x2="83.7" y2="-52.4"/>
			<line class="st1" x1="69.5" y1="-43" x2="81.2" y2="-54.7"/>
			<line class="st1" x1="67.1" y1="-45.4" x2="78.8" y2="-57.2"/>
			<line class="st1" x1="56" y1="-38.5" x2="67.1" y2="-27.4"/>
			<line class="st1" x1="58.4" y1="-40.9" x2="69.7" y2="-29.6"/>
			<line class="st1" x1="60.8" y1="-43.3" x2="72.2" y2="-32"/>
			<line class="st1" x1="63.3" y1="-45.8" x2="74.6" y2="-34.4"/>
			<line class="st1" x1="51.5" y1="-15.1" x2="63.3" y2="-26.9"/>
			<line class="st1" x1="49.1" y1="-17.6" x2="60.9" y2="-29.3"/>
			<line class="st1" x1="46.7" y1="-20" x2="58.4" y2="-31.7"/>
			<line class="st1" x1="44.2" y1="-22.4" x2="56" y2="-34.2"/>
			<line class="st1" x1="33.1" y1="-15.5" x2="44.2" y2="-4.4"/>
			<line class="st1" x1="35.6" y1="-17.9" x2="46.8" y2="-6.6"/>
			<line class="st1" x1="38" y1="-20.3" x2="49.3" y2="-9"/>
			<line class="st1" x1="40.4" y1="-22.8" x2="51.7" y2="-11.4"/>
			<line class="st1" x1="96.6" y1="-60.9" x2="108.4" y2="-72.7"/>
			<line class="st1" x1="94.2" y1="-63.3" x2="106" y2="-75.1"/>
			<line class="st1" x1="91.8" y1="-65.7" x2="103.5" y2="-77.4"/>
			<line class="st1" x1="89.3" y1="-68.1" x2="101.1" y2="-79.9"/>
			<line class="st1" x1="78.2" y1="-61.2" x2="89.3" y2="-50.1"/>
			<line class="st1" x1="80.7" y1="-63.6" x2="91.9" y2="-52.3"/>
			<line class="st1" x1="83.1" y1="-66" x2="94.4" y2="-54.7"/>
			<line class="st1" x1="85.5" y1="-68.5" x2="96.9" y2="-57.1"/>
			<line class="st1" x1="96.7" y1="-38.1" x2="108.5" y2="-49.9"/>
			<line class="st1" x1="94.3" y1="-40.6" x2="106.1" y2="-52.3"/>
			<line class="st1" x1="91.9" y1="-43" x2="103.6" y2="-54.7"/>
			<line class="st1" x1="89.5" y1="-45.4" x2="101.2" y2="-57.2"/>
			<line class="st1" x1="78.4" y1="-38.5" x2="89.5" y2="-27.4"/>
			<line class="st1" x1="80.8" y1="-40.9" x2="92.1" y2="-29.6"/>
			<line class="st1" x1="83.2" y1="-43.3" x2="94.6" y2="-32"/>
			<line class="st1" x1="85.7" y1="-45.8" x2="97" y2="-34.4"/>
			<line class="st1" x1="73.9" y1="-15.1" x2="85.7" y2="-26.9"/>
			<line class="st1" x1="71.5" y1="-17.5" x2="83.3" y2="-29.3"/>
			<line class="st1" x1="69" y1="-20" x2="80.8" y2="-31.7"/>
			<line class="st1" x1="66.6" y1="-22.4" x2="78.4" y2="-34.1"/>
			<line class="st1" x1="55.8" y1="-15.5" x2="66.9" y2="-4.4"/>
			<line class="st1" x1="58.2" y1="-17.9" x2="69.5" y2="-6.6"/>
			<line class="st1" x1="60.7" y1="-20.3" x2="72" y2="-9"/>
			<line class="st1" x1="63.1" y1="-22.8" x2="74.4" y2="-11.4"/>
			<line class="st1" x1="96.7" y1="-15.8" x2="108.5" y2="-27.6"/>
			<line class="st1" x1="94.3" y1="-18.2" x2="106.1" y2="-30"/>
			<line class="st1" x1="91.8" y1="-20.7" x2="103.6" y2="-32.4"/>
			<line class="st1" x1="89.4" y1="-23.1" x2="101.2" y2="-34.8"/>
			<line class="st1" x1="78.6" y1="-16.2" x2="89.7" y2="-5.1"/>
			<line class="st1" x1="81" y1="-18.6" x2="92.3" y2="-7.3"/>
			<line class="st1" x1="83.5" y1="-21" x2="94.8" y2="-9.7"/>
			<line class="st1" x1="85.7" y1="-23.2" x2="97" y2="-11.9"/>
		</g>
		<g>
			<line class="st1" x1="5" y1="-83.6" x2="16.8" y2="-95.4"/>
			<line class="st1" x1="2.6" y1="-86" x2="14.4" y2="-97.8"/>
			<line class="st1" x1="0.2" y1="-88.5" x2="11.9" y2="-100.2"/>
			<line class="st1" x1="5.9" y1="-60.9" x2="17.7" y2="-72.7"/>
			<line class="st1" x1="3.5" y1="-63.3" x2="15.3" y2="-75.1"/>
			<line class="st1" x1="1" y1="-65.7" x2="12.8" y2="-77.4"/>
			<line class="st1" x1="6" y1="-38.1" x2="17.8" y2="-49.9"/>
			<line class="st1" x1="3.6" y1="-40.6" x2="15.4" y2="-52.3"/>
			<line class="st1" x1="1.2" y1="-43" x2="12.9" y2="-54.7"/>
			<line class="st1" x1="6" y1="-15.8" x2="17.8" y2="-27.6"/>
			<line class="st1" x1="3.6" y1="-18.2" x2="15.3" y2="-30"/>
			<line class="st1" x1="1.1" y1="-20.7" x2="12.9" y2="-32.4"/>
		</g>
		<g>
			<line class="st1" x1="100.4" y1="-106.2" x2="111.5" y2="-95.1"/>
		</g>
		<g>
			<line class="st1" x1="9.7" y1="-106.2" x2="20.8" y2="-95.1"/>
			<line class="st1" x1="12.1" y1="-108.6" x2="23.4" y2="-97.3"/>
			<line class="st1" x1="14.5" y1="-111" x2="25.9" y2="-99.7"/>
			<line class="st1" x1="17" y1="-113.4" x2="28.3" y2="-102.1"/>
			<line class="st1" x1="33.1" y1="-106.2" x2="44.2" y2="-95.1"/>
			<line class="st1" x1="35.6" y1="-108.6" x2="46.8" y2="-97.3"/>
			<line class="st1" x1="38" y1="-111" x2="49.3" y2="-99.7"/>
			<line class="st1" x1="40.4" y1="-113.5" x2="51.7" y2="-102.1"/>
			<line class="st1" x1="55.8" y1="-106.2" x2="66.9" y2="-95.1"/>
			<line class="st1" x1="58.2" y1="-108.6" x2="69.5" y2="-97.3"/>
			<line class="st1" x1="60.7" y1="-111" x2="72" y2="-99.7"/>
			<line class="st1" x1="63.1" y1="-113.5" x2="74.4" y2="-102.1"/>
			<line class="st1" x1="78.6" y1="-106.9" x2="89.7" y2="-95.8"/>
			<line class="st1" x1="81" y1="-109.3" x2="92.3" y2="-98"/>
			<line class="st1" x1="83.5" y1="-111.7" x2="94.8" y2="-100.4"/>
			<line class="st1" x1="85.7" y1="-113.9" x2="97" y2="-102.6"/>
		</g>
	</g>
</pattern>
<pattern  x="-2501.6" y="804.8" width="28.3" height="28.3" patternUnits="userSpaceOnUse" id="Masonry_crosshatch" viewBox="28.5 -56.9 28.3 28.3" style="overflow:visible;">
	<g>
		<rect x="28.5" y="-56.9" class="st0" width="28.3" height="28.3"/>
		<g>
			<line class="st2" x1="56.9" y1="-28.5" x2="85.2" y2="-0.2"/>
		</g>
		<g>
			<line class="st2" x1="28.5" y1="-28.5" x2="56.9" y2="-0.2"/>
			<line class="st2" x1="30.6" y1="-31" x2="59" y2="-2.7"/>
		</g>
		<g>
			<line class="st2" x1="0.2" y1="-28.5" x2="28.5" y2="-0.2"/>
			<line class="st2" x1="2.3" y1="-31" x2="30.6" y2="-2.7"/>
		</g>
		<g>
			<line class="st2" x1="56.9" y1="-56.9" x2="85.2" y2="-28.5"/>
		</g>
		<g>
			<line class="st2" x1="28.5" y1="-56.9" x2="56.9" y2="-28.5"/>
			<line class="st2" x1="30.6" y1="-59.4" x2="59" y2="-31"/>
		</g>
		<g>
			<line class="st2" x1="0.2" y1="-56.9" x2="28.5" y2="-28.5"/>
			<line class="st2" x1="2.3" y1="-59.4" x2="30.6" y2="-31"/>
		</g>
		<g>
			<line class="st2" x1="56.9" y1="-85.2" x2="85.2" y2="-56.9"/>
		</g>
		<g>
			<line class="st2" x1="28.5" y1="-85.2" x2="56.9" y2="-56.9"/>
		</g>
		<g>
			<line class="st2" x1="0.2" y1="-85.2" x2="28.5" y2="-56.9"/>
		</g>
	</g>
</pattern>
<g>
	<g id="HATCH_7_">
		<pattern  id="SVGID_1_" xlink:href="#Earth" patternTransform="matrix(1 0 0 1 204.4547 1.1318)">
		</pattern>
		<polygon class="st3" points="207.4,157.4 207.7,156.3 208.4,155.1 209.5,153.7 210.7,152.3 212,150.9 213.1,149.5 214.1,148.2 
			214.7,147.1 214.8,146.1 214.3,145.4 213.4,144.8 212.1,144.3 210.6,143.9 209,143.5 207.5,143.1 206.3,142.5 205.4,141.8 
			205,140.9 205,139.9 205.3,138.6 205.6,137.3 205.9,135.9 206.1,134.4 205.9,133 205.4,131.6 204.3,130.2 202.9,128.9 
			201.3,127.7 199.8,126.5 198.6,125.4 197.8,124.3 197.8,123.2 198.7,122.2 200.6,121.1 203.3,120.1 206.4,119 209.7,117.9 
			212.7,116.7 215.2,115.5 216.8,114.2 217.1,112.7 216,111.1 213.8,109.3 211,107.3 208,105 205.5,102.4 203.7,99.4 203.3,96 
			204.8,92.1 246.3,92.1 246.3,148.1 306.1,148.1 306.1,92.1 343.8,92.1 339.5,94.7 337.1,97.1 336.2,99.2 336.3,101.1 337.1,102.8 
			338.1,104.5 339,105.9 339.4,107.3 338.8,108.7 337.6,110 335.9,111.2 334.1,112.4 332.2,113.7 330.7,114.9 329.7,116.1 
			329.5,117.5 330.3,118.8 331.9,120.2 334.1,121.6 336.5,123 339,124.4 341.4,125.7 343.3,127 344.5,128.2 344.8,129.4 
			344.4,130.4 343.5,131.4 342.3,132.5 341,133.5 339.8,134.7 339,135.9 338.6,137.3 339,138.8 339.9,140.4 341.1,142 342.4,143.6 
			343.6,145.1 344.5,146.4 345,147.5 344.6,148.3 343.5,148.7 341.6,148.8 339.2,148.7 336.6,148.6 333.9,148.4 331.5,148.3 
			329.5,148.4 328.1,148.7 327.6,149.4 327.8,150.4 328.5,151.7 329.5,153.1 330.6,154.6 331.7,156.2 332.5,157.7 332.9,159.2 
			332.8,160.5 332.1,161.6 330.9,162.5 329.4,163.2 327.5,163.7 325.5,163.9 323.3,163.7 321.1,163.3 318.9,162.6 316.8,161.6 
			314.7,160.5 312.7,159.3 310.7,158.1 308.8,157.1 307,156.4 305.3,155.9 303.7,155.9 302.1,156.1 300.7,156.6 299.3,157.3 
			297.9,158 296.5,158.6 295.2,159.1 293.8,159.3 292.4,159.2 291,158.8 289.6,158.3 288,157.6 286.4,157 284.7,156.4 282.9,156 
			281,155.8 278.9,155.9 276.7,156.2 274.4,156.8 272.1,157.4 269.8,158 267.5,158.6 265.2,159 263,159.2 261,159.1 259,158.8 
			257.1,158.4 255.3,158 253.5,157.6 251.8,157.3 250.2,157.2 248.6,157.4 247,158 245.4,158.9 243.9,159.9 242.4,161.1 
			240.8,162.2 239.3,163.3 237.8,164.1 236.3,164.6 234.7,164.7 233.2,164.6 231.7,164.1 230.2,163.5 228.6,162.9 227.1,162.1 
			225.7,161.5 224.2,161 222.8,160.6 221.4,160.5 220,160.5 218.6,160.5 217.3,160.6 216,160.7 214.6,160.8 213.3,160.8 212,160.7 
			210.8,160.5 209.6,160.1 208.7,159.7 208,159 207.5,158.3 		"/>
	</g>
</g>
<g>
	<g id="HATCH_5_">
		<pattern  id="SVGID_2_" xlink:href="#Masonry_crosshatch" patternTransform="matrix(1 0 0 1 86.3143 93.22)">
		</pattern>
		<rect x="257.5" y="76.2" class="st4" width="37.7" height="14.4"/>
	</g>
	<g id="HATCH_4_">
		<pattern  id="SVGID_3_" xlink:href="#Masonry_crosshatch" patternTransform="matrix(1 0 0 1 86.3143 93.22)">
		</pattern>
		<rect x="257.5" y="61.6" class="st5" width="37.7" height="11.7"/>
	</g>
	<g id="HATCH_2_">
		<pattern  id="SVGID_4_" xlink:href="#Masonry_crosshatch" patternTransform="matrix(1 0 0 1 86.3143 93.22)">
		</pattern>
		<rect x="257.5" y="47.3" class="st6" width="37.7" height="11.4"/>
	</g>
	<g id="HATCH_3_">
		<pattern  id="SVGID_5_" xlink:href="#Masonry_crosshatch" patternTransform="matrix(1 0 0 1 86.3143 93.22)">
		</pattern>
		<rect x="257.5" y="28.7" class="st7" width="37.7" height="15.8"/>
	</g>
</g>
<g id="MTEXT">
	<g>
		<text transform="matrix(1 0 0 1 363.1359 101.2413)" class="st8 st9 st10">Footing</text>
	</g>
</g>
<g id="MTEXT_11_">
	<g>
		<text transform="matrix(1 0 0 1 362.4777 136.4961)" class="st8 st9 st10">Foundation</text>
	</g>
</g>
<g id="MTEXT_2_">
	<g>
		<text transform="matrix(1 0 0 1 253.3067 175.1231)" class="st8 st11 st10">Section</text>
	</g>
</g>
<g>
	<rect x="246.5" y="90.6" class="st12" width="59.8" height="57.5"/>
	<g id="POLYLINE">
		<rect x="257.5" y="76.2" class="st12" width="37.7" height="14.4"/>
	</g>
	<g id="POLYLINE_8_">
		<rect x="257.5" y="61.6" class="st12" width="37.7" height="11.7"/>
	</g>
	<g id="POLYLINE_7_">
		<rect x="257.5" y="47.3" class="st12" width="37.7" height="11.4"/>
	</g>
	<g id="POLYLINE_1_">
		<rect x="257.5" y="28.7" class="st12" width="37.7" height="15.8"/>
	</g>
	<g id="LINE_15_">
		<line class="st12" x1="257.5" y1="28.7" x2="257.5" y2="90.6"/>
	</g>
</g>
<g>
	<g id="LINE_6_">
		<g>
			<line class="st12" x1="74.4" y1="69.7" x2="257.8" y2="69.7"/>
		</g>
	</g>
	<g id="LINE_2_">
		<g>
			<line class="st12" x1="306.3" y1="69.7" x2="489.6" y2="69.7"/>
		</g>
	</g>
	<g id="LINE_10_">
		<g>
			<line class="st12" x1="295.2" y1="69.7" x2="478.6" y2="69.7"/>
		</g>
	</g>
</g>
<g>
	<g>
		<g>
			<line class="st13" x1="334.2" y1="135.9" x2="360" y2="135.9"/>
			<g>
				<polygon class="st8" points="335.4,137.6 328.9,135.9 335.4,134.1 				"/>
			</g>
		</g>
	</g>
</g>
<g>
	<g>
		<g>
			<line class="st13" x1="300.2" y1="101.1" x2="360" y2="101.1"/>
			<g>
				<polygon class="st8" points="301.4,102.9 294.8,101.1 301.4,99.4 				"/>
			</g>
		</g>
	</g>
</g>
</svg>
