<?xml version="1.0" encoding="utf-8"?>
<!-- Generator: Adobe Illustrator 25.2.1, SVG Export Plug-In . SVG Version: 6.00 Build 0)  -->
<svg version="1.1" id="_x30_" xmlns="http://www.w3.org/2000/svg" xmlns:xlink="http://www.w3.org/1999/xlink" x="0px" y="0px"
	 viewBox="0 0 552.8 300.1" style="enable-background:new 0 0 552.8 300.1;" xml:space="preserve">
<style type="text/css">
	.st0{fill-rule:evenodd;clip-rule:evenodd;fill:#231F20;}
	.st1{fill:none;stroke:#231F20;stroke-width:0.25;stroke-miterlimit:10;}
	.st2{fill:#231F20;}
	.st3{font-family:'Arial-BoldMT';}
	.st4{font-size:12px;}
	.st5{font-family:'ArialMT';}
	.st6{fill:none;stroke:#231F20;stroke-miterlimit:10;}
	.st7{fill:none;stroke:#231F20;stroke-width:0.75;stroke-miterlimit:10;}
	.st8{fill:none;stroke:#231F20;stroke-width:1.5;stroke-miterlimit:10;}
</style>
<g id="HATCH">
	<g>
		<path class="st0" d="M71.4,59.2c0-1.6,1.3-2.8,2.8-2.8c1.6,0,2.8,1.3,2.8,2.8c0,1.6-1.3,2.8-2.8,2.8C72.7,62,71.4,60.8,71.4,59.2z
			 M112.9,59.2c0-1.6,1.3-2.8,2.8-2.8c1.6,0,2.8,1.3,2.8,2.8c0,1.6-1.3,2.8-2.8,2.8C114.2,62,112.9,60.8,112.9,59.2z M156.2,59.2
			c0-1.6,1.3-2.8,2.8-2.8c1.6,0,2.8,1.3,2.8,2.8c0,1.6-1.3,2.8-2.8,2.8C157.4,62,156.2,60.8,156.2,59.2z M112.9,39.1
			c0-1.6,1.3-2.8,2.8-2.8c1.6,0,2.8,1.3,2.8,2.8c0,1.6-1.3,2.8-2.8,2.8C114.2,42,112.9,40.7,112.9,39.1z M156.2,39.1
			c0-1.6,1.3-2.8,2.8-2.8c1.6,0,2.8,1.3,2.8,2.8c0,1.6-1.3,2.8-2.8,2.8C157.4,42,156.2,40.7,156.2,39.1z M196.4,39.1
			c0-1.6,1.3-2.8,2.8-2.8c1.6,0,2.8,1.3,2.8,2.8c0,1.6-1.3,2.8-2.8,2.8C197.7,42,196.4,40.7,196.4,39.1z M69.1,124.4
			c0-1.6,1.3-2.8,2.8-2.8s2.8,1.3,2.8,2.8c0,1.6-1.3,2.8-2.8,2.8S69.1,126,69.1,124.4z M112.3,124.4c0-1.6,1.3-2.8,2.8-2.8
			s2.8,1.3,2.8,2.8c0,1.6-1.3,2.8-2.8,2.8S112.3,126,112.3,124.4z M152.5,124.4c0-1.6,1.3-2.8,2.8-2.8c1.6,0,2.8,1.3,2.8,2.8
			c0,1.6-1.3,2.8-2.8,2.8C153.8,127.2,152.5,126,152.5,124.4z M152.5,143.2c0-1.6,1.3-2.8,2.8-2.8c1.6,0,2.8,1.3,2.8,2.8
			c0,1.6-1.3,2.8-2.8,2.8C153.8,146,152.5,144.7,152.5,143.2z M69.1,143.2c0-1.6,1.3-2.8,2.8-2.8s2.8,1.3,2.8,2.8
			c0,1.6-1.3,2.8-2.8,2.8S69.1,144.7,69.1,143.2z"/>
	</g>
</g>
<g>
	<g id="LINE_19_">
		<line class="st1" x1="419.7" y1="56.5" x2="434" y2="56.5"/>
	</g>
	<g id="LINE_20_">
		<line class="st1" x1="419.7" y1="125.3" x2="434" y2="125.3"/>
	</g>
</g>
<g id="LINE_21_">
	<g id="LINE_56_">
		<g>
			<g>
				<g>
					<line class="st1" x1="428.3" y1="63.2" x2="428.3" y2="118.7"/>
					<g>
						<polygon class="st2" points="426.1,64.6 428.3,56.5 430.5,64.6 						"/>
					</g>
					<g>
						<polygon class="st2" points="426.1,117.2 428.3,125.3 430.5,117.2 						"/>
					</g>
				</g>
			</g>
		</g>
	</g>
</g>
<g id="MTEXT">
	<g>
		<text transform="matrix(1 0 0 1 343.2813 166.1169)" class="st2 st3 st4">(c) &quot;L&quot; intersection corner</text>
	</g>
</g>
<g id="MTEXT_4_">
	<g>
		<text transform="matrix(1 0 0 1 449.4225 72.2439)"><tspan x="0" y="0" class="st2 st5 st4">Outer bar to </tspan><tspan x="0" y="14.4" class="st2 st5 st4">continue </tspan><tspan x="0" y="28.8" class="st2 st5 st4">500mm min. </tspan><tspan x="0" y="43.2" class="st2 st5 st4">around corner </tspan></text>
	</g>
</g>
<g id="MTEXT_5_">
	<g>
		<text transform="matrix(1 0 0 1 170.1722 250.1188)" class="st2 st5 st4">Mesh to lap full width at intersection</text>
	</g>
</g>
<g id="MTEXT_6_">
</g>
<g id="MTEXT_7_">
	<g>
		<text transform="matrix(1 0 0 1 55.838 78.1631)"><tspan x="0" y="0" class="st2 st5 st4">Square mesh – two </tspan><tspan x="-11.7" y="14.4" class="st2 st5 st4">outermost wires lapping</tspan></text>
	</g>
</g>
<g id="MTEXT_8_">
	<g>
		<text transform="matrix(1 0 0 1 80.8575 166.1167)" class="st2 st3 st4">(a) Splice</text>
	</g>
</g>
<g id="MTEXT_9_">
	<g>
		<text transform="matrix(1 0 0 1 203.4993 269.7139)" class="st2 st3 st4">(b) &quot;T&quot; intersection </text>
	</g>
</g>
<g>
	<g id="LINE_37_">
		<g>
			<line class="st6" x1="373.3" y1="88.7" x2="320.7" y2="88.7"/>
		</g>
	</g>
	<g id="LINE_38_">
		<g>
			<line class="st6" x1="415.6" y1="131" x2="320.7" y2="131"/>
		</g>
	</g>
	<g id="LINE_39_">
		<g>
			<polyline class="st6" points="373.3,35.9 373.3,88.7 371.6,88.7 			"/>
		</g>
	</g>
	<g id="LINE_40_">
		<g>
			<polyline class="st6" points="415.6,35.9 415.6,131 412.1,131 			"/>
		</g>
	</g>
</g>
<g>
	<g id="LINE_41_">
		<line class="st6" x1="243.4" y1="187.5" x2="199.3" y2="187.5"/>
	</g>
	<g id="LINE_42_">
		<line class="st6" x1="327.3" y1="229.8" x2="199.3" y2="229.8"/>
	</g>
	<g id="LINE_43_">
		<polyline class="st6" points="243.4,134.7 243.4,187.5 241.5,187.5 		"/>
	</g>
	<g id="LINE_44_">
		<line class="st6" x1="285.7" y1="187.5" x2="327.3" y2="187.5"/>
	</g>
	<g id="LINE_45_">
		<polyline class="st6" points="285.7,134.7 285.7,187.2 285.7,187.5 286.6,187.5 		"/>
	</g>
</g>
<g>
	<g id="POLYLINE_2_">
		<g>
			<rect x="97.2" y="29.3" class="st6" width="145.6" height="6.4"/>
		</g>
	</g>
	<g id="POLYLINE_3_">
		<g>
			<rect x="31.3" y="49.3" class="st6" width="145.6" height="6.4"/>
		</g>
	</g>
	<g id="POLYLINE_4_">
		<g>
			<rect x="53.4" y="114.5" class="st6" width="145.6" height="6.4"/>
		</g>
	</g>
	<g id="POLYLINE_5_">
		<g>
			<rect x="28.8" y="133.3" class="st6" width="145.6" height="6.4"/>
		</g>
	</g>
</g>
<polyline class="st7" points="368.4,35.9 392.2,35.9 394.7,32.1 394.7,39.7 397.3,35.9 421.1,35.9 "/>
<polyline class="st7" points="238.8,134.7 262.6,134.7 265.2,130.9 265.2,138.5 267.8,134.7 291.6,134.7 "/>
<polyline class="st7" points="199.1,233.8 199.1,212 195.3,209.6 202.9,209.6 199.1,207.2 199.1,185.5 "/>
<polyline class="st7" points="327.6,232.9 327.6,211.1 323.7,208.8 331.4,208.8 327.6,206.4 327.6,184.6 "/>
<polyline class="st7" points="320.8,134.6 320.8,112.8 317,110.4 324.6,110.4 320.8,108.1 320.8,86.3 "/>
<g>
	<g>
		<g id="LINE_5_">
			<line class="st8" x1="327.6" y1="193.2" x2="199.1" y2="193.2"/>
		</g>
		<g id="LINE_6_">
			<line class="st8" x1="327.6" y1="224.1" x2="199.1" y2="224.1"/>
		</g>
		<g id="LINE_7_">
			<line class="st8" x1="249.1" y1="226.8" x2="249.1" y2="134.4"/>
		</g>
		<g id="LINE_8_">
			<line class="st8" x1="280" y1="226.8" x2="280" y2="134.4"/>
		</g>
	</g>
	<g id="LINE">
		<g>
			<line class="st8" x1="386.4" y1="94.5" x2="320.5" y2="94.5"/>
		</g>
	</g>
	<g id="LINE_3_">
		<g>
			<line class="st8" x1="379" y1="101.8" x2="379" y2="35.7"/>
		</g>
	</g>
	<g>
		<g id="LINE_1_">
			<g>
				<line class="st8" x1="402.2" y1="125.3" x2="320.5" y2="125.3"/>
			</g>
		</g>
		<g id="LINE_2_">
			<g>
				<line class="st8" x1="409.8" y1="117.7" x2="409.8" y2="56.5"/>
			</g>
		</g>
		<g id="SPLINE">
			<g>
				<path class="st8" d="M402.2,125.3c4.2,0,7.6-3.4,7.6-7.6"/>
			</g>
		</g>
	</g>
	<g id="LINE_4_">
		<g>
			<line class="st8" x1="406.8" y1="101.8" x2="406.8" y2="35.7"/>
		</g>
	</g>
</g>
</svg>
