<?xml version="1.0" encoding="utf-8"?>
<!-- Generator: Adobe Illustrator 25.2.1, SVG Export Plug-In . SVG Version: 6.00 Build 0)  -->
<svg version="1.1" xmlns="http://www.w3.org/2000/svg" xmlns:xlink="http://www.w3.org/1999/xlink" x="0px" y="0px"
	 viewBox="0 0 552.8 387.5" style="enable-background:new 0 0 552.8 387.5;" xml:space="preserve">
<style type="text/css">
	.st0{display:none;}
	.st1{font-family:'Arial-ItalicMT';}
	.st2{font-size:12px;}
	.st3{font-family:'ArialMT';}
	.st4{fill:none;stroke:#000000;stroke-width:0.2159;stroke-miterlimit:10;}
	.st5{fill:none;stroke:#000000;stroke-width:0.25;stroke-miterlimit:10;}
	.st6{fill:none;stroke:#000000;stroke-width:0.75;stroke-miterlimit:10;}
	.st7{fill:none;stroke:#000000;stroke-width:0.75;stroke-miterlimit:10;stroke-dasharray:12.1477,12.1477;}
	.st8{fill:none;stroke:#000000;stroke-width:0.75;stroke-miterlimit:10;stroke-dasharray:12.4794,12.4794;}
	.st9{fill:none;stroke:#000000;stroke-miterlimit:10;}
	.st10{fill:none;}
	.st11{fill:none;stroke:#000000;stroke-width:1.5;stroke-miterlimit:10;}
</style>
<g id="trace" class="st0">
</g>
<g id="Layer_1">
	<text transform="matrix(1 0 0 1 400.5135 276.0517)"><tspan x="0" y="0" class="st1 st2">Going</tspan><tspan x="32" y="0" class="st3 st2"> for slope </tspan><tspan x="0" y="14.4" class="st3 st2">relationship measured </tspan><tspan x="0" y="28.8" class="st3 st2">at these points</tspan></text>
	<g>
		<text transform="matrix(1 0 0 1 28.4026 349.2169)" class="st3 st2">400 mm</text>
		<text transform="matrix(1 0 0 1 330.4026 349.2168)" class="st3 st2">400 mm</text>
	</g>
	<g>
		<text transform="matrix(0 -1 1 0 497.9998 136.5798)" class="st3 st2">More than</text>
		<text transform="matrix(0 -1 1 0 521.9998 141.5778)" class="st3 st2">1 m in width</text>
	</g>
	<g>
		<line class="st4" x1="517" y1="191" x2="447.7" y2="191"/>
		<line class="st4" x1="517" y1="28.3" x2="447.7" y2="28.3"/>
	</g>
	<g>
		<g>
			<line class="st5" x1="507" y1="35" x2="507" y2="184.3"/>
			<g>
				<polygon points="504.8,36.5 507,28.3 509.2,36.5 				"/>
			</g>
			<g>
				<polygon points="504.8,182.8 507,191 509.2,182.8 				"/>
			</g>
		</g>
	</g>
	<g>
		<g>
			<g>
				<path class="st6" d="M149.7,327.8c0-2,0-4,0.1-6"/>
				<path class="st7" d="M150.3,309.7c9.8-135.8,128.6-243.8,275.9-249.5"/>
				<path class="st6" d="M432.2,60.1c2,0,4-0.1,6-0.1"/>
			</g>
		</g>
		<g>
			<g>
				<path class="st6" d="M257.3,327.8c0-2,0-4,0.1-6"/>
				<path class="st8" d="M258.4,309.4c9.5-80.3,80-143.7,167.6-149.1"/>
				<path class="st6" d="M432.2,160c2-0.1,4-0.1,6-0.1"/>
			</g>
		</g>
	</g>
	<g>
		<path class="st9" d="M438.3,28.3v163.2c-81.6,0-145.8,60.5-145.8,136.3H112"/>
		<line class="st9" x1="359" y1="38" x2="398.7" y2="196.5"/>
		<line class="st9" x1="283.9" y1="63.9" x2="364.4" y2="209.7"/>
		<line class="st9" x1="214.7" y1="109.7" x2="331.4" y2="233.6"/>
		<line class="st9" x1="155.6" y1="178.1" x2="309" y2="263.2"/>
		<line class="st9" x1="122" y1="254.1" x2="296" y2="296"/>
	</g>
	<line class="st10" x1="174.3" y1="353" x2="149.7" y2="353"/>
	<g>
		<g>
			<g>
				<polyline class="st5" points="392.7,272.8 353,272.8 299.2,230.7 				"/>
				<g>
					<polygon points="301.7,229.9 294,226.6 299,233.3 					"/>
				</g>
			</g>
		</g>
		<g>
			<g>
				<line class="st5" x1="353" y1="272.8" x2="203.1" y2="183.7"/>
				<g>
					<polygon points="205.5,182.6 197.4,180.3 203.2,186.4 					"/>
				</g>
			</g>
		</g>
	</g>
	<g>
		<line class="st5" x1="112" y1="339.3" x2="112" y2="359.1"/>
		<line class="st5" x1="149.7" y1="338.6" x2="149.7" y2="358.5"/>
		<line class="st5" x1="256.5" y1="339.3" x2="256.5" y2="359.1"/>
		<line class="st5" x1="291.2" y1="338.6" x2="291.2" y2="358.5"/>
		<line class="st5" x1="291.2" y1="353" x2="256.3" y2="353"/>
		<line class="st5" x1="112.1" y1="353" x2="149.9" y2="353"/>
	</g>
	<g>
		<g>
			<g>
				<line class="st5" x1="249.9" y1="353" x2="228.3" y2="353"/>
				<g>
					<polygon points="248.4,350.9 256.5,353 248.4,355.2 					"/>
				</g>
			</g>
		</g>
		<g>
			<g>
				<line class="st5" x1="373.9" y1="353" x2="297.9" y2="353"/>
				<g>
					<polygon points="299.3,350.9 291.2,353 299.3,355.2 					"/>
				</g>
			</g>
		</g>
		<g>
			<g>
				<g>
					<line class="st5" x1="156.4" y1="353" x2="177.9" y2="353"/>
					<g>
						<polygon points="157.9,355.2 149.7,353 157.9,350.9 						"/>
					</g>
				</g>
			</g>
		</g>
		<g>
			<g>
				<g>
					<line class="st5" x1="28.4" y1="353" x2="105.4" y2="353"/>
					<g>
						<polygon points="103.9,355.2 112.1,353 103.9,350.9 						"/>
					</g>
				</g>
			</g>
		</g>
	</g>
	<path class="st11" d="M112,327.8c0-166.3,147-299.5,326.3-299.5"/>
</g>
</svg>
