<?xml version="1.0" encoding="utf-8"?>
<!-- Generator: Adobe Illustrator 26.0.3, SVG Export Plug-In . SVG Version: 6.00 Build 0)  -->
<svg version="1.1" id="_x30_" xmlns="http://www.w3.org/2000/svg" xmlns:xlink="http://www.w3.org/1999/xlink" x="0px" y="0px"
	 viewBox="0 0 552.76 299.08" style="enable-background:new 0 0 552.76 299.08;" xml:space="preserve">
<style type="text/css">
	.st0{fill-rule:evenodd;clip-rule:evenodd;fill:none;}
	
		.st1{clip-path:url(#SVGID_00000163760568851870973060000006500807635058144653_);fill:none;stroke:#221F1F;stroke-width:0.5;stroke-linejoin:round;}
	.st2{fill-rule:evenodd;clip-rule:evenodd;fill:url(#SVGID_00000068656631855355715060000011012970033282131889_);}
	.st3{fill-rule:evenodd;clip-rule:evenodd;fill:url(#SVGID_00000029008063222114346850000011816252438754737583_);}
	.st4{fill:none;stroke:#231F20;stroke-linecap:round;stroke-linejoin:round;stroke-miterlimit:10;}
	.st5{fill:none;stroke:#231F20;stroke-width:0.25;stroke-miterlimit:10;}
	.st6{fill:#231F20;}
	.st7{font-family:'Arial-ItalicMT';}
	.st8{font-size:12px;}
	.st9{font-family:'ArialMT';}
</style>
<pattern  y="567.61" width="72" height="72" patternUnits="userSpaceOnUse" id="diagonal_cross_hatch" viewBox="6.18 -86.18 72 72" style="overflow:visible;">
	<g>
		<rect x="6.18" y="-86.18" class="st0" width="72" height="72"/>
		<g>
			<defs>
				<rect id="SVGID_1_" x="6.18" y="-86.18" width="72" height="72"/>
			</defs>
			<clipPath id="SVGID_00000183947748160421998010000009550123166755960194_">
				<use xlink:href="#SVGID_1_"  style="overflow:visible;"/>
			</clipPath>
			
				<line style="clip-path:url(#SVGID_00000183947748160421998010000009550123166755960194_);fill:none;stroke:#221F1F;stroke-width:0.5;stroke-linejoin:round;" x1="0.18" y1="-74.18" x2="18.18" y2="-92.18"/>
			
				<line style="clip-path:url(#SVGID_00000183947748160421998010000009550123166755960194_);fill:none;stroke:#221F1F;stroke-width:0.5;stroke-linejoin:round;" x1="0.18" y1="-68.18" x2="24.18" y2="-92.18"/>
			
				<line style="clip-path:url(#SVGID_00000183947748160421998010000009550123166755960194_);fill:none;stroke:#221F1F;stroke-width:0.5;stroke-linejoin:round;" x1="0.18" y1="-62.18" x2="30.18" y2="-92.18"/>
			
				<line style="clip-path:url(#SVGID_00000183947748160421998010000009550123166755960194_);fill:none;stroke:#221F1F;stroke-width:0.5;stroke-linejoin:round;" x1="0.18" y1="-56.18" x2="36.18" y2="-92.18"/>
			
				<line style="clip-path:url(#SVGID_00000183947748160421998010000009550123166755960194_);fill:none;stroke:#221F1F;stroke-width:0.5;stroke-linejoin:round;" x1="0.18" y1="-50.18" x2="42.18" y2="-92.18"/>
			
				<line style="clip-path:url(#SVGID_00000183947748160421998010000009550123166755960194_);fill:none;stroke:#221F1F;stroke-width:0.5;stroke-linejoin:round;" x1="0.18" y1="-44.18" x2="48.18" y2="-92.18"/>
			
				<line style="clip-path:url(#SVGID_00000183947748160421998010000009550123166755960194_);fill:none;stroke:#221F1F;stroke-width:0.5;stroke-linejoin:round;" x1="0.18" y1="-38.18" x2="54.18" y2="-92.18"/>
			
				<line style="clip-path:url(#SVGID_00000183947748160421998010000009550123166755960194_);fill:none;stroke:#221F1F;stroke-width:0.5;stroke-linejoin:round;" x1="0.18" y1="-32.18" x2="60.18" y2="-92.18"/>
			
				<line style="clip-path:url(#SVGID_00000183947748160421998010000009550123166755960194_);fill:none;stroke:#221F1F;stroke-width:0.5;stroke-linejoin:round;" x1="0.18" y1="-26.18" x2="66.18" y2="-92.18"/>
			
				<line style="clip-path:url(#SVGID_00000183947748160421998010000009550123166755960194_);fill:none;stroke:#221F1F;stroke-width:0.5;stroke-linejoin:round;" x1="0.18" y1="-20.18" x2="72.18" y2="-92.18"/>
			
				<line style="clip-path:url(#SVGID_00000183947748160421998010000009550123166755960194_);fill:none;stroke:#221F1F;stroke-width:0.5;stroke-linejoin:round;" x1="0.18" y1="-14.18" x2="78.18" y2="-92.18"/>
			
				<line style="clip-path:url(#SVGID_00000183947748160421998010000009550123166755960194_);fill:none;stroke:#221F1F;stroke-width:0.5;stroke-linejoin:round;" x1="0.18" y1="-8.18" x2="84.18" y2="-92.18"/>
			
				<line style="clip-path:url(#SVGID_00000183947748160421998010000009550123166755960194_);fill:none;stroke:#221F1F;stroke-width:0.5;stroke-linejoin:round;" x1="6.18" y1="-8.18" x2="84.18" y2="-86.18"/>
			
				<line style="clip-path:url(#SVGID_00000183947748160421998010000009550123166755960194_);fill:none;stroke:#221F1F;stroke-width:0.5;stroke-linejoin:round;" x1="12.18" y1="-8.18" x2="84.18" y2="-80.18"/>
			
				<line style="clip-path:url(#SVGID_00000183947748160421998010000009550123166755960194_);fill:none;stroke:#221F1F;stroke-width:0.5;stroke-linejoin:round;" x1="18.18" y1="-8.18" x2="84.18" y2="-74.18"/>
			
				<line style="clip-path:url(#SVGID_00000183947748160421998010000009550123166755960194_);fill:none;stroke:#221F1F;stroke-width:0.5;stroke-linejoin:round;" x1="24.18" y1="-8.18" x2="84.18" y2="-68.18"/>
			
				<line style="clip-path:url(#SVGID_00000183947748160421998010000009550123166755960194_);fill:none;stroke:#221F1F;stroke-width:0.5;stroke-linejoin:round;" x1="30.18" y1="-8.18" x2="84.18" y2="-62.18"/>
			
				<line style="clip-path:url(#SVGID_00000183947748160421998010000009550123166755960194_);fill:none;stroke:#221F1F;stroke-width:0.5;stroke-linejoin:round;" x1="36.18" y1="-8.18" x2="84.18" y2="-56.18"/>
			
				<line style="clip-path:url(#SVGID_00000183947748160421998010000009550123166755960194_);fill:none;stroke:#221F1F;stroke-width:0.5;stroke-linejoin:round;" x1="42.18" y1="-8.18" x2="84.18" y2="-50.18"/>
			
				<line style="clip-path:url(#SVGID_00000183947748160421998010000009550123166755960194_);fill:none;stroke:#221F1F;stroke-width:0.5;stroke-linejoin:round;" x1="48.18" y1="-8.18" x2="84.18" y2="-44.18"/>
			
				<line style="clip-path:url(#SVGID_00000183947748160421998010000009550123166755960194_);fill:none;stroke:#221F1F;stroke-width:0.5;stroke-linejoin:round;" x1="54.18" y1="-8.18" x2="84.18" y2="-38.18"/>
			
				<line style="clip-path:url(#SVGID_00000183947748160421998010000009550123166755960194_);fill:none;stroke:#221F1F;stroke-width:0.5;stroke-linejoin:round;" x1="52.18" y1="-0.18" x2="94.18" y2="-42.18"/>
			
				<line style="clip-path:url(#SVGID_00000183947748160421998010000009550123166755960194_);fill:none;stroke:#221F1F;stroke-width:0.5;stroke-linejoin:round;" x1="58.18" y1="-0.18" x2="94.18" y2="-36.18"/>
			
				<line style="clip-path:url(#SVGID_00000183947748160421998010000009550123166755960194_);fill:none;stroke:#221F1F;stroke-width:0.5;stroke-linejoin:round;" x1="64.18" y1="-0.18" x2="94.18" y2="-30.18"/>
		</g>
	</g>
</pattern>
<g>
	<g id="HATCH">
		
			<pattern  id="SVGID_00000053518122339718686050000005694727554294754452_" xlink:href="#diagonal_cross_hatch" patternTransform="matrix(1 0 0 1 226.4696 -60.2524)">
		</pattern>
		
			<rect x="379.2" y="120.56" style="fill-rule:evenodd;clip-rule:evenodd;fill:url(#SVGID_00000053518122339718686050000005694727554294754452_);" width="6.51" height="122.81"/>
	</g>
	<g id="HATCH_1_">
		
			<pattern  id="SVGID_00000111164384799613105110000013961126679119925145_" xlink:href="#diagonal_cross_hatch" patternTransform="matrix(1 0 0 1 226.4696 -60.2524)">
		</pattern>
		
			<rect x="257.89" y="100.2" style="fill-rule:evenodd;clip-rule:evenodd;fill:url(#SVGID_00000111164384799613105110000013961126679119925145_);" width="6.51" height="143.17"/>
	</g>
</g>
<g id="LINE">
	<g>
		<line class="st4" x1="28.31" y1="243.16" x2="524.21" y2="243.16"/>
	</g>
</g>
<g id="LINE_1_">
	<g>
		<line class="st4" x1="503.77" y1="243.16" x2="503.77" y2="120.35"/>
	</g>
</g>
<g id="LINE_2_">
	<g>
		<line class="st4" x1="503.77" y1="119.55" x2="382.46" y2="119.55"/>
	</g>
</g>
<g id="LINE_3_">
	<g>
		<line class="st4" x1="385.71" y1="243.16" x2="385.71" y2="120.35"/>
	</g>
</g>
<g id="LINE_4_">
	<g>
		<line class="st4" x1="379.2" y1="243.16" x2="379.2" y2="120.35"/>
	</g>
</g>
<g>
	<g id="LINE_5_">
		<g>
			<line class="st4" x1="503.77" y1="119.91" x2="444.74" y2="76.76"/>
		</g>
	</g>
	<g id="LINE_6_">
		<g>
			<line class="st4" x1="444.74" y1="76.76" x2="382.46" y2="119.91"/>
		</g>
	</g>
</g>
<g id="LINE_7_">
	<g>
		<line class="st4" x1="382.46" y1="119.55" x2="264.4" y2="119.55"/>
	</g>
</g>
<g id="LINE_8_">
	<g>
		<line class="st4" x1="264.4" y1="243.16" x2="264.4" y2="99.99"/>
	</g>
</g>
<g id="LINE_9_">
	<g>
		<line class="st4" x1="257.89" y1="243.16" x2="257.89" y2="99.99"/>
	</g>
</g>
<g>
	<g id="LINE_10_">
		<g>
			<line class="st4" x1="382.46" y1="119.91" x2="323.43" y2="76.76"/>
		</g>
	</g>
	<g id="LINE_11_">
		<g>
			<line class="st4" x1="323.43" y1="76.76" x2="264.4" y2="117.86"/>
		</g>
	</g>
</g>
<g id="LINE_12_">
	<g>
		<line class="st4" x1="264.4" y1="99.99" x2="257.89" y2="99.99"/>
	</g>
</g>
<g id="LINE_13_">
	<g>
		<line class="st4" x1="257.89" y1="119.55" x2="86.85" y2="119.55"/>
	</g>
</g>
<g id="LINE_14_">
	<g>
		<line class="st4" x1="86.85" y1="243.16" x2="86.85" y2="119.55"/>
	</g>
</g>
<g id="LINE_15_">
	<g>
		<line class="st4" x1="86.85" y1="119.55" x2="172.37" y2="76.76"/>
	</g>
</g>
<g id="LINE_16_">
	<g>
		<line class="st4" x1="257.89" y1="117.98" x2="172.37" y2="76.76"/>
	</g>
</g>
<g id="LINE_17_">
	<g>
		<line class="st4" x1="86.85" y1="225.99" x2="257.89" y2="225.99"/>
	</g>
</g>
<g id="LINE_18_">
	<g>
		<path class="st4" d="M87.35,225.99"/>
		<path class="st4" d="M87.35,243.16"/>
	</g>
</g>
<g id="LINE_19_">
	<g>
		<line class="st4" x1="89.68" y1="243.16" x2="89.68" y2="225.99"/>
	</g>
</g>
<g id="LINE_20_">
	<g>
		<line class="st4" x1="123.25" y1="243.16" x2="123.25" y2="225.99"/>
	</g>
</g>
<g id="LINE_21_">
	<g>
		<line class="st4" x1="125.58" y1="243.16" x2="125.58" y2="225.99"/>
	</g>
</g>
<g id="LINE_22_">
	<g>
		<line class="st4" x1="156.53" y1="243.16" x2="156.53" y2="225.99"/>
	</g>
</g>
<g id="LINE_23_">
	<g>
		<line class="st4" x1="158.86" y1="243.16" x2="158.86" y2="225.99"/>
	</g>
</g>
<g id="LINE_25_">
	<g>
		<line class="st4" x1="255.05" y1="243.16" x2="255.05" y2="225.99"/>
	</g>
</g>
<g id="LINE_26_">
	<g>
		<line class="st4" x1="221.48" y1="243.16" x2="221.48" y2="225.99"/>
	</g>
</g>
<g id="LINE_27_">
	<g>
		<line class="st4" x1="219.15" y1="243.16" x2="219.15" y2="225.99"/>
	</g>
</g>
<g id="LINE_28_">
	<g>
		<line class="st4" x1="188.2" y1="243.16" x2="188.2" y2="225.99"/>
	</g>
</g>
<g id="LINE_29_">
	<g>
		<line class="st4" x1="185.87" y1="243.16" x2="185.87" y2="225.99"/>
	</g>
</g>
<g id="LINE_31_">
	<g>
		<g>
			<line class="st5" x1="251.24" y1="169.88" x2="224.98" y2="169.88"/>
			<g>
				<polygon class="st6" points="249.76,167.7 257.89,169.88 249.76,172.06 				"/>
			</g>
		</g>
	</g>
</g>
<g id="POLYLINE_4_">
	<g id="POLYLINE_13_">
		<g>
			<g>
				<g>
					<g>
						<g>
							<polyline class="st5" points="253.83,249.77 264.82,262.11 279.67,262.11 							"/>
							<g>
								<polygon class="st6" points="252.98,253.19 247.93,243.16 257.31,249.32 								"/>
							</g>
						</g>
					</g>
				</g>
			</g>
		</g>
	</g>
</g>
<g id="POLYLINE_6_">
	<g id="POLYLINE_2_">
		<g>
			<g>
				<g>
					<g>
						<g>
							<polyline class="st5" points="389.88,153.71 397.02,167.13 402.97,167.13 							"/>
							<g>
								<polygon class="st6" points="388.24,156.83 385.71,145.89 393.37,154.09 								"/>
							</g>
						</g>
					</g>
				</g>
			</g>
		</g>
	</g>
</g>
<g id="POLYLINE_8_">
	<g id="POLYLINE_10_">
		<g>
			<g>
				<g>
					<g>
						<g>
							<polyline class="st5" points="329.57,96.37 360.13,44.21 381,44.21 							"/>
							<g>
								<polygon class="st6" points="333.08,96.13 325.09,104.01 328.07,93.19 								"/>
							</g>
						</g>
					</g>
				</g>
			</g>
		</g>
	</g>
</g>
<g id="LINE_30_">
	<g>
		<g>
			<g>
				<g>
					<line class="st5" x1="421.14" y1="103.71" x2="360.13" y2="44.21"/>
					<g>
						<polygon class="st6" points="421.75,100.24 427.48,109.89 417.69,104.4 						"/>
					</g>
				</g>
			</g>
		</g>
	</g>
</g>
<g id="POLYLINE_12_">
	<g id="POLYLINE_9_">
		<g>
			<g>
				<g>
					<g>
						<g>
							<polyline class="st5" points="261.05,91.34 260.61,50.26 244.1,50.26 							"/>
							<g>
								<polygon class="st6" points="263.93,89.33 261.14,100.2 258.12,89.39 								"/>
							</g>
						</g>
					</g>
				</g>
			</g>
		</g>
	</g>
</g>
<g id="POLYLINE_14_">
	<g id="POLYLINE_7_">
		<g>
			<g>
				<g>
					<g>
						<g>
							<polyline class="st5" points="138.2,104.22 105.9,89.88 97.64,89.88 							"/>
							<g>
								<polygon class="st6" points="137.57,100.76 146.3,107.82 135.21,106.07 								"/>
							</g>
						</g>
					</g>
				</g>
			</g>
		</g>
	</g>
</g>
<g id="MTEXT_10_">
</g>
<g id="MTEXT_7_">
	<g>
		<text transform="matrix(1 0 0 1 139.0503 173.5311)" class="st6 st7 st8">Separating wall</text>
	</g>
</g>
<g id="MTEXT_3_">
	<g>
		<text transform="matrix(1 0 0 1 404.5353 171.7857)"><tspan x="0" y="0" class="st6 st7 st8">Separating wall</tspan><tspan x="82.05" y="0" class="st6 st9 st8">  </tspan><tspan x="0" y="14.4" class="st6 st9 st8">to underside of  </tspan><tspan x="0" y="28.8" class="st6 st7 st8">non-combustible</tspan><tspan x="88.05" y="28.8" class="st6 st9 st8">  </tspan><tspan x="0" y="43.2" class="st6 st9 st8">roof covering</tspan></text>
	</g>
</g>
<g id="MTEXT_5_">
	<g>
		<text transform="matrix(1 0 0 1 386.3594 48.0786)"><tspan x="0" y="0" class="st6 st7 st8">Non-combustible </tspan><tspan x="0" y="14.4" class="st6 st9 st8">roof coverings</tspan></text>
	</g>
</g>
<g id="MTEXT_6_">
	<g>
		<text transform="matrix(1 0 0 1 286.0068 266.7381)"><tspan x="0" y="0" class="st6 st7 st8">Separating wall</tspan><tspan x="82.05" y="0" class="st6 st9 st8"> commencing at footings </tspan></text>
	</g>
</g>
<g id="MTEXT_9_">
	<g>
		<text transform="matrix(1 0 0 1 48.2476 77.532)"><tspan x="0" y="0" class="st6 st7 st8">Combustible</tspan><tspan x="66.7" y="0" class="st6 st9 st8"> roof </tspan><tspan x="0" y="14.4" class="st6 st9 st8">covering</tspan></text>
	</g>
</g>
<g id="MTEXT_11_">
	<g>
		<text transform="matrix(1 0 0 1 67.3438 38.1448)"><tspan x="0" y="0" class="st6 st7 st8">Separating wall</tspan><tspan x="82.05" y="0" class="st6 st9 st8"> to extend 450 mm </tspan><tspan x="0" y="14.4" class="st6 st9 st8">above </tspan><tspan x="36.03" y="14.4" class="st6 st7 st8">combustible</tspan><tspan x="100.06" y="14.4" class="st6 st9 st8"> roof covering </tspan></text>
	</g>
</g>
</svg>
