<?xml version="1.0" encoding="utf-8"?>
<!-- Generator: Adobe Illustrator 25.2.1, SVG Export Plug-In . SVG Version: 6.00 Build 0)  -->
<svg version="1.1" xmlns="http://www.w3.org/2000/svg" xmlns:xlink="http://www.w3.org/1999/xlink" x="0px" y="0px"
	 viewBox="0 0 552.8 333.3" style="enable-background:new 0 0 552.8 333.3;" xml:space="preserve">
<style type="text/css">
	.st0{fill:#C5C7C9;}
	.st1{fill:none;stroke:#231F20;stroke-width:1.5;stroke-linecap:round;stroke-linejoin:round;stroke-miterlimit:10;}
	.st2{fill:none;stroke:#231F20;stroke-linecap:round;stroke-linejoin:round;stroke-miterlimit:10;}
	.st3{fill:none;stroke:#231F20;stroke-width:0.75;stroke-miterlimit:10;}
	.st4{fill:none;stroke:#231F20;stroke-width:0.75;stroke-miterlimit:10;stroke-dasharray:12.0892,6.0446;}
	.st5{fill:none;stroke:#231F20;stroke-width:0.25;stroke-miterlimit:10;}
	.st6{fill:#231F20;}
	.st7{font-family:'ArialMT';}
	.st8{font-size:12px;}
	.st9{font-family:'Arial-ItalicMT';}
</style>
<g id="LINE_50">
</g>
<g id="LINE_25">
	<polyline class="st0" points="357.7,120.4 359,123.5 309.7,142.3 308.6,139.4 357.7,120.4 	"/>
	<g>
		<g id="LINE">
			<g>
				<line class="st1" x1="357.7" y1="120.4" x2="308.6" y2="139.4"/>
			</g>
		</g>
		<g id="LINE_1_">
			<g>
				<line class="st1" x1="358.1" y1="123.5" x2="309.7" y2="142.3"/>
			</g>
		</g>
		<g id="LINE_3_">
			<g>
				<line class="st2" x1="358.1" y1="123.5" x2="358.7" y2="123.5"/>
			</g>
		</g>
		<g id="LINE_106_">
			<g>
				<line class="st2" x1="357.7" y1="120.4" x2="458.1" y2="120.4"/>
			</g>
		</g>
		<g id="LINE_105_">
			<g>
				<line class="st2" x1="335.1" y1="217.9" x2="287.4" y2="217.9"/>
			</g>
		</g>
		<g id="LINE_104_">
			<g>
				<line class="st2" x1="287.4" y1="235.3" x2="287.4" y2="150.9"/>
			</g>
		</g>
		<g id="LINE_103_">
			<g>
				<line class="st2" x1="335.1" y1="217.9" x2="335.1" y2="132.4"/>
			</g>
		</g>
		<g id="LINE_102_">
			<g>
				<line class="st2" x1="291.4" y1="217.9" x2="291.4" y2="149.4"/>
			</g>
		</g>
		<g id="LINE_101_">
			<g>
				<line class="st2" x1="339" y1="200.5" x2="339" y2="130.9"/>
			</g>
		</g>
		<g id="LINE_100_">
			<g>
				<line class="st2" x1="309.3" y1="217.9" x2="309.3" y2="142.4"/>
			</g>
		</g>
		<g id="LINE_99_">
			<g>
				<line class="st2" x1="313.2" y1="217.9" x2="313.2" y2="140.9"/>
			</g>
		</g>
		<g id="LINE_98_">
			<g>
				<line class="st2" x1="287.4" y1="235.3" x2="239.8" y2="235.3"/>
			</g>
		</g>
		<g id="LINE_97_">
			<g>
				<line class="st2" x1="239.8" y1="252.7" x2="239.8" y2="169.4"/>
			</g>
		</g>
		<g id="LINE_96_">
			<g>
				<line class="st2" x1="243.7" y1="235.3" x2="243.7" y2="167.8"/>
			</g>
		</g>
		<g id="LINE_95_">
			<g>
				<line class="st2" x1="261.6" y1="235.3" x2="261.6" y2="160.9"/>
			</g>
		</g>
		<g id="LINE_94_">
			<g>
				<line class="st2" x1="265.6" y1="235.3" x2="265.6" y2="159.4"/>
			</g>
		</g>
		<g id="LINE_93_">
			<g>
				<line class="st2" x1="239.8" y1="252.7" x2="192.1" y2="252.7"/>
			</g>
		</g>
		<g id="LINE_92_">
			<g>
				<line class="st2" x1="192.1" y1="270.1" x2="192.1" y2="187.8"/>
			</g>
		</g>
		<g id="LINE_91_">
			<g>
				<line class="st2" x1="196" y1="252.7" x2="196" y2="186.3"/>
			</g>
		</g>
		<g id="LINE_90_">
			<g>
				<line class="st2" x1="214" y1="252.7" x2="214" y2="179.4"/>
			</g>
		</g>
		<g id="LINE_89_">
			<g>
				<line class="st2" x1="217.9" y1="252.7" x2="217.9" y2="177.8"/>
			</g>
		</g>
		<g id="LINE_88_">
			<g>
				<line class="st2" x1="192.1" y1="270.1" x2="144.4" y2="270.1"/>
			</g>
		</g>
		<g id="LINE_87_">
			<g>
				<line class="st2" x1="144.4" y1="287.5" x2="144.4" y2="206.3"/>
			</g>
		</g>
		<g id="LINE_86_">
			<g>
				<line class="st2" x1="148.3" y1="270.1" x2="148.3" y2="204.8"/>
			</g>
		</g>
		<g id="LINE_85_">
			<g>
				<line class="st2" x1="166.3" y1="270.1" x2="166.3" y2="197.8"/>
			</g>
		</g>
		<g id="LINE_84_">
			<g>
				<line class="st2" x1="170.2" y1="270.1" x2="170.2" y2="196.3"/>
			</g>
		</g>
		<g id="LINE_83_">
			<g>
				<line class="st2" x1="144.4" y1="287.5" x2="96.7" y2="287.5"/>
			</g>
		</g>
		<g id="LINE_82_">
			<g>
				<line class="st2" x1="96.7" y1="303.9" x2="96.7" y2="224.8"/>
			</g>
		</g>
		<g id="LINE_81_">
			<g>
				<line class="st2" x1="100.6" y1="287.5" x2="100.6" y2="223.3"/>
			</g>
		</g>
		<g id="LINE_80_">
			<g>
				<line class="st2" x1="118.6" y1="287.5" x2="118.6" y2="216.3"/>
			</g>
		</g>
		<g id="LINE_79_">
			<g>
				<line class="st2" x1="122.5" y1="287.5" x2="122.5" y2="214.8"/>
			</g>
		</g>
		<g id="LINE_78_">
			<g>
				<line class="st2" x1="333.8" y1="228.8" x2="96.7" y2="303.9"/>
			</g>
		</g>
		<g id="ARC_3_">
			<g>
				<path class="st2" d="M94.8,222.3c-0.8,0.3-1.2,1.2-0.9,2c0.3,0.8,1.2,1.2,2,0.9"/>
			</g>
		</g>
		<g id="LINE_77_">
			<g>
				<line class="st2" x1="96.7" y1="303.9" x2="28.3" y2="303.9"/>
			</g>
		</g>
		<g id="LINE_76_">
			<g>
				<line class="st2" x1="335.1" y1="200.5" x2="456.5" y2="200.5"/>
			</g>
		</g>
		<g id="LINE_75_">
			<g>
				<line class="st2" x1="333.8" y1="228.8" x2="456.5" y2="228.8"/>
			</g>
		</g>
		<g id="LINE_74_">
			<g>
				<line class="st2" x1="358.6" y1="200.5" x2="358.6" y2="123.5"/>
			</g>
		</g>
		<g id="LINE_73_">
			<g>
				<line class="st2" x1="362.5" y1="200.5" x2="362.5" y2="123.5"/>
			</g>
		</g>
		<g id="LINE_72_">
			<g>
				<line class="st2" x1="382.1" y1="200.5" x2="382.1" y2="123.5"/>
			</g>
		</g>
		<g id="LINE_71_">
			<g>
				<line class="st2" x1="386" y1="200.5" x2="386" y2="123.5"/>
			</g>
		</g>
		<g id="LINE_70_">
			<g>
				<line class="st2" x1="405.6" y1="200.5" x2="405.6" y2="123.5"/>
			</g>
		</g>
		<g id="LINE_69_">
			<g>
				<line class="st2" x1="409.5" y1="200.5" x2="409.5" y2="123.5"/>
			</g>
		</g>
		<g id="LINE_68_">
			<g>
				<line class="st2" x1="429.1" y1="200.5" x2="429.1" y2="123.5"/>
			</g>
		</g>
		<g id="LINE_67_">
			<g>
				<line class="st2" x1="433" y1="200.5" x2="433" y2="123.5"/>
			</g>
		</g>
		<g id="LINE_66_">
			<g>
				<line class="st2" x1="452.6" y1="200.5" x2="452.6" y2="123.5"/>
			</g>
		</g>
		<g id="LINE_65_">
			<g>
				<line class="st2" x1="456.5" y1="228.8" x2="456.5" y2="123.5"/>
			</g>
		</g>
		<g id="ARC_2_">
			<g>
				<path class="st2" d="M458.1,123.5c0.9,0,1.6-0.7,1.6-1.6c0-0.9-0.7-1.6-1.6-1.6"/>
			</g>
		</g>
		<g id="LINE_64_">
			<g>
				<line class="st2" x1="308.6" y1="139.4" x2="94.8" y2="222.3"/>
			</g>
		</g>
		<g id="LINE_63_">
			<g>
				<line class="st2" x1="309.7" y1="142.3" x2="95.9" y2="225.1"/>
			</g>
		</g>
		<g id="LINE_62_">
			<g>
				<line class="st2" x1="359" y1="123.5" x2="458.1" y2="123.5"/>
			</g>
		</g>
	</g>
</g>
<g id="LINE_25_DESH">
	<g id="LINE_31_">
		<g id="LINE_11_">
			<g>
				<g>
					<g>
						<line class="st3" x1="335.1" y1="200.5" x2="329.5" y2="202.5"/>
						<line class="st4" x1="323.8" y1="204.6" x2="105.2" y2="284.4"/>
						<line class="st3" x1="102.4" y1="285.4" x2="96.7" y2="287.5"/>
					</g>
				</g>
			</g>
		</g>
	</g>
</g>
<g id="LINE_18">
	<g id="LINE_59_">
		<g>
			<line class="st5" x1="92" y1="287.5" x2="71.5" y2="287.5"/>
		</g>
	</g>
	<g id="LINE_58_">
		<g>
			<line class="st5" x1="90.1" y1="222.3" x2="71.5" y2="222.3"/>
		</g>
	</g>
	<g id="LINE_56_">
		<g>
			<line class="st5" x1="465.2" y1="200.5" x2="497.3" y2="200.5"/>
		</g>
	</g>
	<g id="LINE_55_">
		<g>
			<line class="st5" x1="466.6" y1="120.4" x2="497.3" y2="120.4"/>
		</g>
	</g>
	<g>
		<g id="LINE_57_">
			<g id="LINE_7_">
				<g>
					<g>
						<g>
							<g>
								<g>
									<line class="st5" x1="74" y1="278.6" x2="74" y2="231.1"/>
									<g>
										<polygon class="st6" points="76.9,276.7 74,287.5 71.1,276.7 										"/>
									</g>
									<g>
										<polygon class="st6" points="76.9,233.1 74,222.3 71.1,233.1 										"/>
									</g>
								</g>
							</g>
						</g>
					</g>
				</g>
			</g>
		</g>
		<g id="LINE_9_">
			<g id="LINE_4_">
				<g>
					<g>
						<g>
							<g>
								<g>
									<line class="st5" x1="490.8" y1="191.6" x2="490.8" y2="129.2"/>
									<g>
										<polygon class="st6" points="493.7,189.6 490.8,200.5 487.9,189.6 										"/>
									</g>
									<g>
										<polygon class="st6" points="493.7,131.2 490.8,120.4 487.9,131.2 										"/>
									</g>
								</g>
							</g>
						</g>
					</g>
				</g>
			</g>
		</g>
	</g>
	<g id="CIRCLE_1_">
		<g>
			<path class="st5" d="M307.3,131.5c0-14.6,11.8-26.4,26.4-26.4c14.6,0,26.4,11.8,26.4,26.4s-11.8,26.4-26.4,26.4
				C319.2,157.9,307.3,146.1,307.3,131.5L307.3,131.5z"/>
		</g>
	</g>
	<g>
		<g>
			<g>
				<g>
					<g>
						<polyline class="st5" points="332,121 332,32.2 340.3,32.2 						"/>
						<g>
							<polygon class="st6" points="334.9,119.1 332,129.9 329.1,119.1 							"/>
						</g>
					</g>
				</g>
			</g>
		</g>
		<g>
			<g>
				<g>
					<g>
						<polyline class="st5" points="301.3,117.6 267.7,106.3 241.7,106.3 						"/>
						<g>
							<polygon class="st6" points="300.3,114.2 309.7,120.4 298.4,119.7 							"/>
						</g>
					</g>
				</g>
			</g>
		</g>
	</g>
</g>
<g id="TXT25">
	<g id="MTEXT_5_">
		<g>
			<text transform="matrix(0 -1 1 0 486.3681 194.3857)"><tspan x="0" y="0" class="st6 st7 st8">Not less than</tspan><tspan x="25" y="15" class="st6 st7 st8">1 m</tspan></text>
		</g>
	</g>
	<g id="MTEXT_1_">
		<g>
			<text transform="matrix(0 -1 1 0 70.0088 289.8906)"><tspan x="0" y="0" class="st6 st7 st8">Not less than</tspan><tspan x="13.3" y="14.4" class="st6 st7 st8">865 mm</tspan></text>
		</g>
	</g>
	<g id="MTEXT_2_">
		<g>
			<text transform="matrix(1 0 0 1 467.848 221.0919)" class="st6 st9 st8">Landing</text>
		</g>
	</g>
	<g>
		<g id="MTEXT_3_">
			<g>
				<text transform="matrix(1 0 0 1 154.5867 109.4541)" class="st6 st7 st8">Transition zone</text>
			</g>
		</g>
		<g id="MTEXT_4_">
			<g>
				<text transform="matrix(1 0 0 1 344.6681 36.8426)"><tspan x="0" y="0" class="st6 st7 st8">Barrier allowed to continue </tspan><tspan x="0" y="14.4" class="st6 st7 st8">through until it meets </tspan><tspan x="0" y="28.8" class="st6 st9 st8">landing</tspan><tspan x="38.7" y="28.8" class="st6 st7 st8"> height  </tspan></text>
			</g>
		</g>
	</g>
</g>
</svg>
