<?xml version="1.0" encoding="utf-8"?>
<!-- Generator: Adobe Illustrator 25.2.1, SVG Export Plug-In . SVG Version: 6.00 Build 0)  -->
<svg version="1.1" id="v1_x5F_D3-2_x5F_2011-ORIGINAL_xA0_Image_1_"
	 xmlns="http://www.w3.org/2000/svg" xmlns:xlink="http://www.w3.org/1999/xlink" x="0px" y="0px" viewBox="0 0 552.8 212.6"
	 style="enable-background:new 0 0 552.8 212.6;" xml:space="preserve">
<style type="text/css">
	.st0{fill:none;stroke:#000000;stroke-width:0.75;stroke-linecap:round;stroke-linejoin:round;stroke-miterlimit:10;}
	.st1{fill:none;stroke:#000000;stroke-width:0.75;stroke-linecap:round;stroke-miterlimit:10;}
	.st2{fill:none;}
	.st3{font-family:'ArialMT';}
	.st4{font-size:12px;}
	.st5{fill:none;stroke:#000000;stroke-miterlimit:10;}
	.st6{fill:none;stroke:#000000;stroke-width:0.75;stroke-linecap:square;stroke-miterlimit:10;}
</style>
<g>
	<path class="st0" d="M91.4,127.9c0,6.6,5.3,11.9,11.9,11.9h52.7c6.6,0,11.9,5.3,11.9,11.9c0-6.6,5.3-11.9,11.9-11.9h52.2
		c6.6,0,11.9-5.3,11.9-11.9"/>
	<path class="st0" d="M91.7,103.1c0,3.1,2.5,5.6,5.6,5.6H122c3.1,0,5.6,2.5,5.6,5.6c0-3.1,2.5-5.6,5.6-5.6h24.5
		c3.1,0,5.6-2.5,5.6-5.6"/>
	<path class="st0" d="M172.5,103.1c0,3.1,2.5,5.6,5.6,5.6h24.7c3.1,0,5.6,2.5,5.6,5.6c0-3.1,2.5-5.6,5.6-5.6h24.5
		c3.1,0,5.6-2.5,5.6-5.6"/>
	<path class="st0" d="M335.7,147c0,5.3,4.3,9.7,9.7,9.7h42.8c5.3,0,9.7,4.3,9.7,9.7c0-5.3,4.3-9.7,9.7-9.7h42.3
		c5.3,0,9.7-4.3,9.7-9.7"/>
	<path class="st0" d="M334.5,105.2c0,1.7,1.4,3.2,3.2,3.2h14c1.7,0,3.2,1.4,3.2,3.2c0-1.7,1.4-3.2,3.2-3.2h13.9
		c1.7,0,3.2-1.4,3.2-3.2"/>
	<path class="st0" d="M420,105.2c0,1.7,1.4,3.2,3.2,3.2h14c1.7,0,3.2,1.4,3.2,3.2c0-1.7,1.4-3.2,3.2-3.2h13.9c1.7,0,3.2-1.4,3.2-3.2
		"/>
	<path class="st0" d="M375.1,105.2c0,1.9,1.6,3.5,3.5,3.5h15.5c1.9,0,3.5,1.6,3.5,3.5c0-1.9,1.6-3.5,3.5-3.5h15.4
		c1.9,0,3.5-1.6,3.5-3.5"/>
	<line class="st1" x1="397.6" y1="134.9" x2="397.6" y2="112.2"/>
</g>
<g>
	<g>
		<rect x="259.3" y="29.8" class="st2" width="60.7" height="47.1"/>
		<text transform="matrix(1 0 0 1 262.6406 40.082)"><tspan x="0" y="0" class="st3 st4">More than </tspan><tspan x="6.3" y="14.4" class="st3 st4">width of </tspan><tspan x="-0.7" y="28.8" class="st3 st4">doorway b</tspan></text>
	</g>
	<g>
		<text transform="matrix(1 0 0 1 179.5732 126.9174)" class="st3 st4">Doorway b</text>
	</g>
	<g>
		<text transform="matrix(1 0 0 1 98.792 126.9174)" class="st3 st4">Doorway a</text>
	</g>
	<g>
		<text transform="matrix(1 0 0 1 326.2661 126.9174)" class="st3 st4">Doorway c</text>
	</g>
	<g>
		<text transform="matrix(1 0 0 1 370.881 146.9174)" class="st3 st4">Doorway d</text>
	</g>
	<g>
		<text transform="matrix(1 0 0 1 412.1791 126.9174)" class="st3 st4">Doorway e</text>
	</g>
	<g>
		<text transform="matrix(1 0 0 1 369.2428 178.9174)" class="st3 st4">1 entrance</text>
	</g>
	<g>
		<text transform="matrix(1 0 0 1 139.9211 163.9174)" class="st3 st4">1 entrance</text>
	</g>
</g>
<path class="st0" d="M335.7,88.1c0-4-3.2-7.2-7.2-7.2h-31.7c-4,0-7.2-3.2-7.2-7.2c0,4-3.2,7.2-7.2,7.2h-31.4c-4,0-7.2,3.2-7.2,7.2"
	/>
<g>
	<line class="st5" x1="56.2" y1="94.2" x2="91.7" y2="94.2"/>
	<line class="st5" x1="163.3" y1="94.2" x2="172.5" y2="94.2"/>
	<line class="st5" x1="415" y1="94.2" x2="426.1" y2="94.2"/>
	<line class="st5" x1="461.1" y1="94.2" x2="496.6" y2="94.2"/>
	<path class="st5" d="M425.6,94.2V58.9c19.7,0,35.7,16,35.7,35.7"/>
	<path class="st5" d="M415.4,94.6c0-19.7-16-35.7-35.7-35.7v35.2h-0.8h-8"/>
	<path class="st5" d="M371.4,94.6c0-19.7-16-35.7-35.7-35.7v35.2h-91.6h-0.2V58.9c-19.7,0-35.7,16-35.7,35.7l0,0
		c0-19.7-16.5-35.7-36.2-35.7v35.2"/>
	<path class="st5" d="M163.3,94.2h-0.2V58.9c-19.7,0-35.7,16-35.7,35.7l0,0c0-19.7-16.5-35.7-36.2-35.7v35.2"/>
</g>
<path class="st5" d="M290.5,94.6"/>
<g>
	<line class="st0" x1="91.2" y1="94.3" x2="163.3" y2="94.3"/>
	<line class="st6" x1="172.2" y1="94.3" x2="244.3" y2="94.3"/>
	<line class="st0" x1="426.1" y1="94.3" x2="461.1" y2="94.3"/>
	<line class="st0" x1="379.9" y1="94.3" x2="415" y2="94.3"/>
	<line class="st0" x1="335.7" y1="94.3" x2="370.8" y2="94.3"/>
</g>
</svg>
