<?xml version="1.0" encoding="utf-8"?>
<!-- Generator: Adobe Illustrator 25.2.1, SVG Export Plug-In . SVG Version: 6.00 Build 0)  -->
<svg version="1.1" id="_x30_" xmlns="http://www.w3.org/2000/svg" xmlns:xlink="http://www.w3.org/1999/xlink" x="0px" y="0px"
	 viewBox="0 0 552.8 319.1" style="enable-background:new 0 0 552.8 319.1;" xml:space="preserve">
<style type="text/css">
	.st0{fill:none;stroke:#231F20;stroke-width:0.25;stroke-miterlimit:10;}
	.st1{fill:#231F20;}
	.st2{fill:none;stroke:#231F20;stroke-width:0.75;stroke-miterlimit:10;}
	.st3{fill:none;stroke:#000000;stroke-width:0.583;stroke-linecap:round;stroke-linejoin:round;stroke-miterlimit:10;}
	.st4{font-family:'ArialMT';}
	.st5{font-size:12px;}
	.st6{font-family:'Arial-BoldMT';}
	.st7{fill:none;stroke:#231F20;stroke-miterlimit:10;}
	.st8{fill:none;stroke:#231F20;stroke-width:1.5;stroke-miterlimit:10;}
</style>
<g>
	<g id="LINE_29_">
		<line class="st0" x1="148.6" y1="61.5" x2="63.6" y2="68.2"/>
	</g>
	<g id="LINE_30_">
		<line class="st0" x1="74.7" y1="99" x2="63.6" y2="99.9"/>
	</g>
	<g id="LINE_31_">
		<line class="st0" x1="74.7" y1="61.5" x2="44.8" y2="61.5"/>
	</g>
	<g id="LINE_32_">
		<line class="st0" x1="145" y1="49.2" x2="44.8" y2="49.2"/>
	</g>
	<g id="LINE_94_">
		<line class="st0" x1="47.8" y1="48.9" x2="47.8" y2="61.2"/>
	</g>
</g>
<g id="LINE_62_">
	<g id="LINE_126_">
		<g>
			<g>
				<g>
					<line class="st0" x1="293" y1="68.2" x2="293" y2="73.5"/>
					<g>
						<polygon class="st1" points="290.8,69.7 293,61.5 295.2,69.7 						"/>
					</g>
				</g>
			</g>
		</g>
	</g>
</g>
<g id="LINE_63_">
	<g id="LINE_125_">
		<g>
			<g>
				<g>
					<line class="st0" x1="293" y1="42.4" x2="293" y2="37.2"/>
					<g>
						<polygon class="st1" points="295.2,40.9 293,49 290.8,40.9 						"/>
					</g>
				</g>
			</g>
		</g>
	</g>
</g>
<g id="LINE_66_">
	<g>
		<g>
			<line class="st0" x1="311.6" y1="92" x2="311.6" y2="67.9"/>
			<g>
				<polygon class="st1" points="313.8,90.5 311.6,98.7 309.4,90.5 				"/>
			</g>
			<g>
				<polygon class="st1" points="313.8,69.4 311.6,61.3 309.4,69.4 				"/>
			</g>
		</g>
	</g>
</g>
<g id="LINE_67_">
	<line class="st2" x1="367.9" y1="46.3" x2="367.9" y2="35.9"/>
</g>
<g id="LINE_68_">
	<line class="st2" x1="431.6" y1="46.3" x2="431.6" y2="35.9"/>
</g>
<g id="LINE_69_">
	<g id="LINE_123_">
		<g>
			<g>
				<g>
					<line class="st0" x1="374.6" y1="39.3" x2="425" y2="39.3"/>
					<g>
						<polygon class="st1" points="376,41.5 367.9,39.3 376,37.1 						"/>
					</g>
					<g>
						<polygon class="st1" points="423.5,41.5 431.6,39.3 423.5,37.1 						"/>
					</g>
				</g>
			</g>
		</g>
	</g>
</g>
<g id="LINE_84_">
	<g>
		<g>
			<line class="st0" x1="281" y1="238" x2="281" y2="214.2"/>
			<g>
				<polygon class="st1" points="283.2,236.5 281,244.7 278.9,236.5 				"/>
			</g>
			<g>
				<polygon class="st1" points="283.2,215.7 281,207.6 278.9,215.7 				"/>
			</g>
		</g>
	</g>
</g>
<g id="LINE_87_">
	<g>
		<g>
			<line class="st0" x1="281" y1="160.5" x2="281" y2="200.9"/>
			<g>
				<polygon class="st1" points="278.9,162 281,153.9 283.2,162 				"/>
			</g>
			<g>
				<polygon class="st1" points="278.9,199.4 281,207.6 283.2,199.4 				"/>
			</g>
		</g>
	</g>
</g>
<g>
	<g id="LINE_83_">
		<g>
			<line class="st0" x1="288.8" y1="244.7" x2="277.2" y2="244.7"/>
		</g>
	</g>
	<g id="LINE_85_">
		<g>
			<line class="st0" x1="340.5" y1="153.9" x2="277.2" y2="153.9"/>
		</g>
	</g>
	<g id="LINE_86_">
		<g>
			<line class="st0" x1="288.8" y1="207.3" x2="277.2" y2="207.3"/>
		</g>
	</g>
	<g id="LINE_88_">
		<g>
			<line class="st0" x1="344.5" y1="251.3" x2="344.5" y2="265.8"/>
		</g>
	</g>
	<g id="LINE_89_">
		<g>
			<line class="st0" x1="411.6" y1="251.4" x2="411.6" y2="265.8"/>
		</g>
	</g>
</g>
<g id="LINE_90_">
	<path class="st3" d="M400.4,260.8"/>
	<path class="st3" d="M355.7,260.8"/>
</g>
<g id="LINE_91_">
	<g id="LINE_19_">
		<g>
			<g>
				<g>
					<line class="st0" x1="362" y1="225.7" x2="429.1" y2="214.4"/>
					<g>
						<polygon class="st1" points="363.8,227.6 355.4,226.8 363.1,223.3 						"/>
					</g>
				</g>
			</g>
		</g>
	</g>
</g>
<g id="LINE_92_">
	<g id="LINE_18_">
		<g>
			<g>
				<g>
					<line class="st0" x1="383.8" y1="189.2" x2="429.1" y2="214.4"/>
					<g>
						<polygon class="st1" points="384.1,191.8 378,185.9 386.2,188 						"/>
					</g>
				</g>
			</g>
		</g>
	</g>
</g>
<g id="LINE_93_">
	<g id="LINE_11_">
		<g>
			<g>
				<g>
					<line class="st0" x1="404.2" y1="175.2" x2="429.1" y2="214.4"/>
					<g>
						<polygon class="st1" points="403.2,177.6 400.7,169.6 406.9,175.3 						"/>
					</g>
				</g>
			</g>
		</g>
	</g>
</g>
<g id="POLYLINE_25_">
	<g id="POLYLINE_2_">
		<g>
			<g>
				<g>
					<polyline class="st0" points="368.3,208.6 382.6,198.5 429.1,214.4 					"/>
					<g>
						<polygon class="st1" points="370.8,209.5 362.9,212.4 368.3,205.9 						"/>
					</g>
				</g>
			</g>
		</g>
	</g>
</g>
<text transform="matrix(0 -1 1 0 39.2901 85.0507)" class="st1 st4 st5">Step ≤ 200</text>
<g id="MTEXT_1_">
	<g>
		<text transform="matrix(1 0 0 1 98.6671 112.2964)" class="st1 st4 st5">Slope ≤ 1 : 10</text>
	</g>
</g>
<g id="MTEXT_2_">
	<text transform="matrix(0 -1 1 0 44.0635 217.7637)" class="st4 st5">Step ≤ 200</text>
</g>
<g id="MTEXT_3_">
	<g>
		<text transform="matrix(0 -1 1 0 284.8335 84.0508)" class="st1 st4 st5">Step ≤ 200</text>
	</g>
</g>
<g id="MTEXT_4_">
	<g>
		<text transform="matrix(1 0 0 1 388.8648 37.3811)" class="st1 st4 st5">1.5 D</text>
	</g>
</g>
<g id="MTEXT_5_">
	<g>
		<text transform="matrix(1 0 0 1 144.6646 173.0239)" class="st1 st4 st5">1.5 D</text>
	</g>
</g>
<g id="MTEXT_6_">
	<text transform="matrix(0 -1 1 0 270.8739 208.3243)" class="st4 st5">Step &gt; 200</text>
</g>
<g id="MTEXT_7_">
	<g>
		<text transform="matrix(0 -1 1 0 297.7433 203.9124)" class="st1 st4 st5">but ≤ 2 D</text>
	</g>
</g>
<g id="MTEXT_8_">
	<g>
		<text transform="matrix(1 0 0 1 363.6996 258.0907)" class="st1 st4 st5">1.5 D</text>
	</g>
</g>
<g id="MTEXT_9_">
	<g>
		<text transform="matrix(0 -1 1 0 64.9821 221.0967)" class="st1 st4 st5">D</text>
	</g>
</g>
<g id="MTEXT_27_">
	<g>
		<text transform="matrix(0 -1 1 0 61.9819 88.0948)" class="st1 st4 st5">D</text>
	</g>
</g>
<g id="MTEXT_29_">
	<g>
		<text transform="matrix(0 -1 1 0 305.9973 84.0948)" class="st1 st4 st5">D</text>
	</g>
</g>
<g id="MTEXT_31_">
	<g>
		<text transform="matrix(0 -1 1 0 275.9954 230.0967)" class="st1 st4 st5">D</text>
	</g>
</g>
<g id="MTEXT_11_">
	<text transform="matrix(1 0 0 1 433.5443 218.7413)"><tspan x="0" y="0" class="st4 st5">Extensions 300 </tspan><tspan x="0" y="14.4" class="st4 st5">or 25 bar </tspan><tspan x="0" y="28.8" class="st4 st5">diameters </tspan></text>
</g>
<g id="MTEXT_12_">
	<g>
		<text transform="matrix(1 0 0 1 251.3702 290.5733)" class="st1 st6 st5">Sections</text>
	</g>
</g>
<g id="MTEXT_13_">
	<g>
		<text transform="matrix(1 0 0 1 105.6222 132.6463)"><tspan x="0" y="0" class="st1 st6 st5">(a) </tspan><tspan x="18" y="0" class="st1 st4 st5">Method A</tspan></text>
	</g>
</g>
<g id="MTEXT_14_">
	<g>
		<text transform="matrix(1 0 0 1 344.1062 131.7961)"><tspan x="0" y="0" class="st1 st6 st5">(b) </tspan><tspan x="18.7" y="0" class="st1 st4 st5">Method B</tspan></text>
	</g>
</g>
<g id="MTEXT_15_">
	<g>
		<text transform="matrix(1 0 0 1 105.6336 281.8197)"><tspan x="0" y="0" class="st1 st6 st5">(c) </tspan><tspan x="18" y="0" class="st1 st4 st5">Method C</tspan></text>
	</g>
</g>
<g id="MTEXT_16_">
	<g>
		<text transform="matrix(1 0 0 1 343.7748 281.8195)"><tspan x="0" y="0" class="st1 st6 st5">(d) </tspan><tspan x="18.7" y="0" class="st1 st4 st5">Method D</tspan></text>
	</g>
</g>
<g>
	<g>
		<g id="LINE_99_">
			<polyline class="st7" points="235.3,49.2 148.6,49.2 148.6,61.5 78.5,61.5 			"/>
		</g>
		<g id="LINE_102_">
			<line class="st7" x1="235.3" y1="86.5" x2="78.3" y2="98.8"/>
		</g>
	</g>
</g>
<g>
	<g id="LINE_103_">
		<polyline class="st7" points="239.7,185.9 127.1,185.9 127.1,198.2 82.9,198.2 		"/>
	</g>
	<g id="LINE_106_">
		<polyline class="st7" points="239.7,223.2 190.9,223.2 190.9,235.5 82.7,235.5 		"/>
	</g>
</g>
<g>
	<g id="LINE_109_">
		<polyline class="st7" points="480.4,49 367.9,49 367.9,61.3 323.7,61.3 		"/>
	</g>
	<g id="LINE_112_">
		<polyline class="st7" points="480.5,86.4 431.6,86.4 431.6,98.7 323.4,98.7 		"/>
	</g>
</g>
<g>
	<g id="LINE_116_">
		<g>
			<polyline class="st7" points="292.9,207.3 344.5,207.3 344.5,153.9 475.1,153.9 			"/>
		</g>
	</g>
	<g id="LINE_117_">
		<g>
			<polyline class="st7" points="475.1,191.2 411.6,191.2 411.6,244.7 292.9,244.7 			"/>
		</g>
	</g>
</g>
<polyline class="st2" points="475.4,196 475.4,175 472.7,172.8 478.1,172.8 475.4,170.5 475.4,149.6 "/>
<g>
	<g id="LINE_60_">
		<g>
			<line class="st0" x1="319.4" y1="61.3" x2="290" y2="61.3"/>
		</g>
	</g>
	<g id="LINE_61_">
		<g>
			<line class="st0" x1="364.1" y1="49" x2="290" y2="49"/>
		</g>
	</g>
	<g id="LINE_65_">
		<g>
			<line class="st0" x1="319.4" y1="98.7" x2="307.8" y2="98.7"/>
		</g>
	</g>
	<g id="LINE_121_">
		<g>
			<line class="st0" x1="293" y1="49.5" x2="293" y2="61.5"/>
		</g>
	</g>
</g>
<g id="LINE_28_">
	<g>
		<g>
			<line class="st0" x1="67" y1="93" x2="67" y2="74.5"/>
			<g>
				<polygon class="st1" points="69.2,91.5 67,99.6 64.8,91.5 				"/>
			</g>
			<g>
				<polygon class="st1" points="69.2,76 67,67.9 64.8,76 				"/>
			</g>
		</g>
	</g>
</g>
<g id="LINE_144_">
	<g id="LINE_145_">
		<g>
			<g>
				<g>
					<line class="st0" x1="47.8" y1="68.9" x2="47.8" y2="74.2"/>
					<g>
						<polygon class="st1" points="45.7,70.4 47.8,62.2 50,70.4 						"/>
					</g>
				</g>
			</g>
		</g>
	</g>
</g>
<g id="LINE_33_">
	<g id="LINE_146_">
		<g>
			<g>
				<g>
					<line class="st0" x1="47.8" y1="42.1" x2="47.8" y2="36.9"/>
					<g>
						<polygon class="st1" points="50,40.6 47.8,48.8 45.7,40.6 						"/>
					</g>
				</g>
			</g>
		</g>
	</g>
</g>
<g id="LINE_34_">
	<g>
		<g>
			<g>
				<line class="st0" x1="184.2" y1="176.2" x2="133.8" y2="176.2"/>
				<g>
					<polygon class="st1" points="182.7,174 190.9,176.2 182.7,178.3 					"/>
				</g>
				<g>
					<polygon class="st1" points="135.3,174 127.1,176.2 135.3,178.3 					"/>
				</g>
			</g>
		</g>
	</g>
</g>
<g id="LINE_147_">
	<g id="LINE_148_">
		<g>
			<g>
				<g>
					<line class="st0" x1="52.2" y1="204.9" x2="52.2" y2="210.3"/>
					<g>
						<polygon class="st1" points="50.1,206.4 52.2,198.3 54.4,206.4 						"/>
					</g>
				</g>
			</g>
		</g>
	</g>
</g>
<g id="LINE_47_">
	<g id="LINE_149_">
		<g>
			<g>
				<g>
					<line class="st0" x1="52.2" y1="178.8" x2="52.2" y2="173.6"/>
					<g>
						<polygon class="st1" points="54.4,177.3 52.2,185.4 50.1,177.3 						"/>
					</g>
				</g>
			</g>
		</g>
	</g>
</g>
<g id="LINE_46_">
	<g>
		<g>
			<line class="st0" x1="70.8" y1="228.8" x2="70.8" y2="205"/>
			<g>
				<polygon class="st1" points="73,227.3 70.8,235.4 68.6,227.3 				"/>
			</g>
			<g>
				<polygon class="st1" points="73,206.5 70.8,198.3 68.6,206.5 				"/>
			</g>
		</g>
	</g>
</g>
<g>
	<g>
		<g id="LINE_44_">
			<line class="st0" x1="78.6" y1="198.2" x2="49.2" y2="198.2"/>
		</g>
		<g id="LINE_45_">
			<line class="st0" x1="123.3" y1="185.9" x2="49.2" y2="185.9"/>
		</g>
		<g id="LINE_49_">
			<line class="st0" x1="78.6" y1="235.5" x2="67" y2="235.5"/>
		</g>
		<g id="LINE_70_">
			<line class="st0" x1="127.1" y1="183.2" x2="127.1" y2="172.8"/>
		</g>
		<g id="LINE_71_">
			<line class="st0" x1="190.9" y1="183.2" x2="190.9" y2="172.8"/>
		</g>
	</g>
	<line class="st0" x1="52.2" y1="185.9" x2="52.2" y2="198.2"/>
</g>
<polyline class="st2" points="292.9,248.2 292.9,228.7 290.2,226.6 295.6,226.6 292.9,224.5 292.9,205.1 "/>
<g id="LINE_50_">
	<g>
		<g>
			<g>
				<line class="st0" x1="351.4" y1="263.1" x2="404.7" y2="263.1"/>
				<g>
					<polygon class="st1" points="352.9,265.3 344.8,263.1 352.9,260.9 					"/>
				</g>
				<g>
					<polygon class="st1" points="403.2,265.3 411.3,263.1 403.2,260.9 					"/>
				</g>
			</g>
		</g>
	</g>
</g>
<polyline class="st2" points="240.1,228.1 240.1,206.7 237.4,204.3 242.8,204.3 240.1,202 240.1,180.6 "/>
<polyline class="st2" points="82.7,242.5 82.7,220.2 79.9,217.8 85.4,217.8 82.7,215.3 82.7,193 "/>
<polyline class="st2" points="78.3,104.3 78.3,85.3 75.5,82.9 81,82.9 78.3,80.5 78.3,55.5 "/>
<polyline class="st2" points="480.8,90.8 480.8,69.8 478.1,67.6 483.5,67.6 480.8,65.3 480.8,44.4 "/>
<polyline class="st2" points="323.7,104.8 323.7,82.5 321,80 326.4,80 323.7,77.6 323.7,55.3 "/>
<polyline class="st2" points="235.4,92.9 235.4,73.7 232.7,71.3 238.1,71.3 235.4,68.9 235.4,43.7 "/>
<g>
	<g>
		<g id="LINE">
			<line class="st8" x1="235.5" y1="61.3" x2="78.3" y2="73.4"/>
		</g>
		<g id="LINE_1_">
			<line class="st8" x1="235.5" y1="81.5" x2="78.3" y2="93.7"/>
		</g>
	</g>
	<g>
		<g id="LINE_6_">
			<polyline class="st8" points="480.7,81.3 431.6,81.3 367.9,93.6 323.4,93.6 			"/>
		</g>
		<g id="LINE_7_">
			<polyline class="st8" points="480.7,54.1 431.6,54.1 367.9,66.4 323.4,66.4 			"/>
		</g>
	</g>
	<g>
		<g id="LINE_12_">
			<g>
				<line class="st8" x1="475.4" y1="186.1" x2="362.9" y2="186.1"/>
			</g>
		</g>
		<g id="LINE_13_">
			<g>
				<line class="st8" x1="475.4" y1="158.9" x2="362.9" y2="158.9"/>
			</g>
		</g>
		<g id="LINE_14_">
			<g>
				<line class="st8" x1="394.2" y1="212.4" x2="292.6" y2="212.4"/>
			</g>
		</g>
		<g id="LINE_15_">
			<g>
				<line class="st8" x1="393.2" y1="239.6" x2="292.6" y2="239.6"/>
			</g>
		</g>
		<g id="LINE_16_">
			<g>
				<line class="st8" x1="355.4" y1="165.6" x2="355.4" y2="233.8"/>
			</g>
		</g>
		<g id="LINE_17_">
			<g>
				<line class="st8" x1="400.7" y1="164.7" x2="400.7" y2="232.9"/>
			</g>
		</g>
		<g id="SPLINE">
			<g>
				<path class="st8" d="M393.2,239.6c4.1,0,7.5-3,7.5-6.7"/>
			</g>
		</g>
		<g id="SPLINE_1_">
			<path class="st8" d="M362.9,158.9c-4.1,0-7.5,3-7.5,6.7"/>
		</g>
	</g>
	<g>
		<g id="LINE_2_">
			<line class="st8" x1="240.1" y1="218.2" x2="133.4" y2="218.2"/>
		</g>
		<g id="LINE_3_">
			<line class="st8" x1="240.1" y1="191" x2="133.4" y2="191"/>
		</g>
		<g id="LINE_4_">
			<line class="st8" x1="184.6" y1="203.3" x2="82.7" y2="203.3"/>
		</g>
		<g id="LINE_5_">
			<line class="st8" x1="184.6" y1="230.5" x2="82.7" y2="230.5"/>
		</g>
	</g>
</g>
</svg>
