<?xml version="1.0" encoding="utf-8"?>
<!-- Generator: Adobe Illustrator 25.1.0, SVG Export Plug-In . SVG Version: 6.00 Build 0)  -->
<svg version="1.1" id="_x30_" xmlns="http://www.w3.org/2000/svg" xmlns:xlink="http://www.w3.org/1999/xlink" x="0px" y="0px"
	 viewBox="0 0 552.76 342.32" style="enable-background:new 0 0 552.76 342.32;" xml:space="preserve">
<style type="text/css">
	.st0{fill-rule:evenodd;clip-rule:evenodd;fill:#231F20;}
	
		.st1{fill-rule:evenodd;clip-rule:evenodd;fill:none;stroke:#231F20;stroke-width:0.75;stroke-linecap:round;stroke-linejoin:round;stroke-miterlimit:10;}
	.st2{fill:none;stroke:#000000;stroke-width:0.6361;stroke-linecap:round;stroke-linejoin:round;stroke-miterlimit:10;}
	.st3{fill:none;stroke:#231F20;stroke-width:0.75;stroke-miterlimit:10;}
	.st4{fill:none;stroke:#231F20;stroke-width:0.25;stroke-miterlimit:10;}
	.st5{fill:#231F20;}
	.st6{font-family:'Arial-BoldMT';}
	.st7{font-size:12px;}
	.st8{fill:none;stroke:#231F20;stroke-linecap:round;stroke-linejoin:round;stroke-miterlimit:10;}
	.st9{font-family:'ArialMT';}
	.st10{fill:none;}
</style>
<g id="HATCH_4_">
	<g>
		<polygon class="st0" points="367.58,180.87 468.16,180.87 468.16,289.31 463.65,289.31 463.65,229.74 465.91,232 465.91,183.12 
			417.03,183.12 419.28,185.38 365.98,185.38 252.59,83.41 138.47,186.15 138.47,183.12 53.12,183.12 53.12,185.38 43.46,185.38 
			43.46,180.87 137.6,180.87 252.59,77.35 		"/>
	</g>
</g>
<g>
	<g id="HATCH">
		<rect x="66.72" y="183.02" class="st1" width="58.16" height="51.58"/>
	</g>
	<g id="HATCH_1_">
		<polygon class="st1" points="210.52,125.71 252.59,87.84 294.66,125.71 		"/>
	</g>
	<g id="HATCH_2_">
		<polygon class="st1" points="465.91,231.9 418.38,184.37 417.03,183.02 465.91,183.02 		"/>
	</g>
	<g id="HATCH_3_">
		<rect x="39.12" y="49.5" class="st1" width="19.63" height="19.63"/>
	</g>
</g>
<g id="LINE_6_">
	<line class="st2" x1="138.47" y1="186.48" x2="138.47" y2="183.45"/>
</g>
<g id="LINE_8_">
	<line class="st2" x1="53.12" y1="183.45" x2="53.12" y2="185.7"/>
</g>
<g>
	<g id="LINE_19_">
		<g>
			<line class="st3" x1="53.12" y1="241.17" x2="66.72" y2="183.45"/>
		</g>
	</g>
	<g id="LINE_20_">
		<g>
			<line class="st3" x1="66.72" y1="241.17" x2="53.12" y2="183.45"/>
		</g>
	</g>
</g>
<g>
	<g id="LINE_21_">
		<g>
			<line class="st3" x1="124.87" y1="241.17" x2="138.47" y2="183.45"/>
		</g>
	</g>
	<g id="LINE_22_">
		<g>
			<line class="st3" x1="138.47" y1="241.17" x2="124.87" y2="183.45"/>
		</g>
	</g>
</g>
<g>
	<g id="LINE_23_">
		<g>
			<line class="st4" x1="256.93" y1="75.45" x2="296.38" y2="39.93"/>
		</g>
	</g>
	<g id="LINE_24_">
		<g>
			<line class="st4" x1="344.76" y1="154.52" x2="384.22" y2="119"/>
		</g>
	</g>
	<g id="LINE_25_">
		<g>
			<line class="st4" x1="303.95" y1="117.78" x2="324.39" y2="99.38"/>
		</g>
	</g>
</g>
<g>
	<g id="LINE_28_">
		<g>
			<line class="st4" x1="417.03" y1="178.54" x2="417.03" y2="163.49"/>
		</g>
	</g>
	<g id="LINE_29_">
		<g>
			<line class="st4" x1="465.91" y1="178.54" x2="465.91" y2="163.49"/>
		</g>
	</g>
</g>
<g>
	<g id="LINE_26_">
		<g id="LINE_80_">
			<g>
				<g>
					<g>
						<line class="st4" x1="298.33" y1="47.04" x2="375.54" y2="117.95"/>
						<g>
							<polygon class="st5" points="297.95,49.65 293.44,42.54 300.9,46.44 							"/>
						</g>
						<g>
							<polygon class="st5" points="372.97,118.55 380.43,122.45 375.92,115.34 							"/>
						</g>
					</g>
				</g>
			</g>
		</g>
	</g>
	<g id="LINE_27_">
		<g id="LINE_79_">
			<g>
				<g>
					<g>
						<line class="st4" x1="276.55" y1="66.67" x2="313.11" y2="100.84"/>
						<g>
							<polygon class="st5" points="276.14,69.27 271.69,62.13 279.12,66.09 							"/>
						</g>
						<g>
							<polygon class="st5" points="310.53,101.42 317.96,105.38 313.51,98.23 							"/>
						</g>
					</g>
				</g>
			</g>
		</g>
	</g>
	<g id="LINE_30_">
		<g id="LINE_38_">
			<g>
				<g>
					<g>
						<line class="st4" x1="423.76" y1="166.03" x2="459.26" y2="166.03"/>
						<g>
							<polygon class="st5" points="425.24,168.21 417.11,166.03 425.24,163.85 							"/>
						</g>
						<g>
							<polygon class="st5" points="457.78,168.21 465.91,166.03 457.78,163.85 							"/>
						</g>
					</g>
				</g>
			</g>
		</g>
	</g>
	<g id="LINE_33_">
		<g id="LINE_37_">
			<g>
				<g>
					<g>
						<line class="st4" x1="484.09" y1="190.38" x2="484.09" y2="225.25"/>
						<g>
							<polygon class="st5" points="481.91,191.86 484.09,183.73 486.27,191.86 							"/>
						</g>
						<g>
							<polygon class="st5" points="481.91,223.77 484.09,231.9 486.27,223.77 							"/>
						</g>
					</g>
				</g>
			</g>
		</g>
	</g>
	<g id="LINE_36_">
		<g id="LINE_3_">
			<g>
				<g>
					<g>
						<line class="st4" x1="509.43" y1="190.09" x2="509.43" y2="274.47"/>
						<g>
							<polygon class="st5" points="507.25,191.58 509.43,183.45 511.61,191.58 							"/>
						</g>
						<g>
							<polygon class="st5" points="507.25,272.98 509.43,281.11 511.61,272.98 							"/>
						</g>
					</g>
				</g>
			</g>
		</g>
	</g>
</g>
<g id="MTEXT_2_">
	<g>
		<text transform="matrix(1 0 0 1 37.6133 39.661)" class="st5 st6 st7">Key:</text>
	</g>
</g>
<g id="MTEXT_3_">
</g>
<g>
	<g id="LINE_7_">
		<line class="st8" x1="138.47" y1="183.45" x2="53.12" y2="183.45"/>
	</g>
	<g>
		<g id="LINE_4_">
			<g>
				<line class="st8" x1="365.98" y1="185.7" x2="252.59" y2="83.74"/>
			</g>
		</g>
		<g id="LINE_5_">
			<g>
				<line class="st8" x1="252.59" y1="83.74" x2="138.47" y2="186.48"/>
			</g>
		</g>
		<g id="LINE_9_">
			<g>
				<line class="st8" x1="43.46" y1="185.7" x2="43.46" y2="181.2"/>
			</g>
		</g>
		<g id="LINE_10_">
			<g>
				<line class="st8" x1="252.59" y1="77.68" x2="367.58" y2="181.2"/>
			</g>
		</g>
		<g id="LINE_11_">
			<g>
				<line class="st8" x1="463.65" y1="289.64" x2="468.16" y2="289.64"/>
			</g>
		</g>
		<g id="LINE_12_">
			<g>
				<line class="st8" x1="137.6" y1="181.2" x2="43.46" y2="181.2"/>
			</g>
		</g>
		<g id="LINE_13_">
			<g>
				<line class="st8" x1="53.12" y1="185.7" x2="43.46" y2="185.7"/>
			</g>
		</g>
		<g id="LINE_14_">
			<g>
				<line class="st8" x1="468.16" y1="181.2" x2="367.58" y2="181.2"/>
			</g>
		</g>
		<g id="LINE_15_">
			<g>
				<line class="st8" x1="419.28" y1="185.7" x2="365.98" y2="185.7"/>
			</g>
		</g>
		<g id="LINE_16_">
			<g>
				<line class="st8" x1="468.16" y1="289.64" x2="468.16" y2="181.2"/>
			</g>
		</g>
		<g id="LINE_17_">
			<g>
				<line class="st8" x1="463.65" y1="289.64" x2="463.65" y2="230.07"/>
			</g>
		</g>
		<g id="LINE_18_">
			<g>
				<line class="st8" x1="252.59" y1="77.68" x2="137.6" y2="181.2"/>
			</g>
		</g>
		<g id="LINE_43_">
			<g>
				<line class="st8" x1="53.12" y1="241.17" x2="66.72" y2="241.17"/>
			</g>
		</g>
		<g id="LINE_44_">
			<g>
				<line class="st8" x1="124.87" y1="241.17" x2="138.47" y2="241.17"/>
			</g>
		</g>
		<g id="LINE_45_">
			<g>
				<line class="st8" x1="124.87" y1="241.17" x2="124.87" y2="183.45"/>
			</g>
		</g>
		<g id="LINE_46_">
			<g>
				<line class="st8" x1="138.47" y1="241.17" x2="138.47" y2="183.45"/>
			</g>
		</g>
		<g id="LINE_47_">
			<g>
				<line class="st8" x1="53.12" y1="241.17" x2="53.12" y2="183.45"/>
			</g>
		</g>
		<g id="LINE_48_">
			<g>
				<line class="st8" x1="66.72" y1="241.17" x2="66.72" y2="183.45"/>
			</g>
		</g>
		<g id="LINE_49_">
			<g>
				<path class="st8" d="M124.87,235.03"/>
				<path class="st8" d="M66.72,235.03"/>
			</g>
		</g>
	</g>
</g>
<g>
	<g id="SPLINE">
		<path class="st3" d="M313.43,138.45c-5.38-0.65-10.27,3.18-10.92,8.56c-0.65,5.38,3.18,10.27,8.56,10.92
			c5.38,0.65,10.27-3.18,10.92-8.56c0.14-1.13,0.08-2.27-0.18-3.38"/>
	</g>
	<g>
		<g id="CIRCLE">
			<path class="st3" d="M125.47,250.96c0-5.42,4.39-9.81,9.81-9.81c5.42,0,9.81,4.39,9.81,9.81c0,5.42-4.39,9.81-9.81,9.81
				C129.87,260.78,125.47,256.38,125.47,250.96L125.47,250.96z"/>
		</g>
		<g id="SPLINE_1_">
			<path class="st3" d="M463.65,249.67c-3.46-4.18-9.64-4.76-13.82-1.3c-4.18,3.46-4.76,9.64-1.3,13.82
				c3.46,4.18,9.64,4.76,13.82,1.3c0.47-0.39,0.91-0.83,1.3-1.3"/>
		</g>
	</g>
</g>
<g>
	<g id="CIRCLE_1_">
		<g>
			<path class="st3" d="M39.12,85.15c0-5.42,4.39-9.81,9.81-9.81s9.81,4.39,9.81,9.81c0,5.42-4.39,9.81-9.81,9.81
				S39.12,90.57,39.12,85.15L39.12,85.15z"/>
		</g>
	</g>
</g>
<g>
	<g id="MTEXT">
		<g>
			<text transform="matrix(1 0 0 1 85.0859 152.4105)" class="st5 st9 st7">Ceiling line </text>
		</g>
	</g>
	<g id="MTEXT_1_">
		<g>
			<text transform="matrix(1 0 0 1 67.1216 64.4417)" class="st5 st9 st7">Dead air space</text>
		</g>
	</g>
	<g id="MTEXT_4_">
		<g>
			<text transform="matrix(1 0 0 1 67.5352 89.9916)"><tspan x="0" y="0" class="st5 st9 st7">Suitable smoke </tspan><tspan x="0" y="14.4" class="st5 st9 st7">alarm location </tspan></text>
		</g>
	</g>
	<g id="MTEXT_6_">
		<g>
			<text transform="matrix(1 0 0 1 399.8213 285.6312)" class="st5 st9 st7">Side wall</text>
		</g>
	</g>
	<g id="MTEXT_8_">
		<g>
			<text transform="matrix(1 0 0 1 420.1113 161.6664)" class="st5 st9 st7">300 mm</text>
		</g>
	</g>
	<g id="MTEXT_9_">
		<g>
			<text transform="matrix(0 1 -1 0 473.8516 197.3011)" class="st5 st9 st7">min.</text>
		</g>
	</g>
	<g id="MTEXT_10_">
		<g>
			<text transform="matrix(0 1 -1 0 489.0703 186.7337)" class="st5 st9 st7">300 mm</text>
		</g>
	</g>
	<g id="MTEXT_11_">
		<g>
			<text transform="matrix(0 1 -1 0 513.0273 196.181)" class="st5 st9 st7">500 mm max.</text>
		</g>
	</g>
	<g id="MTEXT_12_">
		<g>
			<text transform="matrix(0.7432 0.6691 -0.6691 0.7432 306.8737 51.3699)" class="st5 st9 st7">1500 mm max.</text>
		</g>
	</g>
	<g id="MTEXT_13_">
		<g>
			<text transform="matrix(0.7432 0.6691 -0.6691 0.7432 280.4847 84.1072)" class="st5 st9 st7">min.</text>
		</g>
	</g>
	<g id="MTEXT_14_">
		<g>
			<text transform="matrix(0.7432 0.6691 -0.6691 0.7432 281.82 66.7321)" class="st5 st9 st7">500 mm</text>
		</g>
	</g>
</g>
<g>
	<g id="LINE_32_">
		<g>
			<line class="st4" x1="470.71" y1="232.33" x2="489.73" y2="232.33"/>
		</g>
	</g>
	<g id="LINE_35_">
		<g>
			<line class="st4" x1="470.71" y1="281.11" x2="511.94" y2="281.11"/>
		</g>
	</g>
	<g id="LINE_34_">
		<g>
			<line class="st4" x1="470.71" y1="183.45" x2="511.94" y2="183.45"/>
		</g>
	</g>
</g>
<rect x="148" y="209.29" class="st10" width="139" height="65.5"/>
<text transform="matrix(1 0 0 1 148 217.8861)"><tspan x="0" y="0" class="st9 st7">Exposed joists or other </tspan><tspan x="0" y="14.4" class="st9 st7">projections such as </tspan><tspan x="0" y="28.8" class="st9 st7">exposed beams, rafters, </tspan><tspan x="0" y="43.2" class="st9 st7">trusses, etc.</tspan></text>
</svg>
