<?xml version="1.0" encoding="utf-8"?>
<!-- Generator: Adobe Illustrator 25.2.1, SVG Export Plug-In . SVG Version: 6.00 Build 0)  -->
<svg version="1.1" id="HATCH_x5F_18" xmlns="http://www.w3.org/2000/svg" xmlns:xlink="http://www.w3.org/1999/xlink" x="0px"
	 y="0px" viewBox="0 0 552.8 220.3" style="enable-background:new 0 0 552.8 220.3;" xml:space="preserve">
<style type="text/css">
	.st0{fill-rule:evenodd;clip-rule:evenodd;fill:none;}
	.st1{clip-path:url(#SVGID_2_);fill:none;stroke:#221F1F;stroke-width:0.5;stroke-linejoin:round;}
	.st2{fill:none;stroke:#231F20;stroke-miterlimit:10;}
	.st3{fill:none;stroke:#231F20;stroke-linecap:round;stroke-miterlimit:10;}
	.st4{fill-rule:evenodd;clip-rule:evenodd;fill:url(#SVGID_3_);}
	.st5{fill-rule:evenodd;clip-rule:evenodd;fill:url(#SVGID_4_);}
	.st6{fill-rule:evenodd;clip-rule:evenodd;fill:url(#SVGID_5_);}
	.st7{fill-rule:evenodd;clip-rule:evenodd;fill:#231F20;stroke:#231F20;stroke-miterlimit:10;}
</style>
<pattern  x="-574" y="966" width="72" height="72" patternUnits="userSpaceOnUse" id="Unnamed_Pattern_2" viewBox="6.2 -86.2 72 72" style="overflow:visible;">
	<g>
		<rect x="6.2" y="-86.2" class="st0" width="72" height="72"/>
		<g>
			<defs>
				<rect id="SVGID_1_" x="6.2" y="-86.2" width="72" height="72"/>
			</defs>
			<clipPath id="SVGID_2_">
				<use xlink:href="#SVGID_1_"  style="overflow:visible;"/>
			</clipPath>
			<line class="st1" x1="0.2" y1="-74.2" x2="18.2" y2="-92.2"/>
			<line class="st1" x1="0.2" y1="-68.2" x2="24.2" y2="-92.2"/>
			<line class="st1" x1="0.2" y1="-62.2" x2="30.2" y2="-92.2"/>
			<line class="st1" x1="0.2" y1="-56.2" x2="36.2" y2="-92.2"/>
			<line class="st1" x1="0.2" y1="-50.2" x2="42.2" y2="-92.2"/>
			<line class="st1" x1="0.2" y1="-44.2" x2="48.2" y2="-92.2"/>
			<line class="st1" x1="0.2" y1="-38.2" x2="54.2" y2="-92.2"/>
			<line class="st1" x1="0.2" y1="-32.2" x2="60.2" y2="-92.2"/>
			<line class="st1" x1="0.2" y1="-26.2" x2="66.2" y2="-92.2"/>
			<line class="st1" x1="0.2" y1="-20.2" x2="72.2" y2="-92.2"/>
			<line class="st1" x1="0.2" y1="-14.2" x2="78.2" y2="-92.2"/>
			<line class="st1" x1="0.2" y1="-8.2" x2="84.2" y2="-92.2"/>
			<line class="st1" x1="6.2" y1="-8.2" x2="84.2" y2="-86.2"/>
			<line class="st1" x1="12.2" y1="-8.2" x2="84.2" y2="-80.2"/>
			<line class="st1" x1="18.2" y1="-8.2" x2="84.2" y2="-74.2"/>
			<line class="st1" x1="24.2" y1="-8.2" x2="84.2" y2="-68.2"/>
			<line class="st1" x1="30.2" y1="-8.2" x2="84.2" y2="-62.2"/>
			<line class="st1" x1="36.2" y1="-8.2" x2="84.2" y2="-56.2"/>
			<line class="st1" x1="42.2" y1="-8.2" x2="84.2" y2="-50.2"/>
			<line class="st1" x1="48.2" y1="-8.2" x2="84.2" y2="-44.2"/>
			<line class="st1" x1="54.2" y1="-8.2" x2="84.2" y2="-38.2"/>
			<line class="st1" x1="52.2" y1="-0.2" x2="94.2" y2="-42.2"/>
			<line class="st1" x1="58.2" y1="-0.2" x2="94.2" y2="-36.2"/>
			<line class="st1" x1="64.2" y1="-0.2" x2="94.2" y2="-30.2"/>
		</g>
	</g>
</pattern>
<g>
	<g id="SPLINE">
		<path class="st2" d="M393.3,63.5c-0.3-3.5-3.4-6.1-7-5.8c-3.1,0.3-5.6,2.7-5.8,5.8"/>
	</g>
	<g id="SPLINE_1_">
		<path class="st2" d="M390.6,167.8c0.3,3.3,3.1,5.9,6.4,5.9"/>
	</g>
	<g id="SPLINE_2_">
		<path class="st2" d="M376.9,173.7c3.3,0,6.1-2.5,6.4-5.9"/>
	</g>
	<g id="LINE_3_">
		<line class="st2" x1="390.6" y1="167.8" x2="393.3" y2="63.5"/>
	</g>
	<g id="LINE_4_">
		<line class="st2" x1="383.3" y1="167.8" x2="380.5" y2="63.5"/>
	</g>
	<g id="SPLINE_3_">
		<path class="st2" d="M413.4,63.5c-0.3-3.5-3.4-6.1-7-5.8c-3.1,0.3-5.6,2.7-5.8,5.8"/>
	</g>
	<g id="SPLINE_4_">
		<path class="st2" d="M410.6,167.8c0.3,3.3,3.1,5.9,6.4,5.9"/>
	</g>
	<g id="SPLINE_5_">
		<path class="st2" d="M397,173.7c3.3,0,6.1-2.5,6.4-5.9"/>
	</g>
	<g id="LINE_5_">
		<line class="st2" x1="410.6" y1="167.8" x2="413.4" y2="63.5"/>
	</g>
	<g id="LINE_6_">
		<line class="st2" x1="403.4" y1="167.8" x2="400.6" y2="63.5"/>
	</g>
	<g id="SPLINE_6_">
		<path class="st2" d="M373.2,63.5c-0.3-3.5-3.4-6.1-7-5.8c-3.1,0.3-5.6,2.7-5.8,5.8"/>
	</g>
	<g id="SPLINE_7_">
		<path class="st2" d="M370.5,167.8c0.3,3.3,3.1,5.9,6.4,5.9"/>
	</g>
	<g id="SPLINE_8_">
		<path class="st2" d="M356.8,173.7c3.3,0,6.1-2.5,6.4-5.9"/>
	</g>
	<g id="LINE_7_">
		<line class="st2" x1="370.5" y1="167.8" x2="373.2" y2="63.5"/>
	</g>
	<g id="LINE_8_">
		<line class="st2" x1="363.2" y1="167.8" x2="360.4" y2="63.5"/>
	</g>
	<g id="SPLINE_9_">
		<path class="st2" d="M232.7,63.5c-0.3-3.5-3.4-6.1-7-5.8c-3.1,0.3-5.6,2.7-5.8,5.8"/>
	</g>
	<g id="SPLINE_10_">
		<path class="st2" d="M229.9,167.8c0.3,3.3,3.1,5.9,6.4,5.9"/>
	</g>
	<g id="SPLINE_11_">
		<path class="st2" d="M216.2,173.7c3.3,0,6.1-2.5,6.4-5.9"/>
	</g>
	<g id="LINE_9_">
		<line class="st2" x1="229.9" y1="167.8" x2="232.7" y2="63.5"/>
	</g>
	<g id="LINE_10_">
		<line class="st2" x1="222.6" y1="167.8" x2="219.9" y2="63.5"/>
	</g>
	<g id="SPLINE_12_">
		<path class="st2" d="M192.5,63.5c-0.3-3.5-3.4-6.1-7-5.8c-3.1,0.3-5.6,2.7-5.8,5.8"/>
	</g>
	<g id="SPLINE_13_">
		<path class="st2" d="M189.8,167.8c0.3,3.3,3.1,5.9,6.4,5.9"/>
	</g>
	<g id="SPLINE_14_">
		<path class="st2" d="M176.1,173.7c3.3,0,6.1-2.5,6.4-5.9"/>
	</g>
	<g id="LINE_11_">
		<line class="st2" x1="189.8" y1="167.8" x2="192.5" y2="63.5"/>
	</g>
	<g id="LINE_12_">
		<line class="st2" x1="182.5" y1="167.8" x2="179.7" y2="63.5"/>
	</g>
	<g id="SPLINE_15_">
		<path class="st2" d="M212.6,63.5c-0.3-3.5-3.4-6.1-7-5.8c-3.1,0.3-5.6,2.7-5.8,5.8"/>
	</g>
	<g id="SPLINE_16_">
		<path class="st2" d="M209.9,167.8c0.3,3.3,3.1,5.9,6.4,5.9"/>
	</g>
	<g id="SPLINE_17_">
		<path class="st2" d="M196.2,173.7c3.3,0,6.1-2.5,6.4-5.9"/>
	</g>
	<g id="LINE_13_">
		<line class="st2" x1="209.9" y1="167.8" x2="212.6" y2="63.5"/>
	</g>
	<g id="LINE_14_">
		<line class="st2" x1="202.6" y1="167.8" x2="199.8" y2="63.5"/>
	</g>
	<g id="SPLINE_18_">
		<path class="st2" d="M172.4,63.5c-0.3-3.5-3.4-6.1-7-5.8c-3.1,0.3-5.6,2.7-5.8,5.8"/>
	</g>
	<g id="SPLINE_19_">
		<path class="st2" d="M169.7,167.8c0.3,3.3,3.1,5.9,6.4,5.9"/>
	</g>
	<g id="SPLINE_20_">
		<path class="st2" d="M156,173.7c3.3,0,6.1-2.5,6.4-5.9"/>
	</g>
	<g id="LINE_15_">
		<line class="st2" x1="169.7" y1="167.8" x2="172.4" y2="63.5"/>
	</g>
	<g id="LINE_16_">
		<line class="st2" x1="162.4" y1="167.8" x2="159.7" y2="63.5"/>
	</g>
	<g id="SPLINE_21_">
		<path class="st2" d="M333.1,63.5c-0.3-3.5-3.4-6.1-7-5.8c-3.1,0.3-5.6,2.7-5.8,5.8"/>
	</g>
	<g id="SPLINE_22_">
		<path class="st2" d="M330.3,167.8c0.3,3.3,3.1,5.9,6.4,5.9"/>
	</g>
	<g id="SPLINE_23_">
		<path class="st2" d="M316.6,173.7c3.3,0,6.1-2.5,6.4-5.9"/>
	</g>
	<g id="LINE_17_">
		<line class="st2" x1="330.3" y1="167.8" x2="333.1" y2="63.5"/>
	</g>
	<g id="LINE_18_">
		<line class="st2" x1="323" y1="167.8" x2="320.3" y2="63.5"/>
	</g>
	<g id="SPLINE_24_">
		<path class="st2" d="M353.2,63.5c-0.3-3.5-3.4-6.1-7-5.8c-3.1,0.3-5.6,2.7-5.8,5.8"/>
	</g>
	<g id="SPLINE_25_">
		<path class="st2" d="M350.4,167.8c0.3,3.3,3.1,5.9,6.4,5.9"/>
	</g>
	<g id="SPLINE_26_">
		<path class="st2" d="M336.7,173.7c3.3,0,6.1-2.5,6.4-5.9"/>
	</g>
	<g id="LINE_19_">
		<line class="st2" x1="350.4" y1="167.8" x2="353.2" y2="63.5"/>
	</g>
	<g id="LINE_20_">
		<line class="st2" x1="343.1" y1="167.8" x2="340.4" y2="63.5"/>
	</g>
	<g id="SPLINE_27_">
		<path class="st2" d="M292.9,63.5c-0.3-3.5-3.4-6.1-7-5.8c-3.1,0.3-5.6,2.7-5.8,5.8"/>
	</g>
	<g id="SPLINE_28_">
		<path class="st2" d="M290.2,167.8c0.3,3.3,3.1,5.9,6.4,5.9"/>
	</g>
	<g id="SPLINE_29_">
		<path class="st2" d="M276.5,173.7c3.3,0,6.1-2.5,6.4-5.9"/>
	</g>
	<g id="LINE_21_">
		<line class="st2" x1="290.2" y1="167.8" x2="292.9" y2="63.5"/>
	</g>
	<g id="LINE_22_">
		<line class="st2" x1="282.9" y1="167.8" x2="280.1" y2="63.5"/>
	</g>
	<g id="SPLINE_30_">
		<path class="st2" d="M313,63.5c-0.3-3.5-3.4-6.1-7-5.8c-3.1,0.3-5.6,2.7-5.8,5.8"/>
	</g>
	<g id="SPLINE_31_">
		<path class="st2" d="M310.2,167.8c0.3,3.3,3.1,5.9,6.4,5.9"/>
	</g>
	<g id="SPLINE_32_">
		<path class="st2" d="M296.6,173.7c3.3,0,6.1-2.5,6.4-5.9"/>
	</g>
	<g id="LINE_23_">
		<line class="st2" x1="310.2" y1="167.8" x2="313" y2="63.5"/>
	</g>
	<g id="LINE_24_">
		<line class="st2" x1="303" y1="167.8" x2="300.2" y2="63.5"/>
	</g>
	<g id="SPLINE_33_">
		<path class="st2" d="M252.8,63.5c-0.3-3.5-3.4-6.1-7-5.8c-3.1,0.3-5.6,2.7-5.8,5.8"/>
	</g>
	<g id="SPLINE_34_">
		<path class="st2" d="M250,167.8c0.3,3.3,3.1,5.9,6.4,5.9"/>
	</g>
	<g id="SPLINE_35_">
		<path class="st2" d="M236.3,173.7c3.3,0,6.1-2.5,6.4-5.9"/>
	</g>
	<g id="LINE_25_">
		<line class="st2" x1="250" y1="167.8" x2="252.8" y2="63.5"/>
	</g>
	<g id="LINE_26_">
		<line class="st2" x1="242.7" y1="167.8" x2="240" y2="63.5"/>
	</g>
	<g id="SPLINE_36_">
		<path class="st2" d="M272.8,63.5c-0.3-3.5-3.4-6.1-7-5.8c-3.1,0.3-5.6,2.7-5.8,5.8"/>
	</g>
	<g id="SPLINE_37_">
		<path class="st2" d="M270.1,167.8c0.3,3.3,3.1,5.9,6.4,5.9"/>
	</g>
	<g id="SPLINE_38_">
		<path class="st2" d="M256.4,173.7c3.3,0,6.1-2.5,6.4-5.9"/>
	</g>
	<g id="LINE_27_">
		<line class="st2" x1="270.1" y1="167.8" x2="272.8" y2="63.5"/>
	</g>
	<g id="LINE_28_">
		<line class="st2" x1="262.8" y1="167.8" x2="260" y2="63.5"/>
	</g>
	<g id="SPLINE_39_">
		<path class="st2" d="M433.5,63.5c-0.3-3.5-3.4-6.1-7-5.8c-3.1,0.3-5.6,2.7-5.8,5.8"/>
	</g>
	<g id="SPLINE_40_">
		<path class="st2" d="M430.7,167.8c0.3,3.3,3.1,5.9,6.4,5.9"/>
	</g>
	<g id="SPLINE_41_">
		<path class="st2" d="M417,173.7c3.3,0,6.1-2.5,6.4-5.9"/>
	</g>
	<g id="LINE_29_">
		<line class="st2" x1="430.7" y1="167.8" x2="433.5" y2="63.5"/>
	</g>
	<g id="LINE_30_">
		<line class="st2" x1="423.4" y1="167.8" x2="420.7" y2="63.5"/>
	</g>
	<g id="SPLINE_42_">
		<path class="st2" d="M453.6,63.5c-0.3-3.5-3.4-6.1-7-5.8c-3.1,0.3-5.6,2.7-5.8,5.8"/>
	</g>
	<g id="SPLINE_43_">
		<path class="st2" d="M450.8,167.8c0.3,3.3,3.1,5.9,6.4,5.9"/>
	</g>
	<g id="SPLINE_44_">
		<path class="st2" d="M437.1,173.7c3.3,0,6.1-2.5,6.4-5.9"/>
	</g>
	<g id="LINE_31_">
		<line class="st2" x1="450.8" y1="167.8" x2="453.6" y2="63.5"/>
	</g>
	<g id="LINE_32_">
		<line class="st2" x1="443.5" y1="167.8" x2="440.8" y2="63.5"/>
	</g>
	<g id="SPLINE_45_">
		<path class="st2" d="M473.6,63.5c-0.3-3.5-3.4-6.1-7-5.8c-3.1,0.3-5.6,2.7-5.8,5.8"/>
	</g>
	<g id="SPLINE_46_">
		<path class="st2" d="M470.9,167.8c0.3,3.3,3.1,5.9,6.4,5.9"/>
	</g>
	<g id="SPLINE_47_">
		<path class="st2" d="M457.2,173.7c3.3,0,6.1-2.5,6.4-5.9"/>
	</g>
	<g id="LINE_33_">
		<line class="st2" x1="470.9" y1="167.8" x2="473.6" y2="63.5"/>
	</g>
	<g id="LINE_34_">
		<line class="st2" x1="463.6" y1="167.8" x2="460.8" y2="63.5"/>
	</g>
	<g id="SPLINE_48_">
		<path class="st2" d="M152.4,63.5c-0.3-3.5-3.4-6.1-7-5.8c-3.1,0.3-5.6,2.7-5.8,5.8"/>
	</g>
	<g id="SPLINE_49_">
		<path class="st2" d="M149.6,167.8c0.3,3.3,3.1,5.9,6.4,5.9"/>
	</g>
	<g id="SPLINE_50_">
		<path class="st2" d="M135.9,173.7c3.3,0,6.1-2.5,6.4-5.9"/>
	</g>
	<g id="LINE_46_">
		<line class="st2" x1="149.6" y1="167.8" x2="152.4" y2="63.5"/>
	</g>
	<g id="LINE_47_">
		<line class="st2" x1="142.3" y1="167.8" x2="139.6" y2="63.5"/>
	</g>
	<g id="SPLINE_51_">
		<path class="st2" d="M112.2,63.5c-0.3-3.5-3.4-6.1-7-5.8c-3.1,0.3-5.6,2.7-5.8,5.8"/>
	</g>
	<g id="SPLINE_52_">
		<path class="st2" d="M109.5,167.8c0.3,3.3,3.1,5.9,6.4,5.9"/>
	</g>
	<g id="SPLINE_53_">
		<path class="st2" d="M95.8,173.7c3.3,0,6.1-2.5,6.4-5.9"/>
	</g>
	<g id="LINE_48_">
		<line class="st2" x1="109.5" y1="167.8" x2="112.2" y2="63.5"/>
	</g>
	<g id="LINE_49_">
		<line class="st2" x1="102.2" y1="167.8" x2="99.4" y2="63.5"/>
	</g>
	<g id="SPLINE_54_">
		<path class="st2" d="M132.3,63.5c-0.3-3.5-3.4-6.1-7-5.8c-3.1,0.3-5.6,2.7-5.8,5.8"/>
	</g>
	<g id="SPLINE_55_">
		<path class="st2" d="M129.5,167.8c0.3,3.3,3.1,5.9,6.4,5.9"/>
	</g>
	<g id="SPLINE_56_">
		<path class="st2" d="M115.8,173.7c3.3,0,6.1-2.5,6.4-5.9"/>
	</g>
	<g id="LINE_50_">
		<line class="st2" x1="129.5" y1="167.8" x2="132.3" y2="63.5"/>
	</g>
	<g id="LINE_51_">
		<line class="st2" x1="122.2" y1="167.8" x2="119.5" y2="63.5"/>
	</g>
	<g id="SPLINE_57_">
		<path class="st2" d="M92.1,63.5c-0.3-3.5-3.4-6.1-7-5.8c-3.1,0.3-5.6,2.7-5.8,5.8"/>
	</g>
	<g id="SPLINE_58_">
		<path class="st2" d="M89.4,167.8c0.3,3.3,3.1,5.9,6.4,5.9"/>
	</g>
	<g id="SPLINE_59_">
		<path class="st2" d="M75.7,173.7c3.3,0,6.1-2.5,6.4-5.9"/>
	</g>
	<g id="LINE_52_">
		<line class="st2" x1="89.4" y1="167.8" x2="92.1" y2="63.5"/>
	</g>
	<g id="LINE_53_">
		<line class="st2" x1="82.1" y1="167.8" x2="79.3" y2="63.5"/>
	</g>
</g>
<g>
	<g id="LINE_54_">
		<g>
			<line class="st2" x1="29.2" y1="51.4" x2="523.8" y2="51.4"/>
		</g>
	</g>
	<g id="LINE_55_">
		<g>
			<line class="st2" x1="29.2" y1="38.7" x2="523.8" y2="38.7"/>
		</g>
	</g>
	<g id="LINE_56_">
		<g>
			<line class="st3" x1="29.2" y1="26" x2="29.2" y2="51.4"/>
		</g>
	</g>
	<g id="LINE_57_">
		<g>
			<line class="st3" x1="523.8" y1="26" x2="523.8" y2="51.4"/>
		</g>
	</g>
	<g id="LINE_58_">
		<g>
			<line class="st2" x1="29.2" y1="26" x2="523.8" y2="26"/>
		</g>
	</g>
	<g id="POLYLINE">
		<g>
			<rect x="29.2" y="28.1" class="st2" width="494.6" height="8.5"/>
		</g>
	</g>
	<g id="POLYLINE_1_">
		<g>
			<rect x="29.2" y="40.8" class="st2" width="494.6" height="8.5"/>
		</g>
	</g>
</g>
<g>
	<g id="LINE">
		<g>
			<line class="st2" x1="29.2" y1="193" x2="523.8" y2="193"/>
		</g>
	</g>
	<g id="LINE_1_">
		<g>
			<line class="st2" x1="29.2" y1="180.3" x2="523.8" y2="180.3"/>
		</g>
	</g>
	<g id="LINE_2_">
		<g>
			<line class="st3" x1="29.2" y1="180.3" x2="29.2" y2="193"/>
		</g>
	</g>
	<g id="POLYLINE_2_">
		<g>
			<rect x="29.2" y="182.4" class="st3" width="494.6" height="8.8"/>
		</g>
	</g>
	<g id="LINE_74_">
		<g>
			<line class="st3" x1="523.8" y1="180.3" x2="523.8" y2="193"/>
		</g>
	</g>
</g>
<g>
	<g id="HATCH">
		<pattern  id="SVGID_3_" xlink:href="#Unnamed_Pattern_2" patternTransform="matrix(1 0 0 1 24.9539 10.8292)">
		</pattern>
		<rect x="29.2" y="28.3" class="st4" width="494.6" height="8.5"/>
	</g>
	<g id="HATCH_1_">
		<pattern  id="SVGID_4_" xlink:href="#Unnamed_Pattern_2" patternTransform="matrix(1 0 0 1 24.9539 10.8292)">
		</pattern>
		<rect x="29.2" y="41.1" class="st5" width="494.6" height="8.5"/>
	</g>
	<g id="HATCH_2_">
		<pattern  id="SVGID_5_" xlink:href="#Unnamed_Pattern_2" patternTransform="matrix(1 0 0 1 24.9539 10.8292)">
		</pattern>
		<rect x="29.2" y="182.6" class="st6" width="494.6" height="8.5"/>
	</g>
</g>
<g>
	<g id="HATCH_3_">
		<polygon class="st7" points="36.9,91.8 58.6,91.8 58.6,89 66.3,89 66.3,99.5 29.2,99.5 29.2,51.4 66.3,51.4 66.3,61.9 58.6,61.9 
			58.6,59.1 36.9,59.1 		"/>
	</g>
	<g id="HATCH_4_">
		<polygon class="st7" points="36.9,172.6 58.6,172.6 58.6,169.8 66.3,169.8 66.3,180.3 29.2,180.3 29.2,132.2 66.3,132.2 
			66.3,142.7 58.6,142.7 58.6,139.9 36.9,139.9 		"/>
	</g>
	<g id="HATCH_5_">
		<polygon class="st7" points="494.3,91.8 516.1,91.8 516.1,89 523.8,89 523.8,99.5 486.7,99.5 486.7,51.4 523.8,51.4 523.8,61.9 
			516.1,61.9 516.1,59.1 494.3,59.1 		"/>
	</g>
	<g id="HATCH_6_">
		<polygon class="st7" points="494.3,172.6 516.1,172.6 516.1,169.8 523.8,169.8 523.8,180.3 486.7,180.3 486.7,132.2 523.8,132.2 
			523.8,142.7 516.1,142.7 516.1,139.9 494.3,139.9 		"/>
	</g>
</g>
</svg>
