<?xml version="1.0" encoding="utf-8"?>
<!-- Generator: Adobe Illustrator 25.1.0, SVG Export Plug-In . SVG Version: 6.00 Build 0)  -->
<svg version="1.1" xmlns="http://www.w3.org/2000/svg" xmlns:xlink="http://www.w3.org/1999/xlink" x="0px" y="0px"
	 viewBox="0 0 552.76 269.29" style="enable-background:new 0 0 552.76 269.29;" xml:space="preserve">
<style type="text/css">
	
		.st0{fill:none;stroke:#000000;stroke-width:0.75;stroke-linecap:round;stroke-linejoin:round;stroke-miterlimit:10;stroke-dasharray:12,6;}
	.st1{fill:none;}
	.st2{font-family:'ArialMT';}
	.st3{font-size:12px;}
	.st4{fill:none;stroke:#000000;stroke-width:0.75;stroke-linejoin:bevel;stroke-miterlimit:10;}
	.st5{fill:none;stroke:#000000;stroke-miterlimit:10;}
	.st6{fill:none;stroke:#000000;stroke-width:0.75;stroke-miterlimit:10;}
	.st7{fill:none;stroke:#000000;stroke-width:1.5;stroke-miterlimit:10;}
	.st8{fill:none;stroke:#000000;stroke-linecap:round;stroke-miterlimit:10;}
	.st9{fill:none;stroke:#000000;stroke-width:0.5;stroke-miterlimit:10;}
	.st10{fill:none;stroke:#000000;stroke-width:0.5;stroke-linecap:round;stroke-miterlimit:10;}
	.st11{fill:none;stroke:#000000;stroke-width:0.25;stroke-miterlimit:10;}
	.st12{fill:none;stroke:#000000;stroke-width:0.5669;stroke-miterlimit:10;stroke-dasharray:4.252,2.8346;}
	.st13{fill:none;stroke:#000000;stroke-width:0.5;stroke-linecap:round;stroke-linejoin:round;stroke-miterlimit:10;}
</style>
<g id="Layer_2">
</g>
<g id="v1_x5F_f2-5_x5F_2009-ORIGINAL_xA0_Image_1_">
	<path class="st0" d="M145.47,84.64c6,5.15,6.37,6.6,18.76,13.03c15.79,8.18,22.6,8.31,29.08,9.25"/>
	<rect x="102.96" y="30.74" class="st1" width="30.83" height="12.19"/>
	<text transform="matrix(1 0 0 1 102.9599 39.33)" class="st2 st3">1.</text>
	<rect x="326.94" y="223.11" class="st1" width="63.05" height="11.73"/>
	<text transform="matrix(1 0 0 1 326.9371 231.705)" class="st2 st3">2.</text>
	<g>
		<polyline class="st4" points="202.98,247.15 219.84,247.15 224.01,243.15 224.01,251.15 228.17,247.15 253.98,247.15 		"/>
		<polyline class="st4" points="135.98,72.65 135.98,120.37 139.98,124.53 131.98,124.53 135.98,128.7 135.98,158.99 		"/>
	</g>
	<polyline class="st5" points="135.98,116.99 173.48,133.9 135.98,133.9 	"/>
	<polyline class="st5" points="135.98,74.24 341.23,171.15 338.81,176.15 135.98,80.15 	"/>
	<polyline class="st5" points="135.98,87.15 328.48,177.4 328.48,173.65 332.79,173.27 	"/>
	<polyline class="st5" points="328.73,208.32 328.73,211.15 333.98,211.15 333.98,173.84 	"/>
	<line class="st5" x1="328.48" y1="177.4" x2="328.48" y2="205.9"/>
	<line class="st5" x1="145.47" y1="84.64" x2="142.38" y2="90.15"/>
	<line class="st5" x1="193.31" y1="106.92" x2="190.22" y2="112.42"/>
	<line class="st5" x1="205.53" y1="113.21" x2="202.43" y2="118.72"/>
	<line class="st5" x1="252.06" y1="135.33" x2="249.39" y2="140.08"/>
	<line class="st5" x1="264.7" y1="140.87" x2="261.6" y2="146.38"/>
	<line class="st5" x1="312.06" y1="163.17" x2="309.19" y2="168.8"/>
	<line class="st5" x1="324.52" y1="168.96" x2="321.65" y2="174.59"/>
	<g>
		<line class="st6" x1="311.72" y1="163.83" x2="322.03" y2="173.84"/>
		<line class="st6" x1="310.21" y1="168.84" x2="324.52" y2="168.96"/>
	</g>
	<g>
		<line class="st6" x1="252.06" y1="135.33" x2="262.01" y2="145.91"/>
		<line class="st6" x1="249.56" y1="140.1" x2="264.43" y2="141.34"/>
	</g>
	<g>
		<line class="st6" x1="193.1" y1="107.47" x2="202.69" y2="118.17"/>
		<line class="st6" x1="190.24" y1="112.36" x2="205.51" y2="113.47"/>
	</g>
	<g>
		<line class="st6" x1="135.98" y1="82.15" x2="142.38" y2="90.15"/>
		<line class="st6" x1="145.11" y1="85.29" x2="135.98" y2="84.78"/>
	</g>
	<path class="st7" d="M335.98,176.15v10c0,0-0.24,2,2.37,2.25s9.71,0,9.71,0s3.67-0.12,5.21-4.75c1.54-4.62,1.18-7.5,1.18-7.5"/>
	<rect x="239.36" y="153.15" class="st5" width="8.62" height="49.62"/>
	<line class="st5" x1="247.98" y1="202.78" x2="247.98" y2="205.9"/>
	<line class="st5" x1="239.36" y1="202.78" x2="239.36" y2="207.78"/>
	<polyline class="st5" points="239.36,205.9 274.39,205.9 274.39,207.65 251.61,207.65 	"/>
	<rect x="291.71" y="205.9" class="st5" width="39.02" height="1.75"/>
	<polyline class="st5" points="230.73,247.15 230.73,207.65 251.73,207.65 251.73,247.15 	"/>
	<g>
		<line class="st5" x1="230.73" y1="220.65" x2="251.73" y2="220.65"/>
		<line class="st5" x1="230.81" y1="223.28" x2="251.81" y2="223.28"/>
		<line class="st5" x1="230.73" y1="234.67" x2="251.73" y2="234.67"/>
		<line class="st5" x1="230.81" y1="237.3" x2="251.81" y2="237.3"/>
	</g>
	<polyline class="st5" points="135.98,156.65 222.15,156.65 239.36,165.15 	"/>
	<line class="st5" x1="247.98" y1="168.9" x2="326.15" y2="205.9"/>
	<line class="st5" x1="205.48" y1="156.65" x2="205.48" y2="247.15"/>
	<line class="st8" x1="220.98" y1="156.65" x2="220.98" y2="245.45"/>
	<path class="st0" d="M206.28,113.61c6,5.15,6.37,6.6,18.76,13.03c15.79,8.18,22.6,8.31,29.08,9.25"/>
	<path class="st0" d="M265.21,141.24c6,5.15,6.37,6.6,18.76,13.03c15.79,8.18,22.6,8.31,29.08,9.25"/>
	<g>
		<g>
			<g>
				<g>
					<g>
						<g>
							<path class="st9" d="M150.48,120.78l1.4,31.25c0,1.76-1.33,3.19-2.96,3.19"/>
						</g>
					</g>
				</g>
				<g>
					<g>
						<g>
							<path class="st9" d="M150.5,120.84c0-1.76,1.33-3.19,2.96-3.19"/>
							<path class="st9" d="M151.9,152.09"/>
						</g>
						<g>
							<path class="st9" d="M155.03,152.09l1.4-31.25c0-1.76-1.33-3.19-2.96-3.19"/>
						</g>
					</g>
					<g>
						<g>
							<path class="st9" d="M155.03,152.01c0,1.76,1.33,3.19,2.96,3.19"/>
							<path class="st9" d="M156.42,120.76"/>
						</g>
					</g>
				</g>
			</g>
			<g>
				<g>
					<g>
						<g>
							<path class="st9" d="M173.16,152.07l1.4-31.25c0-1.76-1.33-3.19-2.96-3.19"/>
						</g>
						<g>
							<path class="st9" d="M170.02,152.07l-1.4-31.25c0-1.76,1.33-3.19,2.96-3.19"/>
						</g>
					</g>
					<g>
						<g>
							<path class="st9" d="M170.03,152.03c0,1.76-1.33,3.19-2.96,3.19"/>
							<path class="st9" d="M168.63,120.78"/>
						</g>
						<g>
							<path class="st10" d="M165.48,120.84l-1.38,31.19c0,1.76,1.33,3.19,2.96,3.19"/>
						</g>
					</g>
				</g>
				<g>
					<g>
						<g>
							<path class="st9" d="M165.48,120.84c0-1.76-1.33-3.19-2.96-3.19"/>
							<path class="st9" d="M164.08,152.09"/>
						</g>
						<g>
							<path class="st9" d="M160.95,152.09l-1.4-31.25c0-1.76,1.33-3.19,2.96-3.19"/>
						</g>
					</g>
					<g>
						<g>
							<path class="st9" d="M160.95,152.01c0,1.76-1.33,3.19-2.96,3.19"/>
							<path class="st9" d="M159.56,120.76"/>
						</g>
					</g>
				</g>
			</g>
			<g>
				<g>
					<g>
						<g>
							<g>
								<path class="st10" d="M173.16,152.06c0,1.76,1.33,3.19,2.96,3.19"/>
							</g>
							<g>
								<path class="st9" d="M177.69,120.81l1.4,31.25c0,1.76-1.33,3.19-2.96,3.19"/>
							</g>
						</g>
					</g>
					<g>
						<g>
							<g>
								<path class="st9" d="M177.71,120.87c0-1.76,1.33-3.19,2.96-3.19"/>
								<path class="st9" d="M179.1,152.12"/>
							</g>
							<g>
								<path class="st9" d="M182.24,152.12l1.4-31.25c0-1.76-1.33-3.19-2.96-3.19"/>
							</g>
						</g>
						<g>
							<g>
								<path class="st9" d="M182.23,152.03c0,1.76,1.33,3.19,2.96,3.19"/>
								<path class="st9" d="M183.63,120.78"/>
							</g>
						</g>
					</g>
				</g>
				<g>
					<g>
						<g>
							<g>
								<path class="st9" d="M200.36,152.09l1.4-28.43c0-1.61-1.33-2.91-2.96-2.91"/>
							</g>
							<g>
								<path class="st9" d="M197.23,152.09l-1.4-28.43c0-1.61,1.33-2.91,2.96-2.91"/>
							</g>
						</g>
						<g>
							<g>
								<path class="st9" d="M197.23,152.06c0,1.76-1.33,3.19-2.96,3.19"/>
								<path class="st9" d="M195.84,120.81"/>
							</g>
							<g>
								<path class="st10" d="M192.69,120.87l-1.38,31.19c0,1.76,1.33,3.19,2.96,3.19"/>
							</g>
						</g>
					</g>
					<g>
						<g>
							<g>
								<path class="st9" d="M192.69,120.87c0-1.76-1.33-3.19-2.96-3.19"/>
								<path class="st9" d="M191.29,152.12"/>
							</g>
							<g>
								<path class="st9" d="M188.16,152.12l-1.4-31.25c0-1.76,1.33-3.19,2.96-3.19"/>
							</g>
						</g>
						<g>
							<g>
								<path class="st9" d="M188.16,152.03c0,1.76-1.33,3.19-2.96,3.19"/>
								<path class="st9" d="M186.76,120.78"/>
							</g>
						</g>
					</g>
				</g>
			</g>
			<g>
				<g>
					<g>
						<g>
							<path class="st9" d="M141.41,120.81l1.4,31.25c0,1.76-1.33,3.19-2.96,3.19"/>
						</g>
					</g>
				</g>
				<g>
					<g>
						<g>
							<path class="st9" d="M141.43,120.87c0-1.76,1.33-3.19,2.96-3.19"/>
							<path class="st9" d="M142.82,152.11"/>
						</g>
						<g>
							<path class="st9" d="M145.96,152.11l1.4-31.25c0-1.76-1.33-3.19-2.96-3.19"/>
						</g>
					</g>
					<g>
						<g>
							<path class="st9" d="M145.95,152.03c0,1.76,1.33,3.19,2.96,3.19"/>
							<path class="st9" d="M147.35,120.78"/>
						</g>
					</g>
				</g>
			</g>
			<g>
				<g>
					<g>
						<g>
							<path class="st9" d="M138.2,122.68l0.08-1.79c0-1.52-0.98-2.79-2.3-3.11"/>
							<line class="st9" x1="136.88" y1="152.14" x2="138.12" y2="124.53"/>
						</g>
					</g>
					<g>
						<g>
							<path class="st9" d="M136.88,152.05c0,1.76,1.33,3.19,2.96,3.19"/>
							<path class="st9" d="M138.28,120.81"/>
						</g>
					</g>
				</g>
			</g>
		</g>
		<g>
			<g>
				<g>
					<g>
						<g>
							<path class="st10" d="M200.36,152.08c0,1.76,1.33,3.19,2.96,3.19"/>
						</g>
						<g>
							<path class="st9" d="M204.91,127.34l1.38,24.74c0,1.76-1.33,3.19-2.96,3.19"/>
						</g>
					</g>
				</g>
				<g>
					<g>
						<g>
							<path class="st9" d="M204.91,127.34c0-1.43,1.33-2.59,2.96-2.59"/>
							<path class="st9" d="M206.3,152.73"/>
						</g>
						<g>
							<path class="st9" d="M209.43,152.73l1.4-25.38c0-1.43-1.33-2.59-2.96-2.59"/>
						</g>
					</g>
					<g>
						<g>
							<path class="st9" d="M209.43,152.66c0,1.43,1.33,2.59,2.96,2.59"/>
							<path class="st9" d="M210.83,127.27"/>
						</g>
					</g>
				</g>
			</g>
			<g>
				<g>
					<g>
						<g>
							<path class="st10" d="M219.88,131.12l-1.38,21.81c0,1.29,1.33,2.34,2.96,2.34"/>
						</g>
					</g>
				</g>
				<g>
					<g>
						<g>
							<path class="st9" d="M219.88,131.12c0-1.24-1.33-2.24-2.96-2.24"/>
							<path class="st9" d="M218.49,153.07"/>
						</g>
						<g>
							<path class="st9" d="M215.36,153.07l-1.4-21.95c0-1.24,1.33-2.24,2.96-2.24"/>
						</g>
					</g>
					<g>
						<g>
							<path class="st9" d="M215.36,153.01c0,1.24-1.33,2.24-2.96,2.24"/>
							<path class="st9" d="M213.96,131.06"/>
						</g>
					</g>
				</g>
			</g>
		</g>
	</g>
	<g>
		<g>
			<g>
				<g>
					<polyline class="st11" points="323.09,228.98 302.52,228.98 290.68,214.61 					"/>
					<g>
						<polygon points="294.18,214.29 285.04,207.78 289.7,217.99 						"/>
					</g>
				</g>
			</g>
		</g>
	</g>
	<line class="st12" x1="274.39" y1="206.78" x2="291.71" y2="206.78"/>
	<g>
		<g id="SPLINE">
			<path class="st13" d="M223.65,122.91c0.11-0.29-0.07-0.62-0.38-0.74c-0.28-0.11-0.58-0.02-0.72,0.21"/>
		</g>
		<g id="SPLINE_1_">
			<path class="st13" d="M222.82,124.03c-0.1,0.27,0.05,0.58,0.33,0.72"/>
		</g>
		<g id="SPLINE_2_">
			<path class="st13" d="M221.42,123.92c0.29,0.14,0.62,0.05,0.77-0.19"/>
		</g>
		<g id="LINE_68_">
			<line class="st13" x1="222.82" y1="124.03" x2="223.65" y2="122.91"/>
		</g>
		<g id="LINE_67_">
			<line class="st13" x1="222.19" y1="123.72" x2="222.54" y2="122.38"/>
		</g>
		<g id="SPLINE_3_">
			<path class="st13" d="M218.48,120.43c0.11-0.29-0.07-0.62-0.38-0.74c-0.28-0.11-0.58-0.02-0.72,0.21"/>
		</g>
		<g id="SPLINE_4_">
			<path class="st13" d="M217.65,121.55c-0.1,0.27,0.05,0.58,0.33,0.72"/>
		</g>
		<g id="SPLINE_5_">
			<path class="st13" d="M216.25,121.44c0.29,0.14,0.62,0.05,0.77-0.19"/>
		</g>
		<g id="LINE_66_">
			<line class="st13" x1="217.65" y1="121.55" x2="218.48" y2="120.43"/>
		</g>
		<g id="LINE_65_">
			<line class="st13" x1="217.03" y1="121.25" x2="217.38" y2="119.9"/>
		</g>
		<g id="SPLINE_6_">
			<path class="st13" d="M220.22,121.26c0.11-0.29-0.07-0.62-0.38-0.74c-0.28-0.11-0.58-0.02-0.72,0.21"/>
		</g>
		<g id="SPLINE_7_">
			<path class="st13" d="M219.39,122.38c-0.1,0.27,0.05,0.58,0.33,0.72"/>
		</g>
		<g id="SPLINE_8_">
			<path class="st13" d="M217.99,122.27c0.29,0.14,0.62,0.05,0.77-0.19"/>
		</g>
		<g id="LINE_20_">
			<line class="st13" x1="219.39" y1="122.38" x2="220.22" y2="121.26"/>
		</g>
		<g id="LINE_21_">
			<line class="st13" x1="218.76" y1="122.08" x2="219.11" y2="120.73"/>
		</g>
		<g id="SPLINE_9_">
			<path class="st13" d="M216.75,119.6c0.11-0.29-0.07-0.62-0.38-0.74c-0.28-0.11-0.58-0.02-0.72,0.21"/>
		</g>
		<g id="SPLINE_10_">
			<path class="st13" d="M215.92,120.72c-0.1,0.27,0.05,0.58,0.33,0.72"/>
		</g>
		<g id="SPLINE_11_">
			<path class="st13" d="M214.52,120.61c0.29,0.14,0.62,0.05,0.77-0.19"/>
		</g>
		<g id="LINE_19_">
			<line class="st13" x1="215.92" y1="120.72" x2="216.75" y2="119.6"/>
		</g>
		<g id="LINE_18_">
			<line class="st13" x1="215.29" y1="120.41" x2="215.64" y2="119.07"/>
		</g>
		<g id="SPLINE_12_">
			<path class="st13" d="M230.59,126.23c0.11-0.29-0.07-0.62-0.38-0.74c-0.28-0.11-0.58-0.02-0.72,0.21"/>
		</g>
		<g id="SPLINE_13_">
			<path class="st13" d="M229.76,127.35c-0.1,0.27,0.05,0.58,0.33,0.72"/>
		</g>
		<g id="SPLINE_14_">
			<path class="st13" d="M228.36,127.24c0.29,0.14,0.62,0.05,0.77-0.19"/>
		</g>
		<g id="LINE_17_">
			<line class="st13" x1="229.76" y1="127.35" x2="230.59" y2="126.23"/>
		</g>
		<g id="LINE_25_">
			<line class="st13" x1="229.13" y1="127.05" x2="229.48" y2="125.7"/>
		</g>
		<g id="SPLINE_15_">
			<path class="st13" d="M227.12,124.57c0.11-0.29-0.07-0.62-0.38-0.74c-0.28-0.11-0.58-0.02-0.72,0.21"/>
		</g>
		<g id="SPLINE_16_">
			<path class="st13" d="M226.29,125.69c-0.1,0.27,0.05,0.58,0.33,0.72"/>
		</g>
		<g id="SPLINE_17_">
			<path class="st13" d="M224.89,125.58c0.29,0.14,0.62,0.05,0.77-0.19"/>
		</g>
		<g id="LINE_26_">
			<line class="st13" x1="226.29" y1="125.69" x2="227.12" y2="124.57"/>
		</g>
		<g id="LINE_27_">
			<line class="st13" x1="225.66" y1="125.39" x2="226.01" y2="124.04"/>
		</g>
		<g id="SPLINE_18_">
			<path class="st13" d="M228.85,125.4c0.11-0.29-0.07-0.62-0.38-0.74c-0.28-0.11-0.58-0.02-0.72,0.21"/>
		</g>
		<g id="SPLINE_19_">
			<path class="st13" d="M228.02,126.52c-0.1,0.27,0.05,0.58,0.33,0.72"/>
		</g>
		<g id="SPLINE_20_">
			<path class="st13" d="M226.62,126.41c0.29,0.14,0.62,0.05,0.77-0.19"/>
		</g>
		<g id="LINE_28_">
			<line class="st13" x1="228.02" y1="126.52" x2="228.85" y2="125.4"/>
		</g>
		<g id="LINE_29_">
			<line class="st13" x1="227.39" y1="126.22" x2="227.75" y2="124.87"/>
		</g>
		<g id="SPLINE_21_">
			<path class="st13" d="M225.38,123.74c0.11-0.29-0.07-0.62-0.38-0.74c-0.28-0.11-0.58-0.02-0.72,0.21"/>
		</g>
		<g id="SPLINE_22_">
			<path class="st13" d="M224.55,124.86c-0.1,0.27,0.05,0.58,0.33,0.72"/>
		</g>
		<g id="SPLINE_23_">
			<path class="st13" d="M223.15,124.75c0.29,0.14,0.62,0.05,0.77-0.19"/>
		</g>
		<g id="LINE_30_">
			<line class="st13" x1="224.55" y1="124.86" x2="225.38" y2="123.74"/>
		</g>
		<g id="LINE_31_">
			<line class="st13" x1="223.92" y1="124.55" x2="224.28" y2="123.21"/>
		</g>
		<g id="SPLINE_24_">
			<path class="st13" d="M239.26,130.39c0.11-0.29-0.07-0.62-0.38-0.74c-0.28-0.11-0.58-0.02-0.72,0.21"/>
		</g>
		<g id="SPLINE_25_">
			<path class="st13" d="M238.43,131.51c-0.1,0.27,0.05,0.58,0.33,0.72"/>
		</g>
		<g id="SPLINE_26_">
			<path class="st13" d="M237.03,131.4c0.29,0.14,0.62,0.05,0.77-0.19"/>
		</g>
		<g id="LINE_32_">
			<line class="st13" x1="238.43" y1="131.51" x2="239.26" y2="130.39"/>
		</g>
		<g id="LINE_33_">
			<line class="st13" x1="237.8" y1="131.21" x2="238.15" y2="129.86"/>
		</g>
		<g id="SPLINE_27_">
			<path class="st13" d="M240.99,131.22c0.11-0.29-0.07-0.62-0.38-0.74c-0.28-0.11-0.58-0.02-0.72,0.21"/>
		</g>
		<g id="SPLINE_28_">
			<path class="st13" d="M240.17,132.34c-0.1,0.27,0.05,0.58,0.33,0.72"/>
		</g>
		<g id="SPLINE_29_">
			<path class="st13" d="M238.76,132.23c0.29,0.14,0.62,0.05,0.77-0.19"/>
		</g>
		<g id="LINE_34_">
			<line class="st13" x1="240.17" y1="132.34" x2="240.99" y2="131.22"/>
		</g>
		<g id="LINE_35_">
			<line class="st13" x1="239.54" y1="132.04" x2="239.89" y2="130.69"/>
		</g>
		<g id="SPLINE_30_">
			<path class="st13" d="M235.79,128.73c0.11-0.29-0.07-0.62-0.38-0.74c-0.28-0.11-0.58-0.02-0.72,0.21"/>
		</g>
		<g id="SPLINE_31_">
			<path class="st13" d="M234.96,129.85c-0.1,0.27,0.05,0.58,0.33,0.72"/>
		</g>
		<g id="SPLINE_32_">
			<path class="st13" d="M233.56,129.74c0.29,0.14,0.62,0.05,0.77-0.19"/>
		</g>
		<g id="LINE_36_">
			<line class="st13" x1="234.96" y1="129.85" x2="235.79" y2="128.73"/>
		</g>
		<g id="LINE_37_">
			<line class="st13" x1="234.33" y1="129.54" x2="234.69" y2="128.2"/>
		</g>
		<g id="SPLINE_33_">
			<path class="st13" d="M237.52,129.56c0.11-0.29-0.07-0.62-0.38-0.74c-0.28-0.11-0.58-0.02-0.72,0.21"/>
		</g>
		<g id="SPLINE_34_">
			<path class="st13" d="M236.7,130.68c-0.1,0.27,0.05,0.58,0.33,0.72"/>
		</g>
		<g id="SPLINE_35_">
			<path class="st13" d="M235.29,130.57c0.29,0.14,0.62,0.05,0.77-0.19"/>
		</g>
		<g id="LINE_38_">
			<line class="st13" x1="236.7" y1="130.68" x2="237.52" y2="129.56"/>
		</g>
		<g id="LINE_39_">
			<line class="st13" x1="236.07" y1="130.38" x2="236.42" y2="129.03"/>
		</g>
		<g id="SPLINE_36_">
			<path class="st13" d="M232.32,127.06c0.11-0.29-0.07-0.62-0.38-0.74c-0.28-0.11-0.58-0.02-0.72,0.21"/>
		</g>
		<g id="SPLINE_37_">
			<path class="st13" d="M231.49,128.18c-0.1,0.27,0.05,0.58,0.33,0.72"/>
		</g>
		<g id="SPLINE_38_">
			<path class="st13" d="M230.09,128.07c0.29,0.14,0.62,0.05,0.77-0.19"/>
		</g>
		<g id="LINE_40_">
			<line class="st13" x1="231.49" y1="128.18" x2="232.32" y2="127.06"/>
		</g>
		<g id="LINE_41_">
			<line class="st13" x1="230.86" y1="127.88" x2="231.22" y2="126.53"/>
		</g>
		<g id="SPLINE_39_">
			<path class="st13" d="M234.06,127.9c0.11-0.29-0.07-0.62-0.38-0.74c-0.28-0.11-0.58-0.02-0.72,0.21"/>
		</g>
		<g id="SPLINE_40_">
			<path class="st13" d="M233.23,129.01c-0.1,0.27,0.05,0.58,0.33,0.72"/>
		</g>
		<g id="SPLINE_41_">
			<path class="st13" d="M231.83,128.91c0.29,0.14,0.62,0.05,0.77-0.19"/>
		</g>
		<g id="LINE_42_">
			<line class="st13" x1="233.23" y1="129.01" x2="234.06" y2="127.9"/>
		</g>
		<g id="LINE_43_">
			<line class="st13" x1="232.6" y1="128.71" x2="232.95" y2="127.37"/>
		</g>
		<g id="SPLINE_45_">
			<path class="st13" d="M242.73,132.05c0.11-0.29-0.07-0.62-0.38-0.74c-0.28-0.11-0.58-0.02-0.72,0.21"/>
		</g>
		<g id="SPLINE_46_">
			<path class="st13" d="M241.9,133.17c-0.1,0.27,0.05,0.58,0.33,0.72"/>
		</g>
		<g id="SPLINE_47_">
			<path class="st13" d="M240.5,133.06c0.29,0.14,0.62,0.05,0.77-0.19"/>
		</g>
		<g id="LINE_46_">
			<line class="st13" x1="241.9" y1="133.17" x2="242.73" y2="132.05"/>
		</g>
		<g id="LINE_47_">
			<line class="st13" x1="241.27" y1="132.87" x2="241.62" y2="131.52"/>
		</g>
		<g id="SPLINE_57_">
			<path class="st13" d="M221.95,122.09c0.11-0.29-0.07-0.62-0.38-0.74c-0.28-0.11-0.58-0.02-0.72,0.21"/>
		</g>
		<g id="SPLINE_58_">
			<path class="st13" d="M221.12,123.21c-0.1,0.27,0.05,0.58,0.33,0.72"/>
		</g>
		<g id="SPLINE_59_">
			<path class="st13" d="M219.72,123.1c0.29,0.14,0.62,0.05,0.77-0.19"/>
		</g>
		<g id="LINE_54_">
			<line class="st13" x1="221.12" y1="123.21" x2="221.95" y2="122.09"/>
		</g>
		<g id="LINE_55_">
			<line class="st13" x1="220.49" y1="122.91" x2="220.85" y2="121.56"/>
		</g>
	</g>
	<g>
		<g id="SPLINE_101_">
			<path class="st13" d="M163.55,94.61c0.11-0.29-0.07-0.62-0.38-0.74c-0.28-0.11-0.58-0.02-0.72,0.21"/>
		</g>
		<g id="SPLINE_100_">
			<path class="st13" d="M162.72,95.73c-0.1,0.27,0.05,0.58,0.33,0.72"/>
		</g>
		<g id="SPLINE_99_">
			<path class="st13" d="M161.32,95.62c0.29,0.14,0.62,0.05,0.77-0.19"/>
		</g>
		<g id="LINE_100_">
			<line class="st13" x1="162.72" y1="95.73" x2="163.55" y2="94.61"/>
		</g>
		<g id="LINE_97_">
			<line class="st13" x1="162.1" y1="95.43" x2="162.45" y2="94.08"/>
		</g>
		<g id="SPLINE_98_">
			<path class="st13" d="M158.39,92.13c0.11-0.29-0.07-0.62-0.38-0.74c-0.28-0.11-0.58-0.02-0.72,0.21"/>
		</g>
		<g id="SPLINE_97_">
			<path class="st13" d="M157.56,93.25c-0.1,0.27,0.05,0.58,0.33,0.72"/>
		</g>
		<g id="SPLINE_96_">
			<path class="st13" d="M156.16,93.14c0.29,0.14,0.62,0.05,0.77-0.19"/>
		</g>
		<g id="LINE_96_">
			<line class="st13" x1="157.56" y1="93.25" x2="158.39" y2="92.13"/>
		</g>
		<g id="LINE_95_">
			<line class="st13" x1="156.93" y1="92.95" x2="157.29" y2="91.6"/>
		</g>
		<g id="SPLINE_95_">
			<path class="st13" d="M160.12,92.96c0.11-0.29-0.07-0.62-0.38-0.74c-0.28-0.11-0.58-0.02-0.72,0.21"/>
		</g>
		<g id="SPLINE_94_">
			<path class="st13" d="M159.3,94.08c-0.1,0.27,0.05,0.58,0.33,0.72"/>
		</g>
		<g id="SPLINE_93_">
			<path class="st13" d="M157.89,93.97c0.29,0.14,0.62,0.05,0.77-0.19"/>
		</g>
		<g id="LINE_88_">
			<line class="st13" x1="159.3" y1="94.08" x2="160.12" y2="92.96"/>
		</g>
		<g id="LINE_87_">
			<line class="st13" x1="158.67" y1="93.78" x2="159.02" y2="92.43"/>
		</g>
		<g id="SPLINE_92_">
			<path class="st13" d="M156.66,91.3c0.11-0.29-0.07-0.62-0.38-0.74c-0.28-0.11-0.58-0.02-0.72,0.21"/>
		</g>
		<g id="SPLINE_91_">
			<path class="st13" d="M155.83,92.42c-0.1,0.27,0.05,0.58,0.33,0.72"/>
		</g>
		<g id="LINE_86_">
			<line class="st13" x1="155.83" y1="92.42" x2="156.66" y2="91.3"/>
		</g>
		<g id="LINE_85_">
			<line class="st13" x1="155.2" y1="92.11" x2="155.55" y2="90.77"/>
		</g>
		<g id="SPLINE_85_">
			<path class="st13" d="M170.49,97.94c0.11-0.29-0.07-0.62-0.38-0.74c-0.28-0.11-0.58-0.02-0.72,0.21"/>
		</g>
		<g id="SPLINE_84_">
			<path class="st13" d="M169.66,99.06c-0.1,0.27,0.05,0.58,0.33,0.72"/>
		</g>
		<g id="SPLINE_83_">
			<path class="st13" d="M168.26,98.95c0.29,0.14,0.62,0.05,0.77-0.19"/>
		</g>
		<g id="LINE_78_">
			<line class="st13" x1="169.66" y1="99.06" x2="170.49" y2="97.94"/>
		</g>
		<g id="LINE_77_">
			<line class="st13" x1="169.03" y1="98.76" x2="169.39" y2="97.41"/>
		</g>
		<g id="SPLINE_82_">
			<path class="st13" d="M167.02,96.28c0.11-0.29-0.07-0.62-0.38-0.74c-0.28-0.11-0.58-0.02-0.72,0.21"/>
		</g>
		<g id="SPLINE_81_">
			<path class="st13" d="M166.19,97.39c-0.1,0.27,0.05,0.58,0.33,0.72"/>
		</g>
		<g id="SPLINE_80_">
			<path class="st13" d="M164.79,97.28c0.29,0.14,0.62,0.05,0.77-0.19"/>
		</g>
		<g id="LINE_59_">
			<line class="st13" x1="166.19" y1="97.39" x2="167.02" y2="96.28"/>
		</g>
		<g id="LINE_58_">
			<line class="st13" x1="165.56" y1="97.09" x2="165.92" y2="95.75"/>
		</g>
		<g id="SPLINE_77_">
			<path class="st13" d="M168.76,97.11c0.11-0.29-0.07-0.62-0.38-0.74c-0.28-0.11-0.58-0.02-0.72,0.21"/>
		</g>
		<g id="SPLINE_76_">
			<path class="st13" d="M167.93,98.23c-0.1,0.27,0.05,0.58,0.33,0.72"/>
		</g>
		<g id="SPLINE_75_">
			<path class="st13" d="M166.53,98.12c0.29,0.14,0.62,0.05,0.77-0.19"/>
		</g>
		<g id="LINE_57_">
			<line class="st13" x1="167.93" y1="98.23" x2="168.76" y2="97.11"/>
		</g>
		<g id="LINE_56_">
			<line class="st13" x1="167.3" y1="97.92" x2="167.65" y2="96.58"/>
		</g>
		<g id="SPLINE_74_">
			<path class="st13" d="M165.29,95.44c0.11-0.29-0.07-0.62-0.38-0.74c-0.28-0.11-0.58-0.02-0.72,0.21"/>
		</g>
		<g id="SPLINE_73_">
			<path class="st13" d="M164.46,96.56c-0.1,0.27,0.05,0.58,0.33,0.72"/>
		</g>
		<g id="SPLINE_72_">
			<path class="st13" d="M163.06,96.45c0.29,0.14,0.62,0.05,0.77-0.19"/>
		</g>
		<g id="LINE_53_">
			<line class="st13" x1="164.46" y1="96.56" x2="165.29" y2="95.44"/>
		</g>
		<g id="LINE_52_">
			<line class="st13" x1="163.83" y1="96.26" x2="164.18" y2="94.91"/>
		</g>
		<g id="SPLINE_71_">
			<path class="st13" d="M179.16,102.1c0.11-0.29-0.07-0.62-0.38-0.74c-0.28-0.11-0.58-0.02-0.72,0.21"/>
		</g>
		<g id="SPLINE_70_">
			<path class="st13" d="M178.33,103.22c-0.1,0.27,0.05,0.58,0.33,0.72"/>
		</g>
		<g id="SPLINE_69_">
			<path class="st13" d="M176.93,103.11c0.29,0.14,0.62,0.05,0.77-0.19"/>
		</g>
		<g id="LINE_51_">
			<line class="st13" x1="178.33" y1="103.22" x2="179.16" y2="102.1"/>
		</g>
		<g id="LINE_50_">
			<line class="st13" x1="177.7" y1="102.92" x2="178.06" y2="101.57"/>
		</g>
		<g id="SPLINE_68_">
			<path class="st13" d="M180.9,102.94c0.11-0.29-0.07-0.62-0.38-0.74c-0.28-0.11-0.58-0.02-0.72,0.21"/>
		</g>
		<g id="SPLINE_66_">
			<path class="st13" d="M178.67,103.94c0.29,0.14,0.62,0.05,0.77-0.19"/>
		</g>
		<g id="LINE_49_">
			<line class="st13" x1="180.07" y1="104.05" x2="180.9" y2="102.94"/>
		</g>
		<g id="LINE_48_">
			<line class="st13" x1="179.44" y1="103.75" x2="179.79" y2="102.41"/>
		</g>
		<g id="SPLINE_65_">
			<path class="st13" d="M175.69,100.44c0.11-0.29-0.07-0.62-0.38-0.74c-0.28-0.11-0.58-0.02-0.72,0.21"/>
		</g>
		<g id="SPLINE_64_">
			<path class="st13" d="M174.86,101.56c-0.1,0.27,0.05,0.58,0.33,0.72"/>
		</g>
		<g id="SPLINE_63_">
			<path class="st13" d="M173.46,101.45c0.29,0.14,0.62,0.05,0.77-0.19"/>
		</g>
		<g id="LINE_45_">
			<line class="st13" x1="174.86" y1="101.56" x2="175.69" y2="100.44"/>
		</g>
		<g id="LINE_44_">
			<line class="st13" x1="174.23" y1="101.25" x2="174.59" y2="99.91"/>
		</g>
		<g id="SPLINE_62_">
			<path class="st13" d="M177.43,101.27c0.11-0.29-0.07-0.62-0.38-0.74c-0.28-0.11-0.58-0.02-0.72,0.21"/>
		</g>
		<g id="SPLINE_61_">
			<path class="st13" d="M176.6,102.39c-0.1,0.27,0.05,0.58,0.33,0.72"/>
		</g>
		<g id="SPLINE_60_">
			<path class="st13" d="M175.2,102.28c0.29,0.14,0.62,0.05,0.77-0.19"/>
		</g>
		<g id="LINE_16_">
			<line class="st13" x1="176.6" y1="102.39" x2="177.43" y2="101.27"/>
		</g>
		<g id="LINE_9_">
			<line class="st13" x1="175.97" y1="102.09" x2="176.32" y2="100.74"/>
		</g>
		<g id="SPLINE_56_">
			<path class="st13" d="M172.22,98.77c0.11-0.29-0.07-0.62-0.38-0.74c-0.28-0.11-0.58-0.02-0.72,0.21"/>
		</g>
		<g id="SPLINE_55_">
			<path class="st13" d="M171.4,99.89c-0.1,0.27,0.05,0.58,0.33,0.72"/>
		</g>
		<g id="SPLINE_54_">
			<path class="st13" d="M169.99,99.78c0.29,0.14,0.62,0.05,0.77-0.19"/>
		</g>
		<g id="LINE_8_">
			<line class="st13" x1="171.4" y1="99.89" x2="172.22" y2="98.77"/>
		</g>
		<g id="LINE_7_">
			<line class="st13" x1="170.77" y1="99.59" x2="171.12" y2="98.24"/>
		</g>
		<g id="SPLINE_53_">
			<path class="st13" d="M173.96,99.61c0.11-0.29-0.07-0.62-0.38-0.74c-0.28-0.11-0.58-0.02-0.72,0.21"/>
		</g>
		<g id="SPLINE_52_">
			<path class="st13" d="M173.13,100.72c-0.1,0.27,0.05,0.58,0.33,0.72"/>
		</g>
		<g id="SPLINE_51_">
			<path class="st13" d="M171.73,100.61c0.29,0.14,0.62,0.05,0.77-0.19"/>
		</g>
		<g id="LINE_6_">
			<line class="st13" x1="173.13" y1="100.72" x2="173.96" y2="99.61"/>
		</g>
		<g id="LINE_5_">
			<line class="st13" x1="172.5" y1="100.42" x2="172.85" y2="99.08"/>
		</g>
		<g id="SPLINE_44_">
			<path class="st13" d="M161.86,93.8c0.11-0.29-0.07-0.62-0.38-0.74c-0.28-0.11-0.58-0.02-0.72,0.21"/>
		</g>
		<g id="SPLINE_43_">
			<path class="st13" d="M161.03,94.91c-0.1,0.27,0.05,0.58,0.33,0.72"/>
		</g>
		<g id="SPLINE_42_">
			<path class="st13" d="M159.63,94.8c0.29,0.14,0.62,0.05,0.77-0.19"/>
		</g>
		<g id="LINE_2_">
			<line class="st13" x1="161.03" y1="94.91" x2="161.86" y2="93.8"/>
		</g>
		<g id="LINE_1_">
			<line class="st13" x1="160.4" y1="94.61" x2="160.75" y2="93.27"/>
		</g>
	</g>
	<g>
		<g id="SPLINE_196_">
			<path class="st13" d="M283.17,150.96c0.11-0.29-0.07-0.62-0.38-0.74c-0.28-0.11-0.58-0.02-0.72,0.21"/>
		</g>
		<g id="SPLINE_195_">
			<path class="st13" d="M282.34,152.08c-0.1,0.27,0.05,0.58,0.33,0.72"/>
		</g>
		<g id="SPLINE_174_">
			<path class="st13" d="M280.94,151.97c0.29,0.14,0.62,0.05,0.77-0.19"/>
		</g>
		<g id="LINE_137_">
			<line class="st13" x1="282.34" y1="152.08" x2="283.17" y2="150.96"/>
		</g>
		<g id="LINE_136_">
			<line class="st13" x1="281.71" y1="151.77" x2="282.06" y2="150.43"/>
		</g>
		<g id="SPLINE_173_">
			<path class="st13" d="M278,148.48c0.11-0.29-0.07-0.62-0.38-0.74c-0.28-0.11-0.58-0.02-0.72,0.21"/>
		</g>
		<g id="SPLINE_172_">
			<path class="st13" d="M277.18,149.6c-0.1,0.27,0.05,0.58,0.33,0.72"/>
		</g>
		<g id="SPLINE_171_">
			<path class="st13" d="M275.77,149.49c0.29,0.14,0.62,0.05,0.77-0.19"/>
		</g>
		<g id="LINE_135_">
			<line class="st13" x1="277.18" y1="149.6" x2="278" y2="148.48"/>
		</g>
		<g id="LINE_134_">
			<line class="st13" x1="276.55" y1="149.29" x2="276.9" y2="147.95"/>
		</g>
		<g id="SPLINE_170_">
			<path class="st13" d="M279.74,149.31c0.11-0.29-0.07-0.62-0.38-0.74c-0.28-0.11-0.58-0.02-0.72,0.21"/>
		</g>
		<g id="SPLINE_169_">
			<path class="st13" d="M278.91,150.43c-0.1,0.27,0.05,0.58,0.33,0.72"/>
		</g>
		<g id="SPLINE_168_">
			<path class="st13" d="M277.51,150.32c0.29,0.14,0.62,0.05,0.77-0.19"/>
		</g>
		<g id="LINE_133_">
			<line class="st13" x1="278.91" y1="150.43" x2="279.74" y2="149.31"/>
		</g>
		<g id="LINE_132_">
			<line class="st13" x1="278.28" y1="150.13" x2="278.63" y2="148.78"/>
		</g>
		<g id="SPLINE_156_">
			<path class="st13" d="M276.27,147.64c0.11-0.29-0.07-0.62-0.38-0.74c-0.28-0.11-0.58-0.02-0.72,0.21"/>
		</g>
		<g id="SPLINE_155_">
			<path class="st13" d="M275.44,148.76c-0.1,0.27,0.05,0.58,0.33,0.72"/>
		</g>
		<g id="LINE_131_">
			<line class="st13" x1="275.44" y1="148.76" x2="276.27" y2="147.64"/>
		</g>
		<g id="LINE_130_">
			<line class="st13" x1="274.81" y1="148.46" x2="275.17" y2="147.11"/>
		</g>
		<g id="SPLINE_154_">
			<path class="st13" d="M290.1,154.29c0.11-0.29-0.07-0.62-0.38-0.74c-0.28-0.11-0.58-0.02-0.72,0.21"/>
		</g>
		<g id="SPLINE_153_">
			<path class="st13" d="M289.28,155.41c-0.1,0.27,0.05,0.58,0.33,0.72"/>
		</g>
		<g id="SPLINE_152_">
			<path class="st13" d="M287.87,155.29c0.29,0.14,0.62,0.05,0.77-0.19"/>
		</g>
		<g id="LINE_129_">
			<line class="st13" x1="289.28" y1="155.41" x2="290.1" y2="154.29"/>
		</g>
		<g id="LINE_128_">
			<line class="st13" x1="288.65" y1="155.1" x2="289" y2="153.76"/>
		</g>
		<g id="SPLINE_151_">
			<path class="st13" d="M286.64,152.62c0.11-0.29-0.07-0.62-0.38-0.74c-0.28-0.11-0.58-0.02-0.72,0.21"/>
		</g>
		<g id="SPLINE_150_">
			<path class="st13" d="M285.81,153.74c-0.1,0.27,0.05,0.58,0.33,0.72"/>
		</g>
		<g id="SPLINE_149_">
			<path class="st13" d="M284.41,153.63c0.29,0.14,0.62,0.05,0.77-0.19"/>
		</g>
		<g id="LINE_127_">
			<line class="st13" x1="285.81" y1="153.74" x2="286.64" y2="152.62"/>
		</g>
		<g id="LINE_126_">
			<line class="st13" x1="285.18" y1="153.44" x2="285.53" y2="152.09"/>
		</g>
		<g id="SPLINE_148_">
			<path class="st13" d="M288.37,153.45c0.11-0.29-0.07-0.62-0.38-0.74c-0.28-0.11-0.58-0.02-0.72,0.21"/>
		</g>
		<g id="SPLINE_147_">
			<path class="st13" d="M287.54,154.57c-0.1,0.27,0.05,0.58,0.33,0.72"/>
		</g>
		<g id="SPLINE_146_">
			<path class="st13" d="M286.14,154.46c0.29,0.14,0.62,0.05,0.77-0.19"/>
		</g>
		<g id="LINE_125_">
			<line class="st13" x1="287.54" y1="154.57" x2="288.37" y2="153.45"/>
		</g>
		<g id="LINE_124_">
			<line class="st13" x1="286.91" y1="154.27" x2="287.27" y2="152.92"/>
		</g>
		<g id="SPLINE_145_">
			<path class="st13" d="M284.9,151.79c0.11-0.29-0.07-0.62-0.38-0.74c-0.28-0.11-0.58-0.02-0.72,0.21"/>
		</g>
		<g id="SPLINE_144_">
			<path class="st13" d="M284.07,152.91c-0.1,0.27,0.05,0.58,0.33,0.72"/>
		</g>
		<g id="SPLINE_119_">
			<path class="st13" d="M282.67,152.8c0.29,0.14,0.62,0.05,0.77-0.19"/>
		</g>
		<g id="LINE_123_">
			<line class="st13" x1="284.07" y1="152.91" x2="284.9" y2="151.79"/>
		</g>
		<g id="LINE_122_">
			<line class="st13" x1="283.44" y1="152.61" x2="283.8" y2="151.26"/>
		</g>
		<g id="SPLINE_118_">
			<path class="st13" d="M298.78,158.45c0.11-0.29-0.07-0.62-0.38-0.74c-0.28-0.11-0.58-0.02-0.72,0.21"/>
		</g>
		<g id="SPLINE_117_">
			<path class="st13" d="M297.95,159.57c-0.1,0.27,0.05,0.58,0.33,0.72"/>
		</g>
		<g id="SPLINE_114_">
			<path class="st13" d="M296.55,159.46c0.29,0.14,0.62,0.05,0.77-0.19"/>
		</g>
		<g id="LINE_121_">
			<line class="st13" x1="297.95" y1="159.57" x2="298.78" y2="158.45"/>
		</g>
		<g id="LINE_120_">
			<line class="st13" x1="297.32" y1="159.27" x2="297.67" y2="157.92"/>
		</g>
		<g id="SPLINE_113_">
			<path class="st13" d="M300.51,159.28c0.11-0.29-0.07-0.62-0.38-0.74c-0.28-0.11-0.58-0.02-0.72,0.21"/>
		</g>
		<g id="SPLINE_112_">
			<path class="st13" d="M298.28,160.29c0.29,0.14,0.62,0.05,0.77-0.19"/>
		</g>
		<g id="LINE_119_">
			<line class="st13" x1="299.68" y1="160.4" x2="300.51" y2="159.28"/>
		</g>
		<g id="LINE_118_">
			<line class="st13" x1="299.05" y1="160.1" x2="299.41" y2="158.75"/>
		</g>
		<g id="SPLINE_111_">
			<path class="st13" d="M295.31,156.78c0.11-0.29-0.07-0.62-0.38-0.74c-0.28-0.11-0.58-0.02-0.72,0.21"/>
		</g>
		<g id="SPLINE_110_">
			<path class="st13" d="M294.48,157.9c-0.1,0.27,0.05,0.58,0.33,0.72"/>
		</g>
		<g id="SPLINE_109_">
			<path class="st13" d="M293.08,157.79c0.29,0.14,0.62,0.05,0.77-0.19"/>
		</g>
		<g id="LINE_117_">
			<line class="st13" x1="294.48" y1="157.9" x2="295.31" y2="156.78"/>
		</g>
		<g id="LINE_107_">
			<line class="st13" x1="293.85" y1="157.6" x2="294.2" y2="156.25"/>
		</g>
		<g id="SPLINE_108_">
			<path class="st13" d="M297.04,157.62c0.11-0.29-0.07-0.62-0.38-0.74c-0.28-0.11-0.58-0.02-0.72,0.21"/>
		</g>
		<g id="SPLINE_107_">
			<path class="st13" d="M296.21,158.74c-0.1,0.27,0.05,0.58,0.33,0.72"/>
		</g>
		<g id="SPLINE_106_">
			<path class="st13" d="M294.81,158.62c0.29,0.14,0.62,0.05,0.77-0.19"/>
		</g>
		<g id="LINE_106_">
			<line class="st13" x1="296.21" y1="158.74" x2="297.04" y2="157.62"/>
		</g>
		<g id="LINE_105_">
			<line class="st13" x1="295.58" y1="158.43" x2="295.94" y2="157.09"/>
		</g>
		<g id="SPLINE_105_">
			<path class="st13" d="M291.84,155.12c0.11-0.29-0.07-0.62-0.38-0.74c-0.28-0.11-0.58-0.02-0.72,0.21"/>
		</g>
		<g id="SPLINE_104_">
			<path class="st13" d="M291.01,156.24c-0.1,0.27,0.05,0.58,0.33,0.72"/>
		</g>
		<g id="SPLINE_103_">
			<path class="st13" d="M289.61,156.13c0.29,0.14,0.62,0.05,0.77-0.19"/>
		</g>
		<g id="LINE_104_">
			<line class="st13" x1="291.01" y1="156.24" x2="291.84" y2="155.12"/>
		</g>
		<g id="LINE_103_">
			<line class="st13" x1="290.38" y1="155.94" x2="290.73" y2="154.59"/>
		</g>
		<g id="SPLINE_102_">
			<path class="st13" d="M293.57,155.95c0.11-0.29-0.07-0.62-0.38-0.74c-0.28-0.11-0.58-0.02-0.72,0.21"/>
		</g>
		<g id="SPLINE_90_">
			<path class="st13" d="M292.74,157.07c-0.1,0.27,0.05,0.58,0.33,0.72"/>
		</g>
		<g id="SPLINE_67_">
			<path class="st13" d="M291.34,156.96c0.29,0.14,0.62,0.05,0.77-0.19"/>
		</g>
		<g id="LINE_102_">
			<line class="st13" x1="292.74" y1="157.07" x2="293.57" y2="155.95"/>
		</g>
		<g id="LINE_101_">
			<line class="st13" x1="292.11" y1="156.77" x2="292.47" y2="155.42"/>
		</g>
		<g id="SPLINE_50_">
			<path class="st13" d="M281.47,150.14c0.11-0.29-0.07-0.62-0.38-0.74c-0.28-0.11-0.58-0.02-0.72,0.21"/>
		</g>
		<g id="SPLINE_49_">
			<path class="st13" d="M280.64,151.26c-0.1,0.27,0.05,0.58,0.33,0.72"/>
		</g>
		<g id="SPLINE_48_">
			<path class="st13" d="M279.24,151.15c0.29,0.14,0.62,0.05,0.77-0.19"/>
		</g>
		<g id="LINE_4_">
			<line class="st13" x1="280.64" y1="151.26" x2="281.47" y2="150.14"/>
		</g>
		<g id="LINE_3_">
			<line class="st13" x1="280.01" y1="150.96" x2="280.37" y2="149.61"/>
		</g>
	</g>
	<g>
		<g>
			<g>
				<g>
					<polyline class="st11" points="116.08,36.83 167.28,36.83 206.93,118.48 					"/>
					<g>
						<polygon points="203.45,117.97 210.8,126.45 208.68,115.43 						"/>
					</g>
				</g>
			</g>
		</g>
	</g>
</g>
</svg>
