<svg id="_0" data-name="0" xmlns="http://www.w3.org/2000/svg" xmlns:xlink="http://www.w3.org/1999/xlink" viewBox="0 0 497.06 128.97"><defs><style>.cls-1,.cls-273,.cls-274,.cls-275,.cls-277{fill:none;}.cls-2{fill:#fff;}.cls-3{fill:#3f4040;}.cls-4{fill:#262626;}.cls-5{fill:#434343;}.cls-6{fill:#252526;}.cls-7{fill:#454545;}.cls-8{fill:#434444;}.cls-9{fill:#444544;}.cls-10{fill:#c9c7c6;}.cls-11{fill:#484948;}.cls-12{fill:#424243;}.cls-13{fill:#b6b5b5;}.cls-14{fill:#555;}.cls-15{fill:#cccaca;}.cls-16{fill:#3c3c3c;}.cls-17{fill:#8a8a8a;}.cls-18{fill:#1d1d1d;}.cls-19{fill:#464747;}.cls-20{fill:#3f3f3f;}.cls-21{fill:#3b3c3c;}.cls-22{fill:#202020;}.cls-23{fill:#525252;}.cls-24{fill:#494949;}.cls-25{fill:#414141;}.cls-26{fill:#3e3f3e;}.cls-27{fill:#363637;}.cls-28{fill:#464646;}.cls-29{fill:#bbb;}.cls-30{fill:#383838;}.cls-31{fill:#afafae;}.cls-32{fill:#444545;}.cls-33{fill:#5d5e5e;}.cls-34{fill:#3e3e3e;}.cls-35{fill:#2d2d2d;}.cls-36{fill:#303131;}.cls-37{fill:#1b1b1b;}.cls-38{fill:#3c3d3c;}.cls-39{fill:#3e3f3f;}.cls-40{fill:#4f4f4f;}.cls-41{fill:#353536;}.cls-42{fill:#767676;}.cls-43{fill:#3d3e3e;}.cls-44{fill:#424343;}.cls-45{fill:#262727;}.cls-46{fill:#323232;}.cls-47{fill:#6b6b6b;}.cls-48{fill:#4d4e4e;}.cls-49{fill:#252525;}.cls-50{fill:#5e5e5e;}.cls-51{fill:#323333;}.cls-52{fill:#404141;}.cls-53{fill:#6e6d6d;}.cls-54{fill:#404040;}.cls-55{fill:#4f504f;}.cls-56{fill:#5e5d5d;}.cls-57{fill:#2c2d2d;}.cls-58{fill:#373737;}.cls-59{fill:#2c2c2c;}.cls-60{fill:#383839;}.cls-61{fill:#4e4e4e;}.cls-62{fill:#20201f;}.cls-63{fill:#636463;}.cls-64{fill:#373838;}.cls-65{fill:#2a2a2a;}.cls-66{fill:#464545;}.cls-67{fill:#353535;}.cls-68{fill:#444;}.cls-69{fill:#484848;}.cls-70{fill:#404140;}.cls-71{fill:#393939;}.cls-72{fill:#4c4c4c;}.cls-73{fill:#3c3b3b;}.cls-74{fill:#767677;}.cls-75{fill:#474848;}.cls-76{fill:#595959;}.cls-77{fill:#1a1a1a;}.cls-78{fill:#3b3b3b;}.cls-79{fill:#545554;}.cls-80{fill:#4c4c4b;}.cls-81{fill:#787878;}.cls-82{fill:#2e2f2f;}.cls-83{fill:#303030;}.cls-84{fill:#363736;}.cls-85{fill:#707070;}.cls-86{fill:#333334;}.cls-87{fill:#3d3d3d;}.cls-88{fill:#505050;}.cls-89{fill:#7b7c7b;}.cls-90{fill:#b7b6b6;}.cls-91{fill:#505151;}.cls-92{fill:#2b2c2c;}.cls-93{fill:#373837;}.cls-94{fill:#2a2b2b;}.cls-95{fill:#131314;}.cls-96{fill:#424141;}.cls-97{fill:#414242;}.cls-98{fill:#2d2e2e;}.cls-99{fill:#333434;}.cls-100{fill:#595a59;}.cls-101{fill:#5a5a59;}.cls-102{fill:#6b6a6a;}.cls-103{fill:#616160;}.cls-104{fill:#383939;}.cls-105{fill:#454646;}.cls-106{fill:#4f5050;}.cls-107{fill:#272828;}.cls-108{fill:#343435;}.cls-109{fill:#818080;}.cls-110{fill:#888;}.cls-111{fill:#272727;}.cls-112{fill:#7b7b7b;}.cls-113{fill:#676666;}.cls-114{fill:#3a3a3a;}.cls-115{fill:#494a4a;}.cls-116{fill:#4a4b4b;}.cls-117{fill:#5a5a5a;}.cls-118{fill:#5b5c5b;}.cls-119{fill:#565555;}.cls-120{fill:#454645;}.cls-121{fill:#313232;}.cls-122{fill:#313332;}.cls-123{fill:#474847;}.cls-124{fill:#515151;}.cls-125{fill:#30302f;}.cls-126{fill:#393a3a;}.cls-127{fill:#1d1e1e;}.cls-128{fill:#717171;}.cls-129{fill:#454445;}.cls-130{fill:#303130;}.cls-131{fill:#6c6b6b;}.cls-132{fill:#2b2b2b;}.cls-133{fill:#2f3030;}.cls-134{fill:#484949;}.cls-135{fill:#777676;}.cls-136{fill:#515152;}.cls-137{fill:#232323;}.cls-138{fill:#747373;}.cls-139{fill:#595958;}.cls-140{fill:#4d4d4d;}.cls-141{fill:#5b5b5a;}.cls-142{fill:#353636;}.cls-143{fill:#4a4a4a;}.cls-144{fill:#d6d6d5;}.cls-145{fill:#191919;}.cls-146{fill:#2a2c2c;}.cls-147{fill:#313132;}.cls-148{fill:#181818;}.cls-149{fill:#454546;}.cls-150{fill:#585857;}.cls-151{fill:#565756;}.cls-152{fill:#3c3d3d;}.cls-153{fill:#575757;}.cls-154{fill:#242424;}.cls-155{fill:#373939;}.cls-156{fill:#818181;}.cls-157{fill:#5d5d5e;}.cls-158{fill:#7c7c7c;}.cls-159{fill:#474747;}.cls-160{fill:#6c6c6c;}.cls-161{fill:#585858;}.cls-162{fill:#535453;}.cls-163{fill:#575756;}.cls-164{fill:#151616;}.cls-165{fill:#1c1c1c;}.cls-166{fill:#c6c4c4;}.cls-167{fill:#222223;}.cls-168{fill:#515251;}.cls-169{fill:#535353;}.cls-170{fill:#313131;}.cls-171{fill:#494948;}.cls-172{fill:#9e9e9d;}.cls-173{fill:#939191;}.cls-174{fill:#b7b7b6;}.cls-175{fill:#6d6c6c;}.cls-176{fill:#505150;}.cls-177{fill:#1a1b1b;}.cls-178{fill:#4b4c4c;}.cls-179{fill:#323233;}.cls-180{fill:#494a49;}.cls-181{fill:#464746;}.cls-182{fill:#3a3b3b;}.cls-183{fill:#575858;}.cls-184{fill:#454544;}.cls-185{fill:#494849;}.cls-186{fill:#cecdcc;}.cls-187{fill:#f5f5f5;}.cls-188{fill:#666565;}.cls-189{fill:#363737;}.cls-190{fill:#cac9c8;}.cls-191{fill:#5b5c5c;}.cls-192{fill:#c3c1c2;}.cls-193{fill:#969696;}.cls-194{fill:#d0cfce;}.cls-195{fill:#dad8d8;}.cls-196{fill:#424242;}.cls-197{fill:#373738;}.cls-198{fill:#e8e7e7;}.cls-199{fill:#424342;}.cls-200{fill:#4e4f4e;}.cls-201{fill:#1f2020;}.cls-202{fill:#dbdad9;}.cls-203{fill:#f3f2f2;}.cls-204{fill:#292929;}.cls-205{fill:#212121;}.cls-206{fill:#414142;}.cls-207{fill:#343434;}.cls-208{fill:#242525;}.cls-209{fill:#c1c1c1;}.cls-210{fill:#eeeded;}.cls-211{fill:#777878;}.cls-212{fill:#5b5a5a;}.cls-213{fill:#4a4949;}.cls-214{fill:#4c4d4c;}.cls-215{fill:#e5e4e4;}.cls-216{fill:#d9d8d8;}.cls-217{fill:#222;}.cls-218{fill:#3c3e3e;}.cls-219{fill:#838384;}.cls-220{fill:#d0cfcf;}.cls-221{fill:#3c3d3e;}.cls-222{fill:#585757;}.cls-223{fill:#282929;}.cls-224{fill:#464847;}.cls-225{fill:#898888;}.cls-226{fill:#2e2e2e;}.cls-227{fill:#cdcbca;}.cls-228{fill:#2f2f2f;}.cls-229{fill:#141414;}.cls-230{fill:#cfcfce;}.cls-231{fill:#868585;}.cls-232{fill:#545555;}.cls-233{fill:#131313;}.cls-234{fill:#525352;}.cls-235{fill:#7a7b7b;}.cls-236{fill:#545454;}.cls-237{fill:#d8d7d7;}.cls-238{fill:#e5e5e4;}.cls-239{fill:#cecccb;}.cls-240{fill:#e7e6e6;}.cls-241{fill:#eceaea;}.cls-242{fill:#eae9e9;}.cls-243{fill:#343536;}.cls-244{fill:#434544;}.cls-245{fill:#d8d8d7;}.cls-246{fill:#313030;}.cls-247{fill:#323332;}.cls-248{fill:#131414;}.cls-249{fill:#f0eeee;}.cls-250{fill:#e3e2e2;}.cls-251{fill:#222424;}.cls-252{fill:#111;}.cls-253{fill:#555554;}.cls-254{fill:#242425;}.cls-255{fill:#151515;}.cls-256{fill:#bebcbc;}.cls-257{fill:#3b3b3c;}.cls-258{fill:#333;}.cls-259{fill:#525050;}.cls-260{fill:#343535;}.cls-261{fill:#636362;}.cls-262{fill:#141515;}.cls-263{fill:#474647;}.cls-264{fill:#252626;}.cls-265{fill:#212222;}.cls-266{fill:#848485;}.cls-267{fill:#d8d6d6;}.cls-268{fill:#757474;}.cls-269{fill:#f0efee;}.cls-270{fill:#e4e4e3;}.cls-271{fill:#eae9e8;}.cls-272{fill:url(#Sand);}.cls-273{stroke:#000;stroke-width:0.59px;}.cls-273,.cls-275,.cls-277{stroke-linecap:round;}.cls-273,.cls-277{stroke-linejoin:round;}.cls-274,.cls-275,.cls-277{stroke:#231f20;}.cls-274,.cls-275{stroke-miterlimit:10;}.cls-276{fill:#231f20;fill-rule:evenodd;}</style><pattern id="Sand" data-name="Sand" width="75.4" height="73.44" patternTransform="translate(26.24 14.13)" patternUnits="userSpaceOnUse" viewBox="0 0 75.4 73.44"><rect class="cls-1" width="75.4" height="73.44"/><path class="cls-2" d="M75.39,36.78q0,18.07,0,36.15c0,.41-.08.51-.51.51q-37.18,0-74.37,0c-.43,0-.52-.08-.52-.5Q0,36.72,0,.51C0,.09.08,0,.51,0H74.88c.43,0,.52.07.52.5Q75.37,18.63,75.39,36.78Z"/><path class="cls-3" d="M17.08,5.23c.28.23.65.34.55.7S17.2,6.14,17,6,17.06,5.55,17.08,5.23Z"/><path class="cls-4" d="M58.85,62.36c.1,0,.22.15.1.2s-.48.15-.57,0a2.92,2.92,0,0,0-.29-.4c-.1-.11,0-.32.15-.35s.4.11.49.33C58.64,62.26,58.7,62.33,58.85,62.36Z"/><path class="cls-5" d="M66.45,59.78c0-.06,0-.12,0-.18s.1-.37.29-.43.14.11.19.19a.34.34,0,0,1-.13.54C66.63,60,66.53,59.94,66.45,59.78Z"/><path class="cls-6" d="M38.05,33.94c.13.05.3.17.22.28a.45.45,0,0,1-.55.07c-.1-.07-.41-.27-.1-.5A.68.68,0,0,1,38.05,33.94Z"/><path class="cls-7" d="M10.18,13.47c-.27.18-.48.27-.65.11a.26.26,0,0,1,.06-.37C9.85,13.08,9.93,13.36,10.18,13.47Z"/><path class="cls-5" d="M24.72,72.64c-.22,0-.48,0-.52-.25a.21.21,0,0,1,.25-.21C24.79,72.2,24.6,72.49,24.72,72.64Z"/><path class="cls-8" d="M52.52,71c-.17-.1-.54.09-.49-.28,0-.1.16-.27.21-.26C52.53,70.54,52.43,70.83,52.52,71Z"/><path class="cls-9" d="M61,68.46c-.16-.12-.52.08-.48-.28,0-.11.15-.28.2-.27C61,68,60.93,68.22,61,68.46Z"/><path class="cls-10" d="M15.6,67.41a.37.37,0,0,1,0-.54c.25-.14.37.17.55.28C16.12,67.53,15.73,67.21,15.6,67.41Z"/><path class="cls-11" d="M71.76,7.58c-.23.14-.42.28-.6.07a.23.23,0,0,1,0-.33C71.47,7.17,71.56,7.43,71.76,7.58Z"/><path class="cls-5" d="M21.42,28.27c.2.16.33.37.21.57s-.35,0-.42-.09C21,28.52,21.3,28.42,21.42,28.27Z"/><path class="cls-12" d="M56.21,56.79c-.21.16-.42.25-.6.05,0,0,0-.28.08-.32C56,56.38,56,56.66,56.21,56.79Z"/><path class="cls-13" d="M63.51,31.25c-.52,0-.09-.38-.16-.58l.54.45C63.87,31.44,63.67,31.28,63.51,31.25Z"/><path class="cls-14" d="M13.28,31.54c-.3-.14-.57-.07-.6-.33S12.8,31,13,31,13.17,31.26,13.28,31.54Z"/><path class="cls-15" d="M36.38,42c0-.17-.14-.47.18-.43s.59.16.33.55C36.74,41.92,36.52,42.12,36.38,42Z"/><path class="cls-16" d="M67.43,49.32c-.05-.16-.38-.13-.3-.37a.37.37,0,0,1,.24-.17c.28-.08.16.21.26.31s.05.15.08.23A.2.2,0,0,1,67.43,49.32Z"/><path class="cls-17" d="M50.39,9.6c.17.07.22.21.09.32a.39.39,0,0,1-.45,0c-.2-.11-.18-.28,0-.45A.5.5,0,0,1,50.39,9.6Z"/><path class="cls-18" d="M5.45,60.88c-.27-.15-.1-.38-.11-.61.23.13.46.2.49.49S5.64,61,5.45,60.88Z"/><path class="cls-19" d="M13.81,68.91c0,.12-.06.27-.21.19s-.33-.06-.29-.25.11-.31.26-.31S13.77,68.76,13.81,68.91Z"/><path class="cls-20" d="M59.2,51.81c-.27,0-.51,0-.54-.26a.21.21,0,0,1,.19-.21C59.17,51.32,59.11,51.58,59.2,51.81Z"/><path class="cls-21" d="M19.12,70.86c-.15,0-.36,0-.36-.23A.26.26,0,0,1,19,70.4c.24,0,.18.18.24.29S19.23,70.85,19.12,70.86Z"/><path class="cls-22" d="M4.72,34c-.18-.06-.47,0-.48-.25a.21.21,0,0,1,.21-.18C4.77,33.57,4.68,33.83,4.72,34Z"/><path class="cls-23" d="M61.57,9.79c-.21-.06-.5.05-.53-.26a.28.28,0,0,1,.21-.18C61.61,9.32,61.5,9.61,61.57,9.79Z"/><path class="cls-24" d="M64.35,24c.09.08.24.16.28.27s-.14.17-.25.18-.32.06-.3-.18S64.19,24.08,64.35,24Z"/><path class="cls-25" d="M27,10.43c0,.18-.17.17-.28.15s-.32.05-.29-.19a.23.23,0,0,1,.26-.21A.41.41,0,0,1,27,10.43Z"/><path class="cls-25" d="M42.68,23.21c-.35,0-.57.18-.71-.06a.19.19,0,0,1,.1-.26C42.33,22.8,42.42,23,42.68,23.21Z"/><path class="cls-26" d="M2.44,17.12c0-.11.08-.25.19-.26s.22.19.28.32.06.22-.11.2S2.46,17.35,2.44,17.12Z"/><path class="cls-7" d="M61.93,46.81c.18.23.35.42.16.63s-.3,0-.35-.1C61.56,47.13,61.8,47,61.93,46.81Z"/><path class="cls-27" d="M36.18,65.52c.08.14,0,.18-.13.17s-.34,0-.38-.2a.28.28,0,0,1,.22-.25C36.17,65.17,36.1,65.41,36.18,65.52Z"/><path class="cls-28" d="M41.66,67.49c-.21-.06-.49,0-.52-.26a.21.21,0,0,1,.24-.22C41.71,67,41.54,67.33,41.66,67.49Z"/><path class="cls-29" d="M64.79,23.5c-.26-.1-.41-.32-.22-.5s.29.14.42.24a.14.14,0,0,1,.05.23C65,23.57,64.88,23.55,64.79,23.5Z"/><path class="cls-30" d="M27.73,68.11c.07.15,0,.17-.14.17s-.35,0-.38-.22.08-.2.23-.24S27.64,68,27.73,68.11Z"/><path class="cls-28" d="M6.61,2.56c-.27-.09-.53,0-.56-.29S6.18,2,6.31,2,6.52,2.29,6.61,2.56Z"/><path class="cls-31" d="M70.71,38.11c-.14-.16-.23-.4,0-.51s.33.14.43.3C71.16,38.31,70.93,38.21,70.71,38.11Z"/><path class="cls-32" d="M70.62,44.64c0,.17,0,.28-.18.24s-.3-.13-.31-.21.09-.35.25-.36S70.58,44.52,70.62,44.64Z"/><path class="cls-33" d="M13.22,38.66c0,.16-.07.19-.18.2s-.25-.09-.25-.26a.2.2,0,0,1,.21-.23C13.23,38.37,13.09,38.62,13.22,38.66Z"/><path class="cls-34" d="M50.75,54.42c-.28-.07-.55,0-.54-.3a.2.2,0,0,1,.2-.2C50.72,53.91,50.64,54.18,50.75,54.42Z"/><path class="cls-35" d="M21.78,62.5c.24.08.47.15.45.38S22,63,21.87,63C21.58,62.9,21.83,62.67,21.78,62.5Z"/><path class="cls-36" d="M36.23,17.6c-.27-.1-.51,0-.57-.29,0,0,.11-.18.19-.2C36.17,17.05,36.12,17.32,36.23,17.6Z"/><path class="cls-37" d="M24.07,36.22c.32.17.56.22.53.5,0,0-.23.09-.34.06C23.93,36.69,24.23,36.47,24.07,36.22Z"/><path class="cls-38" d="M55,66.42c0-.15,0-.29.22-.31s.19.16.23.28,0,.24-.16.19S55,66.66,55,66.42Z"/><path class="cls-23" d="M71.25,34.12c0,.21,0,.27-.19.23s-.32,0-.29-.23.18-.2.29-.29C71.14,33.94,71.26,34.05,71.25,34.12Z"/><path class="cls-39" d="M4,14.1c.25.15.48.21.45.45s-.21.11-.31.09C3.75,14.57,3.94,14.35,4,14.1Z"/><path class="cls-25" d="M44.54,64c-.32.19-.52.24-.69.1s0-.26,0-.27C44.1,63.77,44.24,64,44.54,64Z"/><path class="cls-40" d="M56,8c-.15,0-.34,0-.36-.23s.16-.18.28-.21.18.15.23.26S56.08,8,56,8Z"/><path class="cls-25" d="M72.24,30.14c.13,0,.31-.1.37.11,0,0,0,.09-.08.14-.2-.13-.52.31-.64-.13C72,30.08,72.07,30,72.24,30.14Z"/><path class="cls-41" d="M45.88,48.4c-.25.05-.45.18-.6,0,0,0,0-.22.09-.25C45.61,48,45.73,48.15,45.88,48.4Z"/><path class="cls-7" d="M52.89,31.59c-.21.16-.4.25-.58.07s0-.22.06-.27C52.65,31.16,52.67,31.61,52.89,31.59Z"/><path class="cls-23" d="M22.88,55.75c0,.2,0,.29-.15.25s-.33,0-.32-.21.17-.3.27-.29S22.88,55.68,22.88,55.75Z"/><path class="cls-42" d="M44.08,2.34a.3.3,0,0,1-.24-.29c0-.17.09-.2.23-.19s.16.21.21.32S44.21,2.34,44.08,2.34Z"/><path class="cls-34" d="M15.67,26.88c.15-.13.24-.38.48-.18a.42.42,0,0,1,.08.32C16,27.16,15.85,27,15.67,26.88Z"/><path class="cls-40" d="M39.59,50.33a.38.38,0,0,1,.22.32c0,.1,0,.22-.14.18s-.32,0-.33-.18S39.5,50.44,39.59,50.33Z"/><path class="cls-25" d="M27.75,20.17c-.25-.07-.49,0-.54-.27a.21.21,0,0,1,.24-.22C27.77,19.69,27.66,19.94,27.75,20.17Z"/><path class="cls-43" d="M72.49,2.64c.15-.12.25-.36.48-.15A.39.39,0,0,1,73,2.8C72.83,2.93,72.66,2.8,72.49,2.64Z"/><path class="cls-44" d="M30.15,26.25c-.22,0-.49.05-.52-.22,0-.11.09-.21.24-.21C30.22,25.81,30,26.13,30.15,26.25Z"/><path class="cls-45" d="M14.33,28.23c-.44.2-.67.15-.52-.37A.66.66,0,0,1,14.33,28.23Z"/><path class="cls-46" d="M68.36,38.7c.16.12.5,0,.44.34s-.27.18-.36.15C68.16,39.1,68.4,38.87,68.36,38.7Z"/><path class="cls-47" d="M11.76,54.29a.27.27,0,0,1-.24.3c-.13,0-.16-.12-.15-.22s0-.33.18-.34A.24.24,0,0,1,11.76,54.29Z"/><path class="cls-48" d="M36.56,6.36c.09.25.32.41,0,.61a.18.18,0,0,1-.27,0C36.18,6.68,36.41,6.58,36.56,6.36Z"/><path class="cls-30" d="M31.58,19.67c0,.13.25.23.05.35a.33.33,0,0,1-.4,0,.32.32,0,0,1,0-.39c.12-.16.24.08.37.07Z"/><path class="cls-49" d="M41.62,33.62c-.48.23-.67.15-.54-.36C41.32,33.27,41.43,33.43,41.62,33.62Z"/><path class="cls-50" d="M48.66,11.23a.45.45,0,0,1,.28.53.36.36,0,0,1-.28,0C48.43,11.62,48.61,11.43,48.66,11.23Z"/><path class="cls-51" d="M40.18,49.35c-.54.18-.54.18-.49-.38A.7.7,0,0,1,40.18,49.35Z"/><path class="cls-52" d="M40.28,72.2c-.31.14-.32.14-.29-.07s0-.34.08-.52c.26,0,.35.18.46.32C40.48,72.05,40.3,72.05,40.28,72.2Z"/><path class="cls-53" d="M68.45,53.49c.15,0,.3,0,.25.24s-.27.16-.41.14-.23-.21-.11-.38A1.22,1.22,0,0,1,68.45,53.49Z"/><path class="cls-54" d="M40.16,39.74c.12.19.34.34.21.55s-.24,0-.32,0S40.12,39.92,40.16,39.74Z"/><path class="cls-55" d="M31.16,52.88c.14.2.29.36.13.52a.29.29,0,0,1-.38-.08C30.78,53.09,31.05,53,31.16,52.88Z"/><path class="cls-52" d="M47.29,27a.23.23,0,0,1,.2.25c0,.13,0,.25-.15.28s-.19,0-.19-.16S47.11,27.08,47.29,27Z"/><path class="cls-12" d="M57.58,41c0,.21-.15.2-.27.22s-.29,0-.26-.23,0-.29.16-.25S57.46,40.91,57.58,41Z"/><path class="cls-56" d="M65.07,13.4c.22.17.42.28.31.54a.21.21,0,0,1-.21.07C64.9,13.87,65.05,13.66,65.07,13.4Z"/><path class="cls-25" d="M31.59,19.69c0-.2-.08-.4.24-.37a.2.2,0,0,0,.12.08c.12,0,.27,0,.3.14s-.16.13-.25.14a2,2,0,0,1-.42,0Z"/><path class="cls-16" d="M65.06,19c0,.21-.17.17-.29.19s-.23-.14-.25-.3,0-.13.16-.11A.58.58,0,0,1,65.06,19Z"/><path class="cls-16" d="M27.07,4.84c.23.06.23.26.29.39s-.19.14-.28.13-.18-.19-.16-.33S27,4.83,27.07,4.84Z"/><path class="cls-43" d="M64.57,5.25c.09.16,0,.2-.12.18s-.34-.08-.37-.17.14-.23.27-.27S64.5,5.17,64.57,5.25Z"/><path class="cls-57" d="M51.41,41.65c.26.16.5.21.48.46s-.22.11-.32.09C51.24,42.14,51.43,41.91,51.41,41.65Z"/><path class="cls-58" d="M68.45,44.21c-.23.2-.44.29-.6.12s0-.19,0-.29Z"/><path class="cls-39" d="M9.75,52.42a.42.42,0,0,1,.55.25c-.59.19-.59.19-.57-.14,0,0,0-.05,0-.08S9.73,52.42,9.75,52.42Z"/><path class="cls-59" d="M23,52.52c-.2,0-.31,0-.27-.21s0-.3.15-.25a.53.53,0,0,1,.34.31C23.28,52.55,23.07,52.49,23,52.52Z"/><path class="cls-60" d="M15.33,17.77c-.26.08-.46.17-.63,0s0-.19,0-.29A.9.9,0,0,1,15.33,17.77Z"/><path class="cls-61" d="M27.33,67.09c.05.16-.08.16-.17.18s-.27,0-.26-.21,0-.23.1-.25S27.24,67,27.33,67.09Z"/><path class="cls-7" d="M29.93,35.34c.19,0,.39.16.35.33s-.27.19-.46.11S29.7,35.44,29.93,35.34Z"/><path class="cls-62" d="M60.48,65.91a.44.44,0,0,1,.28.31c0,.18-.07.18-.19.19s-.23-.06-.22-.21S60.34,66,60.48,65.91Z"/><path class="cls-63" d="M19.57,12.19c-.15,0-.23-.09-.21-.24s.16-.2.26-.21.19.12.19.24S19.73,12.21,19.57,12.19Z"/><path class="cls-64" d="M67.32.61c.23,0,.25.15.27.29s0,.22-.17.15-.34,0-.33-.21S67.21.64,67.32.61Z"/><path class="cls-65" d="M27.86,61.91c0,.16-.18.07-.27.08s-.19-.14-.18-.26,0-.23.12-.22S27.77,61.74,27.86,61.91Z"/><path class="cls-66" d="M37.52,13.8c-.18,0-.28,0-.26-.23s0-.29.18-.25a.57.57,0,0,1,.33.3C37.83,13.79,37.65,13.79,37.52,13.8Z"/><path class="cls-67" d="M61.42,61.09c-.27,0-.48.19-.62-.07,0-.06,0-.16,0-.23A.69.69,0,0,1,61.42,61.09Z"/><path class="cls-28" d="M56.61,51.51c0,.2-.17.15-.28.17s-.28,0-.26-.24.14-.29.16-.25S56.55,51.36,56.61,51.51Z"/><path class="cls-68" d="M45.88,42.73c.1,0,.2.07.21.18s0,.29-.17.34-.19,0-.2-.16S45.72,42.81,45.88,42.73Z"/><path class="cls-69" d="M65.8,69.23a1,1,0,0,1,.18,0c.25.13,0-.43.28-.21.08,0,.17.19.15.24s-.29.08-.44.14-.24.12-.3-.06S65.73,69.25,65.8,69.23Z"/><path class="cls-70" d="M39.16,61.09c0,.19-.12.18-.23.18s-.28,0-.23-.18.11-.3.26-.31S39.13,61,39.16,61.09Z"/><path class="cls-34" d="M69.82,28.55c0,.18-.19.11-.29.13s-.31,0-.28-.2.07-.23.19-.16S69.8,28.32,69.82,28.55Z"/><path class="cls-67" d="M32.87,70c-.1,0-.22,0-.19-.16s.08-.33.28-.32.15.17.15.29S33,70,32.87,70Z"/><path class="cls-71" d="M8.72,60.29c.12.05.23.12.18.25s-.17.11-.26.11-.36,0-.27-.26S8.57,60.22,8.72,60.29Z"/><path class="cls-72" d="M66,70.15c0,.18.27.4-.09.45-.12,0-.32.16-.35-.06S65.83,70.31,66,70.15Z"/><path class="cls-73" d="M6.77,44.56c.18.12.36.22.28.46a.19.19,0,0,1-.26.1C6.62,45,6.69,44.77,6.77,44.56Z"/><path class="cls-74" d="M38.78,59.33c.12.27.34.39.23.61s-.13.08-.21,0S38.65,59.64,38.78,59.33Z"/><path class="cls-75" d="M33.46,11.42c0,.14.25.29.11.35s-.47.27-.72,0c0-.05.07-.13.13-.18a.76.76,0,0,0,.23-.17c.06-.07.12-.16.23-.16a.08.08,0,0,1,.05.08S33.47,11.42,33.46,11.42Z"/><path class="cls-76" d="M54.64,72.51c0,.21-.19.18-.3.18s-.17-.14-.16-.26,0-.28.2-.2A1.14,1.14,0,0,1,54.64,72.51Z"/><path class="cls-49" d="M46.77,32.17l.49.42C46.73,32.77,46.73,32.77,46.77,32.17Z"/><path class="cls-25" d="M4.82,3.65l.45.4s-.08.11-.13.12C4.7,4.27,4.83,4,4.82,3.65Z"/><path class="cls-77" d="M11.72,3.58c.15.31.32.47.22.68s-.19,0-.26,0S11.65,3.88,11.72,3.58Z"/><path class="cls-52" d="M47.63,58.54c0,.19-.12.17-.24.15s-.28,0-.22-.19.11-.31.26-.3S47.6,58.4,47.63,58.54Z"/><path class="cls-25" d="M52.19,22.31c.27.11.28.33.33.53-.07,0-.16.06-.22,0C52,22.75,52.19,22.51,52.19,22.31Z"/><path class="cls-78" d="M31.09,4.64c.16.2.28.37.19.58s-.15.06-.2,0S30.9,4.89,31.09,4.64Z"/><path class="cls-34" d="M22.26,57.29c.33,0,.28.29.48.36-.15.11-.32.24-.46.12S22.23,57.44,22.26,57.29Z"/><path class="cls-79" d="M62.56,36.51c.18,0,.22.15.23.29s-.07.17-.2.14-.29,0-.29-.23S62.44,36.54,62.56,36.51Z"/><path class="cls-8" d="M14.31,22.59c.17.23.66.56-.12.54Q14.25,22.85,14.31,22.59Z"/><path class="cls-80" d="M3.24,6.19c.18.24.29.39.2.58,0,0-.19.2-.3,0S3.13,6.46,3.24,6.19Z"/><path class="cls-8" d="M49.74,6.35c-.32.21-.52.28-.71.1s0-.26,0-.28C49.28,6.09,49.4,6.36,49.74,6.35Z"/><path class="cls-81" d="M9,56.69c0,.15-.1.15-.2.14s-.22-.19-.27-.31.09-.21.2-.19S9,56.51,9,56.69Z"/><path class="cls-82" d="M.54,56.38c.09.24-.07.19-.14.2s-.29,0-.27-.21-.06-.28.13-.27A.3.3,0,0,1,.54,56.38Z"/><path class="cls-83" d="M56.14,56c0,.14,0,.21-.13.18s-.35-.08-.35-.29a.2.2,0,0,1,.21-.18C56.16,55.67,56,56,56.14,56Z"/><path class="cls-49" d="M20,27.26c-.2,0-.41.19-.55-.05a.3.3,0,0,1,.1-.26C19.78,26.87,19.89,27,20,27.26Z"/><path class="cls-39" d="M3.55,38.12c-.3-.25,0-.45,0-.68.33.06.17.3.22.45S3.64,38.06,3.55,38.12Z"/><path class="cls-84" d="M65.58,8.77s-.08-.1-.06-.27,0-.27.17-.23a.33.33,0,0,1,.26.35C66,8.77,65.85,8.76,65.58,8.77Z"/><path class="cls-85" d="M48.88,37.59c0,.17-.08.2-.19.17s-.32,0-.26-.23,0-.27.23-.24A.29.29,0,0,1,48.88,37.59Z"/><path class="cls-3" d="M6.37,55.45c-.55.28-.6,0-.54-.34C6.1,55.07,6.19,55.29,6.37,55.45Z"/><path class="cls-86" d="M72.86,53.5c.07.06.21.12.23.21s-.18.15-.3.17-.27,0-.22-.16A.27.27,0,0,1,72.86,53.5Z"/><path class="cls-16" d="M3.11,24.63c0,.23.33.15.32.34s-.2.14-.33.15-.19-.16-.16-.29S3,24.62,3.11,24.63Z"/><path class="cls-87" d="M18.7,42.88c-.34.19-.53.27-.7.08a.21.21,0,0,1,0-.22C18.24,42.61,18.37,42.85,18.7,42.88Z"/><path class="cls-88" d="M39.28,26.45c-.11.1-.27.18-.36.05a.64.64,0,0,1,0-.57c.05-.13.15-.08.21,0a1,1,0,0,0,.17.35A.15.15,0,0,1,39.28,26.45Z"/><path class="cls-20" d="M49.81,64.34c.22,0,.2.15.22.26s0,.23-.19.23-.27,0-.25-.17A.51.51,0,0,1,49.81,64.34Z"/><path class="cls-3" d="M24.63,12.45a.33.33,0,0,1,.43.32,1.21,1.21,0,0,1-.68,0C24.33,12.58,24.45,12.49,24.63,12.45Z"/><path class="cls-89" d="M34.37,48.9c0,.18-.1.18-.22.2s-.17-.19-.22-.29.08-.2.2-.2S34.37,48.73,34.37,48.9Z"/><path class="cls-90" d="M43.82,48.81c-.15-.17-.25-.44,0-.52s.31.16.29.38S44,48.91,43.82,48.81Z"/><path class="cls-91" d="M73.37,48.42a.2.2,0,0,1-.2.25c-.18,0-.18-.13-.17-.25s0-.31.21-.27A.21.21,0,0,1,73.37,48.42Z"/><path class="cls-88" d="M18.45,51.78c-.16.1-.36.26-.38-.07,0-.12-.23-.5.24-.42a1.16,1.16,0,0,0,.18.35A.14.14,0,0,1,18.45,51.78Z"/><path class="cls-92" d="M52.79,47.72c.09.05.23.15.11.2s-.46.16-.62,0,0-.32,0-.46.17-.06.22.06S52.63,47.72,52.79,47.72Z"/><path class="cls-47" d="M25.68,51.22c.16,0,.2.1.22.23s0,.25-.19.2-.31,0-.31-.23S25.58,51.29,25.68,51.22Z"/><path class="cls-93" d="M53.37,26.45c-.22-.05-.44.2-.57-.09,0-.08,0-.22.07-.26S53.26,26.15,53.37,26.45Z"/><path class="cls-94" d="M7.07,39.72c.08-.12.18-.36.24-.35.21,0,.2.29.38.47H7.21C7.15,39.81,7.08,39.8,7.07,39.72Z"/><path class="cls-95" d="M37.56,18.88c-.37.08-.52.33-.72.1-.06-.07,0-.17.06-.26C37.19,18.5,37.21,18.84,37.56,18.88Z"/><path class="cls-96" d="M2.66,45.64c.11.08.31.19.16.3a.32.32,0,0,1-.51-.06C2.38,45.73,2.36,45.47,2.66,45.64Z"/><path class="cls-97" d="M12.38,36.79c.22,0,.35.09.41.35-.27,0-.5.26-.77,0a.8.8,0,0,1,.13-.19,1.09,1.09,0,0,0,.17-.13Z"/><path class="cls-3" d="M23.15,20.54c0-.21-.24-.48.05-.6s.31.15.27.37A.26.26,0,0,1,23.15,20.54Z"/><path class="cls-46" d="M24.63,12.45l-.25.33a.41.41,0,0,1,.05-.64C24.56,12,24.62,12.3,24.63,12.45Z"/><path class="cls-98" d="M58.91,25.4c0,.13-.13.05-.21.07-.27.06-.26-.12-.24-.29s0-.23.15-.19S58.85,25.2,58.91,25.4Z"/><path class="cls-99" d="M32.63,32.55c-.26-.2-.51-.1-.57-.35a.16.16,0,0,1,.15-.21C32.5,32,32.53,32.17,32.63,32.55Z"/><path class="cls-100" d="M11.23,63c-.13-.06-.33-.05-.35-.25s.13-.13.23-.14.21.14.26.26S11.33,63,11.23,63Z"/><path class="cls-101" d="M10.12,35.64c0,.15-.08.18-.2.15s-.26-.07-.26-.19.05-.26.21-.26S10,35.54,10.12,35.64Z"/><path class="cls-87" d="M66.92,61.49a1.16,1.16,0,0,1,.07-.58c.24,0,.34.18.44.35s0,.05,0,.09,0,0,0,0,0,0-.06,0-.34-.28-.31.11A.12.12,0,0,1,66.92,61.49Z"/><path class="cls-102" d="M20.21,1.25c.2.05.23.19.26.32a.13.13,0,0,1-.18.16c-.12,0-.31,0-.29-.21S20.14,1.34,20.21,1.25Z"/><path class="cls-103" d="M53.47,1.85c-.16,0-.29-.07-.28-.21s.06-.27.2-.24.26,0,.27.19S53.55,1.79,53.47,1.85Z"/><path class="cls-104" d="M34.58,44.65l.33.55C34.45,45.25,34.45,45.25,34.58,44.65Z"/><path class="cls-25" d="M5.45,60.88l.38-.12c.1.12.23.31.07.39S5.45,61.21,5.45,60.88Z"/><path class="cls-19" d="M6.08,22.38l.06,0c.2.16.32-.39.54-.07,0,0,0,.11,0,.16-.24,0-.47.27-.72,0C6,22.47,6,22.4,6.08,22.38Z"/><path class="cls-16" d="M10.85,59.68c.24-.13.38-.31.59-.12,0,0,.05.14,0,.15A.53.53,0,0,1,10.85,59.68Z"/><path class="cls-105" d="M44.89,58.89c-.18,0-.37.2-.52-.06.14-.07-.1-.25.07-.28S44.83,58.64,44.89,58.89Z"/><path class="cls-106" d="M54.32,39.39c0,.14-.08.14-.2.13s-.27,0-.23-.25a.18.18,0,0,1,.2-.17C54.26,39.11,54.31,39.24,54.32,39.39Z"/><path class="cls-99" d="M63.49,15.68a.32.32,0,0,1,.27-.27c.17,0,.14.16.16.27s-.05.21-.2.21S63.48,15.85,63.49,15.68Z"/><path class="cls-107" d="M24.09,35c-.18-.06-.44.06-.49-.22,0,0,.07-.16.12-.18C24,34.51,24,34.76,24.09,35Z"/><path class="cls-30" d="M43.1,12.29l.27.44c-.59.23-.41-.15-.43-.36Z"/><path class="cls-108" d="M8.22,34.55c-.22,0-.44.18-.57-.09,0-.05,0-.15,0-.22C7.88,34.29,8.12,34.22,8.22,34.55Z"/><path class="cls-28" d="M47.66,10.46c0,.13-.07.14-.17.14s-.32-.07-.34-.21.13-.17.25-.2S47.61,10.31,47.66,10.46Z"/><path class="cls-109" d="M42.55,46c.18,0,.24.13.27.28s0,.18-.16.18-.25-.15-.29-.27S42.48,46.1,42.55,46Z"/><path class="cls-98" d="M56.59,46c.31,0,.27.3.47.36-.12.14-.33.22-.42.15S56.58,46.13,56.59,46Z"/><path class="cls-110" d="M59.6,41.34c-.21,0-.25-.18-.34-.31a.92.92,0,0,1,.25-.15c.21,0,.19.16.24.28S59.71,41.33,59.6,41.34Z"/><path class="cls-25" d="M62.37,39.22c-.31.07-.35-.06-.28-.33s.09-.29.29-.13A.31.31,0,0,1,62.37,39.22Z"/><path class="cls-97" d="M2.66,45.64c-.19,0-.24.15-.35.24-.05-.22-.21-.49.06-.6S2.66,45.43,2.66,45.64Z"/><path class="cls-111" d="M75,14.68c-.21.09-.44.27-.58.12s0-.41,0-.64C74.46,14.52,74.52,14.79,75,14.68Z"/><path class="cls-87" d="M38.54,23.43c0,.15-.06.22-.21.21s-.27,0-.24-.19.09-.19.24-.22S38.53,23.3,38.54,23.43Z"/><path class="cls-112" d="M14.22,10.46c-.16,0-.17-.18-.18-.32a.13.13,0,0,1,.15-.14c.16,0,.22.14.23.29S14.36,10.47,14.22,10.46Z"/><path class="cls-113" d="M17.19,54.19c-.12,0-.26,0-.26-.2s.15-.19.25-.22.22.09.24.2S17.33,54.17,17.19,54.19Z"/><path class="cls-114" d="M33.66,55.35c.1.07.27.12.3.22s-.14.15-.25.17-.25,0-.21-.2S33.48,55.33,33.66,55.35Z"/><path class="cls-25" d="M10.6,8.33c-.25,0-.44.19-.61-.05a.27.27,0,0,1,0-.22C10.25,8,10.42,8.08,10.6,8.33Z"/><path class="cls-39" d="M26.05,15.29a.43.43,0,0,1,.3.52.3.3,0,0,1-.22,0C25.87,15.71,26,15.51,26.05,15.29Z"/><path class="cls-21" d="M15.76,12.52a1,1,0,0,1-.57.11C15.42,12.16,15.42,12.16,15.76,12.52Z"/><path class="cls-115" d="M23.15,20.54l.32-.23c.14.05.31.2.21.28S23.3,20.8,23.15,20.54Z"/><path class="cls-116" d="M13.8,20.77c0,.15-.05.18-.17.16s-.33,0-.31-.2.18-.22.3-.23S13.77,20.66,13.8,20.77Z"/><path class="cls-41" d="M47,20.86c0,.19-.12.19-.25.19s-.23,0-.2-.21.14-.17.26-.2S47,20.78,47,20.86Z"/><path class="cls-99" d="M72.5,13.43c-.24-.14-.51,0-.55-.31a.17.17,0,0,1,.18-.2C72.41,12.92,72.43,13.13,72.5,13.43Z"/><path class="cls-82" d="M53.31,20.7c.27.14.39.28.33.5a.27.27,0,0,1-.22.07C53.15,21.16,53.32,21,53.31,20.7Z"/><path class="cls-111" d="M74,37.65c.22.12.31.29.53.28a.34.34,0,0,1-.48.2C73.89,38.05,74,37.85,74,37.65Z"/><path class="cls-117" d="M18.31,32.75c.19,0,.22.19.26.31s-.07.18-.19.14-.26-.06-.26-.19A.29.29,0,0,1,18.31,32.75Z"/><path class="cls-50" d="M26.76,30.18c.19,0,.22.15.27.28s0,.2-.16.17-.27-.09-.3-.17S26.63,30.23,26.76,30.18Z"/><path class="cls-118" d="M11.32,14.47c0,.21-.14.17-.25.18s-.22,0-.17-.17.1-.24.24-.26S11.25,14.4,11.32,14.47Z"/><path class="cls-119" d="M58,35.87c-.51.12-.51.12-.48-.36Z"/><path class="cls-112" d="M74,29.55a.27.27,0,0,1,.26.27c0,.11,0,.19-.14.2s-.27-.17-.33-.3S73.9,29.56,74,29.55Z"/><path class="cls-54" d="M20,21.7c.1.06.23.09.23.24a.18.18,0,0,1-.19.18.15.15,0,0,1-.16-.19C19.87,21.85,19.83,21.72,20,21.7Z"/><path class="cls-101" d="M66.94,11.45c0,.14-.13.14-.23.1s-.27,0-.23-.2.07-.26.23-.23S66.88,11.32,66.94,11.45Z"/><path class="cls-120" d="M48.08,22.19c-.17.06-.36.21-.46,0a.39.39,0,0,1,0-.29C47.87,21.82,47.91,22.08,48.08,22.19Z"/><path class="cls-121" d="M49.65,63c.39-.36.51,0,.69.25,0,.18-.16.21-.32.17A4.83,4.83,0,0,1,49.65,63Z"/><path class="cls-61" d="M49.65,63c.22,0,.36.13.36.37s0,.18-.12.23C49.76,63.39,49.5,63.25,49.65,63Z"/><path class="cls-112" d="M22.78,7.88c-.2,0-.24-.1-.26-.22s-.05-.22.09-.24.25.1.26.25S22.88,7.87,22.78,7.88Z"/><path class="cls-96" d="M44.85,53.14c.25.19.39.32.32.54,0,0-.16.08-.22.06C44.66,53.62,44.86,53.41,44.85,53.14Z"/><path class="cls-100" d="M66.06,65a.33.33,0,0,1,.24.27.16.16,0,0,1-.16.2c-.17,0-.21-.09-.2-.22A.26.26,0,0,1,66.06,65Z"/><path class="cls-59" d="M73,50.72c0,.16-.07.22-.21.21s-.28,0-.22-.18.1-.29.25-.3S73,50.6,73,50.72Z"/><path class="cls-40" d="M39.19,13c0,.16-.08.17-.18.16s-.33-.06-.33-.21.18-.21.33-.21S39.14,12.93,39.19,13Z"/><path class="cls-52" d="M24.63,66.06c.13.07.39.16.25.29s-.45.11-.68.15l.06-.21s0,0,0-.05a1.88,1.88,0,0,1,.18-.12A.59.59,0,0,1,24.63,66.06Z"/><path class="cls-99" d="M15.75,6.71c.13.33.34.43.26.65,0,0-.23.08-.27,0S15.67,7.06,15.75,6.71Z"/><path class="cls-95" d="M48,47.75c.2,0,.2.18.23.31s0,.17-.16.17-.21-.14-.23-.28S47.87,47.75,48,47.75Z"/><path class="cls-42" d="M65.8,32.41c0,.13,0,.19-.15.2s-.24-.15-.28-.27.12-.15.18-.17S65.78,32.28,65.8,32.41Z"/><path class="cls-67" d="M20.89,11.1l.5.33C20.84,11.68,20.83,11.67,20.89,11.1Z"/><path class="cls-62" d="M14,58.1c.25.08.45.18.34.43a.45.45,0,0,1-.33,0C13.78,58.41,14.16,58.27,14,58.1Z"/><path class="cls-122" d="M61.85,50.18c.24.06.13.36.37.41C61.71,50.68,61.71,50.68,61.85,50.18Z"/><path class="cls-123" d="M11.9,48.82l.45.41C11.88,49.38,11.88,49.38,11.9,48.82Z"/><path class="cls-40" d="M30.72,15.57c.05.17,0,.2-.16.2s-.32,0-.33-.21.17-.21.31-.22S30.68,15.5,30.72,15.57Z"/><path class="cls-124" d="M22.28,18.22c0,.13-.09.14-.19.13s-.32-.06-.33-.21.15-.18.27-.2S22.23,18.08,22.28,18.22Z"/><path class="cls-125" d="M38,70.47c-.27,0-.24-.13-.23-.27s0-.24.12-.22.21.23.28.36S38,70.44,38,70.47Z"/><path class="cls-25" d="M54.76,10.68c-.27,0-.42.23-.55,0a.3.3,0,0,1,0-.28C54.45,10.33,54.52,10.57,54.76,10.68Z"/><path class="cls-98" d="M8.64,23.64c.24,0,.18.13.23.2a1.92,1.92,0,0,0,.19.23C8.56,24.23,8.53,24,8.64,23.64Z"/><path class="cls-126" d="M55.26,18.07c.14-.07.17,0,.19.13s0,.28-.2.27-.23,0-.24-.13A.22.22,0,0,1,55.26,18.07Z"/><path class="cls-127" d="M11.34,44.72c.16.43-.21.27-.37.29s-.25-.15-.21-.3,0-.47.29-.18C11.07,44.7,11.12,44.83,11.34,44.72Z"/><path class="cls-96" d="M16.6,58.36l.49.29C16.59,58.84,16.59,58.84,16.6,58.36Z"/><path class="cls-128" d="M57.33,35c0,.1,0,.19-.13.18s-.29,0-.25-.24,0-.21.14-.23S57.32,34.82,57.33,35Z"/><path class="cls-129" d="M23.6,41.55c.26.16.48.21.45.46,0,0-.19.07-.28.06C23.45,42,23.69,41.79,23.6,41.55Z"/><path class="cls-52" d="M12.32,41.56a.2.2,0,0,1,.25.2.17.17,0,0,1-.22.15c-.1,0-.28,0-.25-.21A.16.16,0,0,1,12.32,41.56Z"/><path class="cls-130" d="M15.34,37.53c-.13,0-.22-.05-.21-.18s.18-.22.31-.24.1.14.12.22S15.45,37.52,15.34,37.53Z"/><path class="cls-83" d="M45.46,40.85l-.21-.13c-.18-.12-.12.28-.26.13a.23.23,0,0,1,.08-.32c.18-.09.31,0,.4.18s.05.06,0,.09S45.47,40.85,45.46,40.85Z"/><path class="cls-3" d="M19,22.26c.24,0,.23.18.25.31s0,.19-.17.14-.26-.12-.23-.3S18.9,22.24,19,22.26Z"/><path class="cls-131" d="M69.86,22.86c.11.24.2.42,0,.6a.17.17,0,0,1-.15,0C69.65,23.25,69.68,23.09,69.86,22.86Z"/><path class="cls-132" d="M5.33,23.3c0,.23-.1.21-.21.2s-.21-.15-.21-.29,0-.2.12-.14S5.38,23.14,5.33,23.3Z"/><path class="cls-133" d="M24.56,24.49c-.1,0-.23,0-.22-.15s0-.3.19-.33.2,0,.12.16S24.86,24.45,24.56,24.49Z"/><path class="cls-134" d="M58,24.55c0,.06,0,.19-.14.13s-.38,0-.37-.23c0-.05.15-.12.25-.15S57.91,24.44,58,24.55Z"/><path class="cls-44" d="M10.78,25.16c0,.08,0,.17-.13.14s-.3-.11-.28-.31.07-.17.2-.14S10.75,25,10.78,25.16Z"/><path class="cls-135" d="M62.82,26.26l.38-.3c0,.09.15.16.16.25s-.12.21-.24.2S63,26.32,62.82,26.26Z"/><path class="cls-136" d="M16.35,64.05c-.19,0-.24-.06-.26-.16a.2.2,0,0,1,.18-.26c.1,0,.13.06.14.14S16.44,64,16.35,64.05Z"/><path class="cls-137" d="M7.07,39.72l.14.12c-.15.08-.18.37-.45.25a.16.16,0,0,1-.09-.19C6.73,39.68,6.92,39.75,7.07,39.72Z"/><path class="cls-138" d="M54.74,28.5a1.2,1.2,0,0,1,.16.28c0,.16-.11.21-.22.21s-.18-.09-.26-.14Z"/><path class="cls-72" d="M7.74,29.46c0,.22-.13.22-.26.18s-.27-.06-.24-.21.17-.16.3-.16S7.72,29.38,7.74,29.46Z"/><path class="cls-3" d="M3.55,38.12l.24-.23c.16,0,.39-.09.45.21A1.16,1.16,0,0,1,3.55,38.12Z"/><path class="cls-39" d="M72.24,30.14l-.35.12A.57.57,0,0,1,72,29.7C72.31,29.75,72.19,30,72.24,30.14Z"/><path class="cls-36" d="M24.89,31.34c.09.18,0,.23-.15.24s-.15-.11-.14-.21-.05-.28.09-.3S24.9,31.21,24.89,31.34Z"/><path class="cls-139" d="M23.69,47.2c-.52.11-.52.11-.49-.34Z"/><path class="cls-138" d="M14.49,47.91l.36-.3c.05.08.15.16.16.24s-.12.21-.25.2S14.6,48,14.49,47.91Z"/><path class="cls-134" d="M1.17,48.74c0,.1,0,.23-.16.16s-.37,0-.37-.22c0-.06.16-.12.25-.15S1,48.72,1.17,48.74Z"/><path class="cls-54" d="M67.43,49.32h.28c.11,0,.26.11.19.24a.38.38,0,0,1-.4.11C67.28,49.61,67.44,49.44,67.43,49.32Z"/><path class="cls-23" d="M53.52,49.47c.16.26.27.4.15.57s-.16,0-.22,0C53.21,49.84,53.48,49.73,53.52,49.47Z"/><path class="cls-94" d="M6.59,50c.09.07.24.24.16.25s-.25.37-.49.27-.08-.21,0-.34A.65.65,0,0,1,6.59,50Z"/><path class="cls-83" d="M28.54,51.51c-.39.06-.21-.24-.18-.34s.2-.15.31,0S28.65,51.42,28.54,51.51Z"/><path class="cls-140" d="M45.1,52.19c.16,0,.12.18.16.29s0,.18-.15.16-.26-.07-.2-.23S45,52.21,45.1,52.19Z"/><path class="cls-71" d="M64.09,53.37c0-.17.12-.24.26-.25s.18.11.18.22-.16.08-.24.1S64.09,53.47,64.09,53.37Z"/><path class="cls-3" d="M39.17,54.17c.21.22.33.34.45.48C39.17,54.74,39.17,54.74,39.17,54.17Z"/><path class="cls-141" d="M28.22,57.81c-.13,0-.26-.07-.26-.2a.3.3,0,0,1,.16-.23c.18-.05.17.11.21.22S28.37,57.8,28.22,57.81Z"/><path class="cls-142" d="M50.15,57.45c.12.07.24.13.24.31s-.19.08-.27.1-.1-.14-.12-.22S50,57.43,50.15,57.45Z"/><path class="cls-87" d="M8.72,60.29l-.35.1c0-.17-.14-.41.06-.46S8.71,60.1,8.72,60.29Z"/><path class="cls-72" d="M33.25,61c-.12,0-.15,0-.13-.18s.05-.19.2-.19.28.09.27.19S33.39,61,33.25,61Z"/><path class="cls-30" d="M55.27,62.31c-.13-.31,0-.4.21-.46a.25.25,0,0,1,.18.12C55.71,62.3,55.24,62,55.27,62.31Z"/><path class="cls-83" d="M19,32.07c.26.09.28.28.34.46-.1,0-.23.09-.29.06C18.84,32.45,19,32.27,19,32.07Z"/><path class="cls-7" d="M51.37,1.86l.15.1c.14.1.27-.26.41,0s-.07.21-.15.16-.64.37-.61-.24A.12.12,0,0,1,51.37,1.86Z"/><path class="cls-143" d="M49.89,63.57l.12-.23.33-.12C50.68,63.94,50,63.44,49.89,63.57Z"/><path class="cls-144" d="M11.34,44.72a.25.25,0,0,1-.43.12c-.12-.11,0-.25.14-.31S11.26,44.64,11.34,44.72Z"/><path class="cls-44" d="M59.14,3.48c0,.11,0,.22-.16.18s-.27-.1-.26-.28,0-.19.17-.18S59.1,3.35,59.14,3.48Z"/><path class="cls-71" d="M38.51,64.87a.21.21,0,0,1,.25.2c0,.14-.14.12-.23.13s-.27.08-.29-.12S38.39,64.92,38.51,64.87Z"/><path class="cls-145" d="M33.23,4.24c-.31.06-.49.18-.63,0a.23.23,0,0,1,0-.23C32.84,3.9,33,4.07,33.23,4.24Z"/><path class="cls-146" d="M45.08,4.45a.24.24,0,0,1-.27-.26c0-.08,0-.24.14-.17s.27.07.28.25S45.19,4.45,45.08,4.45Z"/><path class="cls-147" d="M24.63,66.06a.11.11,0,0,0,0,.1c-.13.07-.3,0-.4.14h0a.23.23,0,0,1,0-.42C24.42,65.72,24.55,65.89,24.63,66.06Z"/><path class="cls-19" d="M55.13,5.42c0,.14-.14.11-.23.13s-.25-.09-.23-.25,0-.26.12-.2A.48.48,0,0,1,55.13,5.42Z"/><path class="cls-85" d="M21.45,6a.28.28,0,0,1,.25.22c0,.14-.11.15-.21.15s-.24,0-.23-.19A.18.18,0,0,1,21.45,6Z"/><path class="cls-32" d="M40.51,44.15c0,.14-.15.12-.25.11a.17.17,0,0,1-.17-.2c0-.1.08-.14.17-.14S40.45,44,40.51,44.15Z"/><path class="cls-116" d="M8.34,67c.08.22,0,.29-.12.26s-.29,0-.24-.17.12-.25.2-.26S8.34,67,8.34,67Z"/><path class="cls-37" d="M70,7c0,.22-.13.2-.26.19s-.24-.1-.21-.18a.31.31,0,0,1,.34-.21C70,6.78,69.94,6.9,70,7Z"/><path class="cls-148" d="M67.56,7.77c.15.06.24.17,0,.2s-.46.22-.53-.15a1.51,1.51,0,0,1,0-.3.12.12,0,0,1,.15,0C67.31,7.63,67.37,7.79,67.56,7.77Z"/><path class="cls-149" d="M42.21,8.71c0,.1-.07.14-.16.11s-.28-.16-.25-.35.06-.14.16-.12S42.2,8.54,42.21,8.71Z"/><path class="cls-128" d="M74.86,67.37c0,.17-.08.26-.23.26s-.19-.18-.18-.25.15-.16.25-.19S74.82,67.32,74.86,67.37Z"/><path class="cls-150" d="M18.7,37.78c-.24.17-.26,0-.26-.17s-.05-.39.26-.22A.3.3,0,0,1,18.7,37.78Z"/><path class="cls-151" d="M33.46,11.42v0a.34.34,0,0,1,0-.36c.46-.07.24.31.43.5Z"/><path class="cls-59" d="M69.18,33.75c.06.19-.07.18-.17.2s-.22-.06-.2-.21,0-.27.14-.27S69,33.73,69.18,33.75Z"/><path class="cls-152" d="M43.51,68.9c.24.13.19.33.14.51a.11.11,0,0,1-.2,0C43.32,69.24,43.41,69.07,43.51,68.9Z"/><path class="cls-153" d="M25.3,13.85c0,.12,0,.21-.16.16s-.25-.08-.22-.24,0-.19.19-.19S25.26,13.74,25.3,13.85Z"/><path class="cls-154" d="M7.72,14.54c.07,0,.21,0,.2.06,0,.31-.28.13-.42.16s-.43.11-.28-.24a.17.17,0,0,1,.14,0C7.48,14.48,7.6,14.52,7.72,14.54Z"/><path class="cls-155" d="M10.24,69.86a.59.59,0,0,1,.31.27c-.37.16-.37.16-.52,0C10.09,70,10.13,69.91,10.24,69.86Z"/><path class="cls-24" d="M59.73,14.76c-.1.11-.16.23-.23.23s-.15-.14-.13-.25,0-.23.16-.18S59.66,14.69,59.73,14.76Z"/><path class="cls-42" d="M31.68,42.9c-.09,0-.24-.07-.2-.17s.19-.19.3-.28c0,.08.14.16.15.25S31.81,42.88,31.68,42.9Z"/><path class="cls-88" d="M66.05,15.35c-.24.11,0,.33-.17.45,0-.22-.3-.47.17-.61A.12.12,0,0,1,66.05,15.35Z"/><path class="cls-153" d="M49.89,16.73l-.49-.16c.19-.1.23-.36.49-.29A.43.43,0,0,1,49.89,16.73Z"/><path class="cls-44" d="M20.86,16.78c-.49.19-.6,0-.5-.36C20.58,16.43,20.62,16.67,20.86,16.78Z"/><path class="cls-156" d="M35.89,34.71c-.25.19-.43.1-.52-.15s0-.34.26-.22C35.7,34.48,35.83,34.56,35.89,34.71Z"/><path class="cls-157" d="M42.82,17.8c0,.14,0,.25-.18.27s-.24-.06-.17-.17,0-.27.18-.29S42.82,17.69,42.82,17.8Z"/><path class="cls-95" d="M70.59,18c.12.19,0,.17-.11.18s-.26.05-.27-.14,0-.24.18-.23S70.64,17.87,70.59,18Z"/><path class="cls-158" d="M57.93,72.63c0,.1-.08.18-.21.18a.21.21,0,0,1-.24-.22c0-.12.07-.19.2-.17S57.93,72.46,57.93,72.63Z"/><path class="cls-83" d="M15.92,13.77c-.2.07-.29,0-.19-.19s0-.39.15-.48.22.09.19.25,0,.21-.06.31A.31.31,0,0,1,15.92,13.77Z"/><path class="cls-159" d="M32.21,9.59c-.15,0-.13-.14-.12-.23s0-.19.1-.16.23,0,.2.18A.23.23,0,0,1,32.21,9.59Z"/><path class="cls-143" d="M1.28,46.1c-.34.07-.27-.15-.22-.31.1-.34.22,0,.34,0S1.38,46,1.28,46.1Z"/><path class="cls-160" d="M28.28,9.39a.21.21,0,0,1-.22.21c-.12,0-.2,0-.17-.18a.3.3,0,0,1,.21-.26C28.19,9.14,28.28,9.25,28.28,9.39Z"/><path class="cls-59" d="M28.92,46.24a.27.27,0,0,1-.05-.44c.13-.11.24.07.33.17C29.28,46.23,29,46.14,28.92,46.24Z"/><path class="cls-19" d="M9.13,46.21c.1-.17.17-.35.36-.23s.14.21.1.26C9.44,46.48,9.3,46.14,9.13,46.21Z"/><path class="cls-161" d="M41.43,19.31c-.15,0-.35-.06-.34-.19a.24.24,0,0,1,.34-.24A.39.39,0,0,1,41.43,19.31Z"/><path class="cls-162" d="M8.16,19.14c-.1-.08-.32,0-.32-.21s.09-.13.17-.14a.24.24,0,0,1,.31.22C8.34,19.12,8.25,19.14,8.16,19.14Z"/><path class="cls-163" d="M4.51,9a1.47,1.47,0,0,1,.16.28s-.12.13-.17.12-.17-.14-.17-.27S4.37,9,4.51,9Z"/><path class="cls-28" d="M28,56.89a.77.77,0,0,1-.06-.63H28C28.39,56.47,28.17,56.63,28,56.89Z"/><path class="cls-78" d="M61.38,46.76c.07,0,.16-.06.21,0a.11.11,0,0,1-.1.17,1.23,1.23,0,0,1-.66,0s0,0,0,0a.09.09,0,0,1,0,0,.51.51,0,0,1,.13-.09A.78.78,0,0,1,61.38,46.76Z"/><path class="cls-32" d="M68.74,27.92c.11.11.19.26,0,.29s-.46.05-.33-.3A.29.29,0,0,1,68.74,27.92Z"/><path class="cls-164" d="M32,73.06c.07,0,.22.16.11.18s-.49.24-.62-.13c0,0,0-.11,0-.17a.12.12,0,0,1,.14,0A.45.45,0,0,0,32,73.06Z"/><path class="cls-28" d="M36.77,55.16c-.21,0-.4,0-.51-.17,0,0,.06-.11.11-.12C36.6,54.82,36.68,55,36.77,55.16Z"/><path class="cls-68" d="M70.07,55.25c0,.18-.18.1-.28.1s-.22,0-.21-.14.19-.15.28-.18S70,55.16,70.07,55.25Z"/><path class="cls-52" d="M17.62,47.75a.38.38,0,0,1,.13.57s-.09,0-.11,0C17.45,48.16,17.54,48,17.62,47.75Z"/><path class="cls-3" d="M51.79,33.09c.14.09.21.25,0,.29s-.48.08-.35-.29A.23.23,0,0,1,51.79,33.09Z"/><path d="M74.08,43.16a.42.42,0,0,1-.54.22s-.05-.08,0-.1C73.64,43.1,73.83,43.19,74.08,43.16Z"/><path class="cls-165" d="M26,4.81c.1,0,.18.11.13.16a.58.58,0,0,1-.53.07c-.21,0-.07-.23-.08-.35a.12.12,0,0,1,.14,0C25.79,4.73,25.88,4.82,26,4.81Z"/><path class="cls-166" d="M34.31,57.3c.09.06.26.1.19.23s-.27,0-.41,0c-.05-.13-.11-.26,0-.36S34.27,57.23,34.31,57.3Z"/><path class="cls-167" d="M13.76,33.51c-.18,0-.4.23-.47-.06,0-.08-.11-.43.2-.16C13.57,33.36,13.62,33.47,13.76,33.51Z"/><path class="cls-88" d="M25.05,26.3c.12-.34.34-.27.59-.15C25.48,26.39,25.27,26.35,25.05,26.3Z"/><path class="cls-168" d="M9,8.53c0,.06,0,.18-.12.14s-.33,0-.36-.17.12-.15.22-.16S9,8.36,9,8.53Z"/><path class="cls-8" d="M18.07,43.58c0,.1,0,.22-.16.16s-.28-.08-.3-.15.12-.22.24-.24S18,43.47,18.07,43.58Z"/><path class="cls-169" d="M16.79,16.4c0,.09,0,.17-.12.15s-.3,0-.36-.15,0-.16.15-.18A.27.27,0,0,1,16.79,16.4Z"/><path class="cls-170" d="M66.05,15.35v-.16a.78.78,0,0,1,.52.54C66.23,15.76,66.27,15.4,66.05,15.35Z"/><path class="cls-35" d="M43.06,56.45c.14,0,.27.15.15.2a2.06,2.06,0,0,1-.75.09s0-.14.1-.17S42.9,56.53,43.06,56.45Z"/><path class="cls-170" d="M35.26,49.57c0-.12-.06-.31,0-.33s.35.14.43.32a.3.3,0,0,1-.32.1A.38.38,0,0,1,35.26,49.57Z"/><path class="cls-171" d="M61.58,57.77c.06.17-.06.18-.16.17s-.28.06-.3-.13.14-.12.22-.17S61.5,57.74,61.58,57.77Z"/><path class="cls-172" d="M12.65,44.05c-.12.05-.11.36-.27.23s-.21-.4.13-.49C12.43,43.94,12.54,44,12.65,44.05Z"/><path class="cls-173" d="M35.35,49.56h.38c.05.15.31.37-.12.37C35.48,49.84,35.18,49.85,35.35,49.56Z"/><path class="cls-141" d="M35.61,27.91c0,.19-.12.16-.21.15s-.25,0-.2-.15.17-.15.26-.23Z"/><path class="cls-123" d="M34.47,3.71c.21,0,.45.06.33.25a.34.34,0,0,1-.58,0,.86.86,0,0,0,.2-.18Z"/><path class="cls-174" d="M30.94,24.91a.4.4,0,0,1,.22.27c0,.09,0,.16-.13.16s-.21-.1-.2-.24S30.82,24.93,30.94,24.91Z"/><path class="cls-175" d="M32.11,14.7c-.14.12-.28.25-.46.07a.21.21,0,0,1,0-.2C31.83,14.44,32,14.61,32.11,14.7Z"/><path class="cls-88" d="M.59,59.14c-.12,0,0,.27-.19.26s-.25-.07-.22-.15,0-.31.21-.25C.45,59,.61,59,.59,59.14Z"/><path class="cls-176" d="M10.74,2.73c.12.1.37.15.26.32a.33.33,0,0,1-.51,0C10.59,3,10.61,2.82,10.74,2.73Z"/><path class="cls-176" d="M64.79,23.5c.19,0,.26-.08.2-.26.2,0,.39.07.33.21A.3.3,0,0,1,64.79,23.5Z"/><path class="cls-49" d="M71.66,2.06c.21,0,.19.33.44.32C71.63,2.48,71.63,2.48,71.66,2.06Z"/><path class="cls-92" d="M16.07,2.05c.18-.21.33-.29.54-.15a.21.21,0,0,1,.05.15A.64.64,0,0,1,16.07,2.05Z"/><path class="cls-64" d="M49.76.88a.53.53,0,0,1,.34.33c-.18,0-.35.19-.54,0C49.6,1.1,49.62,1,49.76.88Z"/><path class="cls-177" d="M55.32,32.13c.06,0,.15,0,.18,0s.09.16,0,.18a1.34,1.34,0,0,1-.66,0,.08.08,0,0,1,0,0,.09.09,0,0,1,0-.05.38.38,0,0,1,.13-.09A.65.65,0,0,1,55.32,32.13Z"/><path class="cls-178" d="M34.88,38.25c.14.1.19.26,0,.3s-.48.07-.36-.3A.27.27,0,0,1,34.88,38.25Z"/><path class="cls-87" d="M71.73,64.33a.27.27,0,0,1-.07-.45c.12-.1.25,0,.33.18S71.78,64.21,71.73,64.33Z"/><path class="cls-61" d="M65.91,22c.13-.18.21-.33.4-.23s.17.16.1.25S66.11,22,65.91,22Z"/><path class="cls-36" d="M36.34,29.46c-.17,0-.39.22-.47-.06,0-.07,0-.2.05-.22C36.17,29.09,36.15,29.41,36.34,29.46Z"/><path class="cls-24" d="M70.71,38.11c.17,0,.41.12.4-.21.09.07.26.18.17.26a.59.59,0,0,1-.64,0l0,0A.1.1,0,0,1,70.71,38.11Z"/><path class="cls-88" d="M32.83,65.82c.14.07.36.13.26.31a.31.31,0,0,1-.49,0C32.68,66.05,32.71,65.9,32.83,65.82Z"/><path class="cls-179" d="M30.36,27.42c0-.05-.05-.12,0-.17a4.83,4.83,0,0,1,.16-.5c.05,0,.13.05.15.09.15.23-.22.26-.19.45S30.46,27.43,30.36,27.42Z"/><path class="cls-19" d="M41,29.88l-.46-.13a.21.21,0,0,1,.18-.26C41,29.46,41,29.64,41,29.88Z"/><path class="cls-24" d="M57.21,70.23a.25.25,0,0,1,0-.46c.26-.09.35.1.33.34l-.07,0Z"/><path class="cls-16" d="M73.66,40.36c0,.19-.15.13-.26.12s-.21,0-.16-.17a.27.27,0,0,1,.24-.22C73.65,40.08,73.61,40.25,73.66,40.36Z"/><path class="cls-180" d="M49,27.15c.11-.17.18-.36.37-.22s.13.21.1.26C49.32,27.41,49.19,27.08,49,27.15Z"/><path class="cls-54" d="M48,25.28c.16.09.17.17,0,.21s-.36.19-.51,0a.15.15,0,0,1,.14-.25A.59.59,0,0,1,48,25.28Z"/><path class="cls-153" d="M1.35,37.92c.17,0,.23.08.23.19s0,.2-.16.21-.25,0-.24-.13S1.3,38,1.35,37.92Z"/><path class="cls-181" d="M29.47,36.52c0,.24-.12.28-.33.18s-.15-.2,0-.31S29.35,36.48,29.47,36.52Z"/><path class="cls-182" d="M47,69a.15.15,0,0,1-.17.17c-.14,0-.17-.15-.16-.28s0-.23.15-.2S47,68.91,47,69Z"/><path class="cls-111" d="M15.65,68.65c.21.28.46.32.36.56,0,0-.17.07-.23.05C15.52,69.15,15.72,69,15.65,68.65Z"/><path class="cls-178" d="M26,41.07c.15-.19.21-.41.45-.24.09.07.14.2.07.26S26.21,41,26,41.07Z"/><path class="cls-183" d="M66.36,69.9c0,.09,0,.18-.09.18a.23.23,0,0,1-.24-.21c0-.1,0-.22.14-.22S66.29,69.82,66.36,69.9Z"/><path class="cls-184" d="M25.9,20.79a.37.37,0,0,1-.26.29c-.12,0-.13-.08-.13-.15s0-.25.16-.26S25.87,20.65,25.9,20.79Z"/><path class="cls-185" d="M59.38,20.13c-.18.07-.32.23-.49.08s0-.17,0-.21S59.23,20,59.38,20.13Z"/><path class="cls-186" d="M48.62,71.2c.05-.39.23-.41.5-.16C49.07,71.42,48.82,71.25,48.62,71.2Z"/><path class="cls-85" d="M4.82,71.31c-.28,0-.53,0-.5-.35.18-.12.27,0,.35.13l.14.17Z"/><path class="cls-167" d="M32.71,71.35c-.52.19-.71.14-.59-.29C32.36,71.06,32.33,71.37,32.71,71.35Z"/><path class="cls-114" d="M4.82,71.31l0,0,0,0c.15,0,.22-.27.4-.08a.27.27,0,0,1-.15.4C4.82,71.63,4.82,71.47,4.82,71.31Z"/><path class="cls-116" d="M60.11,71.23c.14.07.36.15.27.31a.32.32,0,0,1-.5,0C60,71.46,60,71.31,60.11,71.23Z"/><path d="M46.41,37.63c.12,0,.22,0,.2.17a.22.22,0,0,1-.25.2c-.16,0-.13-.13-.13-.22S46.3,37.6,46.41,37.63Z"/><path class="cls-187" d="M40.28,72.2a.17.17,0,0,1-.1-.25c.09-.17.24.09.35,0,0,.1.15.21,0,.29S40.37,72.21,40.28,72.2Z"/><path class="cls-34" d="M60.7,19.71c.16,0,.18.16.19.29s0,.19-.18.18-.13-.19-.18-.28S60.62,19.76,60.7,19.71Z"/><path class="cls-150" d="M26.8,72.3c0,.14-.11.21-.23.19s-.15-.12-.14-.23.05-.2.19-.14S26.82,72.2,26.8,72.3Z"/><path class="cls-115" d="M51.14,55.46c-.15-.16-.1-.31.1-.33s.32.13.28.35l-.07,0A.81.81,0,0,1,51.14,55.46Z"/><path class="cls-115" d="M37.91,8.56c-.33-.09-.18-.36-.11-.47s.19,0,.23.13S38.11,8.5,37.91,8.56Z"/><path class="cls-136" d="M61.25,55.8s.1-.14.18-.18.18.05.19.15-.07.18-.18.19S61.27,56,61.25,55.8Z"/><path class="cls-32" d="M43.42,7.52c.1-.16.14-.37.39-.28.08,0,.17.11.13.18S43.62,7.53,43.42,7.52Z"/><path class="cls-15" d="M43.06,56.45c-.13.21-.32.14-.5.12C42.62,56.11,42.82,56.21,43.06,56.45Z"/><path class="cls-188" d="M8.72,7c-.33,0-.43-.06-.25-.36a.19.19,0,0,1,.26,0l0,0A.3.3,0,0,1,8.72,7Z"/><path class="cls-165" d="M50.39,6.13c-.12,0-.29,0-.2-.16s.08-.36.33-.19C50.62,6,50.57,6.06,50.39,6.13Z"/><path class="cls-189" d="M34.31,57.3c-.39-.17-.15.17-.22.25a.34.34,0,0,1,0-.54C34.14,56.94,34.37,57.07,34.31,57.3Z"/><path class="cls-62" d="M56.41,45.3c.11.1.29,0,.29.21s-.07.16-.19.13-.26,0-.28-.18S56.35,45.35,56.41,45.3Z"/><path class="cls-4" d="M36.42,24.36a1,1,0,0,1,0-.6C36.68,24,36.68,24,36.42,24.36Z"/><path class="cls-190" d="M26,4.81c-.24.21-.32.19-.4-.12s.12-.23.28-.11Z"/><path class="cls-52" d="M37.17,44.35c.17,0,.23.08.22.23s-.07.14-.16.1-.29,0-.26-.16S37,44.32,37.17,44.35Z"/><path class="cls-137" d="M66.05,3.43a.26.26,0,0,1,0-.41c.12-.1.18.08.25.15C66.4,3.43,66.15,3.36,66.05,3.43Z"/><path class="cls-78" d="M69.71,46c-.13,0-.31.13-.35-.07a.32.32,0,0,1,.23-.41.84.84,0,0,1,.17.34A.17.17,0,0,1,69.71,46Z"/><path class="cls-58" d="M33.58,59.08c.16.15.23.29.09.43s-.19,0-.29,0C33.44,59.37,33.51,59.23,33.58,59.08Z"/><path class="cls-68" d="M38.57,3.32c-.1,0-.21,0-.21-.14s0-.23.16-.21a.4.4,0,0,1,.24.17C38.8,3.27,38.67,3.3,38.57,3.32Z"/><path class="cls-24" d="M25.63,2.93c.12,0,.14,0,.14.14s0,.25-.14.29a.16.16,0,0,1-.21-.16A.3.3,0,0,1,25.63,2.93Z"/><path class="cls-75" d="M29.17,34.93c0-.13-.07-.32.09-.34s.29.15.3.34a.24.24,0,0,1-.15.09A.24.24,0,0,1,29.17,34.93Z"/><path class="cls-5" d="M66.45,59.78l.37.12c.12.15.12.23-.11.26S66.41,60,66.45,59.78Z"/><path class="cls-34" d="M71.61,23.73c-.11,0-.13-.08-.14-.16s0-.24.13-.28.13.07.13.14S71.77,23.68,71.61,23.73Z"/><path class="cls-191" d="M52.92,60.27c0,.12,0,.17-.1.19s-.25,0-.25-.12,0-.25.2-.26S52.78,60.28,52.92,60.27Z"/><path class="cls-83" d="M42.69,3.06c-.22-.16.05-.34,0-.51s0-.18.1-.16a.21.21,0,0,1,.19.26c-.08.08,0,.19-.09.28A.36.36,0,0,1,42.69,3.06Z"/><path class="cls-98" d="M39.79,2.54c0,.06,0,.17-.11.16a.25.25,0,0,1-.24-.23c0-.12.1-.11.17-.12S39.77,2.43,39.79,2.54Z"/><path class="cls-3" d="M61,46.86h-.15c0-.2-.1-.45.12-.58s.19.09.25.18A.88.88,0,0,1,61,46.86Z"/><path class="cls-192" d="M61,46.86c0-.19-.07-.38.22-.4l.16.3C61.29,46.93,61.14,46.85,61,46.86Z"/><path class="cls-193" d="M29.93,35.34a.48.48,0,0,0-.11.44c-.27-.1,0-.34-.14-.49a.18.18,0,0,1,0-.26C29.8,35.12,29.94,35.18,29.93,35.34Z"/><path class="cls-18" d="M49.26,17.49c.07,0,.17,0,.2.07s0,.15-.11.15l-.6,0c0-.1,0-.14.11-.18A.77.77,0,0,1,49.26,17.49Z"/><path class="cls-182" d="M60.12.78c.23,0,.4.1.34.27s-.31.08-.48.08a.13.13,0,0,1,0-.13A1,1,0,0,1,60.12.78Z"/><path class="cls-39" d="M72.57,61.46a.88.88,0,0,1-.62,0C72.2,61.2,72.37,61.16,72.57,61.46Z"/><path class="cls-194" d="M52.79,47.72a.19.19,0,0,1-.34.08.18.18,0,0,1,.1-.32A.27.27,0,0,1,52.79,47.72Z"/><path class="cls-19" d="M25,61.76c.12.06.29.05.28.25s-.06.14-.16.12-.3,0-.33-.2S24.88,61.76,25,61.76Z"/><path class="cls-28" d="M73.24,22.37c-.2-.16-.2-.36,0-.43s.29.11.2.31A.35.35,0,0,1,73.24,22.37Z"/><path class="cls-44" d="M23.39,45.1c0,.11,0,.24-.12.26s-.16-.08-.16-.18,0-.21.12-.25S23.36,45,23.39,45.1Z"/><path class="cls-195" d="M60.12.78c.19.21,0,.23-.14.24S59.81.7,59.85.51C60,.52,60.06.66,60.12.78Z"/><path class="cls-196" d="M33.9.63a.24.24,0,0,1,.22-.29c.19,0,.08.17.12.27s0,.15-.07.17S33.94.76,33.9.63Z"/><path class="cls-197" d="M2.1,35.64c.09-.12,0-.4.31-.33,0,0,.12.08.12.12C2.5,35.68,2.23,35.53,2.1,35.64Z"/><path class="cls-46" d="M34.8,39.89c.26,0,.39-.3.63-.1a.21.21,0,0,1,0,.14A.71.71,0,0,1,34.8,39.89Z"/><path class="cls-71" d="M54.05,39.93c.27.29-.12.22-.16.22s-.43.24-.33-.17a.71.71,0,0,1,.14-.1A.85.85,0,0,1,54.05,39.93Z"/><path class="cls-124" d="M74.75,32.76c0,.16-.09.2-.16.19a.19.19,0,0,1-.17-.21c0-.11.08-.13.16-.12S74.76,32.7,74.75,32.76Z"/><path class="cls-7" d="M30.46,63.55c.29,0,.27.19.31.28s-.08.14-.13.12a.54.54,0,0,1-.28-.2S30.44,63.58,30.46,63.55Z"/><path class="cls-18" d="M2,27.77c-.11,0-.29,0-.19-.16s.06-.39.33-.19C2.26,27.59,2.21,27.7,2,27.77Z"/><path class="cls-198" d="M49.26,17.49c-.09.18-.26.09-.39.11,0-.17-.18-.37.16-.37A.42.42,0,0,1,49.26,17.49Z"/><path class="cls-62" d="M16.66,64.71c-.14,0-.3,0-.32-.2s.15-.14.16-.13.31,0,.3.21S16.76,64.73,16.66,64.71Z"/><path class="cls-199" d="M69.17,17.14c.15,0,.16.12.17.22s0,.21-.11.23-.18-.1-.18-.22S69.05,17.17,69.17,17.14Z"/><path class="cls-7" d="M43,35.68c0-.14.07-.3.24-.26s.14.24.21.38C43.24,35.9,43.08,35.9,43,35.68Z"/><path class="cls-34" d="M13.65,29c.23,0,.42.07.34.28a.27.27,0,0,1-.45,0A1,1,0,0,1,13.65,29Z"/><path class="cls-92" d="M49,17.23c-.23.05-.17.22-.16.37l-.12.09c-.19-.18,0-.4,0-.53S49,17.08,49,17.23Z"/><path class="cls-21" d="M45.62,41.77c.17,0,.24.08.23.22s-.12.11-.22.11-.24,0-.23-.11S45.46,41.74,45.62,41.77Z"/><path class="cls-200" d="M74.77,19.19c.13.1.21.26,0,.3s-.48.07-.38-.29A.35.35,0,0,1,74.77,19.19Z"/><path class="cls-51" d="M27.92,43c-.16-.16,0-.32,0-.49s0-.18.13-.14a.19.19,0,0,1,.15.23c-.08.08,0,.2-.09.28A.22.22,0,0,1,27.92,43Z"/><path class="cls-159" d="M63.89,29.31c.13.06.34.15.26.27a.31.31,0,0,1-.49.06C63.74,29.53,63.77,29.39,63.89,29.31Z"/><path class="cls-71" d="M43.82,48.81c.12,0,.25,0,.26-.14.13,0,.34,0,.28.15s-.39.16-.61.07c0,0,0,0,0,0Z"/><path class="cls-201" d="M38.05,33.94c-.17,0-.34,0-.43-.15s.09-.24.24-.19A.27.27,0,0,1,38.05,33.94Z"/><path class="cls-202" d="M48,25.28c-.14.06-.29.22-.39,0,0-.09-.16-.22,0-.25A.34.34,0,0,1,48,25.28Z"/><path class="cls-32" d="M20.38,49.55c.11.11.18.26,0,.31s-.46.06-.3-.29A.24.24,0,0,1,20.38,49.55Z"/><path class="cls-48" d="M6.59,50a.37.37,0,0,1-.38.18c0-.12,0-.29.12-.35S6.52,49.91,6.59,50Z"/><path class="cls-170" d="M2.66,30.34c-.1,0-.23,0-.19-.14s.12-.28.32-.19S2.86,30.29,2.66,30.34Z"/><path class="cls-98" d="M55.12,67.35c-.16,0-.34.17-.43,0s0-.23.06-.27S54.93,67.33,55.12,67.35Z"/><path class="cls-202" d="M4.82,30.28l0-.16a.16.16,0,0,1,0-.25.17.17,0,0,1,.22,0l.11.1C5.32,30.43,5,30.31,4.82,30.28Z"/><path class="cls-170" d="M21.48,68.22c-.1,0-.24,0-.2-.14s.11-.3.32-.19S21.66,68.16,21.48,68.22Z"/><path class="cls-203" d="M7.72,14.54c-.14.15-.28.19-.41,0s-.08-.25.13-.25A.44.44,0,0,1,7.72,14.54Z"/><path class="cls-189" d="M74.23,68.26s0-.09,0-.12-.1-.38.16-.36,0,.24.12.35,0,.16-.12.19A.25.25,0,0,1,74.23,68.26Z"/><path class="cls-204" d="M49.05,68.4c0-.2-.07-.38.14-.48,0,0,.15.08.17.14C49.45,68.33,49.19,68.29,49.05,68.4Z"/><path class="cls-153" d="M32.85,21.87c-.1,0-.27-.05-.22-.2s.13-.3.34-.21S33.06,21.78,32.85,21.87Z"/><path class="cls-205" d="M64.89,42.74c.09.08.27,0,.27.19s-.07.16-.19.13-.26-.06-.28-.18S64.79,42.73,64.89,42.74Z"/><path class="cls-206" d="M26.76,50.55c0,.25.24.12.36.18-.44.26-.44.26-.45-.18C26.7,50.49,26.73,50.5,26.76,50.55Z"/><path class="cls-22" d="M.68,50.8c.2.11.29.22.2.41a.14.14,0,0,1-.2.06C.55,51.14.64,51,.68,50.8Z"/><path class="cls-136" d="M29.17,34.93h.22c.21.18.08.27-.09.35C28.9,35.29,29,35.12,29.17,34.93Z"/><path class="cls-71" d="M29.83,40.9c-.18.08-.32.24-.51.11a.28.28,0,0,1,0-.22C29.52,40.65,29.65,40.84,29.83,40.9Z"/><path class="cls-199" d="M71.45,69.45c-.06,0-.13.14-.21.15s-.14-.1-.11-.19-.07-.22.12-.18A.23.23,0,0,1,71.45,69.45Z"/><path class="cls-96" d="M45.46,40.85v-.14c.14,0,.28.13.27.29s-.2.08-.31.1-.19,0-.17-.07S45.39,40.91,45.46,40.85Z"/><path class="cls-87" d="M57.59,16.73c-.13,0-.3.16-.36,0a.32.32,0,0,1,.24-.46c.07.11.07.25.15.35A.12.12,0,0,1,57.59,16.73Z"/><path class="cls-69" d="M22.05,66.18c.22-.05.21.12.26.21s0,.14-.1.15a.31.31,0,0,1-.29-.18S22,66.23,22.05,66.18Z"/><path class="cls-32" d="M60.27,30.5a.18.18,0,0,1,.09.25c-.09.15-.21,0-.31,0S60,30.6,60,30.51A.22.22,0,0,1,60.27,30.5Z"/><path class="cls-54" d="M70.69,12.89c.16-.16.2-.37.42-.23s.16.12.1.2S70.91,12.94,70.69,12.89Z"/><path class="cls-207" d="M27.92,43l.11-.08c.07-.12.24-.07.33-.15s.27,0,.28.16-.15.11-.23.11A3.89,3.89,0,0,1,27.92,43Z"/><path class="cls-176" d="M43.67,25.29c0-.1,0-.22.17-.2s.19.14.22.25,0,.14-.14.14S43.67,25.45,43.67,25.29Z"/><path class="cls-22" d="M46.28,31.11c.07.17.25.29.16.46s-.16.05-.23,0S46.1,31.31,46.28,31.11Z"/><path class="cls-47" d="M56.19,24.58c-.34,0-.32-.14-.14-.35a.19.19,0,0,1,.27,0l0,0C56.45,24.4,56.38,24.51,56.19,24.58Z"/><path class="cls-25" d="M50.57,52.34c.09,0,.18.07.19.18a.17.17,0,0,1-.17.2c-.05,0-.13-.09-.15-.15A.17.17,0,0,1,50.57,52.34Z"/><path class="cls-54" d="M21.1,36c0,.32-.3.28-.45.21s-.17-.25.07-.32A.84.84,0,0,1,21.1,36Z"/><path class="cls-7" d="M20.81,38.79c.17,0,.17.16.19.27s-.05.19-.18.18-.12-.14-.12-.23S20.69,38.81,20.81,38.79Z"/><path class="cls-83" d="M48.62,71.2c.19,0,.41.12.5-.16.14.08.38.17.05.28a1.61,1.61,0,0,1-.62,0,.43.43,0,0,1,0,0Z"/><path class="cls-121" d="M68.45,53.49a.15.15,0,0,1-.27,0c0-.12-.07-.34.1-.35S68.39,53.37,68.45,53.49Z"/><path class="cls-44" d="M38.35,71.47c.18,0,.22.12.27.22s0,.15-.11.15-.26,0-.27-.15S38.24,71.5,38.35,71.47Z"/><path class="cls-208" d="M1.48,53.48a.2.2,0,0,1,.24.14c.05.16-.1.13-.18.13l-.59,0s0,0,0,0A.27.27,0,0,1,1,53.61C1.15,53.47,1.34,53.56,1.48,53.48Z"/><path class="cls-142" d="M71.86,71.88c0,.14-.07.19-.18.11s-.29,0-.25-.17a.2.2,0,0,1,.22-.17A.2.2,0,0,1,71.86,71.88Z"/><path class="cls-39" d="M50.39,9.6c-.14,0-.31,0-.4-.14s0-.25.11-.23A.3.3,0,0,1,50.39,9.6Z"/><path class="cls-199" d="M12.65,44.05c-.25,0-.21-.12-.14-.26a.22.22,0,0,1,.37.11C12.94,44.09,12.75,44,12.65,44.05Z"/><path class="cls-209" d="M58.74,8.5a.21.21,0,0,1,.23.22c.06.25-.14.19-.27.2C58.48,8.76,58.42,8.61,58.74,8.5Z"/><path class="cls-87" d="M3.44,19.36c.16.17.38.26.23.48a.19.19,0,0,1-.14.08C3.31,19.8,3.44,19.61,3.44,19.36Z"/><path class="cls-210" d="M55.32,32.13c-.09.16-.25.08-.38.1-.11-.23-.13-.42.22-.41Z"/><path class="cls-36" d="M62.19,45.35c.16-.08.28-.36.51-.15,0,0,0,.13,0,.14S62.38,45.38,62.19,45.35Z"/><path class="cls-137" d="M68.21,38.6c0,.11,0,.14-.14.13s-.2-.09-.17-.2a.25.25,0,0,1,.17-.16C68.21,38.37,68.19,38.5,68.21,38.6Z"/><path class="cls-211" d="M62.37,39.22v-.46a.28.28,0,0,1,.27.32C62.64,39.26,62.5,39.23,62.37,39.22Z"/><path class="cls-123" d="M18.45,51.78v-.09c0-.08-.07-.17,0-.25s.38.08.35.28S18.58,51.8,18.45,51.78Z"/><path class="cls-189" d="M62.76,39.85c.27-.1.42,0,.4.26C62.92,40.19,62.75,40.15,62.76,39.85Z"/><path class="cls-97" d="M11.92,52.14c.11.09.16.24,0,.29s-.26,0-.39-.08,0,0,0-.05l0,0C11.68,52.16,11.76,52.06,11.92,52.14Z"/><path class="cls-212" d="M62.76,39.85c.06.2.23.24.4.26a.36.36,0,0,1-.48.06A.18.18,0,0,1,62.76,39.85Z"/><path class="cls-213" d="M1.54,40.6c0-.09-.06-.22.07-.24s.25.08.3.22S1.79,40.84,1.54,40.6Z"/><path class="cls-148" d="M19.83,44c-.44.13-.61,0-.48-.46a.11.11,0,0,1,.15,0,.85.85,0,0,0,.33.32A.1.1,0,0,1,19.83,44Z"/><path class="cls-162" d="M4,44.14a1.7,1.7,0,0,1,.17.23c0,.12,0,.18-.15.17s-.23,0-.21-.14S3.91,44.24,4,44.14Z"/><path class="cls-159" d="M17.08,53.38c0-.12-.07-.28,0-.33s.25.06.32.19S17.2,53.35,17.08,53.38Z"/><path class="cls-118" d="M44.34,63.07c-.1,0-.27,0-.2-.23a.26.26,0,0,1,.33-.19C44.57,62.83,44.45,63,44.34,63.07Z"/><path class="cls-99" d="M44.34,63.07c-.05-.17.08-.28.13-.42a.34.34,0,0,1,.15.43A1.46,1.46,0,0,1,44.34,63.07Z"/><path class="cls-152" d="M59.85.51c.12.15-.1.39.13.51v.11c-.08,0-.21.22-.25,0A.63.63,0,0,1,59.85.51Z"/><path class="cls-214" d="M33.9.63c.12.06.24.19.34,0,.14.07.19.23.07.27S33.88,1,33.9.63Z"/><path class="cls-95" d="M49.76.88a.59.59,0,0,1-.2.35C49.57,1.08,49.31.79,49.76.88Z"/><path class="cls-215" d="M1.48,53.48c-.08.28-.29.13-.46.13a.49.49,0,0,1,0-.12c.11,0,0-.35.25-.18Z"/><path class="cls-54" d="M17.08,53.38c.09-.12.29,0,.36-.14.11,0,.22.15.15.2S17.21,53.68,17.08,53.38Z"/><path class="cls-216" d="M69.71,45.9c-.28-.06-.11-.25-.12-.39.2,0,.27.09.33.24S69.85,45.94,69.71,45.9Z"/><path class="cls-217" d="M42.69,3.06,42.8,3c.12-.12.25-.08.39-.06s.14,0,.17,0,0,.14-.06.15S42.9,3.07,42.69,3.06Z"/><path class="cls-19" d="M34.22,3.69c-.2-.11-.16-.29,0-.32s.29.14.26.34h0C34.4,3.79,34.31,3.7,34.22,3.69Z"/><path class="cls-159" d="M1.28,46.1l.12-.31c.15,0,.28.09.23.24S1.4,46.09,1.28,46.1Z"/><path class="cls-34" d="M10.62,65c-.24-.12-.16-.32-.08-.47s.19,0,.21.13S10.71,64.94,10.62,65Z"/><path class="cls-218" d="M32.84,65.53c-.32-.19-.07-.43-.12-.7.36.18,0,.4.14.55S32.91,65.49,32.84,65.53Z"/><path class="cls-58" d="M60.52,4.21c.06,0,.2.07.22.14s-.1.12-.18.16-.2,0-.21-.1S60.35,4.21,60.52,4.21Z"/><path class="cls-219" d="M8.72,7l0-.38c.16,0,.34,0,.32.21S8.89,7.05,8.72,7Z"/><path class="cls-220" d="M67.56,7.77c0,.16-.2.14-.29.1s-.07-.23-.07-.35.17,0,.21.11Z"/><path class="cls-159" d="M32.84,65.53l0-.15c.16,0,.3-.12.48,0C33.2,65.49,33.07,65.65,32.84,65.53Z"/><path class="cls-212" d="M69.34,65.55c.14.09.19.26.07.33s-.29,0-.33-.21S69.19,65.47,69.34,65.55Z"/><path class="cls-221" d="M37.91,8.56,38,8.22c.12,0,.33,0,.29.19S38.05,8.52,37.91,8.56Z"/><path class="cls-46" d="M67.06,54.87c-.29-.08-.14-.3-.1-.42s.15,0,.22,0S67.2,54.78,67.06,54.87Z"/><path class="cls-207" d="M67.06,54.87l.12-.37c.14.07.34.13.23.33A.2.2,0,0,1,67.06,54.87Z"/><path class="cls-71" d="M60.11,54.57l.12.11c-.2.06-.39.26-.61,0a.37.37,0,0,1,.16-.19A.62.62,0,0,1,60.11,54.57Z"/><path class="cls-55" d="M3.46,54.72c.11.08.16.22,0,.29s-.28,0-.42-.08v0l.05,0C3.22,54.75,3.3,54.64,3.46,54.72Z"/><path class="cls-49" d="M58.74,8.5c-.25.11-.2.25,0,.38s.06,0,0,.06a.05.05,0,0,1,0,0c-.42.06-.22-.23-.21-.39S58.56,8.26,58.74,8.5Z"/><path class="cls-165" d="M60.24,9.46c.17.08.23.2,0,.25s-.45.15-.37-.23C60,9.34,60.12,9.47,60.24,9.46Z"/><path class="cls-4" d="M41.54,10.93c-.46-.17,0-.44-.2-.74.35.21.15.39.21.53S41.63,10.86,41.54,10.93Z"/><path class="cls-222" d="M41.54,10.93v-.21c.11.12.33-.14.36,0S41.7,10.93,41.54,10.93Z"/><path class="cls-53" d="M33.45,11l0,.36c-.13,0-.11.12-.14.2a.12.12,0,0,1-.16-.06.19.19,0,0,1,0-.13C33.08,11.15,33.23,11.07,33.45,11Z"/><path class="cls-97" d="M28.82,47a.17.17,0,0,1,.07.29s-.17,0-.27,0-.09-.16-.08-.25S28.73,47,28.82,47Z"/><path class="cls-223" d="M15.6,67.41c.08-.31.48,0,.56-.26.16.07.35.16.05.27A2.09,2.09,0,0,1,15.6,67.41Z"/><path class="cls-159" d="M51.52,55.48c.11,0,.32,0,.27.13s-.34.11-.52.11c-.08-.25.19-.16.26-.25Z"/><path class="cls-93" d="M33.2,11.4h0c0,.12-.16.18-.25.27l-.12.13C32.93,11.65,32.52,11.09,33.2,11.4Z"/><path class="cls-62" d="M52.67,12.27c-.19-.15,0-.26.07-.32s.26-.08.27.12S52.8,12.24,52.67,12.27Z"/><path class="cls-22" d="M52.67,12.27l.34-.2c0,.1.19.23,0,.29S52.8,12.31,52.67,12.27Z"/><path class="cls-62" d="M44.21,14.85c-.19-.15,0-.26.07-.32s.25-.07.28.12S44.35,14.82,44.21,14.85Z"/><path class="cls-224" d="M53.78,15.87c0-.13-.1-.31.09-.35s.24.12.32.23C54.09,15.91,54,16,53.78,15.87Z"/><path class="cls-225" d="M74.38,68.27l.14-.14c.16,0,.28.05.26.23s-.16.14-.28.13S74.3,68.4,74.38,68.27Z"/><path class="cls-226" d="M53.78,15.87l.41-.12c.1,0,.14.12.08.17a.46.46,0,0,1-.5,0s0,0,0,0A.09.09,0,0,1,53.78,15.87Z"/><path class="cls-227" d="M57.59,16.64c-.39,0-.14-.25-.12-.4l.35.24C57.87,16.71,57.73,16.67,57.59,16.64Z"/><path class="cls-78" d="M48.07,16.51c.31.07.33.24.28.42s-.11.08-.14.06C48,16.87,48.2,16.68,48.07,16.51Z"/><path class="cls-228" d="M9.23,18.83c-.32-.06-.16-.32-.1-.41s.17,0,.25.11S9.32,18.75,9.23,18.83Z"/><path class="cls-123" d="M40.53,18.34c.18,0,.37,0,.37.19s-.21.18-.36.16a.13.13,0,0,1,0-.11.55.55,0,0,0,0-.18Z"/><path class="cls-44" d="M74.77,19.19a.35.35,0,0,1-.37,0c0-.12,0-.3.22-.29S74.78,19.07,74.77,19.19Z"/><path class="cls-144" d="M73.24,22.37c0-.15,0-.26.22-.12h.15c.14.42-.14.3-.36.27Z"/><path class="cls-229" d="M73.25,22.53c.17,0,.43.07.36-.27.24,0,.08.23.17.32C73.6,22.61,73.41,22.75,73.25,22.53Z"/><path class="cls-156" d="M56.19,24.58l.15-.36c.17,0,.3.06.25.24S56.34,24.58,56.19,24.58Z"/><path class="cls-43" d="M25.41,58.3c0-.13,0-.3.12-.34s.2.09.24.2a.13.13,0,0,1,0,.13c-.08.07-.18.05-.28.06A.11.11,0,0,1,25.41,58.3Z"/><path class="cls-159" d="M39.28,26.45v-.09c0-.09-.07-.17,0-.26s.39.09.35.28S39.41,26.47,39.28,26.45Z"/><path class="cls-181" d="M57.58,70.11c.12,0,.27,0,.28.14s-.13.11-.23.12l-.37,0c0-.2.22-.17.33-.25Z"/><path class="cls-22" d="M75,27.28l.19.39a.54.54,0,0,1-.18,0C74.79,27.61,74.93,27.44,75,27.28Z"/><path class="cls-230" d="M13.1,28.61s-.08.11-.15.13-.16-.06-.12-.14a.32.32,0,0,1,.18-.14C13.07,28.44,13.12,28.5,13.1,28.61Z"/><path class="cls-134" d="M35.35,49.56c-.09.25.18.25.26.37-.21,0-.71.19-.35-.36Z"/><path class="cls-24" d="M72.5,59c0,.15-.12.16-.22.18s-.21,0-.19-.15,0-.23.12-.18A1.32,1.32,0,0,1,72.5,59Z"/><path class="cls-154" d="M13.39,29.28a.32.32,0,0,1-.08-.5c.16-.2.19,0,.2.13A.37.37,0,0,1,13.39,29.28Z"/><path class="cls-203" d="M13.39,29.28c0-.13-.06-.29.12-.37l.14.13c0,.12.17.27-.11.24Z"/><path class="cls-231" d="M8.6,29.29a.26.26,0,0,1-.42,0c-.13-.14.09-.19.09-.29A.41.41,0,0,1,8.6,29.29Z"/><path class="cls-95" d="M16.94,59.5a.23.23,0,0,1,.12,0c.24.2.18-.3.38-.16a.17.17,0,0,1,0,.17c-.13.21-.34.1-.53.1a.09.09,0,0,1,0-.09S16.93,59.5,16.94,59.5Z"/><path class="cls-232" d="M5.06,71.58l.15-.4a.43.43,0,0,1,.14.47C5.28,71.78,5.14,71.68,5.06,71.58Z"/><path class="cls-233" d="M4.82,30.28c.19,0,.42,0,.36-.27.23,0,.09.23.19.31C5.18,30.38,5,30.46,4.82,30.28Z"/><path class="cls-25" d="M30.22,30.09c.23.14.27.26.19.4a.18.18,0,0,1-.16,0C30.11,30.38,30.26,30.24,30.22,30.09Z"/><path class="cls-182" d="M55.16,31.82c-.24.05-.25.22-.22.41H54.8c0-.2-.07-.42.08-.56S55.08,31.75,55.16,31.82Z"/><path class="cls-170" d="M46.61,32.82a.44.44,0,0,1,.27.46,1.2,1.2,0,0,1-.28,0,.12.12,0,0,1-.05-.11c0-.09,0-.18,0-.27A.21.21,0,0,1,46.61,32.82Z"/><path class="cls-234" d="M19.72,60c.14,0,.12.13.15.22s0,.15-.09.17-.2,0-.19-.15S19.6,60,19.72,60Z"/><path class="cls-73" d="M63.65,34.86c-.18,0-.37.19-.5,0a.11.11,0,0,1,0-.11C63.39,34.57,63.46,34.92,63.65,34.86Z"/><path class="cls-235" d="M29.3,35.28l.09-.35h.17l.14.1,0,.26Z"/><path class="cls-186" d="M21.1,36c-.14,0-.37.3-.38-.11,0-.07,0-.2,0-.2C21,35.73,21.05,35.87,21.1,36Z"/><path class="cls-137" d="M12.14,37l-.12.13c0-.18-.07-.38.07-.5s.24,0,.29.14v0A2,2,0,0,1,12.14,37Z"/><path class="cls-78" d="M52.38,36.78c-.2.16-.31.3-.48.16a.22.22,0,0,1,0-.21C52.09,36.55,52.16,36.83,52.38,36.78Z"/><path class="cls-236" d="M31.56,72.94h-.09c0-.14,0-.34.13-.35s.29.13.21.33A.36.36,0,0,1,31.56,72.94Z"/><path class="cls-237" d="M31.56,72.94c.08-.15.16-.07.25,0a.15.15,0,0,1,.15.14C31.75,73.25,31.59,73.29,31.56,72.94Z"/><path class="cls-137" d="M7.44,14.27c-.13,0-.08.17-.13.25H7.22c0-.15-.08-.34.08-.42S7.44,14.17,7.44,14.27Z"/><path class="cls-229" d="M40.54,18.6v.09c-.52.12-.39-.21-.36-.47a.11.11,0,0,1,.14,0C40.41,18.32,40.44,18.48,40.54,18.6Z"/><path class="cls-95" d="M28.82,47c-.08.12-.18.06-.28,0s0-.24.15-.25S28.8,46.87,28.82,47Z"/><path class="cls-24" d="M40.31,18.22h-.13c0-.14,0-.27.16-.24a.27.27,0,0,1,.19.36h0C40.4,18.42,40.37,18.31,40.31,18.22Z"/><path class="cls-32" d="M41.56,28.3c0-.12-.05-.29.07-.3s.18.17.17.32,0,.11-.06.11S41.6,28.36,41.56,28.3Z"/><path class="cls-238" d="M22,28.06c.18-.21.23.06.34.1.1.23-.09.18-.2.19S21.88,28.23,22,28.06Z"/><path class="cls-72" d="M36.38,42c.18,0,.38-.09.51.12C36.72,42,36.46,42.34,36.38,42Z"/><path class="cls-95" d="M10.24,69.86a.24.24,0,0,1-.21.24.7.7,0,0,1,0-.29C10.08,69.75,10.19,69.78,10.24,69.86Z"/><path class="cls-18" d="M44.21,14.85l.35-.2c0,.1.16.24,0,.3S44.34,14.89,44.21,14.85Z"/><path class="cls-132" d="M75.26,56.57l-.1.49S75,57,75,57,75,56.7,75.26,56.57Z"/><path class="cls-215" d="M28.36,42.78c0,.25-.21.11-.33.15,0-.12-.09-.31.17-.32Z"/><path class="cls-30" d="M6.08,22.38,6,22.51A.78.78,0,0,1,6,22C6.22,22.08,6,22.24,6.08,22.38Z"/><path class="cls-94" d="M15.92,13.77v-.09c.06-.14.23-.08.33-.16a.19.19,0,0,1,.24.14c0,.17-.12.12-.2.12S16.05,13.77,15.92,13.77Z"/><path class="cls-68" d="M28.54,51.51l.13-.35c.11.05.26.11.22.23S28.69,51.54,28.54,51.51Z"/><path class="cls-239" d="M58.85,62.36c-.07.21-.22.12-.35.09,0-.13.07-.27.23-.33Z"/><path class="cls-215" d="M16.25,13.52c0,.24-.22.1-.33.16,0-.14-.11-.32.15-.33Z"/><path class="cls-240" d="M18.46,51.44c0,.08.17.17,0,.25-.4,0-.21-.23-.14-.4Z"/><path class="cls-241" d="M57.59,70.1c0,.19-.28.09-.33.25l0-.12C57.24,69.93,57.4,70,57.59,70.1Z"/><path class="cls-116" d="M.35,11c.14,0,.16.08.17.15s0,.2-.18.13l-.19-.11Z"/><path class="cls-54" d="M11.92,52.14l-.31.13c0-.16-.08-.34.15-.38S11.91,52,11.92,52.14Z"/><path class="cls-28" d="M60.24,9.46c-.1.25-.25-.05-.36,0,0-.09-.07-.21.06-.23S60.18,9.33,60.24,9.46Z"/><path class="cls-28" d="M19.48,43.55h-.13c0-.14,0-.27.18-.23a.27.27,0,0,1,.17.35l-.07,0A.21.21,0,0,1,19.48,43.55Z"/><path class="cls-242" d="M54.05,39.93a.37.37,0,0,1-.39,0c-.11-.16,0-.27.11-.36S54,39.81,54.05,39.93Z"/><path class="cls-242" d="M39.29,26.1c0,.09.18.18,0,.26-.41,0-.21-.23-.13-.4Z"/><path class="cls-243" d="M56.32,24.24h-.27c0-.13-.06-.35.11-.36S56.27,24.11,56.32,24.24Z"/><path class="cls-244" d="M43,35.68a.64.64,0,0,0,.45.12c0,.18,0,.2-.2.15S42.86,36,43,35.68Z"/><path class="cls-8" d="M19.83,44a.24.24,0,0,1,0-.12c-.09,0-.21-.09-.12-.23h0c.18,0,.34,0,.37.2S20,44,19.83,44Z"/><path class="cls-245" d="M60.11,54.57a.35.35,0,0,1-.38,0c0-.14-.15-.29.07-.38A.59.59,0,0,1,60.11,54.57Z"/><path class="cls-71" d="M41.45,64.43l.31-.14s.05.12,0,.15c-.12.18-.31.13-.48.1C41.3,64.43,41.34,64.38,41.45,64.43Z"/><path class="cls-246" d="M25.77,58.3v-.14c.23.07.24.29.34.44l-.22,0-.1-.09C25.75,58.47,25.68,58.39,25.77,58.3Z"/><path class="cls-24" d="M67.41,7.63l-.21-.11h-.13c0-.14,0-.27.18-.23A.23.23,0,0,1,67.41,7.63Z"/><path class="cls-247" d="M8.73,6.65H8.47c0-.13-.07-.35.08-.36S8.67,6.52,8.73,6.65Z"/><path class="cls-95" d="M10.62,65l.13-.34c.18,0,.15.16.14.25S10.72,65,10.62,65Z"/><path class="cls-82" d="M60.11,71.23a.35.35,0,0,1-.23.34C59.9,71.42,59.68,71.12,60.11,71.23Z"/><path class="cls-248" d="M46.6,33.23v.08c-.52.14-.39-.2-.35-.46a.09.09,0,0,1,.13,0C46.47,33,46.51,33.11,46.6,33.23Z"/><path class="cls-114" d="M32.85,21.87l.12-.41a.35.35,0,0,1,.16.42S33,21.87,32.85,21.87Z"/><path class="cls-249" d="M34.22,3.69c.1-.19.18,0,.27,0,.13.3-.08.25-.27.23Z"/><path class="cls-82" d="M63.51,31.25c.14,0,.31.07.38-.13.17,0,.24.17.17.19S63.66,31.52,63.51,31.25Z"/><path class="cls-34" d="M69.34,65.55l-.26.12c-.06-.14-.11-.31.11-.36S69.33,65.44,69.34,65.55Z"/><path class="cls-250" d="M43.19,2.91,42.8,3c0-.14-.09-.32.17-.32Z"/><path class="cls-251" d="M32.83,65.82a.32.32,0,0,1-.23.34C32.65,66,32.39,65.7,32.83,65.82Z"/><path class="cls-22" d="M5.35,66c-.25,0-.39.1-.52,0s0-.15,0-.16S5.14,65.92,5.35,66Z"/><path class="cls-61" d="M10.74,2.73a.37.37,0,0,1-.25.36C10.47,2.61,10.47,2.61,10.74,2.73Z"/><path class="cls-252" d="M25.89,58.53a.2.2,0,0,0,0,.11c-.26,0-.62.18-.48-.34h.09A3.07,3.07,0,0,0,25.89,58.53Z"/><path class="cls-25" d="M22.07.9a.85.85,0,0,1-.25.18c-.12,0-.1-.1-.08-.16s0-.21.12-.19S22,.82,22.07.9Z"/><path class="cls-77" d="M1.54,40.6c.13,0,.27.27.37,0,.18.08.23.19,0,.24S1.47,41,1.54,40.6Z"/><path class="cls-152" d="M18.7,37.78v-.39c.14.07.33.15.32.31S18.82,37.77,18.7,37.78Z"/><path class="cls-71" d="M16.94,59.5v.13c-.28-.2-.06-.38,0-.65C17.14,59.21,16.88,59.35,16.94,59.5Z"/><path class="cls-72" d="M46.37,32.85h-.12c0-.1,0-.21.11-.23s.2.09.25.2V33C46.47,33,46.42,32.94,46.37,32.85Z"/><path class="cls-46" d="M22,28.06c0,.12,0,.24.13.26s.05,0,0,.06a.05.05,0,0,1,0,0c-.12,0-.28.07-.33-.05A.22.22,0,0,1,22,28.06Z"/><path class="cls-121" d="M7.46,68.37c-.14,0-.31.11-.4,0a.19.19,0,0,1,.14-.3,1.67,1.67,0,0,1,.28.18A.11.11,0,0,1,7.46,68.37Z"/><path class="cls-3" d="M3.46,54.72l-.32.13c0-.15-.07-.34.15-.37S3.43,54.62,3.46,54.72Z"/><path class="cls-253" d="M2.66,30.34c.07-.1.16-.19.13-.33.12,0,.26.11.23.24S2.81,30.4,2.66,30.34Z"/><path class="cls-22" d="M5.07,29.91c-.15,0-.28,0-.27.21a.24.24,0,0,1,0-.42C5,29.61,5,29.77,5.07,29.91Z"/><path class="cls-254" d="M63.89,29.31a.35.35,0,0,1-.23.33C63.69,29.5,63.46,29.19,63.89,29.31Z"/><path class="cls-255" d="M8.6,29.29,8.27,29C8.49,29,8.65,29,8.6,29.29Z"/><path class="cls-256" d="M7.46,68.28c-.16,0-.32,0-.26-.23s.25,0,.36.08S7.58,68.28,7.46,68.28Z"/><path class="cls-69" d="M21.48,68.22l.12-.33c.12,0,.27.11.23.24S21.62,68.28,21.48,68.22Z"/><path class="cls-210" d="M51.53,55.47c0,.18-.27.07-.26.25a.28.28,0,0,1-.13-.26C51.28,55.23,51.4,55.45,51.53,55.47Z"/><path class="cls-54" d="M40.67,39a.21.21,0,0,1-.08-.36c.18-.07.21.1.23.23S40.72,38.94,40.67,39Z"/><path class="cls-71" d="M65.8,69.23l-.13.14a.8.8,0,0,1,.07-.57C65.94,68.93,65.75,69.09,65.8,69.23Z"/><path class="cls-95" d="M26.76,50.55h-.09c0-.13-.1-.29.1-.36,0,0,.08,0,.11,0Z"/><path class="cls-230" d="M74.09,50.5c0-.07-.08-.12-.07-.16s.06-.08.1-.11.09.08.09.11S74.15,50.43,74.09,50.5Z"/><path class="cls-170" d="M57.59,16.64c.09,0,.2,0,.23-.16s.22.09.17.17-.26.08-.4.08Z"/><path class="cls-257" d="M49.89,16.73v-.45C50,16.43,50.28,16.58,49.89,16.73Z"/><path class="cls-54" d="M67.42,61.4v-.14c.12,0,.25.09.24.23s-.14.12-.24.11a.14.14,0,0,1-.07-.1A.17.17,0,0,1,67.42,61.4Z"/><path class="cls-46" d="M67.42,61.46v.14c-.17,0-.4.18-.51-.11h.15A.32.32,0,0,1,67.42,61.46Z"/><path class="cls-121" d="M9.23,18.83l.15-.3c.11,0,.26.1.21.23S9.36,18.83,9.23,18.83Z"/><path class="cls-124" d="M41.45,64.43l-.14.11c-.18-.11-.17-.22,0-.34s.07-.06.11,0Z"/><path class="cls-24" d="M58.72,9V8.88c.1,0,.24,0,.25-.16.13,0,.22.07.16.16S58.87,9,58.72,9Z"/><path class="cls-51" d="M41.4,64.2h-.11c0-.12-.06-.27.09-.36s.1,0,.15,0Z"/><path class="cls-104" d="M71.73,64.33l.26-.27c.1,0,.23.12.17.2S71.88,64.34,71.73,64.33Z"/><path class="cls-258" d="M1.28,53.31c-.18-.07-.1.21-.25.18s-.09-.34.08-.41S1.33,53.15,1.28,53.31Z"/><path class="cls-44" d="M50.39,6.13l.13-.35c.14.13.23.29.1.45S50.45,6.2,50.39,6.13Z"/><path class="cls-16" d="M25.9,4.58c-.1,0-.22,0-.28.11h-.08c0-.15,0-.32.15-.36S25.91,4.44,25.9,4.58Z"/><path class="cls-259" d="M51.37,1.86h-.2c0-.15,0-.3.22-.23S51.34,1.78,51.37,1.86Z"/><path class="cls-260" d="M59.8,54.24c0,.12,0,.25-.07.38l-.11.11C59.67,54.56,59.39,54.28,59.8,54.24Z"/><path class="cls-261" d="M74.38,68.27l.12.22c-.18,0-.4.08-.27-.23Z"/><path class="cls-32" d="M29.47,36.52l-.35-.13c0-.08.05-.21.18-.19S29.43,36.4,29.47,36.52Z"/><path class="cls-262" d="M53.77,39.62c0,.12-.07.24-.11.36h-.1C53.64,39.87,53.31,39.51,53.77,39.62Z"/><path class="cls-71" d="M34.88,38.25h-.36c0-.13.08-.28.26-.24S34.87,38.16,34.88,38.25Z"/><path class="cls-263" d="M30.36,27.42l.09-.13.5.07C30.65,27.44,30.53,27.62,30.36,27.42Z"/><path class="cls-264" d="M22.11,28.41v-.09c.07-.05.24,0,.21-.16.16,0,.28.11.24.18S22.27,28.42,22.11,28.41Z"/><path class="cls-32" d="M4.67,71.09,4.32,71c0-.15.09-.2.23-.15S4.7,71,4.67,71.09Z"/><path class="cls-83" d="M69.71,45.9c.07,0,.24,0,.21-.15.16,0,.27.1.22.17s-.28.09-.43.07Z"/><path class="cls-95" d="M41.56,28.3c.08,0,.14.21.24,0,.09,0,.17.06.09.13a.33.33,0,0,1-.26.08C41.49,28.51,41.54,28.39,41.56,28.3Z"/><path class="cls-126" d="M35.89,34.71a.33.33,0,0,1-.26-.37C35.75,34.44,36,34.45,35.89,34.71Z"/><path class="cls-95" d="M60.27,30.5H60a.16.16,0,0,1,.12-.25C60.28,30.23,60.23,30.41,60.27,30.5Z"/><path class="cls-137" d="M40.67,39l.15-.13h.28C41,39.09,40.82,39,40.67,39Z"/><path class="cls-5" d="M2,27.77l.14-.35c.14.13.22.3.09.45S2.1,27.84,2,27.77Z"/><path class="cls-265" d="M66.05,3.43c.09-.09.18-.17.26-.26s.24.12.19.19S66.22,3.5,66.05,3.43Z"/><path class="cls-98" d="M7.46,68.28c.07,0,.14-.06.1-.15.14,0,.28,0,.25.15s-.22.09-.35.09Z"/><path class="cls-83" d="M51.79,33.09h-.34c0-.13.07-.29.25-.25S51.8,33,51.79,33.09Z"/><path class="cls-266" d="M14.85,21.17c.16.18.45.39-.07.47a.26.26,0,0,1-.07-.16A.45.45,0,0,1,14.85,21.17Z"/><path class="cls-95" d="M68.74,27.92h-.36c0-.11.06-.23.22-.22S68.7,27.83,68.74,27.92Z"/><path class="cls-143" d="M28.92,46.24,29.2,46c.1,0,.21.1.15.2S29.08,46.26,28.92,46.24Z"/><path class="cls-7" d="M14.78,21.51v.13c-.36.06-.35-.12-.24-.36a.11.11,0,0,1,.13,0C14.76,21.32,14.71,21.44,14.78,21.51Z"/><path class="cls-34" d="M20.38,49.55l-.3,0a.16.16,0,0,1,.12-.26C20.39,49.28,20.34,49.45,20.38,49.55Z"/><path class="cls-267" d="M14.78,21.51c-.14,0-.12-.14-.14-.23s0-.13.12-.12a.07.07,0,0,1,.09,0C15,21.31,14.85,21.4,14.78,21.51Z"/><path class="cls-121" d="M14.76,21.16l-.12.12h-.1c0-.12-.09-.31.08-.36S14.78,21,14.76,21.16Z"/><path class="cls-43" d="M41.43,19.31v-.43C41.45,19,41.93,19.17,41.43,19.31Z"/><path class="cls-268" d="M9.75,52.42a.14.14,0,0,1,0,.11l-.07-.1Z"/><path class="cls-2" d="M32,19.4c-.1.05-.11,0-.12-.08Z"/><path class="cls-2" d="M33,11.68c0-.16,0-.32.25-.27,0,.09,0,.14.11.18C33.25,11.75,33.11,11.73,33,11.68Z"/><path class="cls-2" d="M12.14,37c0-.18,0-.29.25-.25C12.53,37.07,12.39,37.1,12.14,37Z"/><path class="cls-269" d="M67.42,61.46l-.35,0c0-.1,0-.28,0-.29s.21.14.33.2A.06.06,0,0,0,67.42,61.46Z"/><path class="cls-270" d="M24.24,66.3c0-.39.21-.24.4-.14C24.56,66.37,24.4,66.33,24.24,66.3Z"/><path class="cls-269" d="M19.71,43.66l.12.23c-.32.08-.44,0-.35-.34Z"/><path class="cls-271" d="M40.31,18.22l.24.11c0,.09.15.18,0,.27C40.22,18.61,40.27,18.41,40.31,18.22Z"/><path class="cls-2" d="M25.89,58.53c-.19,0-.4.07-.39-.23s.18,0,.27,0Z"/><path class="cls-2" d="M46.37,32.85l.23.12c0,.09.17.17,0,.26S46.33,33.05,46.37,32.85Z"/></pattern></defs><g id="HATCH"><rect class="cls-272" x="0.5" y="0.5" width="496.06" height="11.04"/></g><g id="HATCH-2" data-name="HATCH"><rect class="cls-272" x="0.5" y="17.87" width="496.06" height="11.04"/></g><g id="HATCH-3" data-name="HATCH"><rect class="cls-272" x="0.5" y="100.06" width="496.06" height="11.04"/></g><g id="HATCH-4" data-name="HATCH"><rect class="cls-272" x="0.5" y="117.43" width="496.06" height="11.04"/></g><g id="LINE"><line class="cls-273" x1="99.6" y1="100.06" x2="145.06" y2="100.06"/></g><g id="LINE-2" data-name="LINE"><line class="cls-273" x1="352" y1="100.06" x2="397.46" y2="100.06"/></g><g id="LINE-3" data-name="LINE"><line class="cls-274" x1="352" y1="34.02" x2="352" y2="100.06"/></g><g id="LINE-4" data-name="LINE"><line class="cls-275" x1="38.4" y1="94.96" x2="38.4" y2="34.02"/></g><g id="LINE-5" data-name="LINE"><line class="cls-275" x1="458.67" y1="94.96" x2="458.67" y2="34.02"/></g><g id="LINE-6" data-name="LINE"><line class="cls-274" x1="38.4" y1="34.02" x2="458.67" y2="34.02"/></g><g id="LINE-7" data-name="LINE"><line class="cls-274" x1="38.4" y1="94.96" x2="99.6" y2="94.96"/></g><g id="LINE-8" data-name="LINE"><line class="cls-274" x1="145.06" y1="94.96" x2="352" y2="94.96"/></g><g id="LINE-9" data-name="LINE"><line class="cls-274" x1="397.46" y1="94.96" x2="458.67" y2="94.96"/></g><g id="HATCH-5" data-name="HATCH"><polygon class="cls-276" points="99.6 34.02 145.06 34.02 145.06 49.5 137.13 49.5 137.13 41.95 107.53 41.95 107.53 92.12 137.13 92.12 137.13 84.58 145.06 84.58 145.06 100.06 99.6 100.06 99.6 34.02"/></g><g id="HATCH-6" data-name="HATCH"><polygon class="cls-276" points="352 34.02 397.46 34.02 397.46 49.5 389.53 49.5 389.53 41.95 359.93 41.95 359.93 92.12 389.53 92.12 389.53 84.58 397.46 84.58 397.46 100.06 352 100.06 352 34.02"/></g><g id="POLYLINE"><rect class="cls-277" x="0.5" y="0.5" width="496.06" height="11.04"/></g><g id="POLYLINE-2" data-name="POLYLINE"><rect class="cls-277" x="0.5" y="17.87" width="496.06" height="11.04"/></g><g id="POLYLINE-3" data-name="POLYLINE"><rect class="cls-277" x="0.5" y="100.06" width="496.06" height="11.04"/></g><g id="POLYLINE-4" data-name="POLYLINE"><rect class="cls-277" x="0.5" y="117.43" width="496.06" height="11.04"/></g></svg>