<?xml version="1.0" encoding="utf-8"?>
<!-- Generator: Adobe Illustrator 25.2.1, SVG Export Plug-In . SVG Version: 6.00 Build 0)  -->
<svg version="1.1" id="TEXT25" xmlns="http://www.w3.org/2000/svg" xmlns:xlink="http://www.w3.org/1999/xlink" x="0px" y="0px"
	 viewBox="0 0 552.8 240.1" style="enable-background:new 0 0 552.8 240.1;" xml:space="preserve">
<style type="text/css">
	.st0{fill-rule:evenodd;clip-rule:evenodd;fill:none;}
	.st1{clip-path:url(#SVGID_2_);fill:none;stroke:#221F1F;stroke-width:0.5;stroke-linejoin:round;}
	.st2{fill:none;stroke:#231F20;stroke-width:0.75;stroke-linecap:round;stroke-linejoin:round;stroke-miterlimit:10;}
	.st3{fill:#FFFFFF;stroke:#231F20;stroke-linecap:round;stroke-linejoin:round;stroke-miterlimit:10;}
	.st4{fill:none;stroke:#231F20;stroke-width:1.5;stroke-linecap:round;stroke-linejoin:round;stroke-miterlimit:10;}
	.st5{fill:none;stroke:#231F20;stroke-width:0.25;stroke-miterlimit:10;}
	.st6{fill:#231F20;}
	.st7{font-family:'ArialMT';}
	.st8{font-size:12px;}
	.st9{fill-rule:evenodd;clip-rule:evenodd;fill:url(#SVGID_3_);}
	.st10{fill-rule:evenodd;clip-rule:evenodd;fill:url(#SVGID_4_);}
	.st11{fill-rule:evenodd;clip-rule:evenodd;fill:url(#SVGID_5_);}
	.st12{fill-rule:evenodd;clip-rule:evenodd;fill:url(#SVGID_6_);}
</style>
<pattern  x="150.2" y="173.7" width="72" height="72" patternUnits="userSpaceOnUse" id="diagonal_cross_hatch" viewBox="6.2 -86.2 72 72" style="overflow:visible;">
	<g>
		<rect x="6.2" y="-86.2" class="st0" width="72" height="72"/>
		<g>
			<defs>
				<rect id="SVGID_1_" x="6.2" y="-86.2" width="72" height="72"/>
			</defs>
			<clipPath id="SVGID_2_">
				<use xlink:href="#SVGID_1_"  style="overflow:visible;"/>
			</clipPath>
			<line class="st1" x1="0.2" y1="-74.2" x2="18.2" y2="-92.2"/>
			<line class="st1" x1="0.2" y1="-68.2" x2="24.2" y2="-92.2"/>
			<line class="st1" x1="0.2" y1="-62.2" x2="30.2" y2="-92.2"/>
			<line class="st1" x1="0.2" y1="-56.2" x2="36.2" y2="-92.2"/>
			<line class="st1" x1="0.2" y1="-50.2" x2="42.2" y2="-92.2"/>
			<line class="st1" x1="0.2" y1="-44.2" x2="48.2" y2="-92.2"/>
			<line class="st1" x1="0.2" y1="-38.2" x2="54.2" y2="-92.2"/>
			<line class="st1" x1="0.2" y1="-32.2" x2="60.2" y2="-92.2"/>
			<line class="st1" x1="0.2" y1="-26.2" x2="66.2" y2="-92.2"/>
			<line class="st1" x1="0.2" y1="-20.2" x2="72.2" y2="-92.2"/>
			<line class="st1" x1="0.2" y1="-14.2" x2="78.2" y2="-92.2"/>
			<line class="st1" x1="0.2" y1="-8.2" x2="84.2" y2="-92.2"/>
			<line class="st1" x1="6.2" y1="-8.2" x2="84.2" y2="-86.2"/>
			<line class="st1" x1="12.2" y1="-8.2" x2="84.2" y2="-80.2"/>
			<line class="st1" x1="18.2" y1="-8.2" x2="84.2" y2="-74.2"/>
			<line class="st1" x1="24.2" y1="-8.2" x2="84.2" y2="-68.2"/>
			<line class="st1" x1="30.2" y1="-8.2" x2="84.2" y2="-62.2"/>
			<line class="st1" x1="36.2" y1="-8.2" x2="84.2" y2="-56.2"/>
			<line class="st1" x1="42.2" y1="-8.2" x2="84.2" y2="-50.2"/>
			<line class="st1" x1="48.2" y1="-8.2" x2="84.2" y2="-44.2"/>
			<line class="st1" x1="54.2" y1="-8.2" x2="84.2" y2="-38.2"/>
			<line class="st1" x1="52.2" y1="-0.2" x2="94.2" y2="-42.2"/>
			<line class="st1" x1="58.2" y1="-0.2" x2="94.2" y2="-36.2"/>
			<line class="st1" x1="64.2" y1="-0.2" x2="94.2" y2="-30.2"/>
		</g>
	</g>
</pattern>
<g>
	<g id="LINE">
		<line class="st2" x1="94.6" y1="66.4" x2="471.9" y2="66.4"/>
	</g>
	<g id="LINE_1_">
		<line class="st2" x1="94.6" y1="137.2" x2="471.9" y2="137.2"/>
	</g>
	<g id="LINE_2_">
		<line class="st2" x1="94.6" y1="172.5" x2="471.9" y2="172.5"/>
	</g>
	<g id="LINE_3_">
		<line class="st2" x1="101.6" y1="58.1" x2="101.6" y2="211.5"/>
	</g>
	<g id="LINE_4_">
		<line class="st2" x1="295.5" y1="59" x2="295.5" y2="211.5"/>
	</g>
	<g id="LINE_5_">
		<line class="st2" x1="344" y1="59" x2="344" y2="211.5"/>
	</g>
	<g id="LINE_6_">
		<line class="st2" x1="392.5" y1="59" x2="392.5" y2="211.5"/>
	</g>
	<g id="LINE_7_">
		<line class="st2" x1="441" y1="59" x2="441" y2="211.5"/>
	</g>
	<g id="LINE_10_">
		<line class="st2" x1="247" y1="211.5" x2="247" y2="59"/>
	</g>
	<g id="LINE_14_">
		<line class="st2" x1="198.6" y1="211.5" x2="198.6" y2="113"/>
	</g>
	<g id="LINE_15_">
		<line class="st2" x1="150.1" y1="211.5" x2="150.1" y2="59"/>
	</g>
	<g id="LINE_16_">
		<line class="st2" x1="94.6" y1="101.8" x2="471.9" y2="101.8"/>
	</g>
	<g id="LINE_18_">
		<line class="st2" x1="198.6" y1="211.5" x2="198.6" y2="59"/>
	</g>
</g>
<g>
	<g id="POLYLINE_4_">
		<rect x="198.6" y="66.4" class="st3" width="55" height="11.2"/>
	</g>
	<g id="POLYLINE_5_">
		<rect x="150.1" y="101.8" class="st3" width="55" height="11.2"/>
	</g>
	<g id="POLYLINE_6_">
		<rect x="101.6" y="137.2" class="st3" width="55" height="11.2"/>
	</g>
	<g id="ELLIPSE_1_">
		<path class="st3" d="M193.9,100.4c6.3,0,11.3-5.1,11.3-11.3s-5.1-11.3-11.3-11.3c-6.3,0-11.3,5.1-11.3,11.3
			S187.6,100.4,193.9,100.4L193.9,100.4z"/>
	</g>
</g>
<g id="POLYLINE">
	<polyline class="st4" points="447.4,66.4 392.5,66.4 399.2,101.8 344,101.8 351.5,137.2 295.5,137.2 304.3,175.9 	"/>
</g>
<g id="LINE_8_">
	<g>
		<g>
			<line class="st5" x1="156.7" y1="199" x2="191.9" y2="199"/>
			<g>
				<polygon class="st6" points="158.2,201.2 150.1,199 158.2,196.9 				"/>
			</g>
			<g>
				<polygon class="st6" points="190.4,201.2 198.6,199 190.4,196.9 				"/>
			</g>
		</g>
	</g>
</g>
<g id="MTEXT">
	<text transform="matrix(1 0 0 1 168.7468 195.3905)" class="st6 st7 st8">G</text>
</g>
<g id="LINE_9_">
	<g>
		<g>
			<line class="st5" x1="127.6" y1="73.1" x2="127.6" y2="95.2"/>
			<g>
				<polygon class="st6" points="125.4,74.6 127.6,66.4 129.7,74.6 				"/>
			</g>
			<g>
				<polygon class="st6" points="125.4,93.7 127.6,101.8 129.7,93.7 				"/>
			</g>
		</g>
	</g>
</g>
<g id="MTEXT_1_">
	<text transform="matrix(1 0 0 1 114.3225 89.4139)" class="st6 st7 st8">R</text>
</g>
<g id="LINE_11_">
	<g>
		<g>
			<line class="st5" x1="321.5" y1="73.1" x2="321.5" y2="95.2"/>
			<g>
				<polygon class="st6" points="319.3,74.6 321.5,66.4 323.7,74.6 				"/>
			</g>
			<g>
				<polygon class="st6" points="319.3,93.7 321.5,101.8 323.7,93.7 				"/>
			</g>
		</g>
	</g>
</g>
<g id="MTEXT_2_">
	<text transform="matrix(1 0 0 1 308.2722 89.4139)" class="st6 st7 st8">R</text>
</g>
<g id="LINE_12_">
	<g>
		<g>
			<line class="st5" x1="350.7" y1="199" x2="385.9" y2="199"/>
			<g>
				<polygon class="st6" points="352.1,201.2 344,199 352.1,196.9 				"/>
			</g>
			<g>
				<polygon class="st6" points="384.4,201.2 392.5,199 384.4,196.9 				"/>
			</g>
		</g>
	</g>
</g>
<g id="MTEXT_3_">
	<text transform="matrix(1 0 0 1 362.697 195.3905)" class="st6 st7 st8">G</text>
</g>
<g id="MTEXT_4_">
	<g>
		<text transform="matrix(1 0 0 1 27.9202 37.0312)"><tspan x="0" y="0" class="st6 st7 st8">125 mm sphere must not </tspan><tspan x="0" y="13" class="st6 st7 st8">pass through treads</tspan></text>
	</g>
</g>
<g id="POLYLINE_15_">
	<g>
		<g>
			<polyline class="st5" points="189,71.2 170.7,33.7 163.8,33.7 			"/>
			<g>
				<polygon class="st6" points="190.3,68.9 191.9,77.1 186.4,70.8 				"/>
			</g>
		</g>
	</g>
</g>
<g>
	<g id="HATCH">
		<pattern  id="SVGID_3_" xlink:href="#diagonal_cross_hatch" patternTransform="matrix(1 0 0 1 -88.6264 -26.3307)">
		</pattern>
		<rect x="198.6" y="66.4" class="st9" width="55" height="11.2"/>
	</g>
	<g id="HATCH_1_">
		<pattern  id="SVGID_4_" xlink:href="#diagonal_cross_hatch" patternTransform="matrix(1 0 0 1 -88.6264 -26.3307)">
		</pattern>
		<rect x="150.1" y="101.8" class="st10" width="55" height="11.2"/>
	</g>
	<g id="HATCH_2_">
		<pattern  id="SVGID_5_" xlink:href="#diagonal_cross_hatch" patternTransform="matrix(1 0 0 1 -88.6264 -26.3307)">
		</pattern>
		<rect x="101.6" y="137.2" class="st11" width="55" height="11.2"/>
	</g>
	<g id="HATCH_11_">
		<pattern  id="SVGID_6_" xlink:href="#diagonal_cross_hatch" patternTransform="matrix(1 0 0 1 -88.6264 -26.3307)">
		</pattern>
		<path class="st12" d="M193.9,100.4c-6.3,0-11.3-5.1-11.3-11.3s5.1-11.3,11.3-11.3c6.3,0,11.3,5.1,11.3,11.3
			S200.1,100.4,193.9,100.4z"/>
	</g>
</g>
</svg>
