<svg xmlns="http://www.w3.org/2000/svg" viewBox="0 0 496.32 476.64"><defs><style>.cls-1,.cls-10,.cls-11,.cls-12,.cls-13,.cls-14,.cls-15,.cls-16,.cls-17,.cls-6,.cls-7,.cls-8,.cls-9{fill:none;stroke:#231f20;}.cls-1,.cls-10,.cls-11,.cls-12,.cls-13,.cls-14,.cls-15,.cls-17,.cls-7,.cls-8,.cls-9{stroke-miterlimit:10;}.cls-1{stroke-width:0.25px;}.cls-2,.cls-3,.cls-4{fill:#231f20;}.cls-3,.cls-4{font-size:12px;font-family:ArialMT, Arial;}.cls-4,.cls-5{letter-spacing:-0.06em;}.cls-16,.cls-6{stroke-linecap:round;stroke-linejoin:round;}.cls-8{stroke-dasharray:11.65 5.82;}.cls-9{stroke-dasharray:11.65 5.82;}.cls-10{stroke-dasharray:11.65 5.82;}.cls-11{stroke-dasharray:11.65 5.82;}.cls-12{stroke-dasharray:14.28 7.14;}.cls-13{stroke-dasharray:8.8 4.4;}.cls-14{stroke-dasharray:11.22 5.61;}.cls-15{stroke-dasharray:11.65 5.82;}.cls-16{stroke-width:1.5px;}.cls-17{stroke-width:0.75px;}</style></defs><g id="_DDT_AUDIT_GENERATED__29_" data-name="$DDT_AUDIT_GENERATED_(29)"><g id="LINE"><g id="LINE-2" data-name="LINE"><line class="cls-1" x1="343.02" y1="358.59" x2="474.65" y2="281.62"/><polygon class="cls-2" points="345.41 359.72 337.29 361.94 343.21 355.95 345.41 359.72"/><polygon class="cls-2" points="474.46 284.25 480.38 278.26 472.26 280.49 474.46 284.25"/></g></g><g id="LINE-3" data-name="LINE"><g id="LINE-4" data-name="LINE"><line class="cls-1" x1="199.96" y1="467.96" x2="474.62" y2="310.44"/><polygon class="cls-2" points="202.33 469.11 194.19 471.26 200.16 465.33 202.33 469.11"/><polygon class="cls-2" points="474.41 313.07 480.38 307.14 472.25 309.29 474.41 313.07"/></g></g><g id="LINE-5" data-name="LINE"><g id="LINE-6" data-name="LINE"><line class="cls-1" x1="41.39" y1="383.02" x2="188.44" y2="467.94"/><polygon class="cls-2" points="41.59 385.65 35.63 379.7 43.76 381.88 41.59 385.65"/><polygon class="cls-2" points="186.06 469.09 194.19 471.26 188.24 465.31 186.06 469.09"/></g></g><g id="MTEXT"><text class="cls-3" transform="translate(105.75 415.52) rotate(30.88)">a</text></g><g id="MTEXT-2" data-name="MTEXT"><text class="cls-3" transform="matrix(0.85, -0.53, 0.53, 0.85, 341.87, 380.5)">b</text></g><g id="MTEXT-3" data-name="MTEXT"><text class="cls-3" transform="matrix(0.85, -0.53, 0.53, 0.85, 408.65, 315.39)">c</text></g><g id="MTEXT-4" data-name="MTEXT"><text class="cls-4" transform="matrix(1, 0, 0, 1, 103.98, 317.2)">A</text></g><g id="MTEXT-5" data-name="MTEXT"><text class="cls-3" transform="translate(187.85 208.06) rotate(-0.36)">B</text></g><g id="MTEXT-6" data-name="MTEXT"><text class="cls-3" transform="translate(233.24 361.38) rotate(-30)">Room<tspan class="cls-5" x="32.01" y="0" xml:space="preserve"> A</tspan></text></g><g id="MTEXT-7" data-name="MTEXT"><text class="cls-3" transform="translate(373.88 276.77) rotate(-30)">Room B</text></g><g id="LINE-7" data-name="LINE"><line class="cls-6" x1="337.29" y1="231.15" x2="143.37" y2="119.2"/></g><g id="LINE-8" data-name="LINE"><line class="cls-6" x1="35.63" y1="222.23" x2="321.37" y2="56.73"/></g><g id="LINE-9" data-name="LINE"><line class="cls-6" x1="178.5" y1="166.44" x2="205.88" y2="166.44"/></g><g id="LINE-10" data-name="LINE"><line class="cls-6" x1="205.88" y1="244.67" x2="205.88" y2="166.44"/></g><g id="LINE-11" data-name="LINE"><line class="cls-6" x1="178.5" y1="244.67" x2="205.88" y2="244.67"/></g><g id="LINE-12" data-name="LINE"><line class="cls-6" x1="321.37" y1="161.93" x2="321.37" y2="56.73"/></g><g id="LINE-13" data-name="LINE"><line class="cls-6" x1="480.38" y1="253.73" x2="480.38" y2="148.54"/></g><g id="LINE-14" data-name="LINE"><line class="cls-6" x1="480.38" y1="148.54" x2="302.49" y2="45.83"/></g><g id="LINE-15" data-name="LINE"><line class="cls-6" x1="0.5" y1="201.94" x2="194.19" y2="313.77"/></g><g id="LINE-16" data-name="LINE"><line class="cls-6" x1="194.19" y1="313.77" x2="480.38" y2="148.54"/></g><g id="LINE-17" data-name="LINE"><line class="cls-6" x1="194.19" y1="418.96" x2="480.38" y2="253.73"/></g><g id="LINE-18" data-name="LINE"><line class="cls-6" x1="194.19" y1="418.96" x2="194.19" y2="313.77"/></g><g id="LINE-19" data-name="LINE"><line class="cls-6" x1="0.5" y1="307.14" x2="194.19" y2="418.96"/></g><g id="LINE-20" data-name="LINE"><line class="cls-6" x1="269.53" y1="191.95" x2="321.37" y2="161.93"/><line class="cls-6" x1="126.63" y1="274.72" x2="178.5" y2="244.67"/><line class="cls-6" x1="65.44" y1="310.16" x2="101.02" y2="289.55"/><path class="cls-6" d="M63.48,354.88" transform="translate(-27.85 -27.46)"/></g><g id="LINE-21" data-name="LINE"><line class="cls-6" x1="246.19" y1="283.75" x2="178.5" y2="244.67"/></g><g id="LINE-22" data-name="LINE"><line class="cls-6" x1="321.37" y1="161.93" x2="389.28" y2="201.14"/></g><g id="LINE-23" data-name="LINE"><line class="cls-1" x1="337.29" y1="342.49" x2="337.29" y2="369.9"/></g><g id="LINE-24" data-name="LINE"><line class="cls-1" x1="194.19" y1="425.69" x2="194.19" y2="476.64"/></g><g id="LINE-25" data-name="LINE"><line class="cls-1" x1="35.63" y1="334.15" x2="35.63" y2="387.72"/></g><g id="LINE-26" data-name="LINE"><line class="cls-1" x1="480.38" y1="260.46" x2="480.38" y2="314.26"/></g><g id="LINE-27" data-name="LINE"><g id="LINE-28" data-name="LINE"><line class="cls-7" x1="389.28" y1="201.14" x2="394.48" y2="204.14"/><line class="cls-8" x1="399.52" y1="207.05" x2="472.67" y2="249.28"/><line class="cls-7" x1="475.19" y1="250.73" x2="480.38" y2="253.73"/></g></g><g id="LINE-29" data-name="LINE"><g id="LINE-30" data-name="LINE"><line class="cls-7" x1="337.29" y1="336.35" x2="337.29" y2="330.35"/><line class="cls-9" x1="337.29" y1="324.52" x2="337.29" y2="240.07"/><line class="cls-7" x1="337.29" y1="237.15" x2="337.29" y2="231.15"/></g></g><g id="LINE-31" data-name="LINE"><g id="LINE-32" data-name="LINE"><line class="cls-7" x1="35.63" y1="327.42" x2="35.63" y2="321.42"/><line class="cls-10" x1="35.63" y1="315.6" x2="35.63" y2="231.14"/><line class="cls-7" x1="35.63" y1="228.23" x2="35.63" y2="222.23"/></g></g><g id="LINE-33" data-name="LINE"><g id="LINE-34" data-name="LINE"><line class="cls-7" x1="269.53" y1="191.95" x2="264.34" y2="194.96"/><line class="cls-11" x1="259.3" y1="197.88" x2="186.22" y2="240.21"/><polyline class="cls-7" points="183.7 241.67 178.5 244.67 173.31 241.67"/><line class="cls-12" x1="167.12" y1="238.1" x2="151.66" y2="229.17"/><line class="cls-7" x1="148.57" y1="227.39" x2="143.37" y2="224.39"/><line class="cls-7" x1="101.02" y1="289.55" x2="106.21" y2="286.55"/><line class="cls-13" x1="110.02" y1="284.34" x2="119.54" y2="278.83"/><line class="cls-7" x1="121.44" y1="277.72" x2="126.63" y2="274.72"/><line class="cls-7" x1="35.63" y1="327.42" x2="40.83" y2="324.41"/><line class="cls-14" x1="45.68" y1="321.6" x2="57.82" y2="314.57"/><line class="cls-7" x1="60.25" y1="313.16" x2="65.44" y2="310.16"/></g></g><g id="LINE-35" data-name="LINE"><g id="LINE-36" data-name="LINE"><line class="cls-7" x1="337.29" y1="336.35" x2="332.09" y2="333.35"/><line class="cls-15" x1="327.05" y1="330.44" x2="253.91" y2="288.21"/><line class="cls-7" x1="251.38" y1="286.75" x2="246.19" y2="283.75"/></g></g><g id="LINE-37" data-name="LINE"><line class="cls-16" x1="190.14" y1="382.15" x2="39.69" y2="295.29"/></g><g id="LINE-38" data-name="LINE"><line class="cls-16" x1="190.14" y1="341.01" x2="190.14" y2="382.15"/></g><g id="LINE-39" data-name="LINE"><line class="cls-16" x1="39.69" y1="254.14" x2="190.14" y2="341.01"/></g><g id="LINE-40" data-name="LINE"><line class="cls-16" x1="39.69" y1="254.14" x2="39.69" y2="295.29"/></g><g id="LINE-41" data-name="LINE"><line class="cls-16" x1="178.5" y1="139.48" x2="178.5" y2="244.67"/></g><g id="LINE-42" data-name="LINE"><polyline class="cls-16" points="255.56 210.93 255.56 183.96 178.5 139.48"/></g><g id="LINE-43" data-name="LINE"><line class="cls-16" x1="214.69" y1="187.33" x2="255.55" y2="210.92"/></g><g id="LINE-44" data-name="LINE"><polyline class="cls-16" points="214.69 187.33 214.69 265.57 178.5 244.67"/></g></g><g id="_0" data-name="0"><g id="MTEXT-8" data-name="MTEXT"><text class="cls-3" transform="translate(412.58 19.63)"><tspan class="cls-5">A</tspan><tspan x="7.34" y="0" xml:space="preserve"> =</tspan></text></g><g id="MTEXT-9" data-name="MTEXT"><text class="cls-3" transform="translate(442.91 10.3)">a x b</text></g><g id="MTEXT-10" data-name="MTEXT"><text class="cls-3" transform="translate(443.24 62.76)">a x c</text></g><g id="MTEXT-11" data-name="MTEXT"><text class="cls-3" transform="translate(449.24 81.37)">20</text></g><g id="MTEXT-12" data-name="MTEXT"><text class="cls-3" transform="translate(412.56 72.3)">B =</text></g><g id="MTEXT-13" data-name="MTEXT"><text class="cls-3" transform="translate(482.44 72.3)">m</text><text class="cls-3" transform="translate(492.43 68.31) scale(0.58)">2</text></g><g id="MTEXT-14" data-name="MTEXT"><text class="cls-3" transform="translate(482.44 19.63)">m</text><text class="cls-3" transform="translate(492.43 15.63) scale(0.58)">2</text></g><g id="MTEXT-15" data-name="MTEXT"><text class="cls-3" transform="translate(449.24 27.85)">20</text></g><line class="cls-17" x1="439.41" y1="15.01" x2="472.41" y2="15.01"/><line class="cls-17" x1="439.41" y1="67.86" x2="472.41" y2="67.86"/></g></svg>