<?xml version="1.0" encoding="utf-8"?>
<!-- Generator: Adobe Illustrator 26.5.0, SVG Export Plug-In . SVG Version: 6.00 Build 0)  -->
<svg version="1.1" id="Artwork" xmlns="http://www.w3.org/2000/svg" xmlns:xlink="http://www.w3.org/1999/xlink" x="0px" y="0px"
	 viewBox="0 0 552.76 311.45" style="enable-background:new 0 0 552.76 311.45;" xml:space="preserve">
<style type="text/css">
	.st0{fill:none;stroke:#231F20;stroke-linecap:round;stroke-linejoin:round;stroke-miterlimit:10;}
	.st1{fill:none;stroke:#231F20;stroke-width:0.75;stroke-linecap:round;stroke-linejoin:round;stroke-miterlimit:10;}
	.st2{fill:#231F20;}
	.st3{font-family:'ArialMT';}
	.st4{font-size:12px;}
	.st5{font-family:'Arial-ItalicMT';}
</style>
<g id="LINE_13_">
	<line class="st0" x1="411.86" y1="283.1" x2="411.86" y2="277.44"/>
</g>
<g id="LINE_14_">
	<line class="st0" x1="328.35" y1="283.1" x2="328.35" y2="277.44"/>
</g>
<g id="LINE_15_">
	<line class="st1" x1="328.35" y1="280.27" x2="411.86" y2="280.27"/>
</g>
<g>
	<g id="LINE_22_">
		<line class="st1" x1="189.51" y1="237" x2="189.51" y2="106.26"/>
	</g>
	<g id="LINE_23_">
		<line class="st1" x1="189.51" y1="237" x2="91.01" y2="237"/>
	</g>
	<g id="LINE_24_">
		<line class="st1" x1="189.51" y1="106.26" x2="227.93" y2="106.26"/>
	</g>
	<g id="LINE_25_">
		<line class="st1" x1="91.01" y1="277.44" x2="91.01" y2="237"/>
	</g>
</g>
<g id="POLYLINE_1_">
	<rect x="196.59" y="115.65" class="st1" width="26.87" height="62.79"/>
</g>
<g>
	<g id="LINE_11_">
		<line class="st0" x1="78.35" y1="283.1" x2="78.35" y2="277.44"/>
	</g>
	<g>
		<g id="LINE">
			<line class="st0" x1="227.93" y1="68.21" x2="443.39" y2="68.21"/>
		</g>
		<g id="LINE_1_">
			<line class="st0" x1="233.59" y1="73.88" x2="316.47" y2="73.88"/>
		</g>
		<g id="LINE_2_">
			<line class="st0" x1="443.39" y1="283.1" x2="443.39" y2="28.35"/>
		</g>
		<g id="LINE_3_">
			<line class="st0" x1="443.39" y1="283.1" x2="78.35" y2="283.1"/>
		</g>
		<g id="LINE_4_">
			<line class="st0" x1="437.73" y1="277.44" x2="437.73" y2="73.88"/>
		</g>
		<g id="LINE_5_">
			<line class="st0" x1="437.73" y1="277.44" x2="233.59" y2="277.44"/>
		</g>
		<g id="LINE_6_">
			<line class="st0" x1="233.59" y1="277.44" x2="233.59" y2="73.88"/>
		</g>
		<g id="LINE_7_">
			<line class="st0" x1="227.93" y1="277.44" x2="227.93" y2="68.21"/>
		</g>
		<g id="LINE_8_">
			<line class="st0" x1="227.93" y1="277.44" x2="78.35" y2="277.44"/>
		</g>
		<g id="LINE_9_">
			<line class="st0" x1="370.5" y1="73.88" x2="437.73" y2="73.88"/>
		</g>
		<g id="LINE_10_">
			<line class="st0" x1="316.47" y1="73.88" x2="316.47" y2="68.21"/>
		</g>
		<g id="LINE_12_">
			<line class="st0" x1="370.5" y1="73.88" x2="370.5" y2="68.21"/>
		</g>
		<g id="SPLINE_4_">
			<path class="st0" d="M316.47,73.88c0,29.84,24.19,54.02,54.02,54.02"/>
		</g>
		<g id="LINE_32_">
			<line class="st0" x1="370.5" y1="73.88" x2="370.5" y2="127.9"/>
		</g>
	</g>
</g>
<g id="MTEXT_9_">
</g>
<g id="MTEXT_8_">
	<g>
		<text transform="matrix(1 0 0 1 108.0341 191.2661)" class="st2 st3 st4">Kitchen</text>
	</g>
</g>
<text transform="matrix(1 0 0 1 251.6572 50.6713)" class="st2 st3 st4">Hallway</text>
<text transform="matrix(1 0 0 1 319.107 176.4155)"><tspan x="0" y="0" class="st2 st5 st4">Sanitary</tspan><tspan x="-14.67" y="14.4" class="st2 st5 st4">compartment </tspan></text>
<g>
	<g>
		<g id="SPLINE_27_">
			<path class="st1" d="M422.35,139.86c-0.72-0.08-1.94-0.21-2.64-0.4c-0.9-0.24-1.77-0.56-2.61-0.96
				c-0.48-0.23-0.95-0.51-1.43-0.76c-0.62-0.33-1.25-0.63-1.9-0.91c-1.65-0.72-3.37-1.3-5.12-1.7c-0.63-0.15-1.27-0.26-1.9-0.37"/>
		</g>
		<g id="SPLINE_26_">
			<path class="st1" d="M382.23,150.41c0.07,0.3,0.13,0.63,0.22,0.95c0.09,0.32,0.19,0.62,0.3,0.92"/>
		</g>
		<g id="SPLINE_25_">
			<path class="st1" d="M406.14,162.86c0.21-0.03,0.42-0.06,0.63-0.09c0.64-0.1,1.27-0.22,1.9-0.37c1.75-0.4,3.47-0.98,5.12-1.7
				c0.64-0.28,1.27-0.58,1.9-0.91c0.48-0.25,0.94-0.52,1.43-0.76c0.69-0.33,1.42-0.61,2.16-0.83c0.87-0.26,2.19-0.43,3.09-0.53"/>
		</g>
		<g id="SPLINE_16_">
			<path class="st1" d="M396.1,135.53c-5.45,1.6-10.48,4.88-12.43,7.95"/>
		</g>
		<g id="SPLINE_15_">
			<path class="st1" d="M383.68,143.48c-0.47,0.72-0.84,1.47-1.06,2.15"/>
		</g>
		<g id="SPLINE_14_">
			<path class="st1" d="M382.62,145.63c-0.53,1.55-0.64,3.22-0.39,4.78"/>
		</g>
		<g id="SPLINE_13_">
			<path class="st1" d="M382.75,152.28c0.39,1,0.95,1.95,1.6,2.72"/>
		</g>
		<g id="SPLINE_12_">
			<path class="st1" d="M384.35,155.01c2.57,3.24,8.67,6.53,13.9,7.55"/>
		</g>
		<g id="SPLINE_11_">
			<path class="st1" d="M398.25,162.55c2.84,0.58,5.56,0.66,7.88,0.31"/>
		</g>
		<g id="SPLINE_7_">
			<path class="st1" d="M406.76,134.78c-1.66-0.3-6.83-0.61-10.66,0.75"/>
		</g>
	</g>
	
		<rect x="422.39" y="132.74" transform="matrix(-1 -1.224647e-16 1.224647e-16 -1 859.9161 297.5495)" class="st1" width="15.13" height="32.06"/>
	<path class="st1" d="M384.32,148.78c0-8.39,13.06-12.11,19.75-12.11c6.69,0,13.2,5.42,13.2,12.11c0,6.69-6.51,12.11-13.2,12.11
		C397.38,160.88,384.32,157.17,384.32,148.78z"/>
</g>
<g>
	<path class="st1" d="M258.28,87.46c0.97,0,1.76-0.79,1.76-1.76c0-0.97-0.79-1.76-1.76-1.76s-1.76,0.79-1.76,1.76
		C256.52,86.67,257.31,87.46,258.28,87.46L258.28,87.46z"/>
	
		<rect x="202.76" y="104.7" transform="matrix(-1.836970e-16 1 -1 -1.836970e-16 387.6819 -128.888)" class="st1" width="111.04" height="49.39"/>
	<path class="st1" d="M237.54,161.53V86.93c0-5.15,4.17-9.32,9.32-9.32h22.86c5.15,0,9.32,4.17,9.32,9.32v74.61
		c0,11.46-9.29,20.75-20.75,20.75h0C246.83,182.28,237.54,172.99,237.54,161.53z"/>
</g>
<g>
	<g id="ELLIPSE_1_">
		<path class="st1" d="M291.22,222.12c1.27,0,2.31-1.03,2.31-2.31s-1.03-2.31-2.31-2.31s-2.31,1.03-2.31,2.31
			S289.94,222.12,291.22,222.12L291.22,222.12z"/>
	</g>
	
		<rect x="233.59" y="203.67" transform="matrix(-1.836970e-16 1 -1 -1.836970e-16 511.0272 -29.9134)" class="st1" width="73.77" height="73.77"/>
	<path class="st1" d="M238.1,266.42V214.7c0-3.59,2.91-6.51,6.51-6.51h51.72c3.59,0,6.51,2.91,6.51,6.51v51.72
		c0,3.59-2.91,6.51-6.51,6.51h-51.72C241.02,272.92,238.1,270.01,238.1,266.42z"/>
</g>
<g>
	<g>
		<g id="CIRCLE_1_">
			<path class="st1" d="M131.34,263.55c0-2.43,1.97-4.39,4.39-4.39c2.43,0,4.39,1.97,4.39,4.39c0,2.43-1.97,4.39-4.39,4.39
				C133.3,267.95,131.34,265.98,131.34,263.55L131.34,263.55z"/>
		</g>
		<g id="CIRCLE_2_">
			<path class="st1" d="M144.7,263.55c0-2.43,1.97-4.39,4.39-4.39c2.43,0,4.39,1.97,4.39,4.39c0,2.43-1.97,4.39-4.39,4.39
				C146.67,267.95,144.7,265.98,144.7,263.55L144.7,263.55z"/>
		</g>
		<g id="CIRCLE_4_">
			<path class="st1" d="M131.34,250.23c0-2.43,1.97-4.39,4.39-4.39c2.43,0,4.39,1.97,4.39,4.39c0,2.43-1.97,4.39-4.39,4.39
				C133.3,254.62,131.34,252.66,131.34,250.23L131.34,250.23z"/>
		</g>
		<g id="CIRCLE_3_">
			<path class="st1" d="M144.7,250.23c0-2.43,1.97-4.39,4.39-4.39c2.43,0,4.39,1.97,4.39,4.39c0,2.43-1.97,4.39-4.39,4.39
				C146.67,254.62,144.7,252.66,144.7,250.23L144.7,250.23z"/>
		</g>
	</g>
	<rect x="126.97" y="241.45" class="st1" width="34.8" height="30.88"/>
	<line class="st1" x1="157.85" y1="272.34" x2="157.85" y2="241.45"/>
</g>
</svg>
