<?xml version="1.0" encoding="utf-8"?>
<!-- Generator: Adobe Illustrator 25.2.1, SVG Export Plug-In . SVG Version: 6.00 Build 0)  -->
<svg version="1.1" id="HATCH_x5F_18" xmlns="http://www.w3.org/2000/svg" xmlns:xlink="http://www.w3.org/1999/xlink" x="0px"
	 y="0px" viewBox="0 0 467.7 135.3" style="enable-background:new 0 0 467.7 135.3;" xml:space="preserve">
<style type="text/css">
	.st0{fill-rule:evenodd;clip-rule:evenodd;fill:none;}
	.st1{clip-path:url(#SVGID_2_);fill:none;stroke:#221F1F;stroke-width:0.5;stroke-linejoin:round;}
	.st2{fill:none;stroke:#231F20;stroke-linecap:round;stroke-linejoin:round;stroke-miterlimit:10;}
	.st3{fill:none;stroke:#000000;stroke-linecap:round;stroke-linejoin:round;stroke-miterlimit:10;}
	.st4{fill-rule:evenodd;clip-rule:evenodd;fill:#231F20;stroke:#231F20;stroke-miterlimit:10;}
	.st5{fill-rule:evenodd;clip-rule:evenodd;fill:url(#SVGID_3_);}
	.st6{fill-rule:evenodd;clip-rule:evenodd;fill:url(#SVGID_4_);}
	.st7{fill-rule:evenodd;clip-rule:evenodd;fill:url(#SVGID_5_);}
</style>
<pattern  x="-616.5" y="918.8" width="72" height="72" patternUnits="userSpaceOnUse" id="diagonal_cross_hatch" viewBox="6.2 -86.2 72 72" style="overflow:visible;">
	<g>
		<rect x="6.2" y="-86.2" class="st0" width="72" height="72"/>
		<g>
			<defs>
				<rect id="SVGID_1_" x="6.2" y="-86.2" width="72" height="72"/>
			</defs>
			<clipPath id="SVGID_2_">
				<use xlink:href="#SVGID_1_"  style="overflow:visible;"/>
			</clipPath>
			<line class="st1" x1="0.2" y1="-74.2" x2="18.2" y2="-92.2"/>
			<line class="st1" x1="0.2" y1="-68.2" x2="24.2" y2="-92.2"/>
			<line class="st1" x1="0.2" y1="-62.2" x2="30.2" y2="-92.2"/>
			<line class="st1" x1="0.2" y1="-56.2" x2="36.2" y2="-92.2"/>
			<line class="st1" x1="0.2" y1="-50.2" x2="42.2" y2="-92.2"/>
			<line class="st1" x1="0.2" y1="-44.2" x2="48.2" y2="-92.2"/>
			<line class="st1" x1="0.2" y1="-38.2" x2="54.2" y2="-92.2"/>
			<line class="st1" x1="0.2" y1="-32.2" x2="60.2" y2="-92.2"/>
			<line class="st1" x1="0.2" y1="-26.2" x2="66.2" y2="-92.2"/>
			<line class="st1" x1="0.2" y1="-20.2" x2="72.2" y2="-92.2"/>
			<line class="st1" x1="0.2" y1="-14.2" x2="78.2" y2="-92.2"/>
			<line class="st1" x1="0.2" y1="-8.2" x2="84.2" y2="-92.2"/>
			<line class="st1" x1="6.2" y1="-8.2" x2="84.2" y2="-86.2"/>
			<line class="st1" x1="12.2" y1="-8.2" x2="84.2" y2="-80.2"/>
			<line class="st1" x1="18.2" y1="-8.2" x2="84.2" y2="-74.2"/>
			<line class="st1" x1="24.2" y1="-8.2" x2="84.2" y2="-68.2"/>
			<line class="st1" x1="30.2" y1="-8.2" x2="84.2" y2="-62.2"/>
			<line class="st1" x1="36.2" y1="-8.2" x2="84.2" y2="-56.2"/>
			<line class="st1" x1="42.2" y1="-8.2" x2="84.2" y2="-50.2"/>
			<line class="st1" x1="48.2" y1="-8.2" x2="84.2" y2="-44.2"/>
			<line class="st1" x1="54.2" y1="-8.2" x2="84.2" y2="-38.2"/>
			<line class="st1" x1="52.2" y1="-0.2" x2="94.2" y2="-42.2"/>
			<line class="st1" x1="58.2" y1="-0.2" x2="94.2" y2="-36.2"/>
			<line class="st1" x1="64.2" y1="-0.2" x2="94.2" y2="-30.2"/>
		</g>
	</g>
</pattern>
<g>
	<g id="LINE_47_">
		<g>
			<line class="st2" x1="28.3" y1="31.4" x2="439.6" y2="31.4"/>
		</g>
	</g>
	<g id="LINE_48_">
		<g>
			<line class="st2" x1="28.3" y1="42.3" x2="439.6" y2="42.3"/>
		</g>
	</g>
	<g id="LINE_51_">
		<line class="st2" x1="439.6" y1="31.4" x2="439.6" y2="42.3"/>
	</g>
	<g id="LINE_54_">
		<g>
			<line class="st2" x1="28.3" y1="31.4" x2="28.3" y2="42.4"/>
		</g>
	</g>
	<g id="POLYLINE_3_">
		<g>
			<rect x="28.3" y="33.3" class="st2" width="411.3" height="7.1"/>
		</g>
	</g>
</g>
<g>
	<g id="LINE">
		<g>
			<line class="st2" x1="28.3" y1="93.2" x2="439.6" y2="93.2"/>
		</g>
	</g>
	<g id="LINE_1_">
		<g>
			<line class="st2" x1="28.3" y1="82.3" x2="439.6" y2="82.3"/>
		</g>
	</g>
	<g id="LINE_42_">
		<g>
			<line class="st2" x1="28.3" y1="104.1" x2="439.6" y2="104.1"/>
		</g>
	</g>
	<g id="LINE_43_">
		<g>
			<line class="st2" x1="28.3" y1="93.2" x2="439.6" y2="93.2"/>
		</g>
	</g>
	<g id="LINE_44_">
		<g>
			<line class="st2" x1="28.3" y1="82.2" x2="28.3" y2="104.1"/>
		</g>
	</g>
	<g id="LINE_45_">
		<g>
			<line class="st2" x1="439.6" y1="82.3" x2="439.6" y2="104.1"/>
		</g>
	</g>
	<g id="POLYLINE_4_">
		<g>
			<rect x="28.3" y="84.2" class="st2" width="411.3" height="7.1"/>
		</g>
	</g>
	<g id="POLYLINE_5_">
		<g>
			<rect x="28.3" y="95.1" class="st2" width="411.3" height="7.1"/>
		</g>
	</g>
</g>
<g>
	<g>
		<g>
			<g>
				<g>
					<path class="st3" d="M133.3,55.9c-0.2-2.9-2.4-5-4.8-4.7c-2.1,0.2-3.8,2.2-4,4.7"/>
				</g>
				<g>
					<path class="st3" d="M131.4,68.7c0.2,2.7,2.1,4.7,4.4,4.7"/>
				</g>
				<g>
					<path class="st3" d="M122,73.4c2.3,0,4.2-2.1,4.4-4.7"/>
				</g>
				<g>
					<line class="st3" x1="131.4" y1="68.7" x2="133.3" y2="55.9"/>
				</g>
				<g>
					<line class="st3" x1="126.4" y1="68.7" x2="124.5" y2="55.9"/>
				</g>
				<g>
					<path class="st3" d="M92.3,55.9c-0.2-2.9-2.4-5-4.8-4.7c-2.1,0.2-3.8,2.2-4,4.7"/>
				</g>
				<g>
					<path class="st3" d="M90.4,68.6c0.2,2.7,2.1,4.7,4.4,4.7"/>
				</g>
				<g>
					<path class="st3" d="M81,73.4c2.3,0,4.2-2.1,4.4-4.7"/>
				</g>
				<g>
					<line class="st3" x1="90.4" y1="68.6" x2="92.3" y2="55.9"/>
				</g>
				<g>
					<line class="st3" x1="85.4" y1="68.6" x2="83.5" y2="55.9"/>
				</g>
				<g>
					<path class="st3" d="M106,55.9c-0.2-2.9-2.4-5-4.8-4.7c-2.1,0.2-3.8,2.2-4,4.7"/>
				</g>
				<g>
					<path class="st3" d="M104.2,68.6c0.2,2.7,2.1,4.7,4.4,4.7"/>
				</g>
				<g>
					<path class="st3" d="M94.8,73.4c2.3,0,4.2-2.1,4.4-4.7"/>
				</g>
				<g>
					<line class="st3" x1="104.2" y1="68.6" x2="106" y2="55.9"/>
				</g>
				<g>
					<line class="st3" x1="99.2" y1="68.6" x2="97.3" y2="55.9"/>
				</g>
				<g>
					<path class="st3" d="M78.5,55.9c-0.2-2.9-2.4-5-4.8-4.7c-2.1,0.2-3.8,2.2-4,4.7"/>
				</g>
				<g>
					<path class="st3" d="M76.6,68.6c0.2,2.7,2.1,4.7,4.4,4.7"/>
				</g>
				<g>
					<path class="st3" d="M67.2,73.4c2.3,0,4.2-2.1,4.4-4.7"/>
				</g>
				<g>
					<line class="st3" x1="76.6" y1="68.6" x2="78.5" y2="55.9"/>
				</g>
				<g>
					<line class="st3" x1="71.6" y1="68.6" x2="69.7" y2="55.9"/>
				</g>
				<g>
					<path class="st3" d="M188.4,55.9c-0.2-2.9-2.4-5-4.8-4.7c-2.1,0.2-3.8,2.2-4,4.7"/>
				</g>
				<g>
					<path class="st3" d="M186.5,68.7c0.2,2.7,2.1,4.7,4.4,4.7"/>
				</g>
				<g>
					<path class="st3" d="M177.1,73.4c2.3,0,4.2-2.1,4.4-4.7"/>
				</g>
				<g>
					<line class="st3" x1="186.5" y1="68.7" x2="188.4" y2="55.9"/>
				</g>
				<g>
					<line class="st3" x1="181.5" y1="68.7" x2="179.6" y2="55.9"/>
				</g>
				<g>
					<path class="st3" d="M160.8,55.9c-0.2-2.9-2.4-5-4.8-4.7c-2.1,0.2-3.8,2.2-4,4.7"/>
				</g>
				<g>
					<path class="st3" d="M159,68.7c0.2,2.7,2.1,4.7,4.4,4.7"/>
				</g>
				<g>
					<path class="st3" d="M149.6,73.4c2.3,0,4.2-2.1,4.4-4.7"/>
				</g>
				<g>
					<line class="st3" x1="159" y1="68.7" x2="160.8" y2="55.9"/>
				</g>
				<g>
					<line class="st3" x1="154" y1="68.7" x2="152.1" y2="55.9"/>
				</g>
				<g>
					<path class="st3" d="M174.6,55.9c-0.2-2.9-2.4-5-4.8-4.7c-2.1,0.2-3.8,2.2-4,4.7"/>
				</g>
				<g>
					<path class="st3" d="M172.7,68.7c0.2,2.7,2.1,4.7,4.4,4.7"/>
				</g>
				<g>
					<path class="st3" d="M163.3,73.4c2.3,0,4.2-2.1,4.4-4.7"/>
				</g>
				<g>
					<line class="st3" x1="172.7" y1="68.7" x2="174.6" y2="55.9"/>
				</g>
				<g>
					<line class="st3" x1="167.7" y1="68.7" x2="165.8" y2="55.9"/>
				</g>
				<g>
					<path class="st3" d="M147.1,55.9c-0.2-2.9-2.4-5-4.8-4.7c-2.1,0.2-3.8,2.2-4,4.7"/>
				</g>
				<g>
					<path class="st3" d="M145.2,68.7c0.2,2.7,2.1,4.7,4.4,4.7"/>
				</g>
				<g>
					<path class="st3" d="M135.8,73.4c2.3,0,4.2-2.1,4.4-4.7"/>
				</g>
				<g>
					<line class="st3" x1="145.2" y1="68.7" x2="147.1" y2="55.9"/>
				</g>
				<g>
					<line class="st3" x1="140.2" y1="68.7" x2="138.3" y2="55.9"/>
				</g>
				<g>
					<path class="st3" d="M257.3,55.9c-0.2-2.9-2.4-5-4.8-4.7c-2.1,0.2-3.8,2.2-4,4.7"/>
				</g>
				<g>
					<path class="st3" d="M255.4,68.7c0.2,2.7,2.1,4.7,4.4,4.7"/>
				</g>
				<g>
					<path class="st3" d="M246,73.4c2.3,0,4.2-2.1,4.4-4.7"/>
				</g>
				<g>
					<line class="st3" x1="255.4" y1="68.7" x2="257.3" y2="55.9"/>
				</g>
				<g>
					<line class="st3" x1="250.4" y1="68.7" x2="248.5" y2="55.9"/>
				</g>
				<g>
					<path class="st3" d="M271.1,55.9c-0.2-2.9-2.4-5-4.8-4.7c-2.1,0.2-3.8,2.2-4,4.7"/>
				</g>
				<g>
					<path class="st3" d="M269.2,68.7c0.2,2.7,2.1,4.7,4.4,4.7"/>
				</g>
				<g>
					<path class="st3" d="M259.8,73.4c2.3,0,4.2-2.1,4.4-4.7"/>
				</g>
				<g>
					<line class="st3" x1="269.2" y1="68.7" x2="271.1" y2="55.9"/>
				</g>
				<g>
					<line class="st3" x1="264.2" y1="68.7" x2="262.3" y2="55.9"/>
				</g>
				<g>
					<path class="st3" d="M229.7,55.9c-0.2-2.9-2.4-5-4.8-4.7c-2.1,0.2-3.8,2.2-4,4.7"/>
				</g>
				<g>
					<path class="st3" d="M227.8,68.7c0.2,2.7,2.1,4.7,4.4,4.7"/>
				</g>
				<g>
					<path class="st3" d="M218.5,73.4c2.3,0,4.2-2.1,4.4-4.7"/>
				</g>
				<g>
					<line class="st3" x1="227.8" y1="68.7" x2="229.7" y2="55.9"/>
				</g>
				<g>
					<line class="st3" x1="222.8" y1="68.7" x2="221" y2="55.9"/>
				</g>
				<g>
					<path class="st3" d="M243.5,55.9c-0.2-2.9-2.4-5-4.8-4.7c-2.1,0.2-3.8,2.2-4,4.7"/>
				</g>
				<g>
					<path class="st3" d="M241.6,68.7c0.2,2.7,2.1,4.7,4.4,4.7"/>
				</g>
				<g>
					<path class="st3" d="M232.2,73.4c2.3,0,4.2-2.1,4.4-4.7"/>
				</g>
				<g>
					<line class="st3" x1="241.6" y1="68.7" x2="243.5" y2="55.9"/>
				</g>
				<g>
					<line class="st3" x1="236.6" y1="68.7" x2="234.7" y2="55.9"/>
				</g>
				<g>
					<path class="st3" d="M202.2,55.9c-0.2-2.9-2.4-5-4.8-4.7c-2.1,0.2-3.8,2.2-4,4.7"/>
				</g>
				<g>
					<path class="st3" d="M200.3,68.7c0.2,2.7,2.1,4.7,4.4,4.7"/>
				</g>
				<g>
					<path class="st3" d="M190.9,73.4c2.3,0,4.2-2.1,4.4-4.7"/>
				</g>
				<g>
					<line class="st3" x1="200.3" y1="68.7" x2="202.2" y2="55.9"/>
				</g>
				<g>
					<line class="st3" x1="195.3" y1="68.7" x2="193.4" y2="55.9"/>
				</g>
				<g>
					<path class="st3" d="M215.9,55.9c-0.2-2.9-2.4-5-4.8-4.7c-2.1,0.2-3.8,2.2-4,4.7"/>
				</g>
				<g>
					<path class="st3" d="M214.1,68.7c0.2,2.7,2.1,4.7,4.4,4.7"/>
				</g>
				<g>
					<path class="st3" d="M204.7,73.4c2.3,0,4.2-2.1,4.4-4.7"/>
				</g>
				<g>
					<line class="st3" x1="214.1" y1="68.7" x2="215.9" y2="55.9"/>
				</g>
				<g>
					<line class="st3" x1="209.1" y1="68.7" x2="207.2" y2="55.9"/>
				</g>
				<g>
					<path class="st3" d="M312.4,55.9c-0.2-2.9-2.4-5-4.8-4.7c-2.1,0.2-3.8,2.2-4,4.7"/>
				</g>
				<g>
					<path class="st3" d="M310.5,68.7c0.2,2.7,2.1,4.7,4.4,4.7"/>
				</g>
				<g>
					<path class="st3" d="M301.1,73.4c2.3,0,4.2-2.1,4.4-4.7"/>
				</g>
				<g>
					<line class="st3" x1="310.5" y1="68.7" x2="312.4" y2="55.9"/>
				</g>
				<g>
					<line class="st3" x1="305.5" y1="68.7" x2="303.6" y2="55.9"/>
				</g>
				<g>
					<path class="st3" d="M284.8,55.9c-0.2-2.9-2.4-5-4.8-4.7c-2.1,0.2-3.8,2.2-4,4.7"/>
				</g>
				<g>
					<path class="st3" d="M282.9,68.7c0.2,2.7,2.1,4.7,4.4,4.7"/>
				</g>
				<g>
					<path class="st3" d="M273.6,73.4c2.3,0,4.2-2.1,4.4-4.7"/>
				</g>
				<g>
					<line class="st3" x1="282.9" y1="68.7" x2="284.8" y2="55.9"/>
				</g>
				<g>
					<line class="st3" x1="277.9" y1="68.7" x2="276.1" y2="55.9"/>
				</g>
				<g>
					<path class="st3" d="M298.6,55.9c-0.2-2.9-2.4-5-4.8-4.7c-2.1,0.2-3.8,2.2-4,4.7"/>
				</g>
				<g>
					<path class="st3" d="M296.7,68.7c0.2,2.7,2.1,4.7,4.4,4.7"/>
				</g>
				<g>
					<path class="st3" d="M287.3,73.4c2.3,0,4.2-2.1,4.4-4.7"/>
				</g>
				<g>
					<line class="st3" x1="296.7" y1="68.7" x2="298.6" y2="55.9"/>
				</g>
				<g>
					<line class="st3" x1="291.7" y1="68.7" x2="289.8" y2="55.9"/>
				</g>
				<g>
					<path class="st3" d="M326.2,55.9c-0.2-2.9-2.4-5-4.8-4.7c-2.1,0.2-3.8,2.2-4,4.7"/>
				</g>
				<g>
					<path class="st3" d="M324.3,68.7c0.2,2.7,2.1,4.7,4.4,4.7"/>
				</g>
				<g>
					<path class="st3" d="M314.9,73.4c2.3,0,4.2-2.1,4.4-4.7"/>
				</g>
				<g>
					<line class="st3" x1="324.3" y1="68.7" x2="326.2" y2="55.9"/>
				</g>
				<g>
					<line class="st3" x1="319.3" y1="68.7" x2="317.4" y2="55.9"/>
				</g>
				<g>
					<path class="st3" d="M339.9,55.9c-0.2-2.9-2.4-5-4.8-4.7c-2.1,0.2-3.8,2.2-4,4.7"/>
				</g>
				<g>
					<path class="st3" d="M338,68.7c0.2,2.7,2.1,4.7,4.4,4.7"/>
				</g>
				<g>
					<path class="st3" d="M328.7,73.4c2.3,0,4.2-2.1,4.4-4.7"/>
				</g>
				<g>
					<line class="st3" x1="338" y1="68.7" x2="339.9" y2="55.9"/>
				</g>
				<g>
					<line class="st3" x1="333" y1="68.7" x2="331.2" y2="55.9"/>
				</g>
				<g>
					<path class="st3" d="M119.8,55.9c-0.2-2.9-2.4-5-4.8-4.7c-2.1,0.2-3.8,2.2-4,4.7"/>
				</g>
				<g>
					<path class="st3" d="M117.9,68.6c0.2,2.7,2.1,4.7,4.4,4.7"/>
				</g>
				<g>
					<path class="st3" d="M108.6,73.4c2.3,0,4.2-2.1,4.4-4.7"/>
				</g>
				<g>
					<line class="st3" x1="117.9" y1="68.6" x2="119.8" y2="55.9"/>
				</g>
				<g>
					<line class="st3" x1="112.9" y1="68.6" x2="111.1" y2="55.9"/>
				</g>
				<g>
					<path class="st3" d="M353.7,55.9c-0.2-2.9-2.4-5-4.8-4.7c-2.1,0.2-3.8,2.2-4,4.7"/>
				</g>
				<g>
					<path class="st3" d="M351.8,68.7c0.2,2.7,2.1,4.7,4.4,4.7"/>
				</g>
				<g>
					<path class="st3" d="M342.4,73.4c2.3,0,4.2-2.1,4.4-4.7"/>
				</g>
				<g>
					<line class="st3" x1="351.8" y1="68.7" x2="353.7" y2="55.9"/>
				</g>
				<g>
					<line class="st3" x1="346.8" y1="68.7" x2="344.9" y2="55.9"/>
				</g>
				<g>
					<path class="st3" d="M367.5,55.9c-0.2-2.9-2.4-5-4.8-4.7c-2.1,0.2-3.8,2.2-4,4.7"/>
				</g>
				<g>
					<path class="st3" d="M365.6,68.7c0.2,2.7,2.1,4.7,4.4,4.7"/>
				</g>
				<g>
					<path class="st3" d="M356.2,73.4c2.3,0,4.2-2.1,4.4-4.7"/>
				</g>
				<g>
					<line class="st3" x1="365.6" y1="68.7" x2="367.5" y2="55.9"/>
				</g>
				<g>
					<line class="st3" x1="360.6" y1="68.7" x2="358.7" y2="55.9"/>
				</g>
				<g>
					<path class="st3" d="M381.3,55.9c-0.2-2.9-2.4-5-4.8-4.7c-2.1,0.2-3.8,2.2-4,4.7"/>
				</g>
				<g>
					<path class="st3" d="M379.4,68.7c0.2,2.7,2.1,4.7,4.4,4.7"/>
				</g>
				<g>
					<path class="st3" d="M370,73.4c2.3,0,4.2-2.1,4.4-4.7"/>
				</g>
				<g>
					<line class="st3" x1="379.4" y1="68.7" x2="381.3" y2="55.9"/>
				</g>
				<g>
					<line class="st3" x1="374.4" y1="68.7" x2="372.5" y2="55.9"/>
				</g>
				<g>
					<path class="st3" d="M395,55.9c-0.2-2.9-2.4-5-4.8-4.7c-2.1,0.2-3.8,2.2-4,4.7"/>
				</g>
				<g>
					<path class="st3" d="M393.1,68.7c0.2,2.7,2.1,4.7,4.4,4.7"/>
				</g>
				<g>
					<path class="st3" d="M383.8,73.4c2.3,0,4.2-2.1,4.4-4.7"/>
				</g>
				<g>
					<line class="st3" x1="393.1" y1="68.7" x2="395" y2="55.9"/>
				</g>
				<g>
					<line class="st3" x1="388.1" y1="68.7" x2="386.3" y2="55.9"/>
				</g>
			</g>
		</g>
	</g>
	<g>
		<g id="HATCH_4_">
			<polygon class="st4" points="34.7,75.9 52.8,75.9 52.8,73.5 59.2,73.5 59.2,82.3 28.3,82.3 28.3,42.3 59.2,42.3 59.2,51 52.8,51 
				52.8,48.7 34.7,48.7 			"/>
		</g>
		<g id="HATCH_5_">
			<polygon class="st4" points="415.2,75.9 433.2,75.9 433.2,73.5 439.6,73.5 439.6,82.3 408.8,82.3 408.8,42.3 439.6,42.3 
				439.6,51 433.2,51 433.2,48.7 415.2,48.7 			"/>
		</g>
	</g>
</g>
<g>
	<g id="HATCH_1_">
		<pattern  id="SVGID_3_" xlink:href="#diagonal_cross_hatch" patternTransform="matrix(1 0 0 1 61.1483 -30.4135)">
		</pattern>
		<rect x="28.2" y="33.2" class="st5" width="411.3" height="7.1"/>
	</g>
	<g id="HATCH_2_">
		<pattern  id="SVGID_4_" xlink:href="#diagonal_cross_hatch" patternTransform="matrix(1 0 0 1 61.1483 -30.4135)">
		</pattern>
		<rect x="28.2" y="84.2" class="st6" width="411.3" height="7.1"/>
	</g>
	<g id="HATCH_3_">
		<pattern  id="SVGID_5_" xlink:href="#diagonal_cross_hatch" patternTransform="matrix(1 0 0 1 61.1483 -30.4135)">
		</pattern>
		<rect x="28.3" y="95" class="st7" width="411.3" height="7.1"/>
	</g>
</g>
</svg>
