<?xml version="1.0" encoding="utf-8"?>
<!-- Generator: Adobe Illustrator 25.2.1, SVG Export Plug-In . SVG Version: 6.00 Build 0)  -->
<svg version="1.1" id="HATCH_x5F_18" xmlns="http://www.w3.org/2000/svg" xmlns:xlink="http://www.w3.org/1999/xlink" x="0px"
	 y="0px" viewBox="0 0 552.8 269.3" style="enable-background:new 0 0 552.8 269.3;" xml:space="preserve">
<style type="text/css">
	.st0{fill:none;}
	.st1{fill:#231F20;stroke:#231F20;stroke-width:0.5;stroke-miterlimit:10;}
	.st2{fill-rule:evenodd;clip-rule:evenodd;fill:none;}
	.st3{clip-path:url(#SVGID_2_);fill:none;stroke:#221F1F;stroke-width:0.5;stroke-linejoin:round;}
	.st4{fill:none;stroke:#231F20;stroke-linecap:round;stroke-linejoin:round;stroke-miterlimit:10;}
	.st5{fill:none;stroke:#231F20;stroke-width:0.75;stroke-linecap:round;stroke-linejoin:round;stroke-miterlimit:10;}
	.st6{fill:none;stroke:#000000;stroke-width:1.125;stroke-linecap:round;stroke-linejoin:round;stroke-miterlimit:10;}
	.st7{fill-rule:evenodd;clip-rule:evenodd;fill:url(#SVGID_3_);}
	.st8{fill-rule:evenodd;clip-rule:evenodd;fill:url(#SVGID_4_);}
	.st9{fill-rule:evenodd;clip-rule:evenodd;fill:url(#SVGID_5_);}
	.st10{fill-rule:evenodd;clip-rule:evenodd;fill:url(#SVGID_6_);}
	.st11{fill-rule:evenodd;clip-rule:evenodd;fill:url(#SVGID_7_);}
</style>
<pattern  x="-683.6" y="674.6" width="28.3" height="28.3" patternUnits="userSpaceOnUse" id="Masonry_crosshatch" viewBox="28.5 -56.9 28.3 28.3" style="overflow:visible;">
	<g>
		<rect x="28.5" y="-56.9" class="st0" width="28.3" height="28.3"/>
		<g>
			<line class="st1" x1="56.9" y1="-28.5" x2="85.2" y2="-0.2"/>
		</g>
		<g>
			<line class="st1" x1="28.5" y1="-28.5" x2="56.9" y2="-0.2"/>
			<line class="st1" x1="30.6" y1="-31" x2="59" y2="-2.7"/>
		</g>
		<g>
			<line class="st1" x1="0.2" y1="-28.5" x2="28.5" y2="-0.2"/>
			<line class="st1" x1="2.3" y1="-31" x2="30.6" y2="-2.7"/>
		</g>
		<g>
			<line class="st1" x1="56.9" y1="-56.9" x2="85.2" y2="-28.5"/>
		</g>
		<g>
			<line class="st1" x1="28.5" y1="-56.9" x2="56.9" y2="-28.5"/>
			<line class="st1" x1="30.6" y1="-59.4" x2="59" y2="-31"/>
		</g>
		<g>
			<line class="st1" x1="0.2" y1="-56.9" x2="28.5" y2="-28.5"/>
			<line class="st1" x1="2.3" y1="-59.4" x2="30.6" y2="-31"/>
		</g>
		<g>
			<line class="st1" x1="56.9" y1="-85.2" x2="85.2" y2="-56.9"/>
		</g>
		<g>
			<line class="st1" x1="28.5" y1="-85.2" x2="56.9" y2="-56.9"/>
		</g>
		<g>
			<line class="st1" x1="0.2" y1="-85.2" x2="28.5" y2="-56.9"/>
		</g>
	</g>
</pattern>
<pattern  x="-683.6" y="674.6" width="72" height="72" patternUnits="userSpaceOnUse" id="diagonal_cross_hatch" viewBox="6.2 -86.2 72 72" style="overflow:visible;">
	<g>
		<rect x="6.2" y="-86.2" class="st2" width="72" height="72"/>
		<g>
			<defs>
				<rect id="SVGID_1_" x="6.2" y="-86.2" width="72" height="72"/>
			</defs>
			<clipPath id="SVGID_2_">
				<use xlink:href="#SVGID_1_"  style="overflow:visible;"/>
			</clipPath>
			<line class="st3" x1="0.2" y1="-74.2" x2="18.2" y2="-92.2"/>
			<line class="st3" x1="0.2" y1="-68.2" x2="24.2" y2="-92.2"/>
			<line class="st3" x1="0.2" y1="-62.2" x2="30.2" y2="-92.2"/>
			<line class="st3" x1="0.2" y1="-56.2" x2="36.2" y2="-92.2"/>
			<line class="st3" x1="0.2" y1="-50.2" x2="42.2" y2="-92.2"/>
			<line class="st3" x1="0.2" y1="-44.2" x2="48.2" y2="-92.2"/>
			<line class="st3" x1="0.2" y1="-38.2" x2="54.2" y2="-92.2"/>
			<line class="st3" x1="0.2" y1="-32.2" x2="60.2" y2="-92.2"/>
			<line class="st3" x1="0.2" y1="-26.2" x2="66.2" y2="-92.2"/>
			<line class="st3" x1="0.2" y1="-20.2" x2="72.2" y2="-92.2"/>
			<line class="st3" x1="0.2" y1="-14.2" x2="78.2" y2="-92.2"/>
			<line class="st3" x1="0.2" y1="-8.2" x2="84.2" y2="-92.2"/>
			<line class="st3" x1="6.2" y1="-8.2" x2="84.2" y2="-86.2"/>
			<line class="st3" x1="12.2" y1="-8.2" x2="84.2" y2="-80.2"/>
			<line class="st3" x1="18.2" y1="-8.2" x2="84.2" y2="-74.2"/>
			<line class="st3" x1="24.2" y1="-8.2" x2="84.2" y2="-68.2"/>
			<line class="st3" x1="30.2" y1="-8.2" x2="84.2" y2="-62.2"/>
			<line class="st3" x1="36.2" y1="-8.2" x2="84.2" y2="-56.2"/>
			<line class="st3" x1="42.2" y1="-8.2" x2="84.2" y2="-50.2"/>
			<line class="st3" x1="48.2" y1="-8.2" x2="84.2" y2="-44.2"/>
			<line class="st3" x1="54.2" y1="-8.2" x2="84.2" y2="-38.2"/>
			<line class="st3" x1="52.2" y1="-0.2" x2="94.2" y2="-42.2"/>
			<line class="st3" x1="58.2" y1="-0.2" x2="94.2" y2="-36.2"/>
			<line class="st3" x1="64.2" y1="-0.2" x2="94.2" y2="-30.2"/>
		</g>
	</g>
</pattern>
<g>
	<g id="LINE_55_">
		<line class="st4" x1="28.3" y1="140.1" x2="524.4" y2="140.1"/>
	</g>
	<g id="LINE_56_">
		<line class="st4" x1="524.4" y1="54.4" x2="28.3" y2="54.4"/>
	</g>
	<g id="LINE_58_">
		<line class="st4" x1="524.4" y1="28.4" x2="524.4" y2="140.1"/>
	</g>
	<g id="LINE_60_">
		<line class="st4" x1="354.6" y1="54.4" x2="354.6" y2="140.1"/>
	</g>
	<g id="LINE_61_">
		<line class="st4" x1="198.1" y1="54.4" x2="198.1" y2="140.1"/>
	</g>
	<g id="LINE_62_">
		<line class="st4" x1="367.9" y1="54.4" x2="367.9" y2="140.1"/>
	</g>
	<g id="POLYLINE">
		<line class="st4" x1="184.9" y1="54.4" x2="184.9" y2="140.1"/>
		<line class="st4" x1="28.3" y1="140.1" x2="28.3" y2="28.4"/>
	</g>
	<g id="LINE_65_">
		<line class="st4" x1="28.3" y1="28.2" x2="524.4" y2="28.2"/>
	</g>
	<g id="POLYLINE_3_">
		<rect x="28.3" y="30.3" class="st4" width="496.1" height="21.9"/>
	</g>
</g>
<g>
	<g id="LINE_6_">
		<line class="st4" x1="28.3" y1="213.9" x2="524.4" y2="213.9"/>
	</g>
	<g>
		<g id="LINE_5_">
			<line class="st4" x1="28.3" y1="240" x2="524.4" y2="240"/>
		</g>
		<g id="LINE_7_">
			<line class="st4" x1="28.3" y1="213.9" x2="28.3" y2="240"/>
		</g>
		<g id="LINE_8_">
			<line class="st4" x1="524.4" y1="213.9" x2="524.4" y2="240"/>
		</g>
		<g id="POLYLINE_4_">
			<rect x="28.3" y="216" class="st4" width="496.1" height="21.9"/>
		</g>
	</g>
</g>
<g>
	<g>
		<g id="LINE_12_">
			<line class="st5" x1="28.3" y1="164.7" x2="67.5" y2="213.9"/>
		</g>
		<g id="LINE_13_">
			<line class="st5" x1="28.3" y1="213.9" x2="67.5" y2="164.7"/>
		</g>
	</g>
	<rect x="28.3" y="164.7" class="st4" width="39.2" height="49.2"/>
</g>
<g>
	<g>
		<g id="LINE_10_">
			<line class="st5" x1="485.2" y1="164.7" x2="524.4" y2="213.9"/>
		</g>
		<g id="LINE_9_">
			<line class="st5" x1="485.2" y1="213.9" x2="524.4" y2="164.7"/>
		</g>
	</g>
	<rect x="485.2" y="164.7" class="st4" width="39.2" height="49.2"/>
</g>
<g>
	<g>
		<g>
			<g>
				<g>
					<path class="st6" d="M151.4,186.8c-0.3-3.2-3-5.6-6-5.3c-2.7,0.2-4.8,2.5-5,5.3"/>
				</g>
				<g>
					<path class="st6" d="M149,201.2c0.3,3,2.7,5.3,5.5,5.3"/>
				</g>
				<g>
					<path class="st6" d="M137.2,206.5c2.9,0,5.3-2.3,5.5-5.3"/>
				</g>
				<g>
					<line class="st6" x1="149" y1="201.2" x2="151.4" y2="186.8"/>
				</g>
				<g>
					<line class="st6" x1="142.7" y1="201.2" x2="140.3" y2="186.8"/>
				</g>
				<g>
					<path class="st6" d="M99.6,186.8c-0.3-3.2-3-5.6-6-5.3c-2.7,0.2-4.8,2.5-5,5.3"/>
				</g>
				<g>
					<path class="st6" d="M97.2,201.1c0.3,3,2.7,5.3,5.5,5.3"/>
				</g>
				<g>
					<path class="st6" d="M85.4,206.5c2.9,0,5.3-2.3,5.5-5.3"/>
				</g>
				<g>
					<line class="st6" x1="97.2" y1="201.1" x2="99.6" y2="186.8"/>
				</g>
				<g>
					<line class="st6" x1="90.9" y1="201.1" x2="88.6" y2="186.8"/>
				</g>
				<g>
					<path class="st6" d="M117,186.8c-0.3-3.2-3-5.6-6-5.3c-2.7,0.2-4.8,2.5-5,5.3"/>
				</g>
				<g>
					<path class="st6" d="M114.6,201.1c0.3,3,2.7,5.3,5.5,5.3"/>
				</g>
				<g>
					<path class="st6" d="M102.8,206.5c2.9,0,5.3-2.3,5.5-5.3"/>
				</g>
				<g>
					<line class="st6" x1="114.6" y1="201.1" x2="117" y2="186.8"/>
				</g>
				<g>
					<line class="st6" x1="108.3" y1="201.1" x2="105.9" y2="186.8"/>
				</g>
				<g>
					<path class="st6" d="M82.2,186.8c-0.3-3.2-3-5.6-6-5.3c-2.7,0.2-4.8,2.5-5,5.3"/>
				</g>
				<g>
					<path class="st6" d="M79.9,201.1c0.3,3,2.7,5.3,5.5,5.3"/>
				</g>
				<g>
					<path class="st6" d="M68,206.5c2.9,0,5.3-2.3,5.5-5.3"/>
				</g>
				<g>
					<line class="st6" x1="79.9" y1="201.1" x2="82.2" y2="186.8"/>
				</g>
				<g>
					<line class="st6" x1="73.6" y1="201.1" x2="71.2" y2="186.8"/>
				</g>
				<g>
					<path class="st6" d="M220.9,186.8c-0.3-3.2-3-5.6-6-5.3c-2.7,0.2-4.8,2.5-5,5.3"/>
				</g>
				<g>
					<path class="st6" d="M218.5,201.2c0.3,3,2.7,5.3,5.5,5.3"/>
				</g>
				<g>
					<path class="st6" d="M206.7,206.5c2.9,0,5.3-2.3,5.5-5.3"/>
				</g>
				<g>
					<line class="st6" x1="218.5" y1="201.2" x2="220.9" y2="186.8"/>
				</g>
				<g>
					<line class="st6" x1="212.2" y1="201.2" x2="209.8" y2="186.8"/>
				</g>
				<g>
					<path class="st6" d="M186.1,186.8c-0.3-3.2-3-5.6-6-5.3c-2.7,0.2-4.8,2.5-5,5.3"/>
				</g>
				<g>
					<path class="st6" d="M183.8,201.2c0.3,3,2.7,5.3,5.5,5.3"/>
				</g>
				<g>
					<path class="st6" d="M171.9,206.5c2.9,0,5.3-2.3,5.5-5.3"/>
				</g>
				<g>
					<line class="st6" x1="183.8" y1="201.2" x2="186.1" y2="186.8"/>
				</g>
				<g>
					<line class="st6" x1="177.4" y1="201.2" x2="175.1" y2="186.8"/>
				</g>
				<g>
					<path class="st6" d="M203.5,186.8c-0.3-3.2-3-5.6-6-5.3c-2.7,0.2-4.8,2.5-5,5.3"/>
				</g>
				<g>
					<path class="st6" d="M201.1,201.2c0.3,3,2.7,5.3,5.5,5.3"/>
				</g>
				<g>
					<path class="st6" d="M189.3,206.5c2.9,0,5.3-2.3,5.5-5.3"/>
				</g>
				<g>
					<line class="st6" x1="201.1" y1="201.2" x2="203.5" y2="186.8"/>
				</g>
				<g>
					<line class="st6" x1="194.8" y1="201.2" x2="192.4" y2="186.8"/>
				</g>
				<g>
					<path class="st6" d="M168.8,186.8c-0.3-3.2-3-5.6-6-5.3c-2.7,0.2-4.8,2.5-5,5.3"/>
				</g>
				<g>
					<path class="st6" d="M166.4,201.2c0.3,3,2.7,5.3,5.5,5.3"/>
				</g>
				<g>
					<path class="st6" d="M154.5,206.5c2.9,0,5.3-2.3,5.5-5.3"/>
				</g>
				<g>
					<line class="st6" x1="166.4" y1="201.2" x2="168.8" y2="186.8"/>
				</g>
				<g>
					<line class="st6" x1="160.1" y1="201.2" x2="157.7" y2="186.8"/>
				</g>
				<g>
					<path class="st6" d="M307.8,186.8c-0.3-3.2-3-5.6-6-5.3c-2.7,0.2-4.8,2.5-5,5.3"/>
				</g>
				<g>
					<path class="st6" d="M305.4,201.2c0.3,3,2.7,5.3,5.5,5.3"/>
				</g>
				<g>
					<path class="st6" d="M293.6,206.5c2.9,0,5.3-2.3,5.5-5.3"/>
				</g>
				<g>
					<line class="st6" x1="305.4" y1="201.2" x2="307.8" y2="186.8"/>
				</g>
				<g>
					<line class="st6" x1="299.1" y1="201.2" x2="296.7" y2="186.8"/>
				</g>
				<g>
					<path class="st6" d="M325.2,186.8c-0.3-3.2-3-5.6-6-5.3c-2.7,0.2-4.8,2.5-5,5.3"/>
				</g>
				<g>
					<path class="st6" d="M322.8,201.2c0.3,3,2.7,5.3,5.5,5.3"/>
				</g>
				<g>
					<path class="st6" d="M310.9,206.5c2.9,0,5.3-2.3,5.5-5.3"/>
				</g>
				<g>
					<line class="st6" x1="322.8" y1="201.2" x2="325.2" y2="186.8"/>
				</g>
				<g>
					<line class="st6" x1="316.5" y1="201.2" x2="314.1" y2="186.8"/>
				</g>
				<g>
					<path class="st6" d="M273,186.8c-0.3-3.2-3-5.6-6-5.3c-2.7,0.2-4.8,2.5-5,5.3"/>
				</g>
				<g>
					<path class="st6" d="M270.7,201.2c0.3,3,2.7,5.3,5.5,5.3"/>
				</g>
				<g>
					<path class="st6" d="M258.8,206.5c2.9,0,5.3-2.3,5.5-5.3"/>
				</g>
				<g>
					<line class="st6" x1="270.7" y1="201.2" x2="273" y2="186.8"/>
				</g>
				<g>
					<line class="st6" x1="264.3" y1="201.2" x2="262" y2="186.8"/>
				</g>
				<g>
					<path class="st6" d="M290.4,186.8c-0.3-3.2-3-5.6-6-5.3c-2.7,0.2-4.8,2.5-5,5.3"/>
				</g>
				<g>
					<path class="st6" d="M288,201.2c0.3,3,2.7,5.3,5.5,5.3"/>
				</g>
				<g>
					<path class="st6" d="M276.2,206.5c2.9,0,5.3-2.3,5.5-5.3"/>
				</g>
				<g>
					<line class="st6" x1="288" y1="201.2" x2="290.4" y2="186.8"/>
				</g>
				<g>
					<line class="st6" x1="281.7" y1="201.2" x2="279.3" y2="186.8"/>
				</g>
				<g>
					<path class="st6" d="M238.3,186.8c-0.3-3.2-3-5.6-6-5.3c-2.7,0.2-4.8,2.5-5,5.3"/>
				</g>
				<g>
					<path class="st6" d="M235.9,201.2c0.3,3,2.7,5.3,5.5,5.3"/>
				</g>
				<g>
					<path class="st6" d="M224,206.5c2.9,0,5.3-2.3,5.5-5.3"/>
				</g>
				<g>
					<line class="st6" x1="235.9" y1="201.2" x2="238.3" y2="186.8"/>
				</g>
				<g>
					<line class="st6" x1="229.6" y1="201.2" x2="227.2" y2="186.8"/>
				</g>
				<g>
					<path class="st6" d="M255.7,186.8c-0.3-3.2-3-5.6-6-5.3c-2.7,0.2-4.8,2.5-5,5.3"/>
				</g>
				<g>
					<path class="st6" d="M253.3,201.2c0.3,3,2.7,5.3,5.5,5.3"/>
				</g>
				<g>
					<path class="st6" d="M241.4,206.5c2.9,0,5.3-2.3,5.5-5.3"/>
				</g>
				<g>
					<line class="st6" x1="253.3" y1="201.2" x2="255.7" y2="186.8"/>
				</g>
				<g>
					<line class="st6" x1="247" y1="201.2" x2="244.6" y2="186.8"/>
				</g>
				<g>
					<path class="st6" d="M377.3,186.8c-0.3-3.2-3-5.6-6-5.3c-2.7,0.2-4.8,2.5-5,5.3"/>
				</g>
				<g>
					<path class="st6" d="M374.9,201.2c0.3,3,2.7,5.3,5.5,5.3"/>
				</g>
				<g>
					<path class="st6" d="M363.1,206.5c2.9,0,5.3-2.3,5.5-5.3"/>
				</g>
				<g>
					<line class="st6" x1="374.9" y1="201.2" x2="377.3" y2="186.8"/>
				</g>
				<g>
					<line class="st6" x1="368.6" y1="201.2" x2="366.2" y2="186.8"/>
				</g>
				<g>
					<path class="st6" d="M342.5,186.8c-0.3-3.2-3-5.6-6-5.3c-2.7,0.2-4.8,2.5-5,5.3"/>
				</g>
				<g>
					<path class="st6" d="M340.2,201.2c0.3,3,2.7,5.3,5.5,5.3"/>
				</g>
				<g>
					<path class="st6" d="M328.3,206.5c2.9,0,5.3-2.3,5.5-5.3"/>
				</g>
				<g>
					<line class="st6" x1="340.2" y1="201.2" x2="342.5" y2="186.8"/>
				</g>
				<g>
					<line class="st6" x1="333.9" y1="201.2" x2="331.5" y2="186.8"/>
				</g>
				<g>
					<path class="st6" d="M359.9,186.8c-0.3-3.2-3-5.6-6-5.3c-2.7,0.2-4.8,2.5-5,5.3"/>
				</g>
				<g>
					<path class="st6" d="M357.5,201.2c0.3,3,2.7,5.3,5.5,5.3"/>
				</g>
				<g>
					<path class="st6" d="M345.7,206.5c2.9,0,5.3-2.3,5.5-5.3"/>
				</g>
				<g>
					<line class="st6" x1="357.5" y1="201.2" x2="359.9" y2="186.8"/>
				</g>
				<g>
					<line class="st6" x1="351.2" y1="201.2" x2="348.9" y2="186.8"/>
				</g>
				<g>
					<path class="st6" d="M394.7,186.8c-0.3-3.2-3-5.6-6-5.3c-2.7,0.2-4.8,2.5-5,5.3"/>
				</g>
				<g>
					<path class="st6" d="M392.3,201.2c0.3,3,2.7,5.3,5.5,5.3"/>
				</g>
				<g>
					<path class="st6" d="M380.5,206.5c2.9,0,5.3-2.3,5.5-5.3"/>
				</g>
				<g>
					<line class="st6" x1="392.3" y1="201.2" x2="394.7" y2="186.8"/>
				</g>
				<g>
					<line class="st6" x1="386" y1="201.2" x2="383.6" y2="186.8"/>
				</g>
				<g>
					<path class="st6" d="M412.1,186.8c-0.3-3.2-3-5.6-6-5.3c-2.7,0.2-4.8,2.5-5,5.3"/>
				</g>
				<g>
					<path class="st6" d="M409.7,201.2c0.3,3,2.7,5.3,5.5,5.3"/>
				</g>
				<g>
					<path class="st6" d="M397.8,206.5c2.9,0,5.3-2.3,5.5-5.3"/>
				</g>
				<g>
					<line class="st6" x1="409.7" y1="201.2" x2="412.1" y2="186.8"/>
				</g>
				<g>
					<line class="st6" x1="403.4" y1="201.2" x2="401" y2="186.8"/>
				</g>
				<g>
					<path class="st6" d="M134.4,186.8c-0.3-3.2-3-5.6-6-5.3c-2.7,0.2-4.8,2.5-5,5.3"/>
				</g>
				<g>
					<path class="st6" d="M132,201.1c0.3,3,2.7,5.3,5.5,5.3"/>
				</g>
				<g>
					<path class="st6" d="M120.2,206.5c2.9,0,5.3-2.3,5.5-5.3"/>
				</g>
				<g>
					<line class="st6" x1="132" y1="201.1" x2="134.4" y2="186.8"/>
				</g>
				<g>
					<line class="st6" x1="125.7" y1="201.1" x2="123.3" y2="186.8"/>
				</g>
				<g>
					<path class="st6" d="M429.4,186.8c-0.3-3.2-3-5.6-6-5.3c-2.7,0.2-4.8,2.5-5,5.3"/>
				</g>
				<g>
					<path class="st6" d="M427.1,201.2c0.3,3,2.7,5.3,5.5,5.3"/>
				</g>
				<g>
					<path class="st6" d="M415.2,206.5c2.9,0,5.3-2.3,5.5-5.3"/>
				</g>
				<g>
					<line class="st6" x1="427.1" y1="201.2" x2="429.4" y2="186.8"/>
				</g>
				<g>
					<line class="st6" x1="420.8" y1="201.2" x2="418.4" y2="186.8"/>
				</g>
				<g>
					<path class="st6" d="M446.8,186.8c-0.3-3.2-3-5.6-6-5.3c-2.7,0.2-4.8,2.5-5,5.3"/>
				</g>
				<g>
					<path class="st6" d="M444.4,201.2c0.3,3,2.7,5.3,5.5,5.3"/>
				</g>
				<g>
					<path class="st6" d="M432.6,206.5c2.9,0,5.3-2.3,5.5-5.3"/>
				</g>
				<g>
					<line class="st6" x1="444.4" y1="201.2" x2="446.8" y2="186.8"/>
				</g>
				<g>
					<line class="st6" x1="438.1" y1="201.2" x2="435.8" y2="186.8"/>
				</g>
				<g>
					<path class="st6" d="M464.2,186.8c-0.3-3.2-3-5.6-6-5.3c-2.7,0.2-4.8,2.5-5,5.3"/>
				</g>
				<g>
					<path class="st6" d="M461.8,201.2c0.3,3,2.7,5.3,5.5,5.3"/>
				</g>
				<g>
					<path class="st6" d="M450,206.5c2.9,0,5.3-2.3,5.5-5.3"/>
				</g>
				<g>
					<line class="st6" x1="461.8" y1="201.2" x2="464.2" y2="186.8"/>
				</g>
				<g>
					<line class="st6" x1="455.5" y1="201.2" x2="453.1" y2="186.8"/>
				</g>
				<g>
					<path class="st6" d="M481.6,186.8c-0.3-3.2-3-5.6-6-5.3c-2.7,0.2-4.8,2.5-5,5.3"/>
				</g>
				<g>
					<path class="st6" d="M479.2,201.2c0.3,3,2.7,5.3,5.5,5.3"/>
				</g>
				<g>
					<path class="st6" d="M467.4,206.5c2.9,0,5.3-2.3,5.5-5.3"/>
				</g>
				<g>
					<line class="st6" x1="479.2" y1="201.2" x2="481.6" y2="186.8"/>
				</g>
				<g>
					<line class="st6" x1="472.9" y1="201.2" x2="470.5" y2="186.8"/>
				</g>
			</g>
		</g>
	</g>
</g>
<g>
	<g id="HATCH">
		<pattern  id="SVGID_3_" xlink:href="#diagonal_cross_hatch" patternTransform="matrix(1 0 0 1 40.3599 -69.2445)">
		</pattern>
		<rect x="28.3" y="54.4" class="st7" width="156.5" height="85.8"/>
	</g>
	<g id="HATCH_1_">
		<pattern  id="SVGID_4_" xlink:href="#diagonal_cross_hatch" patternTransform="matrix(1 0 0 1 40.3599 -69.2445)">
		</pattern>
		<rect x="198.1" y="54.4" class="st8" width="156.5" height="85.8"/>
	</g>
	<g id="HATCH_2_">
		<pattern  id="SVGID_5_" xlink:href="#diagonal_cross_hatch" patternTransform="matrix(1 0 0 1 40.3599 -69.2445)">
		</pattern>
		<rect x="367.9" y="54.4" class="st9" width="156.5" height="85.8"/>
	</g>
</g>
<g>
	<g id="HATCH_3_">
		<pattern  id="SVGID_6_" xlink:href="#Masonry_crosshatch" patternTransform="matrix(1 0 0 1 37.9987 93.3082)">
		</pattern>
		<rect x="28.3" y="30.3" class="st10" width="496.1" height="21.9"/>
	</g>
	<g id="HATCH_4_">
		<pattern  id="SVGID_7_" xlink:href="#Masonry_crosshatch" patternTransform="matrix(1 0 0 1 37.9987 93.3082)">
		</pattern>
		<rect x="28.3" y="216" class="st11" width="496.1" height="21.9"/>
	</g>
</g>
</svg>
