<?xml version="1.0" encoding="utf-8"?>
<!-- Generator: Adobe Illustrator 25.2.1, SVG Export Plug-In . SVG Version: 6.00 Build 0)  -->
<svg version="1.1" xmlns="http://www.w3.org/2000/svg" xmlns:xlink="http://www.w3.org/1999/xlink" x="0px" y="0px"
	 viewBox="0 0 552.8 237.8" style="enable-background:new 0 0 552.8 237.8;" xml:space="preserve">
<style type="text/css">
	.st0{fill-rule:evenodd;clip-rule:evenodd;fill:none;}
	.st1{clip-path:url(#SVGID_2_);fill:none;stroke:#221F1F;stroke-width:0.5;stroke-linejoin:round;}
	.st2{fill-rule:evenodd;clip-rule:evenodd;fill:url(#SVGID_3_);}
	.st3{fill-rule:evenodd;clip-rule:evenodd;fill:url(#SVGID_4_);}
	.st4{fill:#231F20;}
	.st5{font-family:'ArialMT';}
	.st6{font-size:12px;}
	.st7{fill:none;stroke:#231F20;stroke-width:0.3072;stroke-miterlimit:10;}
	.st8{fill:none;stroke:#231F20;stroke-width:0.25;stroke-miterlimit:10;}
	.st9{font-family:'Arial-BoldMT';}
	.st10{fill:none;stroke:#231F20;stroke-miterlimit:10;}
	.st11{fill:none;stroke:#231F20;stroke-linecap:round;stroke-miterlimit:10;}
</style>
<pattern  x="-574" y="965" width="72" height="72" patternUnits="userSpaceOnUse" id="diagonal_cross_hatch" viewBox="6.2 -86.2 72 72" style="overflow:visible;">
	<g>
		<rect x="6.2" y="-86.2" class="st0" width="72" height="72"/>
		<g>
			<defs>
				<rect id="SVGID_1_" x="6.2" y="-86.2" width="72" height="72"/>
			</defs>
			<clipPath id="SVGID_2_">
				<use xlink:href="#SVGID_1_"  style="overflow:visible;"/>
			</clipPath>
			<line class="st1" x1="0.2" y1="-74.2" x2="18.2" y2="-92.2"/>
			<line class="st1" x1="0.2" y1="-68.2" x2="24.2" y2="-92.2"/>
			<line class="st1" x1="0.2" y1="-62.2" x2="30.2" y2="-92.2"/>
			<line class="st1" x1="0.2" y1="-56.2" x2="36.2" y2="-92.2"/>
			<line class="st1" x1="0.2" y1="-50.2" x2="42.2" y2="-92.2"/>
			<line class="st1" x1="0.2" y1="-44.2" x2="48.2" y2="-92.2"/>
			<line class="st1" x1="0.2" y1="-38.2" x2="54.2" y2="-92.2"/>
			<line class="st1" x1="0.2" y1="-32.2" x2="60.2" y2="-92.2"/>
			<line class="st1" x1="0.2" y1="-26.2" x2="66.2" y2="-92.2"/>
			<line class="st1" x1="0.2" y1="-20.2" x2="72.2" y2="-92.2"/>
			<line class="st1" x1="0.2" y1="-14.2" x2="78.2" y2="-92.2"/>
			<line class="st1" x1="0.2" y1="-8.2" x2="84.2" y2="-92.2"/>
			<line class="st1" x1="6.2" y1="-8.2" x2="84.2" y2="-86.2"/>
			<line class="st1" x1="12.2" y1="-8.2" x2="84.2" y2="-80.2"/>
			<line class="st1" x1="18.2" y1="-8.2" x2="84.2" y2="-74.2"/>
			<line class="st1" x1="24.2" y1="-8.2" x2="84.2" y2="-68.2"/>
			<line class="st1" x1="30.2" y1="-8.2" x2="84.2" y2="-62.2"/>
			<line class="st1" x1="36.2" y1="-8.2" x2="84.2" y2="-56.2"/>
			<line class="st1" x1="42.2" y1="-8.2" x2="84.2" y2="-50.2"/>
			<line class="st1" x1="48.2" y1="-8.2" x2="84.2" y2="-44.2"/>
			<line class="st1" x1="54.2" y1="-8.2" x2="84.2" y2="-38.2"/>
			<line class="st1" x1="52.2" y1="-0.2" x2="94.2" y2="-42.2"/>
			<line class="st1" x1="58.2" y1="-0.2" x2="94.2" y2="-36.2"/>
			<line class="st1" x1="64.2" y1="-0.2" x2="94.2" y2="-30.2"/>
		</g>
	</g>
</pattern>
<g id="LINE_x5F_35">
</g>
<g id="HETCH">
	<g>
		<g id="HATCH_3_">
			<pattern  id="SVGID_3_" xlink:href="#diagonal_cross_hatch" patternTransform="matrix(1 0 0 1 94.4729 -118.8606)">
			</pattern>
			<rect x="199" y="86.8" class="st2" width="10.1" height="99.9"/>
		</g>
		<g id="HATCH_2_">
			<pattern  id="SVGID_4_" xlink:href="#diagonal_cross_hatch" patternTransform="matrix(1 0 0 1 94.4729 -118.8606)">
			</pattern>
			<rect x="342.9" y="53.1" class="st3" width="10.1" height="133.7"/>
		</g>
	</g>
	<text transform="matrix(1 0 0 1 223.9268 38.4268)" class="st4 st5 st6">Separating walls</text>
	<g>
		<g id="LEADER_3_">
			<g id="LEADER_4_">
				<g>
					<g>
						<g>
							<line class="st7" x1="204.1" y1="84.1" x2="204.1" y2="35.7"/>
							<g>
								<polygon class="st4" points="206.7,82.3 204.1,92.3 201.4,82.3 								"/>
							</g>
						</g>
					</g>
					<g>
						<line class="st8" x1="204.1" y1="35.7" x2="215.6" y2="35.7"/>
					</g>
				</g>
			</g>
		</g>
		<g id="LEADER_2_">
			<g id="LEADER_5_">
				<g>
					<g>
						<g>
							<line class="st8" x1="344.9" y1="50.8" x2="333" y2="35.7"/>
							<g>
								<polygon class="st4" points="345.7,48.2 349,56 342.2,50.9 								"/>
							</g>
						</g>
					</g>
					<g>
						<line class="st8" x1="333" y1="35.7" x2="318.3" y2="35.7"/>
					</g>
				</g>
			</g>
		</g>
	</g>
</g>
<g id="TEXT_x5F_25">
	<g id="MTEXT_4_">
		<g>
			<text transform="matrix(1 0 0 1 249.7032 205.1974)" class="st4 st9 st6">Elevation</text>
		</g>
	</g>
	<g>
		<g id="MTEXT">
			<g>
				<text transform="matrix(1 0 0 1 378.5783 171.7381)" class="st4 st5 st6">Class 1 building</text>
			</g>
		</g>
		<g id="MTEXT_1_">
			<g>
				<text transform="matrix(1 0 0 1 231.6268 171.7377)" class="st4 st5 st6">Class 1 building</text>
			</g>
		</g>
		<g id="MTEXT_3_">
			<g>
				<text transform="matrix(1 0 0 1 85.1632 171.7377)" class="st4 st5 st6">Class 1 building</text>
			</g>
		</g>
	</g>
</g>
<g id="LINE_x5F_50">
	<g>
		<g id="LINE">
			<g>
				<line class="st10" x1="199" y1="86.6" x2="209.1" y2="86.6"/>
			</g>
		</g>
		<g id="LINE_1_">
			<g>
				<line class="st10" x1="353" y1="52.8" x2="353" y2="186.5"/>
			</g>
		</g>
		<g id="LINE_2_">
			<g>
				<line class="st11" x1="488.8" y1="186.5" x2="488.8" y2="86.6"/>
			</g>
		</g>
		<g id="LINE_3_">
			<g>
				<line class="st10" x1="209.1" y1="86.6" x2="209.1" y2="186.5"/>
			</g>
		</g>
		<g id="LINE_4_">
			<g>
				<line class="st10" x1="342.9" y1="186.5" x2="342.9" y2="52.8"/>
			</g>
		</g>
		<g id="LINE_5_">
			<g>
				<line class="st11" x1="63.9" y1="86.6" x2="63.9" y2="186.5"/>
			</g>
		</g>
		<g id="LINE_6_">
			<g>
				<line class="st10" x1="199" y1="186.5" x2="199" y2="86.6"/>
			</g>
		</g>
		<g id="LINE_7_">
			<g>
				<line class="st11" x1="353" y1="86.6" x2="488.8" y2="86.6"/>
			</g>
		</g>
		<g id="LINE_8_">
			<g>
				<line class="st10" x1="209.1" y1="86.6" x2="342.9" y2="86.6"/>
			</g>
		</g>
		<g id="LINE_9_">
			<g>
				<line class="st10" x1="131.4" y1="52.8" x2="199" y2="86.6"/>
			</g>
		</g>
		<g id="LINE_10_">
			<g>
				<line class="st11" x1="63.9" y1="86.6" x2="131.4" y2="52.8"/>
			</g>
		</g>
		<g id="LINE_11_">
			<g>
				<line class="st11" x1="424" y1="52.8" x2="488.8" y2="86.6"/>
			</g>
		</g>
		<g id="LINE_12_">
			<g>
				<line class="st11" x1="209.1" y1="86.6" x2="274" y2="52.8"/>
			</g>
		</g>
		<g id="LINE_13_">
			<g>
				<line class="st10" x1="274" y1="52.8" x2="424" y2="52.8"/>
			</g>
		</g>
		<g id="LINE_14_">
			<g>
				<line class="st11" x1="63.9" y1="86.6" x2="199" y2="86.6"/>
			</g>
		</g>
		<g id="LINE_18_">
			<g>
				<line class="st10" x1="29.5" y1="186.5" x2="523.2" y2="186.5"/>
			</g>
		</g>
	</g>
</g>
<g id="_x30_">
</g>
<g id="LINE_18">
</g>
</svg>
