<?xml version="1.0" encoding="utf-8"?>
<!-- Generator: Adobe Illustrator 26.0.3, SVG Export Plug-In . SVG Version: 6.00 Build 0)  -->
<svg version="1.1" id="Layer_1" xmlns="http://www.w3.org/2000/svg" xmlns:xlink="http://www.w3.org/1999/xlink" x="0px" y="0px"
	 viewBox="0 0 552.76 282.78" style="enable-background:new 0 0 552.76 282.78;" xml:space="preserve">
<style type="text/css">
	.st0{font-family:'ArialMT';}
	.st1{font-size:12px;}
	.st2{fill:none;stroke:#000000;stroke-width:0.25;stroke-miterlimit:10;}
	.st3{fill:none;stroke:#000000;stroke-width:0.75;stroke-miterlimit:10;stroke-dasharray:11.7789,11.7789;}
	.st4{fill:none;stroke:#000000;stroke-width:1.5;stroke-miterlimit:10;}
	.st5{fill:none;stroke:#000000;stroke-miterlimit:10;}
</style>
<text transform="matrix(1 0 0 1 28.9973 38.2837)" class="st0 st1">Central support pole</text>
<text transform="matrix(1 0 0 1 375.0298 63.4873)"><tspan x="0" y="0" class="st0 st1">Point for the measurement </tspan><tspan x="0" y="14.4" class="st0 st1">of slope relationship – 7/10 </tspan><tspan x="0" y="28.8" class="st0 st1">of the unobstructed stair </tspan><tspan x="0" y="43.2" class="st0 st1">tread width, i.e. from the </tspan><tspan x="0" y="57.6" class="st0 st1">inner edge of the handrail</tspan></text>
<text transform="matrix(1 0 0 1 28.3499 95.1723)" class="st0 st1">Stair tread</text>
<text transform="matrix(1 0 0 1 58.1848 249.6723)" class="st0 st1">Handrail</text>
<text transform="matrix(1 0 0 1 375.0295 193.1723)"><tspan x="0" y="0" class="st0 st1">Measurement line for </tspan><tspan x="0" y="14.4" class="st0 st1">the slope relationship </tspan><tspan x="0" y="28.8" class="st0 st1">dimension</tspan></text>
<g>
	<line class="st2" x1="214" y1="83.86" x2="352" y2="83.86"/>
	<line class="st2" x1="214.5" y1="133.61" x2="370.5" y2="133.61"/>
	<line class="st2" x1="214" y1="43.11" x2="370.5" y2="43.11"/>
</g>
<g>
	<g>
		<g>
			<line class="st2" x1="345.5" y1="90.51" x2="345.5" y2="125.97"/>
			<g>
				<polygon points="343.32,91.99 345.5,83.86 347.68,91.99 				"/>
			</g>
			<g>
				<polygon points="343.32,124.48 345.5,132.61 347.68,124.48 				"/>
			</g>
		</g>
	</g>
	<g>
		<g>
			<line class="st2" x1="365" y1="49.76" x2="365" y2="126.97"/>
			<g>
				<polygon points="362.82,51.24 365,43.11 367.18,51.24 				"/>
			</g>
			<g>
				<polygon points="362.82,125.48 365,133.61 367.18,125.48 				"/>
			</g>
		</g>
	</g>
</g>
<circle cx="213.5" cy="143.11" r="9.5"/>
<g>
	<g>
		<circle class="st3" cx="213.5" cy="143.11" r="60"/>
	</g>
</g>
<g>
	<circle class="st4" cx="213.5" cy="143.11" r="100"/>
	<circle class="st5" cx="213.5" cy="143.11" r="109.5"/>
	<line class="st5" x1="104" y1="143.11" x2="323" y2="143.11"/>
	<line class="st5" x1="213.5" y1="33.61" x2="213.5" y2="252.61"/>
	<line class="st5" x1="136.07" y1="65.68" x2="290.91" y2="220.52"/>
	<line class="st5" x1="136.07" y1="220.54" x2="290.91" y2="65.7"/>
</g>
<g>
	<g>
		<g>
			<line class="st2" x1="89" y1="91.61" x2="106.53" y2="100.19"/>
			<g>
				<polygon points="104.24,101.49 112.5,103.11 106.15,97.58 				"/>
			</g>
		</g>
	</g>
	<g>
		<g>
			<polyline class="st2" points="144,35.11 166.5,35.11 207.34,128.52 			"/>
			<g>
				<polygon points="204.75,128.03 210,134.61 208.74,126.29 				"/>
			</g>
		</g>
	</g>
	<g>
		<g>
			<polyline class="st2" points="107,246.61 135,246.61 147.9,227.17 			"/>
			<g>
				<polygon points="148.9,229.61 151.58,221.64 145.27,227.2 				"/>
			</g>
		</g>
	</g>
	<g>
		<g>
			<polyline class="st2" points="369.5,188.61 329.5,188.61 276.62,164.4 			"/>
			<g>
				<polygon points="278.88,163.04 270.58,161.64 277.07,167 				"/>
			</g>
		</g>
	</g>
</g>
<text transform="matrix(0 -1 1 0 339.7302 119.9142)" class="st0 st1">7/10</text>
</svg>
