<?xml version="1.0" encoding="utf-8"?>
<!-- Generator: Adobe Illustrator 25.2.1, SVG Export Plug-In . SVG Version: 6.00 Build 0)  -->
<svg version="1.1" id="LINE_x5F_25" xmlns="http://www.w3.org/2000/svg" xmlns:xlink="http://www.w3.org/1999/xlink" x="0px"
	 y="0px" viewBox="0 0 552.8 142.7" style="enable-background:new 0 0 552.8 142.7;" xml:space="preserve">
<style type="text/css">
	.st0{fill-rule:evenodd;clip-rule:evenodd;fill:none;}
	.st1{clip-path:url(#SVGID_2_);fill:none;stroke:#221F1F;stroke-width:0.5;stroke-linejoin:round;}
	.st2{fill:none;stroke:#231F20;stroke-miterlimit:10;}
	.st3{fill:none;stroke:#231F20;stroke-linecap:round;stroke-miterlimit:10;}
	.st4{fill-rule:evenodd;clip-rule:evenodd;fill:url(#SVGID_3_);}
	.st5{fill-rule:evenodd;clip-rule:evenodd;fill:url(#SVGID_4_);}
	.st6{fill-rule:evenodd;clip-rule:evenodd;fill:url(#SVGID_5_);}
	.st7{fill-rule:evenodd;clip-rule:evenodd;fill:url(#SVGID_6_);}
</style>
<pattern  x="-223.6" y="571.3" width="72" height="72" patternUnits="userSpaceOnUse" id="diagonal_cross_hatch" viewBox="6.2 -86.2 72 72" style="overflow:visible;">
	<g>
		<rect x="6.2" y="-86.2" class="st0" width="72" height="72"/>
		<g>
			<defs>
				<rect id="SVGID_1_" x="6.2" y="-86.2" width="72" height="72"/>
			</defs>
			<clipPath id="SVGID_2_">
				<use xlink:href="#SVGID_1_"  style="overflow:visible;"/>
			</clipPath>
			<line class="st1" x1="0.2" y1="-74.2" x2="18.2" y2="-92.2"/>
			<line class="st1" x1="0.2" y1="-68.2" x2="24.2" y2="-92.2"/>
			<line class="st1" x1="0.2" y1="-62.2" x2="30.2" y2="-92.2"/>
			<line class="st1" x1="0.2" y1="-56.2" x2="36.2" y2="-92.2"/>
			<line class="st1" x1="0.2" y1="-50.2" x2="42.2" y2="-92.2"/>
			<line class="st1" x1="0.2" y1="-44.2" x2="48.2" y2="-92.2"/>
			<line class="st1" x1="0.2" y1="-38.2" x2="54.2" y2="-92.2"/>
			<line class="st1" x1="0.2" y1="-32.2" x2="60.2" y2="-92.2"/>
			<line class="st1" x1="0.2" y1="-26.2" x2="66.2" y2="-92.2"/>
			<line class="st1" x1="0.2" y1="-20.2" x2="72.2" y2="-92.2"/>
			<line class="st1" x1="0.2" y1="-14.2" x2="78.2" y2="-92.2"/>
			<line class="st1" x1="0.2" y1="-8.2" x2="84.2" y2="-92.2"/>
			<line class="st1" x1="6.2" y1="-8.2" x2="84.2" y2="-86.2"/>
			<line class="st1" x1="12.2" y1="-8.2" x2="84.2" y2="-80.2"/>
			<line class="st1" x1="18.2" y1="-8.2" x2="84.2" y2="-74.2"/>
			<line class="st1" x1="24.2" y1="-8.2" x2="84.2" y2="-68.2"/>
			<line class="st1" x1="30.2" y1="-8.2" x2="84.2" y2="-62.2"/>
			<line class="st1" x1="36.2" y1="-8.2" x2="84.2" y2="-56.2"/>
			<line class="st1" x1="42.2" y1="-8.2" x2="84.2" y2="-50.2"/>
			<line class="st1" x1="48.2" y1="-8.2" x2="84.2" y2="-44.2"/>
			<line class="st1" x1="54.2" y1="-8.2" x2="84.2" y2="-38.2"/>
			<line class="st1" x1="52.2" y1="-0.2" x2="94.2" y2="-42.2"/>
			<line class="st1" x1="58.2" y1="-0.2" x2="94.2" y2="-36.2"/>
			<line class="st1" x1="64.2" y1="-0.2" x2="94.2" y2="-30.2"/>
		</g>
	</g>
</pattern>
<g>
	<g id="LINE">
		<line class="st2" x1="28.3" y1="28.5" x2="524.4" y2="28.5"/>
	</g>
	<g id="LINE_1_">
		<line class="st2" x1="28.3" y1="114.2" x2="524.4" y2="114.2"/>
	</g>
	<g id="LINE_3_">
		<line class="st3" x1="28.3" y1="28.5" x2="28.3" y2="114.2"/>
	</g>
	<g id="LINE_4_">
		<line class="st2" x1="524.4" y1="28.5" x2="524.4" y2="114.2"/>
	</g>
	<g id="LINE_7_">
		<line class="st2" x1="269.8" y1="114.2" x2="269.8" y2="28.5"/>
	</g>
	<g id="LINE_8_">
		<line class="st2" x1="283" y1="114.2" x2="283" y2="28.5"/>
	</g>
	<g id="LINE_9_">
		<line class="st2" x1="142.4" y1="114.2" x2="142.4" y2="28.5"/>
	</g>
	<g id="LINE_10_">
		<line class="st2" x1="155.7" y1="114.2" x2="155.7" y2="28.5"/>
	</g>
	<g id="LINE_11_">
		<line class="st2" x1="410.3" y1="114.2" x2="410.3" y2="28.5"/>
	</g>
	<g id="LINE_12_">
		<line class="st2" x1="397.1" y1="114.2" x2="397.1" y2="28.5"/>
	</g>
</g>
<g>
	<g id="HATCH">
		<pattern  id="SVGID_3_" xlink:href="#diagonal_cross_hatch" patternTransform="matrix(1 0 0 1 -62.1831 -88.1711)">
		</pattern>
		<rect x="28.3" y="28.5" class="st4" width="114.1" height="85.8"/>
	</g>
	<g id="HATCH_1_">
		<pattern  id="SVGID_4_" xlink:href="#diagonal_cross_hatch" patternTransform="matrix(1 0 0 1 -62.1831 -88.2251)">
		</pattern>
		<rect x="155.7" y="28.4" class="st5" width="114.1" height="85.8"/>
	</g>
	<g id="HATCH_2_">
		<pattern  id="SVGID_5_" xlink:href="#diagonal_cross_hatch" patternTransform="matrix(1 0 0 1 -62.1831 -88.1711)">
		</pattern>
		<rect x="283" y="28.5" class="st6" width="114.1" height="85.8"/>
	</g>
	<g id="HATCH_3_">
		<pattern  id="SVGID_6_" xlink:href="#diagonal_cross_hatch" patternTransform="matrix(1 0 0 1 -62.1831 -88.7176)">
		</pattern>
		<rect x="410.3" y="27.9" class="st7" width="114.1" height="85.8"/>
	</g>
</g>
</svg>
