<svg xmlns="http://www.w3.org/2000/svg" viewBox="0 0 462.32 674.58"><defs><style>.cls-1,.cls-10,.cls-11,.cls-15,.cls-16,.cls-2,.cls-3,.cls-4,.cls-5,.cls-6,.cls-7,.cls-8,.cls-9{fill:none;stroke:#231f20;stroke-miterlimit:10;}.cls-1,.cls-11{stroke-width:0.75px;}.cls-1{stroke-dasharray:1 24;}.cls-2{stroke-width:0.5px;}.cls-4{stroke-width:2px;}.cls-5{stroke-dasharray:1.03 23.62;}.cls-6{stroke-dasharray:0.96 26.95;}.cls-7{stroke-dasharray:0.99 25.66;}.cls-8{stroke-dasharray:1.02 28.58;}.cls-9{stroke-dasharray:0.6 16.69;}.cls-10{stroke-width:0.25px;}.cls-11{stroke-dasharray:1 20;}.cls-12{font-size:12px;font-family:ArialMT, Arial;}.cls-12,.cls-14{fill:#231f20;}.cls-13{letter-spacing:-0.11em;}.cls-15{stroke-dasharray:0.94 26.3;}.cls-16{stroke-dasharray:0.97 27.27;}</style></defs><g id="Drawing_Layer" data-name="Drawing Layer"><g id="Image_B" data-name="Image B"><g id="Diagram"><line class="cls-1" x1="161.15" y1="470.52" x2="161.01" y2="590.61"/><line class="cls-1" x1="162.06" y1="483.29" x2="162.11" y2="598.92"/><line class="cls-2" x1="161.58" y1="468.09" x2="161.58" y2="598.92"/><polygon class="cls-3" points="123.14 396.7 115.65 410.72 112.92 425.65 103.9 437.1 103.9 443.48 116.4 427.15 119.12 411.57 127.47 396.68 123.14 396.7"/><polygon class="cls-3" points="77.08 517.27 72.96 517.73 74.2 511.64 83.71 492.37 83.71 501.88 77.83 513.01 77.08 517.27"/><path class="cls-3" d="M97.35,709l4.74-25.34,9.93-26.6a383.27,383.27,0,0,1,7.11-67.8l-3.63.45s-6.9,41.14-7.27,65.92l-8.89,26L93.16,710Z" transform="translate(-44.28 -60.27)"/><polygon class="cls-3" points="176.11 391.39 173.64 410.16 166.88 426.4 163.69 459.34 149.52 481.86 145.68 496.22 136.76 511.61 136.2 554.68 126.81 574.48 125.03 596.25 111.42 621.22 104.85 652.53 108.89 653.05 113.58 622.15 128.5 596.91 130.75 574.39 139.39 554.87 140.39 512.26 149.34 497.25 152.15 482.42 166.79 460.09 170.19 426.51 177.14 411.21 180.25 391.39 176.11 391.39"/><polyline class="cls-4" points="135.07 646.46 147.27 617.18 163.79 595.78 170.54 572.89 181.62 556.93 190.44 514.01 201.7 499.69 207.33 485.99 225.72 466.84 233.8 434.55 243.37 420.08 253.13 391.39"/><line class="cls-3" x1="359.82" y1="394.93" x2="359.82" y2="395.43"/><line class="cls-5" x1="359.91" y1="419.06" x2="360.52" y2="579.79"/><line class="cls-3" x1="360.56" y1="591.6" x2="360.56" y2="592.1"/><line class="cls-3" x1="260.76" y1="394.47" x2="260.76" y2="394.97"/><line class="cls-6" x1="260.86" y1="421.92" x2="261.48" y2="603.8"/><line class="cls-3" x1="261.53" y1="617.28" x2="261.53" y2="617.78"/><line class="cls-3" x1="307.93" y1="393.49" x2="307.93" y2="393.99"/><line class="cls-7" x1="308.02" y1="419.65" x2="308.62" y2="593.35"/><line class="cls-3" x1="308.67" y1="606.18" x2="308.67" y2="606.68"/><line class="cls-3" x1="213.2" y1="391.39" x2="213.2" y2="391.89"/><line class="cls-8" x1="213.29" y1="420.47" x2="213.87" y2="613.39"/><line class="cls-3" x1="213.91" y1="627.68" x2="213.91" y2="628.18"/><line class="cls-3" x1="161.67" y1="600.35" x2="161.68" y2="600.85"/><line class="cls-9" x1="162.04" y1="617.54" x2="162.22" y2="626.48"/><line class="cls-3" x1="162.4" y1="634.82" x2="162.41" y2="635.32"/><line class="cls-3" x1="18.24" y1="536.29" x2="18.58" y2="657.27"/><line class="cls-3" x1="140.14" y1="397.21" x2="140.64" y2="505.51"/><polygon class="cls-3" points="39.04 661.7 31.53 663.48 31.53 397.21 39.04 397.21 39.04 661.7"/><polygon class="cls-3" points="103.9 647.03 96.39 648.71 96.39 397.21 103.9 397.21 103.9 647.03"/><polyline class="cls-3" points="155.28 472.41 155.21 396.68 161.45 396.68 161.51 462.46"/><polygon class="cls-3" points="39.13 526.84 96.44 520.21 96.35 526.25 39.04 533.5 39.13 526.84"/><line class="cls-3" x1="39.06" y1="521.57" x2="83.71" y2="516.52"/><polygon class="cls-3" points="103.99 519.07 136.44 515.52 136.35 521.56 103.9 525.73 103.99 519.07"/><polygon class="cls-3" points="83.71 516.52 83.96 397.21 96.39 397.21 96.39 520.21 83.71 516.52"/><polyline class="cls-3" points="104.85 652.28 14.51 674.05 1.27 667.13 1.36 661.69 18.58 657.27 31.46 663.89"/><polyline class="cls-3" points="1.36 661.69 14.27 667.54 31.46 663.89 96.39 648.71 82.71 642.52 39.04 651.78"/><line class="cls-3" x1="83.71" y1="527.85" x2="83.95" y2="643.08"/><polyline class="cls-3" points="31.53 534.5 13.83 536.29 0.86 532.77 0.86 526.53 17.89 524.78 31.53 527.68"/><polyline class="cls-3" points="32.02 527.8 14.32 529.58 0.86 526.53"/><line class="cls-3" x1="103.9" y1="514.02" x2="136.44" y2="510.51"/><line class="cls-3" x1="14.51" y1="674.05" x2="14.51" y2="667.49"/><line class="cls-3" x1="18.41" y1="397.21" x2="18.89" y2="524.78"/><line class="cls-3" x1="13.83" y1="529.62" x2="13.83" y2="536.29"/><polyline class="cls-3" points="14.95 391.14 0.5 391.14 0.5 397.21 14.45 397.21"/><line class="cls-3" x1="103.9" y1="637.39" x2="107.73" y2="636.89"/><polyline class="cls-3" points="382.31 589.34 136.44 647.23 133.49 646.68 109.36 653.05"/><polyline class="cls-2" points="382.02 389.06 382.09 499.37 387.1 502.07 377.96 502.26 382.1 504.29 382.21 592.75"/><polyline class="cls-3" points="176.13 396.41 14.51 397.18 14.51 391.21 382.53 390.89"/><g id="Layer_7" data-name="Layer 7"><line class="cls-10" x1="196.64" y1="506.12" x2="382.09" y2="484.31"/><line class="cls-10" x1="190.44" y1="517.43" x2="382.04" y2="494.89"/><line class="cls-11" x1="381.97" y1="488.38" x2="191.56" y2="511.87"/><line class="cls-11" x1="373.89" y1="490.54" x2="191.68" y2="513.07"/><line class="cls-2" x1="382.04" y1="488.94" x2="191.68" y2="512.44"/></g></g></g><g id="Image_A" data-name="Image A"><g id="Index-2" data-name="Index"><g id="Layer_14" data-name="Layer 14"><text class="cls-12" transform="translate(409.61 188.39)"><tspan class="cls-13">T</tspan><tspan x="6" y="0">ape and </tspan><tspan x="0" y="14.4">set joints</tspan></text><text class="cls-12" transform="translate(296.76 254.46)">Stagger fixings</text><text class="cls-12" transform="translate(246.4 282.71)">Stagger sheet joints </text><text class="cls-12" transform="translate(181.7 78.42) rotate(-90)">200 mm</text><text class="cls-12" transform="translate(330.53 111.07) rotate(-90)">200 mm</text><text class="cls-12" transform="translate(278 78.42) rotate(-90)">300 mm</text><text class="cls-12" transform="translate(202.15 57.49) rotate(-90)">300 <tspan x="0" y="14.4">mm</tspan></text><line class="cls-10" x1="166.23" y1="95.97" x2="189.34" y2="95.97"/><line class="cls-10" x1="321.05" y1="116.99" x2="352.46" y2="116.99"/><line class="cls-10" x1="166.23" y1="120.78" x2="189.34" y2="120.78"/><line class="cls-10" x1="321.05" y1="139.59" x2="352.46" y2="139.59"/><line class="cls-10" x1="191.38" y1="6.48" x2="214.49" y2="6.48"/><line class="cls-10" x1="262.99" y1="115.32" x2="293" y2="115.32"/><line class="cls-10" x1="262.99" y1="88.37" x2="293" y2="88.37"/><line class="cls-10" x1="190.94" y1="34.53" x2="214.06" y2="34.53"/><line class="cls-10" x1="183.57" y1="35.81" x2="183.57" y2="88"/><polygon class="cls-14" points="180.66 86.02 183.57 96.86 186.47 86.02 180.66 86.02"/><line class="cls-10" x1="206.22" y1="15.34" x2="206.22" y2="25.67"/><polygon class="cls-14" points="203.31 17.32 206.22 6.48 209.12 17.32 203.31 17.32"/><polygon class="cls-14" points="203.31 23.69 206.22 34.53 209.12 23.69 203.31 23.69"/><line class="cls-10" x1="284.12" y1="32.02" x2="284.12" y2="81.65"/><polygon class="cls-14" points="281.21 79.67 284.12 90.51 287.02 79.67 281.21 79.67"/><line class="cls-10" x1="284.12" y1="138.1" x2="284.12" y2="122.79"/><polygon class="cls-14" points="287.02 124.77 284.12 113.93 281.21 124.77 287.02 124.77"/><line class="cls-10" x1="183.57" y1="181.82" x2="183.57" y2="129.64"/><polygon class="cls-14" points="186.47 131.62 183.57 120.78 180.66 131.62 186.47 131.62"/><line class="cls-10" x1="183.57" y1="120.78" x2="183.57" y2="96.86"/><line class="cls-10" x1="206.22" y1="63" x2="206.22" y2="34.53"/><line class="cls-10" x1="284.12" y1="114.74" x2="284.12" y2="88.37"/><line class="cls-10" x1="341.64" y1="58.59" x2="341.64" y2="108.23"/><polygon class="cls-14" points="338.74 106.25 341.64 117.09 344.55 106.25 338.74 106.25"/><line class="cls-10" x1="341.64" y1="163.15" x2="341.64" y2="147.84"/><polygon class="cls-14" points="344.55 149.82 341.64 138.98 338.74 149.82 344.55 149.82"/><line class="cls-10" x1="341.64" y1="140.18" x2="341.64" y2="117.58"/><polyline class="cls-10" points="166.41 167.2 222.54 279.73 241.46 279.15"/><polygon class="cls-14" points="164.69 170.27 162.45 159.28 169.89 167.68 164.69 170.27"/><line class="cls-10" x1="219.96" y1="226.69" x2="246.4" y2="268.6"/><polygon class="cls-14" points="218.56 229.92 215.23 219.2 223.47 226.82 218.56 229.92"/><line class="cls-10" x1="223.67" y1="198.48" x2="293" y2="249.08"/><polygon class="cls-14" points="223.56 202 216.51 193.26 226.98 197.3 223.56 202"/><line class="cls-10" x1="228.59" y1="173.79" x2="405.05" y2="193.26"/><polygon class="cls-14" points="230.24 176.9 219.78 172.82 230.88 171.12 230.24 176.9"/><line class="cls-10" x1="320.41" y1="152.87" x2="405.05" y2="193.26"/><polygon class="cls-14" points="320.95 156.35 312.42 149.06 323.45 151.1 320.95 156.35"/></g></g><g id="Diagram-2" data-name="Diagram"><polygon class="cls-3" points="123.71 8.64 116.21 22.66 113.49 37.59 104.46 49.03 104.46 55.41 116.96 39.09 119.68 23.51 128.03 8.62 123.71 8.64"/><polygon class="cls-3" points="77.64 129.21 73.52 129.67 74.76 123.58 84.27 104.31 84.27 113.82 78.39 124.95 77.64 129.21"/><path class="cls-3" d="M97.91,320.92l4.74-25.33,9.93-26.6a382.68,382.68,0,0,1,7.12-67.8l-3.64.45s-6.9,41.14-7.27,65.92l-8.89,26L93.73,321.9Z" transform="translate(-44.28 -60.27)"/><polygon class="cls-3" points="176.68 3.33 174.21 22.1 167.45 38.34 164.26 71.28 150.09 93.8 146.24 108.16 137.32 123.55 136.76 166.62 127.38 186.42 125.59 208.19 111.99 233.16 105.42 264.47 109.45 264.99 114.14 234.09 129.07 208.85 131.32 186.33 139.95 166.81 140.95 124.2 149.9 109.19 152.72 94.36 167.35 72.03 170.76 38.45 177.7 23.15 180.81 3.33 176.68 3.33"/><polyline class="cls-4" points="135.64 258.4 147.84 229.12 164.35 207.72 171.11 184.83 182.18 168.87 191 125.95 202.26 111.63 207.9 97.93 226.29 78.78 234.36 46.48 243.93 32.02 253.69 3.33"/><line class="cls-10" x1="219.78" y1="85.55" x2="219.78" y2="239.68"/><line class="cls-10" x1="314.38" y1="2.91" x2="314.38" y2="216.67"/><line class="cls-10" x1="304.12" y1="3.08" x2="304.12" y2="219.05"/><line class="cls-10" x1="209.77" y1="95.97" x2="209.77" y2="241.56"/><line class="cls-3" x1="360.38" y1="6.87" x2="360.39" y2="7.37"/><line class="cls-5" x1="360.48" y1="30.99" x2="361.08" y2="191.73"/><line class="cls-3" x1="361.13" y1="203.54" x2="361.13" y2="204.04"/><line class="cls-3" x1="261.32" y1="6.41" x2="261.33" y2="6.91"/><line class="cls-15" x1="261.42" y1="33.21" x2="262.03" y2="210.7"/><line class="cls-3" x1="262.08" y1="223.85" x2="262.08" y2="224.35"/><line class="cls-3" x1="213.77" y1="6.34" x2="213.77" y2="6.84"/><line class="cls-16" x1="214" y1="34.1" x2="214.36" y2="76.94"/><line class="cls-3" x1="214.47" y1="90.58" x2="214.48" y2="91.08"/><line class="cls-3" x1="162.24" y1="212.29" x2="162.25" y2="212.79"/><line class="cls-9" x1="162.6" y1="229.48" x2="162.79" y2="238.42"/><line class="cls-3" x1="162.96" y1="246.76" x2="162.97" y2="247.26"/><line class="cls-3" x1="18.8" y1="148.23" x2="19.14" y2="269.21"/><line class="cls-3" x1="140.7" y1="9.15" x2="141.2" y2="117.45"/><polygon class="cls-3" points="39.6 273.64 32.09 275.42 32.09 9.15 39.6 9.15 39.6 273.64"/><polygon class="cls-3" points="104.46 258.97 96.96 260.65 96.96 9.15 104.46 9.15 104.46 258.97"/><polyline class="cls-3" points="155.84 84.35 155.78 8.62 162.02 8.62 162.08 74.4"/><polygon class="cls-3" points="39.69 138.78 97 132.15 96.91 138.19 39.6 145.44 39.69 138.78"/><line class="cls-3" x1="39.62" y1="133.5" x2="84.28" y2="128.46"/><polygon class="cls-3" points="104.55 131 137 127.46 136.92 133.5 104.46 137.67 104.55 131"/><polygon class="cls-3" points="84.28 128.46 84.53 9.15 96.96 9.15 96.96 132.15 84.28 128.46"/><polyline class="cls-3" points="105.42 264.22 15.08 285.99 1.84 279.07 1.93 273.63 19.14 269.21 32.02 275.83"/><polyline class="cls-3" points="1.93 273.63 14.83 279.48 32.02 275.83 96.96 260.65 83.27 254.46 39.6 263.72"/><line class="cls-3" x1="84.27" y1="139.79" x2="84.51" y2="255.02"/><polyline class="cls-3" points="32.09 146.44 14.39 148.23 1.42 144.71 1.42 138.47 18.46 136.72 32.09 139.62"/><polyline class="cls-3" points="32.59 139.74 14.88 141.51 1.42 138.47"/><line class="cls-3" x1="104.46" y1="125.95" x2="137" y2="122.45"/><line class="cls-3" x1="15.08" y1="285.99" x2="15.08" y2="279.43"/><line class="cls-3" x1="18.97" y1="9.15" x2="19.46" y2="136.72"/><line class="cls-3" x1="14.39" y1="141.56" x2="14.39" y2="148.23"/><polyline class="cls-3" points="15.52 3.08 1.06 3.08 1.06 9.15 15.01 9.15"/><line class="cls-3" x1="104.46" y1="249.33" x2="108.3" y2="248.83"/><line class="cls-11" x1="308.32" y1="2.49" x2="308.13" y2="216.18"/><line class="cls-11" x1="309.43" y1="12.77" x2="309.5" y2="217.96"/><line class="cls-2" x1="308.87" y1="3.43" x2="308.87" y2="217.96"/><polyline class="cls-3" points="382.88 201.28 137 259.17 134.05 258.62 109.92 264.99"/><polyline class="cls-2" points="382.59 0 382.66 106.31 382.66 106.31 387.66 109.01 378.53 109.19 382.66 111.23 382.78 203.69"/><polyline class="cls-3" points="176.69 8.35 15.08 9.12 15.08 3.15 383.09 2.83"/><line class="cls-1" x1="213.98" y1="105.26" x2="213.81" y2="240.38"/><line class="cls-1" x1="215.34" y1="91.48" x2="215.12" y2="240.38"/><line class="cls-2" x1="214.49" y1="93.25" x2="214.49" y2="240.38"/><line class="cls-1" x1="161.28" y1="82.7" x2="161.13" y2="202.79"/><line class="cls-1" x1="162.19" y1="95.48" x2="162.24" y2="211.1"/><line class="cls-2" x1="161.7" y1="80.27" x2="161.7" y2="211.1"/></g></g></g></svg>