<?xml version="1.0" encoding="UTF-8"?>
<svg id="Drawing_Layer" data-name="Drawing Layer" xmlns="http://www.w3.org/2000/svg" viewBox="0 0 552.76 850.39">
  <defs>
    <style>
      .cls-1, .cls-2 {
        fill: none;
        stroke: #231f20;
        stroke-miterlimit: 10;
      }

      .cls-3 {
        fill: #fff;
      }

      .cls-2 {
        stroke-width: .25px;
      }

      .cls-4 {
        font-family: ArialMT, Arial;
        font-size: 12px;
      }

      .cls-4, .cls-5 {
        fill: #231f20;
      }
    </style>
  </defs>
  <g>
    <polyline class="cls-1" points="93.73 137.25 216.94 247.74 343.18 247.74 466.39 137.25"/>
    <rect class="cls-1" x="93.73" y="137.25" width="372.67" height="221.69"/>
    <polyline class="cls-1" points="93.73 358.94 216.94 247.74 343.18 247.74 466.39 358.94"/>
  </g>
  <text class="cls-4" transform="translate(260.56 116.85)"><tspan x="0" y="0">20 m</tspan></text>
  <g>
    <line class="cls-2" x1="93.73" y1="129.85" x2="93.73" y2="116.71"/>
    <line class="cls-2" x1="466.39" y1="129.85" x2="466.39" y2="116.71"/>
    <g>
      <line class="cls-2" x1="102.59" y1="123.28" x2="457.54" y2="123.28"/>
      <polygon class="cls-5" points="104.57 126.19 93.73 123.28 104.57 120.38 104.57 126.19"/>
      <polygon class="cls-5" points="455.55 126.19 466.39 123.28 455.55 120.38 455.55 126.19"/>
    </g>
  </g>
  <g>
    <line class="cls-2" x1="87.13" y1="358.94" x2="73.95" y2="358.94"/>
    <line class="cls-2" x1="87.13" y1="137.25" x2="73.95" y2="137.25"/>
    <g>
      <line class="cls-2" x1="80.54" y1="350.08" x2="80.54" y2="146.11"/>
      <polygon class="cls-5" points="83.45 348.1 80.54 358.94 77.64 348.1 83.45 348.1"/>
      <polygon class="cls-5" points="83.45 148.09 80.54 137.25 77.64 148.09 83.45 148.09"/>
    </g>
  </g>
  <text class="cls-4" transform="translate(45.02 248.1)"><tspan x="0" y="0">10 m</tspan></text>
  <g>
    <line class="cls-2" x1="86.38" y1="715.31" x2="73.19" y2="715.31"/>
    <line class="cls-2" x1="86.38" y1="501.81" x2="73.19" y2="501.81"/>
    <g>
      <line class="cls-2" x1="79.79" y1="706.45" x2="79.79" y2="510.67"/>
      <polygon class="cls-5" points="82.69 704.47 79.79 715.31 76.88 704.47 82.69 704.47"/>
      <polygon class="cls-5" points="82.69 512.65 79.79 501.81 76.88 512.65 82.69 512.65"/>
    </g>
  </g>
  <text class="cls-4" transform="translate(49 613.35)"><tspan x="0" y="0">10 m</tspan></text>
  <g>
    <line class="cls-2" x1="344.56" y1="715.37" x2="331.37" y2="715.37"/>
    <line class="cls-2" x1="344.56" y1="666.69" x2="331.37" y2="666.69"/>
    <g>
      <line class="cls-2" x1="337.97" y1="706.51" x2="337.97" y2="675.54"/>
      <polygon class="cls-5" points="340.87 704.53 337.97 715.37 335.06 704.53 340.87 704.53"/>
      <polygon class="cls-5" points="340.87 677.53 337.97 666.69 335.06 677.53 340.87 677.53"/>
    </g>
  </g>
  <g>
    <line class="cls-2" x1="299.75" y1="715.37" x2="286.56" y2="715.37"/>
    <line class="cls-2" x1="299.75" y1="666.69" x2="286.56" y2="666.69"/>
    <g>
      <line class="cls-2" x1="293.15" y1="706.51" x2="293.15" y2="675.54"/>
      <polygon class="cls-5" points="296.06 704.53 293.15 715.37 290.25 704.53 296.06 704.53"/>
      <polygon class="cls-5" points="296.06 677.53 293.15 666.69 290.25 677.53 296.06 677.53"/>
    </g>
  </g>
  <g>
    <line class="cls-2" x1="476" y1="715.37" x2="462.82" y2="715.37"/>
    <line class="cls-2" x1="476" y1="460.08" x2="462.82" y2="460.08"/>
    <g>
      <line class="cls-2" x1="469.41" y1="706.51" x2="469.41" y2="468.94"/>
      <polygon class="cls-5" points="472.32 704.53 469.41 715.37 466.51 704.53 472.32 704.53"/>
      <polygon class="cls-5" points="472.32 470.92 469.41 460.08 466.51 470.92 472.32 470.92"/>
    </g>
  </g>
  <text class="cls-4" transform="translate(476 592.8)"><tspan x="0" y="0">15 m</tspan></text>
  <g>
    <polygon class="cls-1" points="89.95 501.81 327.82 501.81 327.82 460.08 459.57 460.08 459.57 715.37 329.88 715.37 329.88 666.69 302.38 666.69 302.25 715.37 227.83 715.37 227.96 689.55 162.01 689.55 162.28 715.31 90.22 715.31 89.95 501.81"/>
    <polyline class="cls-1" points="327.82 460.08 395.64 527.79 395.64 715.37"/>
    <line class="cls-1" x1="395.64" y1="527.79" x2="459.57" y2="460.08"/>
    <polyline class="cls-1" points="327.82 501.81 387.26 582.9 329.88 666.69 302.38 666.69 228 582.9 387.26 582.9"/>
    <polyline class="cls-1" points="89.95 501.81 175.45 597.25 212.92 597.25 227.66 582.56"/>
    <polyline class="cls-1" points="124.95 715.31 124.95 656.24 175.45 597.25 212.92 597.25 263.88 654.88 263.88 715.37"/>
    <polyline class="cls-1" points="124.95 656.24 150.26 689.55 237.63 689.55 263.88 654.88"/>
  </g>
  <rect class="cls-3" x="340.43" y="475.03" width="22.53" height="13"/>
  <text class="cls-4" transform="translate(384.62 445.15)"><tspan x="0" y="0">5 m</tspan></text>
  <g>
    <line class="cls-2" x1="327.82" y1="456.01" x2="327.82" y2="442.86"/>
    <line class="cls-2" x1="459.57" y1="456.01" x2="459.57" y2="442.86"/>
    <g>
      <line class="cls-2" x1="336.68" y1="449.44" x2="450.72" y2="449.44"/>
      <polygon class="cls-5" points="338.67 452.34 327.82 449.44 338.67 446.53 338.67 452.34"/>
      <polygon class="cls-5" points="448.73 452.34 459.57 449.44 448.73 446.53 448.73 452.34"/>
    </g>
  </g>
  <text class="cls-4" transform="translate(386.29 737.34)"><tspan x="0" y="0">5 m</tspan></text>
  <g>
    <line class="cls-2" x1="329.77" y1="731.55" x2="329.77" y2="718.41"/>
    <line class="cls-2" x1="459.57" y1="731.55" x2="459.57" y2="718.41"/>
    <g>
      <line class="cls-2" x1="338.63" y1="724.98" x2="450.72" y2="724.98"/>
      <polygon class="cls-5" points="340.61 727.88 329.77 724.98 340.61 722.07 340.61 727.88"/>
      <polygon class="cls-5" points="448.73 727.88 459.57 724.98 448.73 722.07 448.73 727.88"/>
    </g>
  </g>
  <text class="cls-4" transform="translate(250.32 736.75)"><tspan x="0" y="0">4.5 m</tspan></text>
  <g>
    <line class="cls-2" x1="228" y1="731.59" x2="228" y2="718.44"/>
    <line class="cls-2" x1="302.62" y1="731.59" x2="302.62" y2="718.44"/>
    <g>
      <line class="cls-2" x1="236.86" y1="725.01" x2="293.76" y2="725.01"/>
      <polygon class="cls-5" points="238.85 727.92 228 725.01 238.85 722.11 238.85 727.92"/>
      <polygon class="cls-5" points="291.78 727.92 302.62 725.01 291.78 722.11 291.78 727.92"/>
    </g>
  </g>
  <g>
    <line class="cls-2" x1="161.92" y1="686.91" x2="161.92" y2="673.76"/>
    <line class="cls-2" x1="228" y1="686.91" x2="228" y2="673.76"/>
    <g>
      <line class="cls-2" x1="170.78" y1="680.33" x2="219.15" y2="680.33"/>
      <polygon class="cls-5" points="172.76 683.24 161.92 680.33 172.76 677.43 172.76 683.24"/>
      <polygon class="cls-5" points="217.16 683.24 228 680.33 217.16 677.43 217.16 683.24"/>
    </g>
  </g>
  <text class="cls-4" transform="translate(109.22 738.85)"><tspan x="0" y="0">4.5 m</tspan></text>
  <g>
    <line class="cls-2" x1="89.95" y1="731.79" x2="89.95" y2="718.64"/>
    <line class="cls-2" x1="161.8" y1="731.79" x2="161.8" y2="718.64"/>
    <g>
      <line class="cls-2" x1="98.81" y1="725.22" x2="152.94" y2="725.22"/>
      <polygon class="cls-5" points="100.79 728.12 89.95 725.22 100.79 722.31 100.79 728.12"/>
      <polygon class="cls-5" points="150.96 728.12 161.8 725.22 150.96 722.31 150.96 728.12"/>
    </g>
  </g>
  <text class="cls-4" transform="translate(196.35 487.07)"><tspan x="0" y="0">15 m</tspan></text>
  <g>
    <line class="cls-2" x1="89.95" y1="497.93" x2="89.95" y2="484.79"/>
    <g>
      <line class="cls-2" x1="98.81" y1="491.36" x2="318.97" y2="491.36"/>
      <polygon class="cls-5" points="100.79 494.27 89.95 491.36 100.79 488.46 100.79 494.27"/>
      <polygon class="cls-5" points="316.98 494.27 327.82 491.36 316.98 488.46 316.98 494.27"/>
    </g>
  </g>
  <g>
    <line class="cls-2" x1="302.62" y1="661.45" x2="302.62" y2="648.3"/>
    <line class="cls-2" x1="329.77" y1="661.45" x2="329.77" y2="648.3"/>
    <g>
      <line class="cls-2" x1="311.48" y1="654.88" x2="320.91" y2="654.88"/>
      <polygon class="cls-5" points="313.46 657.78 302.62 654.88 313.46 651.97 313.46 657.78"/>
      <polygon class="cls-5" points="318.93 657.78 329.77 654.88 318.93 651.97 318.93 657.78"/>
    </g>
  </g>
  <text class="cls-4" transform="translate(185.98 676.6)"><tspan x="0" y="0">4 m</tspan></text>
  <text class="cls-4" transform="translate(306.17 647.01)"><tspan x="0" y="0">2 m</tspan></text>
  <text class="cls-4" transform="translate(341.65 693.9)"><tspan x="0" y="0">3 m</tspan></text>
  <g>
    <line class="cls-2" x1="343.82" y1="501.81" x2="330.63" y2="501.81"/>
    <line class="cls-2" x1="343.82" y1="460.08" x2="330.63" y2="460.08"/>
    <g>
      <line class="cls-2" x1="337.22" y1="492.95" x2="337.22" y2="468.94"/>
      <polygon class="cls-5" points="340.13 490.97 337.22 501.81 334.32 490.97 340.13 490.97"/>
      <polygon class="cls-5" points="340.13 470.92 337.22 460.08 334.32 470.92 340.13 470.92"/>
    </g>
  </g>
  <text class="cls-4" transform="translate(341.65 485.56)"><tspan x="0" y="0">3 m</tspan></text>
  <g>
    <line class="cls-2" x1="162.86" y1="715.37" x2="149.67" y2="715.37"/>
    <g>
      <line class="cls-2" x1="156.27" y1="706.51" x2="156.27" y2="698.37"/>
      <polygon class="cls-5" points="159.17 704.53 156.27 715.37 153.36 704.53 159.17 704.53"/>
      <polygon class="cls-5" points="159.17 700.35 156.27 689.51 153.36 700.35 159.17 700.35"/>
    </g>
  </g>
  <g>
    <line class="cls-2" x1="233.63" y1="706.51" x2="233.63" y2="698.37"/>
    <polygon class="cls-5" points="236.54 704.53 233.63 715.37 230.73 704.53 236.54 704.53"/>
    <polygon class="cls-5" points="236.54 700.35 233.63 689.51 230.73 700.35 236.54 700.35"/>
  </g>
  <text class="cls-4" transform="translate(131.38 704.11)"><tspan x="0" y="0">1 m</tspan></text>
  <text class="cls-4" transform="translate(237.6 705.69)"><tspan x="0" y="0">1 m</tspan></text>
  <text class="cls-4" transform="translate(270.38 693.9)"><tspan x="0" y="0">3 m</tspan></text>
</svg>