<?xml version="1.0" encoding="utf-8"?>
<!-- Generator: Adobe Illustrator 26.3.1, SVG Export Plug-In . SVG Version: 6.00 Build 0)  -->
<svg version="1.1" xmlns="http://www.w3.org/2000/svg" xmlns:xlink="http://www.w3.org/1999/xlink" x="0px" y="0px"
	 viewBox="0 0 552.76 350.69" style="enable-background:new 0 0 552.76 350.69;" xml:space="preserve">
<style type="text/css">
	.st0{fill:none;stroke:#231F20;stroke-width:0.75;stroke-miterlimit:10;}
	.st1{fill:#231F20;}
	.st2{font-family:'ArialMT';}
	.st3{font-size:12px;}
	.st4{fill:none;stroke:#231F20;stroke-miterlimit:10;}
	.st5{fill:none;stroke:#231F20;stroke-width:2;stroke-linecap:round;stroke-miterlimit:10;}
	.st6{fill:none;stroke:#231F20;stroke-linecap:round;stroke-miterlimit:10;}
	.st7{fill:none;stroke:#231F20;stroke-miterlimit:10;stroke-dasharray:5.5222,5.5222;}
	.st8{fill:none;stroke:#231F20;stroke-miterlimit:10;stroke-dasharray:6.1409,6.1409;}
	.st9{fill:none;stroke:#231F20;stroke-width:0.25;stroke-miterlimit:10;}
</style>
<g id="LINE_50">
	<g id="LINE_35_">
		<g>
			<line class="st0" x1="173.3" y1="266.62" x2="173.3" y2="255.71"/>
		</g>
	</g>
	<g id="LINE_36_">
		<g>
			<line class="st0" x1="177.86" y1="253.87" x2="167.46" y2="258.07"/>
		</g>
	</g>
	<g>
		<g>
			<g id="LINE_81_">
				<g>
					<line class="st0" x1="288.29" y1="238.64" x2="524.49" y2="238.64"/>
				</g>
			</g>
			<g id="LINE_6_">
				<g>
					<line class="st0" x1="445.79" y1="241.63" x2="445.79" y2="36.14"/>
				</g>
			</g>
			<g id="LINE_7_">
				<g>
					<line class="st0" x1="445.79" y1="241.63" x2="435.23" y2="252.17"/>
				</g>
			</g>
			<g id="LINE_14_">
				<g>
					<line class="st0" x1="479.24" y1="241.63" x2="470.63" y2="250.21"/>
				</g>
			</g>
			<g id="LINE_15_">
				<g>
					<line class="st0" x1="409.95" y1="241.63" x2="394.68" y2="254.4"/>
				</g>
			</g>
			<g id="LINE_18_">
				<g>
					<line class="st0" x1="371.14" y1="241.63" x2="350.22" y2="256.86"/>
				</g>
			</g>
			<g id="LINE_21_">
				<g>
					<line class="st0" x1="371.14" y1="241.63" x2="371.14" y2="229.9"/>
				</g>
			</g>
			<g id="LINE_22_">
				<g>
					<line class="st0" x1="364.99" y1="230.64" x2="377.8" y2="229.11"/>
				</g>
			</g>
			<g id="LINE_23_">
				<g>
					<line class="st0" x1="377.8" y1="230.56" x2="377.8" y2="225.16"/>
				</g>
			</g>
			<g id="LINE_24_">
				<g>
					<line class="st0" x1="364.99" y1="232.09" x2="364.99" y2="226.69"/>
				</g>
			</g>
			<path class="st0" d="M398.01,196.21v13.08c0,1.16,0.94,2.1,2.1,2.1h2.8c1.16,0,2.1-0.94,2.1-2.1v-4.49h4.94v36.84"/>
			<path class="st0" d="M467.3,191.46v13.08c0,1.16,0.94,2.1,2.1,2.1h2.8c1.16,0,2.1-0.94,2.1-2.1v-4.5h4.94v41.6"/>
			<g id="LINE_42_">
				<g>
					<line class="st0" x1="281.67" y1="245.02" x2="251.33" y2="262.31"/>
				</g>
			</g>
			<g id="LINE_19_">
				<g>
					<line class="st0" x1="357.58" y1="251.5" x2="357.58" y2="245"/>
				</g>
			</g>
			<g id="LINE_20_">
				<g>
					<line class="st0" x1="360.45" y1="243.4" x2="353.54" y2="247.27"/>
				</g>
			</g>
			<g id="LINE_25_">
				<g>
					<line class="st0" x1="486" y1="249.36" x2="486" y2="241.78"/>
				</g>
			</g>
			<g id="LINE_26_">
				<g>
					<line class="st0" x1="484.35" y1="242.86" x2="486.7" y2="241.31"/>
				</g>
			</g>
			<g id="ELLIPSE">
				<g>
					<path class="st0" d="M280.45,243.03c0,1.96,3.13,3.55,6.99,3.55s6.99-1.59,6.99-3.55c0-1.96-3.13-3.55-6.99-3.55
						S280.45,241.07,280.45,243.03L280.45,243.03z"/>
				</g>
			</g>
		</g>
		<g id="CIRCLE_3_">
			<path class="st0" d="M441.39,31.75c0-2.43,1.97-4.4,4.4-4.4c2.43,0,4.4,1.97,4.4,4.4c0,2.43-1.97,4.4-4.4,4.4
				C443.36,36.14,441.39,34.18,441.39,31.75L441.39,31.75z"/>
		</g>
	</g>
	<g id="TEXT_13_">
		<g>
			<text transform="matrix(1 0 0 1 489.7083 252.5916)" class="st1 st2 st3">IO</text>
		</g>
	</g>
	<g id="TEXT_12_">
		<g>
			<text transform="matrix(1 0 0 1 393.7064 192.6375)" class="st1 st2 st3">KS</text>
		</g>
	</g>
	<g id="TEXT_11_">
		<g>
			<text transform="matrix(1 0 0 1 462.9964 187.8846)" class="st1 st2 st3">TR</text>
		</g>
	</g>
	<g id="TEXT_10_">
		<g>
			<text transform="matrix(1 0 0 1 361.4847 219.4754)" class="st1 st2 st3">WC</text>
		</g>
	</g>
	<g id="TEXT_9_">
		<g>
			<text transform="matrix(1 0 0 1 371.1497 252.5916)" class="st1 st2 st3">IO</text>
		</g>
	</g>
	<g id="TEXT_8_">
		<g>
			<text transform="matrix(1 0 0 1 176.3754 264.7303)" class="st1 st2 st3">IO</text>
		</g>
	</g>
	<g id="MTEXT_9_">
		<g>
			<text transform="matrix(0.9985 -0.0551 0.0551 0.9985 237.1379 298.8478)" class="st1 st2 st3">10 m max.</text>
		</g>
	</g>
	<g id="TEXT_7_">
		<g>
			<text transform="matrix(1 0 0 1 235.4193 252.5916)" class="st1 st2 st3">ORG</text>
		</g>
	</g>
	<g id="MTEXT_8_">
		<text transform="matrix(1 0 0 1 68.4828 286.2938)"><tspan x="0" y="0" class="st1 st2 st3">Waste water </tspan><tspan x="-3.34" y="14.4" class="st1 st2 st3">treatment unit</tspan></text>
	</g>
	<g id="MTEXT_7_">
		<g>
			<text transform="matrix(1 0 0 1 28.7718 37.8772)"><tspan x="0" y="0" class="st1 st2 st3">Vents must terminate in accordance </tspan><tspan x="0" y="14.4" class="st1 st2 st3">with AS/NZS 3500.2 </tspan></text>
		</g>
	</g>
	<g id="MTEXT_6_">
		<g>
			<text transform="matrix(1 0 0 1 127.1498 174.0804)" class="st1 st2 st3">Alternative vent</text>
		</g>
	</g>
	<g id="MTEXT_5_">
		<g>
			<text transform="matrix(1 0 0 1 121.4476 200.4031)" class="st1 st2 st3">Ground vent</text>
		</g>
	</g>
	<g id="LINE_17_">
		<g>
			<line class="st0" x1="323.49" y1="241.63" x2="291.73" y2="260.08"/>
		</g>
	</g>
	<g id="LWPOLYLINE_11_">
		<g>
			<rect x="41.43" y="256.81" class="st4" width="121.81" height="65.28"/>
		</g>
	</g>
	<g id="POLYLINE_1_">
		<g>
			<polyline class="st4" points="288.29,236.73 286.66,236.68 285.3,236.64 284.17,236.62 283.24,236.63 282.5,236.65 281.9,236.7 
				281.43,236.76 281.05,236.85 280.74,236.96 280.49,237.09 280.29,237.23 280.11,237.36 279.95,237.5 279.79,237.63 
				279.62,237.74 279.43,237.82 279.2,237.88 278.91,237.92 278.54,237.93 278.06,237.93 277.46,237.92 276.7,237.89 275.77,237.87 
				274.64,237.84 273.31,237.82 271.81,237.8 270.21,237.79 268.57,237.78 266.95,237.79 265.4,237.79 263.99,237.81 262.78,237.83 
				261.81,237.87 261.06,237.91 260.51,237.96 260.11,238.02 259.83,238.09 259.65,238.16 259.53,238.25 259.43,238.34 
				259.33,238.45 259.23,238.56 259.11,238.67 258.99,238.78 258.85,238.89 258.7,238.98 258.53,239.07 258.34,239.14 
				258.13,239.19 257.91,239.23 257.67,239.26 257.43,239.29 257.19,239.32 256.95,239.35 256.71,239.39 256.49,239.44 
				256.28,239.51 256.09,239.59 255.91,239.69 255.73,239.79 255.55,239.88 255.37,239.98 255.18,240.06 254.98,240.13 
				254.78,240.19 254.56,240.22 254.33,240.25 254.09,240.26 253.84,240.26 253.58,240.26 253.32,240.26 253.06,240.25 
				252.79,240.24 252.52,240.24 252.25,240.25 251.99,240.26 251.74,240.28 251.5,240.31 251.27,240.35 251.06,240.41 
				250.87,240.49 250.69,240.58 250.51,240.67 250.33,240.77 250.14,240.87 249.93,240.96 249.7,241.03 249.43,241.09 
				249.13,241.13 248.79,241.16 248.42,241.17 248.03,241.17 247.62,241.17 247.21,241.17 246.79,241.18 246.37,241.2 
				245.96,241.24 245.55,241.28 245.14,241.34 244.72,241.4 244.29,241.47 243.85,241.53 243.4,241.58 242.92,241.62 242.41,241.65 
				241.89,241.67 241.36,241.69 240.85,241.7 240.34,241.72 239.87,241.74 239.44,241.78 239.06,241.83 238.74,241.9 238.46,241.98 
				238.2,242.08 237.96,242.18 237.69,242.28 237.4,242.39 237.05,242.48 236.63,242.57 236.13,242.65 235.56,242.72 234.93,242.77 
				234.27,242.82 233.59,242.85 232.91,242.88 232.24,242.9 231.62,242.92 231.04,242.93 230.52,242.94 230.04,242.95 229.6,242.95 
				229.19,242.94 228.82,242.93 228.48,242.91 228.16,242.89 227.86,242.86 227.57,242.82 227.31,242.79 227.07,242.76 
				226.85,242.74 226.64,242.73 226.46,242.73 226.3,242.76 226.16,242.8 226.04,242.87 225.92,242.95 225.8,243.05 225.67,243.16 
				225.53,243.29 225.36,243.42 225.16,243.56 224.91,243.7 224.53,243.85 223.93,243.99 223.03,244.13 221.74,244.27 
				219.96,244.39 217.6,244.49 214.59,244.58 210.87,244.66 206.59,244.71 201.94,244.76 197.1,244.79 192.27,244.83 187.63,244.87 
				183.37,244.92 179.69,244.98 176.71,245.05 174.4,245.14 172.65,245.24 171.37,245.34 170.46,245.45 169.82,245.56 
				169.35,245.66 168.96,245.76 168.57,245.85 168.16,245.93 167.74,246.01 167.31,246.08 166.88,246.16 166.45,246.25 
				166.04,246.35 165.63,246.47 165.24,246.6 164.87,246.74 164.51,246.88 164.15,247.02 163.79,247.14 163.42,247.24 
				163.05,247.31 162.66,247.34 162.26,247.32 161.84,247.27 161.42,247.19 160.99,247.09 160.56,246.99 160.14,246.89 
				159.73,246.81 159.33,246.75 158.96,246.72 158.6,246.72 158.26,246.75 157.92,246.8 157.58,246.85 157.24,246.92 156.88,246.98 
				156.51,247.04 156.13,247.09 155.73,247.13 155.32,247.17 154.91,247.19 154.5,247.2 154.1,247.21 153.71,247.21 153.35,247.21 
				153.01,247.2 152.69,247.19 152.38,247.18 152.07,247.16 151.76,247.15 151.44,247.14 151.11,247.13 150.74,247.13 
				150.35,247.13 149.94,247.14 149.51,247.16 149.08,247.19 148.66,247.24 148.26,247.3 147.88,247.38 147.55,247.47 
				147.25,247.59 147,247.71 146.77,247.85 146.57,247.99 146.37,248.12 146.18,248.24 145.97,248.35 145.75,248.43 145.49,248.48 
				145.14,248.51 144.64,248.52 143.93,248.51 142.95,248.49 141.64,248.47 139.92,248.44 137.75,248.41 135.1,248.39 
				132.06,248.38 128.76,248.37 125.34,248.38 121.93,248.39 118.65,248.42 115.64,248.47 113.03,248.53 110.92,248.6 
				109.27,248.69 108.02,248.79 107.09,248.89 106.42,249 105.95,249.11 105.6,249.21 105.3,249.3 105.01,249.38 104.7,249.46 
				104.39,249.52 104.06,249.57 103.72,249.61 103.37,249.64 103.01,249.67 102.63,249.69 102.25,249.71 101.86,249.71 
				101.45,249.72 101.04,249.73 100.62,249.73 100.19,249.74 99.75,249.74 99.31,249.75 98.86,249.77 98.41,249.79 97.97,249.82 
				97.54,249.86 97.14,249.9 96.76,249.96 96.42,250.02 96.12,250.1 95.86,250.19 95.63,250.28 95.42,250.38 95.21,250.48 
				94.99,250.57 94.74,250.66 94.44,250.73 94.09,250.78 93.66,250.82 93.17,250.83 92.62,250.83 92.03,250.83 91.41,250.81 
				90.78,250.79 90.13,250.78 89.48,250.76 88.74,250.76 87.36,250.76 84.68,250.76 80.04,250.77 72.79,250.77 62.28,250.78 
				47.84,250.79 28.83,250.79 			"/>
		</g>
	</g>
	<g>
		<g id="LINE_84_">
			<g>
				<line class="st5" x1="242.7" y1="101.83" x2="524.49" y2="43.79"/>
			</g>
		</g>
		<g id="LINE_83_">
			<g>
				<line class="st5" x1="291.65" y1="91.75" x2="291.65" y2="235.28"/>
			</g>
		</g>
		<g id="LINE_80_">
			<g>
				<line class="st5" x1="291.65" y1="235.28" x2="524.49" y2="235.28"/>
			</g>
		</g>
		<g id="LINE_12_">
			<g>
				<line class="st6" x1="486" y1="249.36" x2="163.51" y2="267.16"/>
			</g>
		</g>
		<g id="LINE_50_">
			<g>
				<line class="st6" x1="323.49" y1="241.63" x2="323.49" y2="50.39"/>
			</g>
		</g>
		<g id="CIRCLE_2_">
			<g>
				<path class="st6" d="M319.09,45.99c0-2.43,1.97-4.4,4.4-4.4s4.4,1.97,4.4,4.4s-1.97,4.4-4.4,4.4S319.09,48.42,319.09,45.99
					L319.09,45.99z"/>
			</g>
		</g>
		<g id="LINE_49_">
			<g>
				<line class="st6" x1="192.87" y1="265.54" x2="192.87" y2="223.89"/>
			</g>
		</g>
		<g id="LWPOLYLINE_9_">
			<g>
				<rect x="173.71" y="225.95" class="st6" width="5.74" height="8.54"/>
			</g>
		</g>
		<g id="LINE_48_">
			<g>
				<line class="st6" x1="179.45" y1="229.4" x2="192.87" y2="225.59"/>
			</g>
		</g>
	</g>
	<g id="LWPOLYLINE_2_">
		<g id="LWPOLYLINE_5_">
			<g>
				<g>
					<g>
						<polyline class="st4" points="306.68,32.97 306.68,29.97 309.68,29.97 						"/>
						<line class="st7" x1="315.2" y1="29.97" x2="334.53" y2="29.97"/>
						<polyline class="st4" points="337.29,29.97 340.29,29.97 340.29,32.97 						"/>
						<line class="st8" x1="340.29" y1="39.11" x2="340.29" y2="244.83"/>
						<polyline class="st4" points="340.29,247.9 340.29,250.9 337.29,250.9 						"/>
						<line class="st7" x1="331.77" y1="250.9" x2="312.44" y2="250.9"/>
						<polyline class="st4" points="309.68,250.9 306.68,250.9 306.68,247.9 						"/>
						<line class="st8" x1="306.68" y1="241.76" x2="306.68" y2="36.04"/>
					</g>
				</g>
			</g>
		</g>
	</g>
	<g id="LINE_46_">
		<g id="LINE_4_">
			<g>
				<g>
					<g>
						<line class="st9" x1="209.45" y1="302.1" x2="325.94" y2="296.66"/>
						<g>
							<polygon class="st1" points="211.04,304.21 202.81,302.41 210.83,299.85 							"/>
						</g>
						<g>
							<polygon class="st1" points="324.56,298.91 332.58,296.35 324.36,294.55 							"/>
						</g>
					</g>
				</g>
			</g>
		</g>
	</g>
	<g>
		<g id="LINE_45_">
			<g>
				<line class="st9" x1="163.51" y1="267.16" x2="208.86" y2="307.63"/>
			</g>
		</g>
		<g id="LINE_44_">
			<g>
				<line class="st9" x1="291.73" y1="260.08" x2="337.09" y2="300.55"/>
			</g>
		</g>
	</g>
	<g id="LWPOLYLINE_7_">
		<g id="LWPOLYLINE_4_">
			<g>
				<g>
					<g>
						<line class="st9" x1="300.04" y1="170.53" x2="214.98" y2="170.53"/>
						<g>
							<polygon class="st1" points="298.55,168.35 306.68,170.53 298.55,172.71 							"/>
						</g>
					</g>
				</g>
			</g>
		</g>
	</g>
	<g id="LWPOLYLINE_6_">
		<g id="LWPOLYLINE_3_">
			<g>
				<g>
					<g>
						<line class="st9" x1="184.93" y1="221.51" x2="184.94" y2="204.39"/>
						<g>
							<polygon class="st1" points="187.11,220.03 184.93,228.15 182.75,220.02 							"/>
						</g>
					</g>
				</g>
			</g>
		</g>
	</g>
</g>
<g id="LINE_18_x5F_dims">
</g>
</svg>
