<?xml version="1.0" encoding="utf-8"?>
<!-- Generator: Adobe Illustrator 25.2.1, SVG Export Plug-In . SVG Version: 6.00 Build 0)  -->
<svg version="1.1" xmlns="http://www.w3.org/2000/svg" xmlns:xlink="http://www.w3.org/1999/xlink" x="0px" y="0px"
	 viewBox="0 0 552.8 686" style="enable-background:new 0 0 552.8 686;" xml:space="preserve">
<style type="text/css">
	.st0{fill:none;stroke:#000000;stroke-width:0.5;stroke-linecap:round;stroke-linejoin:round;stroke-miterlimit:10;}
	.st1{fill:none;stroke:#000000;stroke-linecap:round;stroke-linejoin:round;stroke-miterlimit:10;}
	.st2{fill:#231F20;}
	.st3{font-family:'ArialMT';}
	.st4{font-size:12px;}
	.st5{font-family:'Arial-BoldMT';}
	.st6{font-size:10px;}
	.st7{fill:none;stroke:#000000;stroke-width:0.3499;stroke-linecap:round;stroke-linejoin:round;stroke-miterlimit:10;}
	
		.st8{fill-rule:evenodd;clip-rule:evenodd;fill:#231F20;stroke:#231F20;stroke-linecap:round;stroke-linejoin:round;stroke-miterlimit:10;}
	.st9{fill:#231F20;stroke:#231F20;stroke-linecap:round;stroke-linejoin:round;stroke-miterlimit:10;}
	.st10{fill-rule:evenodd;clip-rule:evenodd;}
	.st11{fill:none;stroke:#000000;stroke-width:2;stroke-linecap:round;stroke-linejoin:round;stroke-miterlimit:10;}
	.st12{fill:#FFFFFF;stroke:#000000;stroke-width:2;stroke-linecap:round;stroke-linejoin:round;stroke-miterlimit:10;}
</style>
<g id="_x30_">
</g>
<g id="TABLE">
	<g>
		<g id="LINE_32_">
			<line class="st0" x1="131.4" y1="223.6" x2="144.6" y2="223.6"/>
		</g>
		<g id="LINE_33_">
			<line class="st0" x1="148.5" y1="223.6" x2="161.7" y2="223.6"/>
		</g>
		<g id="LINE_34_">
			<line class="st0" x1="149.3" y1="240.4" x2="161.7" y2="240.4"/>
		</g>
		<g id="LINE_35_">
			<line class="st0" x1="131.4" y1="240.4" x2="144.6" y2="240.4"/>
		</g>
		<g id="LINE_36_">
			<line class="st0" x1="131.4" y1="257.7" x2="144.5" y2="257.7"/>
		</g>
		<g id="LINE_37_">
			<line class="st0" x1="148.6" y1="257.7" x2="161.7" y2="257.7"/>
		</g>
		<g id="LINE_38_">
			<line class="st0" x1="146.6" y1="276.3" x2="161.7" y2="276.3"/>
		</g>
		<g id="LINE_39_">
			<line class="st0" x1="131.4" y1="276.3" x2="146.6" y2="276.3"/>
		</g>
	</g>
	<g id="POLYLINE_34_">
		<rect x="121.4" y="212.7" class="st1" width="89.3" height="74.6"/>
	</g>
</g>
<g id="TXT25">
	<g id="MTEXT_44_">
		<g>
			<text transform="matrix(1 0 0 1 166.2013 280.6298)" class="st2 st3 st4">15 MW</text>
		</g>
	</g>
	<g id="MTEXT_45_">
		<g>
			<text transform="matrix(1 0 0 1 174.1961 647.1)" class="st2 st5 st4">Height to underside of smoke layer (metres)</text>
		</g>
	</g>
	<g id="MTEXT_46_">
		<g>
			<text transform="matrix(1 0 0 1 166.2013 262.0477)" class="st2 st3 st4">10 MW</text>
		</g>
	</g>
	<g id="MTEXT_47_">
		<g>
			<text transform="matrix(1 0 0 1 170.2535 244.745)" class="st2 st3 st4">5 MW</text>
		</g>
	</g>
	<g id="MTEXT_48_">
		<g>
			<text transform="matrix(1 0 0 1 164.5343 227.9672)" class="st2 st3 st4">1.5 MW</text>
		</g>
	</g>
	<text transform="matrix(0 -1 1 0 41.0961 453.4548)" class="st2 st5 st4">Smoke exhaust for each smoke reservoir (m³/s)</text>
	<g>
		<g id="MTEXT">
			<text transform="matrix(1 0 0 1 124.443 624.5482)" class="st3 st6">4</text>
		</g>
		<g id="MTEXT_1_">
			<text transform="matrix(1 0 0 1 172.818 624.5765)" class="st3 st6">6</text>
		</g>
		<g id="MTEXT_2_">
			<text transform="matrix(1 0 0 1 221.4161 624.5765)" class="st3 st6">8</text>
		</g>
		<g id="MTEXT_3_">
			<text transform="matrix(1 0 0 1 268.0811 624.5765)" class="st3 st6">10</text>
		</g>
		<g id="MTEXT_4_">
			<text transform="matrix(1 0 0 1 316.9244 624.5765)" class="st3 st6">12</text>
		</g>
		<g id="MTEXT_5_">
			<text transform="matrix(1 0 0 1 365.5592 624.5765)" class="st3 st6">15</text>
		</g>
		<g id="MTEXT_6_">
			<text transform="matrix(1 0 0 1 414.0016 624.5765)" class="st3 st6">20</text>
		</g>
		<g id="MTEXT_7_">
			<text transform="matrix(1 0 0 1 463.6744 624.5765)" class="st3 st6">25</text>
		</g>
		<g id="MTEXT_8_">
			<text transform="matrix(1 0 0 1 511.6539 624.5765)" class="st3 st6">30</text>
		</g>
		<g id="MTEXT_9_">
			<text transform="matrix(1 0 0 1 66.9459 612.0336)" class="st3 st6">0</text>
		</g>
		<g id="MTEXT_10_">
			<text transform="matrix(1 0 0 1 60.8824 579.8549)" class="st3 st6">20</text>
		</g>
		<g id="MTEXT_11_">
			<text transform="matrix(1 0 0 1 60.7452 563.767)" class="st3 st6">30</text>
		</g>
		<g id="MTEXT_12_">
			<text transform="matrix(1 0 0 1 61.0572 547.6771)" class="st3 st6">40</text>
		</g>
		<g id="MTEXT_13_">
			<text transform="matrix(1 0 0 1 60.753 531.5883)" class="st3 st6">50</text>
		</g>
		<g id="MTEXT_14_">
			<text transform="matrix(1 0 0 1 60.7989 515.4984)" class="st3 st6">60</text>
		</g>
		<g id="MTEXT_15_">
			<text transform="matrix(1 0 0 1 60.692 499.4095)" class="st3 st6">70</text>
		</g>
		<g id="MTEXT_16_">
			<text transform="matrix(1 0 0 1 60.7603 483.639)" class="st3 st6">80</text>
		</g>
		<g id="MTEXT_17_">
			<text transform="matrix(1 0 0 1 60.753 467.2308)" class="st3 st6">90</text>
		</g>
		<g id="MTEXT_18_">
			<text transform="matrix(1 0 0 1 54.9474 451.5482)" class="st3 st6">100</text>
		</g>
		<g id="MTEXT_19_">
			<text transform="matrix(1 0 0 1 54.9474 435.184)" class="st3 st6">110</text>
		</g>
		<g id="MTEXT_20_">
			<text transform="matrix(1 0 0 1 54.9474 419.1732)" class="st3 st6">120</text>
		</g>
		<g id="MTEXT_21_">
			<text transform="matrix(1 0 0 1 54.9474 403.1644)" class="st3 st6">130</text>
		</g>
		<g id="MTEXT_22_">
			<text transform="matrix(1 0 0 1 54.9474 386.8363)" class="st3 st6">140</text>
		</g>
		<g id="MTEXT_23_">
			<text transform="matrix(1 0 0 1 54.9474 370.9056)" class="st3 st6">150</text>
		</g>
		<g id="MTEXT_24_">
			<text transform="matrix(1 0 0 1 54.9474 338.9672)" class="st3 st6">170</text>
		</g>
		<g id="MTEXT_25_">
			<text transform="matrix(1 0 0 1 54.9474 322.8788)" class="st3 st6">180</text>
		</g>
		<g id="MTEXT_26_">
			<text transform="matrix(1 0 0 1 54.9474 306.5502)" class="st3 st6">190</text>
		</g>
		<g id="MTEXT_27_">
			<text transform="matrix(1 0 0 1 54.8873 290.6205)" class="st3 st6">200</text>
		</g>
		<g id="MTEXT_28_">
			<text transform="matrix(1 0 0 1 54.8873 274.4515)" class="st3 st6">210</text>
		</g>
		<g id="MTEXT_29_">
			<text transform="matrix(1 0 0 1 54.8873 258.4408)" class="st3 st6">220</text>
		</g>
		<g id="MTEXT_30_">
			<text transform="matrix(1 0 0 1 54.9474 354.6576)" class="st3 st6">160</text>
		</g>
		<g id="MTEXT_31_">
			<text transform="matrix(1 0 0 1 54.8873 242.3524)" class="st3 st6">230</text>
		</g>
		<g id="MTEXT_32_">
			<text transform="matrix(1 0 0 1 54.8873 226.0238)" class="st3 st6">240</text>
		</g>
		<g id="MTEXT_33_">
			<text transform="matrix(1 0 0 1 54.8873 210.0253)" class="st3 st6">250</text>
		</g>
		<g id="MTEXT_34_">
			<text transform="matrix(1 0 0 1 54.8873 193.4105)" class="st3 st6">260</text>
		</g>
		<g id="MTEXT_35_">
			<text transform="matrix(1 0 0 1 54.8873 177.9559)" class="st3 st6">270</text>
		</g>
		<g id="MTEXT_36_">
			<text transform="matrix(1 0 0 1 54.8873 161.9491)" class="st3 st6">280</text>
		</g>
		<g id="MTEXT_37_">
			<text transform="matrix(1 0 0 1 54.0909 145.9306)" class="st3 st6">290</text>
		</g>
		<g id="MTEXT_38_">
			<text transform="matrix(1 0 0 1 53.9537 129.5912)" class="st3 st6">300</text>
		</g>
		<g id="MTEXT_39_">
			<text transform="matrix(1 0 0 1 53.9537 113.8827)" class="st3 st6">310</text>
		</g>
		<g id="MTEXT_40_">
			<text transform="matrix(1 0 0 1 53.9537 97.7934)" class="st3 st6">320</text>
		</g>
		<g id="MTEXT_41_">
			<text transform="matrix(1 0 0 1 53.9537 81.6449)" class="st3 st6">330</text>
		</g>
		<g id="MTEXT_42_">
			<text transform="matrix(1 0 0 1 53.9537 65.5556)" class="st3 st6">340</text>
		</g>
		<g id="MTEXT_43_">
			<text transform="matrix(1 0 0 1 53.9537 49.4662)" class="st3 st6">350</text>
		</g>
		<g id="MTEXT_49_">
			<text transform="matrix(1 0 0 1 77.2935 624.5765)" class="st3 st6">2</text>
		</g>
		<g id="MTEXT_51_">
			<text transform="matrix(1 0 0 1 60.0377 595.9457)" class="st3 st6">10</text>
		</g>
	</g>
	<g>
		<g id="LINE_4_">
			<line class="st0" x1="79.1" y1="591.9" x2="516.8" y2="591.9"/>
		</g>
		<g id="LINE_5_">
			<line class="st0" x1="79.1" y1="575.8" x2="516.8" y2="575.8"/>
		</g>
		<g id="LINE_6_">
			<line class="st0" x1="79.1" y1="559.7" x2="516.8" y2="559.7"/>
		</g>
		<g id="LINE_7_">
			<line class="st0" x1="79.1" y1="543.6" x2="516.8" y2="543.6"/>
		</g>
		<g id="LINE_8_">
			<line class="st0" x1="79.1" y1="527.6" x2="516.8" y2="527.6"/>
		</g>
		<g id="LINE_9_">
			<line class="st0" x1="79.1" y1="511.5" x2="516.8" y2="511.5"/>
		</g>
		<g id="LINE_10_">
			<line class="st0" x1="79.1" y1="495.4" x2="516.8" y2="495.4"/>
		</g>
		<g id="LINE_11_">
			<line class="st0" x1="79.1" y1="479.3" x2="221.6" y2="479.3"/>
		</g>
		<g id="LINE_12_">
			<line class="st0" x1="79.1" y1="463.2" x2="516.8" y2="463.2"/>
		</g>
		<g id="LINE_13_">
			<line class="st0" x1="79.1" y1="447.1" x2="516.8" y2="447.1"/>
		</g>
		<g id="LINE_14_">
			<line class="st0" x1="79.1" y1="431" x2="516.8" y2="431"/>
		</g>
		<g id="LINE_15_">
			<line class="st0" x1="79.1" y1="414.9" x2="516.8" y2="414.9"/>
		</g>
		<g id="LINE_16_">
			<line class="st0" x1="79.1" y1="398.8" x2="516.8" y2="398.8"/>
		</g>
		<g id="LINE_17_">
			<line class="st0" x1="79.1" y1="382.8" x2="516.8" y2="382.8"/>
		</g>
		<g id="LINE_18_">
			<line class="st0" x1="79.1" y1="318.4" x2="516.8" y2="318.4"/>
		</g>
		<g id="LINE_19_">
			<line class="st0" x1="225" y1="44.9" x2="225" y2="473.7"/>
		</g>
		<g id="LINE_20_">
			<line class="st0" x1="273.6" y1="44.9" x2="273.6" y2="440"/>
		</g>
		<g id="LINE_21_">
			<line class="st0" x1="370.9" y1="44.9" x2="370.9" y2="340.2"/>
		</g>
		<g id="LINE_22_">
			<line class="st0" x1="419.5" y1="44.9" x2="419.5" y2="223.1"/>
		</g>
		<g id="LINE_23_">
			<line class="st0" x1="79.1" y1="157.5" x2="516.8" y2="157.5"/>
		</g>
		<g id="LINE_24_">
			<line class="st0" x1="79.1" y1="189.7" x2="516.8" y2="189.7"/>
		</g>
		<g id="LINE_25_">
			<line class="st0" x1="79.1" y1="173.6" x2="516.8" y2="173.6"/>
		</g>
		<g id="LINE_26_">
			<line class="st0" x1="79.1" y1="141.4" x2="516.8" y2="141.4"/>
		</g>
		<g id="LINE_27_">
			<line class="st0" x1="79.1" y1="125.3" x2="516.8" y2="125.3"/>
		</g>
		<g id="LINE_28_">
			<line class="st0" x1="79.1" y1="109.2" x2="516.8" y2="109.2"/>
		</g>
		<g id="LINE_29_">
			<line class="st0" x1="79.1" y1="93.1" x2="516.8" y2="93.1"/>
		</g>
		<g id="LINE_30_">
			<line class="st0" x1="79.1" y1="77.1" x2="516.8" y2="77.1"/>
		</g>
		<g id="LINE_31_">
			<line class="st0" x1="79.1" y1="61" x2="516.8" y2="61"/>
		</g>
		<g id="LINE_104_">
			<line class="st0" x1="127.7" y1="535.2" x2="127.7" y2="608"/>
		</g>
		<g id="LINE_105_">
			<line class="st0" x1="176.3" y1="509.6" x2="176.3" y2="608"/>
		</g>
		<g id="LINE_106_">
			<line class="st0" x1="225" y1="479.6" x2="225" y2="608"/>
		</g>
		<g id="LINE_107_">
			<line class="st0" x1="228.4" y1="479.3" x2="516.8" y2="479.3"/>
		</g>
		<g id="LINE_108_">
			<line class="st0" x1="273.6" y1="445.9" x2="273.6" y2="608"/>
		</g>
		<g id="LINE_109_">
			<line class="st0" x1="322.2" y1="409.2" x2="322.2" y2="608"/>
		</g>
		<g id="LINE_110_">
			<line class="st0" x1="370.9" y1="346.1" x2="370.9" y2="608"/>
		</g>
		<g id="LINE_111_">
			<line class="st0" x1="419.5" y1="229" x2="419.5" y2="608"/>
		</g>
		<g id="LINE_112_">
			<line class="st0" x1="468.2" y1="44.8" x2="468.2" y2="608"/>
		</g>
		<g id="LINE_114_">
			<line class="st0" x1="79.1" y1="302.3" x2="516.8" y2="302.3"/>
		</g>
		<g id="LINE_115_">
			<line class="st0" x1="79.1" y1="221.9" x2="121.4" y2="221.9"/>
		</g>
		<g id="LINE_116_">
			<line class="st0" x1="210.7" y1="221.9" x2="516.8" y2="221.9"/>
		</g>
		<g id="LINE_117_">
			<line class="st0" x1="79.1" y1="205.8" x2="516.8" y2="205.8"/>
		</g>
		<g id="LINE_119_">
			<line class="st0" x1="127.7" y1="44.9" x2="127.7" y2="212.7"/>
		</g>
		<g id="LINE_120_">
			<line class="st0" x1="127.7" y1="287.3" x2="127.7" y2="529.3"/>
		</g>
		<g id="LINE_121_">
			<line class="st0" x1="79.1" y1="366.7" x2="516.8" y2="366.7"/>
		</g>
		<g id="LINE_122_">
			<line class="st0" x1="79.1" y1="350.6" x2="516.8" y2="350.6"/>
		</g>
		<g id="LINE_123_">
			<line class="st0" x1="79.1" y1="334.5" x2="516.8" y2="334.5"/>
		</g>
		<g id="LINE_124_">
			<line class="st0" x1="176.3" y1="44.9" x2="176.3" y2="212.7"/>
		</g>
		<g id="LINE_125_">
			<line class="st0" x1="176.3" y1="287.3" x2="176.3" y2="503.7"/>
		</g>
		<g id="LINE_126_">
			<line class="st0" x1="79.1" y1="238" x2="121.4" y2="238"/>
		</g>
		<g id="LINE_127_">
			<line class="st0" x1="210.7" y1="238" x2="516.8" y2="238"/>
		</g>
		<g id="LINE_128_">
			<line class="st0" x1="79.1" y1="254" x2="121.4" y2="254"/>
		</g>
		<g id="LINE_129_">
			<line class="st0" x1="210.7" y1="254" x2="516.8" y2="254"/>
		</g>
		<g id="LINE_130_">
			<line class="st0" x1="79.1" y1="270.1" x2="121.4" y2="270.1"/>
		</g>
		<g id="LINE_131_">
			<line class="st0" x1="210.7" y1="270.1" x2="516.8" y2="270.1"/>
		</g>
		<g id="LINE_132_">
			<line class="st0" x1="79.1" y1="286.2" x2="121.4" y2="286.2"/>
		</g>
		<g id="LINE_133_">
			<line class="st0" x1="210.7" y1="286.2" x2="516.8" y2="286.2"/>
		</g>
		<g id="LINE_134_">
			<line class="st0" x1="322.2" y1="44.9" x2="322.2" y2="403.3"/>
		</g>
		<g id="POLYLINE">
			<polyline class="st0" points="79.1,553.8 79.1,608 516.8,608 516.8,44.9 79.1,44.9 79.1,547.9 			"/>
		</g>
	</g>
</g>
<g id="GRAF_x5F_SYMB">
	<g id="POLYLINE_23_">
		<rect x="144.6" y="238.5" class="st7" width="4.7" height="3.9"/>
	</g>
	<g id="LINE_101_">
		<line class="st7" x1="146.7" y1="226.7" x2="150.1" y2="223.6"/>
	</g>
	<g>
		<g id="HATCH">
			<rect x="76.7" y="575.2" class="st8" width="4.7" height="3.9"/>
		</g>
		<g id="POLYLINE_3_">
			<rect x="76.7" y="575.2" class="st9" width="4.7" height="3.9"/>
		</g>
		<g id="HATCH_1_">
			<rect x="125.4" y="561.4" class="st8" width="4.7" height="3.9"/>
		</g>
		<g id="POLYLINE_4_">
			<rect x="125.3" y="561.4" class="st9" width="4.7" height="3.9"/>
		</g>
		<g id="HATCH_2_">
			<rect x="174" y="542.1" class="st8" width="4.7" height="3.9"/>
		</g>
		<g id="POLYLINE_5_">
			<rect x="174" y="542.1" class="st9" width="4.7" height="3.9"/>
		</g>
		<g id="HATCH_3_">
			<rect x="222.6" y="520.1" class="st8" width="4.7" height="3.9"/>
		</g>
		<g id="POLYLINE_6_">
			<rect x="222.6" y="520" class="st9" width="4.7" height="3.9"/>
		</g>
		<g id="HATCH_4_">
			<rect x="271.3" y="494.2" class="st8" width="4.7" height="3.9"/>
		</g>
		<g id="POLYLINE_7_">
			<rect x="271.2" y="494.1" class="st9" width="4.7" height="3.9"/>
		</g>
		<g id="HATCH_5_">
			<rect x="319.9" y="465.4" class="st8" width="4.7" height="3.9"/>
		</g>
		<g id="POLYLINE_8_">
			<rect x="319.9" y="465.4" class="st9" width="4.7" height="3.9"/>
		</g>
		<g id="HATCH_6_">
			<rect x="368.5" y="419.4" class="st8" width="4.7" height="3.9"/>
		</g>
		<g id="POLYLINE_9_">
			<rect x="368.5" y="419.3" class="st9" width="4.7" height="3.9"/>
		</g>
		<g id="HATCH_7_">
			<rect x="417.2" y="331.4" class="st8" width="4.7" height="3.9"/>
		</g>
		<g id="POLYLINE_10_">
			<rect x="417.2" y="331.3" class="st9" width="4.7" height="3.9"/>
		</g>
		<g id="HATCH_8_">
			<rect x="465.8" y="229.6" class="st8" width="4.7" height="3.9"/>
		</g>
		<g id="POLYLINE_11_">
			<rect x="465.8" y="229.5" class="st9" width="4.7" height="3.9"/>
		</g>
		<g id="HATCH_9_">
			<rect x="514.4" y="122" class="st8" width="4.7" height="3.9"/>
		</g>
		<g id="POLYLINE_12_">
			<rect x="514.4" y="122" class="st9" width="4.7" height="3.9"/>
		</g>
		<g id="LINE_62_">
			<line class="st9" x1="79.1" y1="600.5" x2="82.4" y2="597.4"/>
		</g>
		<g id="LINE_63_">
			<line class="st9" x1="82.4" y1="597.4" x2="79.1" y2="594.3"/>
		</g>
		<g id="HATCH_10_">
			<polygon class="st8" points="82.4,597.4 79.1,600.5 75.7,597.4 79.1,594.3 			"/>
		</g>
		<g id="POLYLINE_13_">
			<polygon class="st9" points="75.7,597.4 79.1,600.5 82.4,597.4 79.1,594.3 			"/>
		</g>
		<g id="LINE_64_">
			<line class="st9" x1="124.4" y1="589.1" x2="127.7" y2="592.2"/>
		</g>
		<g id="LINE_65_">
			<line class="st9" x1="127.7" y1="592.2" x2="131.1" y2="589.1"/>
		</g>
		<g id="LINE_66_">
			<line class="st9" x1="131.1" y1="589.1" x2="127.7" y2="586"/>
		</g>
		<g id="LINE_67_">
			<line class="st9" x1="127.7" y1="586" x2="124.4" y2="589.1"/>
		</g>
		<g id="HATCH_11_">
			<polygon class="st8" points="131.1,589.1 127.7,592.2 124.4,589.1 127.7,586 			"/>
		</g>
		<g id="POLYLINE_14_">
			<polygon class="st9" points="124.4,589.1 127.7,592.2 131.1,589.1 127.7,586 			"/>
		</g>
		<g id="LINE_68_">
			<line class="st9" x1="173" y1="579.4" x2="176.3" y2="582.5"/>
		</g>
		<g id="LINE_69_">
			<line class="st9" x1="176.3" y1="582.5" x2="179.7" y2="579.4"/>
		</g>
		<g id="LINE_70_">
			<line class="st9" x1="179.7" y1="579.4" x2="176.3" y2="576.3"/>
		</g>
		<g id="LINE_71_">
			<line class="st9" x1="176.3" y1="576.3" x2="173" y2="579.4"/>
		</g>
		<g id="HATCH_12_">
			<polygon class="st8" points="179.7,579.4 176.3,582.5 173,579.4 176.3,576.3 			"/>
		</g>
		<g id="POLYLINE_15_">
			<polygon class="st9" points="173,579.4 176.3,582.5 179.7,579.4 176.3,576.3 			"/>
		</g>
		<g id="LINE_72_">
			<line class="st9" x1="221.6" y1="567.7" x2="225" y2="570.8"/>
		</g>
		<g id="LINE_73_">
			<line class="st9" x1="225" y1="570.8" x2="228.3" y2="567.7"/>
		</g>
		<g id="LINE_74_">
			<line class="st9" x1="228.3" y1="567.7" x2="225" y2="564.6"/>
		</g>
		<g id="LINE_75_">
			<line class="st9" x1="225" y1="564.6" x2="221.6" y2="567.7"/>
		</g>
		<g id="HATCH_13_">
			<polygon class="st8" points="228.3,567.7 225,570.8 221.6,567.7 225,564.6 			"/>
		</g>
		<g id="POLYLINE_16_">
			<polygon class="st9" points="221.6,567.7 225,570.8 228.3,567.7 225,564.6 			"/>
		</g>
		<g id="LINE_76_">
			<line class="st9" x1="270.3" y1="555" x2="273.6" y2="558.1"/>
		</g>
		<g id="LINE_77_">
			<line class="st9" x1="273.6" y1="558.1" x2="277" y2="555"/>
		</g>
		<g id="LINE_78_">
			<line class="st9" x1="277" y1="555" x2="273.6" y2="551.9"/>
		</g>
		<g id="LINE_79_">
			<line class="st9" x1="273.6" y1="551.9" x2="270.3" y2="555"/>
		</g>
		<g id="HATCH_14_">
			<polygon class="st8" points="277,555 273.6,558.1 270.3,555 273.6,551.9 			"/>
		</g>
		<g id="POLYLINE_17_">
			<polygon class="st9" points="270.3,555 273.6,558.1 277,555 273.6,551.9 			"/>
		</g>
		<g id="LINE_80_">
			<line class="st9" x1="318.9" y1="539.9" x2="322.2" y2="543"/>
		</g>
		<g id="LINE_81_">
			<line class="st9" x1="322.2" y1="543" x2="325.6" y2="539.9"/>
		</g>
		<g id="LINE_82_">
			<line class="st9" x1="325.6" y1="539.9" x2="322.2" y2="536.8"/>
		</g>
		<g id="LINE_83_">
			<line class="st9" x1="322.2" y1="536.8" x2="318.9" y2="539.9"/>
		</g>
		<g id="HATCH_15_">
			<polygon class="st8" points="325.6,539.9 322.2,543 318.9,539.9 322.2,536.8 			"/>
		</g>
		<g id="POLYLINE_18_">
			<polygon class="st9" points="318.9,539.9 322.2,543 325.6,539.9 322.2,536.8 			"/>
		</g>
		<g id="LINE_84_">
			<line class="st9" x1="367.5" y1="515.4" x2="370.9" y2="518.5"/>
		</g>
		<g id="LINE_85_">
			<line class="st9" x1="370.9" y1="518.5" x2="374.2" y2="515.4"/>
		</g>
		<g id="LINE_86_">
			<line class="st9" x1="374.2" y1="515.4" x2="370.9" y2="512.3"/>
		</g>
		<g id="LINE_87_">
			<line class="st9" x1="370.9" y1="512.3" x2="367.5" y2="515.4"/>
		</g>
		<g id="HATCH_16_">
			<polygon class="st8" points="374.2,515.4 370.9,518.5 367.5,515.4 370.9,512.3 			"/>
		</g>
		<g id="POLYLINE_19_">
			<polygon class="st9" points="367.5,515.4 370.9,518.5 374.2,515.4 370.9,512.3 			"/>
		</g>
		<g id="LINE_88_">
			<line class="st9" x1="416" y1="469.1" x2="419.4" y2="472.2"/>
		</g>
		<g id="LINE_89_">
			<line class="st9" x1="419.4" y1="472.2" x2="422.7" y2="469.1"/>
		</g>
		<g id="LINE_90_">
			<line class="st9" x1="422.7" y1="469.1" x2="419.4" y2="466"/>
		</g>
		<g id="LINE_91_">
			<line class="st9" x1="419.4" y1="466" x2="416" y2="469.1"/>
		</g>
		<g id="HATCH_17_">
			<polygon class="st8" points="422.7,469.1 419.4,472.2 416,469.1 419.4,466 			"/>
		</g>
		<g id="POLYLINE_20_">
			<polygon class="st9" points="416,469.1 419.4,472.2 422.7,469.1 419.4,466 			"/>
		</g>
		<g id="LINE_92_">
			<line class="st9" x1="464.8" y1="415.9" x2="468.2" y2="419"/>
		</g>
		<g id="LINE_93_">
			<line class="st9" x1="468.2" y1="419" x2="471.5" y2="415.9"/>
		</g>
		<g id="LINE_94_">
			<line class="st9" x1="471.5" y1="415.9" x2="468.2" y2="412.8"/>
		</g>
		<g id="LINE_95_">
			<line class="st9" x1="468.2" y1="412.8" x2="464.8" y2="415.9"/>
		</g>
		<g id="HATCH_18_">
			<polygon class="st8" points="471.5,415.9 468.2,419 464.8,415.9 468.2,412.8 			"/>
		</g>
		<g id="POLYLINE_21_">
			<polygon class="st9" points="464.8,415.9 468.2,419 471.5,415.9 468.2,412.8 			"/>
		</g>
		<g id="LINE_96_">
			<line class="st9" x1="513.4" y1="358.6" x2="516.8" y2="361.7"/>
		</g>
		<g id="LINE_97_">
			<line class="st9" x1="516.8" y1="361.7" x2="520.1" y2="358.6"/>
		</g>
		<g id="LINE_98_">
			<line class="st9" x1="520.1" y1="358.6" x2="516.8" y2="355.5"/>
		</g>
		<g id="LINE_99_">
			<line class="st9" x1="516.8" y1="355.5" x2="513.4" y2="358.6"/>
		</g>
		<g id="HATCH_19_">
			<polygon class="st8" points="520.1,358.6 516.8,361.7 513.4,358.6 516.8,355.5 			"/>
		</g>
		<g id="POLYLINE_22_">
			<polygon class="st9" points="513.4,358.6 516.8,361.7 520.1,358.6 516.8,355.5 			"/>
		</g>
		<g id="HATCH_20_">
			<rect x="144.6" y="238.5" class="st8" width="4.7" height="3.9"/>
		</g>
		<g id="LINE_100_">
			<line class="st9" x1="143.4" y1="223.6" x2="146.7" y2="226.7"/>
		</g>
		<g id="LINE_102_">
			<line class="st9" x1="150.1" y1="223.6" x2="146.7" y2="220.6"/>
		</g>
		<g id="LINE_103_">
			<line class="st9" x1="146.7" y1="220.6" x2="143.4" y2="223.6"/>
		</g>
	</g>
	<g id="HATCH_21_">
		<polygon class="st10" points="150.1,223.6 146.7,226.7 143.4,223.6 146.7,220.6 		"/>
	</g>
	<g id="POLYLINE_24_">
		<polygon class="st7" points="143.4,223.6 146.7,226.7 150.1,223.6 146.7,220.6 		"/>
	</g>
</g>
<g id="GRAF">
	<g>
		<g id="LINE_50_">
			<line class="st11" x1="173.7" y1="472.3" x2="178.9" y2="468"/>
		</g>
		<g>
			<g id="LINE_52_">
				<line class="st11" x1="222.4" y1="436" x2="227.6" y2="431.7"/>
			</g>
			<g>
				<g>
					<g>
						<g id="LINE_40_">
							<line class="st11" x1="144" y1="278.5" x2="149.2" y2="274.2"/>
						</g>
						<g id="LINE_41_">
							<line class="st11" x1="149.2" y1="278.5" x2="144" y2="274.2"/>
						</g>
						<g id="LINE_43_">
							<line class="st11" x1="143" y1="260.2" x2="146.6" y2="254.3"/>
						</g>
						<g id="LINE_44_">
							<line class="st11" x1="146.6" y1="254.3" x2="150.1" y2="260.2"/>
						</g>
						<g id="LINE_45_">
							<line class="st11" x1="143" y1="260.2" x2="150.1" y2="260.2"/>
						</g>
					</g>
					<g id="LINE_46_">
						<line class="st11" x1="76.5" y1="528.5" x2="81.7" y2="524.3"/>
					</g>
					<g id="LINE_47_">
						<line class="st11" x1="81.7" y1="528.5" x2="76.5" y2="524.3"/>
					</g>
					<g id="LINE_48_">
						<line class="st11" x1="125.1" y1="503.8" x2="130.3" y2="499.5"/>
					</g>
					<g id="LINE_49_">
						<line class="st11" x1="130.3" y1="503.8" x2="125.1" y2="499.5"/>
					</g>
					<g id="LINE_51_">
						<line class="st11" x1="178.9" y1="472.3" x2="173.7" y2="468"/>
					</g>
					<g id="LINE_53_">
						<line class="st11" x1="227.6" y1="436" x2="222.4" y2="431.7"/>
					</g>
					<g id="LINE_55_">
						<line class="st11" x1="276.2" y1="394.5" x2="271" y2="390.2"/>
					</g>
					<g id="LINE_56_">
						<line class="st11" x1="319.7" y1="346.2" x2="324.8" y2="341.9"/>
					</g>
					<g id="LINE_57_">
						<line class="st11" x1="324.8" y1="346.2" x2="319.7" y2="341.9"/>
					</g>
					<g id="LINE_58_">
						<line class="st11" x1="368.3" y1="266.7" x2="373.5" y2="262.4"/>
					</g>
					<g id="LINE_59_">
						<line class="st11" x1="373.5" y1="266.7" x2="368.3" y2="262.4"/>
					</g>
					<g id="LINE_60_">
						<line class="st11" x1="416.9" y1="121" x2="422.1" y2="116.7"/>
					</g>
					<g id="LINE_61_">
						<line class="st11" x1="422.1" y1="121" x2="416.9" y2="116.7"/>
					</g>
					<g id="POLYLINE_25_">
						<polyline class="st11" points="75.5,553.8 79.1,547.9 82.6,553.8 75.5,553.8 						"/>
					</g>
					<g id="POLYLINE_26_">
						<polyline class="st11" points="124.1,535.2 127.7,529.3 131.3,535.2 124.1,535.2 						"/>
					</g>
					<g id="POLYLINE_27_">
						<polyline class="st11" points="172.9,509.6 176.4,503.7 180,509.6 172.9,509.6 						"/>
					</g>
					<g id="POLYLINE_28_">
						<polyline class="st11" points="221.4,479.6 225,473.7 228.5,479.6 221.4,479.6 						"/>
					</g>
					<g id="POLYLINE_29_">
						<polyline class="st11" points="270.1,445.9 273.6,440 277.2,445.9 270.1,445.9 						"/>
					</g>
					<g id="POLYLINE_30_">
						<polyline class="st11" points="318.7,409.2 322.2,403.3 325.8,409.2 318.7,409.2 						"/>
					</g>
					<g id="POLYLINE_31_">
						<polyline class="st11" points="367.3,346.1 370.9,340.2 374.4,346.1 367.3,346.1 						"/>
					</g>
					<g id="POLYLINE_32_">
						<polyline class="st11" points="416,229 419.5,223.1 423.1,229 416,229 						"/>
					</g>
					<g id="POLYLINE_33_">
						<polyline class="st12" points="464.6,96.8 468.2,90.9 471.7,96.8 464.6,96.8 						"/>
					</g>
				</g>
				<g id="LINE_54_">
					<line class="st11" x1="271" y1="394.5" x2="276.2" y2="390.2"/>
				</g>
			</g>
		</g>
	</g>
	<g>
		<g id="SPLINE">
			<path class="st0" d="M81,551.1c6.8-2.4,12.1-4.4,16.7-6c5.1-1.9,9.2-3.4,12.9-4.7c3.7-1.4,6.9-2.6,10.8-4.3
				c0.9-0.4,1.9-0.8,2.9-1.3"/>
		</g>
		<g id="SPLINE_1_">
			<path class="st0" d="M79.1,577.1c9.7-2.6,18.6-4.9,25.9-7c7.6-2.1,13.4-3.8,17.9-5.2c4.5-1.4,7.6-2.5,13.2-4.7
				c5.6-2.2,13.8-5.4,20.1-7.9c6.3-2.5,10.7-4.4,15-6.2c4.3-1.8,8.4-3.5,13.1-5.6c4.8-2.1,10.2-4.5,14.6-6.5c4.4-2,7.8-3.4,10.8-4.8
				c2.9-1.3,5.4-2.6,8.8-4.2c3.4-1.6,7.6-3.7,11.3-5.5c3.7-1.8,6.8-3.3,9.8-4.9c3-1.6,5.8-3.1,8.9-4.8c3.1-1.6,6.4-3.3,9.4-5
				c3-1.7,5.8-3.3,8.3-4.8c2.5-1.5,4.8-2.8,7.4-4.2c2.6-1.4,5.6-3,9-4.9c3.4-1.9,7.3-4,11.8-6.6c4.5-2.5,9.5-5.5,13.2-7.6
				c3.6-2.1,5.9-3.4,7.8-4.6c1.9-1.3,3.5-2.5,5.3-3.9c1.8-1.4,3.8-2.8,6.1-4.7c2.3-1.8,4.9-4.1,7.5-6.2c2.5-2.2,5-4.3,7.2-6.1
				c2.3-1.8,4.3-3.4,6.1-4.9c1.8-1.5,3.3-2.8,4.8-4.4c1.5-1.5,3.1-3.2,4.5-4.9c1.5-1.7,2.9-3.3,4.4-5c1.5-1.7,2.9-3.4,4.3-5.2
				c1.4-1.8,2.7-3.6,4.1-5.2c1.4-1.7,2.8-3.3,4.3-5.3c1.5-2,3.2-4.6,4.9-7.3c1.8-2.8,3.7-5.8,5.5-9c1.7-3.2,3.3-6.6,5-9.8
				c1.7-3.2,3.6-6.2,5.5-9.7c1.9-3.5,3.8-7.4,5.7-11.2c2-3.8,4-7.4,6.1-11.5c2.1-4.1,4.2-8.6,6.1-12.6c1.9-4,3.6-7.4,5.5-11
				c1.8-3.6,3.8-7.5,6-12c2.2-4.5,4.6-9.7,7.2-14.9c2.6-5.3,5.3-10.7,7.5-15c2.2-4.3,3.8-7.4,5.8-11.4c2-4,4.5-9,6.6-13.3
				c2.1-4.3,3.9-8,5.6-11.9c1.8-3.9,3.5-7.9,5.2-11.6c1.7-3.7,3.2-7.1,4.7-10.4c1.5-3.3,3-6.5,4.8-10.4c1.8-3.9,3.8-8.5,5.1-11.4
				c1.3-2.9,1.7-4.2,2.9-6.8c1.1-2.6,3-6.7,4.7-10.4c1.7-3.7,3.2-7,4.8-10.4c1.5-3.4,3.1-6.8,4.7-10.4c1.6-3.6,3.3-7.5,4.7-10.9
				c1.5-3.4,2.8-6.4,4.1-9.2c1.3-2.8,2.5-5.3,4.2-9c1.7-3.8,3.7-8.7,5.4-12.5c1.7-3.8,3.1-6.4,4.7-9"/>
		</g>
		<g id="POLYLINE_1_">
			<polyline class="st0" points="78.1,527.4 83.2,524.9 88.3,522.4 93,520.1 97.2,518 101.1,516.1 104.6,514.4 107.8,512.8 
				110.7,511.3 113.3,510 115.7,508.7 118,507.5 120.1,506.4 122.1,505.3 124.1,504.2 126.1,503.1 128,501.9 130.1,500.7 
				132.2,499.4 134.4,498.1 136.6,496.7 139,495.2 141.5,493.7 144,492.1 146.7,490.3 149.5,488.5 152.4,486.6 155.5,484.6 
				158.6,482.6 161.9,480.4 165.3,478.1 168.7,475.7 172.3,473.3 176,470.7 179.7,468.1 183.4,465.5 187.1,462.9 190.6,460.4 
				194,458 197.1,455.7 200,453.6 202.5,451.7 204.7,450 206.7,448.5 208.5,447.1 210.1,445.9 211.6,444.7 213,443.6 214.3,442.5 
				215.6,441.5 216.8,440.4 218.1,439.4 219.3,438.5 220.5,437.5 221.7,436.6 222.8,435.7 223.9,434.9 225,434.1 226,433.3 
				227.1,432.4 228.3,431.5 229.6,430.5 231,429.3 232.6,428 234.5,426.4 236.7,424.5 239.1,422.5 241.6,420.3 244.3,418 
				246.9,415.6 249.6,413.3 252.2,411.1 254.6,408.9 256.8,407 258.8,405.2 260.7,403.6 262.4,402.1 264,400.7 265.5,399.5 
				266.8,398.3 268.2,397.1 269.4,396.1 270.7,395 271.9,394 273,393 274.2,392 275.4,391 276.6,390 277.8,389 279,387.9 
				280.3,386.9 281.5,385.8 282.8,384.7 284.2,383.5 285.5,382.4 286.8,381.2 288.2,380 289.6,378.7 290.9,377.5 292.3,376.2 
				293.6,374.9 295,373.7 296.2,372.5 297.5,371.3 298.7,370.2 299.8,369.1 300.9,368.1 302,367.1 303,366.1 303.9,365.2 
				304.9,364.3 305.8,363.4 306.6,362.6 307.5,361.7 308.3,360.9 309.1,360 309.9,359.1 310.8,358.2 311.6,357.2 312.4,356.3 
				313.2,355.2 314.1,354.2 314.9,353.1 315.8,352 316.6,350.9 317.5,349.7 318.4,348.6 319.2,347.6 320,346.5 320.9,345.5 
				321.7,344.6 322.5,343.6 323.3,342.7 324.2,341.7 325.1,340.6 326,339.4 327.1,338.1 328.2,336.7 329.3,335.2 330.5,333.6 
				331.8,332 333,330.4 334.2,328.7 335.4,327.2 336.5,325.7 337.6,324.3 338.5,323 339.4,321.8 340.3,320.6 341.1,319.5 
				341.9,318.5 342.6,317.4 343.3,316.4 344,315.4 344.7,314.5 345.3,313.5 346,312.5 346.6,311.5 347.2,310.5 347.8,309.4 
				348.4,308.4 349,307.4 349.6,306.3 350.2,305.3 350.8,304.2 351.4,303 352,301.8 352.7,300.6 353.4,299.3 354.1,297.9 
				354.8,296.5 355.6,295.1 356.4,293.6 357.2,292 358,290.5 358.8,288.9 359.6,287.3 360.4,285.7 361.2,284.1 362,282.5 362.8,281 
				363.6,279.4 364.4,277.8 365.1,276.2 365.9,274.6 366.6,273 367.3,271.4 368.1,269.8 368.8,268.1 369.5,266.5 370.2,264.9 
				370.9,263.2 371.6,261.5 372.3,259.8 373,258.1 373.7,256.4 374.4,254.7 375.1,252.9 375.8,251.1 376.5,249.3 377.2,247.5 
				377.9,245.6 378.5,243.7 379.2,241.9 379.9,240 380.5,238.1 381.2,236.2 381.8,234.3 382.5,232.4 383.1,230.5 383.7,228.7 
				384.4,226.8 385,224.9 385.7,222.9 386.3,221 387,218.9 387.7,216.8 388.4,214.6 389.1,212.3 389.8,209.9 390.6,207.6 
				391.3,205.2 392,202.8 392.8,200.5 393.5,198.3 394.2,196.1 394.9,193.9 395.6,191.9 396.2,189.9 396.8,188 397.4,186.2 
				398,184.4 398.6,182.6 399.1,181 399.6,179.3 400.2,177.7 400.7,176.1 401.2,174.5 401.7,172.8 402.2,171.2 402.7,169.5 
				403.3,167.7 403.9,165.9 404.5,164.1 405.1,162.2 405.7,160.3 406.3,158.5 406.8,156.7 407.4,154.9 407.9,153.2 408.5,151.5 
				409,149.9 409.4,148.2 409.9,146.6 410.4,145 410.9,143.4 411.4,141.8 411.9,140.1 412.4,138.4 413,136.7 413.5,135 414.1,133.2 
				414.6,131.5 415.2,129.8 415.7,128.1 416.3,126.4 416.9,124.7 417.4,123 418,121.3 418.6,119.6 419.2,117.9 419.7,116.1 
				420.3,114.2 420.9,112.3 421.5,110.3 422.1,108.2 422.7,106.2 423.3,104.1 423.9,102.1 424.5,100.1 425,98.1 425.6,96.2 
				426.1,94.3 426.6,92.5 427.1,90.8 427.6,89 428.1,87.3 428.6,85.6 429,84 429.5,82.3 430,80.7 430.5,79 430.9,77.4 431.4,75.7 
				431.9,74 432.4,72.4 432.9,70.7 433.5,69 434,67.3 434.5,65.6 435.1,63.8 435.6,62.1 436.2,60.4 436.7,58.7 437.2,56.9 
				437.8,55.2 438.3,53.5 438.8,51.9 439.3,50.3 439.8,48.7 440.3,47.3 440.8,45.9 			"/>
		</g>
		<g id="POLYLINE_2_">
			<polyline class="st0" points="79.1,597.4 83.3,596.7 87.9,595.9 92,595.2 95.8,594.6 99.2,594 102.5,593.5 105.6,592.9 
				108.7,592.4 111.8,591.9 115,591.3 118.1,590.8 121.2,590.3 124.1,589.8 127,589.3 129.6,588.8 132,588.4 134.2,587.9 
				136.2,587.6 138.1,587.2 139.9,586.8 141.7,586.4 143.5,586 145.5,585.6 147.7,585.2 150.2,584.7 152.8,584.2 155.6,583.6 
				158.6,583 161.5,582.4 164.5,581.8 167.4,581.2 170.2,580.7 172.9,580.1 175.5,579.6 177.9,579 180.3,578.5 182.6,578 
				184.9,577.5 187.1,576.9 189.4,576.4 191.8,575.9 194.1,575.3 196.5,574.7 198.8,574.2 201.1,573.6 203.2,573.1 205.3,572.6 
				207.3,572.1 209.1,571.6 210.8,571.2 212.4,570.8 214,570.4 215.7,570 217.5,569.6 219.5,569.1 221.6,568.5 224,567.9 
				226.6,567.3 229.3,566.6 232.2,565.9 235.2,565.1 238.3,564.3 241.4,563.5 244.4,562.8 247.4,562 250.3,561.3 253.1,560.5 
				255.9,559.8 258.5,559.1 261.1,558.4 263.6,557.8 266,557.1 268.4,556.5 270.6,555.9 272.7,555.3 274.7,554.7 276.6,554.2 
				278.4,553.7 280.1,553.2 281.6,552.7 283.1,552.3 284.4,551.9 285.6,551.5 286.8,551.2 288,550.8 289.3,550.4 290.5,550.1 
				291.9,549.7 293.4,549.3 294.9,548.9 296.6,548.5 298.2,548.1 299.9,547.6 301.6,547.2 303.3,546.7 304.9,546.2 306.4,545.8 
				307.8,545.3 309.3,544.8 310.7,544.3 312,543.8 313.4,543.3 314.7,542.8 316.1,542.3 317.6,541.7 319.1,541.1 320.6,540.6 
				322.2,539.9 323.8,539.3 325.4,538.6 327.1,538 328.9,537.3 330.7,536.5 332.6,535.8 334.4,535 336.3,534.3 338.2,533.5 
				340,532.7 341.8,531.9 343.5,531.1 345.1,530.4 346.6,529.6 348.1,528.9 349.5,528.2 350.8,527.5 352.1,526.8 353.3,526.2 
				354.4,525.5 355.5,524.9 356.6,524.3 357.6,523.7 358.6,523.1 359.6,522.5 360.6,521.9 361.6,521.3 362.7,520.6 363.9,519.9 
				365.1,519.2 366.3,518.4 367.5,517.6 368.8,516.8 370,516 371.2,515.2 372.4,514.4 373.5,513.6 374.6,512.8 375.7,512 
				376.8,511.2 377.9,510.4 379,509.5 380.1,508.6 381.2,507.6 382.4,506.6 383.7,505.5 384.9,504.3 386.2,503.1 387.4,501.9 
				388.7,500.7 389.9,499.6 391.1,498.4 392.2,497.3 393.3,496.2 394.3,495.2 395.3,494.2 396.3,493.2 397.2,492.2 398.2,491.3 
				399,490.4 399.9,489.6 400.8,488.7 401.6,487.9 402.5,487 403.4,486.1 404.4,485.2 405.3,484.2 406.4,483.2 407.4,482.1 
				408.6,480.9 409.7,479.6 410.9,478.4 412.1,477.1 413.3,475.9 414.4,474.6 415.5,473.4 416.5,472.3 417.5,471.2 418.4,470.2 
				419.4,469.1 420.2,468.1 421.1,467.1 422,466.2 422.9,465.2 423.8,464.1 424.7,463.1 425.7,462 426.7,461 427.7,459.8 
				428.8,458.7 429.9,457.5 431.1,456.3 432.3,455 433.5,453.7 434.7,452.5 435.9,451.2 437.1,449.9 438.2,448.8 439.3,447.6 
				440.3,446.6 441.1,445.7 441.9,444.8 442.6,444 443.3,443.2 444,442.4 444.8,441.6 445.6,440.7 446.5,439.7 447.5,438.6 
				448.6,437.4 449.8,436.2 451.1,434.9 452.3,433.5 453.6,432.2 454.8,430.9 456,429.6 457.1,428.4 458.2,427.2 459.2,426.1 
				460.2,425 461.1,423.9 462.1,422.8 463.1,421.7 464.2,420.5 465.3,419.2 466.5,417.9 467.6,416.5 468.8,415.1 470,413.7 
				471.2,412.4 472.4,411 473.5,409.7 474.5,408.5 475.5,407.3 476.4,406.2 477.4,405 478.4,403.9 479.4,402.7 480.4,401.4 
				481.6,400.1 482.8,398.7 484.1,397.2 485.5,395.6 486.9,394 488.3,392.3 489.8,390.6 491.3,389 492.7,387.3 494.1,385.7 
				495.5,384.1 496.9,382.5 498.2,381 499.6,379.4 501,377.7 502.4,376 503.8,374.3 505.3,372.5 506.8,370.6 508.4,368.7 510,366.8 
				511.7,364.7 513.4,362.7 515.1,360.7 516.8,358.6 			"/>
		</g>
		<g id="SPLINE_2_">
			<path class="st0" d="M129.5,532.3c2-1,4.2-2.1,6.7-3.3c6.4-3.2,14.8-7.5,21.2-10.9c5.9-3.1,10.3-5.6,15.4-8.4"/>
		</g>
		<g id="SPLINE_3_">
			<path class="st0" d="M178.1,506.6c4.8-2.7,10-5.7,14.4-8.3c5.6-3.2,9.8-5.8,13.7-8.1c3.9-2.3,7.4-4.5,12.4-7.7
				c1.4-0.9,3-1.9,4.6-3"/>
		</g>
		<g id="SPLINE_4_">
			<path class="st0" d="M227,477.1c2.7-1.8,5.4-3.5,7.7-5c4.8-3.1,8-5.1,11.5-7.4c3.4-2.2,7.1-4.7,10.2-6.9c3.1-2.2,5.6-4.1,8.1-5.9
				c2.5-1.8,4.9-3.4,7.3-5c0.5-0.4,1-0.7,1.5-1.1"/>
		</g>
		<g id="SPLINE_5_">
			<path class="st0" d="M276,443.9c1-0.7,2-1.4,3.1-2.2c2.7-1.9,6-4.1,8.2-5.6c2.3-1.5,3.5-2.4,5.2-3.5c1.7-1.1,3.8-2.5,5.8-3.8
				c2-1.3,3.8-2.5,5.7-3.9c1.8-1.4,3.6-2.9,5.2-4.3c1.6-1.4,3.1-2.7,4.8-4.4c1.7-1.6,3.6-3.5,5.6-5.6c0.5-0.5,1-1,1.5-1.6"/>
		</g>
		<g id="SPLINE_6_">
			<path class="st0" d="M324,406.1c0.6-0.7,1.3-1.4,1.9-2.1c2.3-2.4,4.7-5,7-7.4c2.3-2.4,4.3-4.6,6.1-6.6c1.9-2,3.5-3.8,5.5-6.2
				c2-2.3,4.2-5.2,6-7.9c1.8-2.6,3.2-5,4.8-7.5c1.6-2.5,3.5-5.1,5.2-7.7c1.8-2.5,3.4-5,5.4-8.4c1.1-1.9,2.3-4.1,3.5-6.3"/>
		</g>
		<g id="SPLINE_7_">
			<path class="st0" d="M371.9,341.9c0.2-0.3,0.3-0.6,0.5-0.9c1.9-3.8,3.4-7,5-10.3c1.5-3.3,3.1-6.7,4.8-10.6
				c1.7-3.9,3.6-8.3,5.1-11.9c1.6-3.6,2.8-6.4,4.6-10.5c1.7-4.1,4-9.5,5.8-14c1.8-4.5,3.3-8.2,4.7-11.7c1.4-3.6,2.9-7.1,4.2-10.5
				c1.3-3.4,2.5-6.6,3.6-9.7c1.2-3.1,2.4-6.2,3.7-9.8c1.3-3.7,2.7-8,4.3-12.3c0.1-0.2,0.2-0.4,0.2-0.6"/>
		</g>
		<g id="SPLINE_8_">
			<path class="st0" d="M420.2,224.3c1-2.6,2.1-5.2,3.2-7.9c1.9-4.6,3.7-9.6,5.7-15.1c2-5.5,4.2-11.7,6.3-17.3
				c2.1-5.6,4-10.7,5.6-14.8c1.6-4.1,2.9-7,4.3-10.7c1.4-3.6,3-7.9,4.4-11.9c1.5-4,2.8-7.7,4.1-11.6c1.4-3.8,2.7-7.8,4.4-12.3
				c1.6-4.5,3.5-9.6,4.9-13.5c1.4-3.9,2.3-6.7,3.6-10.4c0.2-0.7,0.5-1.3,0.7-2.1"/>
		</g>
		<g id="SPLINE_9_">
			<path class="st0" d="M469,92.3c0.7-2,1.5-4.1,2.1-6c1.4-4.1,2.6-7.5,3.7-10.9c1.1-3.4,2.2-6.9,3.4-9.9c1.1-3,2.3-5.5,3.6-9.1
				c1.2-3.3,2.4-7.5,4.1-11.5"/>
		</g>
	</g>
</g>
</svg>
