<svg xmlns="http://www.w3.org/2000/svg" viewBox="0 0 552.76 850.39"><defs><style>.cls-1,.cls-10,.cls-11,.cls-15,.cls-16,.cls-2,.cls-3,.cls-4,.cls-5,.cls-6,.cls-7,.cls-8,.cls-9{fill:none;stroke:#231f20;stroke-miterlimit:10;}.cls-1,.cls-11{stroke-width:0.75px;}.cls-1{stroke-dasharray:1 24;}.cls-2{stroke-width:0.5px;}.cls-4{stroke-width:2px;}.cls-5{stroke-dasharray:1.03 23.62;}.cls-6{stroke-dasharray:0.96 26.95;}.cls-7{stroke-dasharray:0.99 25.66;}.cls-8{stroke-dasharray:1.02 28.58;}.cls-9{stroke-dasharray:0.6 16.69;}.cls-10{stroke-width:0.25px;}.cls-11{stroke-dasharray:1 20;}.cls-12{font-size:12px;font-family:ArialMT, Arial;}.cls-12,.cls-14{fill:#231f20;}.cls-13{letter-spacing:-0.11em;}.cls-15{stroke-dasharray:0.94 26.3;}.cls-16{stroke-dasharray:0.97 27.27;}</style></defs><g id="Drawing_Layer" data-name="Drawing Layer"><g id="Image_B" data-name="Image B"><g id="Diagram"><line class="cls-1" x1="207.44" y1="530.79" x2="207.3" y2="650.88"/><line class="cls-1" x1="208.35" y1="543.57" x2="208.4" y2="659.19"/><line class="cls-2" x1="207.86" y1="528.36" x2="207.86" y2="659.19"/><polygon class="cls-3" points="169.43 456.97 161.93 471 159.21 485.92 150.18 497.37 150.18 503.75 162.68 487.42 165.4 471.84 173.75 456.95 169.43 456.97"/><polygon class="cls-3" points="123.36 577.54 119.24 578.01 120.48 571.91 129.99 552.64 129.99 562.15 124.11 573.29 123.36 577.54"/><path class="cls-3" d="M99.35,709l4.74-25.34,9.93-26.6a383.27,383.27,0,0,1,7.11-67.8l-3.63.45s-6.9,41.14-7.27,65.92l-8.89,26L95.16,710Z"/><polygon class="cls-3" points="222.4 451.67 219.93 470.43 213.17 486.67 209.98 519.61 195.81 542.13 191.96 556.49 183.04 571.88 182.48 614.95 173.1 634.75 171.31 656.53 157.71 681.49 151.14 712.8 155.17 713.32 159.87 682.43 174.79 657.18 177.04 634.66 185.67 615.14 186.67 572.54 195.62 557.52 198.44 542.69 213.08 520.36 216.48 486.78 223.42 471.49 226.53 451.67 222.4 451.67"/><polyline class="cls-4" points="181.36 706.73 193.56 677.45 210.07 656.06 216.83 633.16 227.9 617.21 236.72 574.29 247.99 559.96 253.62 546.26 272.01 527.12 280.08 494.82 289.65 480.35 299.41 451.67"/><line class="cls-3" x1="406.1" y1="455.21" x2="406.11" y2="455.71"/><line class="cls-5" x1="406.2" y1="479.33" x2="406.8" y2="640.06"/><line class="cls-3" x1="406.85" y1="651.87" x2="406.85" y2="652.37"/><line class="cls-3" x1="307.04" y1="454.74" x2="307.05" y2="455.24"/><line class="cls-6" x1="307.14" y1="482.19" x2="307.77" y2="664.08"/><line class="cls-3" x1="307.81" y1="677.55" x2="307.82" y2="678.05"/><line class="cls-3" x1="354.22" y1="453.76" x2="354.22" y2="454.26"/><line class="cls-7" x1="354.31" y1="479.92" x2="354.91" y2="653.62"/><line class="cls-3" x1="354.95" y1="666.45" x2="354.95" y2="666.95"/><line class="cls-3" x1="259.49" y1="451.67" x2="259.49" y2="452.17"/><line class="cls-8" x1="259.57" y1="480.75" x2="260.15" y2="673.67"/><line class="cls-3" x1="260.2" y1="687.96" x2="260.2" y2="688.46"/><line class="cls-3" x1="207.96" y1="660.62" x2="207.97" y2="661.12"/><line class="cls-9" x1="208.32" y1="677.81" x2="208.51" y2="686.75"/><line class="cls-3" x1="208.68" y1="695.1" x2="208.69" y2="695.6"/><line class="cls-3" x1="64.52" y1="596.56" x2="64.86" y2="717.54"/><line class="cls-3" x1="186.42" y1="457.48" x2="186.92" y2="565.78"/><polygon class="cls-3" points="85.32 721.97 77.81 723.75 77.81 457.48 85.32 457.48 85.32 721.97"/><polygon class="cls-3" points="150.18 707.31 142.68 708.99 142.68 457.48 150.18 457.48 150.18 707.31"/><polyline class="cls-3" points="201.57 532.68 201.5 456.95 207.74 456.95 207.8 522.74"/><polygon class="cls-3" points="85.41 587.11 142.72 580.48 142.63 586.52 85.32 593.78 85.41 587.11"/><line class="cls-3" x1="85.34" y1="581.84" x2="130" y2="576.79"/><polygon class="cls-3" points="150.27 579.34 182.72 575.8 182.64 581.83 150.18 586 150.27 579.34"/><polygon class="cls-3" points="130 576.79 130.25 457.48 142.68 457.48 142.68 580.48 130 576.79"/><polyline class="cls-3" points="151.14 712.55 60.8 734.32 47.56 727.4 47.65 721.96 64.86 717.54 77.74 724.16"/><polyline class="cls-3" points="47.65 721.96 60.55 727.82 77.74 724.16 142.68 708.99 128.99 702.79 85.32 712.05"/><line class="cls-3" x1="129.99" y1="588.12" x2="130.24" y2="703.35"/><polyline class="cls-3" points="77.81 594.78 60.11 596.56 47.14 593.04 47.14 586.8 64.18 585.05 77.81 587.95"/><polyline class="cls-3" points="78.31 588.07 60.6 589.85 47.14 586.8"/><line class="cls-3" x1="150.18" y1="574.29" x2="182.72" y2="570.78"/><line class="cls-3" x1="60.8" y1="734.32" x2="60.8" y2="727.76"/><line class="cls-3" x1="64.69" y1="457.48" x2="65.18" y2="585.05"/><line class="cls-3" x1="60.11" y1="589.9" x2="60.11" y2="596.56"/><polyline class="cls-3" points="61.24 451.42 46.78 451.42 46.78 457.48 60.73 457.48"/><line class="cls-3" x1="150.18" y1="697.66" x2="154.02" y2="697.16"/><polyline class="cls-3" points="428.6 649.61 182.72 707.51 179.77 706.96 155.64 713.32"/><polyline class="cls-2" points="428.31 449.33 428.38 559.64 433.38 562.35 424.25 562.53 428.38 564.56 428.5 653.02"/><polyline class="cls-3" points="222.41 456.69 60.8 457.46 60.8 451.49 428.81 451.17"/><g id="Layer_7" data-name="Layer 7"><line class="cls-10" x1="242.93" y1="566.4" x2="428.37" y2="544.58"/><line class="cls-10" x1="236.72" y1="577.7" x2="428.32" y2="555.16"/><line class="cls-11" x1="428.25" y1="548.66" x2="237.84" y2="572.14"/><line class="cls-11" x1="420.18" y1="550.81" x2="237.96" y2="573.34"/><line class="cls-2" x1="428.32" y1="549.21" x2="237.96" y2="572.72"/></g></g><g id="Index"><g id="Layer_12" data-name="Layer 12"><text class="cls-12" transform="translate(171.63 774.97)">(b) Second layer positioned horizontally</text></g></g></g><g id="Image_A" data-name="Image A"><g id="Index-2" data-name="Index"><g id="Layer_14" data-name="Layer 14"><text class="cls-12" transform="translate(455.9 248.66)"><tspan class="cls-13">T</tspan><tspan x="6" y="0">ape and </tspan><tspan x="0" y="14.4">set joints</tspan></text><text class="cls-12" transform="translate(343.04 314.73)">Stagger fixings</text><text class="cls-12" transform="translate(292.68 342.98)">Stagger sheet joints </text><text class="cls-12" transform="translate(227.99 138.7) rotate(-90)">200 mm</text><text class="cls-12" transform="translate(376.81 171.34) rotate(-90)">200 mm</text><text class="cls-12" transform="translate(324.28 138.7) rotate(-90)">300 mm</text><text class="cls-12" transform="translate(248.43 117.76) rotate(-90)">300 <tspan x="0" y="14.4">mm</tspan></text><line class="cls-10" x1="212.52" y1="156.25" x2="235.63" y2="156.25"/><line class="cls-10" x1="367.34" y1="177.26" x2="398.74" y2="177.26"/><line class="cls-10" x1="212.52" y1="181.05" x2="235.63" y2="181.05"/><line class="cls-10" x1="367.34" y1="199.86" x2="398.74" y2="199.86"/><line class="cls-10" x1="236.87" y1="94.97" x2="259.99" y2="94.97"/><line class="cls-10" x1="309.28" y1="175.6" x2="339.29" y2="175.6"/><line class="cls-10" x1="309.28" y1="148.64" x2="339.29" y2="148.64"/><line class="cls-10" x1="237.23" y1="123.27" x2="260.34" y2="123.27"/><line class="cls-10" x1="229.85" y1="96.09" x2="229.85" y2="148.28"/><polygon class="cls-14" points="226.95 146.29 229.85 157.13 232.76 146.29 226.95 146.29"/><line class="cls-10" x1="252.5" y1="70.97" x2="252.5" y2="86.29"/><polygon class="cls-14" points="249.6 84.31 252.5 95.15 255.41 84.31 249.6 84.31"/><line class="cls-10" x1="330.4" y1="92.29" x2="330.4" y2="141.92"/><polygon class="cls-14" points="327.5 139.94 330.4 150.78 333.31 139.94 327.5 139.94"/><line class="cls-10" x1="330.4" y1="198.38" x2="330.4" y2="183.06"/><polygon class="cls-14" points="333.31 185.04 330.4 174.2 327.5 185.04 333.31 185.04"/><line class="cls-10" x1="252.5" y1="147.98" x2="252.5" y2="132.67"/><polygon class="cls-14" points="255.41 134.65 252.5 123.81 249.6 134.65 255.41 134.65"/><line class="cls-10" x1="229.85" y1="242.1" x2="229.85" y2="189.91"/><polygon class="cls-14" points="232.76 191.89 229.85 181.05 226.95 191.89 232.76 191.89"/><line class="cls-10" x1="229.85" y1="181.05" x2="229.85" y2="157.13"/><line class="cls-10" x1="252.5" y1="123.27" x2="252.5" y2="94.8"/><line class="cls-10" x1="330.4" y1="175.01" x2="330.4" y2="148.64"/><line class="cls-10" x1="387.93" y1="118.87" x2="387.93" y2="168.5"/><polygon class="cls-14" points="385.02 166.52 387.93 177.36 390.83 166.52 385.02 166.52"/><line class="cls-10" x1="387.93" y1="223.43" x2="387.93" y2="208.11"/><polygon class="cls-14" points="390.83 210.09 387.93 199.25 385.02 210.09 390.83 210.09"/><line class="cls-10" x1="387.93" y1="200.45" x2="387.93" y2="177.85"/><polyline class="cls-10" points="212.69 227.48 268.82 340.01 287.74 339.42"/><polygon class="cls-14" points="210.97 230.55 208.73 219.55 216.17 227.95 210.97 230.55"/><line class="cls-10" x1="266.24" y1="286.97" x2="292.68" y2="328.87"/><polygon class="cls-14" points="264.84 290.19 261.52 279.47 269.76 287.09 264.84 290.19"/><line class="cls-10" x1="269.95" y1="258.75" x2="339.29" y2="309.35"/><polygon class="cls-14" points="269.84 262.27 262.79 253.53 273.26 257.58 269.84 262.27"/><line class="cls-10" x1="274.87" y1="234.06" x2="451.33" y2="253.53"/><polygon class="cls-14" points="276.52 237.17 266.07 233.09 277.16 231.39 276.52 237.17"/><line class="cls-10" x1="366.7" y1="213.14" x2="451.33" y2="253.53"/><polygon class="cls-14" points="367.23 216.62 358.7 209.33 369.74 211.38 367.23 216.62"/><text class="cls-12" transform="translate(172.52 396.31)">(a) Second layer positioned vertically</text></g></g><g id="Diagram-2" data-name="Diagram"><polygon class="cls-3" points="169.99 68.91 162.49 82.94 159.77 97.86 150.75 109.31 150.75 115.69 163.25 99.36 165.97 83.78 174.32 68.89 169.99 68.91"/><polygon class="cls-3" points="123.92 189.48 119.81 189.95 121.05 183.85 130.56 164.58 130.56 174.09 124.67 185.23 123.92 189.48"/><path class="cls-3" d="M99.91,320.92l4.74-25.33,9.93-26.6a382.68,382.68,0,0,1,7.12-67.8l-3.64.45s-6.9,41.14-7.27,65.92l-8.89,26L95.73,321.9Z"/><polygon class="cls-3" points="222.96 63.6 220.49 82.37 213.73 98.61 210.54 131.55 196.37 154.07 192.52 168.43 183.61 183.82 183.05 226.89 173.66 246.69 171.88 268.47 158.27 293.43 151.7 324.74 155.74 325.26 160.43 294.37 175.35 269.12 177.6 246.6 186.24 227.08 187.24 184.47 196.18 169.46 199 154.63 213.64 132.3 217.04 98.72 223.99 83.43 227.1 63.6 222.96 63.6"/><polyline class="cls-4" points="181.92 318.67 194.12 289.39 210.64 268 217.39 245.1 228.47 229.15 237.29 186.23 248.55 171.9 254.18 158.2 272.57 139.06 280.64 106.76 290.22 92.29 299.98 63.6"/><line class="cls-10" x1="266.07" y1="145.83" x2="266.07" y2="299.95"/><line class="cls-10" x1="360.66" y1="63.18" x2="360.66" y2="276.95"/><line class="cls-10" x1="350.4" y1="63.36" x2="350.4" y2="279.32"/><line class="cls-10" x1="256.06" y1="156.25" x2="256.06" y2="301.83"/><line class="cls-3" x1="406.67" y1="67.15" x2="406.67" y2="67.65"/><line class="cls-5" x1="406.76" y1="91.27" x2="407.37" y2="252"/><line class="cls-3" x1="407.41" y1="263.81" x2="407.41" y2="264.31"/><line class="cls-3" x1="307.61" y1="66.68" x2="307.61" y2="67.18"/><line class="cls-15" x1="307.7" y1="93.48" x2="308.31" y2="270.97"/><line class="cls-3" x1="308.36" y1="284.12" x2="308.36" y2="284.62"/><line class="cls-3" x1="260.05" y1="66.61" x2="260.06" y2="67.11"/><line class="cls-16" x1="260.28" y1="94.37" x2="260.64" y2="137.22"/><line class="cls-3" x1="260.76" y1="150.85" x2="260.76" y2="151.35"/><line class="cls-3" x1="208.52" y1="272.56" x2="208.53" y2="273.06"/><line class="cls-9" x1="208.88" y1="289.75" x2="209.07" y2="298.69"/><line class="cls-3" x1="209.25" y1="307.04" x2="209.26" y2="307.54"/><line class="cls-3" x1="65.08" y1="208.5" x2="65.43" y2="329.48"/><line class="cls-3" x1="186.99" y1="69.42" x2="187.49" y2="177.72"/><polygon class="cls-3" points="85.89 333.91 78.38 335.69 78.38 69.42 85.89 69.42 85.89 333.91"/><polygon class="cls-3" points="150.75 319.25 143.24 320.92 143.24 69.42 150.75 69.42 150.75 319.25"/><polyline class="cls-3" points="202.13 144.62 202.06 68.89 208.3 68.89 208.36 134.68"/><polygon class="cls-3" points="85.97 199.05 143.28 192.42 143.2 198.46 85.89 205.72 85.97 199.05"/><line class="cls-3" x1="85.91" y1="193.78" x2="130.56" y2="188.73"/><polygon class="cls-3" points="150.84 191.28 183.29 187.74 183.2 193.77 150.75 197.94 150.84 191.28"/><polygon class="cls-3" points="130.56 188.73 130.81 69.42 143.24 69.42 143.24 192.42 130.56 188.73"/><polyline class="cls-3" points="151.7 324.49 61.36 346.26 48.12 339.34 48.21 333.9 65.43 329.48 78.31 336.1"/><polyline class="cls-3" points="48.21 333.9 61.11 339.75 78.31 336.1 143.24 320.92 129.56 314.73 85.89 323.99"/><line class="cls-3" x1="130.56" y1="200.06" x2="130.8" y2="315.29"/><polyline class="cls-3" points="78.38 206.72 60.67 208.5 47.71 204.98 47.71 198.74 64.74 196.99 78.38 199.89"/><polyline class="cls-3" points="78.87 200.01 61.17 201.79 47.71 198.74"/><line class="cls-3" x1="150.75" y1="186.23" x2="183.29" y2="182.72"/><line class="cls-3" x1="61.36" y1="346.26" x2="61.36" y2="339.7"/><line class="cls-3" x1="65.26" y1="69.42" x2="65.74" y2="196.99"/><line class="cls-3" x1="60.67" y1="201.84" x2="60.67" y2="208.5"/><polyline class="cls-3" points="61.8 63.35 47.35 63.35 47.35 69.42 61.29 69.42"/><line class="cls-3" x1="150.75" y1="309.6" x2="154.58" y2="309.1"/><line class="cls-11" x1="354.6" y1="62.76" x2="354.41" y2="276.45"/><line class="cls-11" x1="355.72" y1="73.04" x2="355.78" y2="278.23"/><line class="cls-2" x1="355.16" y1="63.7" x2="355.16" y2="278.23"/><polyline class="cls-3" points="429.16 261.55 183.29 319.44 180.34 318.9 156.21 325.26"/><polyline class="cls-2" points="428.87 60.27 428.94 166.58 428.94 166.58 433.94 169.28 424.81 169.47 428.94 171.5 429.06 263.96"/><polyline class="cls-3" points="222.98 68.63 61.36 69.4 61.36 63.43 429.38 63.1"/><line class="cls-1" x1="260.27" y1="165.53" x2="260.09" y2="300.65"/><line class="cls-1" x1="261.63" y1="151.75" x2="261.4" y2="300.65"/><line class="cls-2" x1="260.78" y1="153.52" x2="260.78" y2="300.65"/><line class="cls-1" x1="207.56" y1="142.97" x2="207.42" y2="263.06"/><line class="cls-1" x1="208.47" y1="155.75" x2="208.52" y2="271.38"/><line class="cls-2" x1="207.98" y1="140.54" x2="207.98" y2="271.38"/></g></g></g></svg>