<?xml version="1.0" encoding="utf-8"?>
<!-- Generator: Adobe Illustrator 25.2.1, SVG Export Plug-In . SVG Version: 6.00 Build 0)  -->
<svg version="1.1" id="v1_x5F_SpecD3-10-5a_x5F_2011-ORIGINAL_xA0_Image_1_"
	 xmlns="http://www.w3.org/2000/svg" xmlns:xlink="http://www.w3.org/1999/xlink" x="0px" y="0px" viewBox="0 0 552.8 226.8"
	 style="enable-background:new 0 0 552.8 226.8;" xml:space="preserve">
<style type="text/css">
	.st0{fill-rule:evenodd;clip-rule:evenodd;fill:none;}
	.st1{clip-path:url(#SVGID_2_);fill:none;stroke:#231F20;stroke-width:0.5;stroke-linejoin:round;}
	.st2{fill:none;stroke:#000000;stroke-miterlimit:10;}
	.st3{fill:none;stroke:#000000;stroke-miterlimit:10;stroke-dasharray:12,12;}
	.st4{fill:none;}
	.st5{fill:none;stroke:#000000;stroke-width:0.75;stroke-miterlimit:10;}
	.st6{fill:none;stroke:#000000;stroke-width:0.25;stroke-miterlimit:10;}
	.st7{fill:url(#SVGID_3_);}
	.st8{fill:#C7C8CA;stroke:#000000;stroke-miterlimit:10;}
	.st9{fill:#FFFFFF;stroke:#000000;stroke-width:0.75;stroke-miterlimit:10;stroke-dasharray:6,6;}
	.st10{fill:#C7C8CA;}
	.st11{font-family:'ArialMT';}
	.st12{font-size:12px;}
</style>
<pattern  x="-574" y="963.8" width="72" height="72" patternUnits="userSpaceOnUse" id="diagonal_cross_hatch" viewBox="6.2 -86.2 72 72" style="overflow:visible;">
	<g>
		<rect x="6.2" y="-86.2" class="st0" width="72" height="72"/>
		<g>
			<defs>
				<rect id="SVGID_1_" x="6.2" y="-86.2" width="72" height="72"/>
			</defs>
			<clipPath id="SVGID_2_">
				<use xlink:href="#SVGID_1_"  style="overflow:visible;"/>
			</clipPath>
			<line class="st1" x1="0.2" y1="-74.2" x2="18.2" y2="-92.2"/>
			<line class="st1" x1="0.2" y1="-68.2" x2="24.2" y2="-92.2"/>
			<line class="st1" x1="0.2" y1="-62.2" x2="30.2" y2="-92.2"/>
			<line class="st1" x1="0.2" y1="-56.2" x2="36.2" y2="-92.2"/>
			<line class="st1" x1="0.2" y1="-50.2" x2="42.2" y2="-92.2"/>
			<line class="st1" x1="0.2" y1="-44.2" x2="48.2" y2="-92.2"/>
			<line class="st1" x1="0.2" y1="-38.2" x2="54.2" y2="-92.2"/>
			<line class="st1" x1="0.2" y1="-32.2" x2="60.2" y2="-92.2"/>
			<line class="st1" x1="0.2" y1="-26.2" x2="66.2" y2="-92.2"/>
			<line class="st1" x1="0.2" y1="-20.2" x2="72.2" y2="-92.2"/>
			<line class="st1" x1="0.2" y1="-14.2" x2="78.2" y2="-92.2"/>
			<line class="st1" x1="0.2" y1="-8.2" x2="84.2" y2="-92.2"/>
			<line class="st1" x1="6.2" y1="-8.2" x2="84.2" y2="-86.2"/>
			<line class="st1" x1="12.2" y1="-8.2" x2="84.2" y2="-80.2"/>
			<line class="st1" x1="18.2" y1="-8.2" x2="84.2" y2="-74.2"/>
			<line class="st1" x1="24.2" y1="-8.2" x2="84.2" y2="-68.2"/>
			<line class="st1" x1="30.2" y1="-8.2" x2="84.2" y2="-62.2"/>
			<line class="st1" x1="36.2" y1="-8.2" x2="84.2" y2="-56.2"/>
			<line class="st1" x1="42.2" y1="-8.2" x2="84.2" y2="-50.2"/>
			<line class="st1" x1="48.2" y1="-8.2" x2="84.2" y2="-44.2"/>
			<line class="st1" x1="54.2" y1="-8.2" x2="84.2" y2="-38.2"/>
			<line class="st1" x1="52.2" y1="-0.2" x2="94.2" y2="-42.2"/>
			<line class="st1" x1="58.2" y1="-0.2" x2="94.2" y2="-36.2"/>
			<line class="st1" x1="64.2" y1="-0.2" x2="94.2" y2="-30.2"/>
		</g>
	</g>
</pattern>
<line class="st2" x1="114.1" y1="90.8" x2="446.6" y2="90.8"/>
<rect x="212.5" y="90.8" class="st3" width="134" height="72.5"/>
<g>
	<g>
		<path class="st4" d="M150,128.7"/>
	</g>
</g>
<line class="st5" x1="367" y1="163.3" x2="381" y2="163.3"/>
<line class="st5" x1="212.5" y1="183" x2="212.5" y2="197"/>
<line class="st5" x1="346.5" y1="183" x2="346.5" y2="197"/>
<g>
	<g>
		<g>
			<g>
				<line class="st6" x1="150" y1="159" x2="150" y2="145.9"/>
				<g>
					<polygon points="152.2,157.5 150,165.6 147.8,157.5 					"/>
				</g>
			</g>
		</g>
	</g>
	<g>
		<g>
			<g>
				<line class="st6" x1="150" y1="98.4" x2="150" y2="111.8"/>
				<g>
					<polygon points="147.8,99.9 150,91.8 152.2,99.9 					"/>
				</g>
			</g>
		</g>
	</g>
	<g>
		<g>
			<g>
				<line class="st6" x1="112.3" y1="128.7" x2="125.5" y2="128.7"/>
				<g>
					<polygon points="113.8,130.9 105.7,128.7 113.8,126.5 					"/>
				</g>
			</g>
		</g>
	</g>
	<g>
		<g>
			<g>
				<line class="st6" x1="186.8" y1="128.7" x2="173.8" y2="128.7"/>
				<g>
					<polygon points="185.4,126.5 193.5,128.7 185.4,130.9 					"/>
				</g>
			</g>
		</g>
	</g>
	<g>
		<g>
			<g>
				<line class="st6" x1="373.6" y1="97.4" x2="373.6" y2="156.6"/>
				<g>
					<polygon points="371.5,98.9 373.6,90.8 375.8,98.9 					"/>
				</g>
				<g>
					<polygon points="371.5,155.2 373.6,163.3 375.8,155.2 					"/>
				</g>
			</g>
		</g>
	</g>
	<g>
		<g>
			<g>
				<line class="st6" x1="339.8" y1="189.7" x2="219.6" y2="189.7"/>
				<g>
					<polygon points="338.4,187.5 346.5,189.7 338.4,191.8 					"/>
				</g>
				<g>
					<polygon points="221.1,187.5 213,189.7 221.1,191.8 					"/>
				</g>
			</g>
		</g>
	</g>
	<g>
		<g>
			<g>
				<polyline class="st6" points="260.5,140.4 202.8,181.8 195,181.8 				"/>
				<g>
					<polygon points="258,139.5 265.8,136.6 260.5,143.1 					"/>
				</g>
			</g>
		</g>
	</g>
	<g>
		<g>
			<g>
				<polyline class="st6" points="288.3,122.2 357.4,181.3 365,181.3 				"/>
				<g>
					<polygon points="288.1,124.8 283.3,117.9 290.9,121.5 					"/>
				</g>
			</g>
		</g>
	</g>
</g>
<pattern  id="SVGID_3_" xlink:href="#diagonal_cross_hatch" patternTransform="matrix(1 0 0 1 70.9619 -130.1632)">
</pattern>
<rect x="212.5" y="90.8" class="st7" width="134" height="72.5"/>
<rect x="275.4" y="90.8" class="st8" width="7.9" height="27.3"/>
<rect x="265.8" y="108.8" class="st9" width="27.2" height="27.2"/>
<rect x="114.1" y="29.6" class="st10" width="332.5" height="61.2"/>
<g>
	<text transform="matrix(1 0 0 1 264.2923 62.411)" class="st11 st12">Water</text>
	<text transform="matrix(1 0 0 1 137.9739 125.4113)"><tspan x="0" y="0" class="st11 st12">Pool </tspan><tspan x="-11.7" y="14.4" class="st11 st12">surround</tspan></text>
	<text transform="matrix(1 0 0 1 104.2871 183.7446)" class="st11 st12">Location of sling</text>
	<text transform="matrix(1 0 0 1 367.9746 183.7446)" class="st11 st12">Sling lift</text>
	<text transform="matrix(1 0 0 1 241.9326 187.078)" class="st11 st12">1300 mm min.</text>
	<text transform="matrix(0 -1 1 0 370.9826 148.7046)"><tspan x="0" y="0" class="st11 st12">900 mm</tspan><tspan x="10.3" y="14.4" class="st11 st12">min.</tspan></text>
</g>
</svg>
