<?xml version="1.0" encoding="utf-8"?>
<!-- Generator: Adobe Illustrator 25.2.1, SVG Export Plug-In . SVG Version: 6.00 Build 0)  -->
<svg version="1.1" xmlns="http://www.w3.org/2000/svg" xmlns:xlink="http://www.w3.org/1999/xlink" x="0px" y="0px"
	 viewBox="0 0 552.8 552.8" style="enable-background:new 0 0 552.8 552.8;" xml:space="preserve">
<style type="text/css">
	.st0{fill:none;stroke:#231F20;stroke-miterlimit:10;}
	.st1{fill:#231F20;}
	.st2{font-family:'ArialMT';}
	.st3{font-size:12px;}
	.st4{fill:none;stroke:#231F20;stroke-width:0.75;stroke-miterlimit:10;}
</style>
<g id="LINE_35">
</g>
<g id="LINE_18">
</g>
<g id="LINE_50">
	<g>
		<polyline class="st0" points="356.4,43.1 511.1,43.1 511.1,511.5 41.4,511.5 41.4,43.1 232.1,43.1 		"/>
		<path class="st0" d="M232.1,29.6H28.3v1.2V524h495.7V29.6H356.4v13v124.3c-68.6,0-124.3-55.7-124.3-124.3V29.6"/>
	</g>
</g>
<g id="TXT25">
	<g id="MTEXT">
		<g>
			<text transform="matrix(1 0 0 1 267.6599 276.1923)"><tspan x="0" y="0" class="st1 st2 st3">Sanitary</tspan><tspan x="-13" y="14.4" class="st1 st2 st3">compartment</tspan></text>
		</g>
	</g>
	<g>
		<g>
			<g>
				<g>
					<g id="SPLINE_90_">
						<path class="st4" d="M475.3,403.5c-1.7-0.2-4.6-0.5-6.2-0.9c-2.1-0.6-4.2-1.3-6.1-2.3c-1.1-0.6-2.2-1.2-3.4-1.8
							c-1.5-0.8-3-1.5-4.5-2.1c-3.9-1.7-7.9-3.1-12.1-4c-1.5-0.3-3-0.6-4.5-0.9"/>
					</g>
					<g id="SPLINE_89_">
						<path class="st4" d="M380.8,428.4c0.2,0.7,0.3,1.5,0.5,2.2c0.2,0.7,0.5,1.5,0.7,2.2"/>
					</g>
					<g id="SPLINE_88_">
						<path class="st4" d="M437.1,457.8c0.5-0.1,1-0.1,1.5-0.2c1.5-0.2,3-0.5,4.5-0.9c4.1-1,8.2-2.3,12.1-4c1.5-0.7,3-1.4,4.5-2.1
							c1.1-0.6,2.2-1.2,3.4-1.8c1.6-0.8,3.3-1.4,5.1-2c2-0.6,5.2-1,7.3-1.3"/>
					</g>
					<g id="SPLINE_87_">
						<path class="st4" d="M413.5,393.3c-12.8,3.8-24.7,11.5-29.3,18.7"/>
					</g>
					<g id="SPLINE_86_">
						<path class="st4" d="M384.2,412.1c-1.1,1.7-2,3.5-2.5,5.1"/>
					</g>
					<g id="SPLINE_85_">
						<path class="st4" d="M381.7,417.1c-1.2,3.7-1.5,7.6-0.9,11.3"/>
					</g>
					<g id="SPLINE_84_">
						<path class="st4" d="M382,432.8c0.9,2.4,2.2,4.6,3.8,6.4"/>
					</g>
					<g id="SPLINE_83_">
						<path class="st4" d="M385.8,439.2c6.1,7.6,20.4,15.4,32.8,17.8"/>
					</g>
					<g id="SPLINE_82_">
						<path class="st4" d="M418.5,457c6.7,1.4,13.1,1.6,18.6,0.7"/>
					</g>
					<g id="SPLINE_81_">
						<path class="st4" d="M438.6,391.5c-3.9-0.7-16.1-1.4-25.1,1.8"/>
					</g>
				</g>
				<rect x="475.4" y="386.8" class="st4" width="35.7" height="75.6"/>
				<path class="st4" d="M385.7,424.6c0-19.8,30.8-28.5,46.5-28.5c15.8,0,31.1,12.8,31.1,28.5c0,15.8-15.3,28.5-31.1,28.5
					C416.5,453.1,385.7,444.3,385.7,424.6z"/>
			</g>
		</g>
		<g>
			<g>
				<g id="ELLIPSE_9_">
					<path class="st4" d="M160.1,397.5c2.6,0,4.7-2.1,4.7-4.7c0-2.6-2.1-4.7-4.7-4.7c-2.6,0-4.7,2.1-4.7,4.7
						C155.3,395.4,157.5,397.5,160.1,397.5L160.1,397.5z"/>
				</g>
				<rect x="41.4" y="359.5" class="st4" width="151.9" height="151.9"/>
				<path class="st4" d="M50.7,488.8V382.2c0-7.4,6-13.4,13.4-13.4h106.5c7.4,0,13.4,6,13.4,13.4v106.5c0,7.4-6,13.4-13.4,13.4H64.1
					C56.7,502.2,50.7,496.2,50.7,488.8z"/>
			</g>
		</g>
		<g>
			<g>
				<g id="CIRCLE_27_">
					<path class="st4" d="M485.6,254.8c1.9,0,3.4,1.5,3.4,3.4c0,1.9-1.5,3.4-3.4,3.4c-1.9,0-3.4-1.5-3.4-3.4
						C482.2,256.3,483.7,254.8,485.6,254.8L485.6,254.8z"/>
				</g>
				<g>
					<g id="CIRCLE_26_">
						<path class="st4" d="M500.5,241.2c1.2,0,2.2,1,2.2,2.2c0,1.2-1,2.2-2.2,2.2s-2.2-1-2.2-2.2
							C498.3,242.2,499.3,241.2,500.5,241.2L500.5,241.2z"/>
					</g>
					<g id="CIRCLE_25_">
						<path class="st4" d="M500.5,270.8c1.2,0,2.2,1,2.2,2.2c0,1.2-1,2.2-2.2,2.2s-2.2-1-2.2-2.2
							C498.3,271.8,499.3,270.8,500.5,270.8L500.5,270.8z"/>
					</g>
				</g>
				<ellipse class="st4" cx="467.5" cy="258.2" rx="24.9" ry="39.7"/>
				<path class="st4" d="M464.8,213c-25.5,0-27.5,30.1-27.5,45.3c0,15.2,2.7,45.3,27.5,45.3h46.1V213H464.8z"/>
			</g>
		</g>
		<g>
			<g>
				<path class="st4" d="M101.4,76.1c2.4,0,4.3-1.9,4.3-4.3c0-2.4-1.9-4.3-4.3-4.3s-4.3,1.9-4.3,4.3C97.1,74.2,99,76.1,101.4,76.1
					L101.4,76.1z"/>
				<rect x="41.4" y="43.1" class="st4" width="120.1" height="269.9"/>
				<path class="st4" d="M51,256.2V74.8c0-12.5,10.1-22.6,22.6-22.6h55.6c12.5,0,22.6,10.1,22.6,22.6v181.4
					c0,27.9-22.6,50.4-50.4,50.4h0C73.6,306.6,51,284,51,256.2z"/>
			</g>
		</g>
	</g>
</g>
</svg>
