<?xml version="1.0" encoding="utf-8"?>
<!-- Generator: Adobe Illustrator 25.2.1, SVG Export Plug-In . SVG Version: 6.00 Build 0)  -->
<svg version="1.1" id="_x30_" xmlns="http://www.w3.org/2000/svg" xmlns:xlink="http://www.w3.org/1999/xlink" x="0px" y="0px"
	 viewBox="0 0 552.8 375.6" style="enable-background:new 0 0 552.8 375.6;" xml:space="preserve">
<style type="text/css">
	.st0{fill-rule:evenodd;clip-rule:evenodd;fill:none;}
	.st1{clip-path:url(#SVGID_2_);fill:none;stroke:#221F1F;stroke-width:0.5;stroke-linejoin:round;}
	.st2{fill-rule:evenodd;clip-rule:evenodd;fill:#C7C8CA;}
	.st3{fill:url(#SVGID_3_);}
	.st4{fill-rule:evenodd;clip-rule:evenodd;fill:url(#SVGID_4_);}
	.st5{fill:url(#SVGID_5_);}
	.st6{fill:#FFFFFF;stroke:#231F20;stroke-miterlimit:10;}
	.st7{fill:none;stroke:#231F20;stroke-miterlimit:10;}
	.st8{fill:none;stroke:#231F20;stroke-width:0.25;stroke-miterlimit:10;}
	.st9{fill:#231F20;}
	.st10{font-family:'ArialMT';}
	.st11{font-size:12px;}
	.st12{font-family:'Arial-BoldMT';}
</style>
<pattern  x="-1140.9" y="1880.1" width="72" height="72" patternUnits="userSpaceOnUse" id="diagonal_cross_hatch" viewBox="6.2 -86.2 72 72" style="overflow:visible;">
	<g>
		<rect x="6.2" y="-86.2" class="st0" width="72" height="72"/>
		<g>
			<defs>
				<rect id="SVGID_1_" x="6.2" y="-86.2" width="72" height="72"/>
			</defs>
			<clipPath id="SVGID_2_">
				<use xlink:href="#SVGID_1_"  style="overflow:visible;"/>
			</clipPath>
			<line class="st1" x1="0.2" y1="-74.2" x2="18.2" y2="-92.2"/>
			<line class="st1" x1="0.2" y1="-68.2" x2="24.2" y2="-92.2"/>
			<line class="st1" x1="0.2" y1="-62.2" x2="30.2" y2="-92.2"/>
			<line class="st1" x1="0.2" y1="-56.2" x2="36.2" y2="-92.2"/>
			<line class="st1" x1="0.2" y1="-50.2" x2="42.2" y2="-92.2"/>
			<line class="st1" x1="0.2" y1="-44.2" x2="48.2" y2="-92.2"/>
			<line class="st1" x1="0.2" y1="-38.2" x2="54.2" y2="-92.2"/>
			<line class="st1" x1="0.2" y1="-32.2" x2="60.2" y2="-92.2"/>
			<line class="st1" x1="0.2" y1="-26.2" x2="66.2" y2="-92.2"/>
			<line class="st1" x1="0.2" y1="-20.2" x2="72.2" y2="-92.2"/>
			<line class="st1" x1="0.2" y1="-14.2" x2="78.2" y2="-92.2"/>
			<line class="st1" x1="0.2" y1="-8.2" x2="84.2" y2="-92.2"/>
			<line class="st1" x1="6.2" y1="-8.2" x2="84.2" y2="-86.2"/>
			<line class="st1" x1="12.2" y1="-8.2" x2="84.2" y2="-80.2"/>
			<line class="st1" x1="18.2" y1="-8.2" x2="84.2" y2="-74.2"/>
			<line class="st1" x1="24.2" y1="-8.2" x2="84.2" y2="-68.2"/>
			<line class="st1" x1="30.2" y1="-8.2" x2="84.2" y2="-62.2"/>
			<line class="st1" x1="36.2" y1="-8.2" x2="84.2" y2="-56.2"/>
			<line class="st1" x1="42.2" y1="-8.2" x2="84.2" y2="-50.2"/>
			<line class="st1" x1="48.2" y1="-8.2" x2="84.2" y2="-44.2"/>
			<line class="st1" x1="54.2" y1="-8.2" x2="84.2" y2="-38.2"/>
			<line class="st1" x1="52.2" y1="-0.2" x2="94.2" y2="-42.2"/>
			<line class="st1" x1="58.2" y1="-0.2" x2="94.2" y2="-36.2"/>
			<line class="st1" x1="64.2" y1="-0.2" x2="94.2" y2="-30.2"/>
		</g>
	</g>
</pattern>
<g id="HATCH">
	<rect x="106.9" y="89.9" class="st2" width="95.7" height="37.2"/>
</g>
<g>
	<g id="POLYLINE_1_">
		<pattern  id="SVGID_3_" xlink:href="#diagonal_cross_hatch" patternTransform="matrix(1 0 0 1 37.2604 -39.3025)">
		</pattern>
		<rect x="89.2" y="146" class="st3" width="96.3" height="77.9"/>
	</g>
	<g>
		<g id="HATCH_1_">
			<pattern  id="SVGID_4_" xlink:href="#diagonal_cross_hatch" patternTransform="matrix(1 0 0 1 37.2604 -39.3025)">
			</pattern>
			<rect x="383.3" y="86.1" class="st4" width="38.3" height="27.6"/>
		</g>
	</g>
	<g id="POLYLINE_17_">
		<pattern  id="SVGID_5_" xlink:href="#diagonal_cross_hatch" patternTransform="matrix(1 0 0 1 37.2604 -39.3025)">
		</pattern>
		<rect x="358" y="126.1" class="st5" width="70.4" height="95.2"/>
	</g>
</g>
<g>
	<g id="POLYLINE_8_">
		<g>
			<rect x="111.8" y="158.1" class="st6" width="50.2" height="16.1"/>
		</g>
	</g>
	<g id="POLYLINE">
		<rect x="106.9" y="89.9" class="st7" width="95.7" height="37.2"/>
	</g>
	<g id="POLYLINE_2_">
		<g>
			<rect x="89.2" y="146" class="st7" width="96.3" height="77.9"/>
		</g>
	</g>
	<g id="POLYLINE_4_">
		<g>
			<rect x="358" y="126.1" class="st7" width="70.4" height="95.2"/>
		</g>
	</g>
	<g id="POLYLINE_6_">
		<g>
			<rect x="383.3" y="86.1" class="st7" width="38.3" height="27.6"/>
		</g>
	</g>
	<g id="POLYLINE_22_">
		<g>
			<rect x="28.3" y="71" class="st7" width="200.9" height="189.5"/>
		</g>
	</g>
	<g id="POLYLINE_23_">
		<g>
			<rect x="324.9" y="71" class="st7" width="200.9" height="189.5"/>
		</g>
	</g>
	<g id="POLYLINE_26_">
		<g>
			<rect x="453.7" y="154.6" class="st7" width="45" height="48.1"/>
		</g>
	</g>
	<g id="POLYLINE_27_">
		<g>
			<polyline class="st7" points="185.5,204.2 213,204.2 213,156.7 185.5,156.7 			"/>
		</g>
	</g>
</g>
<g>
	<g id="LINE">
		<g>
			<line class="st7" x1="393.1" y1="194" x2="393.1" y2="181.7"/>
		</g>
	</g>
	<g id="LINE_1_">
		<g>
			<line class="st7" x1="358" y1="221.3" x2="393.1" y2="194"/>
		</g>
	</g>
	<g id="LINE_2_">
		<g>
			<line class="st7" x1="393.1" y1="194" x2="428.3" y2="221.3"/>
		</g>
	</g>
	<g id="LINE_3_">
		<g>
			<line class="st7" x1="358" y1="126.1" x2="393.1" y2="153.4"/>
		</g>
	</g>
	<g id="LINE_4_">
		<g>
			<line class="st7" x1="393.1" y1="153.4" x2="428.3" y2="126.1"/>
		</g>
	</g>
	<g id="LINE_5_">
		<g>
			<line class="st7" x1="115" y1="184.9" x2="159.7" y2="184.9"/>
		</g>
	</g>
	<g id="LINE_6_">
		<g>
			<line class="st7" x1="89.2" y1="146" x2="115" y2="184.9"/>
		</g>
	</g>
	<g id="LINE_7_">
		<g>
			<line class="st7" x1="115" y1="184.9" x2="89.2" y2="223.9"/>
		</g>
	</g>
	<g id="LINE_8_">
		<g>
			<line class="st7" x1="185.5" y1="146" x2="159.7" y2="184.9"/>
		</g>
	</g>
	<g id="LINE_9_">
		<g>
			<line class="st7" x1="159.7" y1="184.9" x2="185.5" y2="223.9"/>
		</g>
	</g>
	<g id="LINE_10_">
		<g>
			<line class="st7" x1="393.1" y1="166.6" x2="393.1" y2="153.4"/>
		</g>
	</g>
</g>
<g id="POLYLINE_9_">
	<g>
		<rect x="370.2" y="166.6" class="st6" width="49.2" height="16.1"/>
	</g>
</g>
<g>
	<g id="POLYLINE_10_">
		<g id="POLYLINE_13_">
			<g>
				<g>
					<g>
						<polyline class="st8" points="402.1,79.9 412.5,54.4 418.4,54.4 						"/>
						<g>
							<polygon class="st9" points="404.6,79.4 399.6,86.1 400.6,77.7 							"/>
						</g>
					</g>
				</g>
			</g>
		</g>
	</g>
	<g id="POLYLINE_12_">
		<g id="POLYLINE_15_">
			<g>
				<g>
					<g>
						<polyline class="st8" points="481.3,209.1 498.8,279.5 485.6,279.5 						"/>
						<g>
							<polygon class="st9" points="479.6,211.1 479.7,202.7 483.8,210 							"/>
						</g>
					</g>
				</g>
			</g>
		</g>
	</g>
	<g id="POLYLINE_14_">
		<g id="POLYLINE_11_">
			<g>
				<g>
					<g>
						<polyline class="st8" points="138.4,83.3 134.2,34.3 112.9,34.3 						"/>
						<g>
							<polygon class="st9" points="140.4,81.6 138.9,89.9 136.1,82 							"/>
						</g>
					</g>
				</g>
			</g>
		</g>
	</g>
	<g id="POLYLINE_16_">
		<g id="POLYLINE_5_">
			<g>
				<g>
					<g>
						<polyline class="st8" points="179.1,64.5 185,33.6 201.9,33.6 						"/>
						<g>
							<polygon class="st9" points="181.5,63.4 177.8,71 177.2,62.6 							"/>
						</g>
					</g>
				</g>
			</g>
		</g>
	</g>
	<g id="POLYLINE_18_">
		<g id="POLYLINE_3_">
			<g>
				<g>
					<g>
						<polyline class="st8" points="202.2,211.1 198,278.6 187.8,278.6 						"/>
						<g>
							<polygon class="st9" points="199.9,212.4 202.6,204.4 204.3,212.7 							"/>
						</g>
					</g>
				</g>
			</g>
		</g>
	</g>
</g>
<g id="MTEXT">
	<g>
		<text transform="matrix(1 0 0 1 423.6876 59.0342)" class="st9 st10 st11">Class 1 – sleepout</text>
	</g>
</g>
<g id="MTEXT_1_">
	<g>
		<text transform="matrix(1 0 0 1 395.6916 284.1091)" class="st9 st10 st11">Class 10a shed</text>
	</g>
</g>
<g id="MTEXT_2_">
	<g>
		<text transform="matrix(1 0 0 1 116.6555 169.963)" class="st9 st10 st11">Class 1</text>
	</g>
</g>
<g id="MTEXT_4_">
	<g>
		<text transform="matrix(1 0 0 1 206.2991 38.1074)"><tspan x="0" y="0" class="st9 st10 st11">Class 10b</tspan><tspan x="0" y="14.4" class="st9 st10 st11">allotment fence </tspan></text>
	</g>
</g>
<g id="MTEXT_5_">
	<g>
		<text transform="matrix(1 0 0 1 88.2787 282.1091)" class="st9 st10 st11">Class 10a carport</text>
	</g>
</g>
<g id="MTEXT_7_">
	<g>
		<text transform="matrix(1 0 0 1 54.318 37.6568)"><tspan x="0" y="0" class="st9 st10 st11">Class 10b </tspan><tspan x="-26" y="14.4" class="st9 st10 st11">swimming pool</tspan></text>
	</g>
</g>
<g id="MTEXT_8_">
	<g>
		<text transform="matrix(1 0 0 1 249.0321 347.2466)" class="st9 st12 st11">Plan view</text>
	</g>
</g>
<g id="MTEXT_9_">
	<g>
		<text transform="matrix(1 0 0 1 374.7923 178.622)" class="st9 st10 st11">Class 1</text>
	</g>
</g>
<g id="MTEXT_11_">
	<g>
		<text transform="matrix(1 0 0 1 69.6539 311.2656)" class="st9 st10 st11">(a)</text>
		<text transform="matrix(1 0 0 1 88.0648 312.2659)"><tspan x="0" y="0" class="st9 st10 st11">Class 10 attached </tspan><tspan x="0" y="14.4" class="st9 st10 st11">and Class 10b</tspan></text>
	</g>
</g>
<g id="MTEXT_13_">
	<g>
		<text transform="matrix(1 0 0 1 377.4654 311.2652)" class="st9 st10 st11">(b)</text>
		<text transform="matrix(1 0 0 1 395.9622 311.2652)"><tspan x="0" y="0" class="st9 st10 st11">Class 1 part and </tspan><tspan x="0" y="14.4" class="st9 st10 st11">Class 10 detatched</tspan></text>
	</g>
</g>
</svg>
