<svg id="Layer_1" data-name="Layer 1" xmlns="http://www.w3.org/2000/svg" viewBox="0 0 552.82 426.41"><defs><style>.cls-1,.cls-3,.cls-4,.cls-5,.cls-6,.cls-7,.cls-8{fill:none;stroke:#231f20;}.cls-1,.cls-4,.cls-5{stroke-linecap:square;}.cls-1,.cls-4{stroke-linejoin:bevel;}.cls-1,.cls-3{stroke-width:0.25px;}.cls-2,.cls-9{fill:#231f20;}.cls-3,.cls-5,.cls-6,.cls-7,.cls-8{stroke-miterlimit:10;}.cls-4,.cls-5{stroke-width:2px;stroke-dasharray:12 12;}.cls-7,.cls-8{stroke-width:0.75px;}.cls-8{stroke-dasharray:12.83 12.83;}.cls-9{font-size:12px;font-family:ArialMT, Arial;}</style></defs><line class="cls-1" x1="96.51" y1="193.86" x2="252.72" y2="193.86"/><polygon class="cls-2" points="250.74 196.77 261.58 193.86 250.74 190.96 250.74 196.77"/><line class="cls-3" x1="411.27" y1="312.49" x2="411.27" y2="75.24"/><polygon class="cls-2" points="414.17 310.51 411.27 321.35 408.36 310.51 414.17 310.51"/><polygon class="cls-2" points="414.17 77.22 411.27 66.38 408.36 77.22 414.17 77.22"/><line class="cls-3" x1="415.05" y1="66.35" x2="407.48" y2="66.41"/><line class="cls-3" x1="415.05" y1="321.32" x2="407.48" y2="321.38"/><line class="cls-3" x1="142.95" y1="344.06" x2="380.2" y2="344.06"/><polygon class="cls-2" points="144.93 346.97 134.09 344.06 144.93 341.16 144.93 346.97"/><polygon class="cls-2" points="378.22 346.97 389.06 344.06 378.22 341.16 378.22 346.97"/><line class="cls-3" x1="389.09" y1="347.85" x2="389.03" y2="340.28"/><line class="cls-3" x1="134.12" y1="347.85" x2="134.06" y2="340.28"/><line class="cls-4" x1="261.58" y1="182.36" x2="261.58" y2="193.86"/><line class="cls-5" x1="273.08" y1="193.86" x2="261.58" y2="193.86"/><line class="cls-6" x1="261.58" y1="65.59" x2="268.51" y2="65.59"/><line class="cls-7" x1="389.09" y1="193.1" x2="389.09" y2="187.1"/><line class="cls-8" x1="389.09" y1="174.27" x2="389.09" y2="78.01"/><polyline class="cls-7" points="389.09 71.59 389.09 65.59 383.09 65.59"/><line class="cls-8" x1="370.25" y1="65.59" x2="273.99" y2="65.59"/><line class="cls-7" x1="267.58" y1="65.59" x2="261.58" y2="65.59"/><rect class="cls-7" x="134.06" y="300.05" width="20.51" height="20.51"/><line class="cls-6" x1="261.58" y1="65.59" x2="261.58" y2="193.1"/><text class="cls-9" transform="translate(55.95 181.36)">Re-entrant <tspan x="0" y="15.6">corner</tspan></text><text class="cls-9" transform="translate(415.05 199.33)">18m (max)</text><text class="cls-9" transform="translate(228.51 360.06)">18m (max)</text><line class="cls-1" x1="90.28" y1="321.27" x2="125.23" y2="321.27"/><polygon class="cls-2" points="123.25 324.18 134.09 321.27 123.25 318.37 123.25 324.18"/><text class="cls-9" transform="translate(69.79 325.43)">90°</text><polyline class="cls-6" points="261.58 65.59 134.06 65.59 134.06 320.56 134.09 320.71 389.09 319.99 389.09 320.56 389.09 193.86 261.58 193.86"/></svg>