<svg id="Drawing_Layer" data-name="Drawing Layer" xmlns="http://www.w3.org/2000/svg" xmlns:xlink="http://www.w3.org/1999/xlink" viewBox="0 0 552.76 425.2"><defs><style>.cls-1,.cls-2,.cls-3,.cls-4,.cls-5,.cls-6,.cls-8{fill:none;}.cls-1,.cls-2{stroke:#000;stroke-linecap:round;stroke-linejoin:round;}.cls-1{stroke-width:0.75px;}.cls-3,.cls-4,.cls-5,.cls-6,.cls-8{stroke:#231f20;stroke-miterlimit:10;}.cls-4{stroke-width:0.5px;}.cls-5{stroke-dasharray:12 6;}.cls-6{stroke-width:2px;}.cls-7{fill:#fff;}.cls-8{stroke-width:0.25px;}.cls-10,.cls-9{fill:#231f20;}.cls-10{font-size:12px;font-family:ArialMT, Arial;}.cls-11{letter-spacing:-0.04em;}</style><symbol id="Timber_Section" data-name="Timber Section" viewBox="0 0 10.4 23.08"><g id="LINE"><line class="cls-1" x1="0.5" y1="22.58" x2="9.9" y2="0.5"/></g><g id="LINE-2" data-name="LINE"><line class="cls-1" x1="9.9" y1="22.58" x2="0.5" y2="0.5"/></g><g id="LINE-3" data-name="LINE"><line class="cls-2" x1="0.5" y1="22.58" x2="9.9" y2="22.58"/></g><g id="LINE-4" data-name="LINE"><line class="cls-2" x1="0.5" y1="0.5" x2="0.5" y2="22.58"/></g><g id="LINE-5" data-name="LINE"><line class="cls-2" x1="9.9" y1="22.58" x2="9.9" y2="0.5"/></g><g id="LINE-6" data-name="LINE"><line class="cls-2" x1="0.5" y1="0.5" x2="9.9" y2="0.5"/></g></symbol></defs><line class="cls-3" x1="305.41" y1="152.32" x2="488.85" y2="90.58"/><polyline class="cls-3" points="476.53 53.04 109.03 176.41 109.03 218.41 282.86 159.91"/><polyline class="cls-4" points="473.34 43.8 482.5 69.35 475.98 75.57 490.94 69.79 483.98 76.91 492.57 101.06"/><line class="cls-3" x1="238.89" y1="296.96" x2="238.89" y2="132.57"/><polyline class="cls-3" points="271.8 293.55 271.8 340.56 238.89 340.56 238.89 308.85"/><polyline class="cls-3" points="109.03 218.41 271.8 218.41 271.8 281.66"/><polyline class="cls-3" points="232.15 135.72 232.15 206.55 232.15 218.41"/><line class="cls-3" x1="232.15" y1="206.55" x2="144.28" y2="206.55"/><line class="cls-3" x1="517.23" y1="120.91" x2="398.74" y2="120.91"/><line class="cls-5" x1="274.37" y1="120.91" x2="398.74" y2="120.91"/><line class="cls-5" x1="238.89" y1="149.53" x2="317.83" y2="149.53"/><line class="cls-3" x1="517.23" y1="149.53" x2="305.93" y2="149.53"/><polyline class="cls-6" points="317.83 343.64 282.86 343.64 282.86 149.53 304.86 149.53"/><rect class="cls-3" x="233.18" y="218.41" width="5.71" height="4.94"/><polyline class="cls-3" points="517.23 152.12 321.04 152.12 321.04 156.12 517.23 156.12"/><polyline class="cls-3" points="317.83 272.15 317.83 340.56 286.11 340.56 286.11 286.89"/><polyline class="cls-3" points="286.11 275 286.11 152.12 317.83 152.12 317.83 260.25"/><polyline class="cls-4" points="517.23 112.41 517.23 132.57 524.06 137.23 511.51 137.23 517.23 141 517.23 162.99"/><polyline class="cls-4" points="229.89 301.15 273.24 280.99 273.48 280.88 275.72 271.91 278.11 286.19 280.5 277.62 280.72 277.51 326.32 256.3"/><polyline class="cls-4" points="238.89 308.85 273.67 292.68 273.9 292.57 276.15 283.6 278.54 297.89 280.92 289.31 281.15 289.2 326.75 268"/><line class="cls-4" x1="230.32" y1="312.84" x2="238.89" y2="308.85"/><polygon class="cls-7" points="281.68 277.35 284.13 276.21 283.92 287.63 281.52 288.75 281.68 277.35"/><line class="cls-4" x1="238.89" y1="239.83" x2="271.8" y2="239.83"/><line class="cls-4" x1="238.89" y1="242.55" x2="271.8" y2="242.55"/><line class="cls-4" x1="286.11" y1="189.07" x2="317.83" y2="189.07"/><line class="cls-4" x1="286.11" y1="191.79" x2="317.83" y2="191.79"/><line class="cls-4" x1="286.11" y1="214.32" x2="317.83" y2="214.32"/><line class="cls-4" x1="286.11" y1="217.03" x2="317.83" y2="217.03"/><line class="cls-4" x1="286.11" y1="239.56" x2="317.83" y2="239.56"/><line class="cls-4" x1="286.11" y1="242.28" x2="317.83" y2="242.28"/><line class="cls-4" x1="286.11" y1="264.8" x2="308.05" y2="264.8"/><line class="cls-4" x1="286.11" y1="267.52" x2="302.21" y2="267.52"/><line class="cls-4" x1="286.11" y1="290.05" x2="317.83" y2="290.05"/><line class="cls-4" x1="286.11" y1="292.76" x2="317.83" y2="292.76"/><line class="cls-4" x1="286.11" y1="315.29" x2="317.83" y2="315.29"/><line class="cls-4" x1="286.11" y1="318.01" x2="317.83" y2="318.01"/><line class="cls-4" x1="238.89" y1="265.28" x2="271.8" y2="265.28"/><line class="cls-4" x1="238.89" y1="268" x2="271.8" y2="268"/><line class="cls-4" x1="238.89" y1="290.73" x2="252.29" y2="290.73"/><line class="cls-4" x1="238.89" y1="293.45" x2="246.44" y2="293.45"/><line class="cls-4" x1="238.89" y1="316.18" x2="271.8" y2="316.18"/><line class="cls-4" x1="238.89" y1="318.9" x2="271.8" y2="318.9"/><path class="cls-3" d="M318.7,184.51s-3-27.68,26-27.68v3.78s-22.8-1.85-22.8,23.9Z"/><use width="10.4" height="23.08" transform="translate(286.11 168.14) rotate(-90) scale(1.54 1.37)" xlink:href="#Timber_Section"/><use width="10.4" height="23.08" transform="matrix(-0.37, -1.06, 0.64, -0.22, 117.01, 173.82)" xlink:href="#Timber_Section"/><use width="10.4" height="23.08" transform="matrix(-0.37, -1.06, 0.64, -0.22, 209.09, 143.1)" xlink:href="#Timber_Section"/><use width="10.4" height="23.08" transform="matrix(-0.37, -1.06, 0.64, -0.22, 301.21, 112.15)" xlink:href="#Timber_Section"/><use width="10.4" height="23.08" transform="matrix(-0.37, -1.06, 0.64, -0.22, 393.47, 81.16)" xlink:href="#Timber_Section"/><polyline class="cls-8" points="146.78 250.03 213.65 250.03 275.83 200.11"/><polygon class="cls-9" points="276.11 203.62 282.74 194.56 272.47 199.09 276.11 203.62"/><line class="cls-8" x1="77.97" y1="196.11" x2="115.88" y2="196.11"/><polygon class="cls-9" points="113.9 199.02 124.74 196.11 113.9 193.21 113.9 199.02"/><line class="cls-8" x1="86.86" y1="135.72" x2="197.83" y2="135.72"/><polygon class="cls-9" points="195.85 138.63 206.69 135.72 195.85 132.82 195.85 138.63"/><polyline class="cls-8" points="127.84 101.06 234.47 101.06 234.47 125.44"/><polygon class="cls-9" points="231.57 123.46 234.47 134.3 237.38 123.46 231.57 123.46"/><text class="cls-10" transform="translate(41.7 71.43)">Fixed with 3 x 30 x 2.8 nails</text><text class="cls-10" transform="translate(41.7 103.1)"><tspan class="cls-11">T</tspan><tspan x="6.88" y="0">imber dropper</tspan></text><text class="cls-10" transform="translate(41.69 138.72)">Battens</text><text class="cls-10" transform="translate(41.69 199.23)">Rafter</text><text class="cls-10" transform="translate(41.97 252.77)">30 x 1.0 GS straps<tspan x="0" y="14">at 1.2 m crs</tspan></text><polyline class="cls-8" points="193.24 68.58 258.38 68.58 290.58 141.43"/><polygon class="cls-9" points="287.12 140.79 294.16 149.53 292.44 138.44 287.12 140.79"/><polyline class="cls-8" points="360.75 161.75 360.75 187.06 353.42 191.79 369.71 191.79 361.56 199.23 361.56 331.7"/><polygon class="cls-9" points="357.84 163.73 360.75 152.89 363.65 163.73 357.84 163.73"/><polygon class="cls-9" points="358.66 329.72 361.56 340.56 364.47 329.72 358.66 329.72"/><line class="cls-8" x1="329.64" y1="340.56" x2="389.49" y2="340.56"/><text class="cls-10" transform="translate(365.71 250.03)">900 mm min.</text><line class="cls-8" x1="286.11" y1="349.93" x2="286.11" y2="383.48"/><line class="cls-8" x1="305.21" y1="349.93" x2="305.21" y2="383.48"/><line class="cls-8" x1="314.07" y1="373.95" x2="387.05" y2="373.95"/><polygon class="cls-9" points="316.05 376.86 305.21 373.95 316.05 371.05 316.05 376.86"/><line class="cls-8" x1="262.46" y1="373.95" x2="277.25" y2="373.95"/><polygon class="cls-9" points="275.27 376.86 286.11 373.95 275.27 371.05 275.27 376.86"/><line class="cls-8" x1="286.11" y1="373.95" x2="305.21" y2="373.95"/><text class="cls-10" transform="translate(321.04 369.86)">50 mm min</text></svg>