<?xml version="1.0" encoding="utf-8"?>
<!-- Generator: Adobe Illustrator 25.2.1, SVG Export Plug-In . SVG Version: 6.00 Build 0)  -->
<svg version="1.1" id="_x30_" xmlns="http://www.w3.org/2000/svg" xmlns:xlink="http://www.w3.org/1999/xlink" x="0px" y="0px"
	 viewBox="0 0 552.8 150" style="enable-background:new 0 0 552.8 150;" xml:space="preserve">
<style type="text/css">
	.st0{fill-rule:evenodd;clip-rule:evenodd;fill:#231F20;}
	.st1{fill:none;stroke:#231F20;stroke-width:0.25;stroke-miterlimit:10;}
	.st2{fill:#231F20;}
	.st3{font-family:'ArialMT';}
	.st4{font-size:12px;}
	.st5{fill:none;stroke:#231F20;stroke-miterlimit:10;}
</style>
<g>
	<g id="HATCH">
		<path class="st0" d="M44.3,71.6H52c1.5,0,2.7,1.2,2.7,2.7c0,1.5-1.2,2.7-2.7,2.7H31.1c-1.5,0-2.7-1.2-2.7-2.7
			c0-1.5,1.2-2.7,2.7-2.7h7.7V54.2h-7.7c-1.5,0-2.7-1.2-2.7-2.7c0-1.5,1.2-2.7,2.7-2.7H52c1.5,0,2.7,1.2,2.7,2.7
			c0,1.5-1.2,2.7-2.7,2.7h-7.7V71.6z"/>
	</g>
	<g id="HATCH_1_">
		<path class="st0" d="M248.5,71.6h7.7c1.5,0,2.7,1.2,2.7,2.7c0,1.5-1.2,2.7-2.7,2.7h-20.9c-1.5,0-2.7-1.2-2.7-2.7
			c0-1.5,1.2-2.7,2.7-2.7h7.7V54.2h-7.7c-1.5,0-2.7-1.2-2.7-2.7c0-1.5,1.2-2.7,2.7-2.7h20.9c1.5,0,2.7,1.2,2.7,2.7
			c0,1.5-1.2,2.7-2.7,2.7h-7.7V71.6z"/>
	</g>
	<g id="HATCH_2_">
		<path class="st0" d="M429.2,71.6h7.7c1.5,0,2.7,1.2,2.7,2.7c0,1.5-1.2,2.7-2.7,2.7h-20.9c-1.5,0-2.7-1.2-2.7-2.7
			c0-1.5,1.2-2.7,2.7-2.7h7.7V54.2h-7.7c-1.5,0-2.7-1.2-2.7-2.7c0-1.5,1.2-2.7,2.7-2.7h20.9c1.5,0,2.7,1.2,2.7,2.7
			c0,1.5-1.2,2.7-2.7,2.7h-7.7V71.6z"/>
	</g>
</g>
<g id="LINE_6_">
	<g id="LINE_13_">
		<g>
			<g>
				<g>
					<line class="st1" x1="48.2" y1="115.3" x2="239.1" y2="115.3"/>
					<g>
						<polygon class="st2" points="49.7,117.5 41.5,115.3 49.7,113.1 						"/>
					</g>
					<g>
						<polygon class="st2" points="237.6,117.5 245.7,115.3 237.6,113.1 						"/>
					</g>
				</g>
			</g>
		</g>
	</g>
</g>
<g id="LINE_8_">
	<g id="LINE_12_">
		<g>
			<g>
				<g>
					<line class="st1" x1="252.4" y1="115.3" x2="419.9" y2="115.3"/>
					<g>
						<polygon class="st2" points="253.9,117.5 245.7,115.3 253.9,113.1 						"/>
					</g>
					<g>
						<polygon class="st2" points="418.4,117.5 426.5,115.3 418.4,113.1 						"/>
					</g>
				</g>
			</g>
		</g>
	</g>
</g>
<g>
	<g id="LINE_4_">
		<g>
			<line class="st1" x1="41.5" y1="85.8" x2="41.5" y2="121.6"/>
		</g>
	</g>
	<g id="LINE_5_">
		<g>
			<line class="st1" x1="245.7" y1="85.8" x2="245.7" y2="121.6"/>
		</g>
	</g>
	<g id="LINE_7_">
		<g>
			<line class="st1" x1="426.5" y1="85.8" x2="426.5" y2="121.6"/>
		</g>
	</g>
	<g id="LINE_9_">
		<g>
			<line class="st1" x1="524.4" y1="57.3" x2="524.4" y2="121.6"/>
		</g>
	</g>
</g>
<g id="LINE_10_">
	<g id="LINE_11_">
		<g>
			<g>
				<g>
					<line class="st1" x1="433.1" y1="115.3" x2="517.8" y2="115.3"/>
					<g>
						<polygon class="st2" points="434.6,117.5 426.5,115.3 434.6,113.1 						"/>
					</g>
					<g>
						<polygon class="st2" points="516.3,117.5 524.4,115.3 516.3,113.1 						"/>
					</g>
				</g>
			</g>
		</g>
	</g>
</g>
<g>
	<g id="MTEXT">
		<g>
			<text transform="matrix(1 0 0 1 321.8242 42.9178)" class="st2 st3 st4">Rafter or joist</text>
		</g>
	</g>
	<g id="MTEXT_1_">
		<g>
			<text transform="matrix(1 0 0 1 59.0596 66.5262)" class="st2 st3 st4">Member 1</text>
		</g>
	</g>
	<g id="MTEXT_2_">
		<g>
			<text transform="matrix(1 0 0 1 267.6631 66.5262)" class="st2 st3 st4">Member 2</text>
		</g>
	</g>
	<g id="MTEXT_3_">
		<g>
			<text transform="matrix(1 0 0 1 443.8984 66.5419)" class="st2 st3 st4">Member 3</text>
		</g>
	</g>
	<g id="MTEXT_4_">
		<g>
			<text transform="matrix(1 0 0 1 120.4346 110.1542)" class="st2 st3 st4">Span 1</text>
		</g>
	</g>
	<g id="MTEXT_5_">
		<g>
			<text transform="matrix(1 0 0 1 312.9141 110.1542)" class="st2 st3 st4">Span 2</text>
		</g>
	</g>
	<g id="MTEXT_6_">
		<g>
			<text transform="matrix(1 0 0 1 452.2607 110.1542)" class="st2 st3 st4">Span 3</text>
		</g>
	</g>
</g>
<rect x="31.1" y="28.3" class="st5" width="493.3" height="20.5"/>
</svg>
