<?xml version="1.0" encoding="utf-8"?>
<!-- Generator: Adobe Illustrator 25.2.1, SVG Export Plug-In . SVG Version: 6.00 Build 0)  -->
<svg version="1.1" xmlns="http://www.w3.org/2000/svg" xmlns:xlink="http://www.w3.org/1999/xlink" x="0px" y="0px"
	 viewBox="0 0 552.8 269.3" style="enable-background:new 0 0 552.8 269.3;" xml:space="preserve">
<style type="text/css">
	.st0{font-family:'ArialMT';}
	.st1{font-size:12px;}
	.st2{fill:none;stroke:#000000;stroke-width:0.25;stroke-miterlimit:10;}
	.st3{fill:none;stroke:#000000;stroke-width:0.75;stroke-miterlimit:10;}
	.st4{fill:none;stroke:#000000;stroke-width:0.75;stroke-miterlimit:10;stroke-dasharray:11.7596,11.7596;}
	.st5{fill:none;stroke:#000000;stroke-width:0.75;stroke-miterlimit:10;stroke-dasharray:11.525,11.525;}
	.st6{fill:none;stroke:#000000;stroke-miterlimit:10;}
	.st7{fill:none;stroke:#000000;stroke-width:0.5;stroke-miterlimit:10;}
	.st8{fill:none;stroke:#000000;stroke-width:0.75;stroke-miterlimit:10;stroke-dasharray:12,12;}
</style>
<g id="Layer_2">
</g>
<g id="v1_x5F_f2-5_x5F_2009-ORIGINAL_xA0_Image_1_">
	<text transform="matrix(1 0 0 1 125.2007 89.3317)" class="st0 st1">Clear space</text>
	<g>
		<g>
			<g>
				<line class="st2" x1="193.5" y1="230.4" x2="330" y2="230.4"/>
				<g>
					<polygon points="195,232.6 186.9,230.4 195,228.2 					"/>
				</g>
				<g>
					<polygon points="328.5,232.6 336.6,230.4 328.5,228.2 					"/>
				</g>
			</g>
		</g>
	</g>
	<path class="st3" d="M331.3,82.2c-53.5,3.3-96.8,48.7-96.8,102.9"/>
	<g>
		<g>
			<path class="st3" d="M187.2,185.2c0-2,0-4,0.1-6"/>
			<path class="st4" d="M188.2,167.4C196.5,97,253.6,40.9,324.7,35.2"/>
			<path class="st3" d="M330.6,34.8c2-0.1,4-0.1,6-0.1v6"/>
			<line class="st5" x1="336.6" y1="52.2" x2="336.6" y2="69.5"/>
			<line class="st3" x1="336.6" y1="75.3" x2="336.6" y2="81.3"/>
		</g>
	</g>
	<g>
		<rect x="331.3" y="82.2" class="st6" width="5.3" height="103"/>
		<polyline class="st6" points="130.4,185.2 234.5,185.2 234.5,199.2 130.4,199.2 		"/>
		<polyline class="st6" points="423.3,185.2 336.6,185.2 336.6,198.5 423.3,198.5 		"/>
	</g>
	<text transform="matrix(1 0 0 1 237.7059 227.9275)" class="st0 st1">1200 mm</text>
	<text transform="matrix(0 -1 1 0 391.4171 136.737)" class="st0 st1">1200 mm</text>
	<polyline class="st7" points="423.3,201.4 423.3,193.5 420.7,191.6 426,191.6 423.3,189.7 423.3,181.8 	"/>
	<polyline class="st7" points="130.4,201.4 130.4,193.5 127.8,191.6 133,191.6 130.4,189.7 130.4,181.8 	"/>
	<g>
		<line class="st3" x1="186.9" y1="190.7" x2="186.9" y2="236.5"/>
		<line class="st3" x1="336.6" y1="207.7" x2="336.6" y2="236.5"/>
	</g>
	<line class="st8" x1="234.5" y1="185.2" x2="330.3" y2="185.2"/>
	<line class="st3" x1="399.7" y1="34.7" x2="342.7" y2="34.7"/>
	<g>
		<g>
			<g>
				<line class="st2" x1="394.5" y1="177.7" x2="394.5" y2="41.2"/>
				<g>
					<polygon points="396.7,176.2 394.5,184.3 392.3,176.2 					"/>
				</g>
				<g>
					<polygon points="396.7,42.7 394.5,34.6 392.3,42.7 					"/>
				</g>
			</g>
		</g>
	</g>
	<g>
		<g>
			<g>
				<polyline class="st2" points="232.3,106.1 198.9,86.9 192.6,86.7 				"/>
				<g>
					<polygon points="232.1,103.5 238,109.4 229.9,107.3 					"/>
				</g>
			</g>
		</g>
	</g>
</g>
</svg>
