<?xml version="1.0" encoding="utf-8"?>
<!-- Generator: Adobe Illustrator 25.2.1, SVG Export Plug-In . SVG Version: 6.00 Build 0)  -->
<svg version="1.1" id="HATCH_x5F_18" xmlns="http://www.w3.org/2000/svg" xmlns:xlink="http://www.w3.org/1999/xlink" x="0px"
	 y="0px" viewBox="0 0 467.7 135.3" style="enable-background:new 0 0 467.7 135.3;" xml:space="preserve">
<style type="text/css">
	.st0{fill-rule:evenodd;clip-rule:evenodd;fill:none;}
	.st1{clip-path:url(#SVGID_2_);fill:none;stroke:#221F1F;stroke-width:0.5;stroke-linejoin:round;}
	.st2{fill:none;stroke:#231F20;stroke-miterlimit:10;}
	.st3{fill:none;stroke:#231F20;stroke-linecap:round;stroke-miterlimit:10;}
	.st4{fill:none;stroke:#000000;stroke-linecap:round;stroke-linejoin:round;stroke-miterlimit:10;}
	.st5{fill-rule:evenodd;clip-rule:evenodd;fill:url(#SVGID_3_);}
	.st6{fill-rule:evenodd;clip-rule:evenodd;fill:url(#SVGID_4_);}
	.st7{fill-rule:evenodd;clip-rule:evenodd;fill:url(#SVGID_5_);}
	.st8{fill-rule:evenodd;clip-rule:evenodd;fill:url(#SVGID_6_);}
	.st9{fill-rule:evenodd;clip-rule:evenodd;fill:#231F20;stroke:#231F20;stroke-miterlimit:10;}
</style>
<pattern  x="-616.5" y="918.8" width="72" height="72" patternUnits="userSpaceOnUse" id="Unnamed_Pattern_2" viewBox="6.2 -86.2 72 72" style="overflow:visible;">
	<g>
		<rect x="6.2" y="-86.2" class="st0" width="72" height="72"/>
		<g>
			<defs>
				<rect id="SVGID_1_" x="6.2" y="-86.2" width="72" height="72"/>
			</defs>
			<clipPath id="SVGID_2_">
				<use xlink:href="#SVGID_1_"  style="overflow:visible;"/>
			</clipPath>
			<line class="st1" x1="0.2" y1="-74.2" x2="18.2" y2="-92.2"/>
			<line class="st1" x1="0.2" y1="-68.2" x2="24.2" y2="-92.2"/>
			<line class="st1" x1="0.2" y1="-62.2" x2="30.2" y2="-92.2"/>
			<line class="st1" x1="0.2" y1="-56.2" x2="36.2" y2="-92.2"/>
			<line class="st1" x1="0.2" y1="-50.2" x2="42.2" y2="-92.2"/>
			<line class="st1" x1="0.2" y1="-44.2" x2="48.2" y2="-92.2"/>
			<line class="st1" x1="0.2" y1="-38.2" x2="54.2" y2="-92.2"/>
			<line class="st1" x1="0.2" y1="-32.2" x2="60.2" y2="-92.2"/>
			<line class="st1" x1="0.2" y1="-26.2" x2="66.2" y2="-92.2"/>
			<line class="st1" x1="0.2" y1="-20.2" x2="72.2" y2="-92.2"/>
			<line class="st1" x1="0.2" y1="-14.2" x2="78.2" y2="-92.2"/>
			<line class="st1" x1="0.2" y1="-8.2" x2="84.2" y2="-92.2"/>
			<line class="st1" x1="6.2" y1="-8.2" x2="84.2" y2="-86.2"/>
			<line class="st1" x1="12.2" y1="-8.2" x2="84.2" y2="-80.2"/>
			<line class="st1" x1="18.2" y1="-8.2" x2="84.2" y2="-74.2"/>
			<line class="st1" x1="24.2" y1="-8.2" x2="84.2" y2="-68.2"/>
			<line class="st1" x1="30.2" y1="-8.2" x2="84.2" y2="-62.2"/>
			<line class="st1" x1="36.2" y1="-8.2" x2="84.2" y2="-56.2"/>
			<line class="st1" x1="42.2" y1="-8.2" x2="84.2" y2="-50.2"/>
			<line class="st1" x1="48.2" y1="-8.2" x2="84.2" y2="-44.2"/>
			<line class="st1" x1="54.2" y1="-8.2" x2="84.2" y2="-38.2"/>
			<line class="st1" x1="52.2" y1="-0.2" x2="94.2" y2="-42.2"/>
			<line class="st1" x1="58.2" y1="-0.2" x2="94.2" y2="-36.2"/>
			<line class="st1" x1="64.2" y1="-0.2" x2="94.2" y2="-30.2"/>
		</g>
	</g>
</pattern>
<g>
	<g id="LINE_47_">
		<g>
			<line class="st2" x1="28.3" y1="37.4" x2="439.6" y2="37.4"/>
		</g>
	</g>
	<g id="LINE_48_">
		<g>
			<line class="st2" x1="28.3" y1="48.3" x2="439.6" y2="48.3"/>
		</g>
	</g>
	<g id="LINE_51_">
		<g>
			<line class="st3" x1="439.6" y1="26.5" x2="439.6" y2="48.3"/>
		</g>
	</g>
	<g id="LINE_52_">
		<g>
			<line class="st2" x1="28.3" y1="26.5" x2="439.6" y2="26.5"/>
		</g>
	</g>
	<g id="LINE_53_">
		<g>
			<line class="st3" x1="28.3" y1="26.5" x2="28.3" y2="48.3"/>
		</g>
	</g>
	<g id="LINE_54_">
		<g>
			<line class="st2" x1="28.3" y1="30.5" x2="28.3" y2="39.4"/>
		</g>
	</g>
	<g id="POLYLINE_2_">
		<g>
			<rect x="28.3" y="28.4" class="st2" width="411.3" height="7.1"/>
		</g>
	</g>
	<g id="POLYLINE_3_">
		<g>
			<rect x="28.3" y="39.3" class="st2" width="411.3" height="7.1"/>
		</g>
	</g>
</g>
<g>
	<g id="LINE">
		<g>
			<line class="st2" x1="28.3" y1="99.2" x2="439.6" y2="99.2"/>
		</g>
	</g>
	<g id="LINE_1_">
		<g>
			<line class="st2" x1="28.3" y1="88.3" x2="439.6" y2="88.3"/>
		</g>
	</g>
	<g id="LINE_42_">
		<g>
			<line class="st2" x1="28.3" y1="110.1" x2="439.6" y2="110.1"/>
		</g>
	</g>
	<g id="LINE_43_">
		<g>
			<line class="st2" x1="28.3" y1="99.2" x2="439.6" y2="99.2"/>
		</g>
	</g>
	<g id="LINE_44_">
		<g>
			<line class="st3" x1="28.3" y1="88.2" x2="28.3" y2="110.1"/>
		</g>
	</g>
	<g id="LINE_45_">
		<g>
			<line class="st3" x1="439.6" y1="88.3" x2="439.6" y2="110.1"/>
		</g>
	</g>
	<g id="POLYLINE_4_">
		<g>
			<rect x="28.3" y="90.2" class="st2" width="411.3" height="7.1"/>
		</g>
	</g>
	<g id="POLYLINE_5_">
		<g>
			<rect x="28.3" y="101.1" class="st2" width="411.3" height="7.1"/>
		</g>
	</g>
</g>
<g>
	<g>
		<g>
			<g>
				<path class="st4" d="M134.8,61.3c-0.2-2.9-2.4-5-4.8-4.7c-2.1,0.2-3.8,2.2-4,4.7"/>
			</g>
			<g>
				<path class="st4" d="M132.9,74.1c0.2,2.7,2.1,4.7,4.4,4.7"/>
			</g>
			<g>
				<path class="st4" d="M123.5,78.8c2.3,0,4.2-2.1,4.4-4.7"/>
			</g>
			<g>
				<line class="st4" x1="132.9" y1="74.1" x2="134.8" y2="61.3"/>
			</g>
			<g>
				<line class="st4" x1="127.9" y1="74.1" x2="126" y2="61.3"/>
			</g>
			<g>
				<path class="st4" d="M93.8,61.3c-0.2-2.9-2.4-5-4.8-4.7c-2.1,0.2-3.8,2.2-4,4.7"/>
			</g>
			<g>
				<path class="st4" d="M91.9,74c0.2,2.7,2.1,4.7,4.4,4.7"/>
			</g>
			<g>
				<path class="st4" d="M82.5,78.8c2.3,0,4.2-2.1,4.4-4.7"/>
			</g>
			<g>
				<line class="st4" x1="91.9" y1="74" x2="93.8" y2="61.3"/>
			</g>
			<g>
				<line class="st4" x1="86.9" y1="74" x2="85" y2="61.3"/>
			</g>
			<g>
				<path class="st4" d="M107.5,61.3c-0.2-2.9-2.4-5-4.8-4.7c-2.1,0.2-3.8,2.2-4,4.7"/>
			</g>
			<g>
				<path class="st4" d="M105.6,74c0.2,2.7,2.1,4.7,4.4,4.7"/>
			</g>
			<g>
				<path class="st4" d="M96.3,78.8c2.3,0,4.2-2.1,4.4-4.7"/>
			</g>
			<g>
				<line class="st4" x1="105.6" y1="74" x2="107.5" y2="61.3"/>
			</g>
			<g>
				<line class="st4" x1="100.6" y1="74" x2="98.8" y2="61.3"/>
			</g>
			<g>
				<path class="st4" d="M80,61.3c-0.2-2.9-2.4-5-4.8-4.7c-2.1,0.2-3.8,2.2-4,4.7"/>
			</g>
			<g>
				<path class="st4" d="M78.1,74c0.2,2.7,2.1,4.7,4.4,4.7"/>
			</g>
			<g>
				<path class="st4" d="M68.7,78.8c2.3,0,4.2-2.1,4.4-4.7"/>
			</g>
			<g>
				<line class="st4" x1="78.1" y1="74" x2="80" y2="61.3"/>
			</g>
			<g>
				<line class="st4" x1="73.1" y1="74" x2="71.2" y2="61.3"/>
			</g>
			<g>
				<path class="st4" d="M189.9,61.3c-0.2-2.9-2.4-5-4.8-4.7c-2.1,0.2-3.8,2.2-4,4.7"/>
			</g>
			<g>
				<path class="st4" d="M188,74.1c0.2,2.7,2.1,4.7,4.4,4.7"/>
			</g>
			<g>
				<path class="st4" d="M178.6,78.8c2.3,0,4.2-2.1,4.4-4.7"/>
			</g>
			<g>
				<line class="st4" x1="188" y1="74.1" x2="189.9" y2="61.3"/>
			</g>
			<g>
				<line class="st4" x1="183" y1="74.1" x2="181.1" y2="61.3"/>
			</g>
			<g>
				<path class="st4" d="M162.3,61.3c-0.2-2.9-2.4-5-4.8-4.7c-2.1,0.2-3.8,2.2-4,4.7"/>
			</g>
			<g>
				<path class="st4" d="M160.4,74.1c0.2,2.7,2.1,4.7,4.4,4.7"/>
			</g>
			<g>
				<path class="st4" d="M151.1,78.8c2.3,0,4.2-2.1,4.4-4.7"/>
			</g>
			<g>
				<line class="st4" x1="160.4" y1="74.1" x2="162.3" y2="61.3"/>
			</g>
			<g>
				<line class="st4" x1="155.4" y1="74.1" x2="153.6" y2="61.3"/>
			</g>
			<g>
				<path class="st4" d="M176.1,61.3c-0.2-2.9-2.4-5-4.8-4.7c-2.1,0.2-3.8,2.2-4,4.7"/>
			</g>
			<g>
				<path class="st4" d="M174.2,74.1c0.2,2.7,2.1,4.7,4.4,4.7"/>
			</g>
			<g>
				<path class="st4" d="M164.8,78.8c2.3,0,4.2-2.1,4.4-4.7"/>
			</g>
			<g>
				<line class="st4" x1="174.2" y1="74.1" x2="176.1" y2="61.3"/>
			</g>
			<g>
				<line class="st4" x1="169.2" y1="74.1" x2="167.3" y2="61.3"/>
			</g>
			<g>
				<path class="st4" d="M148.6,61.3c-0.2-2.9-2.4-5-4.8-4.7c-2.1,0.2-3.8,2.2-4,4.7"/>
			</g>
			<g>
				<path class="st4" d="M146.7,74.1c0.2,2.7,2.1,4.7,4.4,4.7"/>
			</g>
			<g>
				<path class="st4" d="M137.3,78.8c2.3,0,4.2-2.1,4.4-4.7"/>
			</g>
			<g>
				<line class="st4" x1="146.7" y1="74.1" x2="148.6" y2="61.3"/>
			</g>
			<g>
				<line class="st4" x1="141.7" y1="74.1" x2="139.8" y2="61.3"/>
			</g>
			<g>
				<path class="st4" d="M258.8,61.3c-0.2-2.9-2.4-5-4.8-4.7c-2.1,0.2-3.8,2.2-4,4.7"/>
			</g>
			<g>
				<path class="st4" d="M256.9,74.1c0.2,2.7,2.1,4.7,4.4,4.7"/>
			</g>
			<g>
				<path class="st4" d="M247.5,78.8c2.3,0,4.2-2.1,4.4-4.7"/>
			</g>
			<g>
				<line class="st4" x1="256.9" y1="74.1" x2="258.8" y2="61.3"/>
			</g>
			<g>
				<line class="st4" x1="251.9" y1="74.1" x2="250" y2="61.3"/>
			</g>
			<g>
				<path class="st4" d="M272.5,61.3c-0.2-2.9-2.4-5-4.8-4.7c-2.1,0.2-3.8,2.2-4,4.7"/>
			</g>
			<g>
				<path class="st4" d="M270.6,74.1c0.2,2.7,2.1,4.7,4.4,4.7"/>
			</g>
			<g>
				<path class="st4" d="M261.3,78.8c2.3,0,4.2-2.1,4.4-4.7"/>
			</g>
			<g>
				<line class="st4" x1="270.6" y1="74.1" x2="272.5" y2="61.3"/>
			</g>
			<g>
				<line class="st4" x1="265.6" y1="74.1" x2="263.8" y2="61.3"/>
			</g>
			<g>
				<path class="st4" d="M231.2,61.3c-0.2-2.9-2.4-5-4.8-4.7c-2.1,0.2-3.8,2.2-4,4.7"/>
			</g>
			<g>
				<path class="st4" d="M229.3,74.1c0.2,2.7,2.1,4.7,4.4,4.7"/>
			</g>
			<g>
				<path class="st4" d="M219.9,78.8c2.3,0,4.2-2.1,4.4-4.7"/>
			</g>
			<g>
				<line class="st4" x1="229.3" y1="74.1" x2="231.2" y2="61.3"/>
			</g>
			<g>
				<line class="st4" x1="224.3" y1="74.1" x2="222.4" y2="61.3"/>
			</g>
			<g>
				<path class="st4" d="M245,61.3c-0.2-2.9-2.4-5-4.8-4.7c-2.1,0.2-3.8,2.2-4,4.7"/>
			</g>
			<g>
				<path class="st4" d="M243.1,74.1c0.2,2.7,2.1,4.7,4.4,4.7"/>
			</g>
			<g>
				<path class="st4" d="M233.7,78.8c2.3,0,4.2-2.1,4.4-4.7"/>
			</g>
			<g>
				<line class="st4" x1="243.1" y1="74.1" x2="245" y2="61.3"/>
			</g>
			<g>
				<line class="st4" x1="238.1" y1="74.1" x2="236.2" y2="61.3"/>
			</g>
			<g>
				<path class="st4" d="M203.7,61.3c-0.2-2.9-2.4-5-4.8-4.7c-2.1,0.2-3.8,2.2-4,4.7"/>
			</g>
			<g>
				<path class="st4" d="M201.8,74.1c0.2,2.7,2.1,4.7,4.4,4.7"/>
			</g>
			<g>
				<path class="st4" d="M192.4,78.8c2.3,0,4.2-2.1,4.4-4.7"/>
			</g>
			<g>
				<line class="st4" x1="201.8" y1="74.1" x2="203.7" y2="61.3"/>
			</g>
			<g>
				<line class="st4" x1="196.8" y1="74.1" x2="194.9" y2="61.3"/>
			</g>
			<g>
				<path class="st4" d="M217.4,61.3c-0.2-2.9-2.4-5-4.8-4.7c-2.1,0.2-3.8,2.2-4,4.7"/>
			</g>
			<g>
				<path class="st4" d="M215.5,74.1c0.2,2.7,2.1,4.7,4.4,4.7"/>
			</g>
			<g>
				<path class="st4" d="M206.2,78.8c2.3,0,4.2-2.1,4.4-4.7"/>
			</g>
			<g>
				<line class="st4" x1="215.5" y1="74.1" x2="217.4" y2="61.3"/>
			</g>
			<g>
				<line class="st4" x1="210.5" y1="74.1" x2="208.7" y2="61.3"/>
			</g>
			<g>
				<path class="st4" d="M313.9,61.3c-0.2-2.9-2.4-5-4.8-4.7c-2.1,0.2-3.8,2.2-4,4.7"/>
			</g>
			<g>
				<path class="st4" d="M312,74.1c0.2,2.7,2.1,4.7,4.4,4.7"/>
			</g>
			<g>
				<path class="st4" d="M302.6,78.8c2.3,0,4.2-2.1,4.4-4.7"/>
			</g>
			<g>
				<line class="st4" x1="312" y1="74.1" x2="313.9" y2="61.3"/>
			</g>
			<g>
				<line class="st4" x1="307" y1="74.1" x2="305.1" y2="61.3"/>
			</g>
			<g>
				<path class="st4" d="M286.3,61.3c-0.2-2.9-2.4-5-4.8-4.7c-2.1,0.2-3.8,2.2-4,4.7"/>
			</g>
			<g>
				<path class="st4" d="M284.4,74.1c0.2,2.7,2.1,4.7,4.4,4.7"/>
			</g>
			<g>
				<path class="st4" d="M275,78.8c2.3,0,4.2-2.1,4.4-4.7"/>
			</g>
			<g>
				<line class="st4" x1="284.4" y1="74.1" x2="286.3" y2="61.3"/>
			</g>
			<g>
				<line class="st4" x1="279.4" y1="74.1" x2="277.5" y2="61.3"/>
			</g>
			<g>
				<path class="st4" d="M300.1,61.3c-0.2-2.9-2.4-5-4.8-4.7c-2.1,0.2-3.8,2.2-4,4.7"/>
			</g>
			<g>
				<path class="st4" d="M298.2,74.1c0.2,2.7,2.1,4.7,4.4,4.7"/>
			</g>
			<g>
				<path class="st4" d="M288.8,78.8c2.3,0,4.2-2.1,4.4-4.7"/>
			</g>
			<g>
				<line class="st4" x1="298.2" y1="74.1" x2="300.1" y2="61.3"/>
			</g>
			<g>
				<line class="st4" x1="293.2" y1="74.1" x2="291.3" y2="61.3"/>
			</g>
			<g>
				<path class="st4" d="M327.6,61.3c-0.2-2.9-2.4-5-4.8-4.7c-2.1,0.2-3.8,2.2-4,4.7"/>
			</g>
			<g>
				<path class="st4" d="M325.7,74.1c0.2,2.7,2.1,4.7,4.4,4.7"/>
			</g>
			<g>
				<path class="st4" d="M316.4,78.8c2.3,0,4.2-2.1,4.4-4.7"/>
			</g>
			<g>
				<line class="st4" x1="325.7" y1="74.1" x2="327.6" y2="61.3"/>
			</g>
			<g>
				<line class="st4" x1="320.7" y1="74.1" x2="318.9" y2="61.3"/>
			</g>
			<g>
				<path class="st4" d="M341.4,61.3c-0.2-2.9-2.4-5-4.8-4.7c-2.1,0.2-3.8,2.2-4,4.7"/>
			</g>
			<g>
				<path class="st4" d="M339.5,74.1c0.2,2.7,2.1,4.7,4.4,4.7"/>
			</g>
			<g>
				<path class="st4" d="M330.1,78.8c2.3,0,4.2-2.1,4.4-4.7"/>
			</g>
			<g>
				<line class="st4" x1="339.5" y1="74.1" x2="341.4" y2="61.3"/>
			</g>
			<g>
				<line class="st4" x1="334.5" y1="74.1" x2="332.6" y2="61.3"/>
			</g>
			<g>
				<path class="st4" d="M121.3,61.3c-0.2-2.9-2.4-5-4.8-4.7c-2.1,0.2-3.8,2.2-4,4.7"/>
			</g>
			<g>
				<path class="st4" d="M119.4,74c0.2,2.7,2.1,4.7,4.4,4.7"/>
			</g>
			<g>
				<path class="st4" d="M110,78.8c2.3,0,4.2-2.1,4.4-4.7"/>
			</g>
			<g>
				<line class="st4" x1="119.4" y1="74" x2="121.3" y2="61.3"/>
			</g>
			<g>
				<line class="st4" x1="114.4" y1="74" x2="112.5" y2="61.3"/>
			</g>
			<g>
				<path class="st4" d="M355.2,61.3c-0.2-2.9-2.4-5-4.8-4.7c-2.1,0.2-3.8,2.2-4,4.7"/>
			</g>
			<g>
				<path class="st4" d="M353.3,74.1c0.2,2.7,2.1,4.7,4.4,4.7"/>
			</g>
			<g>
				<path class="st4" d="M343.9,78.8c2.3,0,4.2-2.1,4.4-4.7"/>
			</g>
			<g>
				<line class="st4" x1="353.3" y1="74.1" x2="355.2" y2="61.3"/>
			</g>
			<g>
				<line class="st4" x1="348.3" y1="74.1" x2="346.4" y2="61.3"/>
			</g>
			<g>
				<path class="st4" d="M369,61.3c-0.2-2.9-2.4-5-4.8-4.7c-2.1,0.2-3.8,2.2-4,4.7"/>
			</g>
			<g>
				<path class="st4" d="M367.1,74.1c0.2,2.7,2.1,4.7,4.4,4.7"/>
			</g>
			<g>
				<path class="st4" d="M357.7,78.8c2.3,0,4.2-2.1,4.4-4.7"/>
			</g>
			<g>
				<line class="st4" x1="367.1" y1="74.1" x2="369" y2="61.3"/>
			</g>
			<g>
				<line class="st4" x1="362.1" y1="74.1" x2="360.2" y2="61.3"/>
			</g>
			<g>
				<path class="st4" d="M382.7,61.3c-0.2-2.9-2.4-5-4.8-4.7c-2.1,0.2-3.8,2.2-4,4.7"/>
			</g>
			<g>
				<path class="st4" d="M380.9,74.1c0.2,2.7,2.1,4.7,4.4,4.7"/>
			</g>
			<g>
				<path class="st4" d="M371.5,78.8c2.3,0,4.2-2.1,4.4-4.7"/>
			</g>
			<g>
				<line class="st4" x1="380.9" y1="74.1" x2="382.7" y2="61.3"/>
			</g>
			<g>
				<line class="st4" x1="375.8" y1="74.1" x2="374" y2="61.3"/>
			</g>
			<g>
				<path class="st4" d="M396.5,61.3c-0.2-2.9-2.4-5-4.8-4.7c-2.1,0.2-3.8,2.2-4,4.7"/>
			</g>
			<g>
				<path class="st4" d="M394.6,74.1c0.2,2.7,2.1,4.7,4.4,4.7"/>
			</g>
			<g>
				<path class="st4" d="M385.2,78.8c2.3,0,4.2-2.1,4.4-4.7"/>
			</g>
			<g>
				<line class="st4" x1="394.6" y1="74.1" x2="396.5" y2="61.3"/>
			</g>
			<g>
				<line class="st4" x1="389.6" y1="74.1" x2="387.7" y2="61.3"/>
			</g>
		</g>
	</g>
</g>
<g>
	<g id="HATCH">
		<pattern  id="SVGID_3_" xlink:href="#Unnamed_Pattern_2" patternTransform="matrix(1 0 0 1 23.3697 26.0514)">
		</pattern>
		<rect x="28.3" y="28.4" class="st5" width="411.3" height="7.1"/>
	</g>
	<g id="HATCH_1_">
		<pattern  id="SVGID_4_" xlink:href="#Unnamed_Pattern_2" patternTransform="matrix(1 0 0 1 23.3697 26.0514)">
		</pattern>
		<rect x="28.2" y="39.2" class="st6" width="411.3" height="7.1"/>
	</g>
	<g id="HATCH_2_">
		<pattern  id="SVGID_5_" xlink:href="#Unnamed_Pattern_2" patternTransform="matrix(1 0 0 1 23.3697 26.0514)">
		</pattern>
		<rect x="28.2" y="90.2" class="st7" width="411.3" height="7.1"/>
	</g>
	<g id="HATCH_3_">
		<pattern  id="SVGID_6_" xlink:href="#Unnamed_Pattern_2" patternTransform="matrix(1 0 0 1 23.3697 26.0514)">
		</pattern>
		<rect x="28.3" y="101" class="st8" width="411.3" height="7.1"/>
	</g>
</g>
<g>
	<g id="HATCH_4_">
		<polygon class="st9" points="34.7,81.7 52.8,81.7 52.8,79.3 59.2,79.3 59.2,88.1 28.3,88.1 28.3,48.1 59.2,48.1 59.2,56.8 
			52.8,56.8 52.8,54.5 34.7,54.5 		"/>
	</g>
	<g id="HATCH_5_">
		<polygon class="st9" points="415.2,81.7 433.2,81.7 433.2,79.3 439.6,79.3 439.6,88.1 408.8,88.1 408.8,48.1 439.6,48.1 
			439.6,56.8 433.2,56.8 433.2,54.5 415.2,54.5 		"/>
	</g>
</g>
</svg>
