<?xml version="1.0" encoding="utf-8"?>
<!-- Generator: Adobe Illustrator 25.2.1, SVG Export Plug-In . SVG Version: 6.00 Build 0)  -->
<svg version="1.1" id="HATCH_x5F_18" xmlns="http://www.w3.org/2000/svg" xmlns:xlink="http://www.w3.org/1999/xlink" x="0px"
	 y="0px" viewBox="0 0 552.8 317.1" style="enable-background:new 0 0 552.8 317.1;" xml:space="preserve">
<style type="text/css">
	.st0{fill-rule:evenodd;clip-rule:evenodd;fill:none;}
	.st1{clip-path:url(#SVGID_2_);fill:none;stroke:#221F1F;stroke-width:0.5;stroke-linejoin:round;}
	.st2{fill:none;stroke:#000000;stroke-width:0.75;stroke-linecap:round;stroke-linejoin:round;stroke-miterlimit:10;}
	.st3{fill:none;stroke:#000000;stroke-linecap:round;stroke-linejoin:round;stroke-miterlimit:10;}
	.st4{fill:none;stroke:#000000;stroke-width:1.125;stroke-linecap:round;stroke-linejoin:round;stroke-miterlimit:10;}
	.st5{fill-rule:evenodd;clip-rule:evenodd;fill:url(#SVGID_3_);}
	.st6{fill-rule:evenodd;clip-rule:evenodd;fill:url(#SVGID_4_);}
	.st7{fill-rule:evenodd;clip-rule:evenodd;fill:url(#SVGID_5_);}
	.st8{fill-rule:evenodd;clip-rule:evenodd;fill:url(#SVGID_6_);}
	.st9{fill-rule:evenodd;clip-rule:evenodd;fill:url(#SVGID_7_);}
	.st10{fill:none;stroke:#000000;stroke-linecap:round;stroke-miterlimit:10;}
	.st11{fill:none;stroke:#000000;stroke-miterlimit:10;}
</style>
<pattern  x="-223.6" y="658.6" width="72" height="72" patternUnits="userSpaceOnUse" id="diagonal_cross_hatch" viewBox="6.2 -86.2 72 72" style="overflow:visible;">
	<g>
		<rect x="6.2" y="-86.2" class="st0" width="72" height="72"/>
		<g>
			<defs>
				<rect id="SVGID_1_" x="6.2" y="-86.2" width="72" height="72"/>
			</defs>
			<clipPath id="SVGID_2_">
				<use xlink:href="#SVGID_1_"  style="overflow:visible;"/>
			</clipPath>
			<line class="st1" x1="0.2" y1="-74.2" x2="18.2" y2="-92.2"/>
			<line class="st1" x1="0.2" y1="-68.2" x2="24.2" y2="-92.2"/>
			<line class="st1" x1="0.2" y1="-62.2" x2="30.2" y2="-92.2"/>
			<line class="st1" x1="0.2" y1="-56.2" x2="36.2" y2="-92.2"/>
			<line class="st1" x1="0.2" y1="-50.2" x2="42.2" y2="-92.2"/>
			<line class="st1" x1="0.2" y1="-44.2" x2="48.2" y2="-92.2"/>
			<line class="st1" x1="0.2" y1="-38.2" x2="54.2" y2="-92.2"/>
			<line class="st1" x1="0.2" y1="-32.2" x2="60.2" y2="-92.2"/>
			<line class="st1" x1="0.2" y1="-26.2" x2="66.2" y2="-92.2"/>
			<line class="st1" x1="0.2" y1="-20.2" x2="72.2" y2="-92.2"/>
			<line class="st1" x1="0.2" y1="-14.2" x2="78.2" y2="-92.2"/>
			<line class="st1" x1="0.2" y1="-8.2" x2="84.2" y2="-92.2"/>
			<line class="st1" x1="6.2" y1="-8.2" x2="84.2" y2="-86.2"/>
			<line class="st1" x1="12.2" y1="-8.2" x2="84.2" y2="-80.2"/>
			<line class="st1" x1="18.2" y1="-8.2" x2="84.2" y2="-74.2"/>
			<line class="st1" x1="24.2" y1="-8.2" x2="84.2" y2="-68.2"/>
			<line class="st1" x1="30.2" y1="-8.2" x2="84.2" y2="-62.2"/>
			<line class="st1" x1="36.2" y1="-8.2" x2="84.2" y2="-56.2"/>
			<line class="st1" x1="42.2" y1="-8.2" x2="84.2" y2="-50.2"/>
			<line class="st1" x1="48.2" y1="-8.2" x2="84.2" y2="-44.2"/>
			<line class="st1" x1="54.2" y1="-8.2" x2="84.2" y2="-38.2"/>
			<line class="st1" x1="52.2" y1="-0.2" x2="94.2" y2="-42.2"/>
			<line class="st1" x1="58.2" y1="-0.2" x2="94.2" y2="-36.2"/>
			<line class="st1" x1="64.2" y1="-0.2" x2="94.2" y2="-30.2"/>
		</g>
	</g>
</pattern>
<g>
	<g>
		<g id="LINE_10_">
			<line class="st2" x1="485.2" y1="214.5" x2="524.4" y2="263.7"/>
		</g>
		<g id="LINE_9_">
			<line class="st2" x1="485.2" y1="263.7" x2="524.4" y2="214.5"/>
		</g>
	</g>
	<rect x="485.2" y="214.5" class="st3" width="39.2" height="49.2"/>
</g>
<g>
	<g>
		<g id="LINE_57_">
			<line class="st2" x1="28.3" y1="214.5" x2="67.5" y2="263.7"/>
		</g>
		<g id="LINE_56_">
			<line class="st2" x1="28.3" y1="263.7" x2="67.5" y2="214.5"/>
		</g>
	</g>
	<rect x="28.3" y="214.5" class="st3" width="39.2" height="49.2"/>
</g>
<g>
	<g>
		<g id="LINE_65_">
			<line class="st2" x1="485.2" y1="53.5" x2="524.4" y2="102.6"/>
		</g>
		<g id="LINE_55_">
			<line class="st2" x1="485.2" y1="102.6" x2="524.4" y2="53.5"/>
		</g>
	</g>
	<rect x="485.2" y="53.5" class="st3" width="39.2" height="49.2"/>
</g>
<g id="LINE_4_">
</g>
<g>
	<g>
		<g id="LINE_125_">
			<line class="st2" x1="28.3" y1="53.5" x2="67.5" y2="102.6"/>
		</g>
		<g id="LINE_124_">
			<line class="st2" x1="28.3" y1="102.6" x2="67.5" y2="53.5"/>
		</g>
	</g>
	<rect x="28.3" y="53.5" class="st3" width="39.2" height="49.2"/>
</g>
<g>
	<g>
		<g>
			<g>
				<g>
					<path class="st4" d="M151.7,232.8c-0.3-3.2-3-5.6-6-5.3c-2.7,0.2-4.8,2.5-5,5.3"/>
				</g>
				<g>
					<path class="st4" d="M149.3,247.2c0.3,3,2.7,5.3,5.5,5.3"/>
				</g>
				<g>
					<path class="st4" d="M137.5,252.5c2.9,0,5.3-2.3,5.5-5.3"/>
				</g>
				<g>
					<line class="st4" x1="149.3" y1="247.2" x2="151.7" y2="232.8"/>
				</g>
				<g>
					<line class="st4" x1="143" y1="247.2" x2="140.6" y2="232.8"/>
				</g>
				<g>
					<path class="st4" d="M99.9,232.8c-0.3-3.2-3-5.6-6-5.3c-2.7,0.2-4.8,2.5-5,5.3"/>
				</g>
				<g>
					<path class="st4" d="M97.5,247.1c0.3,3,2.7,5.3,5.5,5.3"/>
				</g>
				<g>
					<path class="st4" d="M85.7,252.5c2.9,0,5.3-2.3,5.5-5.3"/>
				</g>
				<g>
					<line class="st4" x1="97.5" y1="247.1" x2="99.9" y2="232.8"/>
				</g>
				<g>
					<line class="st4" x1="91.2" y1="247.1" x2="88.9" y2="232.8"/>
				</g>
				<g>
					<path class="st4" d="M117.3,232.8c-0.3-3.2-3-5.6-6-5.3c-2.7,0.2-4.8,2.5-5,5.3"/>
				</g>
				<g>
					<path class="st4" d="M114.9,247.1c0.3,3,2.7,5.3,5.5,5.3"/>
				</g>
				<g>
					<path class="st4" d="M103.1,252.5c2.9,0,5.3-2.3,5.5-5.3"/>
				</g>
				<g>
					<line class="st4" x1="114.9" y1="247.1" x2="117.3" y2="232.8"/>
				</g>
				<g>
					<line class="st4" x1="108.6" y1="247.1" x2="106.2" y2="232.8"/>
				</g>
				<g>
					<path class="st4" d="M82.5,232.8c-0.3-3.2-3-5.6-6-5.3c-2.7,0.2-4.8,2.5-5,5.3"/>
				</g>
				<g>
					<path class="st4" d="M80.2,247.1c0.3,3,2.7,5.3,5.5,5.3"/>
				</g>
				<g>
					<path class="st4" d="M68.3,252.5c2.9,0,5.3-2.3,5.5-5.3"/>
				</g>
				<g>
					<line class="st4" x1="80.2" y1="247.1" x2="82.5" y2="232.8"/>
				</g>
				<g>
					<line class="st4" x1="73.9" y1="247.1" x2="71.5" y2="232.8"/>
				</g>
				<g>
					<path class="st4" d="M221.2,232.8c-0.3-3.2-3-5.6-6-5.3c-2.7,0.2-4.8,2.5-5,5.3"/>
				</g>
				<g>
					<path class="st4" d="M218.8,247.2c0.3,3,2.7,5.3,5.5,5.3"/>
				</g>
				<g>
					<path class="st4" d="M207,252.5c2.9,0,5.3-2.3,5.5-5.3"/>
				</g>
				<g>
					<line class="st4" x1="218.8" y1="247.2" x2="221.2" y2="232.8"/>
				</g>
				<g>
					<line class="st4" x1="212.5" y1="247.2" x2="210.1" y2="232.8"/>
				</g>
				<g>
					<path class="st4" d="M186.4,232.8c-0.3-3.2-3-5.6-6-5.3c-2.7,0.2-4.8,2.5-5,5.3"/>
				</g>
				<g>
					<path class="st4" d="M184.1,247.2c0.3,3,2.7,5.3,5.5,5.3"/>
				</g>
				<g>
					<path class="st4" d="M172.2,252.5c2.9,0,5.3-2.3,5.5-5.3"/>
				</g>
				<g>
					<line class="st4" x1="184.1" y1="247.2" x2="186.4" y2="232.8"/>
				</g>
				<g>
					<line class="st4" x1="177.8" y1="247.2" x2="175.4" y2="232.8"/>
				</g>
				<g>
					<path class="st4" d="M203.8,232.8c-0.3-3.2-3-5.6-6-5.3c-2.7,0.2-4.8,2.5-5,5.3"/>
				</g>
				<g>
					<path class="st4" d="M201.4,247.2c0.3,3,2.7,5.3,5.5,5.3"/>
				</g>
				<g>
					<path class="st4" d="M189.6,252.5c2.9,0,5.3-2.3,5.5-5.3"/>
				</g>
				<g>
					<line class="st4" x1="201.4" y1="247.2" x2="203.8" y2="232.8"/>
				</g>
				<g>
					<line class="st4" x1="195.1" y1="247.2" x2="192.8" y2="232.8"/>
				</g>
				<g>
					<path class="st4" d="M169.1,232.8c-0.3-3.2-3-5.6-6-5.3c-2.7,0.2-4.8,2.5-5,5.3"/>
				</g>
				<g>
					<path class="st4" d="M166.7,247.2c0.3,3,2.7,5.3,5.5,5.3"/>
				</g>
				<g>
					<path class="st4" d="M154.8,252.5c2.9,0,5.3-2.3,5.5-5.3"/>
				</g>
				<g>
					<line class="st4" x1="166.7" y1="247.2" x2="169.1" y2="232.8"/>
				</g>
				<g>
					<line class="st4" x1="160.4" y1="247.2" x2="158" y2="232.8"/>
				</g>
				<g>
					<path class="st4" d="M308.1,232.8c-0.3-3.2-3-5.6-6-5.3c-2.7,0.2-4.8,2.5-5,5.3"/>
				</g>
				<g>
					<path class="st4" d="M305.7,247.2c0.3,3,2.7,5.3,5.5,5.3"/>
				</g>
				<g>
					<path class="st4" d="M293.9,252.5c2.9,0,5.3-2.3,5.5-5.3"/>
				</g>
				<g>
					<line class="st4" x1="305.7" y1="247.2" x2="308.1" y2="232.8"/>
				</g>
				<g>
					<line class="st4" x1="299.4" y1="247.2" x2="297" y2="232.8"/>
				</g>
				<g>
					<path class="st4" d="M325.5,232.8c-0.3-3.2-3-5.6-6-5.3c-2.7,0.2-4.8,2.5-5,5.3"/>
				</g>
				<g>
					<path class="st4" d="M323.1,247.2c0.3,3,2.7,5.3,5.5,5.3"/>
				</g>
				<g>
					<path class="st4" d="M311.3,252.5c2.9,0,5.3-2.3,5.5-5.3"/>
				</g>
				<g>
					<line class="st4" x1="323.1" y1="247.2" x2="325.5" y2="232.8"/>
				</g>
				<g>
					<line class="st4" x1="316.8" y1="247.2" x2="314.4" y2="232.8"/>
				</g>
				<g>
					<path class="st4" d="M273.4,232.8c-0.3-3.2-3-5.6-6-5.3c-2.7,0.2-4.8,2.5-5,5.3"/>
				</g>
				<g>
					<path class="st4" d="M271,247.2c0.3,3,2.7,5.3,5.5,5.3"/>
				</g>
				<g>
					<path class="st4" d="M259.1,252.5c2.9,0,5.3-2.3,5.5-5.3"/>
				</g>
				<g>
					<line class="st4" x1="271" y1="247.2" x2="273.4" y2="232.8"/>
				</g>
				<g>
					<line class="st4" x1="264.7" y1="247.2" x2="262.3" y2="232.8"/>
				</g>
				<g>
					<path class="st4" d="M290.7,232.8c-0.3-3.2-3-5.6-6-5.3c-2.7,0.2-4.8,2.5-5,5.3"/>
				</g>
				<g>
					<path class="st4" d="M288.4,247.2c0.3,3,2.7,5.3,5.5,5.3"/>
				</g>
				<g>
					<path class="st4" d="M276.5,252.5c2.9,0,5.3-2.3,5.5-5.3"/>
				</g>
				<g>
					<line class="st4" x1="288.4" y1="247.2" x2="290.7" y2="232.8"/>
				</g>
				<g>
					<line class="st4" x1="282" y1="247.2" x2="279.7" y2="232.8"/>
				</g>
				<g>
					<path class="st4" d="M238.6,232.8c-0.3-3.2-3-5.6-6-5.3c-2.7,0.2-4.8,2.5-5,5.3"/>
				</g>
				<g>
					<path class="st4" d="M236.2,247.2c0.3,3,2.7,5.3,5.5,5.3"/>
				</g>
				<g>
					<path class="st4" d="M224.4,252.5c2.9,0,5.3-2.3,5.5-5.3"/>
				</g>
				<g>
					<line class="st4" x1="236.2" y1="247.2" x2="238.6" y2="232.8"/>
				</g>
				<g>
					<line class="st4" x1="229.9" y1="247.2" x2="227.5" y2="232.8"/>
				</g>
				<g>
					<path class="st4" d="M256,232.8c-0.3-3.2-3-5.6-6-5.3c-2.7,0.2-4.8,2.5-5,5.3"/>
				</g>
				<g>
					<path class="st4" d="M253.6,247.2c0.3,3,2.7,5.3,5.5,5.3"/>
				</g>
				<g>
					<path class="st4" d="M241.7,252.5c2.9,0,5.3-2.3,5.5-5.3"/>
				</g>
				<g>
					<line class="st4" x1="253.6" y1="247.2" x2="256" y2="232.8"/>
				</g>
				<g>
					<line class="st4" x1="247.3" y1="247.2" x2="244.9" y2="232.8"/>
				</g>
				<g>
					<path class="st4" d="M377.6,232.8c-0.3-3.2-3-5.6-6-5.3c-2.7,0.2-4.8,2.5-5,5.3"/>
				</g>
				<g>
					<path class="st4" d="M375.3,247.2c0.3,3,2.7,5.3,5.5,5.3"/>
				</g>
				<g>
					<path class="st4" d="M363.4,252.5c2.9,0,5.3-2.3,5.5-5.3"/>
				</g>
				<g>
					<line class="st4" x1="375.3" y1="247.2" x2="377.6" y2="232.8"/>
				</g>
				<g>
					<line class="st4" x1="368.9" y1="247.2" x2="366.6" y2="232.8"/>
				</g>
				<g>
					<path class="st4" d="M342.9,232.8c-0.3-3.2-3-5.6-6-5.3c-2.7,0.2-4.8,2.5-5,5.3"/>
				</g>
				<g>
					<path class="st4" d="M340.5,247.2c0.3,3,2.7,5.3,5.5,5.3"/>
				</g>
				<g>
					<path class="st4" d="M328.7,252.5c2.9,0,5.3-2.3,5.5-5.3"/>
				</g>
				<g>
					<line class="st4" x1="340.5" y1="247.2" x2="342.9" y2="232.8"/>
				</g>
				<g>
					<line class="st4" x1="334.2" y1="247.2" x2="331.8" y2="232.8"/>
				</g>
				<g>
					<path class="st4" d="M360.3,232.8c-0.3-3.2-3-5.6-6-5.3c-2.7,0.2-4.8,2.5-5,5.3"/>
				</g>
				<g>
					<path class="st4" d="M357.9,247.2c0.3,3,2.7,5.3,5.5,5.3"/>
				</g>
				<g>
					<path class="st4" d="M346,252.5c2.9,0,5.3-2.3,5.5-5.3"/>
				</g>
				<g>
					<line class="st4" x1="357.9" y1="247.2" x2="360.3" y2="232.8"/>
				</g>
				<g>
					<line class="st4" x1="351.6" y1="247.2" x2="349.2" y2="232.8"/>
				</g>
				<g>
					<path class="st4" d="M395,232.8c-0.3-3.2-3-5.6-6-5.3c-2.7,0.2-4.8,2.5-5,5.3"/>
				</g>
				<g>
					<path class="st4" d="M392.6,247.2c0.3,3,2.7,5.3,5.5,5.3"/>
				</g>
				<g>
					<path class="st4" d="M380.8,252.5c2.9,0,5.3-2.3,5.5-5.3"/>
				</g>
				<g>
					<line class="st4" x1="392.6" y1="247.2" x2="395" y2="232.8"/>
				</g>
				<g>
					<line class="st4" x1="386.3" y1="247.2" x2="384" y2="232.8"/>
				</g>
				<g>
					<path class="st4" d="M412.4,232.8c-0.3-3.2-3-5.6-6-5.3c-2.7,0.2-4.8,2.5-5,5.3"/>
				</g>
				<g>
					<path class="st4" d="M410,247.2c0.3,3,2.7,5.3,5.5,5.3"/>
				</g>
				<g>
					<path class="st4" d="M398.2,252.5c2.9,0,5.3-2.3,5.5-5.3"/>
				</g>
				<g>
					<line class="st4" x1="410" y1="247.2" x2="412.4" y2="232.8"/>
				</g>
				<g>
					<line class="st4" x1="403.7" y1="247.2" x2="401.3" y2="232.8"/>
				</g>
				<g>
					<path class="st4" d="M134.7,232.8c-0.3-3.2-3-5.6-6-5.3c-2.7,0.2-4.8,2.5-5,5.3"/>
				</g>
				<g>
					<path class="st4" d="M132.3,247.1c0.3,3,2.7,5.3,5.5,5.3"/>
				</g>
				<g>
					<path class="st4" d="M120.5,252.5c2.9,0,5.3-2.3,5.5-5.3"/>
				</g>
				<g>
					<line class="st4" x1="132.3" y1="247.1" x2="134.7" y2="232.8"/>
				</g>
				<g>
					<line class="st4" x1="126" y1="247.1" x2="123.6" y2="232.8"/>
				</g>
				<g>
					<path class="st4" d="M429.8,232.8c-0.3-3.2-3-5.6-6-5.3c-2.7,0.2-4.8,2.5-5,5.3"/>
				</g>
				<g>
					<path class="st4" d="M427.4,247.2c0.3,3,2.7,5.3,5.5,5.3"/>
				</g>
				<g>
					<path class="st4" d="M415.6,252.5c2.9,0,5.3-2.3,5.5-5.3"/>
				</g>
				<g>
					<line class="st4" x1="427.4" y1="247.2" x2="429.8" y2="232.8"/>
				</g>
				<g>
					<line class="st4" x1="421.1" y1="247.2" x2="418.7" y2="232.8"/>
				</g>
				<g>
					<path class="st4" d="M447.2,232.8c-0.3-3.2-3-5.6-6-5.3c-2.7,0.2-4.8,2.5-5,5.3"/>
				</g>
				<g>
					<path class="st4" d="M444.8,247.2c0.3,3,2.7,5.3,5.5,5.3"/>
				</g>
				<g>
					<path class="st4" d="M432.9,252.5c2.9,0,5.3-2.3,5.5-5.3"/>
				</g>
				<g>
					<line class="st4" x1="444.8" y1="247.2" x2="447.2" y2="232.8"/>
				</g>
				<g>
					<line class="st4" x1="438.5" y1="247.2" x2="436.1" y2="232.8"/>
				</g>
				<g>
					<path class="st4" d="M464.5,232.8c-0.3-3.2-3-5.6-6-5.3c-2.7,0.2-4.8,2.5-5,5.3"/>
				</g>
				<g>
					<path class="st4" d="M462.2,247.2c0.3,3,2.7,5.3,5.5,5.3"/>
				</g>
				<g>
					<path class="st4" d="M450.3,252.5c2.9,0,5.3-2.3,5.5-5.3"/>
				</g>
				<g>
					<line class="st4" x1="462.2" y1="247.2" x2="464.5" y2="232.8"/>
				</g>
				<g>
					<line class="st4" x1="455.9" y1="247.2" x2="453.5" y2="232.8"/>
				</g>
				<g>
					<path class="st4" d="M481.9,232.8c-0.3-3.2-3-5.6-6-5.3c-2.7,0.2-4.8,2.5-5,5.3"/>
				</g>
				<g>
					<path class="st4" d="M479.5,247.2c0.3,3,2.7,5.3,5.5,5.3"/>
				</g>
				<g>
					<path class="st4" d="M467.7,252.5c2.9,0,5.3-2.3,5.5-5.3"/>
				</g>
				<g>
					<line class="st4" x1="479.5" y1="247.2" x2="481.9" y2="232.8"/>
				</g>
				<g>
					<line class="st4" x1="473.2" y1="247.2" x2="470.9" y2="232.8"/>
				</g>
			</g>
		</g>
	</g>
</g>
<g>
	<g>
		<g>
			<g>
				<g>
					<path class="st4" d="M151.7,70.1c-0.3-3.2-3-5.6-6-5.3c-2.7,0.2-4.8,2.5-5,5.3"/>
				</g>
				<g>
					<path class="st4" d="M149.3,84.5c0.3,3,2.7,5.3,5.5,5.3"/>
				</g>
				<g>
					<path class="st4" d="M137.5,89.8c2.9,0,5.3-2.3,5.5-5.3"/>
				</g>
				<g>
					<line class="st4" x1="149.3" y1="84.5" x2="151.7" y2="70.1"/>
				</g>
				<g>
					<line class="st4" x1="143" y1="84.5" x2="140.6" y2="70.1"/>
				</g>
				<g>
					<path class="st4" d="M99.9,70.1c-0.3-3.2-3-5.6-6-5.3c-2.7,0.2-4.8,2.5-5,5.3"/>
				</g>
				<g>
					<path class="st4" d="M97.5,84.5c0.3,3,2.7,5.3,5.5,5.3"/>
				</g>
				<g>
					<path class="st4" d="M85.7,89.8c2.9,0,5.3-2.3,5.5-5.3"/>
				</g>
				<g>
					<line class="st4" x1="97.5" y1="84.5" x2="99.9" y2="70.1"/>
				</g>
				<g>
					<line class="st4" x1="91.2" y1="84.5" x2="88.9" y2="70.1"/>
				</g>
				<g>
					<path class="st4" d="M117.3,70.1c-0.3-3.2-3-5.6-6-5.3c-2.7,0.2-4.8,2.5-5,5.3"/>
				</g>
				<g>
					<path class="st4" d="M114.9,84.5c0.3,3,2.7,5.3,5.5,5.3"/>
				</g>
				<g>
					<path class="st4" d="M103.1,89.8c2.9,0,5.3-2.3,5.5-5.3"/>
				</g>
				<g>
					<line class="st4" x1="114.9" y1="84.5" x2="117.3" y2="70.1"/>
				</g>
				<g>
					<line class="st4" x1="108.6" y1="84.5" x2="106.2" y2="70.1"/>
				</g>
				<g>
					<path class="st4" d="M82.5,70.1c-0.3-3.2-3-5.6-6-5.3c-2.7,0.2-4.8,2.5-5,5.3"/>
				</g>
				<g>
					<path class="st4" d="M80.2,84.5c0.3,3,2.7,5.3,5.5,5.3"/>
				</g>
				<g>
					<path class="st4" d="M68.3,89.8c2.9,0,5.3-2.3,5.5-5.3"/>
				</g>
				<g>
					<line class="st4" x1="80.2" y1="84.5" x2="82.5" y2="70.1"/>
				</g>
				<g>
					<line class="st4" x1="73.9" y1="84.5" x2="71.5" y2="70.1"/>
				</g>
				<g>
					<path class="st4" d="M221.2,70.1c-0.3-3.2-3-5.6-6-5.3c-2.7,0.2-4.8,2.5-5,5.3"/>
				</g>
				<g>
					<path class="st4" d="M218.8,84.5c0.3,3,2.7,5.3,5.5,5.3"/>
				</g>
				<g>
					<path class="st4" d="M207,89.8c2.9,0,5.3-2.3,5.5-5.3"/>
				</g>
				<g>
					<line class="st4" x1="218.8" y1="84.5" x2="221.2" y2="70.1"/>
				</g>
				<g>
					<line class="st4" x1="212.5" y1="84.5" x2="210.1" y2="70.1"/>
				</g>
				<g>
					<path class="st4" d="M186.4,70.1c-0.3-3.2-3-5.6-6-5.3c-2.7,0.2-4.8,2.5-5,5.3"/>
				</g>
				<g>
					<path class="st4" d="M184.1,84.5c0.3,3,2.7,5.3,5.5,5.3"/>
				</g>
				<g>
					<path class="st4" d="M172.2,89.8c2.9,0,5.3-2.3,5.5-5.3"/>
				</g>
				<g>
					<line class="st4" x1="184.1" y1="84.5" x2="186.4" y2="70.1"/>
				</g>
				<g>
					<line class="st4" x1="177.8" y1="84.5" x2="175.4" y2="70.1"/>
				</g>
				<g>
					<path class="st4" d="M203.8,70.1c-0.3-3.2-3-5.6-6-5.3c-2.7,0.2-4.8,2.5-5,5.3"/>
				</g>
				<g>
					<path class="st4" d="M201.4,84.5c0.3,3,2.7,5.3,5.5,5.3"/>
				</g>
				<g>
					<path class="st4" d="M189.6,89.8c2.9,0,5.3-2.3,5.5-5.3"/>
				</g>
				<g>
					<line class="st4" x1="201.4" y1="84.5" x2="203.8" y2="70.1"/>
				</g>
				<g>
					<line class="st4" x1="195.1" y1="84.5" x2="192.8" y2="70.1"/>
				</g>
				<g>
					<path class="st4" d="M169.1,70.1c-0.3-3.2-3-5.6-6-5.3c-2.7,0.2-4.8,2.5-5,5.3"/>
				</g>
				<g>
					<path class="st4" d="M166.7,84.5c0.3,3,2.7,5.3,5.5,5.3"/>
				</g>
				<g>
					<path class="st4" d="M154.8,89.8c2.9,0,5.3-2.3,5.5-5.3"/>
				</g>
				<g>
					<line class="st4" x1="166.7" y1="84.5" x2="169.1" y2="70.1"/>
				</g>
				<g>
					<line class="st4" x1="160.4" y1="84.5" x2="158" y2="70.1"/>
				</g>
				<g>
					<path class="st4" d="M308.1,70.1c-0.3-3.2-3-5.6-6-5.3c-2.7,0.2-4.8,2.5-5,5.3"/>
				</g>
				<g>
					<path class="st4" d="M305.7,84.5c0.3,3,2.7,5.3,5.5,5.3"/>
				</g>
				<g>
					<path class="st4" d="M293.9,89.8c2.9,0,5.3-2.3,5.5-5.3"/>
				</g>
				<g>
					<line class="st4" x1="305.7" y1="84.5" x2="308.1" y2="70.1"/>
				</g>
				<g>
					<line class="st4" x1="299.4" y1="84.5" x2="297" y2="70.1"/>
				</g>
				<g>
					<path class="st4" d="M325.5,70.1c-0.3-3.2-3-5.6-6-5.3c-2.7,0.2-4.8,2.5-5,5.3"/>
				</g>
				<g>
					<path class="st4" d="M323.1,84.5c0.3,3,2.7,5.3,5.5,5.3"/>
				</g>
				<g>
					<path class="st4" d="M311.3,89.8c2.9,0,5.3-2.3,5.5-5.3"/>
				</g>
				<g>
					<line class="st4" x1="323.1" y1="84.5" x2="325.5" y2="70.1"/>
				</g>
				<g>
					<line class="st4" x1="316.8" y1="84.5" x2="314.4" y2="70.1"/>
				</g>
				<g>
					<path class="st4" d="M273.4,70.1c-0.3-3.2-3-5.6-6-5.3c-2.7,0.2-4.8,2.5-5,5.3"/>
				</g>
				<g>
					<path class="st4" d="M271,84.5c0.3,3,2.7,5.3,5.5,5.3"/>
				</g>
				<g>
					<path class="st4" d="M259.1,89.8c2.9,0,5.3-2.3,5.5-5.3"/>
				</g>
				<g>
					<line class="st4" x1="271" y1="84.5" x2="273.4" y2="70.1"/>
				</g>
				<g>
					<line class="st4" x1="264.7" y1="84.5" x2="262.3" y2="70.1"/>
				</g>
				<g>
					<path class="st4" d="M290.7,70.1c-0.3-3.2-3-5.6-6-5.3c-2.7,0.2-4.8,2.5-5,5.3"/>
				</g>
				<g>
					<path class="st4" d="M288.4,84.5c0.3,3,2.7,5.3,5.5,5.3"/>
				</g>
				<g>
					<path class="st4" d="M276.5,89.8c2.9,0,5.3-2.3,5.5-5.3"/>
				</g>
				<g>
					<line class="st4" x1="288.4" y1="84.5" x2="290.7" y2="70.1"/>
				</g>
				<g>
					<line class="st4" x1="282" y1="84.5" x2="279.7" y2="70.1"/>
				</g>
				<g>
					<path class="st4" d="M238.6,70.1c-0.3-3.2-3-5.6-6-5.3c-2.7,0.2-4.8,2.5-5,5.3"/>
				</g>
				<g>
					<path class="st4" d="M236.2,84.5c0.3,3,2.7,5.3,5.5,5.3"/>
				</g>
				<g>
					<path class="st4" d="M224.4,89.8c2.9,0,5.3-2.3,5.5-5.3"/>
				</g>
				<g>
					<line class="st4" x1="236.2" y1="84.5" x2="238.6" y2="70.1"/>
				</g>
				<g>
					<line class="st4" x1="229.9" y1="84.5" x2="227.5" y2="70.1"/>
				</g>
				<g>
					<path class="st4" d="M256,70.1c-0.3-3.2-3-5.6-6-5.3c-2.7,0.2-4.8,2.5-5,5.3"/>
				</g>
				<g>
					<path class="st4" d="M253.6,84.5c0.3,3,2.7,5.3,5.5,5.3"/>
				</g>
				<g>
					<path class="st4" d="M241.7,89.8c2.9,0,5.3-2.3,5.5-5.3"/>
				</g>
				<g>
					<line class="st4" x1="253.6" y1="84.5" x2="256" y2="70.1"/>
				</g>
				<g>
					<line class="st4" x1="247.3" y1="84.5" x2="244.9" y2="70.1"/>
				</g>
				<g>
					<path class="st4" d="M377.6,70.1c-0.3-3.2-3-5.6-6-5.3c-2.7,0.2-4.8,2.5-5,5.3"/>
				</g>
				<g>
					<path class="st4" d="M375.3,84.5c0.3,3,2.7,5.3,5.5,5.3"/>
				</g>
				<g>
					<path class="st4" d="M363.4,89.8c2.9,0,5.3-2.3,5.5-5.3"/>
				</g>
				<g>
					<line class="st4" x1="375.3" y1="84.5" x2="377.6" y2="70.1"/>
				</g>
				<g>
					<line class="st4" x1="368.9" y1="84.5" x2="366.6" y2="70.1"/>
				</g>
				<g>
					<path class="st4" d="M342.9,70.1c-0.3-3.2-3-5.6-6-5.3c-2.7,0.2-4.8,2.5-5,5.3"/>
				</g>
				<g>
					<path class="st4" d="M340.5,84.5c0.3,3,2.7,5.3,5.5,5.3"/>
				</g>
				<g>
					<path class="st4" d="M328.7,89.8c2.9,0,5.3-2.3,5.5-5.3"/>
				</g>
				<g>
					<line class="st4" x1="340.5" y1="84.5" x2="342.9" y2="70.1"/>
				</g>
				<g>
					<line class="st4" x1="334.2" y1="84.5" x2="331.8" y2="70.1"/>
				</g>
				<g>
					<path class="st4" d="M360.3,70.1c-0.3-3.2-3-5.6-6-5.3c-2.7,0.2-4.8,2.5-5,5.3"/>
				</g>
				<g>
					<path class="st4" d="M357.9,84.5c0.3,3,2.7,5.3,5.5,5.3"/>
				</g>
				<g>
					<path class="st4" d="M346,89.8c2.9,0,5.3-2.3,5.5-5.3"/>
				</g>
				<g>
					<line class="st4" x1="357.9" y1="84.5" x2="360.3" y2="70.1"/>
				</g>
				<g>
					<line class="st4" x1="351.6" y1="84.5" x2="349.2" y2="70.1"/>
				</g>
				<g>
					<path class="st4" d="M395,70.1c-0.3-3.2-3-5.6-6-5.3c-2.7,0.2-4.8,2.5-5,5.3"/>
				</g>
				<g>
					<path class="st4" d="M392.6,84.5c0.3,3,2.7,5.3,5.5,5.3"/>
				</g>
				<g>
					<path class="st4" d="M380.8,89.8c2.9,0,5.3-2.3,5.5-5.3"/>
				</g>
				<g>
					<line class="st4" x1="392.6" y1="84.5" x2="395" y2="70.1"/>
				</g>
				<g>
					<line class="st4" x1="386.3" y1="84.5" x2="384" y2="70.1"/>
				</g>
				<g>
					<path class="st4" d="M412.4,70.1c-0.3-3.2-3-5.6-6-5.3c-2.7,0.2-4.8,2.5-5,5.3"/>
				</g>
				<g>
					<path class="st4" d="M410,84.5c0.3,3,2.7,5.3,5.5,5.3"/>
				</g>
				<g>
					<path class="st4" d="M398.2,89.8c2.9,0,5.3-2.3,5.5-5.3"/>
				</g>
				<g>
					<line class="st4" x1="410" y1="84.5" x2="412.4" y2="70.1"/>
				</g>
				<g>
					<line class="st4" x1="403.7" y1="84.5" x2="401.3" y2="70.1"/>
				</g>
				<g>
					<path class="st4" d="M134.7,70.1c-0.3-3.2-3-5.6-6-5.3c-2.7,0.2-4.8,2.5-5,5.3"/>
				</g>
				<g>
					<path class="st4" d="M132.3,84.5c0.3,3,2.7,5.3,5.5,5.3"/>
				</g>
				<g>
					<path class="st4" d="M120.5,89.8c2.9,0,5.3-2.3,5.5-5.3"/>
				</g>
				<g>
					<line class="st4" x1="132.3" y1="84.5" x2="134.7" y2="70.1"/>
				</g>
				<g>
					<line class="st4" x1="126" y1="84.5" x2="123.6" y2="70.1"/>
				</g>
				<g>
					<path class="st4" d="M429.8,70.1c-0.3-3.2-3-5.6-6-5.3c-2.7,0.2-4.8,2.5-5,5.3"/>
				</g>
				<g>
					<path class="st4" d="M427.4,84.5c0.3,3,2.7,5.3,5.5,5.3"/>
				</g>
				<g>
					<path class="st4" d="M415.6,89.8c2.9,0,5.3-2.3,5.5-5.3"/>
				</g>
				<g>
					<line class="st4" x1="427.4" y1="84.5" x2="429.8" y2="70.1"/>
				</g>
				<g>
					<line class="st4" x1="421.1" y1="84.5" x2="418.7" y2="70.1"/>
				</g>
				<g>
					<path class="st4" d="M447.2,70.1c-0.3-3.2-3-5.6-6-5.3c-2.7,0.2-4.8,2.5-5,5.3"/>
				</g>
				<g>
					<path class="st4" d="M444.8,84.5c0.3,3,2.7,5.3,5.5,5.3"/>
				</g>
				<g>
					<path class="st4" d="M432.9,89.8c2.9,0,5.3-2.3,5.5-5.3"/>
				</g>
				<g>
					<line class="st4" x1="444.8" y1="84.5" x2="447.2" y2="70.1"/>
				</g>
				<g>
					<line class="st4" x1="438.5" y1="84.5" x2="436.1" y2="70.1"/>
				</g>
				<g>
					<path class="st4" d="M464.5,70.1c-0.3-3.2-3-5.6-6-5.3c-2.7,0.2-4.8,2.5-5,5.3"/>
				</g>
				<g>
					<path class="st4" d="M462.2,84.5c0.3,3,2.7,5.3,5.5,5.3"/>
				</g>
				<g>
					<path class="st4" d="M450.3,89.8c2.9,0,5.3-2.3,5.5-5.3"/>
				</g>
				<g>
					<line class="st4" x1="462.2" y1="84.5" x2="464.5" y2="70.1"/>
				</g>
				<g>
					<line class="st4" x1="455.9" y1="84.5" x2="453.5" y2="70.1"/>
				</g>
				<g>
					<path class="st4" d="M481.9,70.1c-0.3-3.2-3-5.6-6-5.3c-2.7,0.2-4.8,2.5-5,5.3"/>
				</g>
				<g>
					<path class="st4" d="M479.5,84.5c0.3,3,2.7,5.3,5.5,5.3"/>
				</g>
				<g>
					<path class="st4" d="M467.7,89.8c2.9,0,5.3-2.3,5.5-5.3"/>
				</g>
				<g>
					<line class="st4" x1="479.5" y1="84.5" x2="481.9" y2="70.1"/>
				</g>
				<g>
					<line class="st4" x1="473.2" y1="84.5" x2="470.9" y2="70.1"/>
				</g>
			</g>
		</g>
	</g>
</g>
<g>
	<g id="HATCH">
		<pattern  id="SVGID_3_" xlink:href="#diagonal_cross_hatch" patternTransform="matrix(1 0 0 1 -40.4331 -4.0401)">
		</pattern>
		<rect x="28.3" y="115.7" class="st5" width="156.5" height="85.8"/>
	</g>
	<g id="HATCH_1_">
		<pattern  id="SVGID_4_" xlink:href="#diagonal_cross_hatch" patternTransform="matrix(1 0 0 1 -40.4331 -4.0401)">
		</pattern>
		<rect x="198.1" y="115.7" class="st6" width="156.5" height="85.8"/>
	</g>
	<g id="HATCH_2_">
		<pattern  id="SVGID_5_" xlink:href="#diagonal_cross_hatch" patternTransform="matrix(1 0 0 1 -40.4331 -4.0401)">
		</pattern>
		<rect x="367.9" y="115.7" class="st7" width="156.5" height="85.8"/>
	</g>
	<g id="HATCH_3_">
		<pattern  id="SVGID_6_" xlink:href="#diagonal_cross_hatch" patternTransform="matrix(1 0 0 1 -40.4331 -4.0401)">
		</pattern>
		<rect x="28.3" y="29.9" class="st8" width="496.1" height="21.9"/>
	</g>
	<g id="HATCH_4_">
		<pattern  id="SVGID_7_" xlink:href="#diagonal_cross_hatch" patternTransform="matrix(1 0 0 1 -40.4331 -4.0401)">
		</pattern>
		<rect x="28.3" y="265.3" class="st9" width="496.1" height="21.9"/>
	</g>
</g>
<g>
	<g id="LINE_7_">
		<line class="st3" x1="28.3" y1="263.7" x2="28.3" y2="288.8"/>
	</g>
	<g id="LINE_8_">
		<line class="st3" x1="524.4" y1="263.7" x2="524.4" y2="288.8"/>
	</g>
	<g id="LINE_63_">
		<line class="st10" x1="28.3" y1="53.8" x2="28.3" y2="28.3"/>
	</g>
	<g id="LINE_64_">
		<line class="st3" x1="524.4" y1="53.5" x2="524.4" y2="28.3"/>
	</g>
	<g id="LINE_5_">
		<line class="st11" x1="28.3" y1="288.8" x2="524.4" y2="288.8"/>
	</g>
	<g id="LINE_6_">
		<line class="st11" x1="28.3" y1="263.7" x2="524.4" y2="263.7"/>
	</g>
	<g>
		<g id="LINE_49_">
			<line class="st3" x1="28.3" y1="115.7" x2="28.3" y2="201.5"/>
		</g>
		<g id="LINE_50_">
			<line class="st3" x1="524.4" y1="115.7" x2="524.4" y2="201.5"/>
		</g>
		<g id="LINE_47_">
			<line class="st11" x1="28.3" y1="201.5" x2="524.4" y2="201.5"/>
		</g>
		<g id="LINE_48_">
			<line class="st11" x1="524.4" y1="115.7" x2="28.3" y2="115.7"/>
		</g>
		<g id="LINE_51_">
			<line class="st11" x1="184.9" y1="115.7" x2="184.9" y2="201.5"/>
		</g>
		<g id="LINE_52_">
			<line class="st11" x1="354.6" y1="115.7" x2="354.6" y2="201.5"/>
		</g>
		<g id="LINE_53_">
			<line class="st11" x1="198.1" y1="115.7" x2="198.1" y2="201.5"/>
		</g>
		<g id="LINE_54_">
			<line class="st11" x1="367.9" y1="115.7" x2="367.9" y2="201.5"/>
		</g>
	</g>
	<g id="LINE_61_">
		<line class="st11" x1="28.3" y1="28.3" x2="524.4" y2="28.3"/>
	</g>
	<g id="LINE_62_">
		<line class="st11" x1="28.3" y1="53.5" x2="524.4" y2="53.5"/>
	</g>
	<g id="POLYLINE_3_">
		<rect x="28.3" y="29.9" class="st11" width="496.1" height="21.9"/>
	</g>
	<g id="POLYLINE_4_">
		<rect x="28.3" y="265.3" class="st11" width="496.1" height="21.9"/>
	</g>
</g>
</svg>
